ISO-10303-21;
HEADER;
FILE_DESCRIPTION (( 'STEP AP214' ),
    '1' );
FILE_NAME ('Gripper Cover.STEP',
    '2026-08-27T22:10:01',
    ( '' ),
    ( '' ),
    'SwSTEP 2.0',
    'SolidWorks 2026',
    '' );
FILE_SCHEMA (( 'AUTOMOTIVE_DESIGN' ));
ENDSEC;

DATA;
#1 = ORIENTED_EDGE ( 'NONE', *, *, #283, .F. ) ;
#2 = CIRCLE ( 'NONE', #620, 1.599999999999997202 ) ;
#3 = FACE_OUTER_BOUND ( 'NONE', #499, .T. ) ;
#4 = ORIENTED_EDGE ( 'NONE', *, *, #44, .T. ) ;
#5 = DIRECTION ( 'NONE',  ( -0.000000000000000000, -0.000000000000000000, -1.000000000000000000 ) ) ;
#6 = PRODUCT_RELATED_PRODUCT_CATEGORY ( 'part', '', ( #274 ) ) ;
#7 = ORIENTED_EDGE ( 'NONE', *, *, #436, .T. ) ;
#8 = LINE ( 'NONE', #678, #530 ) ;
#9 = DIRECTION ( 'NONE',  ( -1.000000000000000000, 0.000000000000000000, 0.000000000000000000 ) ) ;
#10 = ORIENTED_EDGE ( 'NONE', *, *, #688, .F. ) ;
#11 = CARTESIAN_POINT ( 'NONE',  ( -18.49999999999999289, 7.000000000000002665, 35.00099999999999767 ) ) ;
#12 = CARTESIAN_POINT ( 'NONE',  ( 15.00000000000000355, 0.000000000000000000, 34.99999999999999289 ) ) ;
#13 = LINE ( 'NONE', #1034, #443 ) ;
#14 = VERTEX_POINT ( 'NONE', #170 ) ;
#15 = CARTESIAN_POINT ( 'NONE',  ( -9.499999999999992895, 10.50000000000000000, -30.35000000000001208 ) ) ;
#16 = EDGE_CURVE ( 'NONE', #45, #755, #849, .T. ) ;
#17 = AXIS2_PLACEMENT_3D ( 'NONE', #250, #328, #989 ) ;
#18 = LINE ( 'NONE', #167, #195 ) ;
#19 = ORIENTED_EDGE ( 'NONE', *, *, #1042, .T. ) ;
#20 = AXIS2_PLACEMENT_3D ( 'NONE', #815, #389, #31 ) ;
#21 = DIRECTION ( 'NONE',  ( 0.000000000000000000, 0.000000000000000000, 1.000000000000000000 ) ) ;
#22 = PRODUCT_DEFINITION_FORMATION_WITH_SPECIFIED_SOURCE ( 'Symmetric', '', #274, .NOT_KNOWN. ) ;
#23 = ORIENTED_EDGE ( 'NONE', *, *, #832, .F. ) ;
#24 = DIRECTION ( 'NONE',  ( 0.000000000000000000, 0.000000000000000000, 1.000000000000000000 ) ) ;
#25 = VERTEX_POINT ( 'NONE', #362 ) ;
#26 = ADVANCED_FACE ( 'NONE', ( #706 ), #618, .F. ) ;
#27 = DIRECTION ( 'NONE',  ( 1.000000000000000000, -0.000000000000000000, 0.000000000000000000 ) ) ;
#28 = VERTEX_POINT ( 'NONE', #984 ) ;
#29 = LINE ( 'NONE', #725, #408 ) ;
#30 = APPLICATION_CONTEXT ( 'automotive_design' ) ;
#31 = DIRECTION ( 'NONE',  ( 0.000000000000000000, 0.000000000000000000, -1.000000000000000000 ) ) ;
#32 = DIRECTION ( 'NONE',  ( -0.000000000000000000, -1.000000000000000000, -0.000000000000000000 ) ) ;
#33 = PRODUCT_DEFINITION_CONTEXT ( 'detailed design', #30, 'design' ) ;
#34 = DIRECTION ( 'NONE',  ( 1.000000000000000000, 0.000000000000000000, 0.000000000000000000 ) ) ;
#35 = DIRECTION ( 'NONE',  ( 0.000000000000000000, 0.000000000000000000, -1.000000000000000000 ) ) ;
#36 = ORIENTED_EDGE ( 'NONE', *, *, #16, .F. ) ;
#37 = AXIS2_PLACEMENT_3D ( 'NONE', #513, #91, #426 ) ;
#38 = CARTESIAN_POINT ( 'NONE',  ( -14.99999999999999822, 2.500000000000000444, -17.50000000000000000 ) ) ;
#39 = VECTOR ( 'NONE', #184, 1000.000000000000000 ) ;
#40 = CARTESIAN_POINT ( 'NONE',  ( 9.500000000000003553, 10.50000000000000000, -28.75000000000001066 ) ) ;
#41 = FACE_OUTER_BOUND ( 'NONE', #60, .T. ) ;
#42 = EDGE_LOOP ( 'NONE', ( #571, #599, #102, #590 ) ) ;
#43 = SURFACE_SIDE_STYLE ('',( #214 ) ) ;
#44 = EDGE_CURVE ( 'NONE', #373, #691, #293, .T. ) ;
#45 = VERTEX_POINT ( 'NONE', #646 ) ;
#46 = MANIFOLD_SOLID_BREP ( 'Cut-Extrude4', #346 ) ;
#47 = LINE ( 'NONE', #277, #888 ) ;
#48 = EDGE_CURVE ( 'NONE', #868, #14, #636, .T. ) ;
#49 = CARTESIAN_POINT ( 'NONE',  ( 20.10000000000000497, 7.000000000000002665, -30.50000000000000711 ) ) ;
#50 = ORIENTED_EDGE ( 'NONE', *, *, #915, .T. ) ;
#51 = CARTESIAN_POINT ( 'NONE',  ( 16.90000000000000213, 7.000000000000002665, -30.50000000000000711 ) ) ;
#52 = EDGE_CURVE ( 'NONE', #319, #45, #813, .T. ) ;
#53 = DIRECTION ( 'NONE',  ( -0.000000000000000000, -0.000000000000000000, 1.000000000000000000 ) ) ;
#54 = ORIENTED_EDGE ( 'NONE', *, *, #276, .T. ) ;
#55 = FACE_BOUND ( 'NONE', #1019, .T. ) ;
#56 = VECTOR ( 'NONE', #53, 1000.000000000000000 ) ;
#57 = LINE ( 'NONE', #480, #604 ) ;
#58 = DIRECTION ( 'NONE',  ( 0.000000000000000000, -0.000000000000000000, -1.000000000000000000 ) ) ;
#59 = EDGE_CURVE ( 'NONE', #934, #975, #549, .T. ) ;
#60 = EDGE_LOOP ( 'NONE', ( #642, #133, #781, #366 ) ) ;
#61 = DIRECTION ( 'NONE',  ( 0.000000000000000000, 1.000000000000000000, 0.000000000000000000 ) ) ;
#62 = CARTESIAN_POINT ( 'NONE',  ( -14.99999999999999289, 10.50000000000000000, 34.99999999999999289 ) ) ;
#63 = CARTESIAN_POINT ( 'NONE',  ( -21.99999999999999289, 10.50000000000000000, -30.50000000000001066 ) ) ;
#64 = ORIENTED_EDGE ( 'NONE', *, *, #1090, .T. ) ;
#65 = DIRECTION ( 'NONE',  ( -0.000000000000000000, 1.000000000000000000, -0.000000000000000000 ) ) ;
#66 = DIRECTION ( 'NONE',  ( 0.000000000000000000, 1.000000000000000000, 0.000000000000000000 ) ) ;
#67 = CARTESIAN_POINT ( 'NONE',  ( -14.99999999999999289, 10.50000000000000000, -35.00000000000000711 ) ) ;
#68 = ORIENTED_EDGE ( 'NONE', *, *, #665, .F. ) ;
#69 = VECTOR ( 'NONE', #523, 1000.000000000000000 ) ;
#70 = AXIS2_PLACEMENT_3D ( 'NONE', #824, #814, #304 ) ;
#71 = CARTESIAN_POINT ( 'NONE',  ( -9.499999999999991118, 0.000000000000000000, 31.49999999999999289 ) ) ;
#72 = DIRECTION ( 'NONE',  ( -1.000000000000000000, 0.000000000000000000, 0.000000000000000000 ) ) ;
#73 = VERTEX_POINT ( 'NONE', #980 ) ;
#74 = DIRECTION ( 'NONE',  ( -1.000000000000000000, 0.000000000000000000, 0.000000000000000000 ) ) ;
#75 = EDGE_CURVE ( 'NONE', #727, #155, #244, .T. ) ;
#76 = ORIENTED_EDGE ( 'NONE', *, *, #732, .F. ) ;
#77 = DIRECTION ( 'NONE',  ( 1.000000000000000000, 0.000000000000000000, 0.000000000000000000 ) ) ;
#78 = DIRECTION ( 'NONE',  ( 0.000000000000000000, 0.000000000000000000, -1.000000000000000000 ) ) ;
#79 = EDGE_CURVE ( 'NONE', #878, #983, #393, .T. ) ;
#80 = VERTEX_POINT ( 'NONE', #51 ) ;
#81 = EDGE_LOOP ( 'NONE', ( #896, #667, #249, #1000 ) ) ;
#82 = CARTESIAN_POINT ( 'NONE',  ( -14.99999999999999645, 10.50000000000000000, 25.93428015022423594 ) ) ;
#83 = ORIENTED_EDGE ( 'NONE', *, *, #152, .T. ) ;
#84 = EDGE_CURVE ( 'NONE', #995, #320, #422, .T. ) ;
#85 = CARTESIAN_POINT ( 'NONE',  ( -18.49999999999999289, 7.000000000000002665, -35.00000000000000711 ) ) ;
#86 = AXIS2_PLACEMENT_3D ( 'NONE', #203, #559, #368 ) ;
#87 = ORIENTED_EDGE ( 'NONE', *, *, #75, .T. ) ;
#88 = CARTESIAN_POINT ( 'NONE',  ( -20.09999999999999432, 7.000000000000002665, -35.00000000000000711 ) ) ;
#89 = AXIS2_PLACEMENT_3D ( 'NONE', #839, #779, #428 ) ;
#90 = VECTOR ( 'NONE', #1095, 1000.000000000000000 ) ;
#91 = DIRECTION ( 'NONE',  ( 0.000000000000000000, -1.000000000000000000, 0.000000000000000000 ) ) ;
#92 = ORIENTED_EDGE ( 'NONE', *, *, #468, .F. ) ;
#93 = DIRECTION ( 'NONE',  ( 0.000000000000000000, 0.000000000000000000, -1.000000000000000000 ) ) ;
#94 = ORIENTED_EDGE ( 'NONE', *, *, #555, .T. ) ;
#95 = DIRECTION ( 'NONE',  ( -0.000000000000000000, 1.000000000000000000, -0.000000000000000000 ) ) ;
#96 = DIRECTION ( 'NONE',  ( 0.000000000000000000, 0.000000000000000000, 1.000000000000000000 ) ) ;
#97 = ORIENTED_EDGE ( 'NONE', *, *, #1042, .F. ) ;
#98 = LINE ( 'NONE', #435, #919 ) ;
#99 = EDGE_CURVE ( 'NONE', #259, #233, #118, .T. ) ;
#100 = CARTESIAN_POINT ( 'NONE',  ( 15.00000000000000355, 10.50000000000000000, -30.50000000000001066 ) ) ;
#101 = DIRECTION ( 'NONE',  ( 0.000000000000000000, 0.000000000000000000, 1.000000000000000000 ) ) ;
#102 = ORIENTED_EDGE ( 'NONE', *, *, #1025, .T. ) ;
#103 = CARTESIAN_POINT ( 'NONE',  ( -14.99999999999999822, 10.50000000000000000, 17.50000000000000000 ) ) ;
#104 = VECTOR ( 'NONE', #901, 1000.000000000000000 ) ;
#105 = CIRCLE ( 'NONE', #388, 1.600000000000000755 ) ;
#106 = LINE ( 'NONE', #517, #69 ) ;
#107 = VERTEX_POINT ( 'NONE', #722 ) ;
#108 = AXIS2_PLACEMENT_3D ( 'NONE', #788, #101, #852 ) ;
#109 = CARTESIAN_POINT ( 'NONE',  ( -14.99999999999999289, 10.50000000000000000, -35.00000000000000711 ) ) ;
#110 = ORIENTED_EDGE ( 'NONE', *, *, #415, .F. ) ;
#111 = DIRECTION ( 'NONE',  ( 0.000000000000000000, 0.000000000000000000, 1.000000000000000000 ) ) ;
#112 = CARTESIAN_POINT ( 'NONE',  ( -9.499999999999992895, 0.000000000000000000, -30.35000000000001208 ) ) ;
#113 = ORIENTED_EDGE ( 'NONE', *, *, #409, .F. ) ;
#114 = ORIENTED_EDGE ( 'NONE', *, *, #966, .T. ) ;
#115 = LINE ( 'NONE', #718, #565 ) ;
#116 = PLANE ( 'NONE',  #120 ) ;
#117 = ADVANCED_FACE ( 'NONE', ( #817, #55, #462 ), #298, .F. ) ;
#118 = LINE ( 'NONE', #887, #762 ) ;
#119 = DIRECTION ( 'NONE',  ( 1.000000000000000000, 0.000000000000000000, 0.000000000000000000 ) ) ;
#120 = AXIS2_PLACEMENT_3D ( 'NONE', #196, #720, #35 ) ;
#121 = CARTESIAN_POINT ( 'NONE',  ( 15.00000000000000355, 3.500000000000003109, -30.50000000000001066 ) ) ;
#122 = ORIENTED_EDGE ( 'NONE', *, *, #487, .F. ) ;
#123 = AXIS2_PLACEMENT_3D ( 'NONE', #796, #702, #111 ) ;
#124 = DIRECTION ( 'NONE',  ( -0.000000000000000000, 1.000000000000000000, -0.000000000000000000 ) ) ;
#125 = AXIS2_PLACEMENT_3D ( 'NONE', #241, #648, #834 ) ;
#126 = ADVANCED_FACE ( 'NONE', ( #224 ), #795, .T. ) ;
#127 = ORIENTED_EDGE ( 'NONE', *, *, #415, .T. ) ;
#128 = CARTESIAN_POINT ( 'NONE',  ( 15.00000000000000355, 10.50000000000000000, -20.06571984977576406 ) ) ;
#129 = CARTESIAN_POINT ( 'NONE',  ( -14.99999999999999822, 2.500000000000000444, -17.50000000000000000 ) ) ;
#130 = EDGE_LOOP ( 'NONE', ( #547, #1014, #950, #174 ) ) ;
#131 =( LENGTH_UNIT ( ) NAMED_UNIT ( * ) SI_UNIT ( .MILLI., .METRE. ) );
#132 = ADVANCED_FACE ( 'NONE', ( #883, #456 ), #407, .T. ) ;
#133 = ORIENTED_EDGE ( 'NONE', *, *, #516, .F. ) ;
#134 = CARTESIAN_POINT ( 'NONE',  ( 9.500000000000003553, 0.000000000000000000, 31.49999999999999289 ) ) ;
#135 = DIRECTION ( 'NONE',  ( -0.000000000000000000, 1.000000000000000000, -0.000000000000000000 ) ) ;
#136 = ORIENTED_EDGE ( 'NONE', *, *, #1053, .F. ) ;
#137 = EDGE_CURVE ( 'NONE', #822, #259, #261, .T. ) ;
#138 = LINE ( 'NONE', #729, #247 ) ;
#139 = PLANE ( 'NONE',  #768 ) ;
#140 = VERTEX_POINT ( 'NONE', #674 ) ;
#141 = AXIS2_PLACEMENT_3D ( 'NONE', #206, #219, #536 ) ;
#142 = CARTESIAN_POINT ( 'NONE',  ( 15.00000000000000355, 10.50000000000000000, 34.99999999999999289 ) ) ;
#143 = CIRCLE ( 'NONE', #458, 3.099999999999998757 ) ;
#144 = VECTOR ( 'NONE', #317, 1000.000000000000000 ) ;
#145 = AXIS2_PLACEMENT_3D ( 'NONE', #568, #312, #399 ) ;
#146 = CARTESIAN_POINT ( 'NONE',  ( -14.99999999999999289, 10.50000000000000000, -20.06571984977576761 ) ) ;
#147 = CARTESIAN_POINT ( 'NONE',  ( -14.99999999999999822, 2.500000000000000444, -17.50000000000000000 ) ) ;
#148 = ORIENTED_EDGE ( 'NONE', *, *, #584, .T. ) ;
#149 = CYLINDRICAL_SURFACE ( 'NONE', #182, 1.600000000000004086 ) ;
#150 = CARTESIAN_POINT ( 'NONE',  ( -21.99999999999999289, 3.500000000000000444, -35.00000000000000711 ) ) ;
#151 = EDGE_LOOP ( 'NONE', ( #1057, #809, #325, #94, #1088, #223, #486, #608, #418, #452, #629, #928, #451, #378 ) ) ;
#152 = EDGE_CURVE ( 'NONE', #278, #297, #315, .T. ) ;
#153 = CARTESIAN_POINT ( 'NONE',  ( 9.500000000000003553, 0.000000000000000000, 29.89999999999999147 ) ) ;
#154 = DIRECTION ( 'NONE',  ( 0.000000000000000000, 0.000000000000000000, -1.000000000000000000 ) ) ;
#155 = VERTEX_POINT ( 'NONE', #589 ) ;
#156 = CYLINDRICAL_SURFACE ( 'NONE', #89, 1.600000000000000755 ) ;
#157 = ADVANCED_FACE ( 'NONE', ( #1004 ), #567, .T. ) ;
#158 = VECTOR ( 'NONE', #681, 1000.000000000000000 ) ;
#159 = CIRCLE ( 'NONE', #286, 3.099999999999998757 ) ;
#160 = EDGE_CURVE ( 'NONE', #336, #580, #404, .T. ) ;
#161 = ORIENTED_EDGE ( 'NONE', *, *, #1020, .T. ) ;
#162 = DIRECTION ( 'NONE',  ( 0.000000000000000000, 0.000000000000000000, -1.000000000000000000 ) ) ;
#163 = LINE ( 'NONE', #497, #603 ) ;
#164 = ORIENTED_EDGE ( 'NONE', *, *, #1029, .F. ) ;
#165 = ORIENTED_EDGE ( 'NONE', *, *, #961, .T. ) ;
#166 = EDGE_CURVE ( 'NONE', #580, #336, #176, .T. ) ;
#167 = CARTESIAN_POINT ( 'NONE',  ( -14.99999999999999289, 10.50000000000000000, 34.99999999999999289 ) ) ;
#168 = ORIENTED_EDGE ( 'NONE', *, *, #716, .T. ) ;
#169 = FACE_OUTER_BOUND ( 'NONE', #1087, .T. ) ;
#170 = CARTESIAN_POINT ( 'NONE',  ( -14.99999999999999289, 3.500000000000002220, -35.00000000000000711 ) ) ;
#171 = DIRECTION ( 'NONE',  ( -0.000000000000000000, -0.000000000000000000, -1.000000000000000000 ) ) ;
#172 = ADVANCED_FACE ( 'NONE', ( #483 ), #754, .F. ) ;
#173 = CARTESIAN_POINT ( 'NONE',  ( -16.89999999999999147, 7.000000000000002665, -35.00000000000000711 ) ) ;
#174 = ORIENTED_EDGE ( 'NONE', *, *, #767, .T. ) ;
#175 = CARTESIAN_POINT ( 'NONE',  ( -14.99999999999999289, 10.50000000000000000, 34.99999999999999289 ) ) ;
#176 = CIRCLE ( 'NONE', #541, 1.600000000000000755 ) ;
#177 = EDGE_LOOP ( 'NONE', ( #1035, #477, #723, #161 ) ) ;
#178 = AXIS2_PLACEMENT_3D ( 'NONE', #204, #285, #962 ) ;
#179 = FACE_OUTER_BOUND ( 'NONE', #844, .T. ) ;
#180 = EDGE_CURVE ( 'NONE', #320, #995, #369, .T. ) ;
#181 = ORIENTED_EDGE ( 'NONE', *, *, #429, .T. ) ;
#182 = AXIS2_PLACEMENT_3D ( 'NONE', #308, #225, #651 ) ;
#183 = CARTESIAN_POINT ( 'NONE',  ( -9.499999999999991118, 0.000000000000000000, 33.09999999999998721 ) ) ;
#184 = DIRECTION ( 'NONE',  ( -0.000000000000000000, 1.000000000000000000, -0.000000000000000000 ) ) ;
#185 = CARTESIAN_POINT ( 'NONE',  ( 15.00000000000000355, 10.50000000000000000, -35.00000000000000711 ) ) ;
#186 = VERTEX_POINT ( 'NONE', #662 ) ;
#187 = DIRECTION ( 'NONE',  ( 0.000000000000000000, 0.000000000000000000, 1.000000000000000000 ) ) ;
#188 = ORIENTED_EDGE ( 'NONE', *, *, #548, .F. ) ;
#189 = CARTESIAN_POINT ( 'NONE',  ( 15.00000000000000178, 2.500000000000000444, 17.50000000000000000 ) ) ;
#190 = ORIENTED_EDGE ( 'NONE', *, *, #866, .T. ) ;
#191 = PLANE ( 'NONE',  #601 ) ;
#192 = ORIENTED_EDGE ( 'NONE', *, *, #682, .F. ) ;
#193 = ADVANCED_FACE ( 'NONE', ( #238 ), #156, .F. ) ;
#194 = CARTESIAN_POINT ( 'NONE',  ( -14.99999999999999822, 2.500000000000000444, 17.50000000000000000 ) ) ;
#195 = VECTOR ( 'NONE', #610, 1000.000000000000000 ) ;
#196 = CARTESIAN_POINT ( 'NONE',  ( 22.00000000000000355, 10.50000000000000178, -30.50000000000001066 ) ) ;
#197 = VECTOR ( 'NONE', #948, 1000.000000000000000 ) ;
#198 = ORIENTED_EDGE ( 'NONE', *, *, #607, .T. ) ;
#199 = DIRECTION ( 'NONE',  ( -1.000000000000000000, 0.000000000000000000, 0.000000000000000000 ) ) ;
#200 = PRODUCT_DEFINITION ( 'General', '', #22, #33 ) ;
#201 = PLANE ( 'NONE',  #581 ) ;
#202 = ORIENTED_EDGE ( 'NONE', *, *, #281, .F. ) ;
#203 = CARTESIAN_POINT ( 'NONE',  ( 15.00000000000000355, 3.500000000000003109, -30.50000000000001066 ) ) ;
#204 = CARTESIAN_POINT ( 'NONE',  ( 0.000000000000000000, 10.50000000000000000, 0.000000000000000000 ) ) ;
#205 = LINE ( 'NONE', #538, #675 ) ;
#206 = CARTESIAN_POINT ( 'NONE',  ( 15.00000000000000355, 11.50000000000000000, 22.99999999999999645 ) ) ;
#207 = ORIENTED_EDGE ( 'NONE', *, *, #436, .F. ) ;
#208 = DIRECTION ( 'NONE',  ( -0.000000000000000000, -0.000000000000000000, 1.000000000000000000 ) ) ;
#209 = ADVANCED_FACE ( 'NONE', ( #848 ), #335, .T. ) ;
#210 = CARTESIAN_POINT ( 'NONE',  ( 9.500000000000003553, 0.000000000000000000, -30.35000000000001208 ) ) ;
#211 = ORIENTED_EDGE ( 'NONE', *, *, #668, .T. ) ;
#212 = VECTOR ( 'NONE', #326, 1000.000000000000000 ) ;
#213 = AXIS2_PLACEMENT_3D ( 'NONE', #735, #221, #658 ) ;
#214 = SURFACE_STYLE_FILL_AREA ( #800 ) ;
#215 = ORIENTED_EDGE ( 'NONE', *, *, #166, .F. ) ;
#216 = CARTESIAN_POINT ( 'NONE',  ( 15.00000000000000355, 10.50000000000000000, -30.50000000000000711 ) ) ;
#217 = FACE_OUTER_BOUND ( 'NONE', #524, .T. ) ;
#218 = ORIENTED_EDGE ( 'NONE', *, *, #979, .T. ) ;
#219 = DIRECTION ( 'NONE',  ( 1.000000000000000000, 0.000000000000000000, 0.000000000000000000 ) ) ;
#220 = EDGE_CURVE ( 'NONE', #709, #1043, #347, .T. ) ;
#221 = DIRECTION ( 'NONE',  ( 0.000000000000000000, 1.000000000000000000, 0.000000000000000000 ) ) ;
#222 = LINE ( 'NONE', #821, #529 ) ;
#223 = ORIENTED_EDGE ( 'NONE', *, *, #311, .F. ) ;
#224 = FACE_OUTER_BOUND ( 'NONE', #770, .T. ) ;
#225 = DIRECTION ( 'NONE',  ( -0.000000000000000000, 1.000000000000000000, -0.000000000000000000 ) ) ;
#226 = CARTESIAN_POINT ( 'NONE',  ( -16.89999999999999147, 7.000000000000002665, 35.00099999999999767 ) ) ;
#227 = ORIENTED_EDGE ( 'NONE', *, *, #632, .T. ) ;
#228 = AXIS2_PLACEMENT_3D ( 'NONE', #479, #582, #488 ) ;
#229 = AXIS2_PLACEMENT_3D ( 'NONE', #85, #93, #940 ) ;
#230 = AXIS2_PLACEMENT_3D ( 'NONE', #343, #1026, #266 ) ;
#231 = LINE ( 'NONE', #62, #640 ) ;
#232 = CARTESIAN_POINT ( 'NONE',  ( 15.00000000000000178, 2.500000000000000444, 17.50000000000000000 ) ) ;
#233 = VERTEX_POINT ( 'NONE', #1023 ) ;
#234 = CYLINDRICAL_SURFACE ( 'NONE', #695, 1.600000000000000755 ) ;
#235 = ADVANCED_FACE ( 'NONE', ( #774 ), #951, .F. ) ;
#236 = CARTESIAN_POINT ( 'NONE',  ( 22.00000000000000355, 10.50000000000000178, -35.00000000000000711 ) ) ;
#237 = ORIENTED_EDGE ( 'NONE', *, *, #550, .F. ) ;
#238 = FACE_OUTER_BOUND ( 'NONE', #862, .T. ) ;
#239 = EDGE_CURVE ( 'NONE', #320, #893, #854, .T. ) ;
#240 = EDGE_LOOP ( 'NONE', ( #227, #960, #168, #339 ) ) ;
#241 = CARTESIAN_POINT ( 'NONE',  ( 9.500000000000003553, 10.50000000000000000, 31.49999999999999289 ) ) ;
#242 = LINE ( 'NONE', #147, #1008 ) ;
#243 = ORIENTED_EDGE ( 'NONE', *, *, #137, .T. ) ;
#244 = CIRCLE ( 'NONE', #141, 3.099999999999998757 ) ;
#245 = VECTOR ( 'NONE', #587, 1000.000000000000000 ) ;
#246 = EDGE_LOOP ( 'NONE', ( #957, #672 ) ) ;
#247 = VECTOR ( 'NONE', #1085, 1000.000000000000000 ) ;
#248 = LINE ( 'NONE', #189, #245 ) ;
#249 = ORIENTED_EDGE ( 'NONE', *, *, #569, .T. ) ;
#250 = CARTESIAN_POINT ( 'NONE',  ( -9.499999999999992895, 0.000000000000000000, -28.75000000000001066 ) ) ;
#251 = ADVANCED_FACE ( 'NONE', ( #169 ), #1040, .F. ) ;
#252 = VERTEX_POINT ( 'NONE', #15 ) ;
#253 = DIRECTION ( 'NONE',  ( 0.000000000000000000, 0.000000000000000000, -1.000000000000000000 ) ) ;
#254 = DIRECTION ( 'NONE',  ( -0.000000000000000000, -0.000000000000000000, 1.000000000000000000 ) ) ;
#255 = ORIENTED_EDGE ( 'NONE', *, *, #99, .F. ) ;
#256 = LINE ( 'NONE', #616, #1081 ) ;
#257 = EDGE_LOOP ( 'NONE', ( #1, #871, #760, #798 ) ) ;
#258 = CARTESIAN_POINT ( 'NONE',  ( 9.500000000000003553, 0.000000000000000000, -28.75000000000001066 ) ) ;
#259 = VERTEX_POINT ( 'NONE', #279 ) ;
#260 = CARTESIAN_POINT ( 'NONE',  ( 16.90000000000000213, 7.000000000000002665, -35.00000000000000711 ) ) ;
#261 = CIRCLE ( 'NONE', #17, 1.600000000000000755 ) ;
#262 = AXIS2_PLACEMENT_3D ( 'NONE', #748, #657, #402 ) ;
#263 = CARTESIAN_POINT ( 'NONE',  ( -21.99999999999999289, 10.50000000000000000, -30.50000000000001066 ) ) ;
#264 = VECTOR ( 'NONE', #574, 1000.000000000000000 ) ;
#265 = CIRCLE ( 'NONE', #70, 1.600000000000000755 ) ;
#266 = DIRECTION ( 'NONE',  ( 0.000000000000000000, 0.000000000000000000, -1.000000000000000000 ) ) ;
#267 = ORIENTED_EDGE ( 'NONE', *, *, #1070, .F. ) ;
#268 = LINE ( 'NONE', #103, #158 ) ;
#269 = ORIENTED_EDGE ( 'NONE', *, *, #1063, .F. ) ;
#270 = DIRECTION ( 'NONE',  ( 1.000000000000000000, 0.000000000000000000, 0.000000000000000000 ) ) ;
#271 = DIRECTION ( 'NONE',  ( 0.000000000000000000, 0.000000000000000000, -1.000000000000000000 ) ) ;
#272 = ORIENTED_EDGE ( 'NONE', *, *, #281, .T. ) ;
#273 = ADVANCED_FACE ( 'NONE', ( #441 ), #355, .F. ) ;
#274 = PRODUCT ( 'Gripper Cover_Gripper Cover', 'Gripper Cover_Gripper Cover', '', ( #756 ) ) ;
#275 = CARTESIAN_POINT ( 'NONE',  ( 20.10000000000000497, 7.000000000000002665, -35.00000000000000711 ) ) ;
#276 = EDGE_CURVE ( 'NONE', #447, #663, #766, .T. ) ;
#277 = CARTESIAN_POINT ( 'NONE',  ( 16.90000000000000213, 7.000000000000002665, 35.00099999999999767 ) ) ;
#278 = VERTEX_POINT ( 'NONE', #260 ) ;
#279 = CARTESIAN_POINT ( 'NONE',  ( -9.499999999999992895, 0.000000000000000000, -27.15000000000000924 ) ) ;
#280 = VERTEX_POINT ( 'NONE', #600 ) ;
#281 = EDGE_CURVE ( 'NONE', #983, #406, #268, .T. ) ;
#282 = DIRECTION ( 'NONE',  ( 0.000000000000000000, 0.000000000000000000, -1.000000000000000000 ) ) ;
#283 = EDGE_CURVE ( 'NONE', #1027, #964, #143, .T. ) ;
#284 = VECTOR ( 'NONE', #553, 1000.000000000000000 ) ;
#285 = DIRECTION ( 'NONE',  ( 0.000000000000000000, -1.000000000000000000, 0.000000000000000000 ) ) ;
#286 = AXIS2_PLACEMENT_3D ( 'NONE', #1002, #998, #154 ) ;
#287 = DIRECTION ( 'NONE',  ( 1.000000000000000000, -0.000000000000000000, -0.000000000000000000 ) ) ;
#288 = AXIS2_PLACEMENT_3D ( 'NONE', #1015, #437, #253 ) ;
#289 = DIRECTION ( 'NONE',  ( 0.000000000000000000, 0.000000000000000000, -1.000000000000000000 ) ) ;
#290 = CARTESIAN_POINT ( 'NONE',  ( -9.499999999999991118, 10.50000000000000000, 31.49999999999999289 ) ) ;
#291 = CARTESIAN_POINT ( 'NONE',  ( -9.499999999999991118, 0.000000000000000000, 33.09999999999998721 ) ) ;
#292 = ORIENTED_EDGE ( 'NONE', *, *, #1082, .T. ) ;
#293 = LINE ( 'NONE', #630, #104 ) ;
#294 = EDGE_CURVE ( 'NONE', #427, #297, #256, .T. ) ;
#295 = CARTESIAN_POINT ( 'NONE',  ( -14.99999999999999289, 10.50000000000000000, 20.06571984977575696 ) ) ;
#296 = PLANE ( 'NONE',  #527 ) ;
#297 = VERTEX_POINT ( 'NONE', #275 ) ;
#298 = PLANE ( 'NONE',  #562 ) ;
#299 = ORIENTED_EDGE ( 'NONE', *, *, #166, .T. ) ;
#300 = DIRECTION ( 'NONE',  ( -1.000000000000000000, 1.239088197126291063E-16, -0.000000000000000000 ) ) ;
#301 = DIRECTION ( 'NONE',  ( 0.000000000000000000, 1.000000000000000000, 0.000000000000000000 ) ) ;
#302 = ORIENTED_EDGE ( 'NONE', *, *, #584, .F. ) ;
#303 = AXIS2_PLACEMENT_3D ( 'NONE', #679, #1016, #861 ) ;
#304 = DIRECTION ( 'NONE',  ( -1.000000000000000000, 0.000000000000000000, 0.000000000000000000 ) ) ;
#305 = PLANE ( 'NONE',  #872 ) ;
#306 = ORIENTED_EDGE ( 'NONE', *, *, #925, .F. ) ;
#307 = DIRECTION ( 'NONE',  ( 0.000000000000000000, -0.000000000000000000, -1.000000000000000000 ) ) ;
#308 = CARTESIAN_POINT ( 'NONE',  ( 9.500000000000003553, 0.000000000000000000, 31.49999999999999289 ) ) ;
#309 = DIRECTION ( 'NONE',  ( -0.000000000000000000, 1.000000000000000000, -0.000000000000000000 ) ) ;
#310 = VERTEX_POINT ( 'NONE', #183 ) ;
#311 = EDGE_CURVE ( 'NONE', #1078, #430, #98, .T. ) ;
#312 = DIRECTION ( 'NONE',  ( 0.000000000000000000, 1.000000000000000000, 0.000000000000000000 ) ) ;
#313 = CARTESIAN_POINT ( 'NONE',  ( -14.99999999999999289, 10.50000000000000000, 34.99999999999999289 ) ) ;
#314 = ORIENTED_EDGE ( 'NONE', *, *, #845, .F. ) ;
#315 = CIRCLE ( 'NONE', #869, 1.600000000000000755 ) ;
#316 = CARTESIAN_POINT ( 'NONE',  ( 15.00000000000000355, 10.50000000000000000, 34.99999999999999289 ) ) ;
#317 = DIRECTION ( 'NONE',  ( -0.000000000000000000, -0.000000000000000000, -1.000000000000000000 ) ) ;
#318 = ADVANCED_FACE ( 'NONE', ( #612 ), #191, .F. ) ;
#319 = VERTEX_POINT ( 'NONE', #345 ) ;
#320 = VERTEX_POINT ( 'NONE', #692 ) ;
#321 = LINE ( 'NONE', #912, #424 ) ;
#322 = ADVANCED_FACE ( 'NONE', ( #1030, #508, #863 ), #945, .F. ) ;
#323 = CARTESIAN_POINT ( 'NONE',  ( 15.00000000000000355, 3.500000000000003109, -35.00000000000000711 ) ) ;
#324 = ORIENTED_EDGE ( 'NONE', *, *, #794, .F. ) ;
#325 = ORIENTED_EDGE ( 'NONE', *, *, #48, .T. ) ;
#326 = DIRECTION ( 'NONE',  ( 1.000000000000000000, 0.000000000000000000, 0.000000000000000000 ) ) ;
#327 = ORIENTED_EDGE ( 'NONE', *, *, #294, .F. ) ;
#328 = DIRECTION ( 'NONE',  ( 0.000000000000000000, 1.000000000000000000, 0.000000000000000000 ) ) ;
#329 = ADVANCED_FACE ( 'NONE', ( #731, #805 ), #201, .F. ) ;
#330 = VECTOR ( 'NONE', #811, 1000.000000000000000 ) ;
#331 = AXIS2_PLACEMENT_3D ( 'NONE', #357, #876, #364 ) ;
#332 = ORIENTED_EDGE ( 'NONE', *, *, #487, .T. ) ;
#333 = DIRECTION ( 'NONE',  ( -0.000000000000000000, 1.000000000000000000, -0.000000000000000000 ) ) ;
#334 = EDGE_LOOP ( 'NONE', ( #299, #906 ) ) ;
#335 = PLANE ( 'NONE',  #442 ) ;
#336 = VERTEX_POINT ( 'NONE', #210 ) ;
#337 = CARTESIAN_POINT ( 'NONE',  ( -14.99999999999999289, 10.50000000000000000, -30.50000000000001066 ) ) ;
#338 = CARTESIAN_POINT ( 'NONE',  ( -9.499999999999992895, 10.50000000000000000, -28.75000000000001066 ) ) ;
#339 = ORIENTED_EDGE ( 'NONE', *, *, #688, .T. ) ;
#340 = CARTESIAN_POINT ( 'NONE',  ( 9.500000000000003553, 0.000000000000000000, 33.09999999999999432 ) ) ;
#341 = CYLINDRICAL_SURFACE ( 'NONE', #288, 3.099999999999998757 ) ;
#342 = ADVANCED_FACE ( 'NONE', ( #1054 ), #305, .F. ) ;
#343 = CARTESIAN_POINT ( 'NONE',  ( -14.99999999999999645, 11.50000000000000000, 22.99999999999999645 ) ) ;
#344 = ORIENTED_EDGE ( 'NONE', *, *, #311, .T. ) ;
#345 = CARTESIAN_POINT ( 'NONE',  ( 15.00000000000000355, 10.50000000000000000, 34.99999999999999289 ) ) ;
#346 = CLOSED_SHELL ( 'NONE', ( #659, #947, #875, #193, #560, #627, #808, #273, #787, #117, #322, #318, #26, #475, #719, #749, #375, #342, #1059, #434, #251, #724, #172, #885, #157, #209, #329, #126, #361, #132, #752, #235 ) ) ;
#347 = CIRCLE ( 'NONE', #229, 1.600000000000000755 ) ;
#348 = LINE ( 'NONE', #496, #197 ) ;
#349 = VECTOR ( 'NONE', #1072, 1000.000000000000000 ) ;
#350 = EDGE_CURVE ( 'NONE', #430, #45, #1045, .T. ) ;
#351 = CIRCLE ( 'NONE', #874, 1.600000000000000755 ) ;
#352 = FACE_BOUND ( 'NONE', #246, .T. ) ;
#353 = EDGE_LOOP ( 'NONE', ( #717, #292 ) ) ;
#354 = EDGE_CURVE ( 'NONE', #995, #358, #465, .T. ) ;
#355 = PLANE ( 'NONE',  #492 ) ;
#356 = ORIENTED_EDGE ( 'NONE', *, *, #682, .T. ) ;
#357 = CARTESIAN_POINT ( 'NONE',  ( -9.499999999999991118, 0.000000000000000000, 31.49999999999999289 ) ) ;
#358 = VERTEX_POINT ( 'NONE', #956 ) ;
#359 = DIRECTION ( 'NONE',  ( 0.000000000000000000, 0.000000000000000000, -1.000000000000000000 ) ) ;
#360 = EDGE_LOOP ( 'NONE', ( #306, #514 ) ) ;
#361 = ADVANCED_FACE ( 'NONE', ( #891 ), #116, .T. ) ;
#362 = CARTESIAN_POINT ( 'NONE',  ( -20.09999999999999432, 7.000000000000002665, -30.50000000000000711 ) ) ;
#363 = UNCERTAINTY_MEASURE_WITH_UNIT (LENGTH_MEASURE( 1.000000000000000082E-05 ), #131, 'distance_accuracy_value', 'NONE');
#364 = DIRECTION ( 'NONE',  ( 0.000000000000000000, 0.000000000000000000, 1.000000000000000000 ) ) ;
#365 = LINE ( 'NONE', #708, #974 ) ;
#366 = ORIENTED_EDGE ( 'NONE', *, *, #438, .T. ) ;
#367 = EDGE_CURVE ( 'NONE', #28, #1068, #105, .T. ) ;
#368 = DIRECTION ( 'NONE',  ( 1.000000000000000000, -1.239088197126291063E-16, 0.000000000000000000 ) ) ;
#369 = CIRCLE ( 'NONE', #262, 1.600000000000004086 ) ;
#370 = CARTESIAN_POINT ( 'NONE',  ( -14.99999999999999822, 2.500000000000000444, 17.50000000000000000 ) ) ;
#371 = CIRCLE ( 'NONE', #802, 1.600000000000000755 ) ;
#372 = CARTESIAN_POINT ( 'NONE',  ( 9.500000000000003553, 10.50000000000000000, -28.75000000000001066 ) ) ;
#373 = VERTEX_POINT ( 'NONE', #641 ) ;
#374 = PRESENTATION_STYLE_ASSIGNMENT (( #1056 ) ) ;
#375 = ADVANCED_FACE ( 'NONE', ( #41 ), #296, .F. ) ;
#376 = CARTESIAN_POINT ( 'NONE',  ( -14.99999999999999822, 2.500000000000000444, 17.50000000000000000 ) ) ;
#377 = CARTESIAN_POINT ( 'NONE',  ( 0.000000000000000000, 2.500000000000000444, 0.000000000000000000 ) ) ;
#378 = ORIENTED_EDGE ( 'NONE', *, *, #283, .T. ) ;
#379 = CARTESIAN_POINT ( 'NONE',  ( -14.99999999999999289, 10.50000000000000000, 34.99999999999999289 ) ) ;
#380 = ORIENTED_EDGE ( 'NONE', *, *, #180, .T. ) ;
#381 = DIRECTION ( 'NONE',  ( -0.000000000000000000, -0.000000000000000000, -1.000000000000000000 ) ) ;
#382 = DIRECTION ( 'NONE',  ( -0.000000000000000000, 0.000000000000000000, -1.000000000000000000 ) ) ;
#383 = EDGE_LOOP ( 'NONE', ( #501, #19, #789, #188, #741, #859, #445, #148, #680, #669, #737, #879, #703, #1037 ) ) ;
#384 = CARTESIAN_POINT ( 'NONE',  ( 9.500000000000003553, 0.000000000000000000, 31.49999999999999289 ) ) ;
#385 = DIRECTION ( 'NONE',  ( -0.000000000000000000, -0.000000000000000000, 1.000000000000000000 ) ) ;
#386 = VECTOR ( 'NONE', #473, 1000.000000000000000 ) ;
#387 = EDGE_CURVE ( 'NONE', #910, #430, #1067, .T. ) ;
#388 = AXIS2_PLACEMENT_3D ( 'NONE', #372, #301, #726 ) ;
#389 = DIRECTION ( 'NONE',  ( 1.000000000000000000, -0.000000000000000000, -0.000000000000000000 ) ) ;
#390 = ORIENTED_EDGE ( 'NONE', *, *, #1020, .F. ) ;
#391 = AXIS2_PLACEMENT_3D ( 'NONE', #370, #880, #119 ) ;
#392 = AXIS2_PLACEMENT_3D ( 'NONE', #71, #66, #981 ) ;
#393 = LINE ( 'NONE', #625, #851 ) ;
#394 = DIRECTION ( 'NONE',  ( 0.000000000000000000, 0.000000000000000000, -1.000000000000000000 ) ) ;
#395 = LINE ( 'NONE', #563, #543 ) ;
#396 = ORIENTED_EDGE ( 'NONE', *, *, #939, .F. ) ;
#397 = CARTESIAN_POINT ( 'NONE',  ( 9.500000000000003553, 0.000000000000000000, -28.75000000000001066 ) ) ;
#398 = EDGE_CURVE ( 'NONE', #259, #822, #673, .T. ) ;
#399 = DIRECTION ( 'NONE',  ( 0.000000000000000000, 0.000000000000000000, 1.000000000000000000 ) ) ;
#400 = DIRECTION ( 'NONE',  ( -1.000000000000000000, 1.239088197126291063E-16, -0.000000000000000000 ) ) ;
#401 = VERTEX_POINT ( 'NONE', #450 ) ;
#402 = DIRECTION ( 'NONE',  ( 0.000000000000000000, 0.000000000000000000, 1.000000000000000000 ) ) ;
#403 = DIRECTION ( 'NONE',  ( 0.000000000000000000, 1.000000000000000000, 0.000000000000000000 ) ) ;
#404 = CIRCLE ( 'NONE', #652, 1.600000000000000755 ) ;
#405 = CARTESIAN_POINT ( 'NONE',  ( 15.00000000000000355, 10.50000000000000000, -25.93428015022424304 ) ) ;
#406 = VERTEX_POINT ( 'NONE', #971 ) ;
#407 = PLANE ( 'NONE',  #457 ) ;
#408 = VECTOR ( 'NONE', #300, 1000.000000000000000 ) ;
#409 = EDGE_CURVE ( 'NONE', #822, #252, #532, .T. ) ;
#410 = CARTESIAN_POINT ( 'NONE',  ( -14.99999999999999289, 0.000000000000000000, -35.00000000000000711 ) ) ;
#411 = LINE ( 'NONE', #751, #349 ) ;
#412 = ORIENTED_EDGE ( 'NONE', *, *, #865, .T. ) ;
#413 = ORIENTED_EDGE ( 'NONE', *, *, #775, .T. ) ;
#414 = DIRECTION ( 'NONE',  ( 0.000000000000000000, 0.000000000000000000, 1.000000000000000000 ) ) ;
#415 = EDGE_CURVE ( 'NONE', #310, #840, #546, .T. ) ;
#416 = CARTESIAN_POINT ( 'NONE',  ( -14.99999999999999289, 3.500000000000000444, -35.00000000000000711 ) ) ;
#417 = ORIENTED_EDGE ( 'NONE', *, *, #711, .F. ) ;
#418 = ORIENTED_EDGE ( 'NONE', *, *, #966, .F. ) ;
#419 = DIRECTION ( 'NONE',  ( -1.000000000000000000, 0.000000000000000000, 0.000000000000000000 ) ) ;
#420 = ORIENTED_EDGE ( 'NONE', *, *, #220, .T. ) ;
#421 = DIRECTION ( 'NONE',  ( 0.000000000000000000, 0.000000000000000000, -1.000000000000000000 ) ) ;
#422 = CIRCLE ( 'NONE', #1080, 1.600000000000004086 ) ;
#423 = ORIENTED_EDGE ( 'NONE', *, *, #635, .F. ) ;
#424 = VECTOR ( 'NONE', #474, 1000.000000000000000 ) ;
#425 = CARTESIAN_POINT ( 'NONE',  ( -18.49999999999999289, 7.000000000000002665, -30.50000000000000711 ) ) ;
#426 = DIRECTION ( 'NONE',  ( 0.000000000000000000, -0.000000000000000000, -1.000000000000000000 ) ) ;
#427 = VERTEX_POINT ( 'NONE', #49 ) ;
#428 = DIRECTION ( 'NONE',  ( 0.000000000000000000, 0.000000000000000000, 1.000000000000000000 ) ) ;
#429 = EDGE_CURVE ( 'NONE', #25, #1043, #455, .T. ) ;
#430 = VERTEX_POINT ( 'NONE', #793 ) ;
#431 = FACE_OUTER_BOUND ( 'NONE', #257, .T. ) ;
#432 = LINE ( 'NONE', #185, #583 ) ;
#433 = EDGE_LOOP ( 'NONE', ( #380, #1050 ) ) ;
#434 = ADVANCED_FACE ( 'NONE', ( #217 ), #895, .F. ) ;
#435 = CARTESIAN_POINT ( 'NONE',  ( -14.99999999999999289, 10.50000000000000000, 34.99999999999999289 ) ) ;
#436 = EDGE_CURVE ( 'NONE', #826, #155, #365, .T. ) ;
#437 = DIRECTION ( 'NONE',  ( 1.000000000000000000, -0.000000000000000000, -0.000000000000000000 ) ) ;
#438 = EDGE_CURVE ( 'NONE', #934, #140, #205, .T. ) ;
#439 = DIRECTION ( 'NONE',  ( 0.000000000000000000, 0.000000000000000000, 1.000000000000000000 ) ) ;
#440 = ORIENTED_EDGE ( 'NONE', *, *, #911, .T. ) ;
#441 = FACE_OUTER_BOUND ( 'NONE', #900, .T. ) ;
#442 = AXIS2_PLACEMENT_3D ( 'NONE', #1036, #783, #421 ) ;
#443 = VECTOR ( 'NONE', #271, 1000.000000000000000 ) ;
#444 = DIRECTION ( 'NONE',  ( 0.000000000000000000, 1.000000000000000000, 0.000000000000000000 ) ) ;
#445 = ORIENTED_EDGE ( 'NONE', *, *, #742, .F. ) ;
#446 = DIRECTION ( 'NONE',  ( -0.000000000000000000, 1.000000000000000000, -0.000000000000000000 ) ) ;
#447 = VERTEX_POINT ( 'NONE', #121 ) ;
#448 = DIRECTION ( 'NONE',  ( 0.000000000000000000, 1.000000000000000000, 0.000000000000000000 ) ) ;
#449 = EDGE_CURVE ( 'NONE', #401, #709, #745, .T. ) ;
#450 = CARTESIAN_POINT ( 'NONE',  ( -16.89999999999999147, 7.000000000000002665, -30.50000000000000711 ) ) ;
#451 = ORIENTED_EDGE ( 'NONE', *, *, #607, .F. ) ;
#452 = ORIENTED_EDGE ( 'NONE', *, *, #79, .F. ) ;
#453 = UNCERTAINTY_MEASURE_WITH_UNIT (LENGTH_MEASURE( 1.000000000000000082E-05 ), #1006, 'distance_accuracy_value', 'NONE');
#454 = CARTESIAN_POINT ( 'NONE',  ( -14.99999999999999289, 10.50000000000000000, -30.50000000000001066 ) ) ;
#455 = LINE ( 'NONE', #968, #284 ) ;
#456 = FACE_OUTER_BOUND ( 'NONE', #705, .T. ) ;
#457 = AXIS2_PLACEMENT_3D ( 'NONE', #738, #576, #924 ) ;
#458 = AXIS2_PLACEMENT_3D ( 'NONE', #790, #704, #519 ) ;
#459 = DIRECTION ( 'NONE',  ( -0.000000000000000000, -0.000000000000000000, -1.000000000000000000 ) ) ;
#460 = DIRECTION ( 'NONE',  ( -0.000000000000000000, 1.000000000000000000, -0.000000000000000000 ) ) ;
#461 = CIRCLE ( 'NONE', #213, 1.600000000000000755 ) ;
#462 = FACE_OUTER_BOUND ( 'NONE', #240, .T. ) ;
#463 = EDGE_LOOP ( 'NONE', ( #551, #192 ) ) ;
#464 = CYLINDRICAL_SURFACE ( 'NONE', #478, 1.600000000000000755 ) ;
#465 = LINE ( 'NONE', #1060, #1007 ) ;
#466 = VERTEX_POINT ( 'NONE', #994 ) ;
#467 = FILL_AREA_STYLE_COLOUR ( '', #782 ) ;
#468 = EDGE_CURVE ( 'NONE', #107, #663, #1086, .T. ) ;
#469 = DIRECTION ( 'NONE',  ( -0.000000000000000000, 1.000000000000000000, -0.000000000000000000 ) ) ;
#470 = EDGE_CURVE ( 'NONE', #140, #280, #395, .T. ) ;
#471 = DIRECTION ( 'NONE',  ( 0.000000000000000000, 0.000000000000000000, -1.000000000000000000 ) ) ;
#472 = ORIENTED_EDGE ( 'NONE', *, *, #925, .T. ) ;
#473 = DIRECTION ( 'NONE',  ( -1.000000000000000000, -0.000000000000000000, -0.000000000000000000 ) ) ;
#474 = DIRECTION ( 'NONE',  ( 1.000000000000000000, -0.000000000000000000, -0.000000000000000000 ) ) ;
#475 = ADVANCED_FACE ( 'NONE', ( #899 ), #139, .F. ) ;
#476 = LINE ( 'NONE', #67, #903 ) ;
#477 = ORIENTED_EDGE ( 'NONE', *, *, #180, .F. ) ;
#478 = AXIS2_PLACEMENT_3D ( 'NONE', #804, #459, #199 ) ;
#479 = CARTESIAN_POINT ( 'NONE',  ( -21.99999999999999289, 10.50000000000000000, -30.50000000000001066 ) ) ;
#480 = CARTESIAN_POINT ( 'NONE',  ( 9.500000000000003553, 0.000000000000000000, -27.15000000000000924 ) ) ;
#481 = LINE ( 'NONE', #416, #509 ) ;
#482 = EDGE_LOOP ( 'NONE', ( #122, #733, #856, #978 ) ) ;
#483 = FACE_OUTER_BOUND ( 'NONE', #526, .T. ) ;
#484 = DIRECTION ( 'NONE',  ( -0.000000000000000000, 1.000000000000000000, -0.000000000000000000 ) ) ;
#485 = CARTESIAN_POINT ( 'NONE',  ( -21.99999999999999289, 3.500000000000000444, -30.50000000000001066 ) ) ;
#486 = ORIENTED_EDGE ( 'NONE', *, *, #716, .F. ) ;
#487 = EDGE_CURVE ( 'NONE', #503, #1017, #905, .T. ) ;
#488 = DIRECTION ( 'NONE',  ( -0.000000000000000000, 0.000000000000000000, 1.000000000000000000 ) ) ;
#489 = CARTESIAN_POINT ( 'NONE',  ( -21.99999999999999289, 10.50000000000000000, -35.00000000000000711 ) ) ;
#490 = CARTESIAN_POINT ( 'NONE',  ( 9.500000000000003553, 0.000000000000000000, -28.75000000000001066 ) ) ;
#491 = ORIENTED_EDGE ( 'NONE', *, *, #953, .F. ) ;
#492 = AXIS2_PLACEMENT_3D ( 'NONE', #515, #687, #699 ) ;
#493 = AXIS2_PLACEMENT_3D ( 'NONE', #490, #579, #1077 ) ;
#494 = CIRCLE ( 'NONE', #656, 1.600000000000000755 ) ;
#495 = EDGE_LOOP ( 'NONE', ( #165, #237, #611, #764, #615, #190, #929, #937 ) ) ;
#496 = CARTESIAN_POINT ( 'NONE',  ( 22.00000000000000355, 3.500000000000002220, -30.50000000000001066 ) ) ;
#497 = CARTESIAN_POINT ( 'NONE',  ( 15.00000000000000178, 2.500000000000000444, 17.50000000000000000 ) ) ;
#498 = VERTEX_POINT ( 'NONE', #232 ) ;
#499 = EDGE_LOOP ( 'NONE', ( #36, #677, #1039, #943 ) ) ;
#500 = FACE_BOUND ( 'NONE', #334, .T. ) ;
#501 = ORIENTED_EDGE ( 'NONE', *, *, #276, .F. ) ;
#502 = DIRECTION ( 'NONE',  ( -0.000000000000000000, -0.000000000000000000, -1.000000000000000000 ) ) ;
#503 = VERTEX_POINT ( 'NONE', #150 ) ;
#504 =( NAMED_UNIT ( * ) PLANE_ANGLE_UNIT ( ) SI_UNIT ( $, .RADIAN. ) );
#505 = PLANE ( 'NONE',  #37 ) ;
#506 = ORIENTED_EDGE ( 'NONE', *, *, #79, .T. ) ;
#507 = EDGE_CURVE ( 'NONE', #853, #373, #666, .T. ) ;
#508 = FACE_BOUND ( 'NONE', #360, .T. ) ;
#509 = VECTOR ( 'NONE', #72, 1000.000000000000000 ) ;
#510 = EDGE_LOOP ( 'NONE', ( #533, #423, #4, #1005 ) ) ;
#511 = CIRCLE ( 'NONE', #125, 1.600000000000004086 ) ;
#512 = SHAPE_DEFINITION_REPRESENTATION ( #701, #522 ) ;
#513 = CARTESIAN_POINT ( 'NONE',  ( 0.000000000000000000, 0.000000000000000000, 0.000000000000000000 ) ) ;
#514 = ORIENTED_EDGE ( 'NONE', *, *, #220, .F. ) ;
#515 = CARTESIAN_POINT ( 'NONE',  ( 0.000000000000000000, 10.50000000000000000, 0.000000000000000000 ) ) ;
#516 = EDGE_CURVE ( 'NONE', #975, #280, #242, .T. ) ;
#517 = CARTESIAN_POINT ( 'NONE',  ( 15.00000000000000355, 10.50000000000000000, 34.99999999999999289 ) ) ;
#518 = ORIENTED_EDGE ( 'NONE', *, *, #1053, .T. ) ;
#519 = DIRECTION ( 'NONE',  ( 0.000000000000000000, 0.000000000000000000, -1.000000000000000000 ) ) ;
#520 = ORIENTED_EDGE ( 'NONE', *, *, #944, .F. ) ;
#521 = EDGE_CURVE ( 'NONE', #186, #107, #909, .T. ) ;
#522 = ADVANCED_BREP_SHAPE_REPRESENTATION ( 'Gripper Cover_Gripper Cover', ( #46, #566 ), #747 ) ;
#523 = DIRECTION ( 'NONE',  ( 0.000000000000000000, 0.000000000000000000, -1.000000000000000000 ) ) ;
#524 = EDGE_LOOP ( 'NONE', ( #76, #417, #87, #207 ) ) ;
#525 = DIRECTION ( 'NONE',  ( 1.000000000000000000, 0.000000000000000000, -0.000000000000000000 ) ) ;
#526 = EDGE_LOOP ( 'NONE', ( #113, #753, #988, #759 ) ) ;
#527 = AXIS2_PLACEMENT_3D ( 'NONE', #129, #471, #977 ) ;
#528 = EDGE_CURVE ( 'NONE', #14, #503, #481, .T. ) ;
#529 = VECTOR ( 'NONE', #649, 1000.000000000000000 ) ;
#530 = VECTOR ( 'NONE', #95, 1000.000000000000000 ) ;
#531 = FACE_OUTER_BOUND ( 'NONE', #495, .T. ) ;
#532 = LINE ( 'NONE', #112, #619 ) ;
#533 = ORIENTED_EDGE ( 'NONE', *, *, #521, .F. ) ;
#534 = CARTESIAN_POINT ( 'NONE',  ( 15.00000000000000355, 0.000000000000000000, -35.00000000000000711 ) ) ;
#535 = CARTESIAN_POINT ( 'NONE',  ( 0.000000000000000000, 0.000000000000000000, -30.50000000000001066 ) ) ;
#536 = DIRECTION ( 'NONE',  ( 0.000000000000000000, 0.000000000000000000, -1.000000000000000000 ) ) ;
#537 = CARTESIAN_POINT ( 'NONE',  ( -9.499999999999992895, 0.000000000000000000, -30.35000000000001208 ) ) ;
#538 = CARTESIAN_POINT ( 'NONE',  ( 15.00000000000000178, 2.500000000000000444, -17.50000000000000000 ) ) ;
#539 = EDGE_CURVE ( 'NONE', #624, #503, #825, .T. ) ;
#540 = DIRECTION ( 'NONE',  ( -0.000000000000000000, 1.000000000000000000, -0.000000000000000000 ) ) ;
#541 = AXIS2_PLACEMENT_3D ( 'NONE', #397, #907, #916 ) ;
#542 = ORIENTED_EDGE ( 'NONE', *, *, #449, .T. ) ;
#543 = VECTOR ( 'NONE', #644, 1000.000000000000000 ) ;
#544 = FACE_BOUND ( 'NONE', #613, .T. ) ;
#545 = CIRCLE ( 'NONE', #803, 1.600000000000000755 ) ;
#546 = LINE ( 'NONE', #291, #765 ) ;
#547 = ORIENTED_EDGE ( 'NONE', *, *, #742, .T. ) ;
#548 = EDGE_CURVE ( 'NONE', #847, #617, #159, .T. ) ;
#549 = LINE ( 'NONE', #38, #386 ) ;
#550 = EDGE_CURVE ( 'NONE', #466, #1017, #758, .T. ) ;
#551 = ORIENTED_EDGE ( 'NONE', *, *, #1090, .F. ) ;
#552 = FACE_OUTER_BOUND ( 'NONE', #843, .T. ) ;
#553 = DIRECTION ( 'NONE',  ( -0.000000000000000000, -0.000000000000000000, -1.000000000000000000 ) ) ;
#554 = ORIENTED_EDGE ( 'NONE', *, *, #429, .F. ) ;
#555 = EDGE_CURVE ( 'NONE', #14, #910, #476, .T. ) ;
#556 = CARTESIAN_POINT ( 'NONE',  ( 18.50000000000000355, 7.000000000000002665, 35.00099999999999767 ) ) ;
#557 = CARTESIAN_POINT ( 'NONE',  ( 15.00000000000000355, 10.50000000000000000, -30.50000000000001066 ) ) ;
#558 = ORIENTED_EDGE ( 'NONE', *, *, #84, .F. ) ;
#559 = DIRECTION ( 'NONE',  ( -1.239088197126291063E-16, -1.000000000000000000, 0.000000000000000000 ) ) ;
#560 = ADVANCED_FACE ( 'NONE', ( #736 ), #740, .F. ) ;
#561 = DIRECTION ( 'NONE',  ( 0.000000000000000000, 0.000000000000000000, -1.000000000000000000 ) ) ;
#562 = AXIS2_PLACEMENT_3D ( 'NONE', #734, #1069, #307 ) ;
#563 = CARTESIAN_POINT ( 'NONE',  ( -14.99999999999999822, 10.50000000000000000, -17.50000000000000000 ) ) ;
#564 = ORIENTED_EDGE ( 'NONE', *, *, #521, .T. ) ;
#565 = VECTOR ( 'NONE', #1048, 1000.000000000000000 ) ;
#566 = AXIS2_PLACEMENT_3D ( 'NONE', #684, #1033, #597 ) ;
#567 = PLANE ( 'NONE',  #228 ) ;
#568 = CARTESIAN_POINT ( 'NONE',  ( 9.500000000000003553, 10.50000000000000000, 31.49999999999999289 ) ) ;
#569 = EDGE_CURVE ( 'NONE', #868, #624, #411, .T. ) ;
#570 = DIRECTION ( 'NONE',  ( 1.000000000000000000, 2.478176394252582127E-16, 0.000000000000000000 ) ) ;
#571 = ORIENTED_EDGE ( 'NONE', *, *, #1082, .F. ) ;
#572 = CARTESIAN_POINT ( 'NONE',  ( 18.50000000000000355, 7.000000000000002665, -35.00000000000000711 ) ) ;
#573 = CARTESIAN_POINT ( 'NONE',  ( -14.99999999999999822, 10.50000000000000000, 17.50000000000000000 ) ) ;
#574 = DIRECTION ( 'NONE',  ( 0.000000000000000000, 0.000000000000000000, -1.000000000000000000 ) ) ;
#575 = ORIENTED_EDGE ( 'NONE', *, *, #881, .T. ) ;
#576 = DIRECTION ( 'NONE',  ( 0.000000000000000000, 0.000000000000000000, 1.000000000000000000 ) ) ;
#577 = VERTEX_POINT ( 'NONE', #982 ) ;
#578 = FACE_OUTER_BOUND ( 'NONE', #177, .T. ) ;
#579 = DIRECTION ( 'NONE',  ( -0.000000000000000000, 1.000000000000000000, -0.000000000000000000 ) ) ;
#580 = VERTEX_POINT ( 'NONE', #921 ) ;
#581 = AXIS2_PLACEMENT_3D ( 'NONE', #535, #382, #963 ) ;
#582 = DIRECTION ( 'NONE',  ( -1.000000000000000000, 0.000000000000000000, -0.000000000000000000 ) ) ;
#583 = VECTOR ( 'NONE', #927, 1000.000000000000000 ) ;
#584 = EDGE_CURVE ( 'NONE', #498, #406, #163, .T. ) ;
#585 = AXIS2_PLACEMENT_3D ( 'NONE', #1089, #403, #829 ) ;
#586 = EDGE_LOOP ( 'NONE', ( #324, #164, #269, #1046 ) ) ;
#587 = DIRECTION ( 'NONE',  ( 0.000000000000000000, 0.000000000000000000, -1.000000000000000000 ) ) ;
#588 = ORIENTED_EDGE ( 'NONE', *, *, #555, .F. ) ;
#589 = CARTESIAN_POINT ( 'NONE',  ( 15.00000000000000355, 10.50000000000000000, 20.06571984977575696 ) ) ;
#590 = ORIENTED_EDGE ( 'NONE', *, *, #865, .F. ) ;
#591 = DIRECTION ( 'NONE',  ( -0.000000000000000000, 1.000000000000000000, -0.000000000000000000 ) ) ;
#592 = EDGE_CURVE ( 'NONE', #755, #910, #222, .T. ) ;
#593 = CARTESIAN_POINT ( 'NONE',  ( -14.99999999999999289, 10.50000000000000000, 34.99999999999999289 ) ) ;
#594 = ORIENTED_EDGE ( 'NONE', *, *, #354, .T. ) ;
#595 = DIRECTION ( 'NONE',  ( -0.000000000000000000, -1.000000000000000000, -0.000000000000000000 ) ) ;
#596 = ORIENTED_EDGE ( 'NONE', *, *, #160, .F. ) ;
#597 = DIRECTION ( 'NONE',  ( 1.000000000000000000, 0.000000000000000000, 0.000000000000000000 ) ) ;
#598 = DIRECTION ( 'NONE',  ( -0.000000000000000000, -0.000000000000000000, -1.000000000000000000 ) ) ;
#599 = ORIENTED_EDGE ( 'NONE', *, *, #294, .T. ) ;
#600 = CARTESIAN_POINT ( 'NONE',  ( -14.99999999999999822, 10.50000000000000000, -17.50000000000000000 ) ) ;
#601 = AXIS2_PLACEMENT_3D ( 'NONE', #175, #27, #609 ) ;
#602 = VECTOR ( 'NONE', #78, 1000.000000000000000 ) ;
#603 = VECTOR ( 'NONE', #309, 1000.000000000000000 ) ;
#604 = VECTOR ( 'NONE', #484, 1000.000000000000000 ) ;
#605 = CARTESIAN_POINT ( 'NONE',  ( 9.500000000000003553, 10.50000000000000000, -27.15000000000000924 ) ) ;
#606 = FACE_OUTER_BOUND ( 'NONE', #784, .T. ) ;
#607 = EDGE_CURVE ( 'NONE', #1027, #280, #987, .T. ) ;
#608 = ORIENTED_EDGE ( 'NONE', *, *, #732, .T. ) ;
#609 = DIRECTION ( 'NONE',  ( 0.000000000000000000, 0.000000000000000000, -1.000000000000000000 ) ) ;
#610 = DIRECTION ( 'NONE',  ( -0.000000000000000000, -0.000000000000000000, 1.000000000000000000 ) ) ;
#611 = ORIENTED_EDGE ( 'NONE', *, *, #1029, .T. ) ;
#612 = FACE_OUTER_BOUND ( 'NONE', #151, .T. ) ;
#613 = EDGE_LOOP ( 'NONE', ( #645, #955 ) ) ;
#614 = FACE_BOUND ( 'NONE', #831, .T. ) ;
#615 = ORIENTED_EDGE ( 'NONE', *, *, #985, .T. ) ;
#616 = CARTESIAN_POINT ( 'NONE',  ( 20.10000000000000497, 7.000000000000002665, 35.00099999999999767 ) ) ;
#617 = VERTEX_POINT ( 'NONE', #405 ) ;
#618 = PLANE ( 'NONE',  #1062 ) ;
#619 = VECTOR ( 'NONE', #135, 1000.000000000000000 ) ;
#620 = AXIS2_PLACEMENT_3D ( 'NONE', #290, #448, #714 ) ;
#621 = CIRCLE ( 'NONE', #145, 1.600000000000004086 ) ;
#622 = PLANE ( 'NONE',  #178 ) ;
#623 = DIRECTION ( 'NONE',  ( 0.000000000000000000, -0.000000000000000000, -1.000000000000000000 ) ) ;
#624 = VERTEX_POINT ( 'NONE', #936 ) ;
#625 = CARTESIAN_POINT ( 'NONE',  ( -14.99999999999999822, 2.500000000000000444, 17.50000000000000000 ) ) ;
#626 = LINE ( 'NONE', #970, #744 ) ;
#627 = ADVANCED_FACE ( 'NONE', ( #697 ), #772, .F. ) ;
#628 = DIRECTION ( 'NONE',  ( -0.000000000000000000, 1.000000000000000000, -0.000000000000000000 ) ) ;
#629 = ORIENTED_EDGE ( 'NONE', *, *, #647, .F. ) ;
#630 = CARTESIAN_POINT ( 'NONE',  ( 22.00000000000000355, 10.50000000000000178, -30.50000000000001066 ) ) ;
#631 = DIRECTION ( 'NONE',  ( -0.000000000000000000, 1.000000000000000000, -0.000000000000000000 ) ) ;
#632 = EDGE_CURVE ( 'NONE', #319, #727, #106, .T. ) ;
#633 = CARTESIAN_POINT ( 'NONE',  ( -9.499999999999992895, 0.000000000000000000, -28.75000000000001066 ) ) ;
#634 = ORIENTED_EDGE ( 'NONE', *, *, #961, .F. ) ;
#635 = EDGE_CURVE ( 'NONE', #373, #186, #13, .T. ) ;
#636 = LINE ( 'NONE', #1051, #799 ) ;
#637 = ORIENTED_EDGE ( 'NONE', *, *, #939, .T. ) ;
#638 = VECTOR ( 'NONE', #654, 1000.000000000000000 ) ;
#639 = CARTESIAN_POINT ( 'NONE',  ( 15.00000000000000355, 10.50000000000000000, 34.99999999999999289 ) ) ;
#640 = VECTOR ( 'NONE', #385, 1000.000000000000000 ) ;
#641 = CARTESIAN_POINT ( 'NONE',  ( 22.00000000000000355, 10.50000000000000178, -30.50000000000001066 ) ) ;
#642 = ORIENTED_EDGE ( 'NONE', *, *, #470, .T. ) ;
#643 = DIRECTION ( 'NONE',  ( -1.000000000000000000, 0.000000000000000000, 0.000000000000000000 ) ) ;
#644 = DIRECTION ( 'NONE',  ( -1.000000000000000000, -0.000000000000000000, -0.000000000000000000 ) ) ;
#645 = ORIENTED_EDGE ( 'NONE', *, *, #828, .F. ) ;
#646 = CARTESIAN_POINT ( 'NONE',  ( 15.00000000000000355, 0.000000000000000000, 34.99999999999999289 ) ) ;
#647 = EDGE_CURVE ( 'NONE', #975, #878, #671, .T. ) ;
#648 = DIRECTION ( 'NONE',  ( 0.000000000000000000, 1.000000000000000000, 0.000000000000000000 ) ) ;
#649 = DIRECTION ( 'NONE',  ( -1.000000000000000000, -0.000000000000000000, -0.000000000000000000 ) ) ;
#650 = ORIENTED_EDGE ( 'NONE', *, *, #507, .F. ) ;
#651 = DIRECTION ( 'NONE',  ( 0.000000000000000000, 0.000000000000000000, 1.000000000000000000 ) ) ;
#652 = AXIS2_PLACEMENT_3D ( 'NONE', #823, #61, #1074 ) ;
#653 = VECTOR ( 'NONE', #359, 1000.000000000000000 ) ;
#654 = DIRECTION ( 'NONE',  ( -0.000000000000000000, -0.000000000000000000, 1.000000000000000000 ) ) ;
#655 = EDGE_LOOP ( 'NONE', ( #491, #518, #413, #110 ) ) ;
#656 = AXIS2_PLACEMENT_3D ( 'NONE', #425, #414, #696 ) ;
#657 = DIRECTION ( 'NONE',  ( 0.000000000000000000, 1.000000000000000000, 0.000000000000000000 ) ) ;
#658 = DIRECTION ( 'NONE',  ( 0.000000000000000000, 0.000000000000000000, 1.000000000000000000 ) ) ;
#659 = ADVANCED_FACE ( 'NONE', ( #179 ), #858, .F. ) ;
#660 = CARTESIAN_POINT ( 'NONE',  ( 0.000000000000000000, 10.50000000000000000, 0.000000000000000000 ) ) ;
#661 = ORIENTED_EDGE ( 'NONE', *, *, #449, .F. ) ;
#662 = CARTESIAN_POINT ( 'NONE',  ( 22.00000000000000355, 10.50000000000000178, -35.00000000000000711 ) ) ;
#663 = VERTEX_POINT ( 'NONE', #846 ) ;
#664 = DIRECTION ( 'NONE',  ( -1.000000000000000000, -0.000000000000000000, -0.000000000000000000 ) ) ;
#665 = EDGE_CURVE ( 'NONE', #252, #233, #1083, .T. ) ;
#666 = LINE ( 'NONE', #557, #855 ) ;
#667 = ORIENTED_EDGE ( 'NONE', *, *, #48, .F. ) ;
#668 = EDGE_CURVE ( 'NONE', #663, #755, #432, .T. ) ;
#669 = ORIENTED_EDGE ( 'NONE', *, *, #75, .F. ) ;
#670 = APPLICATION_PROTOCOL_DEFINITION ( 'draft international standard', 'automotive_design', 1998, #30 ) ;
#671 = LINE ( 'NONE', #867, #920 ) ;
#672 = ORIENTED_EDGE ( 'NONE', *, *, #953, .T. ) ;
#673 = CIRCLE ( 'NONE', #958, 1.600000000000000755 ) ;
#674 = CARTESIAN_POINT ( 'NONE',  ( 15.00000000000000355, 10.50000000000000000, -17.50000000000000000 ) ) ;
#675 = VECTOR ( 'NONE', #886, 1000.000000000000000 ) ;
#676 = VECTOR ( 'NONE', #394, 1000.000000000000000 ) ;
#677 = ORIENTED_EDGE ( 'NONE', *, *, #350, .F. ) ;
#678 = CARTESIAN_POINT ( 'NONE',  ( -9.499999999999991118, 0.000000000000000000, 29.89999999999999503 ) ) ;
#679 = CARTESIAN_POINT ( 'NONE',  ( -9.499999999999991118, 0.000000000000000000, 31.49999999999999289 ) ) ;
#680 = ORIENTED_EDGE ( 'NONE', *, *, #915, .F. ) ;
#681 = DIRECTION ( 'NONE',  ( 1.000000000000000000, 0.000000000000000000, 0.000000000000000000 ) ) ;
#682 = EDGE_CURVE ( 'NONE', #401, #25, #694, .T. ) ;
#683 = ORIENTED_EDGE ( 'NONE', *, *, #409, .T. ) ;
#684 = CARTESIAN_POINT ( 'NONE',  ( 0.000000000000000000, 0.000000000000000000, 0.000000000000000000 ) ) ;
#685 = CARTESIAN_POINT ( 'NONE',  ( 22.00000000000000355, 3.500000000000002220, -30.50000000000001066 ) ) ;
#686 = EDGE_LOOP ( 'NONE', ( #999, #243 ) ) ;
#687 = DIRECTION ( 'NONE',  ( 0.000000000000000000, -1.000000000000000000, 0.000000000000000000 ) ) ;
#688 = EDGE_CURVE ( 'NONE', #1078, #319, #777, .T. ) ;
#689 = DIRECTION ( 'NONE',  ( 1.000000000000000000, -0.000000000000000000, -0.000000000000000000 ) ) ;
#690 = CARTESIAN_POINT ( 'NONE',  ( -18.49999999999999289, 7.000000000000002665, 35.00099999999999767 ) ) ;
#691 = VERTEX_POINT ( 'NONE', #685 ) ;
#692 = CARTESIAN_POINT ( 'NONE',  ( 9.500000000000003553, 0.000000000000000000, 33.09999999999999432 ) ) ;
#693 = AXIS2_PLACEMENT_3D ( 'NONE', #870, #860, #21 ) ;
#694 = CIRCLE ( 'NONE', #108, 1.600000000000000755 ) ;
#695 = AXIS2_PLACEMENT_3D ( 'NONE', #556, #898, #643 ) ;
#696 = DIRECTION ( 'NONE',  ( -1.000000000000000000, 0.000000000000000000, 0.000000000000000000 ) ) ;
#697 = FACE_OUTER_BOUND ( 'NONE', #655, .T. ) ;
#698 = ORIENTED_EDGE ( 'NONE', *, *, #52, .F. ) ;
#699 = DIRECTION ( 'NONE',  ( 0.000000000000000000, -0.000000000000000000, -1.000000000000000000 ) ) ;
#700 = ORIENTED_EDGE ( 'NONE', *, *, #911, .F. ) ;
#701 = PRODUCT_DEFINITION_SHAPE ( 'NONE', 'NONE',  #200 ) ;
#702 = DIRECTION ( 'NONE',  ( -1.000000000000000000, 0.000000000000000000, 0.000000000000000000 ) ) ;
#703 = ORIENTED_EDGE ( 'NONE', *, *, #16, .T. ) ;
#704 = DIRECTION ( 'NONE',  ( 1.000000000000000000, 0.000000000000000000, 0.000000000000000000 ) ) ;
#705 = EDGE_LOOP ( 'NONE', ( #97, #314, #1055, #650 ) ) ;
#706 = FACE_OUTER_BOUND ( 'NONE', #1010, .T. ) ;
#707 = DIRECTION ( 'NONE',  ( 0.000000000000000000, 1.000000000000000000, 0.000000000000000000 ) ) ;
#708 = CARTESIAN_POINT ( 'NONE',  ( -14.99999999999999645, 10.50000000000000000, 20.06571984977575696 ) ) ;
#709 = VERTEX_POINT ( 'NONE', #173 ) ;
#710 =( NAMED_UNIT ( * ) PLANE_ANGLE_UNIT ( ) SI_UNIT ( $, .RADIAN. ) );
#711 = EDGE_CURVE ( 'NONE', #727, #73, #780, .T. ) ;
#712 = CIRCLE ( 'NONE', #230, 3.099999999999998757 ) ;
#713 = AXIS2_PLACEMENT_3D ( 'NONE', #134, #469, #24 ) ;
#714 = DIRECTION ( 'NONE',  ( 0.000000000000000000, 0.000000000000000000, 1.000000000000000000 ) ) ;
#715 = CARTESIAN_POINT ( 'NONE',  ( -14.99999999999999289, 0.000000000000000000, 34.99999999999999289 ) ) ;
#716 = EDGE_CURVE ( 'NONE', #73, #1078, #18, .T. ) ;
#717 = ORIENTED_EDGE ( 'NONE', *, *, #1070, .T. ) ;
#718 = CARTESIAN_POINT ( 'NONE',  ( -14.99999999999999289, 10.50000000000000000, -30.50000000000001066 ) ) ;
#719 = ADVANCED_FACE ( 'NONE', ( #931, #763, #500, #352, #3 ), #505, .T. ) ;
#720 = DIRECTION ( 'NONE',  ( 1.000000000000000000, 0.000000000000000000, 0.000000000000000000 ) ) ;
#721 = EDGE_LOOP ( 'NONE', ( #327, #267, #412, #83 ) ) ;
#722 = CARTESIAN_POINT ( 'NONE',  ( 22.00000000000000355, 3.500000000000002220, -35.00000000000000711 ) ) ;
#723 = ORIENTED_EDGE ( 'NONE', *, *, #239, .T. ) ;
#724 = ADVANCED_FACE ( 'NONE', ( #1021 ), #1009, .F. ) ;
#725 = CARTESIAN_POINT ( 'NONE',  ( 15.00000000000000355, 3.500000000000003109, -30.50000000000001066 ) ) ;
#726 = DIRECTION ( 'NONE',  ( 0.000000000000000000, 0.000000000000000000, 1.000000000000000000 ) ) ;
#727 = VERTEX_POINT ( 'NONE', #949 ) ;
#728 = MECHANICAL_DESIGN_GEOMETRIC_PRESENTATION_REPRESENTATION (  '', ( #801 ), #1097 ) ;
#729 = CARTESIAN_POINT ( 'NONE',  ( -14.99999999999999645, 10.50000000000000000, -20.06571984977576406 ) ) ;
#730 = CIRCLE ( 'NONE', #392, 1.599999999999997202 ) ;
#731 = FACE_BOUND ( 'NONE', #463, .T. ) ;
#732 = EDGE_CURVE ( 'NONE', #73, #826, #712, .T. ) ;
#733 = ORIENTED_EDGE ( 'NONE', *, *, #539, .F. ) ;
#734 = CARTESIAN_POINT ( 'NONE',  ( 0.000000000000000000, 10.50000000000000000, 0.000000000000000000 ) ) ;
#735 = CARTESIAN_POINT ( 'NONE',  ( -9.499999999999992895, 10.50000000000000000, -28.75000000000001066 ) ) ;
#736 = FACE_OUTER_BOUND ( 'NONE', #812, .T. ) ;
#737 = ORIENTED_EDGE ( 'NONE', *, *, #632, .F. ) ;
#738 = CARTESIAN_POINT ( 'NONE',  ( 0.000000000000000000, 0.000000000000000000, -30.50000000000001066 ) ) ;
#739 = LINE ( 'NONE', #743, #1011 ) ;
#740 = CYLINDRICAL_SURFACE ( 'NONE', #493, 1.600000000000000755 ) ;
#741 = ORIENTED_EDGE ( 'NONE', *, *, #997, .F. ) ;
#742 = EDGE_CURVE ( 'NONE', #498, #934, #248, .T. ) ;
#743 = CARTESIAN_POINT ( 'NONE',  ( -14.99999999999999289, 10.50000000000000000, -35.00000000000000711 ) ) ;
#744 = VECTOR ( 'NONE', #208, 1000.000000000000000 ) ;
#745 = LINE ( 'NONE', #226, #144 ) ;
#746 = ORIENTED_EDGE ( 'NONE', *, *, #828, .T. ) ;
#747 =( GEOMETRIC_REPRESENTATION_CONTEXT ( 3 ) GLOBAL_UNCERTAINTY_ASSIGNED_CONTEXT ( ( #453 ) ) GLOBAL_UNIT_ASSIGNED_CONTEXT ( ( #1006, #504, #761 ) ) REPRESENTATION_CONTEXT ( 'NONE', 'WORKASPACE' ) );
#748 = CARTESIAN_POINT ( 'NONE',  ( 9.500000000000003553, 0.000000000000000000, 31.49999999999999289 ) ) ;
#749 = ADVANCED_FACE ( 'NONE', ( #606 ), #942, .F. ) ;
#750 = CARTESIAN_POINT ( 'NONE',  ( 15.00000000000000178, 2.500000000000000444, -17.50000000000000000 ) ) ;
#751 = CARTESIAN_POINT ( 'NONE',  ( -14.99999999999999289, 3.500000000000000444, -30.50000000000001066 ) ) ;
#752 = ADVANCED_FACE ( 'NONE', ( #967 ), #464, .F. ) ;
#753 = ORIENTED_EDGE ( 'NONE', *, *, #398, .F. ) ;
#754 = CYLINDRICAL_SURFACE ( 'NONE', #818, 1.600000000000000755 ) ;
#755 = VERTEX_POINT ( 'NONE', #534 ) ;
#756 = PRODUCT_CONTEXT ( 'NONE', #1013, 'mechanical' ) ;
#757 = EDGE_CURVE ( 'NONE', #310, #577, #819, .T. ) ;
#758 = LINE ( 'NONE', #63, #602 ) ;
#759 = ORIENTED_EDGE ( 'NONE', *, *, #944, .T. ) ;
#760 = ORIENTED_EDGE ( 'NONE', *, *, #548, .T. ) ;
#761 =( NAMED_UNIT ( * ) SI_UNIT ( $, .STERADIAN. ) SOLID_ANGLE_UNIT ( ) );
#762 = VECTOR ( 'NONE', #124, 1000.000000000000000 ) ;
#763 = FACE_BOUND ( 'NONE', #686, .T. ) ;
#764 = ORIENTED_EDGE ( 'NONE', *, *, #833, .T. ) ;
#765 = VECTOR ( 'NONE', #628, 1000.000000000000000 ) ;
#766 = LINE ( 'NONE', #933, #653 ) ;
#767 = EDGE_CURVE ( 'NONE', #878, #498, #1044, .T. ) ;
#768 = AXIS2_PLACEMENT_3D ( 'NONE', #660, #1091, #58 ) ;
#769 = CIRCLE ( 'NONE', #923, 1.600000000000000755 ) ;
#770 = EDGE_LOOP ( 'NONE', ( #92, #889, #776, #54 ) ) ;
#771 = CARTESIAN_POINT ( 'NONE',  ( 18.50000000000000355, 7.000000000000002665, -30.50000000000000711 ) ) ;
#772 = CYLINDRICAL_SURFACE ( 'NONE', #303, 1.599999999999997202 ) ;
#773 = ORIENTED_EDGE ( 'NONE', *, *, #528, .T. ) ;
#774 = FACE_OUTER_BOUND ( 'NONE', #1073, .T. ) ;
#775 = EDGE_CURVE ( 'NONE', #1003, #840, #2, .T. ) ;
#776 = ORIENTED_EDGE ( 'NONE', *, *, #845, .T. ) ;
#777 = LINE ( 'NONE', #593, #212 ) ;
#778 = ORIENTED_EDGE ( 'NONE', *, *, #997, .T. ) ;
#779 = DIRECTION ( 'NONE',  ( -0.000000000000000000, 1.000000000000000000, -0.000000000000000000 ) ) ;
#780 = LINE ( 'NONE', #82, #941 ) ;
#781 = ORIENTED_EDGE ( 'NONE', *, *, #59, .F. ) ;
#782 = COLOUR_RGB ( '',0.7921568627450980005, 0.8196078431372548767, 0.9333333333333333481 ) ;
#783 = DIRECTION ( 'NONE',  ( 0.000000000000000000, -1.000000000000000000, -0.000000000000000000 ) ) ;
#784 = EDGE_LOOP ( 'NONE', ( #272, #302, #1092, #506 ) ) ;
#785 = AXIS2_PLACEMENT_3D ( 'NONE', #109, #187, #525 ) ;
#786 = VECTOR ( 'NONE', #400, 1000.000000000000000 ) ;
#787 = ADVANCED_FACE ( 'NONE', ( #614, #544, #531 ), #622, .F. ) ;
#788 = CARTESIAN_POINT ( 'NONE',  ( -18.49999999999999289, 7.000000000000002665, -30.50000000000000711 ) ) ;
#789 = ORIENTED_EDGE ( 'NONE', *, *, #866, .F. ) ;
#790 = CARTESIAN_POINT ( 'NONE',  ( -14.99999999999999645, 11.50000000000000000, -23.00000000000000355 ) ) ;
#791 = EDGE_LOOP ( 'NONE', ( #1041, #588, #773, #332, #634, #564, #1096, #211 ) ) ;
#792 = FACE_OUTER_BOUND ( 'NONE', #383, .T. ) ;
#793 = CARTESIAN_POINT ( 'NONE',  ( -14.99999999999999289, 0.000000000000000000, 34.99999999999999289 ) ) ;
#794 = EDGE_CURVE ( 'NONE', #806, #868, #115, .T. ) ;
#795 = PLANE ( 'NONE',  #86 ) ;
#796 = CARTESIAN_POINT ( 'NONE',  ( 15.00000000000000355, 10.50000000000000000, 34.99999999999999289 ) ) ;
#797 = DIRECTION ( 'NONE',  ( 0.000000000000000000, -1.000000000000000000, 0.000000000000000000 ) ) ;
#798 = ORIENTED_EDGE ( 'NONE', *, *, #985, .F. ) ;
#799 = VECTOR ( 'NONE', #289, 1000.000000000000000 ) ;
#800 = FILL_AREA_STYLE ('',( #467 ) ) ;
#801 = STYLED_ITEM ( 'NONE', ( #374 ), #46 ) ;
#802 = AXIS2_PLACEMENT_3D ( 'NONE', #40, #707, #1038 ) ;
#803 = AXIS2_PLACEMENT_3D ( 'NONE', #986, #561, #904 ) ;
#804 = CARTESIAN_POINT ( 'NONE',  ( 18.50000000000000355, 7.000000000000002665, 35.00099999999999767 ) ) ;
#805 = FACE_OUTER_BOUND ( 'NONE', #586, .T. ) ;
#806 = VERTEX_POINT ( 'NONE', #454 ) ;
#807 = DIRECTION ( 'NONE',  ( 0.000000000000000000, 1.000000000000000000, 0.000000000000000000 ) ) ;
#808 = ADVANCED_FACE ( 'NONE', ( #792 ), #810, .F. ) ;
#809 = ORIENTED_EDGE ( 'NONE', *, *, #794, .T. ) ;
#810 = PLANE ( 'NONE',  #123 ) ;
#811 = DIRECTION ( 'NONE',  ( 1.000000000000000000, 0.000000000000000000, 0.000000000000000000 ) ) ;
#812 = EDGE_LOOP ( 'NONE', ( #596, #864, #1061, #946 ) ) ;
#813 = LINE ( 'NONE', #142, #1024 ) ;
#814 = DIRECTION ( 'NONE',  ( 0.000000000000000000, 0.000000000000000000, -1.000000000000000000 ) ) ;
#815 = CARTESIAN_POINT ( 'NONE',  ( -14.99999999999999645, 11.50000000000000000, 22.99999999999999645 ) ) ;
#816 = ORIENTED_EDGE ( 'NONE', *, *, #239, .F. ) ;
#817 = FACE_BOUND ( 'NONE', #914, .T. ) ;
#818 = AXIS2_PLACEMENT_3D ( 'NONE', #827, #65, #1079 ) ;
#819 = CIRCLE ( 'NONE', #331, 1.599999999999997202 ) ;
#820 = CARTESIAN_POINT ( 'NONE',  ( -14.99999999999999822, 2.500000000000000444, -17.50000000000000000 ) ) ;
#821 = CARTESIAN_POINT ( 'NONE',  ( -14.99999999999999289, 0.000000000000000000, -35.00000000000000711 ) ) ;
#822 = VERTEX_POINT ( 'NONE', #537 ) ;
#823 = CARTESIAN_POINT ( 'NONE',  ( 9.500000000000003553, 0.000000000000000000, -28.75000000000001066 ) ) ;
#824 = CARTESIAN_POINT ( 'NONE',  ( -18.49999999999999289, 7.000000000000002665, -35.00000000000000711 ) ) ;
#825 = LINE ( 'NONE', #485, #264 ) ;
#826 = VERTEX_POINT ( 'NONE', #295 ) ;
#827 = CARTESIAN_POINT ( 'NONE',  ( -9.499999999999992895, 0.000000000000000000, -28.75000000000001066 ) ) ;
#828 = EDGE_CURVE ( 'NONE', #1068, #28, #371, .T. ) ;
#829 = DIRECTION ( 'NONE',  ( 0.000000000000000000, 0.000000000000000000, 1.000000000000000000 ) ) ;
#830 = DIRECTION ( 'NONE',  ( -0.000000000000000000, -1.000000000000000000, -0.000000000000000000 ) ) ;
#831 = EDGE_LOOP ( 'NONE', ( #520, #68 ) ) ;
#832 = EDGE_CURVE ( 'NONE', #336, #28, #884, .T. ) ;
#833 = EDGE_CURVE ( 'NONE', #806, #964, #626, .T. ) ;
#834 = DIRECTION ( 'NONE',  ( 0.000000000000000000, 0.000000000000000000, 1.000000000000000000 ) ) ;
#835 = AXIS2_PLACEMENT_3D ( 'NONE', #338, #444, #439 ) ;
#836 = DIRECTION ( 'NONE',  ( 0.000000000000000000, -1.000000000000000000, 0.000000000000000000 ) ) ;
#837 = EDGE_LOOP ( 'NONE', ( #23, #215, #575, #746 ) ) ;
#838 = VECTOR ( 'NONE', #689, 1000.000000000000000 ) ;
#839 = CARTESIAN_POINT ( 'NONE',  ( -9.499999999999992895, 0.000000000000000000, -28.75000000000001066 ) ) ;
#840 = VERTEX_POINT ( 'NONE', #890 ) ;
#841 = CARTESIAN_POINT ( 'NONE',  ( -14.99999999999999289, 10.50000000000000000, 34.99999999999999289 ) ) ;
#842 = CARTESIAN_POINT ( 'NONE',  ( -21.99999999999999289, 10.50000000000000000, -35.00000000000000711 ) ) ;
#843 = EDGE_LOOP ( 'NONE', ( #558, #594, #440, #816 ) ) ;
#844 = EDGE_LOOP ( 'NONE', ( #64, #542, #420, #554 ) ) ;
#845 = EDGE_CURVE ( 'NONE', #691, #447, #29, .T. ) ;
#846 = CARTESIAN_POINT ( 'NONE',  ( 15.00000000000000355, 3.500000000000003109, -35.00000000000000711 ) ) ;
#847 = VERTEX_POINT ( 'NONE', #128 ) ;
#848 = FACE_OUTER_BOUND ( 'NONE', #81, .T. ) ;
#849 = LINE ( 'NONE', #12, #902 ) ;
#850 = CARTESIAN_POINT ( 'NONE',  ( 18.50000000000000355, 7.000000000000002665, -30.50000000000000711 ) ) ;
#851 = VECTOR ( 'NONE', #540, 1000.000000000000000 ) ;
#852 = DIRECTION ( 'NONE',  ( -1.000000000000000000, 0.000000000000000000, 0.000000000000000000 ) ) ;
#853 = VERTEX_POINT ( 'NONE', #216 ) ;
#854 = LINE ( 'NONE', #340, #990 ) ;
#855 = VECTOR ( 'NONE', #570, 1000.000000000000000 ) ;
#856 = ORIENTED_EDGE ( 'NONE', *, *, #1063, .T. ) ;
#857 = DIRECTION ( 'NONE',  ( -0.000000000000000000, -0.000000000000000000, -1.000000000000000000 ) ) ;
#858 = CYLINDRICAL_SURFACE ( 'NONE', #1065, 1.600000000000000755 ) ;
#859 = ORIENTED_EDGE ( 'NONE', *, *, #438, .F. ) ;
#860 = DIRECTION ( 'NONE',  ( -0.000000000000000000, 1.000000000000000000, -0.000000000000000000 ) ) ;
#861 = DIRECTION ( 'NONE',  ( 0.000000000000000000, 0.000000000000000000, 1.000000000000000000 ) ) ;
#862 = EDGE_LOOP ( 'NONE', ( #926, #683, #892, #255 ) ) ;
#863 = FACE_OUTER_BOUND ( 'NONE', #791, .T. ) ;
#864 = ORIENTED_EDGE ( 'NONE', *, *, #832, .T. ) ;
#865 = EDGE_CURVE ( 'NONE', #80, #278, #47, .T. ) ;
#866 = EDGE_CURVE ( 'NONE', #617, #853, #1058, .T. ) ;
#867 = CARTESIAN_POINT ( 'NONE',  ( -14.99999999999999822, 2.500000000000000444, 17.50000000000000000 ) ) ;
#868 = VERTEX_POINT ( 'NONE', #976 ) ;
#869 = AXIS2_PLACEMENT_3D ( 'NONE', #572, #1012, #74 ) ;
#870 = CARTESIAN_POINT ( 'NONE',  ( -9.499999999999991118, 0.000000000000000000, 31.49999999999999289 ) ) ;
#871 = ORIENTED_EDGE ( 'NONE', *, *, #979, .F. ) ;
#872 = AXIS2_PLACEMENT_3D ( 'NONE', #377, #797, #623 ) ;
#873 = AXIS2_PLACEMENT_3D ( 'NONE', #258, #333, #96 ) ;
#874 = AXIS2_PLACEMENT_3D ( 'NONE', #850, #857, #77 ) ;
#875 = ADVANCED_FACE ( 'NONE', ( #552 ), #954, .F. ) ;
#876 = DIRECTION ( 'NONE',  ( 0.000000000000000000, 1.000000000000000000, 0.000000000000000000 ) ) ;
#877 = DIRECTION ( 'NONE',  ( 0.000000000000000000, 0.000000000000000000, 1.000000000000000000 ) ) ;
#878 = VERTEX_POINT ( 'NONE', #194 ) ;
#879 = ORIENTED_EDGE ( 'NONE', *, *, #52, .T. ) ;
#880 = DIRECTION ( 'NONE',  ( -0.000000000000000000, 0.000000000000000000, 1.000000000000000000 ) ) ;
#881 = EDGE_CURVE ( 'NONE', #580, #1068, #57, .T. ) ;
#882 = DIRECTION ( 'NONE',  ( 0.000000000000000000, 1.000000000000000000, 0.000000000000000000 ) ) ;
#883 = FACE_BOUND ( 'NONE', #353, .T. ) ;
#884 = LINE ( 'NONE', #1052, #991 ) ;
#885 = ADVANCED_FACE ( 'NONE', ( #578 ), #149, .F. ) ;
#886 = DIRECTION ( 'NONE',  ( -0.000000000000000000, 1.000000000000000000, -0.000000000000000000 ) ) ;
#887 = CARTESIAN_POINT ( 'NONE',  ( -9.499999999999992895, 0.000000000000000000, -27.15000000000000924 ) ) ;
#888 = VECTOR ( 'NONE', #381, 1000.000000000000000 ) ;
#889 = ORIENTED_EDGE ( 'NONE', *, *, #1075, .F. ) ;
#890 = CARTESIAN_POINT ( 'NONE',  ( -9.499999999999991118, 10.50000000000000000, 33.09999999999998721 ) ) ;
#891 = FACE_OUTER_BOUND ( 'NONE', #510, .T. ) ;
#892 = ORIENTED_EDGE ( 'NONE', *, *, #665, .T. ) ;
#893 = VERTEX_POINT ( 'NONE', #996 ) ;
#894 = DIRECTION ( 'NONE',  ( 0.000000000000000000, 0.000000000000000000, -1.000000000000000000 ) ) ;
#895 = CYLINDRICAL_SURFACE ( 'NONE', #20, 3.099999999999998757 ) ;
#896 = ORIENTED_EDGE ( 'NONE', *, *, #528, .F. ) ;
#897 = DIRECTION ( 'NONE',  ( 0.000000000000000000, 0.000000000000000000, 1.000000000000000000 ) ) ;
#898 = DIRECTION ( 'NONE',  ( -0.000000000000000000, -0.000000000000000000, -1.000000000000000000 ) ) ;
#899 = FACE_OUTER_BOUND ( 'NONE', #932, .T. ) ;
#900 = EDGE_LOOP ( 'NONE', ( #114, #7, #50, #202 ) ) ;
#901 = DIRECTION ( 'NONE',  ( 0.000000000000000000, -1.000000000000000000, 0.000000000000000000 ) ) ;
#902 = VECTOR ( 'NONE', #282, 1000.000000000000000 ) ;
#903 = VECTOR ( 'NONE', #830, 1000.000000000000000 ) ;
#904 = DIRECTION ( 'NONE',  ( -1.000000000000000000, 0.000000000000000000, 0.000000000000000000 ) ) ;
#905 = LINE ( 'NONE', #842, #90 ) ;
#906 = ORIENTED_EDGE ( 'NONE', *, *, #160, .T. ) ;
#907 = DIRECTION ( 'NONE',  ( 0.000000000000000000, 1.000000000000000000, 0.000000000000000000 ) ) ;
#908 = CARTESIAN_POINT ( 'NONE',  ( -14.99999999999999645, 10.50000000000000000, -25.93428015022424304 ) ) ;
#909 = LINE ( 'NONE', #236, #1084 ) ;
#910 = VERTEX_POINT ( 'NONE', #410 ) ;
#911 = EDGE_CURVE ( 'NONE', #358, #893, #621, .T. ) ;
#912 = CARTESIAN_POINT ( 'NONE',  ( -14.99999999999999645, 10.50000000000000000, -25.93428015022424304 ) ) ;
#913 = DIRECTION ( 'NONE',  ( -0.000000000000000000, 1.000000000000000000, -0.000000000000000000 ) ) ;
#914 = EDGE_LOOP ( 'NONE', ( #390, #700 ) ) ;
#915 = EDGE_CURVE ( 'NONE', #155, #406, #918, .T. ) ;
#916 = DIRECTION ( 'NONE',  ( 0.000000000000000000, 0.000000000000000000, 1.000000000000000000 ) ) ;
#917 = ORIENTED_EDGE ( 'NONE', *, *, #1025, .F. ) ;
#918 = LINE ( 'NONE', #316, #993 ) ;
#919 = VECTOR ( 'NONE', #595, 1000.000000000000000 ) ;
#920 = VECTOR ( 'NONE', #254, 1000.000000000000000 ) ;
#921 = CARTESIAN_POINT ( 'NONE',  ( 9.500000000000003553, 0.000000000000000000, -27.15000000000000924 ) ) ;
#922 = EDGE_LOOP ( 'NONE', ( #1022, #917 ) ) ;
#923 = AXIS2_PLACEMENT_3D ( 'NONE', #771, #171, #270 ) ;
#924 = DIRECTION ( 'NONE',  ( 1.000000000000000000, 0.000000000000000000, -0.000000000000000000 ) ) ;
#925 = EDGE_CURVE ( 'NONE', #1043, #709, #265, .T. ) ;
#926 = ORIENTED_EDGE ( 'NONE', *, *, #137, .F. ) ;
#927 = DIRECTION ( 'NONE',  ( -0.000000000000000000, -1.000000000000000000, -0.000000000000000000 ) ) ;
#928 = ORIENTED_EDGE ( 'NONE', *, *, #516, .T. ) ;
#929 = ORIENTED_EDGE ( 'NONE', *, *, #507, .T. ) ;
#930 = LINE ( 'NONE', #263, #1047 ) ;
#931 = FACE_BOUND ( 'NONE', #433, .T. ) ;
#932 = EDGE_LOOP ( 'NONE', ( #778, #218, #198, #952 ) ) ;
#933 = CARTESIAN_POINT ( 'NONE',  ( 15.00000000000000355, 3.500000000000003109, -30.50000000000001066 ) ) ;
#934 = VERTEX_POINT ( 'NONE', #750 ) ;
#935 = APPLICATION_PROTOCOL_DEFINITION ( 'draft international standard', 'automotive_design', 1998, #1013 ) ;
#936 = CARTESIAN_POINT ( 'NONE',  ( -21.99999999999999289, 3.500000000000000444, -30.50000000000001066 ) ) ;
#937 = ORIENTED_EDGE ( 'NONE', *, *, #635, .T. ) ;
#938 = AXIS2_PLACEMENT_3D ( 'NONE', #11, #502, #1018 ) ;
#939 = EDGE_CURVE ( 'NONE', #840, #1003, #1031, .T. ) ;
#940 = DIRECTION ( 'NONE',  ( -1.000000000000000000, 0.000000000000000000, 0.000000000000000000 ) ) ;
#941 = VECTOR ( 'NONE', #419, 1000.000000000000000 ) ;
#942 = PLANE ( 'NONE',  #391 ) ;
#943 = ORIENTED_EDGE ( 'NONE', *, *, #592, .F. ) ;
#944 = EDGE_CURVE ( 'NONE', #233, #252, #461, .T. ) ;
#945 = PLANE ( 'NONE',  #785 ) ;
#946 = ORIENTED_EDGE ( 'NONE', *, *, #881, .F. ) ;
#947 = ADVANCED_FACE ( 'NONE', ( #992 ), #234, .F. ) ;
#948 = DIRECTION ( 'NONE',  ( 0.000000000000000000, 0.000000000000000000, -1.000000000000000000 ) ) ;
#949 = CARTESIAN_POINT ( 'NONE',  ( 15.00000000000000355, 10.50000000000000000, 25.93428015022423594 ) ) ;
#950 = ORIENTED_EDGE ( 'NONE', *, *, #647, .T. ) ;
#951 = CYLINDRICAL_SURFACE ( 'NONE', #938, 1.600000000000000755 ) ;
#952 = ORIENTED_EDGE ( 'NONE', *, *, #470, .F. ) ;
#953 = EDGE_CURVE ( 'NONE', #577, #310, #730, .T. ) ;
#954 = CYLINDRICAL_SURFACE ( 'NONE', #713, 1.600000000000004086 ) ;
#955 = ORIENTED_EDGE ( 'NONE', *, *, #367, .F. ) ;
#956 = CARTESIAN_POINT ( 'NONE',  ( 9.500000000000003553, 10.50000000000000000, 29.89999999999999147 ) ) ;
#957 = ORIENTED_EDGE ( 'NONE', *, *, #757, .T. ) ;
#958 = AXIS2_PLACEMENT_3D ( 'NONE', #633, #882, #877 ) ;
#959 = VECTOR ( 'NONE', #34, 1000.000000000000000 ) ;
#960 = ORIENTED_EDGE ( 'NONE', *, *, #711, .T. ) ;
#961 = EDGE_CURVE ( 'NONE', #186, #1017, #739, .T. ) ;
#962 = DIRECTION ( 'NONE',  ( 0.000000000000000000, -0.000000000000000000, -1.000000000000000000 ) ) ;
#963 = DIRECTION ( 'NONE',  ( -1.000000000000000000, 0.000000000000000000, 0.000000000000000000 ) ) ;
#964 = VERTEX_POINT ( 'NONE', #908 ) ;
#965 = DIRECTION ( 'NONE',  ( 0.000000000000000000, 0.000000000000000000, -1.000000000000000000 ) ) ;
#966 = EDGE_CURVE ( 'NONE', #983, #826, #231, .T. ) ;
#967 = FACE_OUTER_BOUND ( 'NONE', #721, .T. ) ;
#968 = CARTESIAN_POINT ( 'NONE',  ( -20.09999999999999432, 7.000000000000002665, 35.00099999999999767 ) ) ;
#969 =( NAMED_UNIT ( * ) SI_UNIT ( $, .STERADIAN. ) SOLID_ANGLE_UNIT ( ) );
#970 = CARTESIAN_POINT ( 'NONE',  ( -14.99999999999999289, 10.50000000000000000, 34.99999999999999289 ) ) ;
#971 = CARTESIAN_POINT ( 'NONE',  ( 15.00000000000000178, 10.50000000000000000, 17.50000000000000000 ) ) ;
#972 = ORIENTED_EDGE ( 'NONE', *, *, #775, .F. ) ;
#973 = PRESENTATION_LAYER_ASSIGNMENT (  '', '', ( #801 ) ) ;
#974 = VECTOR ( 'NONE', #287, 1000.000000000000000 ) ;
#975 = VERTEX_POINT ( 'NONE', #820 ) ;
#976 = CARTESIAN_POINT ( 'NONE',  ( -14.99999999999999289, 3.500000000000000444, -30.50000000000001066 ) ) ;
#977 = DIRECTION ( 'NONE',  ( -1.000000000000000000, 0.000000000000000000, -0.000000000000000000 ) ) ;
#978 = ORIENTED_EDGE ( 'NONE', *, *, #550, .T. ) ;
#979 = EDGE_CURVE ( 'NONE', #847, #1027, #138, .T. ) ;
#980 = CARTESIAN_POINT ( 'NONE',  ( -14.99999999999999645, 10.50000000000000000, 25.93428015022423594 ) ) ;
#981 = DIRECTION ( 'NONE',  ( 0.000000000000000000, 0.000000000000000000, 1.000000000000000000 ) ) ;
#982 = CARTESIAN_POINT ( 'NONE',  ( -9.499999999999991118, 0.000000000000000000, 29.89999999999999503 ) ) ;
#983 = VERTEX_POINT ( 'NONE', #573 ) ;
#984 = CARTESIAN_POINT ( 'NONE',  ( 9.500000000000003553, 10.50000000000000000, -30.35000000000001208 ) ) ;
#985 = EDGE_CURVE ( 'NONE', #964, #617, #321, .T. ) ;
#986 = CARTESIAN_POINT ( 'NONE',  ( 18.50000000000000355, 7.000000000000002665, -35.00000000000000711 ) ) ;
#987 = LINE ( 'NONE', #313, #638 ) ;
#988 = ORIENTED_EDGE ( 'NONE', *, *, #99, .T. ) ;
#989 = DIRECTION ( 'NONE',  ( 0.000000000000000000, 0.000000000000000000, 1.000000000000000000 ) ) ;
#990 = VECTOR ( 'NONE', #446, 1000.000000000000000 ) ;
#991 = VECTOR ( 'NONE', #631, 1000.000000000000000 ) ;
#992 = FACE_OUTER_BOUND ( 'NONE', #42, .T. ) ;
#993 = VECTOR ( 'NONE', #162, 1000.000000000000000 ) ;
#994 = CARTESIAN_POINT ( 'NONE',  ( -21.99999999999999289, 10.50000000000000000, -30.50000000000001066 ) ) ;
#995 = VERTEX_POINT ( 'NONE', #153 ) ;
#996 = CARTESIAN_POINT ( 'NONE',  ( 9.500000000000003553, 10.50000000000000000, 33.09999999999999432 ) ) ;
#997 = EDGE_CURVE ( 'NONE', #140, #847, #1001, .T. ) ;
#998 = DIRECTION ( 'NONE',  ( 1.000000000000000000, 0.000000000000000000, 0.000000000000000000 ) ) ;
#999 = ORIENTED_EDGE ( 'NONE', *, *, #398, .T. ) ;
#1000 = ORIENTED_EDGE ( 'NONE', *, *, #539, .T. ) ;
#1001 = LINE ( 'NONE', #1066, #676 ) ;
#1002 = CARTESIAN_POINT ( 'NONE',  ( 15.00000000000000355, 11.50000000000000000, -23.00000000000000355 ) ) ;
#1003 = VERTEX_POINT ( 'NONE', #1071 ) ;
#1004 = FACE_OUTER_BOUND ( 'NONE', #482, .T. ) ;
#1005 = ORIENTED_EDGE ( 'NONE', *, *, #1075, .T. ) ;
#1006 =( LENGTH_UNIT ( ) NAMED_UNIT ( * ) SI_UNIT ( .MILLI., .METRE. ) );
#1007 = VECTOR ( 'NONE', #460, 1000.000000000000000 ) ;
#1008 = VECTOR ( 'NONE', #913, 1000.000000000000000 ) ;
#1009 = CYLINDRICAL_SURFACE ( 'NONE', #873, 1.600000000000000755 ) ;
#1010 = EDGE_LOOP ( 'NONE', ( #1093, #698, #10, #344 ) ) ;
#1011 = VECTOR ( 'NONE', #664, 1000.000000000000000 ) ;
#1012 = DIRECTION ( 'NONE',  ( 0.000000000000000000, 0.000000000000000000, -1.000000000000000000 ) ) ;
#1013 = APPLICATION_CONTEXT ( 'automotive_design' ) ;
#1014 = ORIENTED_EDGE ( 'NONE', *, *, #59, .T. ) ;
#1015 = CARTESIAN_POINT ( 'NONE',  ( -14.99999999999999645, 11.50000000000000000, -23.00000000000000355 ) ) ;
#1016 = DIRECTION ( 'NONE',  ( -0.000000000000000000, 1.000000000000000000, -0.000000000000000000 ) ) ;
#1017 = VERTEX_POINT ( 'NONE', #489 ) ;
#1018 = DIRECTION ( 'NONE',  ( -1.000000000000000000, 0.000000000000000000, 0.000000000000000000 ) ) ;
#1019 = EDGE_LOOP ( 'NONE', ( #396, #972 ) ) ;
#1020 = EDGE_CURVE ( 'NONE', #893, #358, #511, .T. ) ;
#1021 = FACE_OUTER_BOUND ( 'NONE', #837, .T. ) ;
#1022 = ORIENTED_EDGE ( 'NONE', *, *, #152, .F. ) ;
#1023 = CARTESIAN_POINT ( 'NONE',  ( -9.499999999999992895, 10.50000000000000000, -27.15000000000000924 ) ) ;
#1024 = VECTOR ( 'NONE', #32, 1000.000000000000000 ) ;
#1025 = EDGE_CURVE ( 'NONE', #297, #278, #545, .T. ) ;
#1026 = DIRECTION ( 'NONE',  ( 1.000000000000000000, 0.000000000000000000, 0.000000000000000000 ) ) ;
#1027 = VERTEX_POINT ( 'NONE', #146 ) ;
#1028 = VECTOR ( 'NONE', #894, 1000.000000000000000 ) ;
#1029 = EDGE_CURVE ( 'NONE', #466, #806, #1076, .T. ) ;
#1030 = FACE_BOUND ( 'NONE', #922, .T. ) ;
#1031 = CIRCLE ( 'NONE', #585, 1.599999999999997202 ) ;
#1032 = ORIENTED_EDGE ( 'NONE', *, *, #757, .F. ) ;
#1033 = DIRECTION ( 'NONE',  ( 0.000000000000000000, 0.000000000000000000, 1.000000000000000000 ) ) ;
#1034 = CARTESIAN_POINT ( 'NONE',  ( 22.00000000000000355, 10.50000000000000178, -30.50000000000001066 ) ) ;
#1035 = ORIENTED_EDGE ( 'NONE', *, *, #354, .F. ) ;
#1036 = CARTESIAN_POINT ( 'NONE',  ( -14.99999999999999289, 3.500000000000000444, -30.50000000000001066 ) ) ;
#1037 = ORIENTED_EDGE ( 'NONE', *, *, #668, .F. ) ;
#1038 = DIRECTION ( 'NONE',  ( 0.000000000000000000, 0.000000000000000000, 1.000000000000000000 ) ) ;
#1039 = ORIENTED_EDGE ( 'NONE', *, *, #387, .F. ) ;
#1040 = CYLINDRICAL_SURFACE ( 'NONE', #693, 1.599999999999997202 ) ;
#1041 = ORIENTED_EDGE ( 'NONE', *, *, #592, .T. ) ;
#1042 = EDGE_CURVE ( 'NONE', #447, #853, #1094, .T. ) ;
#1043 = VERTEX_POINT ( 'NONE', #88 ) ;
#1044 = LINE ( 'NONE', #376, #959 ) ;
#1045 = LINE ( 'NONE', #715, #330 ) ;
#1046 = ORIENTED_EDGE ( 'NONE', *, *, #569, .F. ) ;
#1047 = VECTOR ( 'NONE', #591, 1000.000000000000000 ) ;
#1048 = DIRECTION ( 'NONE',  ( 0.000000000000000000, -1.000000000000000000, 0.000000000000000000 ) ) ;
#1049 = CARTESIAN_POINT ( 'NONE',  ( -14.99999999999999289, 0.000000000000000000, 34.99999999999999289 ) ) ;
#1050 = ORIENTED_EDGE ( 'NONE', *, *, #84, .T. ) ;
#1051 = CARTESIAN_POINT ( 'NONE',  ( -14.99999999999999289, 3.500000000000000444, -30.50000000000001066 ) ) ;
#1052 = CARTESIAN_POINT ( 'NONE',  ( 9.500000000000003553, 0.000000000000000000, -30.35000000000001208 ) ) ;
#1053 = EDGE_CURVE ( 'NONE', #577, #1003, #8, .T. ) ;
#1054 = FACE_OUTER_BOUND ( 'NONE', #130, .T. ) ;
#1055 = ORIENTED_EDGE ( 'NONE', *, *, #44, .F. ) ;
#1056 = SURFACE_STYLE_USAGE ( .BOTH. , #43 ) ;
#1057 = ORIENTED_EDGE ( 'NONE', *, *, #833, .F. ) ;
#1058 = LINE ( 'NONE', #639, #1028 ) ;
#1059 = ADVANCED_FACE ( 'NONE', ( #431 ), #341, .F. ) ;
#1060 = CARTESIAN_POINT ( 'NONE',  ( 9.500000000000003553, 0.000000000000000000, 29.89999999999999147 ) ) ;
#1061 = ORIENTED_EDGE ( 'NONE', *, *, #367, .T. ) ;
#1062 = AXIS2_PLACEMENT_3D ( 'NONE', #379, #965, #1064 ) ;
#1063 = EDGE_CURVE ( 'NONE', #624, #466, #930, .T. ) ;
#1064 = DIRECTION ( 'NONE',  ( -1.000000000000000000, 0.000000000000000000, -0.000000000000000000 ) ) ;
#1065 = AXIS2_PLACEMENT_3D ( 'NONE', #690, #598, #9 ) ;
#1066 = CARTESIAN_POINT ( 'NONE',  ( 15.00000000000000355, 10.50000000000000000, 34.99999999999999289 ) ) ;
#1067 = LINE ( 'NONE', #1049, #56 ) ;
#1068 = VERTEX_POINT ( 'NONE', #605 ) ;
#1069 = DIRECTION ( 'NONE',  ( 0.000000000000000000, -1.000000000000000000, 0.000000000000000000 ) ) ;
#1070 = EDGE_CURVE ( 'NONE', #80, #427, #769, .T. ) ;
#1071 = CARTESIAN_POINT ( 'NONE',  ( -9.499999999999991118, 10.50000000000000000, 29.89999999999999503 ) ) ;
#1072 = DIRECTION ( 'NONE',  ( -1.000000000000000000, 0.000000000000000000, 0.000000000000000000 ) ) ;
#1073 = EDGE_LOOP ( 'NONE', ( #661, #356, #181, #472 ) ) ;
#1074 = DIRECTION ( 'NONE',  ( 0.000000000000000000, 0.000000000000000000, 1.000000000000000000 ) ) ;
#1075 = EDGE_CURVE ( 'NONE', #691, #107, #348, .T. ) ;
#1076 = LINE ( 'NONE', #337, #838 ) ;
#1077 = DIRECTION ( 'NONE',  ( 0.000000000000000000, 0.000000000000000000, 1.000000000000000000 ) ) ;
#1078 = VERTEX_POINT ( 'NONE', #841 ) ;
#1079 = DIRECTION ( 'NONE',  ( 0.000000000000000000, 0.000000000000000000, 1.000000000000000000 ) ) ;
#1080 = AXIS2_PLACEMENT_3D ( 'NONE', #384, #807, #897 ) ;
#1081 = VECTOR ( 'NONE', #5, 1000.000000000000000 ) ;
#1082 = EDGE_CURVE ( 'NONE', #427, #80, #351, .T. ) ;
#1083 = CIRCLE ( 'NONE', #835, 1.600000000000000755 ) ;
#1084 = VECTOR ( 'NONE', #836, 1000.000000000000000 ) ;
#1085 = DIRECTION ( 'NONE',  ( -1.000000000000000000, 0.000000000000000000, 0.000000000000000000 ) ) ;
#1086 = LINE ( 'NONE', #323, #786 ) ;
#1087 = EDGE_LOOP ( 'NONE', ( #136, #1032, #127, #637 ) ) ;
#1088 = ORIENTED_EDGE ( 'NONE', *, *, #387, .T. ) ;
#1089 = CARTESIAN_POINT ( 'NONE',  ( -9.499999999999991118, 10.50000000000000000, 31.49999999999999289 ) ) ;
#1090 = EDGE_CURVE ( 'NONE', #25, #401, #494, .T. ) ;
#1091 = DIRECTION ( 'NONE',  ( 0.000000000000000000, -1.000000000000000000, 0.000000000000000000 ) ) ;
#1092 = ORIENTED_EDGE ( 'NONE', *, *, #767, .F. ) ;
#1093 = ORIENTED_EDGE ( 'NONE', *, *, #350, .T. ) ;
#1094 = LINE ( 'NONE', #100, #39 ) ;
#1095 = DIRECTION ( 'NONE',  ( -0.000000000000000000, 1.000000000000000000, -0.000000000000000000 ) ) ;
#1096 = ORIENTED_EDGE ( 'NONE', *, *, #468, .T. ) ;
#1097 =( GEOMETRIC_REPRESENTATION_CONTEXT ( 3 ) GLOBAL_UNCERTAINTY_ASSIGNED_CONTEXT ( ( #363 ) ) GLOBAL_UNIT_ASSIGNED_CONTEXT ( ( #131, #710, #969 ) ) REPRESENTATION_CONTEXT ( 'NONE', 'WORKASPACE' ) );
ENDSEC;
END-ISO-10303-21;
