ISO-10303-21;
HEADER;
FILE_DESCRIPTION (( 'STEP AP214' ),
    '1' );
FILE_NAME ('Gripper link 1.STEP',
    '2026-08-27T22:10:01',
    ( '' ),
    ( '' ),
    'SwSTEP 2.0',
    'SolidWorks 2026',
    '' );
FILE_SCHEMA (( 'AUTOMOTIVE_DESIGN' ));
ENDSEC;

DATA;
#1 = ORIENTED_EDGE ( 'NONE', *, *, #169, .T. ) ;
#2 = VERTEX_POINT ( 'NONE', #180 ) ;
#3 = DIRECTION ( 'NONE',  ( 0.000000000000000000, 1.000000000000000000, 0.000000000000000000 ) ) ;
#4 = AXIS2_PLACEMENT_3D ( 'NONE', #192, #246, #60 ) ;
#5 = DIRECTION ( 'NONE',  ( 0.000000000000000000, -0.000000000000000000, 1.000000000000000000 ) ) ;
#6 = EDGE_CURVE ( 'NONE', #315, #148, #50, .T. ) ;
#7 = CARTESIAN_POINT ( 'NONE',  ( -27.00000000000000000, 3.500000000000000000, 0.000000000000000000 ) ) ;
#8 = DIRECTION ( 'NONE',  ( 0.000000000000000000, 1.000000000000000000, 0.000000000000000000 ) ) ;
#9 = CARTESIAN_POINT ( 'NONE',  ( 0.000000000000000000, 3.500000000000000000, 3.600000000000000089 ) ) ;
#10 = DIRECTION ( 'NONE',  ( 0.000000000000000000, 0.000000000000000000, -1.000000000000000000 ) ) ;
#11 = CARTESIAN_POINT ( 'NONE',  ( 0.000000000000000000, 3.500000000000000000, 0.000000000000000000 ) ) ;
#12 = VERTEX_POINT ( 'NONE', #132 ) ;
#13 = LINE ( 'NONE', #225, #235 ) ;
#14 = ADVANCED_FACE ( 'NONE', ( #76 ), #260, .F. ) ;
#15 = VERTEX_POINT ( 'NONE', #183 ) ;
#16 = CYLINDRICAL_SURFACE ( 'NONE', #85, 1.600000000000001865 ) ;
#17 = CARTESIAN_POINT ( 'NONE',  ( -27.00000000000000000, 0.000000000000000000, 1.600000000000001865 ) ) ;
#18 = VERTEX_POINT ( 'NONE', #283 ) ;
#19 = ORIENTED_EDGE ( 'NONE', *, *, #131, .F. ) ;
#20 = PRODUCT_RELATED_PRODUCT_CATEGORY ( 'part', '', ( #304 ) ) ;
#21 = ORIENTED_EDGE ( 'NONE', *, *, #284, .T. ) ;
#22 = DIRECTION ( 'NONE',  ( -0.000000000000000000, -1.000000000000000000, -0.000000000000000000 ) ) ;
#23 = AXIS2_PLACEMENT_3D ( 'NONE', #217, #319, #164 ) ;
#24 = PRESENTATION_LAYER_ASSIGNMENT (  '', '', ( #80 ) ) ;
#25 = CARTESIAN_POINT ( 'NONE',  ( 0.000000000000000000, 3.500000000000000000, 3.600000000000000089 ) ) ;
#26 = FACE_OUTER_BOUND ( 'NONE', #316, .T. ) ;
#27 = DIRECTION ( 'NONE',  ( 1.000000000000000000, -0.000000000000000000, -0.000000000000000000 ) ) ;
#28 = AXIS2_PLACEMENT_3D ( 'NONE', #34, #321, #296 ) ;
#29 = EDGE_CURVE ( 'NONE', #148, #278, #286, .T. ) ;
#30 = VECTOR ( 'NONE', #222, 1000.000000000000000 ) ;
#31 = CARTESIAN_POINT ( 'NONE',  ( 0.000000000000000000, 3.500000000000000000, 0.000000000000000000 ) ) ;
#32 = DIRECTION ( 'NONE',  ( 0.000000000000000000, 0.000000000000000000, 1.000000000000000000 ) ) ;
#33 = CARTESIAN_POINT ( 'NONE',  ( -27.00000000000000000, 0.000000000000000000, 0.000000000000000000 ) ) ;
#34 = CARTESIAN_POINT ( 'NONE',  ( -27.00000000000000000, 0.000000000000000000, 0.000000000000000000 ) ) ;
#35 = DIRECTION ( 'NONE',  ( -1.000000000000000000, -0.000000000000000000, -0.000000000000000000 ) ) ;
#36 = ORIENTED_EDGE ( 'NONE', *, *, #59, .T. ) ;
#37 =( LENGTH_UNIT ( ) NAMED_UNIT ( * ) SI_UNIT ( .MILLI., .METRE. ) );
#38 = EDGE_LOOP ( 'NONE', ( #127, #288, #251, #226 ) ) ;
#39 = EDGE_CURVE ( 'NONE', #156, #43, #154, .T. ) ;
#40 = CARTESIAN_POINT ( 'NONE',  ( 0.000000000000000000, 3.500000000000000000, 0.000000000000000000 ) ) ;
#41 = CIRCLE ( 'NONE', #89, 1.600000000000001865 ) ;
#42 = AXIS2_PLACEMENT_3D ( 'NONE', #323, #301, #218 ) ;
#43 = VERTEX_POINT ( 'NONE', #52 ) ;
#44 = FILL_AREA_STYLE_COLOUR ( '', #173 ) ;
#45 = ORIENTED_EDGE ( 'NONE', *, *, #314, .F. ) ;
#46 = CYLINDRICAL_SURFACE ( 'NONE', #311, 1.600000000000000089 ) ;
#47 = ORIENTED_EDGE ( 'NONE', *, *, #255, .F. ) ;
#48 = ADVANCED_BREP_SHAPE_REPRESENTATION ( 'Gripper link 1_Gripper link 1', ( #243, #254 ), #206 ) ;
#49 = FACE_OUTER_BOUND ( 'NONE', #38, .T. ) ;
#50 = LINE ( 'NONE', #157, #57 ) ;
#51 = DIRECTION ( 'NONE',  ( 0.000000000000000000, 0.000000000000000000, 1.000000000000000000 ) ) ;
#52 = CARTESIAN_POINT ( 'NONE',  ( -27.00000000000000000, 3.500000000000000000, -3.600000000000000089 ) ) ;
#53 = CIRCLE ( 'NONE', #263, 3.600000000000000089 ) ;
#54 = ORIENTED_EDGE ( 'NONE', *, *, #314, .T. ) ;
#55 = PLANE ( 'NONE',  #332 ) ;
#56 = CARTESIAN_POINT ( 'NONE',  ( 0.000000000000000000, 3.500000000000000000, 0.000000000000000000 ) ) ;
#57 = VECTOR ( 'NONE', #22, 1000.000000000000000 ) ;
#58 = DIRECTION ( 'NONE',  ( -0.000000000000000000, -1.000000000000000000, -0.000000000000000000 ) ) ;
#59 = EDGE_CURVE ( 'NONE', #331, #281, #130, .T. ) ;
#60 = DIRECTION ( 'NONE',  ( 0.000000000000000000, 0.000000000000000000, 1.000000000000000000 ) ) ;
#61 = DIRECTION ( 'NONE',  ( 0.000000000000000000, 1.000000000000000000, 0.000000000000000000 ) ) ;
#62 = CLOSED_SHELL ( 'NONE', ( #320, #337, #231, #223, #237, #84, #216, #14, #252, #77 ) ) ;
#63 = DIRECTION ( 'NONE',  ( -0.000000000000000000, -1.000000000000000000, -0.000000000000000000 ) ) ;
#64 = ORIENTED_EDGE ( 'NONE', *, *, #293, .T. ) ;
#65 = EDGE_CURVE ( 'NONE', #15, #12, #221, .T. ) ;
#66 = SURFACE_SIDE_STYLE ('',( #305 ) ) ;
#67 = VERTEX_POINT ( 'NONE', #265 ) ;
#68 = LINE ( 'NONE', #277, #122 ) ;
#69 = AXIS2_PLACEMENT_3D ( 'NONE', #336, #205, #309 ) ;
#70 = SURFACE_STYLE_USAGE ( .BOTH. , #66 ) ;
#71 = ORIENTED_EDGE ( 'NONE', *, *, #131, .T. ) ;
#72 = DIRECTION ( 'NONE',  ( -0.000000000000000000, -1.000000000000000000, -0.000000000000000000 ) ) ;
#73 = CARTESIAN_POINT ( 'NONE',  ( -27.00000000000000000, 3.500000000000000000, 0.000000000000000000 ) ) ;
#74 = AXIS2_PLACEMENT_3D ( 'NONE', #7, #159, #117 ) ;
#75 = SHAPE_DEFINITION_REPRESENTATION ( #111, #48 ) ;
#76 = FACE_OUTER_BOUND ( 'NONE', #220, .T. ) ;
#77 = ADVANCED_FACE ( 'NONE', ( #26 ), #136, .F. ) ;
#78 = ORIENTED_EDGE ( 'NONE', *, *, #161, .F. ) ;
#79 = DIRECTION ( 'NONE',  ( -0.000000000000000000, -1.000000000000000000, -0.000000000000000000 ) ) ;
#80 = STYLED_ITEM ( 'NONE', ( #303 ), #243 ) ;
#81 = FACE_BOUND ( 'NONE', #146, .T. ) ;
#82 = CYLINDRICAL_SURFACE ( 'NONE', #333, 3.600000000000000089 ) ;
#83 = DIRECTION ( 'NONE',  ( 0.000000000000000000, 1.000000000000000000, 0.000000000000000000 ) ) ;
#84 = ADVANCED_FACE ( 'NONE', ( #49 ), #152, .F. ) ;
#85 = AXIS2_PLACEMENT_3D ( 'NONE', #126, #145, #227 ) ;
#86 = CARTESIAN_POINT ( 'NONE',  ( 0.000000000000000000, 3.500000000000000000, -3.600000000000000089 ) ) ;
#87 = LINE ( 'NONE', #250, #172 ) ;
#88 = CARTESIAN_POINT ( 'NONE',  ( 0.000000000000000000, 3.500000000000000000, 0.000000000000000000 ) ) ;
#89 = AXIS2_PLACEMENT_3D ( 'NONE', #158, #289, #32 ) ;
#90 = DIRECTION ( 'NONE',  ( 0.000000000000000000, 1.000000000000000000, 0.000000000000000000 ) ) ;
#91 = EDGE_CURVE ( 'NONE', #43, #315, #53, .T. ) ;
#92 = ORIENTED_EDGE ( 'NONE', *, *, #91, .T. ) ;
#93 = APPLICATION_CONTEXT ( 'automotive_design' ) ;
#94 = FACE_OUTER_BOUND ( 'NONE', #103, .T. ) ;
#95 = ORIENTED_EDGE ( 'NONE', *, *, #59, .F. ) ;
#96 = CARTESIAN_POINT ( 'NONE',  ( 0.000000000000000000, 3.500000000000000000, 3.600000000000000089 ) ) ;
#97 = ORIENTED_EDGE ( 'NONE', *, *, #65, .F. ) ;
#98 = CARTESIAN_POINT ( 'NONE',  ( -27.00000000000000000, 3.500000000000000000, 1.600000000000001865 ) ) ;
#99 = VECTOR ( 'NONE', #104, 1000.000000000000000 ) ;
#100 = AXIS2_PLACEMENT_3D ( 'NONE', #31, #241, #5 ) ;
#101 = VERTEX_POINT ( 'NONE', #247 ) ;
#102 = ORIENTED_EDGE ( 'NONE', *, *, #135, .T. ) ;
#103 = EDGE_LOOP ( 'NONE', ( #125, #306, #338, #239 ) ) ;
#104 = DIRECTION ( 'NONE',  ( -1.000000000000000000, -0.000000000000000000, -0.000000000000000000 ) ) ;
#105 = EDGE_CURVE ( 'NONE', #156, #233, #191, .T. ) ;
#106 = EDGE_LOOP ( 'NONE', ( #203, #285 ) ) ;
#107 = DIRECTION ( 'NONE',  ( -1.000000000000000000, 0.000000000000000000, -0.000000000000000000 ) ) ;
#108 = DIRECTION ( 'NONE',  ( 0.000000000000000000, 0.000000000000000000, -1.000000000000000000 ) ) ;
#109 = CIRCLE ( 'NONE', #4, 1.600000000000000089 ) ;
#110 = MECHANICAL_DESIGN_GEOMETRIC_PRESENTATION_REPRESENTATION (  '', ( #80 ), #160 ) ;
#111 = PRODUCT_DEFINITION_SHAPE ( 'NONE', 'NONE',  #242 ) ;
#112 = CARTESIAN_POINT ( 'NONE',  ( 0.000000000000000000, 0.000000000000000000, -3.600000000000000089 ) ) ;
#113 = FACE_BOUND ( 'NONE', #106, .T. ) ;
#114 = PRODUCT_DEFINITION_CONTEXT ( 'detailed design', #93, 'design' ) ;
#115 = DIRECTION ( 'NONE',  ( 0.000000000000000000, 0.000000000000000000, 1.000000000000000000 ) ) ;
#116 = VECTOR ( 'NONE', #274, 1000.000000000000000 ) ;
#117 = DIRECTION ( 'NONE',  ( 0.000000000000000000, 0.000000000000000000, 1.000000000000000000 ) ) ;
#118 = FACE_OUTER_BOUND ( 'NONE', #256, .T. ) ;
#119 = CARTESIAN_POINT ( 'NONE',  ( 0.000000000000000000, 3.500000000000000000, -1.600000000000000089 ) ) ;
#120 = VERTEX_POINT ( 'NONE', #162 ) ;
#121 = AXIS2_PLACEMENT_3D ( 'NONE', #322, #61, #266 ) ;
#122 = VECTOR ( 'NONE', #149, 1000.000000000000000 ) ;
#123 = LINE ( 'NONE', #96, #30 ) ;
#124 = EDGE_LOOP ( 'NONE', ( #151, #36, #167, #45 ) ) ;
#125 = ORIENTED_EDGE ( 'NONE', *, *, #293, .F. ) ;
#126 = CARTESIAN_POINT ( 'NONE',  ( -27.00000000000000000, 3.500000000000000000, 0.000000000000000000 ) ) ;
#127 = ORIENTED_EDGE ( 'NONE', *, *, #255, .T. ) ;
#128 = VECTOR ( 'NONE', #244, 1000.000000000000000 ) ;
#129 = DIRECTION ( 'NONE',  ( 0.000000000000000000, 0.000000000000000000, 1.000000000000000000 ) ) ;
#130 = LINE ( 'NONE', #207, #339 ) ;
#131 = EDGE_CURVE ( 'NONE', #331, #236, #41, .T. ) ;
#132 = CARTESIAN_POINT ( 'NONE',  ( 1.959434878635765230E-16, 0.000000000000000000, 1.600000000000000089 ) ) ;
#133 = EDGE_LOOP ( 'NONE', ( #302, #334, #92, #182 ) ) ;
#134 = CARTESIAN_POINT ( 'NONE',  ( 0.000000000000000000, 0.000000000000000000, 3.600000000000000089 ) ) ;
#135 = EDGE_CURVE ( 'NONE', #120, #67, #109, .T. ) ;
#136 = CYLINDRICAL_SURFACE ( 'NONE', #240, 1.600000000000001865 ) ;
#137 = FACE_BOUND ( 'NONE', #253, .T. ) ;
#138 = CIRCLE ( 'NONE', #179, 1.600000000000000089 ) ;
#139 = DIRECTION ( 'NONE',  ( -0.000000000000000000, -1.000000000000000000, -0.000000000000000000 ) ) ;
#140 = EDGE_CURVE ( 'NONE', #281, #2, #165, .T. ) ;
#141 = DIRECTION ( 'NONE',  ( 0.000000000000000000, 1.000000000000000000, 0.000000000000000000 ) ) ;
#142 = CARTESIAN_POINT ( 'NONE',  ( -27.00000000000000000, 0.000000000000000000, 3.600000000000000089 ) ) ;
#143 = VECTOR ( 'NONE', #27, 1000.000000000000000 ) ;
#144 = CARTESIAN_POINT ( 'NONE',  ( -27.00000000000000000, 3.500000000000000000, 0.000000000000000000 ) ) ;
#145 = DIRECTION ( 'NONE',  ( -0.000000000000000000, -1.000000000000000000, -0.000000000000000000 ) ) ;
#146 = EDGE_LOOP ( 'NONE', ( #224, #19 ) ) ;
#147 = EDGE_CURVE ( 'NONE', #236, #331, #201, .T. ) ;
#148 = VERTEX_POINT ( 'NONE', #142 ) ;
#149 = DIRECTION ( 'NONE',  ( -0.000000000000000000, -1.000000000000000000, -0.000000000000000000 ) ) ;
#150 = CYLINDRICAL_SURFACE ( 'NONE', #282, 1.600000000000000089 ) ;
#151 = ORIENTED_EDGE ( 'NONE', *, *, #147, .T. ) ;
#152 = PLANE ( 'NONE',  #69 ) ;
#153 = EDGE_CURVE ( 'NONE', #43, #101, #87, .T. ) ;
#154 = LINE ( 'NONE', #230, #99 ) ;
#155 = ORIENTED_EDGE ( 'NONE', *, *, #29, .T. ) ;
#156 = VERTEX_POINT ( 'NONE', #86 ) ;
#157 = CARTESIAN_POINT ( 'NONE',  ( -27.00000000000000000, 3.500000000000000000, 3.600000000000000089 ) ) ;
#158 = CARTESIAN_POINT ( 'NONE',  ( -27.00000000000000000, 3.500000000000000000, 0.000000000000000000 ) ) ;
#159 = DIRECTION ( 'NONE',  ( 0.000000000000000000, 1.000000000000000000, 0.000000000000000000 ) ) ;
#160 =( GEOMETRIC_REPRESENTATION_CONTEXT ( 3 ) GLOBAL_UNCERTAINTY_ASSIGNED_CONTEXT ( ( #295 ) ) GLOBAL_UNIT_ASSIGNED_CONTEXT ( ( #202, #171, #324 ) ) REPRESENTATION_CONTEXT ( 'NONE', 'WORKASPACE' ) );
#161 = EDGE_CURVE ( 'NONE', #278, #233, #267, .T. ) ;
#162 = CARTESIAN_POINT ( 'NONE',  ( 0.000000000000000000, 3.500000000000000000, -1.600000000000000089 ) ) ;
#163 = DIRECTION ( 'NONE',  ( 0.000000000000000000, 0.000000000000000000, 1.000000000000000000 ) ) ;
#164 = DIRECTION ( 'NONE',  ( 0.000000000000000000, 0.000000000000000000, 1.000000000000000000 ) ) ;
#165 = CIRCLE ( 'NONE', #28, 1.600000000000001865 ) ;
#166 = FILL_AREA_STYLE ('',( #44 ) ) ;
#167 = ORIENTED_EDGE ( 'NONE', *, *, #169, .F. ) ;
#168 = CARTESIAN_POINT ( 'NONE',  ( -27.00000000000000000, 3.500000000000000000, 3.600000000000000089 ) ) ;
#169 = EDGE_CURVE ( 'NONE', #2, #281, #234, .T. ) ;
#170 = ORIENTED_EDGE ( 'NONE', *, *, #190, .T. ) ;
#171 =( NAMED_UNIT ( * ) PLANE_ANGLE_UNIT ( ) SI_UNIT ( $, .RADIAN. ) );
#172 = VECTOR ( 'NONE', #58, 1000.000000000000000 ) ;
#173 = COLOUR_RGB ( '',0.7921568627450980005, 0.8196078431372548767, 0.9333333333333333481 ) ;
#174 = CARTESIAN_POINT ( 'NONE',  ( 1.959434878635765230E-16, 3.500000000000000000, 1.600000000000000089 ) ) ;
#175 = EDGE_LOOP ( 'NONE', ( #102, #64, #97, #327 ) ) ;
#176 = CARTESIAN_POINT ( 'NONE',  ( 0.000000000000000000, 0.000000000000000000, 3.600000000000000089 ) ) ;
#177 = ORIENTED_EDGE ( 'NONE', *, *, #161, .T. ) ;
#178 = DIRECTION ( 'NONE',  ( 0.000000000000000000, 0.000000000000000000, -1.000000000000000000 ) ) ;
#179 = AXIS2_PLACEMENT_3D ( 'NONE', #40, #90, #197 ) ;
#180 = CARTESIAN_POINT ( 'NONE',  ( -27.00000000000000000, 0.000000000000000000, -1.600000000000001865 ) ) ;
#181 = DIRECTION ( 'NONE',  ( 1.000000000000000000, 0.000000000000000000, 0.000000000000000000 ) ) ;
#182 = ORIENTED_EDGE ( 'NONE', *, *, #199, .T. ) ;
#183 = CARTESIAN_POINT ( 'NONE',  ( 0.000000000000000000, 0.000000000000000000, -1.600000000000000089 ) ) ;
#184 = EDGE_LOOP ( 'NONE', ( #170, #238, #262, #198 ) ) ;
#185 = PLANE ( 'NONE',  #100 ) ;
#186 = FACE_OUTER_BOUND ( 'NONE', #184, .T. ) ;
#187 = EDGE_CURVE ( 'NONE', #18, #156, #287, .T. ) ;
#188 = DIRECTION ( 'NONE',  ( -0.000000000000000000, -1.000000000000000000, -0.000000000000000000 ) ) ;
#189 = CIRCLE ( 'NONE', #42, 1.600000000000000089 ) ;
#190 = EDGE_CURVE ( 'NONE', #101, #148, #248, .T. ) ;
#191 = LINE ( 'NONE', #215, #128 ) ;
#192 = CARTESIAN_POINT ( 'NONE',  ( 0.000000000000000000, 3.500000000000000000, 0.000000000000000000 ) ) ;
#193 = DIRECTION ( 'NONE',  ( -0.000000000000000000, -1.000000000000000000, -0.000000000000000000 ) ) ;
#194 = VECTOR ( 'NONE', #259, 1000.000000000000000 ) ;
#195 = FACE_OUTER_BOUND ( 'NONE', #124, .T. ) ;
#196 = EDGE_LOOP ( 'NONE', ( #177, #308, #204, #21 ) ) ;
#197 = DIRECTION ( 'NONE',  ( 0.000000000000000000, 0.000000000000000000, 1.000000000000000000 ) ) ;
#198 = ORIENTED_EDGE ( 'NONE', *, *, #153, .T. ) ;
#199 = EDGE_CURVE ( 'NONE', #315, #18, #271, .T. ) ;
#200 = LINE ( 'NONE', #174, #269 ) ;
#201 = CIRCLE ( 'NONE', #74, 1.600000000000001865 ) ;
#202 =( LENGTH_UNIT ( ) NAMED_UNIT ( * ) SI_UNIT ( .MILLI., .METRE. ) );
#203 = ORIENTED_EDGE ( 'NONE', *, *, #135, .F. ) ;
#204 = ORIENTED_EDGE ( 'NONE', *, *, #187, .F. ) ;
#205 = DIRECTION ( 'NONE',  ( 0.000000000000000000, 0.000000000000000000, 1.000000000000000000 ) ) ;
#206 =( GEOMETRIC_REPRESENTATION_CONTEXT ( 3 ) GLOBAL_UNCERTAINTY_ASSIGNED_CONTEXT ( ( #245 ) ) GLOBAL_UNIT_ASSIGNED_CONTEXT ( ( #37, #335, #307 ) ) REPRESENTATION_CONTEXT ( 'NONE', 'WORKASPACE' ) );
#207 = CARTESIAN_POINT ( 'NONE',  ( -27.00000000000000000, 3.500000000000000000, 1.600000000000001865 ) ) ;
#208 = APPLICATION_PROTOCOL_DEFINITION ( 'draft international standard', 'automotive_design', 1998, #326 ) ;
#209 = EDGE_LOOP ( 'NONE', ( #1, #229 ) ) ;
#210 = ORIENTED_EDGE ( 'NONE', *, *, #190, .F. ) ;
#211 = CARTESIAN_POINT ( 'NONE',  ( -27.00000000000000000, 3.500000000000000000, 0.000000000000000000 ) ) ;
#212 = AXIS2_PLACEMENT_3D ( 'NONE', #144, #188, #10 ) ;
#213 = CARTESIAN_POINT ( 'NONE',  ( -27.00000000000000000, 3.500000000000000000, -1.600000000000001865 ) ) ;
#214 = FACE_OUTER_BOUND ( 'NONE', #133, .T. ) ;
#215 = CARTESIAN_POINT ( 'NONE',  ( 0.000000000000000000, 3.500000000000000000, -3.600000000000000089 ) ) ;
#216 = ADVANCED_FACE ( 'NONE', ( #186 ), #273, .T. ) ;
#217 = CARTESIAN_POINT ( 'NONE',  ( -27.00000000000000000, 0.000000000000000000, 0.000000000000000000 ) ) ;
#218 = DIRECTION ( 'NONE',  ( 0.000000000000000000, 0.000000000000000000, 1.000000000000000000 ) ) ;
#219 = DIRECTION ( 'NONE',  ( 0.000000000000000000, 0.000000000000000000, -1.000000000000000000 ) ) ;
#220 = EDGE_LOOP ( 'NONE', ( #155, #329, #258, #264 ) ) ;
#221 = CIRCLE ( 'NONE', #325, 1.600000000000000089 ) ;
#222 = DIRECTION ( 'NONE',  ( -0.000000000000000000, -1.000000000000000000, -0.000000000000000000 ) ) ;
#223 = ADVANCED_FACE ( 'NONE', ( #118, #137, #317 ), #55, .F. ) ;
#224 = ORIENTED_EDGE ( 'NONE', *, *, #147, .F. ) ;
#225 = CARTESIAN_POINT ( 'NONE',  ( -27.00000000000000000, 0.000000000000000000, -3.600000000000000089 ) ) ;
#226 = ORIENTED_EDGE ( 'NONE', *, *, #105, .T. ) ;
#227 = DIRECTION ( 'NONE',  ( 0.000000000000000000, 0.000000000000000000, -1.000000000000000000 ) ) ;
#228 = ORIENTED_EDGE ( 'NONE', *, *, #140, .F. ) ;
#229 = ORIENTED_EDGE ( 'NONE', *, *, #140, .T. ) ;
#230 = CARTESIAN_POINT ( 'NONE',  ( -27.00000000000000000, 3.500000000000000000, -3.600000000000000089 ) ) ;
#231 = ADVANCED_FACE ( 'NONE', ( #113, #214, #81 ), #185, .T. ) ;
#232 = PRODUCT_CONTEXT ( 'NONE', #326, 'mechanical' ) ;
#233 = VERTEX_POINT ( 'NONE', #112 ) ;
#234 = CIRCLE ( 'NONE', #23, 1.600000000000001865 ) ;
#235 = VECTOR ( 'NONE', #35, 1000.000000000000000 ) ;
#236 = VERTEX_POINT ( 'NONE', #213 ) ;
#237 = ADVANCED_FACE ( 'NONE', ( #318 ), #82, .T. ) ;
#238 = ORIENTED_EDGE ( 'NONE', *, *, #6, .F. ) ;
#239 = ORIENTED_EDGE ( 'NONE', *, *, #310, .F. ) ;
#240 = AXIS2_PLACEMENT_3D ( 'NONE', #211, #72, #178 ) ;
#241 = DIRECTION ( 'NONE',  ( 0.000000000000000000, 1.000000000000000000, 0.000000000000000000 ) ) ;
#242 = PRODUCT_DEFINITION ( 'General', '', #292, #114 ) ;
#243 = MANIFOLD_SOLID_BREP ( 'Boss-Extrude1', #62 ) ;
#244 = DIRECTION ( 'NONE',  ( -0.000000000000000000, -1.000000000000000000, -0.000000000000000000 ) ) ;
#245 = UNCERTAINTY_MEASURE_WITH_UNIT (LENGTH_MEASURE( 1.000000000000000082E-05 ), #37, 'distance_accuracy_value', 'NONE');
#246 = DIRECTION ( 'NONE',  ( 0.000000000000000000, 1.000000000000000000, 0.000000000000000000 ) ) ;
#247 = CARTESIAN_POINT ( 'NONE',  ( -27.00000000000000000, 0.000000000000000000, -3.600000000000000089 ) ) ;
#248 = CIRCLE ( 'NONE', #276, 3.600000000000000089 ) ;
#249 = AXIS2_PLACEMENT_3D ( 'NONE', #294, #141, #163 ) ;
#250 = CARTESIAN_POINT ( 'NONE',  ( -27.00000000000000000, 3.500000000000000000, -3.600000000000000089 ) ) ;
#251 = ORIENTED_EDGE ( 'NONE', *, *, #39, .F. ) ;
#252 = ADVANCED_FACE ( 'NONE', ( #94 ), #150, .F. ) ;
#253 = EDGE_LOOP ( 'NONE', ( #275, #280 ) ) ;
#254 = AXIS2_PLACEMENT_3D ( 'NONE', #299, #129, #181 ) ;
#255 = EDGE_CURVE ( 'NONE', #233, #101, #13, .T. ) ;
#256 = EDGE_LOOP ( 'NONE', ( #78, #300, #210, #47 ) ) ;
#257 = LINE ( 'NONE', #119, #116 ) ;
#258 = ORIENTED_EDGE ( 'NONE', *, *, #199, .F. ) ;
#259 = DIRECTION ( 'NONE',  ( 1.000000000000000000, -0.000000000000000000, -0.000000000000000000 ) ) ;
#260 = PLANE ( 'NONE',  #298 ) ;
#261 = EDGE_CURVE ( 'NONE', #120, #15, #257, .T. ) ;
#262 = ORIENTED_EDGE ( 'NONE', *, *, #91, .F. ) ;
#263 = AXIS2_PLACEMENT_3D ( 'NONE', #73, #8, #272 ) ;
#264 = ORIENTED_EDGE ( 'NONE', *, *, #6, .T. ) ;
#265 = CARTESIAN_POINT ( 'NONE',  ( 1.959434878635765230E-16, 3.500000000000000000, 1.600000000000000089 ) ) ;
#266 = DIRECTION ( 'NONE',  ( 0.000000000000000000, 0.000000000000000000, 1.000000000000000000 ) ) ;
#267 = CIRCLE ( 'NONE', #121, 3.600000000000000089 ) ;
#268 = DIRECTION ( 'NONE',  ( 0.000000000000000000, 1.000000000000000000, 0.000000000000000000 ) ) ;
#269 = VECTOR ( 'NONE', #63, 1000.000000000000000 ) ;
#270 = EDGE_CURVE ( 'NONE', #67, #120, #138, .T. ) ;
#271 = LINE ( 'NONE', #9, #143 ) ;
#272 = DIRECTION ( 'NONE',  ( 0.000000000000000000, 0.000000000000000000, 1.000000000000000000 ) ) ;
#273 = CYLINDRICAL_SURFACE ( 'NONE', #212, 3.600000000000000089 ) ;
#274 = DIRECTION ( 'NONE',  ( -0.000000000000000000, -1.000000000000000000, -0.000000000000000000 ) ) ;
#275 = ORIENTED_EDGE ( 'NONE', *, *, #65, .T. ) ;
#276 = AXIS2_PLACEMENT_3D ( 'NONE', #33, #83, #115 ) ;
#277 = CARTESIAN_POINT ( 'NONE',  ( -27.00000000000000000, 3.500000000000000000, -1.600000000000001865 ) ) ;
#278 = VERTEX_POINT ( 'NONE', #176 ) ;
#279 = FACE_OUTER_BOUND ( 'NONE', #175, .T. ) ;
#280 = ORIENTED_EDGE ( 'NONE', *, *, #310, .T. ) ;
#281 = VERTEX_POINT ( 'NONE', #17 ) ;
#282 = AXIS2_PLACEMENT_3D ( 'NONE', #11, #330, #328 ) ;
#283 = CARTESIAN_POINT ( 'NONE',  ( 0.000000000000000000, 3.500000000000000000, 3.600000000000000089 ) ) ;
#284 = EDGE_CURVE ( 'NONE', #18, #278, #123, .T. ) ;
#285 = ORIENTED_EDGE ( 'NONE', *, *, #270, .F. ) ;
#286 = LINE ( 'NONE', #134, #194 ) ;
#287 = CIRCLE ( 'NONE', #249, 3.600000000000000089 ) ;
#288 = ORIENTED_EDGE ( 'NONE', *, *, #153, .F. ) ;
#289 = DIRECTION ( 'NONE',  ( 0.000000000000000000, 1.000000000000000000, 0.000000000000000000 ) ) ;
#290 = CARTESIAN_POINT ( 'NONE',  ( 0.000000000000000000, 0.000000000000000000, 0.000000000000000000 ) ) ;
#291 = DIRECTION ( 'NONE',  ( 0.000000000000000000, -0.000000000000000000, 1.000000000000000000 ) ) ;
#292 = PRODUCT_DEFINITION_FORMATION_WITH_SPECIFIED_SOURCE ( 'Symmetric', '', #304, .NOT_KNOWN. ) ;
#293 = EDGE_CURVE ( 'NONE', #67, #12, #200, .T. ) ;
#294 = CARTESIAN_POINT ( 'NONE',  ( 0.000000000000000000, 3.500000000000000000, 0.000000000000000000 ) ) ;
#295 = UNCERTAINTY_MEASURE_WITH_UNIT (LENGTH_MEASURE( 1.000000000000000082E-05 ), #202, 'distance_accuracy_value', 'NONE');
#296 = DIRECTION ( 'NONE',  ( 0.000000000000000000, 0.000000000000000000, 1.000000000000000000 ) ) ;
#297 = DIRECTION ( 'NONE',  ( 0.000000000000000000, 0.000000000000000000, -1.000000000000000000 ) ) ;
#298 = AXIS2_PLACEMENT_3D ( 'NONE', #25, #108, #107 ) ;
#299 = CARTESIAN_POINT ( 'NONE',  ( 0.000000000000000000, 0.000000000000000000, 0.000000000000000000 ) ) ;
#300 = ORIENTED_EDGE ( 'NONE', *, *, #29, .F. ) ;
#301 = DIRECTION ( 'NONE',  ( 0.000000000000000000, 1.000000000000000000, 0.000000000000000000 ) ) ;
#302 = ORIENTED_EDGE ( 'NONE', *, *, #187, .T. ) ;
#303 = PRESENTATION_STYLE_ASSIGNMENT (( #70 ) ) ;
#304 = PRODUCT ( 'Gripper link 1_Gripper link 1', 'Gripper link 1_Gripper link 1', '', ( #232 ) ) ;
#305 = SURFACE_STYLE_FILL_AREA ( #166 ) ;
#306 = ORIENTED_EDGE ( 'NONE', *, *, #270, .T. ) ;
#307 =( NAMED_UNIT ( * ) SI_UNIT ( $, .STERADIAN. ) SOLID_ANGLE_UNIT ( ) );
#308 = ORIENTED_EDGE ( 'NONE', *, *, #105, .F. ) ;
#309 = DIRECTION ( 'NONE',  ( 1.000000000000000000, 0.000000000000000000, -0.000000000000000000 ) ) ;
#310 = EDGE_CURVE ( 'NONE', #12, #15, #189, .T. ) ;
#311 = AXIS2_PLACEMENT_3D ( 'NONE', #88, #193, #297 ) ;
#312 = APPLICATION_PROTOCOL_DEFINITION ( 'draft international standard', 'automotive_design', 1998, #93 ) ;
#313 = CARTESIAN_POINT ( 'NONE',  ( 0.000000000000000000, 0.000000000000000000, 0.000000000000000000 ) ) ;
#314 = EDGE_CURVE ( 'NONE', #236, #2, #68, .T. ) ;
#315 = VERTEX_POINT ( 'NONE', #168 ) ;
#316 = EDGE_LOOP ( 'NONE', ( #95, #71, #54, #228 ) ) ;
#317 = FACE_BOUND ( 'NONE', #209, .T. ) ;
#318 = FACE_OUTER_BOUND ( 'NONE', #196, .T. ) ;
#319 = DIRECTION ( 'NONE',  ( 0.000000000000000000, 1.000000000000000000, 0.000000000000000000 ) ) ;
#320 = ADVANCED_FACE ( 'NONE', ( #195 ), #16, .F. ) ;
#321 = DIRECTION ( 'NONE',  ( 0.000000000000000000, 1.000000000000000000, 0.000000000000000000 ) ) ;
#322 = CARTESIAN_POINT ( 'NONE',  ( 0.000000000000000000, 0.000000000000000000, 0.000000000000000000 ) ) ;
#323 = CARTESIAN_POINT ( 'NONE',  ( 0.000000000000000000, 0.000000000000000000, 0.000000000000000000 ) ) ;
#324 =( NAMED_UNIT ( * ) SI_UNIT ( $, .STERADIAN. ) SOLID_ANGLE_UNIT ( ) );
#325 = AXIS2_PLACEMENT_3D ( 'NONE', #313, #3, #51 ) ;
#326 = APPLICATION_CONTEXT ( 'automotive_design' ) ;
#327 = ORIENTED_EDGE ( 'NONE', *, *, #261, .F. ) ;
#328 = DIRECTION ( 'NONE',  ( 0.000000000000000000, 0.000000000000000000, -1.000000000000000000 ) ) ;
#329 = ORIENTED_EDGE ( 'NONE', *, *, #284, .F. ) ;
#330 = DIRECTION ( 'NONE',  ( -0.000000000000000000, -1.000000000000000000, -0.000000000000000000 ) ) ;
#331 = VERTEX_POINT ( 'NONE', #98 ) ;
#332 = AXIS2_PLACEMENT_3D ( 'NONE', #290, #268, #291 ) ;
#333 = AXIS2_PLACEMENT_3D ( 'NONE', #56, #139, #219 ) ;
#334 = ORIENTED_EDGE ( 'NONE', *, *, #39, .T. ) ;
#335 =( NAMED_UNIT ( * ) PLANE_ANGLE_UNIT ( ) SI_UNIT ( $, .RADIAN. ) );
#336 = CARTESIAN_POINT ( 'NONE',  ( -27.00000000000000000, 3.500000000000000000, -3.600000000000000089 ) ) ;
#337 = ADVANCED_FACE ( 'NONE', ( #279 ), #46, .F. ) ;
#338 = ORIENTED_EDGE ( 'NONE', *, *, #261, .T. ) ;
#339 = VECTOR ( 'NONE', #79, 1000.000000000000000 ) ;
ENDSEC;
END-ISO-10303-21;
