ISO-10303-21;
HEADER;
FILE_DESCRIPTION (( 'STEP AP214' ),
    '1' );
FILE_NAME ('Gripper link 2.STEP',
    '2026-08-27T22:10:02',
    ( '' ),
    ( '' ),
    'SwSTEP 2.0',
    'SolidWorks 2026',
    '' );
FILE_SCHEMA (( 'AUTOMOTIVE_DESIGN' ));
ENDSEC;

DATA;
#1 = DIRECTION ( 'NONE',  ( -0.7071067811865469066, 0.7071067811865482389, 0.000000000000000000 ) ) ;
#2 = VERTEX_POINT ( 'NONE', #270 ) ;
#3 = CARTESIAN_POINT ( 'NONE',  ( -7.274873734152932592, -7.274873734152918381, 3.600000000000000977 ) ) ;
#4 = ORIENTED_EDGE ( 'NONE', *, *, #92, .T. ) ;
#5 = DIRECTION ( 'NONE',  ( 0.7071067811865465735, -0.7071067811865485719, 0.000000000000000000 ) ) ;
#6 = ORIENTED_EDGE ( 'NONE', *, *, #350, .T. ) ;
#7 = ADVANCED_FACE ( 'NONE', ( #83 ), #229, .T. ) ;
#8 = CIRCLE ( 'NONE', #415, 1.600000000000000755 ) ;
#9 = DIRECTION ( 'NONE',  ( 0.000000000000000000, 1.000000000000000000, 0.000000000000000000 ) ) ;
#10 = DIRECTION ( 'NONE',  ( 0.000000000000000000, 0.000000000000000000, -1.000000000000000000 ) ) ;
#11 = FACE_OUTER_BOUND ( 'NONE', #315, .T. ) ;
#12 = CARTESIAN_POINT ( 'NONE',  ( 0.000000000000000000, 5.000000000000000000, -1.600000000000000089 ) ) ;
#13 = EDGE_LOOP ( 'NONE', ( #98, #172 ) ) ;
#14 = PRODUCT_DEFINITION_CONTEXT ( 'detailed design', #460, 'design' ) ;
#15 = CARTESIAN_POINT ( 'NONE',  ( -27.00000000000000000, 5.000000000000000000, 0.000000000000000000 ) ) ;
#16 = AXIS2_PLACEMENT_3D ( 'NONE', #54, #411, #197 ) ;
#17 = CARTESIAN_POINT ( 'NONE',  ( 0.000000000000000000, 3.499999999999997780, 3.600000000000000977 ) ) ;
#18 = CARTESIAN_POINT ( 'NONE',  ( -27.00000000000000000, 5.000000000000000000, -3.599999999999997868 ) ) ;
#19 = FACE_BOUND ( 'NONE', #13, .T. ) ;
#20 = DIRECTION ( 'NONE',  ( 0.000000000000000000, 0.000000000000000000, -1.000000000000000000 ) ) ;
#21 = AXIS2_PLACEMENT_3D ( 'NONE', #24, #275, #20 ) ;
#22 = DIRECTION ( 'NONE',  ( -1.000000000000000000, -1.639315038878148963E-16, 0.000000000000000000 ) ) ;
#23 = ORIENTED_EDGE ( 'NONE', *, *, #167, .T. ) ;
#24 = CARTESIAN_POINT ( 'NONE',  ( 0.000000000000000000, 3.499999999999997780, 0.000000000000000000 ) ) ;
#25 = VERTEX_POINT ( 'NONE', #418 ) ;
#26 = LINE ( 'NONE', #200, #312 ) ;
#27 = PRODUCT ( 'Gripper link 2_Gripper link 2', 'Gripper link 2_Gripper link 2', '', ( #218 ) ) ;
#28 = EDGE_CURVE ( 'NONE', #120, #471, #375, .T. ) ;
#29 = LINE ( 'NONE', #69, #143 ) ;
#30 = VERTEX_POINT ( 'NONE', #380 ) ;
#31 = APPLICATION_PROTOCOL_DEFINITION ( 'draft international standard', 'automotive_design', 1998, #460 ) ;
#32 = CARTESIAN_POINT ( 'NONE',  ( 0.000000000000000000, 0.000000000000000000, -1.600000000000000089 ) ) ;
#33 = ORIENTED_EDGE ( 'NONE', *, *, #195, .F. ) ;
#34 = CARTESIAN_POINT ( 'NONE',  ( -14.54974746830583676, 0.000000000000000000, -3.600000000000000977 ) ) ;
#35 = ORIENTED_EDGE ( 'NONE', *, *, #306, .F. ) ;
#36 = VECTOR ( 'NONE', #22, 1000.000000000000000 ) ;
#37 = AXIS2_PLACEMENT_3D ( 'NONE', #432, #100, #248 ) ;
#38 = DIRECTION ( 'NONE',  ( -1.000000000000000000, -1.807003620809174385E-16, 0.000000000000000000 ) ) ;
#39 = ORIENTED_EDGE ( 'NONE', *, *, #379, .T. ) ;
#40 = FACE_OUTER_BOUND ( 'NONE', #53, .T. ) ;
#41 = EDGE_LOOP ( 'NONE', ( #425, #361, #369, #324 ) ) ;
#42 = CARTESIAN_POINT ( 'NONE',  ( -27.00000000000000000, 5.000000000000000000, 0.000000000000000000 ) ) ;
#43 = CARTESIAN_POINT ( 'NONE',  ( 0.000000000000000000, 5.000000000000000000, 3.600000000000000977 ) ) ;
#44 = CIRCLE ( 'NONE', #444, 1.600000000000000089 ) ;
#45 = ADVANCED_FACE ( 'NONE', ( #84 ), #152, .F. ) ;
#46 = MECHANICAL_DESIGN_GEOMETRIC_PRESENTATION_REPRESENTATION (  '', ( #249 ), #119 ) ;
#47 = CYLINDRICAL_SURFACE ( 'NONE', #268, 1.600000000000000089 ) ;
#48 = DIRECTION ( 'NONE',  ( -0.000000000000000000, -1.000000000000000000, -0.000000000000000000 ) ) ;
#49 = UNCERTAINTY_MEASURE_WITH_UNIT (LENGTH_MEASURE( 1.000000000000000082E-05 ), #370, 'distance_accuracy_value', 'NONE');
#50 = DIRECTION ( 'NONE',  ( 0.000000000000000000, 0.000000000000000000, -1.000000000000000000 ) ) ;
#51 = DIRECTION ( 'NONE',  ( 0.000000000000000000, -1.000000000000000000, 0.000000000000000000 ) ) ;
#52 = VECTOR ( 'NONE', #232, 1000.000000000000000 ) ;
#53 = EDGE_LOOP ( 'NONE', ( #68, #469, #452, #23 ) ) ;
#54 = CARTESIAN_POINT ( 'NONE',  ( 0.000000000000000000, 0.000000000000000000, 0.000000000000000000 ) ) ;
#55 = CARTESIAN_POINT ( 'NONE',  ( -7.274873734152932592, -7.274873734152918381, -3.600000000000000977 ) ) ;
#56 = CARTESIAN_POINT ( 'NONE',  ( -4.800000000000020250, -4.800000000000006928, -3.600000000000000977 ) ) ;
#57 = DIRECTION ( 'NONE',  ( 1.000000000000000000, 0.000000000000000000, 1.124357808503485988E-16 ) ) ;
#58 = DIRECTION ( 'NONE',  ( -1.000000000000000000, -1.355252715606879803E-16, 0.000000000000000000 ) ) ;
#59 = CLOSED_SHELL ( 'NONE', ( #393, #45, #386, #253, #7, #283, #161, #357, #453, #236, #182, #211, #206, #118 ) ) ;
#60 = PRESENTATION_LAYER_ASSIGNMENT (  '', '', ( #249 ) ) ;
#61 = ORIENTED_EDGE ( 'NONE', *, *, #196, .T. ) ;
#62 = DIRECTION ( 'NONE',  ( -0.000000000000000000, -1.000000000000000000, -0.000000000000000000 ) ) ;
#63 = CARTESIAN_POINT ( 'NONE',  ( -27.00000000000000000, 1.500000000000002220, 0.000000000000000000 ) ) ;
#64 = ORIENTED_EDGE ( 'NONE', *, *, #243, .T. ) ;
#65 = VECTOR ( 'NONE', #371, 1000.000000000000000 ) ;
#66 = SHAPE_DEFINITION_REPRESENTATION ( #277, #376 ) ;
#67 = LINE ( 'NONE', #223, #165 ) ;
#68 = ORIENTED_EDGE ( 'NONE', *, *, #434, .F. ) ;
#69 = CARTESIAN_POINT ( 'NONE',  ( -27.00000000000000000, 5.000000000000000000, 3.599999999999997868 ) ) ;
#70 = ORIENTED_EDGE ( 'NONE', *, *, #434, .T. ) ;
#71 = FACE_OUTER_BOUND ( 'NONE', #217, .T. ) ;
#72 = ORIENTED_EDGE ( 'NONE', *, *, #160, .T. ) ;
#73 = VECTOR ( 'NONE', #154, 1000.000000000000000 ) ;
#74 = FILL_AREA_STYLE ('',( #176 ) ) ;
#75 = ORIENTED_EDGE ( 'NONE', *, *, #82, .F. ) ;
#76 = CARTESIAN_POINT ( 'NONE',  ( -13.10000000000000142, 3.499999999999996891, -3.600000000000000977 ) ) ;
#77 = DIRECTION ( 'NONE',  ( -0.000000000000000000, -1.000000000000000000, -0.000000000000000000 ) ) ;
#78 = EDGE_CURVE ( 'NONE', #372, #215, #359, .T. ) ;
#79 = LINE ( 'NONE', #387, #193 ) ;
#80 = CARTESIAN_POINT ( 'NONE',  ( 0.000000000000000000, 3.499999999999997780, -1.600000000000000089 ) ) ;
#81 = DIRECTION ( 'NONE',  ( -0.000000000000000000, -1.000000000000000000, -0.000000000000000000 ) ) ;
#82 = EDGE_CURVE ( 'NONE', #121, #220, #178, .T. ) ;
#83 = FACE_OUTER_BOUND ( 'NONE', #96, .T. ) ;
#84 = FACE_OUTER_BOUND ( 'NONE', #320, .T. ) ;
#85 = LINE ( 'NONE', #297, #52 ) ;
#86 = AXIS2_PLACEMENT_3D ( 'NONE', #414, #81, #50 ) ;
#87 = PRODUCT_DEFINITION ( 'General', '', #466, #14 ) ;
#88 = DIRECTION ( 'NONE',  ( 0.000000000000000000, 0.000000000000000000, -1.000000000000000000 ) ) ;
#89 = CARTESIAN_POINT ( 'NONE',  ( -27.00000000000000000, 5.000000000000000000, 0.000000000000000000 ) ) ;
#90 = FACE_BOUND ( 'NONE', #106, .T. ) ;
#91 = ORIENTED_EDGE ( 'NONE', *, *, #458, .T. ) ;
#92 = EDGE_CURVE ( 'NONE', #25, #120, #102, .T. ) ;
#93 = CARTESIAN_POINT ( 'NONE',  ( -16.04974746830584209, 1.500000000000004885, 3.600000000000000977 ) ) ;
#94 = DIRECTION ( 'NONE',  ( -1.639315038878148963E-16, 1.000000000000000000, 0.000000000000000000 ) ) ;
#95 = VECTOR ( 'NONE', #111, 1000.000000000000000 ) ;
#96 = EDGE_LOOP ( 'NONE', ( #6, #142, #199, #137 ) ) ;
#97 = DIRECTION ( 'NONE',  ( 0.000000000000000000, 0.000000000000000000, 1.000000000000000000 ) ) ;
#98 = ORIENTED_EDGE ( 'NONE', *, *, #82, .T. ) ;
#99 = ORIENTED_EDGE ( 'NONE', *, *, #404, .F. ) ;
#100 = DIRECTION ( 'NONE',  ( 9.637352644315595243E-17, -0.000000000000000000, 1.000000000000000000 ) ) ;
#101 = ORIENTED_EDGE ( 'NONE', *, *, #195, .T. ) ;
#102 = CIRCLE ( 'NONE', #239, 3.600000000000000977 ) ;
#103 = CARTESIAN_POINT ( 'NONE',  ( 0.000000000000000000, 0.000000000000000000, 0.000000000000000000 ) ) ;
#104 = LINE ( 'NONE', #212, #337 ) ;
#105 = ORIENTED_EDGE ( 'NONE', *, *, #128, .T. ) ;
#106 = EDGE_LOOP ( 'NONE', ( #64, #101 ) ) ;
#107 = DIRECTION ( 'NONE',  ( -1.000000000000000000, 0.000000000000000000, -1.124357808503485988E-16 ) ) ;
#108 = ORIENTED_EDGE ( 'NONE', *, *, #350, .F. ) ;
#109 = AXIS2_PLACEMENT_3D ( 'NONE', #55, #276, #429 ) ;
#110 = VECTOR ( 'NONE', #153, 1000.000000000000000 ) ;
#111 = DIRECTION ( 'NONE',  ( 1.000000000000000000, 0.000000000000000000, 0.000000000000000000 ) ) ;
#112 = EDGE_CURVE ( 'NONE', #215, #437, #230, .T. ) ;
#113 = ORIENTED_EDGE ( 'NONE', *, *, #301, .T. ) ;
#114 = CARTESIAN_POINT ( 'NONE',  ( -13.10000000000000142, 3.499999999999996891, -3.600000000000000977 ) ) ;
#115 = ORIENTED_EDGE ( 'NONE', *, *, #174, .F. ) ;
#116 = CARTESIAN_POINT ( 'NONE',  ( -14.59999999999999787, 5.000000000000000000, -3.600000000000000977 ) ) ;
#117 = ORIENTED_EDGE ( 'NONE', *, *, #468, .F. ) ;
#118 = ADVANCED_FACE ( 'NONE', ( #412 ), #304, .F. ) ;
#119 =( GEOMETRIC_REPRESENTATION_CONTEXT ( 3 ) GLOBAL_UNCERTAINTY_ASSIGNED_CONTEXT ( ( #226 ) ) GLOBAL_UNIT_ASSIGNED_CONTEXT ( ( #431, #318, #136 ) ) REPRESENTATION_CONTEXT ( 'NONE', 'WORKASPACE' ) );
#120 = VERTEX_POINT ( 'NONE', #17 ) ;
#121 = VERTEX_POINT ( 'NONE', #80 ) ;
#122 = EDGE_CURVE ( 'NONE', #220, #144, #224, .T. ) ;
#123 = CARTESIAN_POINT ( 'NONE',  ( -2.458972558317233798E-16, 1.500000000000006217, -3.600000000000000977 ) ) ;
#124 = CARTESIAN_POINT ( 'NONE',  ( 0.000000000000000000, 3.499999999999997780, -3.600000000000000977 ) ) ;
#125 = AXIS2_PLACEMENT_3D ( 'NONE', #63, #94, #58 ) ;
#126 = CYLINDRICAL_SURFACE ( 'NONE', #367, 3.600000000000000977 ) ;
#127 = AXIS2_PLACEMENT_3D ( 'NONE', #103, #254, #293 ) ;
#128 = EDGE_CURVE ( 'NONE', #121, #269, #188, .T. ) ;
#129 = CARTESIAN_POINT ( 'NONE',  ( -27.00000000000000000, 5.000000000000000000, 1.600000000000001865 ) ) ;
#130 = EDGE_CURVE ( 'NONE', #269, #144, #44, .T. ) ;
#131 = DIRECTION ( 'NONE',  ( -0.000000000000000000, -1.000000000000000000, -0.000000000000000000 ) ) ;
#132 = PLANE ( 'NONE',  #395 ) ;
#133 = VECTOR ( 'NONE', #191, 1000.000000000000000 ) ;
#134 = CIRCLE ( 'NONE', #186, 3.599999999999997868 ) ;
#135 = ORIENTED_EDGE ( 'NONE', *, *, #247, .F. ) ;
#136 =( NAMED_UNIT ( * ) SI_UNIT ( $, .STERADIAN. ) SOLID_ANGLE_UNIT ( ) );
#137 = ORIENTED_EDGE ( 'NONE', *, *, #468, .T. ) ;
#138 = EDGE_CURVE ( 'NONE', #2, #394, #280, .T. ) ;
#139 = FACE_OUTER_BOUND ( 'NONE', #203, .T. ) ;
#140 = ORIENTED_EDGE ( 'NONE', *, *, #420, .T. ) ;
#141 = DIRECTION ( 'NONE',  ( -1.000000000000000000, -1.639315038878148963E-16, 0.000000000000000000 ) ) ;
#142 = ORIENTED_EDGE ( 'NONE', *, *, #330, .F. ) ;
#143 = VECTOR ( 'NONE', #360, 1000.000000000000000 ) ;
#144 = VERTEX_POINT ( 'NONE', #205 ) ;
#145 = PLANE ( 'NONE',  #299 ) ;
#146 = ORIENTED_EDGE ( 'NONE', *, *, #382, .F. ) ;
#147 = LINE ( 'NONE', #124, #95 ) ;
#148 = EDGE_LOOP ( 'NONE', ( #410, #246, #427, #70 ) ) ;
#149 = AXIS2_PLACEMENT_3D ( 'NONE', #419, #202, #351 ) ;
#150 = CIRCLE ( 'NONE', #21, 1.600000000000000089 ) ;
#151 = CARTESIAN_POINT ( 'NONE',  ( -14.59999999999999787, 5.000000000000000000, 3.600000000000000977 ) ) ;
#152 = CYLINDRICAL_SURFACE ( 'NONE', #86, 1.600000000000000089 ) ;
#153 = DIRECTION ( 'NONE',  ( -0.000000000000000000, -1.000000000000000000, -0.000000000000000000 ) ) ;
#154 = DIRECTION ( 'NONE',  ( -0.000000000000000000, -1.000000000000000000, -0.000000000000000000 ) ) ;
#155 = DIRECTION ( 'NONE',  ( 0.000000000000000000, 0.000000000000000000, 1.000000000000000000 ) ) ;
#156 = DIRECTION ( 'NONE',  ( 0.7071067811865465735, -0.7071067811865485719, 0.000000000000000000 ) ) ;
#157 = PRODUCT_RELATED_PRODUCT_CATEGORY ( 'part', '', ( #27 ) ) ;
#158 = EDGE_LOOP ( 'NONE', ( #183, #4, #284, #298 ) ) ;
#159 = DIRECTION ( 'NONE',  ( -0.000000000000000000, -1.000000000000000000, -0.000000000000000000 ) ) ;
#160 = EDGE_CURVE ( 'NONE', #401, #307, #168, .T. ) ;
#161 = ADVANCED_FACE ( 'NONE', ( #310 ), #126, .T. ) ;
#162 = DIRECTION ( 'NONE',  ( 0.000000000000000000, 1.000000000000000000, 0.000000000000000000 ) ) ;
#163 = ORIENTED_EDGE ( 'NONE', *, *, #122, .F. ) ;
#164 = VECTOR ( 'NONE', #48, 1000.000000000000000 ) ;
#165 = VECTOR ( 'NONE', #455, 1000.000000000000000 ) ;
#166 = DIRECTION ( 'NONE',  ( -1.000000000000000000, -0.000000000000000000, 9.637352644315595243E-17 ) ) ;
#167 = EDGE_CURVE ( 'NONE', #339, #430, #392, .T. ) ;
#168 = LINE ( 'NONE', #454, #192 ) ;
#169 = DIRECTION ( 'NONE',  ( -1.639315038878148963E-16, 1.000000000000000000, 0.000000000000000000 ) ) ;
#170 = VERTEX_POINT ( 'NONE', #462 ) ;
#171 = SURFACE_STYLE_USAGE ( .BOTH. , #438 ) ;
#172 = ORIENTED_EDGE ( 'NONE', *, *, #247, .T. ) ;
#173 = CARTESIAN_POINT ( 'NONE',  ( -27.00000000000000000, 5.000000000000000000, 3.599999999999997868 ) ) ;
#174 = EDGE_CURVE ( 'NONE', #430, #30, #313, .T. ) ;
#175 = EDGE_LOOP ( 'NONE', ( #416, #327, #39, #33 ) ) ;
#176 = FILL_AREA_STYLE_COLOUR ( '', #288 ) ;
#177 = ORIENTED_EDGE ( 'NONE', *, *, #296, .F. ) ;
#178 = CIRCLE ( 'NONE', #278, 1.600000000000000089 ) ;
#179 = VECTOR ( 'NONE', #262, 1000.000000000000000 ) ;
#180 = ORIENTED_EDGE ( 'NONE', *, *, #330, .T. ) ;
#181 = FACE_OUTER_BOUND ( 'NONE', #41, .T. ) ;
#182 = ADVANCED_FACE ( 'NONE', ( #90, #426 ), #358, .F. ) ;
#183 = ORIENTED_EDGE ( 'NONE', *, *, #196, .F. ) ;
#184 = CARTESIAN_POINT ( 'NONE',  ( -27.00000000000000000, 1.500000000000002220, 1.600000000000001865 ) ) ;
#185 = ORIENTED_EDGE ( 'NONE', *, *, #441, .F. ) ;
#186 = AXIS2_PLACEMENT_3D ( 'NONE', #257, #400, #214 ) ;
#187 = DIRECTION ( 'NONE',  ( 0.000000000000000000, 0.000000000000000000, -1.000000000000000000 ) ) ;
#188 = LINE ( 'NONE', #12, #73 ) ;
#189 = CARTESIAN_POINT ( 'NONE',  ( -4.800000000000020250, -4.800000000000006928, -3.600000000000000977 ) ) ;
#190 =( NAMED_UNIT ( * ) PLANE_ANGLE_UNIT ( ) SI_UNIT ( $, .RADIAN. ) );
#191 = DIRECTION ( 'NONE',  ( -0.000000000000000000, -1.000000000000000000, -0.000000000000000000 ) ) ;
#192 = VECTOR ( 'NONE', #166, 1000.000000000000000 ) ;
#193 = VECTOR ( 'NONE', #234, 1000.000000000000000 ) ;
#194 = VERTEX_POINT ( 'NONE', #93 ) ;
#195 = EDGE_CURVE ( 'NONE', #437, #286, #457, .T. ) ;
#196 = EDGE_CURVE ( 'NONE', #25, #401, #26, .T. ) ;
#197 = DIRECTION ( 'NONE',  ( 0.000000000000000000, 0.000000000000000000, 1.000000000000000000 ) ) ;
#198 = CARTESIAN_POINT ( 'NONE',  ( -27.00000000000000000, 5.000000000000000000, 3.599999999999997868 ) ) ;
#199 = ORIENTED_EDGE ( 'NONE', *, *, #333, .F. ) ;
#200 = CARTESIAN_POINT ( 'NONE',  ( 0.000000000000000000, 5.000000000000000000, -3.600000000000000533 ) ) ;
#201 = ORIENTED_EDGE ( 'NONE', *, *, #130, .T. ) ;
#202 = DIRECTION ( 'NONE',  ( 0.000000000000000000, -1.000000000000000000, 0.000000000000000000 ) ) ;
#203 = EDGE_LOOP ( 'NONE', ( #72, #140, #448, #117, #256, #397, #390, #61 ) ) ;
#204 = FACE_OUTER_BOUND ( 'NONE', #250, .T. ) ;
#205 = CARTESIAN_POINT ( 'NONE',  ( 1.959434878635765230E-16, 0.000000000000000000, 1.600000000000000089 ) ) ;
#206 = ADVANCED_FACE ( 'NONE', ( #19, #204 ), #308, .F. ) ;
#207 = CARTESIAN_POINT ( 'NONE',  ( -27.00000000000000000, 1.500000000000002220, 0.000000000000000000 ) ) ;
#208 = VECTOR ( 'NONE', #398, 1000.000000000000000 ) ;
#209 = CIRCLE ( 'NONE', #281, 1.600000000000001865 ) ;
#210 = ORIENTED_EDGE ( 'NONE', *, *, #78, .F. ) ;
#211 = ADVANCED_FACE ( 'NONE', ( #316 ), #235, .F. ) ;
#212 = CARTESIAN_POINT ( 'NONE',  ( -14.54974746830583676, 0.000000000000000000, -3.600000000000000977 ) ) ;
#213 = ORIENTED_EDGE ( 'NONE', *, *, #322, .T. ) ;
#214 = DIRECTION ( 'NONE',  ( 0.000000000000000000, 0.000000000000000000, 1.000000000000000000 ) ) ;
#215 = VERTEX_POINT ( 'NONE', #129 ) ;
#216 = CARTESIAN_POINT ( 'NONE',  ( -27.00000000000000000, 5.000000000000000000, -3.599999999999997868 ) ) ;
#217 = EDGE_LOOP ( 'NONE', ( #177, #332, #352, #261, #99, #115, #399, #180 ) ) ;
#218 = PRODUCT_CONTEXT ( 'NONE', #439, 'mechanical' ) ;
#219 = SURFACE_STYLE_FILL_AREA ( #74 ) ;
#220 = VERTEX_POINT ( 'NONE', #241 ) ;
#221 = DIRECTION ( 'NONE',  ( -0.000000000000000000, -0.000000000000000000, 1.000000000000000000 ) ) ;
#222 = DIRECTION ( 'NONE',  ( 0.000000000000000000, 1.000000000000000000, 0.000000000000000000 ) ) ;
#223 = CARTESIAN_POINT ( 'NONE',  ( -27.00000000000000000, 5.000000000000000000, -3.599999999999997868 ) ) ;
#224 = LINE ( 'NONE', #378, #164 ) ;
#225 = CIRCLE ( 'NONE', #353, 3.600000000000000977 ) ;
#226 = UNCERTAINTY_MEASURE_WITH_UNIT (LENGTH_MEASURE( 1.000000000000000082E-05 ), #431, 'distance_accuracy_value', 'NONE');
#227 = CIRCLE ( 'NONE', #16, 1.600000000000000089 ) ;
#228 = ORIENTED_EDGE ( 'NONE', *, *, #420, .F. ) ;
#229 = CYLINDRICAL_SURFACE ( 'NONE', #335, 3.599999999999997868 ) ;
#230 = LINE ( 'NONE', #302, #133 ) ;
#231 = VECTOR ( 'NONE', #348, 1000.000000000000000 ) ;
#232 = DIRECTION ( 'NONE',  ( -0.7071067811865469066, 0.7071067811865482389, 0.000000000000000000 ) ) ;
#233 = DIRECTION ( 'NONE',  ( -1.639315038878148963E-16, 1.000000000000000000, 0.000000000000000000 ) ) ;
#234 = DIRECTION ( 'NONE',  ( 1.000000000000000000, 0.000000000000000000, 0.000000000000000000 ) ) ;
#235 = PLANE ( 'NONE',  #109 ) ;
#236 = ADVANCED_FACE ( 'NONE', ( #237 ), #463, .F. ) ;
#237 = FACE_OUTER_BOUND ( 'NONE', #175, .T. ) ;
#238 = ORIENTED_EDGE ( 'NONE', *, *, #264, .F. ) ;
#239 = AXIS2_PLACEMENT_3D ( 'NONE', #381, #383, #451 ) ;
#240 = AXIS2_PLACEMENT_3D ( 'NONE', #207, #319, #38 ) ;
#241 = CARTESIAN_POINT ( 'NONE',  ( 1.959434878635765230E-16, 3.499999999999997780, 1.600000000000000089 ) ) ;
#242 = EDGE_LOOP ( 'NONE', ( #201, #329 ) ) ;
#243 = EDGE_CURVE ( 'NONE', #286, #437, #8, .T. ) ;
#244 = DIRECTION ( 'NONE',  ( 0.000000000000000000, 0.000000000000000000, -1.000000000000000000 ) ) ;
#245 = LINE ( 'NONE', #291, #208 ) ;
#246 = ORIENTED_EDGE ( 'NONE', *, *, #458, .F. ) ;
#247 = EDGE_CURVE ( 'NONE', #220, #121, #150, .T. ) ;
#248 = DIRECTION ( 'NONE',  ( 1.000000000000000000, 0.000000000000000000, -9.637352644315595243E-17 ) ) ;
#249 = STYLED_ITEM ( 'NONE', ( #326 ), #341 ) ;
#250 = EDGE_LOOP ( 'NONE', ( #146, #91, #252, #433 ) ) ;
#251 = CARTESIAN_POINT ( 'NONE',  ( -14.54974746830583676, 0.000000000000000000, 3.600000000000000977 ) ) ;
#252 = ORIENTED_EDGE ( 'NONE', *, *, #404, .T. ) ;
#253 = ADVANCED_FACE ( 'NONE', ( #424, #389 ), #132, .F. ) ;
#254 = DIRECTION ( 'NONE',  ( 0.000000000000000000, 0.000000000000000000, 1.000000000000000000 ) ) ;
#255 = CARTESIAN_POINT ( 'NONE',  ( -2.458972558317233798E-16, 1.500000000000006217, 3.600000000000000977 ) ) ;
#256 = ORIENTED_EDGE ( 'NONE', *, *, #373, .F. ) ;
#257 = CARTESIAN_POINT ( 'NONE',  ( -27.00000000000000000, 5.000000000000000000, 0.000000000000000000 ) ) ;
#258 = VERTEX_POINT ( 'NONE', #251 ) ;
#259 = VECTOR ( 'NONE', #5, 1000.000000000000000 ) ;
#260 = FACE_BOUND ( 'NONE', #282, .T. ) ;
#261 = ORIENTED_EDGE ( 'NONE', *, *, #28, .F. ) ;
#262 = DIRECTION ( 'NONE',  ( -0.000000000000000000, -0.000000000000000000, 1.000000000000000000 ) ) ;
#263 = DIRECTION ( 'NONE',  ( 0.000000000000000000, 0.000000000000000000, -1.000000000000000000 ) ) ;
#264 = EDGE_CURVE ( 'NONE', #258, #471, #405, .T. ) ;
#265 = DIRECTION ( 'NONE',  ( -0.000000000000000000, -1.000000000000000000, -0.000000000000000000 ) ) ;
#266 = EDGE_LOOP ( 'NONE', ( #238, #440, #355, #461 ) ) ;
#267 = VECTOR ( 'NONE', #141, 1000.000000000000000 ) ;
#268 = AXIS2_PLACEMENT_3D ( 'NONE', #447, #265, #187 ) ;
#269 = VERTEX_POINT ( 'NONE', #32 ) ;
#270 = CARTESIAN_POINT ( 'NONE',  ( -16.04974746830584209, 1.500000000000004885, -3.600000000000000977 ) ) ;
#271 = CARTESIAN_POINT ( 'NONE',  ( -2.458972558317233798E-16, 1.500000000000006217, -3.600000000000000977 ) ) ;
#272 = AXIS2_PLACEMENT_3D ( 'NONE', #388, #391, #88 ) ;
#273 = CYLINDRICAL_SURFACE ( 'NONE', #428, 1.600000000000001865 ) ;
#274 = CARTESIAN_POINT ( 'NONE',  ( 0.000000000000000000, 5.000000000000000000, 0.000000000000000000 ) ) ;
#275 = DIRECTION ( 'NONE',  ( 0.000000000000000000, -1.000000000000000000, 0.000000000000000000 ) ) ;
#276 = DIRECTION ( 'NONE',  ( 0.7071067811865482389, 0.7071067811865467956, 0.000000000000000000 ) ) ;
#277 = PRODUCT_DEFINITION_SHAPE ( 'NONE', 'NONE',  #87 ) ;
#278 = AXIS2_PLACEMENT_3D ( 'NONE', #305, #51, #10 ) ;
#279 = VECTOR ( 'NONE', #1, 1000.000000000000000 ) ;
#280 = LINE ( 'NONE', #123, #36 ) ;
#281 = AXIS2_PLACEMENT_3D ( 'NONE', #300, #9, #377 ) ;
#282 = EDGE_LOOP ( 'NONE', ( #210, #185 ) ) ;
#283 = ADVANCED_FACE ( 'NONE', ( #71 ), #145, .F. ) ;
#284 = ORIENTED_EDGE ( 'NONE', *, *, #28, .T. ) ;
#285 = PLANE ( 'NONE',  #37 ) ;
#286 = VERTEX_POINT ( 'NONE', #363 ) ;
#287 = DIRECTION ( 'NONE',  ( 0.000000000000000000, 0.000000000000000000, 1.000000000000000000 ) ) ;
#288 = COLOUR_RGB ( '',0.7921568627450980005, 0.8196078431372548767, 0.9333333333333333481 ) ;
#289 = ORIENTED_EDGE ( 'NONE', *, *, #296, .T. ) ;
#290 = CARTESIAN_POINT ( 'NONE',  ( 0.000000000000000000, 0.000000000000000000, 3.600000000000000977 ) ) ;
#291 = CARTESIAN_POINT ( 'NONE',  ( -16.04974746830584209, 1.500000000000004885, -3.600000000000000977 ) ) ;
#292 = ORIENTED_EDGE ( 'NONE', *, *, #122, .T. ) ;
#293 = DIRECTION ( 'NONE',  ( 1.000000000000000000, 0.000000000000000000, 0.000000000000000000 ) ) ;
#294 = CARTESIAN_POINT ( 'NONE',  ( 0.000000000000000000, 0.000000000000000000, 0.000000000000000000 ) ) ;
#295 = VERTEX_POINT ( 'NONE', #216 ) ;
#296 = EDGE_CURVE ( 'NONE', #194, #170, #323, .T. ) ;
#297 = CARTESIAN_POINT ( 'NONE',  ( -7.274873734152932592, -7.274873734152918381, -3.600000000000000977 ) ) ;
#298 = ORIENTED_EDGE ( 'NONE', *, *, #317, .T. ) ;
#299 = AXIS2_PLACEMENT_3D ( 'NONE', #173, #470, #107 ) ;
#300 = CARTESIAN_POINT ( 'NONE',  ( -27.00000000000000000, 5.000000000000000000, 0.000000000000000000 ) ) ;
#301 = EDGE_CURVE ( 'NONE', #258, #194, #467, .T. ) ;
#302 = CARTESIAN_POINT ( 'NONE',  ( -27.00000000000000000, 5.000000000000000000, 1.600000000000001865 ) ) ;
#303 = PLANE ( 'NONE',  #403 ) ;
#304 = PLANE ( 'NONE',  #343 ) ;
#305 = CARTESIAN_POINT ( 'NONE',  ( 0.000000000000000000, 3.499999999999997780, 0.000000000000000000 ) ) ;
#306 = EDGE_CURVE ( 'NONE', #2, #194, #245, .T. ) ;
#307 = VERTEX_POINT ( 'NONE', #34 ) ;
#308 = PLANE ( 'NONE',  #149 ) ;
#309 = DIRECTION ( 'NONE',  ( 0.000000000000000000, 1.000000000000000000, 0.000000000000000000 ) ) ;
#310 = FACE_OUTER_BOUND ( 'NONE', #158, .T. ) ;
#311 = VERTEX_POINT ( 'NONE', #368 ) ;
#312 = VECTOR ( 'NONE', #62, 1000.000000000000000 ) ;
#313 = LINE ( 'NONE', #314, #231 ) ;
#314 = CARTESIAN_POINT ( 'NONE',  ( -4.800000000000020250, -4.800000000000006928, 3.600000000000000977 ) ) ;
#315 = EDGE_LOOP ( 'NONE', ( #163, #75, #105, #364 ) ) ;
#316 = FACE_OUTER_BOUND ( 'NONE', #443, .T. ) ;
#317 = EDGE_CURVE ( 'NONE', #471, #401, #225, .T. ) ;
#318 =( NAMED_UNIT ( * ) PLANE_ANGLE_UNIT ( ) SI_UNIT ( $, .RADIAN. ) );
#319 = DIRECTION ( 'NONE',  ( -1.639315038878148963E-16, 1.000000000000000000, 0.000000000000000000 ) ) ;
#320 = EDGE_LOOP ( 'NONE', ( #135, #292, #366, #446 ) ) ;
#321 =( NAMED_UNIT ( * ) SI_UNIT ( $, .STERADIAN. ) SOLID_ANGLE_UNIT ( ) );
#322 = EDGE_CURVE ( 'NONE', #307, #258, #104, .T. ) ;
#323 = LINE ( 'NONE', #255, #267 ) ;
#324 = ORIENTED_EDGE ( 'NONE', *, *, #379, .F. ) ;
#325 = VECTOR ( 'NONE', #342, 1000.000000000000000 ) ;
#326 = PRESENTATION_STYLE_ASSIGNMENT (( #171 ) ) ;
#327 = ORIENTED_EDGE ( 'NONE', *, *, #441, .T. ) ;
#328 = CARTESIAN_POINT ( 'NONE',  ( -27.00000000000000000, 0.000000000000000000, 3.599999999999997868 ) ) ;
#329 = ORIENTED_EDGE ( 'NONE', *, *, #465, .T. ) ;
#330 = EDGE_CURVE ( 'NONE', #339, #170, #29, .T. ) ;
#331 = CARTESIAN_POINT ( 'NONE',  ( 0.000000000000000000, 0.000000000000000000, -3.600000000000000533 ) ) ;
#332 = ORIENTED_EDGE ( 'NONE', *, *, #301, .F. ) ;
#333 = EDGE_CURVE ( 'NONE', #295, #339, #134, .T. ) ;
#334 = LINE ( 'NONE', #56, #259 ) ;
#335 = AXIS2_PLACEMENT_3D ( 'NONE', #336, #77, #263 ) ;
#336 = CARTESIAN_POINT ( 'NONE',  ( -27.00000000000000000, 5.000000000000000000, 0.000000000000000000 ) ) ;
#337 = VECTOR ( 'NONE', #442, 1000.000000000000000 ) ;
#338 = CARTESIAN_POINT ( 'NONE',  ( -27.00000000000000000, 5.000000000000000000, -1.600000000000001865 ) ) ;
#339 = VERTEX_POINT ( 'NONE', #365 ) ;
#340 = ORIENTED_EDGE ( 'NONE', *, *, #138, .F. ) ;
#341 = MANIFOLD_SOLID_BREP ( 'Cut-Extrude1', #59 ) ;
#342 = DIRECTION ( 'NONE',  ( -0.000000000000000000, -1.000000000000000000, -0.000000000000000000 ) ) ;
#343 = AXIS2_PLACEMENT_3D ( 'NONE', #189, #346, #156 ) ;
#344 = VECTOR ( 'NONE', #57, 1000.000000000000000 ) ;
#345 =( GEOMETRIC_REPRESENTATION_CONTEXT ( 3 ) GLOBAL_UNCERTAINTY_ASSIGNED_CONTEXT ( ( #49 ) ) GLOBAL_UNIT_ASSIGNED_CONTEXT ( ( #370, #190, #321 ) ) REPRESENTATION_CONTEXT ( 'NONE', 'WORKASPACE' ) );
#346 = DIRECTION ( 'NONE',  ( -0.7071067811865485719, -0.7071067811865465735, 0.000000000000000000 ) ) ;
#347 = LINE ( 'NONE', #18, #407 ) ;
#348 = DIRECTION ( 'NONE',  ( 0.7071067811865465735, -0.7071067811865485719, 0.000000000000000000 ) ) ;
#349 = ORIENTED_EDGE ( 'NONE', *, *, #306, .T. ) ;
#350 = EDGE_CURVE ( 'NONE', #394, #170, #406, .T. ) ;
#351 = DIRECTION ( 'NONE',  ( 0.000000000000000000, -0.000000000000000000, -1.000000000000000000 ) ) ;
#352 = ORIENTED_EDGE ( 'NONE', *, *, #264, .T. ) ;
#353 = AXIS2_PLACEMENT_3D ( 'NONE', #294, #436, #287 ) ;
#354 = DIRECTION ( 'NONE',  ( -1.000000000000000000, -1.355252715606879803E-16, 0.000000000000000000 ) ) ;
#355 = ORIENTED_EDGE ( 'NONE', *, *, #160, .F. ) ;
#356 = CARTESIAN_POINT ( 'NONE',  ( -27.00000000000000000, 1.500000000000002220, 0.000000000000000000 ) ) ;
#357 = ADVANCED_FACE ( 'NONE', ( #139 ), #285, .F. ) ;
#358 = PLANE ( 'NONE',  #464 ) ;
#359 = CIRCLE ( 'NONE', #402, 1.600000000000001865 ) ;
#360 = DIRECTION ( 'NONE',  ( -0.000000000000000000, -1.000000000000000000, -0.000000000000000000 ) ) ;
#361 = ORIENTED_EDGE ( 'NONE', *, *, #112, .T. ) ;
#362 = APPLICATION_PROTOCOL_DEFINITION ( 'draft international standard', 'automotive_design', 1998, #439 ) ;
#363 = CARTESIAN_POINT ( 'NONE',  ( -27.00000000000000000, 1.500000000000002220, -1.600000000000001865 ) ) ;
#364 = ORIENTED_EDGE ( 'NONE', *, *, #465, .F. ) ;
#365 = CARTESIAN_POINT ( 'NONE',  ( -27.00000000000000000, 5.000000000000000000, 3.599999999999997868 ) ) ;
#366 = ORIENTED_EDGE ( 'NONE', *, *, #130, .F. ) ;
#367 = AXIS2_PLACEMENT_3D ( 'NONE', #274, #131, #244 ) ;
#368 = CARTESIAN_POINT ( 'NONE',  ( -14.59999999999999787, 5.000000000000000000, -3.600000000000000977 ) ) ;
#369 = ORIENTED_EDGE ( 'NONE', *, *, #243, .F. ) ;
#370 =( LENGTH_UNIT ( ) NAMED_UNIT ( * ) SI_UNIT ( .MILLI., .METRE. ) );
#371 = DIRECTION ( 'NONE',  ( 1.000000000000000000, 0.000000000000000000, 1.124357808503485988E-16 ) ) ;
#372 = VERTEX_POINT ( 'NONE', #396 ) ;
#373 = EDGE_CURVE ( 'NONE', #311, #295, #67, .T. ) ;
#374 = DIRECTION ( 'NONE',  ( 0.000000000000000000, -0.000000000000000000, 1.000000000000000000 ) ) ;
#375 = LINE ( 'NONE', #43, #325 ) ;
#376 = ADVANCED_BREP_SHAPE_REPRESENTATION ( 'Gripper link 2_Gripper link 2', ( #341, #127 ), #345 ) ;
#377 = DIRECTION ( 'NONE',  ( 0.000000000000000000, 0.000000000000000000, 1.000000000000000000 ) ) ;
#378 = CARTESIAN_POINT ( 'NONE',  ( 1.959434878635765230E-16, 5.000000000000000000, 1.600000000000000089 ) ) ;
#379 = EDGE_CURVE ( 'NONE', #372, #286, #445, .T. ) ;
#380 = CARTESIAN_POINT ( 'NONE',  ( -13.10000000000000142, 3.499999999999996891, 3.600000000000000977 ) ) ;
#381 = CARTESIAN_POINT ( 'NONE',  ( 0.000000000000000000, 3.499999999999997780, 0.000000000000000000 ) ) ;
#382 = EDGE_CURVE ( 'NONE', #423, #25, #147, .T. ) ;
#383 = DIRECTION ( 'NONE',  ( 0.000000000000000000, -1.000000000000000000, 0.000000000000000000 ) ) ;
#384 = LINE ( 'NONE', #114, #179 ) ;
#385 = CARTESIAN_POINT ( 'NONE',  ( -27.00000000000000000, 0.000000000000000000, 0.000000000000000000 ) ) ;
#386 = ADVANCED_FACE ( 'NONE', ( #40, #260 ), #303, .T. ) ;
#387 = CARTESIAN_POINT ( 'NONE',  ( -0.000000000000000000, 3.499999999999997780, 3.600000000000000977 ) ) ;
#388 = CARTESIAN_POINT ( 'NONE',  ( -27.00000000000000000, 5.000000000000000000, 0.000000000000000000 ) ) ;
#389 = FACE_BOUND ( 'NONE', #242, .T. ) ;
#390 = ORIENTED_EDGE ( 'NONE', *, *, #382, .T. ) ;
#391 = DIRECTION ( 'NONE',  ( -0.000000000000000000, -1.000000000000000000, -0.000000000000000000 ) ) ;
#392 = LINE ( 'NONE', #198, #344 ) ;
#393 = ADVANCED_FACE ( 'NONE', ( #181 ), #273, .F. ) ;
#394 = VERTEX_POINT ( 'NONE', #421 ) ;
#395 = AXIS2_PLACEMENT_3D ( 'NONE', #385, #162, #422 ) ;
#396 = CARTESIAN_POINT ( 'NONE',  ( -27.00000000000000000, 5.000000000000000000, -1.600000000000001865 ) ) ;
#397 = ORIENTED_EDGE ( 'NONE', *, *, #417, .T. ) ;
#398 = DIRECTION ( 'NONE',  ( -0.000000000000000000, -0.000000000000000000, 1.000000000000000000 ) ) ;
#399 = ORIENTED_EDGE ( 'NONE', *, *, #167, .F. ) ;
#400 = DIRECTION ( 'NONE',  ( 0.000000000000000000, 1.000000000000000000, 0.000000000000000000 ) ) ;
#401 = VERTEX_POINT ( 'NONE', #331 ) ;
#402 = AXIS2_PLACEMENT_3D ( 'NONE', #15, #222, #155 ) ;
#403 = AXIS2_PLACEMENT_3D ( 'NONE', #89, #309, #374 ) ;
#404 = EDGE_CURVE ( 'NONE', #30, #120, #79, .T. ) ;
#405 = LINE ( 'NONE', #328, #65 ) ;
#406 = CIRCLE ( 'NONE', #240, 3.599999999999999201 ) ;
#407 = VECTOR ( 'NONE', #159, 1000.000000000000000 ) ;
#408 = EDGE_LOOP ( 'NONE', ( #108, #340, #349, #289 ) ) ;
#409 = DIRECTION ( 'NONE',  ( 0.000000000000000000, 0.000000000000000000, -1.000000000000000000 ) ) ;
#410 = ORIENTED_EDGE ( 'NONE', *, *, #174, .T. ) ;
#411 = DIRECTION ( 'NONE',  ( 0.000000000000000000, 1.000000000000000000, 0.000000000000000000 ) ) ;
#412 = FACE_OUTER_BOUND ( 'NONE', #148, .T. ) ;
#413 = DIRECTION ( 'NONE',  ( -0.000000000000000000, -1.000000000000000000, -0.000000000000000000 ) ) ;
#414 = CARTESIAN_POINT ( 'NONE',  ( 0.000000000000000000, 5.000000000000000000, 0.000000000000000000 ) ) ;
#415 = AXIS2_PLACEMENT_3D ( 'NONE', #356, #233, #354 ) ;
#416 = ORIENTED_EDGE ( 'NONE', *, *, #112, .F. ) ;
#417 = EDGE_CURVE ( 'NONE', #311, #423, #334, .T. ) ;
#418 = CARTESIAN_POINT ( 'NONE',  ( 0.000000000000000000, 3.499999999999997780, -3.600000000000000533 ) ) ;
#419 = CARTESIAN_POINT ( 'NONE',  ( 0.000000000000000000, 3.499999999999997780, -3.600000000000000977 ) ) ;
#420 = EDGE_CURVE ( 'NONE', #307, #2, #85, .T. ) ;
#421 = CARTESIAN_POINT ( 'NONE',  ( -27.00000000000000000, 1.500000000000003109, -3.599999999999997868 ) ) ;
#422 = DIRECTION ( 'NONE',  ( 0.000000000000000000, -0.000000000000000000, 1.000000000000000000 ) ) ;
#423 = VERTEX_POINT ( 'NONE', #76 ) ;
#424 = FACE_OUTER_BOUND ( 'NONE', #266, .T. ) ;
#425 = ORIENTED_EDGE ( 'NONE', *, *, #78, .T. ) ;
#426 = FACE_OUTER_BOUND ( 'NONE', #408, .T. ) ;
#427 = ORIENTED_EDGE ( 'NONE', *, *, #417, .F. ) ;
#428 = AXIS2_PLACEMENT_3D ( 'NONE', #42, #413, #409 ) ;
#429 = DIRECTION ( 'NONE',  ( -0.7071067811865467956, 0.7071067811865482389, 0.000000000000000000 ) ) ;
#430 = VERTEX_POINT ( 'NONE', #151 ) ;
#431 =( LENGTH_UNIT ( ) NAMED_UNIT ( * ) SI_UNIT ( .MILLI., .METRE. ) );
#432 = CARTESIAN_POINT ( 'NONE',  ( -27.00000000000000000, 5.000000000000000000, -3.599999999999997868 ) ) ;
#433 = ORIENTED_EDGE ( 'NONE', *, *, #92, .F. ) ;
#434 = EDGE_CURVE ( 'NONE', #311, #430, #449, .T. ) ;
#435 = VECTOR ( 'NONE', #221, 1000.000000000000000 ) ;
#436 = DIRECTION ( 'NONE',  ( 0.000000000000000000, 1.000000000000000000, 0.000000000000000000 ) ) ;
#437 = VERTEX_POINT ( 'NONE', #184 ) ;
#438 = SURFACE_SIDE_STYLE ('',( #219 ) ) ;
#439 = APPLICATION_CONTEXT ( 'automotive_design' ) ;
#440 = ORIENTED_EDGE ( 'NONE', *, *, #322, .F. ) ;
#441 = EDGE_CURVE ( 'NONE', #215, #372, #209, .T. ) ;
#442 = DIRECTION ( 'NONE',  ( -0.000000000000000000, -0.000000000000000000, 1.000000000000000000 ) ) ;
#443 = EDGE_LOOP ( 'NONE', ( #113, #35, #228, #213 ) ) ;
#444 = AXIS2_PLACEMENT_3D ( 'NONE', #450, #456, #97 ) ;
#445 = LINE ( 'NONE', #338, #110 ) ;
#446 = ORIENTED_EDGE ( 'NONE', *, *, #128, .F. ) ;
#447 = CARTESIAN_POINT ( 'NONE',  ( 0.000000000000000000, 5.000000000000000000, 0.000000000000000000 ) ) ;
#448 = ORIENTED_EDGE ( 'NONE', *, *, #138, .T. ) ;
#449 = LINE ( 'NONE', #116, #435 ) ;
#450 = CARTESIAN_POINT ( 'NONE',  ( 0.000000000000000000, 0.000000000000000000, 0.000000000000000000 ) ) ;
#451 = DIRECTION ( 'NONE',  ( 0.000000000000000000, 0.000000000000000000, -1.000000000000000000 ) ) ;
#452 = ORIENTED_EDGE ( 'NONE', *, *, #333, .T. ) ;
#453 = ADVANCED_FACE ( 'NONE', ( #11 ), #47, .F. ) ;
#454 = CARTESIAN_POINT ( 'NONE',  ( -27.00000000000000000, 0.000000000000000000, -3.599999999999997868 ) ) ;
#455 = DIRECTION ( 'NONE',  ( -1.000000000000000000, -0.000000000000000000, 9.637352644315595243E-17 ) ) ;
#456 = DIRECTION ( 'NONE',  ( 0.000000000000000000, 1.000000000000000000, 0.000000000000000000 ) ) ;
#457 = CIRCLE ( 'NONE', #125, 1.600000000000000755 ) ;
#458 = EDGE_CURVE ( 'NONE', #423, #30, #384, .T. ) ;
#459 = DIRECTION ( 'NONE',  ( -1.000000000000000000, -1.639315038878148963E-16, 0.000000000000000000 ) ) ;
#460 = APPLICATION_CONTEXT ( 'automotive_design' ) ;
#461 = ORIENTED_EDGE ( 'NONE', *, *, #317, .F. ) ;
#462 = CARTESIAN_POINT ( 'NONE',  ( -27.00000000000000000, 1.500000000000001998, 3.600000000000000977 ) ) ;
#463 = CYLINDRICAL_SURFACE ( 'NONE', #272, 1.600000000000001865 ) ;
#464 = AXIS2_PLACEMENT_3D ( 'NONE', #271, #169, #459 ) ;
#465 = EDGE_CURVE ( 'NONE', #144, #269, #227, .T. ) ;
#466 = PRODUCT_DEFINITION_FORMATION_WITH_SPECIFIED_SOURCE ( 'Symmetric', '', #27, .NOT_KNOWN. ) ;
#467 = LINE ( 'NONE', #3, #279 ) ;
#468 = EDGE_CURVE ( 'NONE', #295, #394, #347, .T. ) ;
#469 = ORIENTED_EDGE ( 'NONE', *, *, #373, .T. ) ;
#470 = DIRECTION ( 'NONE',  ( 1.124357808503485988E-16, 0.000000000000000000, -1.000000000000000000 ) ) ;
#471 = VERTEX_POINT ( 'NONE', #290 ) ;
ENDSEC;
END-ISO-10303-21;
