ISO-10303-21;
HEADER;
FILE_DESCRIPTION (( 'STEP AP214' ),
    '1' );
FILE_NAME ('Servo MG996R Horn.STEP',
    '2026-08-27T22:10:01',
    ( '' ),
    ( '' ),
    'SwSTEP 2.0',
    'SolidWorks 2026',
    '' );
FILE_SCHEMA (( 'AUTOMOTIVE_DESIGN' ));
ENDSEC;

DATA;
#1 = SURFACE_STYLE_FILL_AREA ( #236 ) ;
#2 = VECTOR ( 'NONE', #328, 1000.000000000000000 ) ;
#3 = CARTESIAN_POINT ( 'NONE',  ( 0.000000000000000000, 2.500000000000000000, -1.500000000000000000 ) ) ;
#4 = EDGE_CURVE ( 'NONE', #350, #339, #150, .T. ) ;
#5 = VERTEX_POINT ( 'NONE', #29 ) ;
#6 = DIRECTION ( 'NONE',  ( 0.000000000000000000, 0.000000000000000000, 1.000000000000000000 ) ) ;
#7 = CARTESIAN_POINT ( 'NONE',  ( 0.000000000000000000, 2.500000000000000000, 0.000000000000000000 ) ) ;
#8 = ORIENTED_EDGE ( 'NONE', *, *, #58, .F. ) ;
#9 = CARTESIAN_POINT ( 'NONE',  ( 0.000000000000000000, 0.000000000000000000, 0.000000000000000000 ) ) ;
#10 = LINE ( 'NONE', #251, #569 ) ;
#11 = ORIENTED_EDGE ( 'NONE', *, *, #543, .F. ) ;
#12 = CIRCLE ( 'NONE', #263, 2.500000000000000000 ) ;
#13 = CARTESIAN_POINT ( 'NONE',  ( -0.7484282643293840298, 2.500000000000000000, -4.605173330855029334 ) ) ;
#14 = ORIENTED_EDGE ( 'NONE', *, *, #178, .T. ) ;
#15 = CARTESIAN_POINT ( 'NONE',  ( 13.50000000000000000, 2.500000000000000000, 0.000000000000000000 ) ) ;
#16 = ADVANCED_FACE ( 'NONE', ( #120, #548, #116, #559 ), #315, .T. ) ;
#17 = ORIENTED_EDGE ( 'NONE', *, *, #586, .T. ) ;
#18 = ORIENTED_EDGE ( 'NONE', *, *, #380, .T. ) ;
#19 = DIRECTION ( 'NONE',  ( 0.000000000000000000, -1.000000000000000000, 0.000000000000000000 ) ) ;
#20 = UNCERTAINTY_MEASURE_WITH_UNIT (LENGTH_MEASURE( 1.000000000000000082E-05 ), #141, 'distance_accuracy_value', 'NONE');
#21 = VERTEX_POINT ( 'NONE', #229 ) ;
#22 = AXIS2_PLACEMENT_3D ( 'NONE', #121, #166, #72 ) ;
#23 = LINE ( 'NONE', #496, #38 ) ;
#24 = ORIENTED_EDGE ( 'NONE', *, *, #208, .T. ) ;
#25 = DIRECTION ( 'NONE',  ( 0.000000000000000000, 0.000000000000000000, -1.000000000000000000 ) ) ;
#26 = CARTESIAN_POINT ( 'NONE',  ( -1.929747179611962047E-15, 2.500000000000000000, 6.000000000000000000 ) ) ;
#27 = EDGE_LOOP ( 'NONE', ( #432, #89, #280, #209 ) ) ;
#28 = CARTESIAN_POINT ( 'NONE',  ( 0.000000000000000000, 2.500000000000000000, 0.000000000000000000 ) ) ;
#29 = CARTESIAN_POINT ( 'NONE',  ( 0.000000000000000000, 0.000000000000000000, -1.500000000000000000 ) ) ;
#30 = DIRECTION ( 'NONE',  ( -0.9870497619558379343, 0.000000000000000000, -0.1604143616479639933 ) ) ;
#31 = CIRCLE ( 'NONE', #531, 1.500000000000000000 ) ;
#32 = APPLICATION_CONTEXT ( 'automotive_design' ) ;
#33 = ADVANCED_FACE ( 'NONE', ( #124 ), #505, .F. ) ;
#34 = ORIENTED_EDGE ( 'NONE', *, *, #386, .T. ) ;
#35 =( NAMED_UNIT ( * ) SI_UNIT ( $, .STERADIAN. ) SOLID_ANGLE_UNIT ( ) );
#36 = DIRECTION ( 'NONE',  ( 1.000000000000000000, 0.000000000000000000, 0.000000000000000000 ) ) ;
#37 = DIRECTION ( 'NONE',  ( 0.000000000000000000, 0.000000000000000000, 1.000000000000000000 ) ) ;
#38 = VECTOR ( 'NONE', #445, 1000.000000000000000 ) ;
#39 = ADVANCED_FACE ( 'NONE', ( #276 ), #410, .F. ) ;
#40 = DIRECTION ( 'NONE',  ( 0.000000000000000000, 0.000000000000000000, 1.000000000000000000 ) ) ;
#41 = ORIENTED_EDGE ( 'NONE', *, *, #366, .T. ) ;
#42 = DIRECTION ( 'NONE',  ( 0.000000000000000000, 1.000000000000000000, 0.000000000000000000 ) ) ;
#43 = ORIENTED_EDGE ( 'NONE', *, *, #110, .F. ) ;
#44 = CYLINDRICAL_SURFACE ( 'NONE', #86, 1.500000000000000000 ) ;
#45 = PRODUCT_DEFINITION ( 'General', '', #562, #62 ) ;
#46 = CARTESIAN_POINT ( 'NONE',  ( -0.7484282643293800330, 2.500000000000000000, 4.605173330855020453 ) ) ;
#47 = VERTEX_POINT ( 'NONE', #364 ) ;
#48 = AXIS2_PLACEMENT_3D ( 'NONE', #576, #290, #96 ) ;
#49 = LINE ( 'NONE', #285, #440 ) ;
#50 = AXIS2_PLACEMENT_3D ( 'NONE', #613, #521, #94 ) ;
#51 = FACE_BOUND ( 'NONE', #81, .T. ) ;
#52 = ORIENTED_EDGE ( 'NONE', *, *, #110, .T. ) ;
#53 = LINE ( 'NONE', #194, #233 ) ;
#54 = DIRECTION ( 'NONE',  ( -0.1604143616479639933, 0.000000000000000000, -0.9870497619558379343 ) ) ;
#55 = ORIENTED_EDGE ( 'NONE', *, *, #404, .T. ) ;
#56 = CARTESIAN_POINT ( 'NONE',  ( 4.472135954999530760, 0.000000000000000000, 4.000000000000000000 ) ) ;
#57 = EDGE_LOOP ( 'NONE', ( #577, #415, #389, #544 ) ) ;
#58 = EDGE_CURVE ( 'NONE', #5, #74, #608, .T. ) ;
#59 = MECHANICAL_DESIGN_GEOMETRIC_PRESENTATION_REPRESENTATION (  '', ( #369 ), #151 ) ;
#60 = PLANE ( 'NONE',  #439 ) ;
#61 = ORIENTED_EDGE ( 'NONE', *, *, #594, .T. ) ;
#62 = PRODUCT_DEFINITION_CONTEXT ( 'detailed design', #588, 'design' ) ;
#63 = VERTEX_POINT ( 'NONE', #77 ) ;
#64 = DIRECTION ( 'NONE',  ( -0.9870497619558379343, 0.000000000000000000, 0.1604143616479639933 ) ) ;
#65 = ADVANCED_FACE ( 'NONE', ( #507 ), #461, .F. ) ;
#66 = VERTEX_POINT ( 'NONE', #321 ) ;
#67 = DIRECTION ( 'NONE',  ( 0.000000000000000000, 0.000000000000000000, 1.000000000000000000 ) ) ;
#68 = ORIENTED_EDGE ( 'NONE', *, *, #122, .F. ) ;
#69 = CARTESIAN_POINT ( 'NONE',  ( 0.000000000000000000, 2.500000000000000000, 0.000000000000000000 ) ) ;
#70 = LINE ( 'NONE', #360, #300 ) ;
#71 = EDGE_LOOP ( 'NONE', ( #304, #400, #537, #345 ) ) ;
#72 = DIRECTION ( 'NONE',  ( 0.000000000000000000, 0.000000000000000000, -1.000000000000000000 ) ) ;
#73 = FACE_OUTER_BOUND ( 'NONE', #71, .T. ) ;
#74 = VERTEX_POINT ( 'NONE', #463 ) ;
#75 = LINE ( 'NONE', #356, #450 ) ;
#76 = EDGE_CURVE ( 'NONE', #47, #307, #370, .T. ) ;
#77 = CARTESIAN_POINT ( 'NONE',  ( 13.50000000000000000, 2.500000000000000000, -1.500000000000000000 ) ) ;
#78 = CIRCLE ( 'NONE', #427, 2.500000000000000000 ) ;
#79 = LINE ( 'NONE', #222, #182 ) ;
#80 = COLOUR_RGB ( '',0.7921568627450980005, 0.8196078431372548767, 0.9333333333333333481 ) ;
#81 = EDGE_LOOP ( 'NONE', ( #284, #519 ) ) ;
#82 = ORIENTED_EDGE ( 'NONE', *, *, #319, .F. ) ;
#83 = FACE_OUTER_BOUND ( 'NONE', #556, .T. ) ;
#84 = ORIENTED_EDGE ( 'NONE', *, *, #208, .F. ) ;
#85 = CIRCLE ( 'NONE', #352, 2.500000000000000000 ) ;
#86 = AXIS2_PLACEMENT_3D ( 'NONE', #134, #587, #478 ) ;
#87 =( LENGTH_UNIT ( ) NAMED_UNIT ( * ) SI_UNIT ( .MILLI., .METRE. ) );
#88 = CARTESIAN_POINT ( 'NONE',  ( 13.50000000000000000, 0.000000000000000000, 1.500000000000000000 ) ) ;
#89 = ORIENTED_EDGE ( 'NONE', *, *, #485, .F. ) ;
#90 = EDGE_CURVE ( 'NONE', #47, #295, #78, .T. ) ;
#91 = CARTESIAN_POINT ( 'NONE',  ( -13.90103590411990098, 2.500000000000000000, 2.467624404889590117 ) ) ;
#92 = DIRECTION ( 'NONE',  ( 0.000000000000000000, 1.000000000000000000, 0.000000000000000000 ) ) ;
#93 = ORIENTED_EDGE ( 'NONE', *, *, #282, .T. ) ;
#94 = DIRECTION ( 'NONE',  ( 0.000000000000000000, -1.000000000000000000, 0.000000000000000000 ) ) ;
#95 = ADVANCED_FACE ( 'NONE', ( #185 ), #198, .F. ) ;
#96 = DIRECTION ( 'NONE',  ( 0.000000000000000000, 0.000000000000000000, 1.000000000000000000 ) ) ;
#97 = ORIENTED_EDGE ( 'NONE', *, *, #492, .F. ) ;
#98 = VECTOR ( 'NONE', #246, 1000.000000000000000 ) ;
#99 =( NAMED_UNIT ( * ) SI_UNIT ( $, .STERADIAN. ) SOLID_ANGLE_UNIT ( ) );
#100 = DIRECTION ( 'NONE',  ( -0.000000000000000000, 1.000000000000000000, 0.000000000000000000 ) ) ;
#101 = ORIENTED_EDGE ( 'NONE', *, *, #475, .T. ) ;
#102 = DIRECTION ( 'NONE',  ( 0.000000000000000000, -1.000000000000000000, 0.000000000000000000 ) ) ;
#103 = ORIENTED_EDGE ( 'NONE', *, *, #220, .T. ) ;
#104 = ADVANCED_FACE ( 'NONE', ( #428 ), #517, .F. ) ;
#105 = DIRECTION ( 'NONE',  ( 0.000000000000000000, 0.000000000000000000, 1.000000000000000000 ) ) ;
#106 = EDGE_LOOP ( 'NONE', ( #523, #434, #297, #186 ) ) ;
#107 = CIRCLE ( 'NONE', #127, 6.000000000000000000 ) ;
#108 = EDGE_LOOP ( 'NONE', ( #93, #291 ) ) ;
#109 = CARTESIAN_POINT ( 'NONE',  ( -1.929747179611962047E-15, 2.500000000000000000, 6.000000000000000000 ) ) ;
#110 = EDGE_CURVE ( 'NONE', #155, #488, #238, .T. ) ;
#111 = ORIENTED_EDGE ( 'NONE', *, *, #76, .T. ) ;
#112 = DIRECTION ( 'NONE',  ( 0.000000000000000000, 0.000000000000000000, 1.000000000000000000 ) ) ;
#113 = VERTEX_POINT ( 'NONE', #242 ) ;
#114 = CARTESIAN_POINT ( 'NONE',  ( 13.50000000000000000, 2.500000000000000000, 0.000000000000000000 ) ) ;
#115 = DIRECTION ( 'NONE',  ( 0.000000000000000000, 0.000000000000000000, 1.000000000000000000 ) ) ;
#116 = FACE_BOUND ( 'NONE', #425, .T. ) ;
#117 = AXIS2_PLACEMENT_3D ( 'NONE', #114, #545, #358 ) ;
#118 = CARTESIAN_POINT ( 'NONE',  ( 13.50000000000000000, 0.000000000000000000, -1.500000000000000000 ) ) ;
#119 = DIRECTION ( 'NONE',  ( 0.000000000000000000, 1.000000000000000000, 0.000000000000000000 ) ) ;
#120 = FACE_BOUND ( 'NONE', #405, .T. ) ;
#121 = CARTESIAN_POINT ( 'NONE',  ( -13.50000000000000000, 2.500000000000000000, 0.000000000000000000 ) ) ;
#122 = EDGE_CURVE ( 'NONE', #163, #481, #107, .T. ) ;
#123 = EDGE_CURVE ( 'NONE', #326, #163, #599, .T. ) ;
#124 = FACE_OUTER_BOUND ( 'NONE', #235, .T. ) ;
#125 = CARTESIAN_POINT ( 'NONE',  ( 13.50000000000000000, 2.500000000000000000, 1.500000000000000000 ) ) ;
#126 = VERTEX_POINT ( 'NONE', #278 ) ;
#127 = AXIS2_PLACEMENT_3D ( 'NONE', #424, #388, #145 ) ;
#128 = AXIS2_PLACEMENT_3D ( 'NONE', #397, #153, #436 ) ;
#129 = AXIS2_PLACEMENT_3D ( 'NONE', #365, #448, #67 ) ;
#130 = CARTESIAN_POINT ( 'NONE',  ( 0.000000000000000000, 2.500000000000000000, 0.000000000000000000 ) ) ;
#131 = FACE_BOUND ( 'NONE', #108, .T. ) ;
#132 = CARTESIAN_POINT ( 'NONE',  ( 0.000000000000000000, 0.000000000000000000, 0.000000000000000000 ) ) ;
#133 = EDGE_LOOP ( 'NONE', ( #84, #240, #535, #82 ) ) ;
#134 = CARTESIAN_POINT ( 'NONE',  ( -13.50000000000000000, 0.000000000000000000, 0.000000000000000000 ) ) ;
#135 = CARTESIAN_POINT ( 'NONE',  ( 0.000000000000000000, 2.500000000000000000, 0.000000000000000000 ) ) ;
#136 = ORIENTED_EDGE ( 'NONE', *, *, #319, .T. ) ;
#137 = AXIS2_PLACEMENT_3D ( 'NONE', #130, #179, #36 ) ;
#138 = CIRCLE ( 'NONE', #172, 1.500000000000000000 ) ;
#139 = CARTESIAN_POINT ( 'NONE',  ( 13.90103590411990098, 0.000000000000000000, 2.467624404889590117 ) ) ;
#140 = FACE_OUTER_BOUND ( 'NONE', #355, .T. ) ;
#141 =( LENGTH_UNIT ( ) NAMED_UNIT ( * ) SI_UNIT ( .MILLI., .METRE. ) );
#142 = EDGE_LOOP ( 'NONE', ( #438, #201, #454, #451 ) ) ;
#143 = ADVANCED_FACE ( 'NONE', ( #140 ), #378, .F. ) ;
#144 = DIRECTION ( 'NONE',  ( 0.000000000000000000, 0.000000000000000000, 1.000000000000000000 ) ) ;
#145 = DIRECTION ( 'NONE',  ( 0.000000000000000000, 0.000000000000000000, 1.000000000000000000 ) ) ;
#146 = ORIENTED_EDGE ( 'NONE', *, *, #301, .T. ) ;
#147 = LINE ( 'NONE', #340, #590 ) ;
#148 = DIRECTION ( 'NONE',  ( -3.216245299353270243E-16, 0.000000000000000000, 1.000000000000000000 ) ) ;
#149 = ORIENTED_EDGE ( 'NONE', *, *, #220, .F. ) ;
#150 = CIRCLE ( 'NONE', #202, 6.000000000000000000 ) ;
#151 =( GEOMETRIC_REPRESENTATION_CONTEXT ( 3 ) GLOBAL_UNCERTAINTY_ASSIGNED_CONTEXT ( ( #260 ) ) GLOBAL_UNIT_ASSIGNED_CONTEXT ( ( #87, #399, #99 ) ) REPRESENTATION_CONTEXT ( 'NONE', 'WORKASPACE' ) );
#152 = AXIS2_PLACEMENT_3D ( 'NONE', #383, #184, #144 ) ;
#153 = DIRECTION ( 'NONE',  ( 0.000000000000000000, 1.000000000000000000, 0.000000000000000000 ) ) ;
#154 = EDGE_CURVE ( 'NONE', #63, #488, #449, .T. ) ;
#155 = VERTEX_POINT ( 'NONE', #88 ) ;
#156 = DIRECTION ( 'NONE',  ( 0.000000000000000000, 1.000000000000000000, 0.000000000000000000 ) ) ;
#157 = ORIENTED_EDGE ( 'NONE', *, *, #594, .F. ) ;
#158 = DIRECTION ( 'NONE',  ( 0.000000000000000000, -1.000000000000000000, 0.000000000000000000 ) ) ;
#159 = ORIENTED_EDGE ( 'NONE', *, *, #348, .T. ) ;
#160 = ADVANCED_FACE ( 'NONE', ( #83 ), #283, .F. ) ;
#161 = CARTESIAN_POINT ( 'NONE',  ( -1.929747179611962047E-15, 0.000000000000000000, 6.000000000000000000 ) ) ;
#162 = AXIS2_PLACEMENT_3D ( 'NONE', #489, #409, #296 ) ;
#163 = VERTEX_POINT ( 'NONE', #522 ) ;
#164 = DIRECTION ( 'NONE',  ( 0.000000000000000000, 0.000000000000000000, 1.000000000000000000 ) ) ;
#165 = ORIENTED_EDGE ( 'NONE', *, *, #456, .F. ) ;
#166 = DIRECTION ( 'NONE',  ( 0.000000000000000000, -1.000000000000000000, 0.000000000000000000 ) ) ;
#167 = DIRECTION ( 'NONE',  ( 0.000000000000000000, 1.000000000000000000, 0.000000000000000000 ) ) ;
#168 = DIRECTION ( 'NONE',  ( 0.000000000000000000, -1.000000000000000000, 0.000000000000000000 ) ) ;
#169 = DIRECTION ( 'NONE',  ( 0.000000000000000000, 0.000000000000000000, 1.000000000000000000 ) ) ;
#170 = CLOSED_SHELL ( 'NONE', ( #401, #65, #143, #249, #237, #212, #16, #95, #558, #373, #173, #160, #503, #306, #527, #33, #39, #104 ) ) ;
#171 = ORIENTED_EDGE ( 'NONE', *, *, #380, .F. ) ;
#172 = AXIS2_PLACEMENT_3D ( 'NONE', #506, #452, #363 ) ;
#173 = ADVANCED_FACE ( 'NONE', ( #334 ), #338, .T. ) ;
#174 = LINE ( 'NONE', #316, #265 ) ;
#175 = ORIENTED_EDGE ( 'NONE', *, *, #568, .F. ) ;
#176 = LINE ( 'NONE', #402, #610 ) ;
#177 = DIRECTION ( 'NONE',  ( 0.000000000000000000, 1.000000000000000000, 0.000000000000000000 ) ) ;
#178 = EDGE_CURVE ( 'NONE', #66, #385, #12, .T. ) ;
#179 = DIRECTION ( 'NONE',  ( -0.000000000000000000, 1.000000000000000000, 0.000000000000000000 ) ) ;
#180 = AXIS2_PLACEMENT_3D ( 'NONE', #7, #468, #614 ) ;
#181 = AXIS2_PLACEMENT_3D ( 'NONE', #329, #195, #530 ) ;
#182 = VECTOR ( 'NONE', #547, 1000.000000000000000 ) ;
#183 = DIRECTION ( 'NONE',  ( 0.000000000000000000, 0.000000000000000000, 1.000000000000000000 ) ) ;
#184 = DIRECTION ( 'NONE',  ( 0.000000000000000000, 1.000000000000000000, 0.000000000000000000 ) ) ;
#185 = FACE_OUTER_BOUND ( 'NONE', #27, .T. ) ;
#186 = ORIENTED_EDGE ( 'NONE', *, *, #456, .T. ) ;
#187 = DIRECTION ( 'NONE',  ( 0.000000000000000000, 0.000000000000000000, 1.000000000000000000 ) ) ;
#188 = DIRECTION ( 'NONE',  ( 0.000000000000000000, 1.000000000000000000, 0.000000000000000000 ) ) ;
#189 = DIRECTION ( 'NONE',  ( 0.000000000000000000, -1.000000000000000000, 0.000000000000000000 ) ) ;
#190 = EDGE_CURVE ( 'NONE', #385, #350, #231, .T. ) ;
#191 = ORIENTED_EDGE ( 'NONE', *, *, #366, .F. ) ;
#192 = AXIS2_PLACEMENT_3D ( 'NONE', #421, #612, #183 ) ;
#193 = CIRCLE ( 'NONE', #245, 1.500000000000000000 ) ;
#194 = CARTESIAN_POINT ( 'NONE',  ( 0.7484282643293790338, 0.000000000000000000, 4.605173330855020453 ) ) ;
#195 = DIRECTION ( 'NONE',  ( 0.000000000000000000, 1.000000000000000000, 0.000000000000000000 ) ) ;
#196 = ORIENTED_EDGE ( 'NONE', *, *, #239, .F. ) ;
#197 = DIRECTION ( 'NONE',  ( 0.000000000000000000, -1.000000000000000000, 0.000000000000000000 ) ) ;
#198 = PLANE ( 'NONE',  #223 ) ;
#199 = VERTEX_POINT ( 'NONE', #3 ) ;
#200 = CYLINDRICAL_SURFACE ( 'NONE', #162, 6.000000000000000000 ) ;
#201 = ORIENTED_EDGE ( 'NONE', *, *, #606, .F. ) ;
#202 = AXIS2_PLACEMENT_3D ( 'NONE', #603, #457, #418 ) ;
#203 = CIRCLE ( 'NONE', #192, 1.500000000000000000 ) ;
#204 = PRODUCT_DEFINITION_SHAPE ( 'NONE', 'NONE',  #45 ) ;
#205 = LINE ( 'NONE', #248, #214 ) ;
#206 = EDGE_LOOP ( 'NONE', ( #287, #391, #585, #43 ) ) ;
#207 = CARTESIAN_POINT ( 'NONE',  ( 13.50000000000000000, 0.000000000000000000, 0.000000000000000000 ) ) ;
#208 = EDGE_CURVE ( 'NONE', #339, #21, #437, .T. ) ;
#209 = ORIENTED_EDGE ( 'NONE', *, *, #606, .T. ) ;
#210 = DIRECTION ( 'NONE',  ( 0.000000000000000000, 1.000000000000000000, 0.000000000000000000 ) ) ;
#211 = ORIENTED_EDGE ( 'NONE', *, *, #509, .F. ) ;
#212 = ADVANCED_FACE ( 'NONE', ( #131, #573, #51, #525 ), #431, .F. ) ;
#213 = CARTESIAN_POINT ( 'NONE',  ( 0.000000000000000000, 0.000000000000000000, 0.000000000000000000 ) ) ;
#214 = VECTOR ( 'NONE', #500, 1000.000000000000000 ) ;
#215 = ORIENTED_EDGE ( 'NONE', *, *, #404, .F. ) ;
#216 = DIRECTION ( 'NONE',  ( -0.9870497619558379343, 0.000000000000000000, 0.1604143616479639933 ) ) ;
#217 = VERTEX_POINT ( 'NONE', #483 ) ;
#218 = LINE ( 'NONE', #411, #254 ) ;
#219 = DIRECTION ( 'NONE',  ( -0.9870497619558379343, 0.000000000000000000, 0.1604143616479639933 ) ) ;
#220 = EDGE_CURVE ( 'NONE', #217, #533, #203, .T. ) ;
#221 = ORIENTED_EDGE ( 'NONE', *, *, #348, .F. ) ;
#222 = CARTESIAN_POINT ( 'NONE',  ( -13.90103590411990098, 2.500000000000000000, -2.467624404889590117 ) ) ;
#223 = AXIS2_PLACEMENT_3D ( 'NONE', #422, #376, #42 ) ;
#224 = CARTESIAN_POINT ( 'NONE',  ( 0.000000000000000000, 2.500000000000000000, 0.000000000000000000 ) ) ;
#225 = CYLINDRICAL_SURFACE ( 'NONE', #117, 2.500000000000000000 ) ;
#226 = EDGE_CURVE ( 'NONE', #332, #396, #325, .T. ) ;
#227 = DIRECTION ( 'NONE',  ( 0.000000000000000000, 1.000000000000000000, 0.000000000000000000 ) ) ;
#228 = DIRECTION ( 'NONE',  ( 1.000000000000000000, 0.000000000000000000, 0.000000000000000000 ) ) ;
#229 = CARTESIAN_POINT ( 'NONE',  ( 4.472135954999530760, 2.500000000000000000, 4.000000000000000000 ) ) ;
#230 = VERTEX_POINT ( 'NONE', #584 ) ;
#231 = LINE ( 'NONE', #46, #359 ) ;
#232 = DIRECTION ( 'NONE',  ( 0.000000000000000000, 1.000000000000000000, 0.000000000000000000 ) ) ;
#233 = VECTOR ( 'NONE', #216, 1000.000000000000000 ) ;
#234 = DIRECTION ( 'NONE',  ( 0.1604143616479639933, 0.000000000000000000, -0.9870497619558379343 ) ) ;
#235 = EDGE_LOOP ( 'NONE', ( #157, #18, #55, #97 ) ) ;
#236 = FILL_AREA_STYLE ('',( #572 ) ) ;
#237 = ADVANCED_FACE ( 'NONE', ( #487 ), #453, .T. ) ;
#238 = LINE ( 'NONE', #566, #98 ) ;
#239 = EDGE_CURVE ( 'NONE', #339, #342, #433, .T. ) ;
#240 = ORIENTED_EDGE ( 'NONE', *, *, #239, .T. ) ;
#241 = DIRECTION ( 'NONE',  ( 0.000000000000000000, -1.000000000000000000, 0.000000000000000000 ) ) ;
#242 = CARTESIAN_POINT ( 'NONE',  ( 4.472135954999579610, 0.000000000000000000, -4.000000000000000000 ) ) ;
#243 = ORIENTED_EDGE ( 'NONE', *, *, #336, .T. ) ;
#244 = VECTOR ( 'NONE', #407, 1000.000000000000000 ) ;
#245 = AXIS2_PLACEMENT_3D ( 'NONE', #416, #596, #164 ) ;
#246 = DIRECTION ( 'NONE',  ( 0.000000000000000000, 1.000000000000000000, 0.000000000000000000 ) ) ;
#247 = ORIENTED_EDGE ( 'NONE', *, *, #190, .F. ) ;
#248 = CARTESIAN_POINT ( 'NONE',  ( 4.472135954999530760, 2.500000000000000000, 4.000000000000000000 ) ) ;
#249 = ADVANCED_FACE ( 'NONE', ( #534 ), #200, .T. ) ;
#250 = VERTEX_POINT ( 'NONE', #56 ) ;
#251 = CARTESIAN_POINT ( 'NONE',  ( -13.50000000000000000, 0.000000000000000000, 1.500000000000000000 ) ) ;
#252 = ORIENTED_EDGE ( 'NONE', *, *, #414, .F. ) ;
#253 = CIRCLE ( 'NONE', #264, 1.500000000000000000 ) ;
#254 = VECTOR ( 'NONE', #600, 1000.000000000000000 ) ;
#255 = CARTESIAN_POINT ( 'NONE',  ( 1.836970198721029934E-16, 2.500000000000000000, 1.500000000000000000 ) ) ;
#256 = ORIENTED_EDGE ( 'NONE', *, *, #429, .F. ) ;
#257 = EDGE_CURVE ( 'NONE', #332, #512, #85, .T. ) ;
#258 = ORIENTED_EDGE ( 'NONE', *, *, #123, .T. ) ;
#259 = FACE_OUTER_BOUND ( 'NONE', #382, .T. ) ;
#260 = UNCERTAINTY_MEASURE_WITH_UNIT (LENGTH_MEASURE( 1.000000000000000082E-05 ), #87, 'distance_accuracy_value', 'NONE');
#261 = ORIENTED_EDGE ( 'NONE', *, *, #435, .F. ) ;
#262 = CARTESIAN_POINT ( 'NONE',  ( -4.472135954999579610, 2.500000000000000000, -4.000000000000000000 ) ) ;
#263 = AXIS2_PLACEMENT_3D ( 'NONE', #480, #92, #384 ) ;
#264 = AXIS2_PLACEMENT_3D ( 'NONE', #582, #156, #105 ) ;
#265 = VECTOR ( 'NONE', #30, 1000.000000000000000 ) ;
#266 = ORIENTED_EDGE ( 'NONE', *, *, #4, .F. ) ;
#267 = CARTESIAN_POINT ( 'NONE',  ( -4.472135954999539642, 0.000000000000000000, 4.000000000000000000 ) ) ;
#268 = EDGE_CURVE ( 'NONE', #217, #493, #10, .T. ) ;
#269 = CARTESIAN_POINT ( 'NONE',  ( 13.90103590411990098, 2.500000000000000000, 2.467624404889590117 ) ) ;
#270 = ORIENTED_EDGE ( 'NONE', *, *, #520, .F. ) ;
#271 = CARTESIAN_POINT ( 'NONE',  ( -4.472135954999579610, 2.500000000000000000, -4.000000000000000000 ) ) ;
#272 = ORIENTED_EDGE ( 'NONE', *, *, #419, .F. ) ;
#273 = CARTESIAN_POINT ( 'NONE',  ( -13.50000000000000000, 2.500000000000000000, 1.500000000000000000 ) ) ;
#274 = EDGE_CURVE ( 'NONE', #396, #230, #516, .T. ) ;
#275 = DIRECTION ( 'NONE',  ( 0.000000000000000000, -1.000000000000000000, 0.000000000000000000 ) ) ;
#276 = FACE_OUTER_BOUND ( 'NONE', #423, .T. ) ;
#277 = DIRECTION ( 'NONE',  ( 0.000000000000000000, 0.000000000000000000, -1.000000000000000000 ) ) ;
#278 = CARTESIAN_POINT ( 'NONE',  ( 0.000000000000000000, 0.000000000000000000, -6.000000000000000000 ) ) ;
#279 = VECTOR ( 'NONE', #553, 1000.000000000000000 ) ;
#280 = ORIENTED_EDGE ( 'NONE', *, *, #602, .F. ) ;
#281 = CARTESIAN_POINT ( 'NONE',  ( -4.472135954999539642, 2.500000000000000000, 4.000000000000000000 ) ) ;
#282 = EDGE_CURVE ( 'NONE', #155, #477, #540, .T. ) ;
#283 = PLANE ( 'NONE',  #549 ) ;
#284 = ORIENTED_EDGE ( 'NONE', *, *, #58, .T. ) ;
#285 = CARTESIAN_POINT ( 'NONE',  ( 0.000000000000000000, 2.500000000000000000, -1.500000000000000000 ) ) ;
#286 = DIRECTION ( 'NONE',  ( 0.000000000000000000, -1.000000000000000000, 0.000000000000000000 ) ) ;
#287 = ORIENTED_EDGE ( 'NONE', *, *, #615, .F. ) ;
#288 = FACE_OUTER_BOUND ( 'NONE', #57, .T. ) ;
#289 = EDGE_CURVE ( 'NONE', #533, #217, #31, .T. ) ;
#290 = DIRECTION ( 'NONE',  ( 0.000000000000000000, 1.000000000000000000, 0.000000000000000000 ) ) ;
#291 = ORIENTED_EDGE ( 'NONE', *, *, #615, .T. ) ;
#292 = AXIS2_PLACEMENT_3D ( 'NONE', #9, #210, #187 ) ;
#293 = DIRECTION ( 'NONE',  ( 0.000000000000000000, 1.000000000000000000, 0.000000000000000000 ) ) ;
#294 = DIRECTION ( 'NONE',  ( 1.000000000000000000, 0.000000000000000000, 0.000000000000000000 ) ) ;
#295 = VERTEX_POINT ( 'NONE', #504 ) ;
#296 = DIRECTION ( 'NONE',  ( 0.000000000000000000, 0.000000000000000000, -1.000000000000000000 ) ) ;
#297 = ORIENTED_EDGE ( 'NONE', *, *, #485, .T. ) ;
#298 = CARTESIAN_POINT ( 'NONE',  ( 13.90103590411990098, 2.500000000000000000, 2.467624404889590117 ) ) ;
#299 = ORIENTED_EDGE ( 'NONE', *, *, #4, .T. ) ;
#300 = VECTOR ( 'NONE', #515, 1000.000000000000000 ) ;
#301 = EDGE_CURVE ( 'NONE', #163, #126, #538, .T. ) ;
#302 = ORIENTED_EDGE ( 'NONE', *, *, #289, .T. ) ;
#303 = LINE ( 'NONE', #471, #561 ) ;
#304 = ORIENTED_EDGE ( 'NONE', *, *, #76, .F. ) ;
#305 = DIRECTION ( 'NONE',  ( 0.000000000000000000, 0.000000000000000000, 1.000000000000000000 ) ) ;
#306 = ADVANCED_FACE ( 'NONE', ( #73 ), #60, .T. ) ;
#307 = VERTEX_POINT ( 'NONE', #310 ) ;
#308 = LINE ( 'NONE', #313, #311 ) ;
#309 = AXIS2_PLACEMENT_3D ( 'NONE', #317, #227, #37 ) ;
#310 = CARTESIAN_POINT ( 'NONE',  ( -4.472135954999579610, 0.000000000000000000, -4.000000000000000000 ) ) ;
#311 = VECTOR ( 'NONE', #318, 1000.000000000000000 ) ;
#312 = DIRECTION ( 'NONE',  ( 0.000000000000000000, 0.000000000000000000, 1.000000000000000000 ) ) ;
#313 = CARTESIAN_POINT ( 'NONE',  ( -4.472135954999539642, 2.500000000000000000, 4.000000000000000000 ) ) ;
#314 = DIRECTION ( 'NONE',  ( 0.000000000000000000, 1.000000000000000000, 0.000000000000000000 ) ) ;
#315 = PLANE ( 'NONE',  #137 ) ;
#316 = CARTESIAN_POINT ( 'NONE',  ( 0.7484282643293840298, 2.500000000000000000, -4.605173330855029334 ) ) ;
#317 = CARTESIAN_POINT ( 'NONE',  ( 0.000000000000000000, 0.000000000000000000, 0.000000000000000000 ) ) ;
#318 = DIRECTION ( 'NONE',  ( 0.000000000000000000, -1.000000000000000000, 0.000000000000000000 ) ) ;
#319 = EDGE_CURVE ( 'NONE', #21, #250, #205, .T. ) ;
#320 = AXIS2_PLACEMENT_3D ( 'NONE', #536, #158, #441 ) ;
#321 = CARTESIAN_POINT ( 'NONE',  ( -13.90103590411990098, 2.500000000000000000, -2.467624404889590117 ) ) ;
#322 = AXIS2_PLACEMENT_3D ( 'NONE', #28, #591, #25 ) ;
#323 = APPLICATION_PROTOCOL_DEFINITION ( 'draft international standard', 'automotive_design', 1998, #588 ) ;
#324 = CARTESIAN_POINT ( 'NONE',  ( -0.7484282643293840298, 0.000000000000000000, -4.605173330855029334 ) ) ;
#325 = LINE ( 'NONE', #269, #279 ) ;
#326 = VERTEX_POINT ( 'NONE', #394 ) ;
#327 = EDGE_CURVE ( 'NONE', #362, #493, #253, .T. ) ;
#328 = DIRECTION ( 'NONE',  ( 0.000000000000000000, 1.000000000000000000, 0.000000000000000000 ) ) ;
#329 = CARTESIAN_POINT ( 'NONE',  ( 0.000000000000000000, 2.500000000000000000, 0.000000000000000000 ) ) ;
#330 = VECTOR ( 'NONE', #102, 1000.000000000000000 ) ;
#331 = DIRECTION ( 'NONE',  ( 0.000000000000000000, 0.000000000000000000, 1.000000000000000000 ) ) ;
#332 = VERTEX_POINT ( 'NONE', #298 ) ;
#333 = SURFACE_SIDE_STYLE ('',( #1 ) ) ;
#334 = FACE_OUTER_BOUND ( 'NONE', #581, .T. ) ;
#335 = VERTEX_POINT ( 'NONE', #255 ) ;
#336 = EDGE_CURVE ( 'NONE', #295, #574, #70, .T. ) ;
#337 = DIRECTION ( 'NONE',  ( 0.000000000000000000, 0.000000000000000000, 1.000000000000000000 ) ) ;
#338 = CYLINDRICAL_SURFACE ( 'NONE', #412, 6.000000000000000000 ) ;
#339 = VERTEX_POINT ( 'NONE', #109 ) ;
#340 = CARTESIAN_POINT ( 'NONE',  ( 0.7484282643293840298, 0.000000000000000000, -4.605173330855029334 ) ) ;
#341 = CARTESIAN_POINT ( 'NONE',  ( 0.000000000000000000, 0.000000000000000000, 0.000000000000000000 ) ) ;
#342 = VERTEX_POINT ( 'NONE', #161 ) ;
#343 =( GEOMETRIC_REPRESENTATION_CONTEXT ( 3 ) GLOBAL_UNCERTAINTY_ASSIGNED_CONTEXT ( ( #20 ) ) GLOBAL_UNIT_ASSIGNED_CONTEXT ( ( #141, #469, #35 ) ) REPRESENTATION_CONTEXT ( 'NONE', 'WORKASPACE' ) );
#344 = CARTESIAN_POINT ( 'NONE',  ( 0.000000000000000000, 2.500000000000000000, -6.000000000000000000 ) ) ;
#345 = ORIENTED_EDGE ( 'NONE', *, *, #520, .T. ) ;
#346 = DIRECTION ( 'NONE',  ( 0.000000000000000000, 1.000000000000000000, 0.000000000000000000 ) ) ;
#347 = EDGE_LOOP ( 'NONE', ( #211, #14, #497, #299, #24, #191, #490, #619, #258, #563 ) ) ;
#348 = EDGE_CURVE ( 'NONE', #493, #362, #392, .T. ) ;
#349 = CARTESIAN_POINT ( 'NONE',  ( -13.50000000000000000, 0.000000000000000000, 0.000000000000000000 ) ) ;
#350 = VERTEX_POINT ( 'NONE', #281 ) ;
#351 = CARTESIAN_POINT ( 'NONE',  ( -13.50000000000000000, 2.500000000000000000, -1.500000000000000000 ) ) ;
#352 = AXIS2_PLACEMENT_3D ( 'NONE', #15, #346, #597 ) ;
#353 = ORIENTED_EDGE ( 'NONE', *, *, #268, .T. ) ;
#354 = CARTESIAN_POINT ( 'NONE',  ( 13.90103590411990098, 2.500000000000000000, -2.467624404889599887 ) ) ;
#355 = EDGE_LOOP ( 'NONE', ( #17, #61, #8, #215 ) ) ;
#356 = CARTESIAN_POINT ( 'NONE',  ( 13.50000000000000000, 0.000000000000000000, -1.500000000000000000 ) ) ;
#357 = ORIENTED_EDGE ( 'NONE', *, *, #282, .F. ) ;
#358 = DIRECTION ( 'NONE',  ( 0.000000000000000000, 0.000000000000000000, -1.000000000000000000 ) ) ;
#359 = VECTOR ( 'NONE', #476, 1000.000000000000000 ) ;
#360 = CARTESIAN_POINT ( 'NONE',  ( -0.7484282643293800330, 0.000000000000000000, 4.605173330855020453 ) ) ;
#361 = CIRCLE ( 'NONE', #413, 6.000000000000000000 ) ;
#362 = VERTEX_POINT ( 'NONE', #351 ) ;
#363 = DIRECTION ( 'NONE',  ( 0.000000000000000000, 0.000000000000000000, 1.000000000000000000 ) ) ;
#364 = CARTESIAN_POINT ( 'NONE',  ( -13.90103590411990098, 0.000000000000000000, -2.467624404889590117 ) ) ;
#365 = CARTESIAN_POINT ( 'NONE',  ( 0.000000000000000000, 0.000000000000000000, 0.000000000000000000 ) ) ;
#366 = EDGE_CURVE ( 'NONE', #332, #21, #303, .T. ) ;
#367 = DIRECTION ( 'NONE',  ( 0.000000000000000000, 0.000000000000000000, 1.000000000000000000 ) ) ;
#368 = AXIS2_PLACEMENT_3D ( 'NONE', #224, #275, #277 ) ;
#369 = STYLED_ITEM ( 'NONE', ( #542 ), #371 ) ;
#370 = LINE ( 'NONE', #324, #244 ) ;
#371 = MANIFOLD_SOLID_BREP ( 'Servo MG996R Horn.step', #170 ) ;
#372 = CARTESIAN_POINT ( 'NONE',  ( 13.50000000000000000, 2.500000000000000000, 0.000000000000000000 ) ) ;
#373 = ADVANCED_FACE ( 'NONE', ( #259 ), #565, .T. ) ;
#374 = DIRECTION ( 'NONE',  ( 0.000000000000000000, 0.000000000000000000, 1.000000000000000000 ) ) ;
#375 = CARTESIAN_POINT ( 'NONE',  ( -13.50000000000000000, 2.500000000000000000, 0.000000000000000000 ) ) ;
#376 = DIRECTION ( 'NONE',  ( -0.1604143616479639933, 0.000000000000000000, 0.9870497619558379343 ) ) ;
#377 = ORIENTED_EDGE ( 'NONE', *, *, #419, .T. ) ;
#378 = CYLINDRICAL_SURFACE ( 'NONE', #180, 1.500000000000000000 ) ;
#379 = AXIS2_PLACEMENT_3D ( 'NONE', #207, #119, #169 ) ;
#380 = EDGE_CURVE ( 'NONE', #335, #199, #460, .T. ) ;
#381 = AXIS2_PLACEMENT_3D ( 'NONE', #560, #232, #374 ) ;
#382 = EDGE_LOOP ( 'NONE', ( #261, #539, #41, #136 ) ) ;
#383 = CARTESIAN_POINT ( 'NONE',  ( 0.000000000000000000, 2.500000000000000000, 0.000000000000000000 ) ) ;
#384 = DIRECTION ( 'NONE',  ( 0.000000000000000000, 0.000000000000000000, 1.000000000000000000 ) ) ;
#385 = VERTEX_POINT ( 'NONE', #91 ) ;
#386 = EDGE_CURVE ( 'NONE', #574, #342, #532, .T. ) ;
#387 = CARTESIAN_POINT ( 'NONE',  ( -13.50000000000000000, 0.000000000000000000, -1.500000000000000000 ) ) ;
#388 = DIRECTION ( 'NONE',  ( 0.000000000000000000, 1.000000000000000000, 0.000000000000000000 ) ) ;
#389 = ORIENTED_EDGE ( 'NONE', *, *, #327, .T. ) ;
#390 = DIRECTION ( 'NONE',  ( 0.000000000000000000, 1.000000000000000000, 0.000000000000000000 ) ) ;
#391 = ORIENTED_EDGE ( 'NONE', *, *, #543, .T. ) ;
#392 = CIRCLE ( 'NONE', #459, 1.500000000000000000 ) ;
#393 = VECTOR ( 'NONE', #19, 1000.000000000000000 ) ;
#394 = CARTESIAN_POINT ( 'NONE',  ( 4.472135954999579610, 2.500000000000000000, -4.000000000000000000 ) ) ;
#395 = EDGE_CURVE ( 'NONE', #342, #250, #361, .T. ) ;
#396 = VERTEX_POINT ( 'NONE', #139 ) ;
#397 = CARTESIAN_POINT ( 'NONE',  ( 13.50000000000000000, 0.000000000000000000, 0.000000000000000000 ) ) ;
#398 = ORIENTED_EDGE ( 'NONE', *, *, #90, .T. ) ;
#399 =( NAMED_UNIT ( * ) PLANE_ANGLE_UNIT ( ) SI_UNIT ( $, .RADIAN. ) );
#400 = ORIENTED_EDGE ( 'NONE', *, *, #550, .F. ) ;
#401 = ADVANCED_FACE ( 'NONE', ( #288 ), #44, .F. ) ;
#402 = CARTESIAN_POINT ( 'NONE',  ( 13.90103590411990098, 2.500000000000000000, -2.467624404889599887 ) ) ;
#403 = VECTOR ( 'NONE', #168, 1000.000000000000000 ) ;
#404 = EDGE_CURVE ( 'NONE', #199, #5, #49, .T. ) ;
#405 = EDGE_LOOP ( 'NONE', ( #554, #430 ) ) ;
#406 = FACE_OUTER_BOUND ( 'NONE', #495, .T. ) ;
#407 = DIRECTION ( 'NONE',  ( 0.9870497619558379343, 0.000000000000000000, -0.1604143616479639933 ) ) ;
#408 = DIRECTION ( 'NONE',  ( 0.000000000000000000, 1.000000000000000000, 0.000000000000000000 ) ) ;
#409 = DIRECTION ( 'NONE',  ( 0.000000000000000000, -1.000000000000000000, 0.000000000000000000 ) ) ;
#410 = CYLINDRICAL_SURFACE ( 'NONE', #578, 1.500000000000000000 ) ;
#411 = CARTESIAN_POINT ( 'NONE',  ( 1.836970198721029934E-16, 2.500000000000000000, 1.500000000000000000 ) ) ;
#412 = AXIS2_PLACEMENT_3D ( 'NONE', #135, #286, #148 ) ;
#413 = AXIS2_PLACEMENT_3D ( 'NONE', #426, #293, #6 ) ;
#414 = EDGE_CURVE ( 'NONE', #533, #362, #482, .T. ) ;
#415 = ORIENTED_EDGE ( 'NONE', *, *, #414, .T. ) ;
#416 = CARTESIAN_POINT ( 'NONE',  ( 13.50000000000000000, 2.500000000000000000, 0.000000000000000000 ) ) ;
#417 = CARTESIAN_POINT ( 'NONE',  ( 13.50000000000000000, 0.000000000000000000, 0.000000000000000000 ) ) ;
#418 = DIRECTION ( 'NONE',  ( 0.000000000000000000, 0.000000000000000000, 1.000000000000000000 ) ) ;
#419 = EDGE_CURVE ( 'NONE', #385, #295, #474, .T. ) ;
#420 = CIRCLE ( 'NONE', #129, 6.000000000000000000 ) ;
#421 = CARTESIAN_POINT ( 'NONE',  ( -13.50000000000000000, 0.000000000000000000, 0.000000000000000000 ) ) ;
#422 = CARTESIAN_POINT ( 'NONE',  ( 0.7484282643293840298, 2.500000000000000000, -4.605173330855029334 ) ) ;
#423 = EDGE_LOOP ( 'NONE', ( #11, #357, #52, #101 ) ) ;
#424 = CARTESIAN_POINT ( 'NONE',  ( 0.000000000000000000, 2.500000000000000000, 0.000000000000000000 ) ) ;
#425 = EDGE_LOOP ( 'NONE', ( #546, #171 ) ) ;
#426 = CARTESIAN_POINT ( 'NONE',  ( 0.000000000000000000, 0.000000000000000000, 0.000000000000000000 ) ) ;
#427 = AXIS2_PLACEMENT_3D ( 'NONE', #595, #167, #312 ) ;
#428 = FACE_OUTER_BOUND ( 'NONE', #444, .T. ) ;
#429 = EDGE_CURVE ( 'NONE', #230, #113, #147, .T. ) ;
#430 = ORIENTED_EDGE ( 'NONE', *, *, #154, .F. ) ;
#431 = PLANE ( 'NONE',  #491 ) ;
#432 = ORIENTED_EDGE ( 'NONE', *, *, #429, .T. ) ;
#433 = LINE ( 'NONE', #26, #330 ) ;
#434 = ORIENTED_EDGE ( 'NONE', *, *, #123, .F. ) ;
#435 = EDGE_CURVE ( 'NONE', #396, #250, #53, .T. ) ;
#436 = DIRECTION ( 'NONE',  ( 0.000000000000000000, 0.000000000000000000, 1.000000000000000000 ) ) ;
#437 = CIRCLE ( 'NONE', #181, 6.000000000000000000 ) ;
#438 = ORIENTED_EDGE ( 'NONE', *, *, #274, .T. ) ;
#439 = AXIS2_PLACEMENT_3D ( 'NONE', #13, #54, #219 ) ;
#440 = VECTOR ( 'NONE', #197, 1000.000000000000000 ) ;
#441 = DIRECTION ( 'NONE',  ( -3.216245299353270243E-16, 0.000000000000000000, 1.000000000000000000 ) ) ;
#442 = ORIENTED_EDGE ( 'NONE', *, *, #327, .F. ) ;
#443 = PRODUCT_RELATED_PRODUCT_CATEGORY ( 'part', '', ( #579 ) ) ;
#444 = EDGE_LOOP ( 'NONE', ( #252, #149, #353, #159 ) ) ;
#445 = DIRECTION ( 'NONE',  ( 0.9870497619558379343, 0.000000000000000000, -0.1604143616479639933 ) ) ;
#446 = ORIENTED_EDGE ( 'NONE', *, *, #90, .F. ) ;
#447 = AXIS2_PLACEMENT_3D ( 'NONE', #417, #177, #367 ) ;
#448 = DIRECTION ( 'NONE',  ( 0.000000000000000000, 1.000000000000000000, 0.000000000000000000 ) ) ;
#449 = CIRCLE ( 'NONE', #466, 1.500000000000000000 ) ;
#450 = VECTOR ( 'NONE', #498, 1000.000000000000000 ) ;
#451 = ORIENTED_EDGE ( 'NONE', *, *, #226, .T. ) ;
#452 = DIRECTION ( 'NONE',  ( 0.000000000000000000, 1.000000000000000000, 0.000000000000000000 ) ) ;
#453 = CYLINDRICAL_SURFACE ( 'NONE', #320, 6.000000000000000000 ) ;
#454 = ORIENTED_EDGE ( 'NONE', *, *, #257, .F. ) ;
#455 = FACE_OUTER_BOUND ( 'NONE', #106, .T. ) ;
#456 = EDGE_CURVE ( 'NONE', #113, #126, #420, .T. ) ;
#457 = DIRECTION ( 'NONE',  ( 0.000000000000000000, 1.000000000000000000, 0.000000000000000000 ) ) ;
#458 = LINE ( 'NONE', #271, #393 ) ;
#459 = AXIS2_PLACEMENT_3D ( 'NONE', #375, #617, #337 ) ;
#460 = CIRCLE ( 'NONE', #152, 1.500000000000000000 ) ;
#461 = CYLINDRICAL_SURFACE ( 'NONE', #447, 1.500000000000000000 ) ;
#462 = APPLICATION_PROTOCOL_DEFINITION ( 'draft international standard', 'automotive_design', 1998, #32 ) ;
#463 = CARTESIAN_POINT ( 'NONE',  ( 1.836970198721029934E-16, 0.000000000000000000, 1.500000000000000000 ) ) ;
#464 = PRODUCT_CONTEXT ( 'NONE', #32, 'mechanical' ) ;
#465 = CARTESIAN_POINT ( 'NONE',  ( 13.50000000000000000, 0.000000000000000000, 0.000000000000000000 ) ) ;
#466 = AXIS2_PLACEMENT_3D ( 'NONE', #372, #188, #564 ) ;
#467 = CIRCLE ( 'NONE', #499, 1.500000000000000000 ) ;
#468 = DIRECTION ( 'NONE',  ( 0.000000000000000000, -1.000000000000000000, 0.000000000000000000 ) ) ;
#469 =( NAMED_UNIT ( * ) PLANE_ANGLE_UNIT ( ) SI_UNIT ( $, .RADIAN. ) );
#470 = ORIENTED_EDGE ( 'NONE', *, *, #178, .F. ) ;
#471 = CARTESIAN_POINT ( 'NONE',  ( 0.7484282643293790338, 2.500000000000000000, 4.605173330855020453 ) ) ;
#472 = CARTESIAN_POINT ( 'NONE',  ( 0.000000000000000000, 2.500000000000000000, 0.000000000000000000 ) ) ;
#473 = ORIENTED_EDGE ( 'NONE', *, *, #550, .T. ) ;
#474 = LINE ( 'NONE', #575, #611 ) ;
#475 = EDGE_CURVE ( 'NONE', #488, #63, #193, .T. ) ;
#476 = DIRECTION ( 'NONE',  ( 0.9870497619558379343, 0.000000000000000000, 0.1604143616479639933 ) ) ;
#477 = VERTEX_POINT ( 'NONE', #118 ) ;
#478 = DIRECTION ( 'NONE',  ( 0.000000000000000000, 0.000000000000000000, 1.000000000000000000 ) ) ;
#479 = AXIS2_PLACEMENT_3D ( 'NONE', #472, #618, #40 ) ;
#480 = CARTESIAN_POINT ( 'NONE',  ( -13.50000000000000000, 2.500000000000000000, 0.000000000000000000 ) ) ;
#481 = VERTEX_POINT ( 'NONE', #262 ) ;
#482 = LINE ( 'NONE', #387, #2 ) ;
#483 = CARTESIAN_POINT ( 'NONE',  ( -13.50000000000000000, 0.000000000000000000, 1.500000000000000000 ) ) ;
#484 = EDGE_LOOP ( 'NONE', ( #103, #302 ) ) ;
#485 = EDGE_CURVE ( 'NONE', #326, #113, #502, .T. ) ;
#486 = ADVANCED_BREP_SHAPE_REPRESENTATION ( 'Servo MG996R Horn_Servo MG996R Horn', ( #371, #552 ), #343 ) ;
#487 = FACE_OUTER_BOUND ( 'NONE', #133, .T. ) ;
#488 = VERTEX_POINT ( 'NONE', #125 ) ;
#489 = CARTESIAN_POINT ( 'NONE',  ( 0.000000000000000000, 2.500000000000000000, 0.000000000000000000 ) ) ;
#490 = ORIENTED_EDGE ( 'NONE', *, *, #257, .T. ) ;
#491 = AXIS2_PLACEMENT_3D ( 'NONE', #341, #100, #294 ) ;
#492 = EDGE_CURVE ( 'NONE', #74, #5, #138, .T. ) ;
#493 = VERTEX_POINT ( 'NONE', #273 ) ;
#494 = EDGE_CURVE ( 'NONE', #350, #574, #308, .T. ) ;
#495 = EDGE_LOOP ( 'NONE', ( #398, #272, #470, #473 ) ) ;
#496 = CARTESIAN_POINT ( 'NONE',  ( -0.7484282643293840298, 2.500000000000000000, -4.605173330855029334 ) ) ;
#497 = ORIENTED_EDGE ( 'NONE', *, *, #190, .T. ) ;
#498 = DIRECTION ( 'NONE',  ( 0.000000000000000000, 1.000000000000000000, 0.000000000000000000 ) ) ;
#499 = AXIS2_PLACEMENT_3D ( 'NONE', #69, #408, #112 ) ;
#500 = DIRECTION ( 'NONE',  ( 0.000000000000000000, -1.000000000000000000, 0.000000000000000000 ) ) ;
#501 = ORIENTED_EDGE ( 'NONE', *, *, #494, .F. ) ;
#502 = LINE ( 'NONE', #557, #403 ) ;
#503 = ADVANCED_FACE ( 'NONE', ( #406 ), #555, .T. ) ;
#504 = CARTESIAN_POINT ( 'NONE',  ( -13.90103590411990098, 0.000000000000000000, 2.467624404889590117 ) ) ;
#505 = CYLINDRICAL_SURFACE ( 'NONE', #368, 1.500000000000000000 ) ;
#506 = CARTESIAN_POINT ( 'NONE',  ( 0.000000000000000000, 0.000000000000000000, 0.000000000000000000 ) ) ;
#507 = FACE_OUTER_BOUND ( 'NONE', #206, .T. ) ;
#508 = CYLINDRICAL_SURFACE ( 'NONE', #322, 6.000000000000000000 ) ;
#509 = EDGE_CURVE ( 'NONE', #66, #481, #23, .T. ) ;
#510 = AXIS2_PLACEMENT_3D ( 'NONE', #213, #551, #305 ) ;
#511 = ORIENTED_EDGE ( 'NONE', *, *, #274, .F. ) ;
#512 = VERTEX_POINT ( 'NONE', #354 ) ;
#513 = CARTESIAN_POINT ( 'NONE',  ( -0.7484282643293800330, 2.500000000000000000, 4.605173330855020453 ) ) ;
#514 = EDGE_LOOP ( 'NONE', ( #111, #175, #165, #256, #511, #592, #583, #616, #526, #446 ) ) ;
#515 = DIRECTION ( 'NONE',  ( 0.9870497619558379343, 0.000000000000000000, 0.1604143616479639933 ) ) ;
#516 = CIRCLE ( 'NONE', #379, 2.500000000000000000 ) ;
#517 = CYLINDRICAL_SURFACE ( 'NONE', #48, 1.500000000000000000 ) ;
#518 = SHAPE_DEFINITION_REPRESENTATION ( #204, #486 ) ;
#519 = ORIENTED_EDGE ( 'NONE', *, *, #492, .T. ) ;
#520 = EDGE_CURVE ( 'NONE', #481, #307, #458, .T. ) ;
#521 = DIRECTION ( 'NONE',  ( 0.1604143616479639933, 0.000000000000000000, 0.9870497619558379343 ) ) ;
#522 = CARTESIAN_POINT ( 'NONE',  ( 0.000000000000000000, 2.500000000000000000, -6.000000000000000000 ) ) ;
#523 = ORIENTED_EDGE ( 'NONE', *, *, #301, .F. ) ;
#524 = SURFACE_STYLE_USAGE ( .BOTH. , #333 ) ;
#525 = FACE_OUTER_BOUND ( 'NONE', #514, .T. ) ;
#526 = ORIENTED_EDGE ( 'NONE', *, *, #336, .F. ) ;
#527 = ADVANCED_FACE ( 'NONE', ( #455 ), #508, .T. ) ;
#528 = DIRECTION ( 'NONE',  ( -0.9870497619558379343, 0.000000000000000000, -0.1604143616479639933 ) ) ;
#529 = VECTOR ( 'NONE', #580, 1000.000000000000000 ) ;
#530 = DIRECTION ( 'NONE',  ( 0.000000000000000000, 0.000000000000000000, 1.000000000000000000 ) ) ;
#531 = AXIS2_PLACEMENT_3D ( 'NONE', #349, #314, #115 ) ;
#532 = CIRCLE ( 'NONE', #292, 6.000000000000000000 ) ;
#533 = VERTEX_POINT ( 'NONE', #593 ) ;
#534 = FACE_OUTER_BOUND ( 'NONE', #571, .T. ) ;
#535 = ORIENTED_EDGE ( 'NONE', *, *, #395, .T. ) ;
#536 = CARTESIAN_POINT ( 'NONE',  ( 0.000000000000000000, 2.500000000000000000, 0.000000000000000000 ) ) ;
#537 = ORIENTED_EDGE ( 'NONE', *, *, #509, .T. ) ;
#538 = LINE ( 'NONE', #344, #529 ) ;
#539 = ORIENTED_EDGE ( 'NONE', *, *, #226, .F. ) ;
#540 = CIRCLE ( 'NONE', #128, 1.500000000000000000 ) ;
#541 = CIRCLE ( 'NONE', #510, 6.000000000000000000 ) ;
#542 = PRESENTATION_STYLE_ASSIGNMENT (( #524 ) ) ;
#543 = EDGE_CURVE ( 'NONE', #477, #63, #75, .T. ) ;
#544 = ORIENTED_EDGE ( 'NONE', *, *, #268, .F. ) ;
#545 = DIRECTION ( 'NONE',  ( 0.000000000000000000, -1.000000000000000000, 0.000000000000000000 ) ) ;
#546 = ORIENTED_EDGE ( 'NONE', *, *, #586, .F. ) ;
#547 = DIRECTION ( 'NONE',  ( 0.000000000000000000, -1.000000000000000000, 0.000000000000000000 ) ) ;
#548 = FACE_BOUND ( 'NONE', #567, .T. ) ;
#549 = AXIS2_PLACEMENT_3D ( 'NONE', #513, #234, #570 ) ;
#550 = EDGE_CURVE ( 'NONE', #66, #47, #79, .T. ) ;
#551 = DIRECTION ( 'NONE',  ( 0.000000000000000000, 1.000000000000000000, 0.000000000000000000 ) ) ;
#552 = AXIS2_PLACEMENT_3D ( 'NONE', #132, #331, #228 ) ;
#553 = DIRECTION ( 'NONE',  ( 0.000000000000000000, -1.000000000000000000, 0.000000000000000000 ) ) ;
#554 = ORIENTED_EDGE ( 'NONE', *, *, #475, .F. ) ;
#555 = CYLINDRICAL_SURFACE ( 'NONE', #22, 2.500000000000000000 ) ;
#556 = EDGE_LOOP ( 'NONE', ( #243, #501, #247, #377 ) ) ;
#557 = CARTESIAN_POINT ( 'NONE',  ( 4.472135954999579610, 2.500000000000000000, -4.000000000000000000 ) ) ;
#558 = ADVANCED_FACE ( 'NONE', ( #604 ), #225, .T. ) ;
#559 = FACE_OUTER_BOUND ( 'NONE', #347, .T. ) ;
#560 = CARTESIAN_POINT ( 'NONE',  ( 13.50000000000000000, 0.000000000000000000, 0.000000000000000000 ) ) ;
#561 = VECTOR ( 'NONE', #64, 1000.000000000000000 ) ;
#562 = PRODUCT_DEFINITION_FORMATION_WITH_SPECIFIED_SOURCE ( 'Symmetric', '', #579, .NOT_KNOWN. ) ;
#563 = ORIENTED_EDGE ( 'NONE', *, *, #122, .T. ) ;
#564 = DIRECTION ( 'NONE',  ( 0.000000000000000000, 0.000000000000000000, 1.000000000000000000 ) ) ;
#565 = PLANE ( 'NONE',  #50 ) ;
#566 = CARTESIAN_POINT ( 'NONE',  ( 13.50000000000000000, 0.000000000000000000, 1.500000000000000000 ) ) ;
#567 = EDGE_LOOP ( 'NONE', ( #221, #442 ) ) ;
#568 = EDGE_CURVE ( 'NONE', #126, #307, #541, .T. ) ;
#569 = VECTOR ( 'NONE', #390, 1000.000000000000000 ) ;
#570 = DIRECTION ( 'NONE',  ( 0.000000000000000000, -1.000000000000000000, 0.000000000000000000 ) ) ;
#571 = EDGE_LOOP ( 'NONE', ( #68, #146, #589, #270 ) ) ;
#572 = FILL_AREA_STYLE_COLOUR ( '', #80 ) ;
#573 = FACE_BOUND ( 'NONE', #484, .T. ) ;
#574 = VERTEX_POINT ( 'NONE', #267 ) ;
#575 = CARTESIAN_POINT ( 'NONE',  ( -13.90103590411990098, 2.500000000000000000, 2.467624404889590117 ) ) ;
#576 = CARTESIAN_POINT ( 'NONE',  ( -13.50000000000000000, 0.000000000000000000, 0.000000000000000000 ) ) ;
#577 = ORIENTED_EDGE ( 'NONE', *, *, #289, .F. ) ;
#578 = AXIS2_PLACEMENT_3D ( 'NONE', #465, #605, #607 ) ;
#579 = PRODUCT ( 'Servo MG996R Horn_Servo MG996R Horn', 'Servo MG996R Horn_Servo MG996R Horn', '', ( #464 ) ) ;
#580 = DIRECTION ( 'NONE',  ( 0.000000000000000000, -1.000000000000000000, 0.000000000000000000 ) ) ;
#581 = EDGE_LOOP ( 'NONE', ( #196, #266, #598, #34 ) ) ;
#582 = CARTESIAN_POINT ( 'NONE',  ( -13.50000000000000000, 2.500000000000000000, 0.000000000000000000 ) ) ;
#583 = ORIENTED_EDGE ( 'NONE', *, *, #395, .F. ) ;
#584 = CARTESIAN_POINT ( 'NONE',  ( 13.90103590411990098, 0.000000000000000000, -2.467624404889599887 ) ) ;
#585 = ORIENTED_EDGE ( 'NONE', *, *, #154, .T. ) ;
#586 = EDGE_CURVE ( 'NONE', #199, #335, #467, .T. ) ;
#587 = DIRECTION ( 'NONE',  ( 0.000000000000000000, 1.000000000000000000, 0.000000000000000000 ) ) ;
#588 = APPLICATION_CONTEXT ( 'automotive_design' ) ;
#589 = ORIENTED_EDGE ( 'NONE', *, *, #568, .T. ) ;
#590 = VECTOR ( 'NONE', #528, 1000.000000000000000 ) ;
#591 = DIRECTION ( 'NONE',  ( 0.000000000000000000, -1.000000000000000000, 0.000000000000000000 ) ) ;
#592 = ORIENTED_EDGE ( 'NONE', *, *, #435, .T. ) ;
#593 = CARTESIAN_POINT ( 'NONE',  ( -13.50000000000000000, 0.000000000000000000, -1.500000000000000000 ) ) ;
#594 = EDGE_CURVE ( 'NONE', #335, #74, #218, .T. ) ;
#595 = CARTESIAN_POINT ( 'NONE',  ( -13.50000000000000000, 0.000000000000000000, 0.000000000000000000 ) ) ;
#596 = DIRECTION ( 'NONE',  ( 0.000000000000000000, 1.000000000000000000, 0.000000000000000000 ) ) ;
#597 = DIRECTION ( 'NONE',  ( 0.000000000000000000, 0.000000000000000000, 1.000000000000000000 ) ) ;
#598 = ORIENTED_EDGE ( 'NONE', *, *, #494, .T. ) ;
#599 = CIRCLE ( 'NONE', #479, 6.000000000000000000 ) ;
#600 = DIRECTION ( 'NONE',  ( 0.000000000000000000, -1.000000000000000000, 0.000000000000000000 ) ) ;
#601 = CIRCLE ( 'NONE', #381, 1.500000000000000000 ) ;
#602 = EDGE_CURVE ( 'NONE', #512, #326, #174, .T. ) ;
#603 = CARTESIAN_POINT ( 'NONE',  ( 0.000000000000000000, 2.500000000000000000, 0.000000000000000000 ) ) ;
#604 = FACE_OUTER_BOUND ( 'NONE', #142, .T. ) ;
#605 = DIRECTION ( 'NONE',  ( 0.000000000000000000, 1.000000000000000000, 0.000000000000000000 ) ) ;
#606 = EDGE_CURVE ( 'NONE', #512, #230, #176, .T. ) ;
#607 = DIRECTION ( 'NONE',  ( 0.000000000000000000, 0.000000000000000000, 1.000000000000000000 ) ) ;
#608 = CIRCLE ( 'NONE', #309, 1.500000000000000000 ) ;
#609 = PRESENTATION_LAYER_ASSIGNMENT (  '', '', ( #369 ) ) ;
#610 = VECTOR ( 'NONE', #189, 1000.000000000000000 ) ;
#611 = VECTOR ( 'NONE', #241, 1000.000000000000000 ) ;
#612 = DIRECTION ( 'NONE',  ( 0.000000000000000000, 1.000000000000000000, 0.000000000000000000 ) ) ;
#613 = CARTESIAN_POINT ( 'NONE',  ( 0.7484282643293790338, 2.500000000000000000, 4.605173330855020453 ) ) ;
#614 = DIRECTION ( 'NONE',  ( 0.000000000000000000, 0.000000000000000000, -1.000000000000000000 ) ) ;
#615 = EDGE_CURVE ( 'NONE', #477, #155, #601, .T. ) ;
#616 = ORIENTED_EDGE ( 'NONE', *, *, #386, .F. ) ;
#617 = DIRECTION ( 'NONE',  ( 0.000000000000000000, 1.000000000000000000, 0.000000000000000000 ) ) ;
#618 = DIRECTION ( 'NONE',  ( 0.000000000000000000, 1.000000000000000000, 0.000000000000000000 ) ) ;
#619 = ORIENTED_EDGE ( 'NONE', *, *, #602, .T. ) ;
ENDSEC;
END-ISO-10303-21;
