ISO-10303-21;
HEADER;
FILE_DESCRIPTION (( 'STEP AP214' ),
    '1' );
FILE_NAME ('Gripper Hand Right.STEP',
    '2026-08-27T22:10:01',
    ( '' ),
    ( '' ),
    'SwSTEP 2.0',
    'SolidWorks 2026',
    '' );
FILE_SCHEMA (( 'AUTOMOTIVE_DESIGN' ));
ENDSEC;

DATA;
#1 = PRESENTATION_STYLE_ASSIGNMENT (( #364 ) ) ;
#2 = FACE_BOUND ( 'NONE', #158, .T. ) ;
#3 = VERTEX_POINT ( 'NONE', #634 ) ;
#4 = SURFACE_SIDE_STYLE ('',( #401 ) ) ;
#5 = DIRECTION ( 'NONE',  ( 0.000000000000000000, 0.000000000000000000, 1.000000000000000000 ) ) ;
#6 = ORIENTED_EDGE ( 'NONE', *, *, #108, .T. ) ;
#7 =( LENGTH_UNIT ( ) NAMED_UNIT ( * ) SI_UNIT ( .MILLI., .METRE. ) );
#8 = CARTESIAN_POINT ( 'NONE',  ( 13.00000000000000000, 4.000000000000000000, 35.40000000000000568 ) ) ;
#9 = ORIENTED_EDGE ( 'NONE', *, *, #311, .T. ) ;
#10 = EDGE_CURVE ( 'NONE', #55, #40, #384, .T. ) ;
#11 = AXIS2_PLACEMENT_3D ( 'NONE', #106, #560, #151 ) ;
#12 = CARTESIAN_POINT ( 'NONE',  ( 3.000000000000011546, 4.000000000000000000, 96.99999999999997158 ) ) ;
#13 = VECTOR ( 'NONE', #373, 999.9999999999998863 ) ;
#14 = VERTEX_POINT ( 'NONE', #85 ) ;
#15 = FACE_BOUND ( 'NONE', #347, .T. ) ;
#16 = VERTEX_POINT ( 'NONE', #630 ) ;
#17 = EDGE_CURVE ( 'NONE', #264, #52, #150, .T. ) ;
#18 = ORIENTED_EDGE ( 'NONE', *, *, #532, .T. ) ;
#19 = ADVANCED_FACE ( 'NONE', ( #174 ), #34, .F. ) ;
#20 = CARTESIAN_POINT ( 'NONE',  ( 3.000000000000011546, 4.000000000000000000, 96.99999999999997158 ) ) ;
#21 = VERTEX_POINT ( 'NONE', #227 ) ;
#22 = CIRCLE ( 'NONE', #214, 1.599999999999997202 ) ;
#23 = DIRECTION ( 'NONE',  ( 0.000000000000000000, 1.000000000000000000, 0.000000000000000000 ) ) ;
#24 = ORIENTED_EDGE ( 'NONE', *, *, #500, .T. ) ;
#25 = LINE ( 'NONE', #121, #82 ) ;
#26 = DIRECTION ( 'NONE',  ( 0.000000000000000000, 0.000000000000000000, 1.000000000000000000 ) ) ;
#27 = ORIENTED_EDGE ( 'NONE', *, *, #10, .F. ) ;
#28 = DIRECTION ( 'NONE',  ( -0.000000000000000000, 1.000000000000000000, -0.000000000000000000 ) ) ;
#29 = ORIENTED_EDGE ( 'NONE', *, *, #450, .T. ) ;
#30 = CARTESIAN_POINT ( 'NONE',  ( 10.50000000000000533, 0.000000000000000000, 93.59999999999998010 ) ) ;
#31 = DIRECTION ( 'NONE',  ( -0.000000000000000000, -1.000000000000000000, -0.000000000000000000 ) ) ;
#32 = CARTESIAN_POINT ( 'NONE',  ( 10.50000000000000533, 4.000000000000000000, 81.99999999999997158 ) ) ;
#33 = EDGE_CURVE ( 'NONE', #16, #563, #332, .T. ) ;
#34 = PLANE ( 'NONE',  #382 ) ;
#35 = DIRECTION ( 'NONE',  ( 0.000000000000000000, 0.000000000000000000, 1.000000000000000000 ) ) ;
#36 = ORIENTED_EDGE ( 'NONE', *, *, #283, .F. ) ;
#37 = VECTOR ( 'NONE', #280, 1000.000000000000000 ) ;
#38 = CARTESIAN_POINT ( 'NONE',  ( 13.00000000000000000, 0.000000000000000000, 37.00000000000000711 ) ) ;
#39 = DIRECTION ( 'NONE',  ( 1.224646799147353207E-16, 0.000000000000000000, 1.000000000000000000 ) ) ;
#40 = VERTEX_POINT ( 'NONE', #167 ) ;
#41 = CARTESIAN_POINT ( 'NONE',  ( 10.50000000000000533, 0.000000000000000000, 81.99999999999997158 ) ) ;
#42 = EDGE_CURVE ( 'NONE', #442, #425, #231, .T. ) ;
#43 = FACE_OUTER_BOUND ( 'NONE', #361, .T. ) ;
#44 = ORIENTED_EDGE ( 'NONE', *, *, #405, .T. ) ;
#45 = DIRECTION ( 'NONE',  ( 0.000000000000000000, 1.000000000000000000, 0.000000000000000000 ) ) ;
#46 = PLANE ( 'NONE',  #203 ) ;
#47 = DIRECTION ( 'NONE',  ( 0.000000000000000000, 0.000000000000000000, 1.000000000000000000 ) ) ;
#48 = EDGE_LOOP ( 'NONE', ( #154, #453 ) ) ;
#49 = CIRCLE ( 'NONE', #383, 1.600000000000004086 ) ;
#50 = VECTOR ( 'NONE', #573, 1000.000000000000000 ) ;
#51 = DIRECTION ( 'NONE',  ( -0.000000000000000000, 1.000000000000000000, -0.000000000000000000 ) ) ;
#52 = VERTEX_POINT ( 'NONE', #583 ) ;
#53 =( NAMED_UNIT ( * ) SI_UNIT ( $, .STERADIAN. ) SOLID_ANGLE_UNIT ( ) );
#54 = FACE_BOUND ( 'NONE', #574, .T. ) ;
#55 = VERTEX_POINT ( 'NONE', #527 ) ;
#56 = ADVANCED_FACE ( 'NONE', ( #43 ), #640, .F. ) ;
#57 = DIRECTION ( 'NONE',  ( 0.4472135954999579832, 0.000000000000000000, 0.8944271909999158554 ) ) ;
#58 = EDGE_LOOP ( 'NONE', ( #202, #515, #643, #123 ) ) ;
#59 = AXIS2_PLACEMENT_3D ( 'NONE', #338, #351, #5 ) ;
#60 = AXIS2_PLACEMENT_3D ( 'NONE', #140, #248, #551 ) ;
#61 = DIRECTION ( 'NONE',  ( 0.000000000000000000, 1.000000000000000000, -0.000000000000000000 ) ) ;
#62 = ORIENTED_EDGE ( 'NONE', *, *, #283, .T. ) ;
#63 = ADVANCED_FACE ( 'NONE', ( #557 ), #539, .F. ) ;
#64 = EDGE_LOOP ( 'NONE', ( #313, #538, #105, #458 ) ) ;
#65 = CARTESIAN_POINT ( 'NONE',  ( 0.000000000000000000, 4.000000000000000000, 0.000000000000000000 ) ) ;
#66 = ORIENTED_EDGE ( 'NONE', *, *, #424, .T. ) ;
#67 = LINE ( 'NONE', #265, #544 ) ;
#68 = AXIS2_PLACEMENT_3D ( 'NONE', #496, #45, #449 ) ;
#69 = ORIENTED_EDGE ( 'NONE', *, *, #549, .F. ) ;
#70 = DIRECTION ( 'NONE',  ( -0.4008188340197073041, 0.000000000000000000, -0.9161573349021894241 ) ) ;
#71 = DIRECTION ( 'NONE',  ( -0.000000000000000000, 1.000000000000000000, -0.000000000000000000 ) ) ;
#72 = ORIENTED_EDGE ( 'NONE', *, *, #500, .F. ) ;
#73 = CARTESIAN_POINT ( 'NONE',  ( 10.50000000000000533, 0.000000000000000000, 83.59999999999998010 ) ) ;
#74 = EDGE_CURVE ( 'NONE', #40, #186, #182, .T. ) ;
#75 = FACE_OUTER_BOUND ( 'NONE', #518, .T. ) ;
#76 = ORIENTED_EDGE ( 'NONE', *, *, #366, .T. ) ;
#77 = CARTESIAN_POINT ( 'NONE',  ( 4.999999999999999112, 4.000000000000000000, -7.999999999999998224 ) ) ;
#78 = EDGE_LOOP ( 'NONE', ( #507, #336, #378, #111 ) ) ;
#79 = VECTOR ( 'NONE', #402, 1000.000000000000000 ) ;
#80 = LINE ( 'NONE', #228, #328 ) ;
#81 = VECTOR ( 'NONE', #262, 1000.000000000000000 ) ;
#82 = VECTOR ( 'NONE', #220, 1000.000000000000000 ) ;
#83 = ADVANCED_FACE ( 'NONE', ( #137 ), #285, .F. ) ;
#84 = ORIENTED_EDGE ( 'NONE', *, *, #119, .T. ) ;
#85 = CARTESIAN_POINT ( 'NONE',  ( 10.50000000000000533, 4.000000000000000000, 90.39999999999996305 ) ) ;
#86 = CARTESIAN_POINT ( 'NONE',  ( 10.50000000000000533, 0.000000000000000000, 91.99999999999997158 ) ) ;
#87 = FACE_OUTER_BOUND ( 'NONE', #469, .T. ) ;
#88 = VERTEX_POINT ( 'NONE', #435 ) ;
#89 = STYLED_ITEM ( 'NONE', ( #1 ), #390 ) ;
#90 = DIRECTION ( 'NONE',  ( -2.312964634635742464E-16, 0.000000000000000000, -1.000000000000000000 ) ) ;
#91 = DIRECTION ( 'NONE',  ( 0.1343636729735779300, 0.000000000000000000, -0.9909320881801383374 ) ) ;
#92 = ORIENTED_EDGE ( 'NONE', *, *, #405, .F. ) ;
#93 = CARTESIAN_POINT ( 'NONE',  ( 25.99999999999998934, 4.000000000000000000, -6.013708050052927842E-15 ) ) ;
#94 = FACE_BOUND ( 'NONE', #626, .T. ) ;
#95 = VERTEX_POINT ( 'NONE', #592 ) ;
#96 = CARTESIAN_POINT ( 'NONE',  ( 25.99999999999998934, 4.000000000000000000, -6.013708050052927842E-15 ) ) ;
#97 = FACE_OUTER_BOUND ( 'NONE', #419, .T. ) ;
#98 = ORIENTED_EDGE ( 'NONE', *, *, #616, .T. ) ;
#99 = EDGE_CURVE ( 'NONE', #3, #290, #387, .T. ) ;
#100 =( NAMED_UNIT ( * ) PLANE_ANGLE_UNIT ( ) SI_UNIT ( $, .RADIAN. ) );
#101 = EDGE_CURVE ( 'NONE', #219, #623, #134, .T. ) ;
#102 = DIRECTION ( 'NONE',  ( 0.000000000000000000, 1.000000000000000000, 0.000000000000000000 ) ) ;
#103 = ORIENTED_EDGE ( 'NONE', *, *, #540, .F. ) ;
#104 = CARTESIAN_POINT ( 'NONE',  ( 25.99999999999999289, 4.000000000000000000, 7.999999999999994671 ) ) ;
#105 = ORIENTED_EDGE ( 'NONE', *, *, #343, .F. ) ;
#106 = CARTESIAN_POINT ( 'NONE',  ( 13.00000000000000000, 4.000000000000000000, 37.00000000000000711 ) ) ;
#107 = VERTEX_POINT ( 'NONE', #234 ) ;
#108 = EDGE_CURVE ( 'NONE', #580, #21, #317, .T. ) ;
#109 = VECTOR ( 'NONE', #548, 1000.000000000000000 ) ;
#110 = CIRCLE ( 'NONE', #535, 1.600000000000004086 ) ;
#111 = ORIENTED_EDGE ( 'NONE', *, *, #10, .T. ) ;
#112 = LINE ( 'NONE', #65, #81 ) ;
#113 = VERTEX_POINT ( 'NONE', #188 ) ;
#114 = LINE ( 'NONE', #531, #172 ) ;
#115 = EDGE_LOOP ( 'NONE', ( #98, #608, #598, #612, #199, #256, #307, #207, #260 ) ) ;
#116 = DIRECTION ( 'NONE',  ( -0.5299989400031799303, 0.000000000000000000, 0.8479983040050880216 ) ) ;
#117 = FACE_OUTER_BOUND ( 'NONE', #606, .T. ) ;
#118 = VECTOR ( 'NONE', #31, 1000.000000000000000 ) ;
#119 = EDGE_CURVE ( 'NONE', #95, #190, #247, .T. ) ;
#120 = ORIENTED_EDGE ( 'NONE', *, *, #512, .T. ) ;
#121 = CARTESIAN_POINT ( 'NONE',  ( 3.000000000000006661, 4.000000000000000000, 60.49999999999997868 ) ) ;
#122 = DIRECTION ( 'NONE',  ( -0.000000000000000000, -1.000000000000000000, -0.000000000000000000 ) ) ;
#123 = ORIENTED_EDGE ( 'NONE', *, *, #424, .F. ) ;
#124 = CARTESIAN_POINT ( 'NONE',  ( 13.00000000000000000, 0.000000000000000000, 37.00000000000000711 ) ) ;
#125 = ORIENTED_EDGE ( 'NONE', *, *, #522, .F. ) ;
#126 = ADVANCED_FACE ( 'NONE', ( #289 ), #300, .F. ) ;
#127 = LINE ( 'NONE', #20, #213 ) ;
#128 = EDGE_CURVE ( 'NONE', #442, #3, #179, .T. ) ;
#129 = CARTESIAN_POINT ( 'NONE',  ( -1.982541115402064518E-15, 4.000000000000000000, -7.999999999999998224 ) ) ;
#130 = AXIS2_PLACEMENT_3D ( 'NONE', #441, #102, #144 ) ;
#131 = PRESENTATION_LAYER_ASSIGNMENT (  '', '', ( #89 ) ) ;
#132 =( GEOMETRIC_REPRESENTATION_CONTEXT ( 3 ) GLOBAL_UNCERTAINTY_ASSIGNED_CONTEXT ( ( #210 ) ) GLOBAL_UNIT_ASSIGNED_CONTEXT ( ( #294, #498, #301 ) ) REPRESENTATION_CONTEXT ( 'NONE', 'WORKASPACE' ) );
#133 = ORIENTED_EDGE ( 'NONE', *, *, #616, .F. ) ;
#134 = LINE ( 'NONE', #185, #109 ) ;
#135 = DIRECTION ( 'NONE',  ( 0.000000000000000000, 1.000000000000000000, 0.000000000000000000 ) ) ;
#136 = ORIENTED_EDGE ( 'NONE', *, *, #464, .T. ) ;
#137 = FACE_OUTER_BOUND ( 'NONE', #229, .T. ) ;
#138 = ORIENTED_EDGE ( 'NONE', *, *, #292, .F. ) ;
#139 = CIRCLE ( 'NONE', #224, 1.600000000000004086 ) ;
#140 = CARTESIAN_POINT ( 'NONE',  ( 2.999999999999998668, 4.000000000000000000, -3.920950322413330104E-16 ) ) ;
#141 = DIRECTION ( 'NONE',  ( -0.1343636729735779300, 0.000000000000000000, 0.9909320881801383374 ) ) ;
#142 = DIRECTION ( 'NONE',  ( -0.000000000000000000, 1.000000000000000000, -0.000000000000000000 ) ) ;
#143 = FACE_OUTER_BOUND ( 'NONE', #272, .T. ) ;
#144 = DIRECTION ( 'NONE',  ( 0.000000000000000000, 0.000000000000000000, 1.000000000000000000 ) ) ;
#145 = EDGE_CURVE ( 'NONE', #623, #55, #237, .T. ) ;
#146 = ORIENTED_EDGE ( 'NONE', *, *, #119, .F. ) ;
#147 = LINE ( 'NONE', #439, #286 ) ;
#148 = DIRECTION ( 'NONE',  ( -0.000000000000000000, 1.000000000000000000, -0.000000000000000000 ) ) ;
#149 = VERTEX_POINT ( 'NONE', #437 ) ;
#150 = CIRCLE ( 'NONE', #233, 1.599999999999997202 ) ;
#151 = DIRECTION ( 'NONE',  ( 0.000000000000000000, 0.000000000000000000, 1.000000000000000000 ) ) ;
#152 = ORIENTED_EDGE ( 'NONE', *, *, #621, .F. ) ;
#153 = PLANE ( 'NONE',  #170 ) ;
#154 = ORIENTED_EDGE ( 'NONE', *, *, #589, .F. ) ;
#155 = ADVANCED_FACE ( 'NONE', ( #94, #293, #395, #2, #596 ), #46, .F. ) ;
#156 = APPLICATION_CONTEXT ( 'automotive_design' ) ;
#157 = DIRECTION ( 'NONE',  ( -0.9161573349021894241, 0.000000000000000000, 0.4008188340197073041 ) ) ;
#158 = EDGE_LOOP ( 'NONE', ( #376, #9 ) ) ;
#159 = CARTESIAN_POINT ( 'NONE',  ( 13.00000000000000000, 4.000000000000000000, 14.60000000000000320 ) ) ;
#160 = COLOUR_RGB ( '',0.7921568627450980005, 0.8196078431372548767, 0.9333333333333333481 ) ;
#161 = ORIENTED_EDGE ( 'NONE', *, *, #101, .F. ) ;
#162 = DIRECTION ( 'NONE',  ( 0.8479983040050880216, -0.000000000000000000, 0.5299989400031799303 ) ) ;
#163 = PRODUCT_DEFINITION_CONTEXT ( 'detailed design', #622, 'design' ) ;
#164 = ORIENTED_EDGE ( 'NONE', *, *, #549, .T. ) ;
#165 = FACE_OUTER_BOUND ( 'NONE', #64, .T. ) ;
#166 = ADVANCED_FACE ( 'NONE', ( #445 ), #195, .F. ) ;
#167 = CARTESIAN_POINT ( 'NONE',  ( 26.00000000000000000, 0.000000000000000000, 38.00000000000000000 ) ) ;
#168 = DIRECTION ( 'NONE',  ( -0.000000000000000000, -1.000000000000000000, -0.000000000000000000 ) ) ;
#169 = CARTESIAN_POINT ( 'NONE',  ( -21.79999999999998650, 0.000000000000000000, 10.89999999999999503 ) ) ;
#170 = AXIS2_PLACEMENT_3D ( 'NONE', #360, #61, #529 ) ;
#171 = VERTEX_POINT ( 'NONE', #552 ) ;
#172 = VECTOR ( 'NONE', #371, 1000.000000000000000 ) ;
#173 = CARTESIAN_POINT ( 'NONE',  ( 0.000000000000000000, 0.000000000000000000, 0.000000000000000000 ) ) ;
#174 = FACE_OUTER_BOUND ( 'NONE', #319, .T. ) ;
#175 = DIRECTION ( 'NONE',  ( -0.000000000000000000, 1.000000000000000000, -0.000000000000000000 ) ) ;
#176 = ADVANCED_FACE ( 'NONE', ( #97 ), #297, .F. ) ;
#177 = ORIENTED_EDGE ( 'NONE', *, *, #454, .F. ) ;
#178 = ORIENTED_EDGE ( 'NONE', *, *, #99, .F. ) ;
#179 = CIRCLE ( 'NONE', #489, 1.600000000000004086 ) ;
#180 = VECTOR ( 'NONE', #57, 1000.000000000000000 ) ;
#181 = CIRCLE ( 'NONE', #578, 1.600000000000002531 ) ;
#182 = LINE ( 'NONE', #198, #79 ) ;
#183 = CARTESIAN_POINT ( 'NONE',  ( 0.000000000000000000, 0.000000000000000000, 0.000000000000000000 ) ) ;
#184 = EDGE_CURVE ( 'NONE', #52, #264, #575, .T. ) ;
#185 = CARTESIAN_POINT ( 'NONE',  ( -8.974302782386682456E-14, 4.000000000000000000, 96.99999999999997158 ) ) ;
#186 = VERTEX_POINT ( 'NONE', #562 ) ;
#187 = DIRECTION ( 'NONE',  ( 0.000000000000000000, 0.000000000000000000, 1.000000000000000000 ) ) ;
#188 = CARTESIAN_POINT ( 'NONE',  ( 4.999999999999999112, 0.000000000000000000, -7.999999999999998224 ) ) ;
#189 = LINE ( 'NONE', #340, #309 ) ;
#190 = VERTEX_POINT ( 'NONE', #465 ) ;
#191 = AXIS2_PLACEMENT_3D ( 'NONE', #624, #162, #584 ) ;
#192 = AXIS2_PLACEMENT_3D ( 'NONE', #605, #201, #47 ) ;
#193 = CARTESIAN_POINT ( 'NONE',  ( 4.999999999999999112, 4.000000000000000000, -7.999999999999998224 ) ) ;
#194 = EDGE_CURVE ( 'NONE', #216, #186, #607, .T. ) ;
#195 = PLANE ( 'NONE',  #555 ) ;
#196 = ORIENTED_EDGE ( 'NONE', *, *, #440, .F. ) ;
#197 = FILL_AREA_STYLE_COLOUR ( '', #160 ) ;
#198 = CARTESIAN_POINT ( 'NONE',  ( 25.99999999999998934, 0.000000000000000000, -6.013708050052927842E-15 ) ) ;
#199 = ORIENTED_EDGE ( 'NONE', *, *, #145, .T. ) ;
#200 = CARTESIAN_POINT ( 'NONE',  ( 1.040834085586084257E-14, 4.000000000000000000, 54.49999999999997868 ) ) ;
#201 = DIRECTION ( 'NONE',  ( -0.000000000000000000, 1.000000000000000000, -0.000000000000000000 ) ) ;
#202 = ORIENTED_EDGE ( 'NONE', *, *, #311, .F. ) ;
#203 = AXIS2_PLACEMENT_3D ( 'NONE', #503, #249, #243 ) ;
#204 = AXIS2_PLACEMENT_3D ( 'NONE', #93, #603, #291 ) ;
#205 = VECTOR ( 'NONE', #478, 1000.000000000000000 ) ;
#206 = CARTESIAN_POINT ( 'NONE',  ( 13.00000000000000000, 0.000000000000000000, 37.00000000000000711 ) ) ;
#207 = ORIENTED_EDGE ( 'NONE', *, *, #33, .T. ) ;
#208 = DIRECTION ( 'NONE',  ( 0.000000000000000000, 1.000000000000000000, 0.000000000000000000 ) ) ;
#209 = ORIENTED_EDGE ( 'NONE', *, *, #483, .T. ) ;
#210 = UNCERTAINTY_MEASURE_WITH_UNIT (LENGTH_MEASURE( 1.000000000000000082E-05 ), #294, 'distance_accuracy_value', 'NONE');
#211 = VERTEX_POINT ( 'NONE', #358 ) ;
#212 = LINE ( 'NONE', #30, #446 ) ;
#213 = VECTOR ( 'NONE', #168, 1000.000000000000000 ) ;
#214 = AXIS2_PLACEMENT_3D ( 'NONE', #124, #628, #314 ) ;
#215 = ADVANCED_FACE ( 'NONE', ( #406, #54, #306, #15, #513 ), #153, .T. ) ;
#216 = VERTEX_POINT ( 'NONE', #104 ) ;
#217 = LINE ( 'NONE', #420, #50 ) ;
#218 = ADVANCED_FACE ( 'NONE', ( #75 ), #252, .F. ) ;
#219 = VERTEX_POINT ( 'NONE', #12 ) ;
#220 = DIRECTION ( 'NONE',  ( -0.000000000000000000, -1.000000000000000000, -0.000000000000000000 ) ) ;
#221 = CARTESIAN_POINT ( 'NONE',  ( 10.50000000000000533, 4.000000000000000000, 93.59999999999998010 ) ) ;
#222 = ORIENTED_EDGE ( 'NONE', *, *, #621, .T. ) ;
#223 = CARTESIAN_POINT ( 'NONE',  ( 0.000000000000000000, 0.000000000000000000, -0.000000000000000000 ) ) ;
#224 = AXIS2_PLACEMENT_3D ( 'NONE', #321, #208, #411 ) ;
#225 = VECTOR ( 'NONE', #644, 1000.000000000000114 ) ;
#226 = EDGE_CURVE ( 'NONE', #261, #14, #139, .T. ) ;
#227 = CARTESIAN_POINT ( 'NONE',  ( 13.00000000000000000, 0.000000000000000000, 38.60000000000000142 ) ) ;
#228 = CARTESIAN_POINT ( 'NONE',  ( 10.50000000000000533, 0.000000000000000000, 90.39999999999996305 ) ) ;
#229 = EDGE_LOOP ( 'NONE', ( #461, #146, #120, #76 ) ) ;
#230 = DIRECTION ( 'NONE',  ( -0.000000000000000000, -1.000000000000000000, -0.000000000000000000 ) ) ;
#231 = LINE ( 'NONE', #434, #627 ) ;
#232 = CARTESIAN_POINT ( 'NONE',  ( 19.00000000000000355, 0.000000000000000000, -8.000000000000003553 ) ) ;
#233 = AXIS2_PLACEMENT_3D ( 'NONE', #479, #432, #282 ) ;
#234 = CARTESIAN_POINT ( 'NONE',  ( 1.040834085586084257E-14, 0.000000000000000000, 54.49999999999997868 ) ) ;
#235 = DIRECTION ( 'NONE',  ( -0.000000000000000000, 1.000000000000000000, -0.000000000000000000 ) ) ;
#236 = ADVANCED_FACE ( 'NONE', ( #117 ), #625, .F. ) ;
#237 = LINE ( 'NONE', #645, #470 ) ;
#238 = EDGE_LOOP ( 'NONE', ( #542, #241, #473, #412 ) ) ;
#239 = DIRECTION ( 'NONE',  ( 0.000000000000000000, 1.000000000000000000, 0.000000000000000000 ) ) ;
#240 = DIRECTION ( 'NONE',  ( -0.000000000000000000, 1.000000000000000000, -0.000000000000000000 ) ) ;
#241 = ORIENTED_EDGE ( 'NONE', *, *, #523, .T. ) ;
#242 = DIRECTION ( 'NONE',  ( -0.000000000000000000, 1.000000000000000000, -0.000000000000000000 ) ) ;
#243 = DIRECTION ( 'NONE',  ( 0.000000000000000000, 0.000000000000000000, 1.000000000000000000 ) ) ;
#244 = EDGE_CURVE ( 'NONE', #290, #425, #49, .T. ) ;
#245 = PRODUCT_CONTEXT ( 'NONE', #156, 'mechanical' ) ;
#246 = ORIENTED_EDGE ( 'NONE', *, *, #184, .T. ) ;
#247 = CIRCLE ( 'NONE', #130, 1.600000000000002531 ) ;
#248 = DIRECTION ( 'NONE',  ( 1.000000000000000000, 0.000000000000000000, -1.306983440804443779E-16 ) ) ;
#249 = DIRECTION ( 'NONE',  ( 0.000000000000000000, 1.000000000000000000, -0.000000000000000000 ) ) ;
#250 = ORIENTED_EDGE ( 'NONE', *, *, #42, .F. ) ;
#251 = DIRECTION ( 'NONE',  ( 0.000000000000000000, 0.000000000000000000, 1.000000000000000000 ) ) ;
#252 = PLANE ( 'NONE',  #427 ) ;
#253 = ADVANCED_FACE ( 'NONE', ( #526 ), #509, .F. ) ;
#254 = ORIENTED_EDGE ( 'NONE', *, *, #571, .T. ) ;
#255 = DIRECTION ( 'NONE',  ( -0.000000000000000000, 1.000000000000000000, -0.000000000000000000 ) ) ;
#256 = ORIENTED_EDGE ( 'NONE', *, *, #331, .T. ) ;
#257 = VECTOR ( 'NONE', #541, 1000.000000000000000 ) ;
#258 = DIRECTION ( 'NONE',  ( -0.4472135954999579832, 0.000000000000000000, -0.8944271909999158554 ) ) ;
#259 = APPLICATION_PROTOCOL_DEFINITION ( 'draft international standard', 'automotive_design', 1998, #622 ) ;
#260 = ORIENTED_EDGE ( 'NONE', *, *, #343, .T. ) ;
#261 = VERTEX_POINT ( 'NONE', #221 ) ;
#262 = DIRECTION ( 'NONE',  ( -0.000000000000000000, -1.000000000000000000, -0.000000000000000000 ) ) ;
#263 = EDGE_CURVE ( 'NONE', #107, #615, #423, .T. ) ;
#264 = VERTEX_POINT ( 'NONE', #8 ) ;
#265 = CARTESIAN_POINT ( 'NONE',  ( 13.00000000000000000, 0.000000000000000000, 35.40000000000000568 ) ) ;
#266 = AXIS2_PLACEMENT_3D ( 'NONE', #451, #271, #459 ) ;
#267 = AXIS2_PLACEMENT_3D ( 'NONE', #610, #641, #251 ) ;
#268 = VERTEX_POINT ( 'NONE', #200 ) ;
#269 = ADVANCED_BREP_SHAPE_REPRESENTATION ( 'Gripper Hand Right_Gripper Hand Left', ( #390, #341 ), #132 ) ;
#270 = DIRECTION ( 'NONE',  ( 0.000000000000000000, 0.000000000000000000, 1.000000000000000000 ) ) ;
#271 = DIRECTION ( 'NONE',  ( 1.000000000000000000, 0.000000000000000000, -1.224646799147353207E-16 ) ) ;
#272 = EDGE_LOOP ( 'NONE', ( #324, #92, #327, #136 ) ) ;
#273 = DIRECTION ( 'NONE',  ( 1.306983440804443779E-16, 0.000000000000000000, 1.000000000000000000 ) ) ;
#274 = EDGE_CURVE ( 'NONE', #190, #211, #303, .T. ) ;
#275 = CARTESIAN_POINT ( 'NONE',  ( 26.00000000000000000, 4.000000000000000000, 38.00000000000000000 ) ) ;
#276 = FACE_OUTER_BOUND ( 'NONE', #466, .T. ) ;
#277 = ORIENTED_EDGE ( 'NONE', *, *, #522, .T. ) ;
#278 = LINE ( 'NONE', #537, #37 ) ;
#279 = DIRECTION ( 'NONE',  ( 9.251858538542975772E-16, 0.000000000000000000, -1.000000000000000000 ) ) ;
#280 = DIRECTION ( 'NONE',  ( -0.000000000000000000, -1.000000000000000000, -0.000000000000000000 ) ) ;
#281 = EDGE_CURVE ( 'NONE', #477, #415, #308, .T. ) ;
#282 = DIRECTION ( 'NONE',  ( 0.000000000000000000, 0.000000000000000000, 1.000000000000000000 ) ) ;
#283 = EDGE_CURVE ( 'NONE', #533, #107, #348, .T. ) ;
#284 = CARTESIAN_POINT ( 'NONE',  ( 10.50000000000000533, 0.000000000000000000, 91.99999999999997158 ) ) ;
#285 = CYLINDRICAL_SURFACE ( 'NONE', #648, 1.600000000000002531 ) ;
#286 = VECTOR ( 'NONE', #600, 1000.000000000000000 ) ;
#287 = ORIENTED_EDGE ( 'NONE', *, *, #639, .T. ) ;
#288 = DIRECTION ( 'NONE',  ( 1.224646799147353207E-16, 0.000000000000000000, 1.000000000000000000 ) ) ;
#289 = FACE_OUTER_BOUND ( 'NONE', #467, .T. ) ;
#290 = VERTEX_POINT ( 'NONE', #554 ) ;
#291 = DIRECTION ( 'NONE',  ( 2.312964634635742464E-16, 0.000000000000000000, 1.000000000000000000 ) ) ;
#292 = EDGE_CURVE ( 'NONE', #149, #40, #147, .T. ) ;
#293 = FACE_BOUND ( 'NONE', #304, .T. ) ;
#294 =( LENGTH_UNIT ( ) NAMED_UNIT ( * ) SI_UNIT ( .MILLI., .METRE. ) );
#295 = ORIENTED_EDGE ( 'NONE', *, *, #17, .F. ) ;
#296 = LINE ( 'NONE', #96, #638 ) ;
#297 = PLANE ( 'NONE',  #266 ) ;
#298 = EDGE_LOOP ( 'NONE', ( #18, #520, #572, #315 ) ) ;
#299 = AXIS2_PLACEMENT_3D ( 'NONE', #426, #23, #325 ) ;
#300 = CYLINDRICAL_SURFACE ( 'NONE', #472, 1.599999999999997202 ) ;
#301 =( NAMED_UNIT ( * ) SI_UNIT ( $, .STERADIAN. ) SOLID_ANGLE_UNIT ( ) );
#302 = ORIENTED_EDGE ( 'NONE', *, *, #128, .F. ) ;
#303 = LINE ( 'NONE', #409, #339 ) ;
#304 = EDGE_LOOP ( 'NONE', ( #277, #6 ) ) ;
#305 = EDGE_CURVE ( 'NONE', #563, #113, #493, .T. ) ;
#306 = FACE_BOUND ( 'NONE', #48, .T. ) ;
#307 = ORIENTED_EDGE ( 'NONE', *, *, #431, .T. ) ;
#308 = CIRCLE ( 'NONE', #267, 1.600000000000004086 ) ;
#309 = VECTOR ( 'NONE', #230, 1000.000000000000000 ) ;
#310 = ORIENTED_EDGE ( 'NONE', *, *, #483, .F. ) ;
#311 = EDGE_CURVE ( 'NONE', #415, #477, #516, .T. ) ;
#312 = CARTESIAN_POINT ( 'NONE',  ( 10.50000000000000533, 0.000000000000000000, 91.99999999999997158 ) ) ;
#313 = ORIENTED_EDGE ( 'NONE', *, *, #540, .T. ) ;
#314 = DIRECTION ( 'NONE',  ( 0.000000000000000000, 0.000000000000000000, 1.000000000000000000 ) ) ;
#315 = ORIENTED_EDGE ( 'NONE', *, *, #582, .T. ) ;
#316 = LINE ( 'NONE', #528, #447 ) ;
#317 = CIRCLE ( 'NONE', #59, 1.599999999999997202 ) ;
#318 = DIRECTION ( 'NONE',  ( 0.4008188340197072486, 0.000000000000000000, 0.9161573349021893131 ) ) ;
#319 = EDGE_LOOP ( 'NONE', ( #222, #69, #161, #44 ) ) ;
#320 = CARTESIAN_POINT ( 'NONE',  ( 18.88524590163935102, 0.000000000000000000, -8.262295081967204524 ) ) ;
#321 = CARTESIAN_POINT ( 'NONE',  ( 10.50000000000000533, 4.000000000000000000, 91.99999999999997158 ) ) ;
#322 = EDGE_LOOP ( 'NONE', ( #363, #29 ) ) ;
#323 = CARTESIAN_POINT ( 'NONE',  ( 10.50000000000000533, 0.000000000000000000, 90.39999999999996305 ) ) ;
#324 = ORIENTED_EDGE ( 'NONE', *, *, #454, .T. ) ;
#325 = DIRECTION ( 'NONE',  ( 0.000000000000000000, 0.000000000000000000, 1.000000000000000000 ) ) ;
#326 = VECTOR ( 'NONE', #344, 1000.000000000000000 ) ;
#327 = ORIENTED_EDGE ( 'NONE', *, *, #418, .F. ) ;
#328 = VECTOR ( 'NONE', #175, 1000.000000000000000 ) ;
#329 = DIRECTION ( 'NONE',  ( 0.000000000000000000, 0.000000000000000000, 1.000000000000000000 ) ) ;
#330 = ADVANCED_FACE ( 'NONE', ( #143 ), #394, .F. ) ;
#331 = EDGE_CURVE ( 'NONE', #55, #216, #296, .T. ) ;
#332 = LINE ( 'NONE', #129, #502 ) ;
#333 = CYLINDRICAL_SURFACE ( 'NONE', #517, 1.600000000000004086 ) ;
#334 = DIRECTION ( 'NONE',  ( -0.9909320881801383374, 0.000000000000000000, -0.1343636729735779300 ) ) ;
#335 = CARTESIAN_POINT ( 'NONE',  ( 13.00000000000000000, 0.000000000000000000, 38.60000000000000142 ) ) ;
#336 = ORIENTED_EDGE ( 'NONE', *, *, #194, .F. ) ;
#337 = LINE ( 'NONE', #543, #481 ) ;
#338 = CARTESIAN_POINT ( 'NONE',  ( 13.00000000000000000, 0.000000000000000000, 37.00000000000000711 ) ) ;
#339 = VECTOR ( 'NONE', #255, 1000.000000000000000 ) ;
#340 = CARTESIAN_POINT ( 'NONE',  ( 1.040834085586084257E-14, 4.000000000000000000, 54.49999999999997868 ) ) ;
#341 = AXIS2_PLACEMENT_3D ( 'NONE', #506, #611, #457 ) ;
#342 = ORIENTED_EDGE ( 'NONE', *, *, #74, .F. ) ;
#343 = EDGE_CURVE ( 'NONE', #563, #171, #591, .T. ) ;
#344 = DIRECTION ( 'NONE',  ( -0.000000000000000000, -1.000000000000000000, -0.000000000000000000 ) ) ;
#345 = DIRECTION ( 'NONE',  ( 0.000000000000000000, 0.000000000000000000, 1.000000000000000000 ) ) ;
#346 = CARTESIAN_POINT ( 'NONE',  ( 13.00000000000000000, 4.000000000000000000, 13.00000000000000178 ) ) ;
#347 = EDGE_LOOP ( 'NONE', ( #530, #196 ) ) ;
#348 = LINE ( 'NONE', #183, #408 ) ;
#349 = DIRECTION ( 'NONE',  ( 1.000000000000000000, 0.000000000000000000, -2.478176394252581634E-16 ) ) ;
#350 = ORIENTED_EDGE ( 'NONE', *, *, #392, .T. ) ;
#351 = DIRECTION ( 'NONE',  ( 0.000000000000000000, 1.000000000000000000, 0.000000000000000000 ) ) ;
#352 = SHAPE_DEFINITION_REPRESENTATION ( #511, #269 ) ;
#353 = VERTEX_POINT ( 'NONE', #594 ) ;
#354 = AXIS2_PLACEMENT_3D ( 'NONE', #206, #71, #26 ) ;
#355 = VECTOR ( 'NONE', #39, 1000.000000000000000 ) ;
#356 = PRODUCT_DEFINITION_FORMATION_WITH_SPECIFIED_SOURCE ( 'Symmetric', '', #609, .NOT_KNOWN. ) ;
#357 = ADVANCED_FACE ( 'NONE', ( #519 ), #547, .F. ) ;
#358 = CARTESIAN_POINT ( 'NONE',  ( 13.00000000000000000, 4.000000000000000000, 11.39999999999999858 ) ) ;
#359 = ORIENTED_EDGE ( 'NONE', *, *, #599, .F. ) ;
#360 = CARTESIAN_POINT ( 'NONE',  ( 0.000000000000000000, 4.000000000000000000, 0.000000000000000000 ) ) ;
#361 = EDGE_LOOP ( 'NONE', ( #561, #27, #510, #164 ) ) ;
#362 = CARTESIAN_POINT ( 'NONE',  ( 10.50000000000000533, 4.000000000000000000, 81.99999999999997158 ) ) ;
#363 = ORIENTED_EDGE ( 'NONE', *, *, #128, .T. ) ;
#364 = SURFACE_STYLE_USAGE ( .BOTH. , #4 ) ;
#365 = AXIS2_PLACEMENT_3D ( 'NONE', #41, #242, #443 ) ;
#366 = EDGE_CURVE ( 'NONE', #393, #211, #556, .T. ) ;
#367 = AXIS2_PLACEMENT_3D ( 'NONE', #586, #142, #491 ) ;
#368 = ORIENTED_EDGE ( 'NONE', *, *, #582, .F. ) ;
#369 = CARTESIAN_POINT ( 'NONE',  ( 2.999999999999998668, 4.000000000000000000, -3.920950322413330104E-16 ) ) ;
#370 = ORIENTED_EDGE ( 'NONE', *, *, #532, .F. ) ;
#371 = DIRECTION ( 'NONE',  ( -0.000000000000000000, 1.000000000000000000, -0.000000000000000000 ) ) ;
#372 = DIRECTION ( 'NONE',  ( -0.000000000000000000, 1.000000000000000000, -0.000000000000000000 ) ) ;
#373 = DIRECTION ( 'NONE',  ( -0.4008188340197073041, 0.000000000000000000, -0.9161573349021894241 ) ) ;
#374 = VECTOR ( 'NONE', #122, 1000.000000000000000 ) ;
#375 = CARTESIAN_POINT ( 'NONE',  ( -21.79999999999998650, 4.000000000000000000, 10.89999999999999503 ) ) ;
#376 = ORIENTED_EDGE ( 'NONE', *, *, #281, .T. ) ;
#377 = LINE ( 'NONE', #631, #205 ) ;
#378 = ORIENTED_EDGE ( 'NONE', *, *, #331, .F. ) ;
#379 = CARTESIAN_POINT ( 'NONE',  ( 13.00000000000000000, 0.000000000000000000, 13.00000000000000178 ) ) ;
#380 = DIRECTION ( 'NONE',  ( -1.000000000000000000, 0.000000000000000000, -9.251858538542975772E-16 ) ) ;
#381 = ADVANCED_FACE ( 'NONE', ( #501 ), #414, .F. ) ;
#382 = AXIS2_PLACEMENT_3D ( 'NONE', #588, #279, #380 ) ;
#383 = AXIS2_PLACEMENT_3D ( 'NONE', #362, #579, #564 ) ;
#384 = LINE ( 'NONE', #275, #118 ) ;
#385 = VECTOR ( 'NONE', #116, 1000.000000000000114 ) ;
#386 = FACE_OUTER_BOUND ( 'NONE', #58, .T. ) ;
#387 = LINE ( 'NONE', #604, #514 ) ;
#388 = LINE ( 'NONE', #335, #257 ) ;
#389 = FILL_AREA_STYLE ('',( #197 ) ) ;
#390 = MANIFOLD_SOLID_BREP ( 'Cut-Extrude1', #637 ) ;
#391 = CARTESIAN_POINT ( 'NONE',  ( 10.50000000000000533, 0.000000000000000000, 81.99999999999997158 ) ) ;
#392 = EDGE_CURVE ( 'NONE', #171, #533, #112, .T. ) ;
#393 = VERTEX_POINT ( 'NONE', #159 ) ;
#394 = PLANE ( 'NONE',  #60 ) ;
#395 = FACE_BOUND ( 'NONE', #322, .T. ) ;
#396 =( GEOMETRIC_REPRESENTATION_CONTEXT ( 3 ) GLOBAL_UNCERTAINTY_ASSIGNED_CONTEXT ( ( #570 ) ) GLOBAL_UNIT_ASSIGNED_CONTEXT ( ( #7, #100, #53 ) ) REPRESENTATION_CONTEXT ( 'NONE', 'WORKASPACE' ) );
#397 = CARTESIAN_POINT ( 'NONE',  ( -8.974302782386682456E-14, 0.000000000000000000, 96.99999999999997158 ) ) ;
#398 = ORIENTED_EDGE ( 'NONE', *, *, #450, .F. ) ;
#399 = CARTESIAN_POINT ( 'NONE',  ( -1.982541115402064518E-15, 4.000000000000000000, -7.999999999999998224 ) ) ;
#400 = EDGE_LOOP ( 'NONE', ( #632, #550, #66, #429 ) ) ;
#401 = SURFACE_STYLE_FILL_AREA ( #389 ) ;
#402 = DIRECTION ( 'NONE',  ( -2.312964634635742464E-16, 0.000000000000000000, -1.000000000000000000 ) ) ;
#403 = EDGE_CURVE ( 'NONE', #268, #353, #337, .T. ) ;
#404 = EDGE_LOOP ( 'NONE', ( #36, #103, #370, #310, #342, #138, #152, #177, #421 ) ) ;
#405 = EDGE_CURVE ( 'NONE', #219, #88, #127, .T. ) ;
#406 = FACE_BOUND ( 'NONE', #553, .T. ) ;
#407 = ORIENTED_EDGE ( 'NONE', *, *, #512, .F. ) ;
#408 = VECTOR ( 'NONE', #288, 1000.000000000000000 ) ;
#409 = CARTESIAN_POINT ( 'NONE',  ( 13.00000000000000000, 0.000000000000000000, 11.39999999999999858 ) ) ;
#410 = ORIENTED_EDGE ( 'NONE', *, *, #263, .T. ) ;
#411 = DIRECTION ( 'NONE',  ( 0.000000000000000000, 0.000000000000000000, 1.000000000000000000 ) ) ;
#412 = ORIENTED_EDGE ( 'NONE', *, *, #639, .F. ) ;
#413 = ADVANCED_FACE ( 'NONE', ( #165 ), #430, .F. ) ;
#414 = CYLINDRICAL_SURFACE ( 'NONE', #365, 1.600000000000004086 ) ;
#415 = VERTEX_POINT ( 'NONE', #323 ) ;
#416 = CARTESIAN_POINT ( 'NONE',  ( 10.50000000000000533, 4.000000000000000000, 83.59999999999998010 ) ) ;
#417 = AXIS2_PLACEMENT_3D ( 'NONE', #346, #135, #329 ) ;
#418 = EDGE_CURVE ( 'NONE', #353, #219, #618, .T. ) ;
#419 = EDGE_LOOP ( 'NONE', ( #62, #359, #133, #350 ) ) ;
#420 = CARTESIAN_POINT ( 'NONE',  ( -1.982541115402064518E-15, 0.000000000000000000, -7.999999999999998224 ) ) ;
#421 = ORIENTED_EDGE ( 'NONE', *, *, #263, .F. ) ;
#422 = DIRECTION ( 'NONE',  ( 0.000000000000000000, 1.000000000000000000, 0.000000000000000000 ) ) ;
#423 = LINE ( 'NONE', #169, #180 ) ;
#424 = EDGE_CURVE ( 'NONE', #477, #261, #212, .T. ) ;
#425 = VERTEX_POINT ( 'NONE', #416 ) ;
#426 = CARTESIAN_POINT ( 'NONE',  ( 10.50000000000000533, 4.000000000000000000, 91.99999999999997158 ) ) ;
#427 = AXIS2_PLACEMENT_3D ( 'NONE', #375, #456, #258 ) ;
#428 = CIRCLE ( 'NONE', #482, 1.600000000000004086 ) ;
#429 = ORIENTED_EDGE ( 'NONE', *, *, #226, .T. ) ;
#430 = PLANE ( 'NONE',  #191 ) ;
#431 = EDGE_CURVE ( 'NONE', #216, #16, #471, .T. ) ;
#432 = DIRECTION ( 'NONE',  ( 0.000000000000000000, 1.000000000000000000, 0.000000000000000000 ) ) ;
#433 = CARTESIAN_POINT ( 'NONE',  ( 3.000000000000006661, 0.000000000000000000, 60.49999999999997868 ) ) ;
#434 = CARTESIAN_POINT ( 'NONE',  ( 10.50000000000000533, 0.000000000000000000, 83.59999999999998010 ) ) ;
#435 = CARTESIAN_POINT ( 'NONE',  ( 3.000000000000011546, 0.000000000000000000, 96.99999999999997158 ) ) ;
#436 = DIRECTION ( 'NONE',  ( 0.000000000000000000, 0.000000000000000000, 1.000000000000000000 ) ) ;
#437 = CARTESIAN_POINT ( 'NONE',  ( 18.00000000000001066, 0.000000000000000000, 97.00000000000000000 ) ) ;
#438 = CARTESIAN_POINT ( 'NONE',  ( 13.00000000000000000, 0.000000000000000000, 35.40000000000000568 ) ) ;
#439 = CARTESIAN_POINT ( 'NONE',  ( 30.59012693935119742, 0.000000000000000000, 4.147813822284903473 ) ) ;
#440 = EDGE_CURVE ( 'NONE', #14, #261, #463, .T. ) ;
#441 = CARTESIAN_POINT ( 'NONE',  ( 13.00000000000000000, 0.000000000000000000, 13.00000000000000178 ) ) ;
#442 = VERTEX_POINT ( 'NONE', #73 ) ;
#443 = DIRECTION ( 'NONE',  ( 0.000000000000000000, 0.000000000000000000, 1.000000000000000000 ) ) ;
#444 = AXIS2_PLACEMENT_3D ( 'NONE', #86, #240, #642 ) ;
#445 = FACE_OUTER_BOUND ( 'NONE', #298, .T. ) ;
#446 = VECTOR ( 'NONE', #480, 1000.000000000000000 ) ;
#447 = VECTOR ( 'NONE', #581, 1000.000000000000000 ) ;
#448 = EDGE_LOOP ( 'NONE', ( #178, #302, #492, #585 ) ) ;
#449 = DIRECTION ( 'NONE',  ( 0.000000000000000000, 0.000000000000000000, 1.000000000000000000 ) ) ;
#450 = EDGE_CURVE ( 'NONE', #3, #442, #110, .T. ) ;
#451 = CARTESIAN_POINT ( 'NONE',  ( 0.000000000000000000, 4.000000000000000000, 0.000000000000000000 ) ) ;
#452 = CYLINDRICAL_SURFACE ( 'NONE', #192, 1.600000000000004086 ) ;
#453 = ORIENTED_EDGE ( 'NONE', *, *, #244, .F. ) ;
#454 = EDGE_CURVE ( 'NONE', #615, #88, #377, .T. ) ;
#455 = CARTESIAN_POINT ( 'NONE',  ( 0.000000000000000000, 4.000000000000000000, 0.000000000000000000 ) ) ;
#456 = DIRECTION ( 'NONE',  ( 0.8944271909999158554, 0.000000000000000000, -0.4472135954999579832 ) ) ;
#457 = DIRECTION ( 'NONE',  ( 1.000000000000000000, 0.000000000000000000, 0.000000000000000000 ) ) ;
#458 = ORIENTED_EDGE ( 'NONE', *, *, #305, .T. ) ;
#459 = DIRECTION ( 'NONE',  ( -1.224646799147353207E-16, 0.000000000000000000, -1.000000000000000000 ) ) ;
#460 = AXIS2_PLACEMENT_3D ( 'NONE', #494, #334, #141 ) ;
#461 = ORIENTED_EDGE ( 'NONE', *, *, #274, .F. ) ;
#462 = MECHANICAL_DESIGN_GEOMETRIC_PRESENTATION_REPRESENTATION (  '', ( #89 ), #396 ) ;
#463 = CIRCLE ( 'NONE', #299, 1.600000000000004086 ) ;
#464 = EDGE_CURVE ( 'NONE', #353, #615, #25, .T. ) ;
#465 = CARTESIAN_POINT ( 'NONE',  ( 13.00000000000000000, 0.000000000000000000, 11.39999999999999858 ) ) ;
#466 = EDGE_LOOP ( 'NONE', ( #72, #499, #254, #407 ) ) ;
#467 = EDGE_LOOP ( 'NONE', ( #488, #125, #287, #246 ) ) ;
#468 = LINE ( 'NONE', #320, #629 ) ;
#469 = EDGE_LOOP ( 'NONE', ( #398, #495, #647, #250 ) ) ;
#470 = VECTOR ( 'NONE', #91, 1000.000000000000000 ) ;
#471 = LINE ( 'NONE', #521, #13 ) ;
#472 = AXIS2_PLACEMENT_3D ( 'NONE', #38, #505, #590 ) ;
#473 = ORIENTED_EDGE ( 'NONE', *, *, #17, .T. ) ;
#474 = DIRECTION ( 'NONE',  ( 0.4472135954999579832, 0.000000000000000000, 0.8944271909999158554 ) ) ;
#475 = EDGE_CURVE ( 'NONE', #415, #14, #80, .T. ) ;
#476 = CARTESIAN_POINT ( 'NONE',  ( 25.99999999999999289, 4.000000000000000000, 7.999999999999994671 ) ) ;
#477 = VERTEX_POINT ( 'NONE', #569 ) ;
#478 = DIRECTION ( 'NONE',  ( 1.306983440804443779E-16, 0.000000000000000000, 1.000000000000000000 ) ) ;
#479 = CARTESIAN_POINT ( 'NONE',  ( 13.00000000000000000, 4.000000000000000000, 37.00000000000000711 ) ) ;
#480 = DIRECTION ( 'NONE',  ( -0.000000000000000000, 1.000000000000000000, -0.000000000000000000 ) ) ;
#481 = VECTOR ( 'NONE', #474, 1000.000000000000000 ) ;
#482 = AXIS2_PLACEMENT_3D ( 'NONE', #32, #487, #35 ) ;
#483 = EDGE_CURVE ( 'NONE', #186, #619, #468, .T. ) ;
#484 = ORIENTED_EDGE ( 'NONE', *, *, #184, .F. ) ;
#485 = CYLINDRICAL_SURFACE ( 'NONE', #367, 1.600000000000002531 ) ;
#486 = ORIENTED_EDGE ( 'NONE', *, *, #599, .T. ) ;
#487 = DIRECTION ( 'NONE',  ( 0.000000000000000000, 1.000000000000000000, 0.000000000000000000 ) ) ;
#488 = ORIENTED_EDGE ( 'NONE', *, *, #523, .F. ) ;
#489 = AXIS2_PLACEMENT_3D ( 'NONE', #391, #545, #497 ) ;
#490 = CARTESIAN_POINT ( 'NONE',  ( 13.00000000000000000, 0.000000000000000000, 13.00000000000000178 ) ) ;
#491 = DIRECTION ( 'NONE',  ( 0.000000000000000000, 0.000000000000000000, 1.000000000000000000 ) ) ;
#492 = ORIENTED_EDGE ( 'NONE', *, *, #42, .T. ) ;
#493 = LINE ( 'NONE', #193, #326 ) ;
#494 = CARTESIAN_POINT ( 'NONE',  ( 30.59012693935119742, 4.000000000000000000, 4.147813822284903473 ) ) ;
#495 = ORIENTED_EDGE ( 'NONE', *, *, #99, .T. ) ;
#496 = CARTESIAN_POINT ( 'NONE',  ( 13.00000000000000000, 4.000000000000000000, 13.00000000000000178 ) ) ;
#497 = DIRECTION ( 'NONE',  ( 0.000000000000000000, 0.000000000000000000, 1.000000000000000000 ) ) ;
#498 =( NAMED_UNIT ( * ) PLANE_ANGLE_UNIT ( ) SI_UNIT ( $, .RADIAN. ) );
#499 = ORIENTED_EDGE ( 'NONE', *, *, #274, .T. ) ;
#500 = EDGE_CURVE ( 'NONE', #190, #95, #181, .T. ) ;
#501 = FACE_OUTER_BOUND ( 'NONE', #448, .T. ) ;
#502 = VECTOR ( 'NONE', #536, 1000.000000000000000 ) ;
#503 = CARTESIAN_POINT ( 'NONE',  ( 0.000000000000000000, 0.000000000000000000, 0.000000000000000000 ) ) ;
#504 = ORIENTED_EDGE ( 'NONE', *, *, #366, .F. ) ;
#505 = DIRECTION ( 'NONE',  ( -0.000000000000000000, 1.000000000000000000, -0.000000000000000000 ) ) ;
#506 = CARTESIAN_POINT ( 'NONE',  ( 0.000000000000000000, 0.000000000000000000, 0.000000000000000000 ) ) ;
#507 = ORIENTED_EDGE ( 'NONE', *, *, #74, .T. ) ;
#508 = PRODUCT_DEFINITION ( 'General', '', #356, #163 ) ;
#509 = CYLINDRICAL_SURFACE ( 'NONE', #354, 1.599999999999997202 ) ;
#510 = ORIENTED_EDGE ( 'NONE', *, *, #145, .F. ) ;
#511 = PRODUCT_DEFINITION_SHAPE ( 'NONE', 'NONE',  #508 ) ;
#512 = EDGE_CURVE ( 'NONE', #95, #393, #114, .T. ) ;
#513 = FACE_OUTER_BOUND ( 'NONE', #115, .T. ) ;
#514 = VECTOR ( 'NONE', #148, 1000.000000000000000 ) ;
#515 = ORIENTED_EDGE ( 'NONE', *, *, #475, .T. ) ;
#516 = CIRCLE ( 'NONE', #587, 1.600000000000004086 ) ;
#517 = AXIS2_PLACEMENT_3D ( 'NONE', #284, #235, #436 ) ;
#518 = EDGE_LOOP ( 'NONE', ( #410, #602, #524, #486 ) ) ;
#519 = FACE_OUTER_BOUND ( 'NONE', #78, .T. ) ;
#520 = ORIENTED_EDGE ( 'NONE', *, *, #305, .F. ) ;
#521 = CARTESIAN_POINT ( 'NONE',  ( 18.88524590163935102, 4.000000000000000000, -8.262295081967204524 ) ) ;
#522 = EDGE_CURVE ( 'NONE', #21, #580, #22, .T. ) ;
#523 = EDGE_CURVE ( 'NONE', #580, #264, #67, .T. ) ;
#524 = ORIENTED_EDGE ( 'NONE', *, *, #403, .F. ) ;
#525 = DIRECTION ( 'NONE',  ( 0.000000000000000000, 0.000000000000000000, 1.000000000000000000 ) ) ;
#526 = FACE_OUTER_BOUND ( 'NONE', #238, .T. ) ;
#527 = CARTESIAN_POINT ( 'NONE',  ( 26.00000000000000000, 4.000000000000000000, 38.00000000000000000 ) ) ;
#528 = CARTESIAN_POINT ( 'NONE',  ( 18.00000000000001066, 4.000000000000000000, 97.00000000000000000 ) ) ;
#529 = DIRECTION ( 'NONE',  ( 0.000000000000000000, 0.000000000000000000, 1.000000000000000000 ) ) ;
#530 = ORIENTED_EDGE ( 'NONE', *, *, #226, .F. ) ;
#531 = CARTESIAN_POINT ( 'NONE',  ( 13.00000000000000000, 0.000000000000000000, 14.60000000000000320 ) ) ;
#532 = EDGE_CURVE ( 'NONE', #619, #113, #217, .T. ) ;
#533 = VERTEX_POINT ( 'NONE', #173 ) ;
#534 = CARTESIAN_POINT ( 'NONE',  ( 10.50000000000000533, 0.000000000000000000, 81.99999999999997158 ) ) ;
#535 = AXIS2_PLACEMENT_3D ( 'NONE', #534, #577, #525 ) ;
#536 = DIRECTION ( 'NONE',  ( -1.000000000000000000, 0.000000000000000000, 2.478176394252581141E-16 ) ) ;
#537 = CARTESIAN_POINT ( 'NONE',  ( 19.00000000000000355, 4.000000000000000000, -8.000000000000003553 ) ) ;
#538 = ORIENTED_EDGE ( 'NONE', *, *, #392, .F. ) ;
#539 = CYLINDRICAL_SURFACE ( 'NONE', #444, 1.600000000000004086 ) ;
#540 = EDGE_CURVE ( 'NONE', #113, #533, #620, .T. ) ;
#541 = DIRECTION ( 'NONE',  ( -0.000000000000000000, 1.000000000000000000, -0.000000000000000000 ) ) ;
#542 = ORIENTED_EDGE ( 'NONE', *, *, #108, .F. ) ;
#543 = CARTESIAN_POINT ( 'NONE',  ( -21.79999999999998650, 4.000000000000000000, 10.89999999999999503 ) ) ;
#544 = VECTOR ( 'NONE', #28, 1000.000000000000000 ) ;
#545 = DIRECTION ( 'NONE',  ( 0.000000000000000000, 1.000000000000000000, 0.000000000000000000 ) ) ;
#546 = LINE ( 'NONE', #633, #355 ) ;
#547 = PLANE ( 'NONE',  #204 ) ;
#548 = DIRECTION ( 'NONE',  ( 1.000000000000000000, 0.000000000000000000, 9.251858538542973800E-16 ) ) ;
#549 = EDGE_CURVE ( 'NONE', #623, #149, #316, .T. ) ;
#550 = ORIENTED_EDGE ( 'NONE', *, *, #281, .F. ) ;
#551 = DIRECTION ( 'NONE',  ( -1.306983440804443779E-16, 0.000000000000000000, -1.000000000000000000 ) ) ;
#552 = CARTESIAN_POINT ( 'NONE',  ( 0.000000000000000000, 4.000000000000000000, 0.000000000000000000 ) ) ;
#553 = EDGE_LOOP ( 'NONE', ( #504, #567 ) ) ;
#554 = CARTESIAN_POINT ( 'NONE',  ( 10.50000000000000533, 4.000000000000000000, 80.39999999999997726 ) ) ;
#555 = AXIS2_PLACEMENT_3D ( 'NONE', #399, #601, #349 ) ;
#556 = CIRCLE ( 'NONE', #68, 1.600000000000002531 ) ;
#557 = FACE_OUTER_BOUND ( 'NONE', #400, .T. ) ;
#558 = AXIS2_PLACEMENT_3D ( 'NONE', #613, #157, #318 ) ;
#559 = VECTOR ( 'NONE', #597, 1000.000000000000000 ) ;
#560 = DIRECTION ( 'NONE',  ( 0.000000000000000000, 1.000000000000000000, 0.000000000000000000 ) ) ;
#561 = ORIENTED_EDGE ( 'NONE', *, *, #292, .T. ) ;
#562 = CARTESIAN_POINT ( 'NONE',  ( 25.99999999999999289, 0.000000000000000000, 7.999999999999994671 ) ) ;
#563 = VERTEX_POINT ( 'NONE', #77 ) ;
#564 = DIRECTION ( 'NONE',  ( 0.000000000000000000, 0.000000000000000000, 1.000000000000000000 ) ) ;
#565 = ORIENTED_EDGE ( 'NONE', *, *, #431, .F. ) ;
#566 = VECTOR ( 'NONE', #273, 1000.000000000000000 ) ;
#567 = ORIENTED_EDGE ( 'NONE', *, *, #571, .F. ) ;
#568 = ADVANCED_FACE ( 'NONE', ( #276 ), #485, .F. ) ;
#569 = CARTESIAN_POINT ( 'NONE',  ( 10.50000000000000533, 0.000000000000000000, 93.59999999999998010 ) ) ;
#570 = UNCERTAINTY_MEASURE_WITH_UNIT (LENGTH_MEASURE( 1.000000000000000082E-05 ), #7, 'distance_accuracy_value', 'NONE');
#571 = EDGE_CURVE ( 'NONE', #211, #393, #595, .T. ) ;
#572 = ORIENTED_EDGE ( 'NONE', *, *, #33, .F. ) ;
#573 = DIRECTION ( 'NONE',  ( -1.000000000000000000, 0.000000000000000000, 2.478176394252581141E-16 ) ) ;
#574 = EDGE_LOOP ( 'NONE', ( #484, #295 ) ) ;
#575 = CIRCLE ( 'NONE', #11, 1.599999999999997202 ) ;
#576 = PRODUCT_RELATED_PRODUCT_CATEGORY ( 'part', '', ( #609 ) ) ;
#577 = DIRECTION ( 'NONE',  ( 0.000000000000000000, 1.000000000000000000, 0.000000000000000000 ) ) ;
#578 = AXIS2_PLACEMENT_3D ( 'NONE', #379, #422, #270 ) ;
#579 = DIRECTION ( 'NONE',  ( 0.000000000000000000, 1.000000000000000000, 0.000000000000000000 ) ) ;
#580 = VERTEX_POINT ( 'NONE', #438 ) ;
#581 = DIRECTION ( 'NONE',  ( -0.000000000000000000, -1.000000000000000000, -0.000000000000000000 ) ) ;
#582 = EDGE_CURVE ( 'NONE', #16, #619, #278, .T. ) ;
#583 = CARTESIAN_POINT ( 'NONE',  ( 13.00000000000000000, 4.000000000000000000, 38.60000000000000142 ) ) ;
#584 = DIRECTION ( 'NONE',  ( 0.5299989400031799303, 0.000000000000000000, -0.8479983040050880216 ) ) ;
#585 = ORIENTED_EDGE ( 'NONE', *, *, #589, .T. ) ;
#586 = CARTESIAN_POINT ( 'NONE',  ( 13.00000000000000000, 0.000000000000000000, 13.00000000000000178 ) ) ;
#587 = AXIS2_PLACEMENT_3D ( 'NONE', #312, #239, #187 ) ;
#588 = CARTESIAN_POINT ( 'NONE',  ( -8.974302782386682456E-14, 4.000000000000000000, 96.99999999999997158 ) ) ;
#589 = EDGE_CURVE ( 'NONE', #425, #290, #428, .T. ) ;
#590 = DIRECTION ( 'NONE',  ( 0.000000000000000000, 0.000000000000000000, 1.000000000000000000 ) ) ;
#591 = LINE ( 'NONE', #455, #225 ) ;
#592 = CARTESIAN_POINT ( 'NONE',  ( 13.00000000000000000, 0.000000000000000000, 14.60000000000000320 ) ) ;
#593 = LINE ( 'NONE', #397, #559 ) ;
#594 = CARTESIAN_POINT ( 'NONE',  ( 3.000000000000006661, 4.000000000000000000, 60.49999999999997868 ) ) ;
#595 = CIRCLE ( 'NONE', #417, 1.600000000000002531 ) ;
#596 = FACE_OUTER_BOUND ( 'NONE', #404, .T. ) ;
#597 = DIRECTION ( 'NONE',  ( 1.000000000000000000, 0.000000000000000000, 9.251858538542973800E-16 ) ) ;
#598 = ORIENTED_EDGE ( 'NONE', *, *, #418, .T. ) ;
#599 = EDGE_CURVE ( 'NONE', #268, #107, #189, .T. ) ;
#600 = DIRECTION ( 'NONE',  ( 0.1343636729735779300, 0.000000000000000000, -0.9909320881801383374 ) ) ;
#601 = DIRECTION ( 'NONE',  ( 2.478176394252581634E-16, -0.000000000000000000, 1.000000000000000000 ) ) ;
#602 = ORIENTED_EDGE ( 'NONE', *, *, #464, .F. ) ;
#603 = DIRECTION ( 'NONE',  ( -1.000000000000000000, 0.000000000000000000, 2.312964634635742464E-16 ) ) ;
#604 = CARTESIAN_POINT ( 'NONE',  ( 10.50000000000000533, 0.000000000000000000, 80.39999999999997726 ) ) ;
#605 = CARTESIAN_POINT ( 'NONE',  ( 10.50000000000000533, 0.000000000000000000, 81.99999999999997158 ) ) ;
#606 = EDGE_LOOP ( 'NONE', ( #209, #368, #565, #617 ) ) ;
#607 = LINE ( 'NONE', #476, #374 ) ;
#608 = ORIENTED_EDGE ( 'NONE', *, *, #403, .T. ) ;
#609 = PRODUCT ( 'Gripper Hand Right_Gripper Hand Left', 'Gripper Hand Right_Gripper Hand Left', '', ( #245 ) ) ;
#610 = CARTESIAN_POINT ( 'NONE',  ( 10.50000000000000533, 0.000000000000000000, 91.99999999999997158 ) ) ;
#611 = DIRECTION ( 'NONE',  ( 0.000000000000000000, 0.000000000000000000, 1.000000000000000000 ) ) ;
#612 = ORIENTED_EDGE ( 'NONE', *, *, #101, .T. ) ;
#613 = CARTESIAN_POINT ( 'NONE',  ( 18.88524590163935102, 4.000000000000000000, -8.262295081967204524 ) ) ;
#614 = APPLICATION_PROTOCOL_DEFINITION ( 'draft international standard', 'automotive_design', 1998, #156 ) ;
#615 = VERTEX_POINT ( 'NONE', #433 ) ;
#616 = EDGE_CURVE ( 'NONE', #171, #268, #546, .T. ) ;
#617 = ORIENTED_EDGE ( 'NONE', *, *, #194, .T. ) ;
#618 = LINE ( 'NONE', #369, #566 ) ;
#619 = VERTEX_POINT ( 'NONE', #232 ) ;
#620 = LINE ( 'NONE', #223, #385 ) ;
#621 = EDGE_CURVE ( 'NONE', #88, #149, #593, .T. ) ;
#622 = APPLICATION_CONTEXT ( 'automotive_design' ) ;
#623 = VERTEX_POINT ( 'NONE', #636 ) ;
#624 = CARTESIAN_POINT ( 'NONE',  ( 0.000000000000000000, 4.000000000000000000, 0.000000000000000000 ) ) ;
#625 = PLANE ( 'NONE',  #558 ) ;
#626 = EDGE_LOOP ( 'NONE', ( #84, #24 ) ) ;
#627 = VECTOR ( 'NONE', #372, 1000.000000000000000 ) ;
#628 = DIRECTION ( 'NONE',  ( 0.000000000000000000, 1.000000000000000000, 0.000000000000000000 ) ) ;
#629 = VECTOR ( 'NONE', #70, 999.9999999999998863 ) ;
#630 = CARTESIAN_POINT ( 'NONE',  ( 19.00000000000000355, 4.000000000000000000, -8.000000000000003553 ) ) ;
#631 = CARTESIAN_POINT ( 'NONE',  ( 2.999999999999998668, 0.000000000000000000, -3.920950322413330104E-16 ) ) ;
#632 = ORIENTED_EDGE ( 'NONE', *, *, #475, .F. ) ;
#633 = CARTESIAN_POINT ( 'NONE',  ( 0.000000000000000000, 4.000000000000000000, 0.000000000000000000 ) ) ;
#634 = CARTESIAN_POINT ( 'NONE',  ( 10.50000000000000533, 0.000000000000000000, 80.39999999999997726 ) ) ;
#635 = ADVANCED_FACE ( 'NONE', ( #386 ), #333, .F. ) ;
#636 = CARTESIAN_POINT ( 'NONE',  ( 18.00000000000001066, 4.000000000000000000, 97.00000000000000000 ) ) ;
#637 = CLOSED_SHELL ( 'NONE', ( #568, #253, #646, #635, #176, #218, #330, #19, #56, #357, #236, #166, #413, #215, #155, #63, #381, #126, #83 ) ) ;
#638 = VECTOR ( 'NONE', #90, 1000.000000000000000 ) ;
#639 = EDGE_CURVE ( 'NONE', #21, #52, #388, .T. ) ;
#640 = PLANE ( 'NONE',  #460 ) ;
#641 = DIRECTION ( 'NONE',  ( 0.000000000000000000, 1.000000000000000000, 0.000000000000000000 ) ) ;
#642 = DIRECTION ( 'NONE',  ( 0.000000000000000000, 0.000000000000000000, 1.000000000000000000 ) ) ;
#643 = ORIENTED_EDGE ( 'NONE', *, *, #440, .T. ) ;
#644 = DIRECTION ( 'NONE',  ( -0.5299989400031799303, 0.000000000000000000, 0.8479983040050880216 ) ) ;
#645 = CARTESIAN_POINT ( 'NONE',  ( 30.59012693935119742, 4.000000000000000000, 4.147813822284903473 ) ) ;
#646 = ADVANCED_FACE ( 'NONE', ( #87 ), #452, .F. ) ;
#647 = ORIENTED_EDGE ( 'NONE', *, *, #244, .T. ) ;
#648 = AXIS2_PLACEMENT_3D ( 'NONE', #490, #51, #345 ) ;
ENDSEC;
END-ISO-10303-21;
