ISO-10303-21;
HEADER;
FILE_DESCRIPTION (( 'STEP AP214' ),
    '1' );
FILE_NAME ('Gripper End.STEP',
    '2026-08-27T22:10:01',
    ( '' ),
    ( '' ),
    'SwSTEP 2.0',
    'SolidWorks 2026',
    '' );
FILE_SCHEMA (( 'AUTOMOTIVE_DESIGN' ));
ENDSEC;

DATA;
#1 = CARTESIAN_POINT ( 'NONE',  ( -9.999999999999998224, 22.00000000000000000, 9.000000000000000000 ) ) ;
#2 = AXIS2_PLACEMENT_3D ( 'NONE', #515, #244, #665 ) ;
#3 = LINE ( 'NONE', #105, #127 ) ;
#4 = CARTESIAN_POINT ( 'NONE',  ( -6.599999999999997868, 13.00000000000000178, -9.000000000000000000 ) ) ;
#5 = EDGE_CURVE ( 'NONE', #670, #572, #401, .T. ) ;
#6 = ORIENTED_EDGE ( 'NONE', *, *, #192, .F. ) ;
#7 =( NAMED_UNIT ( * ) SI_UNIT ( $, .STERADIAN. ) SOLID_ANGLE_UNIT ( ) );
#8 = CARTESIAN_POINT ( 'NONE',  ( 13.56141396054371917, 29.63747688518533607, -12.56141396054371562 ) ) ;
#9 = CARTESIAN_POINT ( 'NONE',  ( -9.999999999999998224, 22.00000000000000000, -9.000000000000000000 ) ) ;
#10 = ORIENTED_EDGE ( 'NONE', *, *, #369, .F. ) ;
#11 = CARTESIAN_POINT ( 'NONE',  ( 10.00000000000000178, 22.00000000000000000, -9.000000000000000000 ) ) ;
#12 = CARTESIAN_POINT ( 'NONE',  ( -4.999999999999998224, 5.000000000000000000, 9.000000000000000000 ) ) ;
#13 = CARTESIAN_POINT ( 'NONE',  ( -9.999999999999998224, 22.00000000000000000, 9.000000000000000000 ) ) ;
#14 = ORIENTED_EDGE ( 'NONE', *, *, #405, .F. ) ;
#15 = VECTOR ( 'NONE', #419, 1000.000000000000000 ) ;
#16 = CARTESIAN_POINT ( 'NONE',  ( -4.999999999999998224, 5.000000000000000000, 9.000000000000000000 ) ) ;
#17 = DIRECTION ( 'NONE',  ( 0.000000000000000000, 0.000000000000000000, 1.000000000000000000 ) ) ;
#18 = EDGE_LOOP ( 'NONE', ( #539, #184, #528, #491 ) ) ;
#19 = CARTESIAN_POINT ( 'NONE',  ( 5.000000000000001776, 13.00000000000000178, 9.000000000000000000 ) ) ;
#20 = ADVANCED_FACE ( 'NONE', ( #84, #457, #32, #285, #664 ), #611, .F. ) ;
#21 = ORIENTED_EDGE ( 'NONE', *, *, #35, .T. ) ;
#22 = EDGE_LOOP ( 'NONE', ( #319, #180, #162, #27 ) ) ;
#23 = EDGE_CURVE ( 'NONE', #25, #56, #34, .T. ) ;
#24 = DIRECTION ( 'NONE',  ( 0.000000000000000000, 0.000000000000000000, -1.000000000000000000 ) ) ;
#25 = VERTEX_POINT ( 'NONE', #238 ) ;
#26 = PLANE ( 'NONE',  #88 ) ;
#27 = ORIENTED_EDGE ( 'NONE', *, *, #83, .F. ) ;
#28 = CARTESIAN_POINT ( 'NONE',  ( -3.399999999999998579, 5.000000000000000000, -12.73046126523999710 ) ) ;
#29 = CARTESIAN_POINT ( 'NONE',  ( 12.02303805566084982, 33.86412994648419073, 11.02303805566082673 ) ) ;
#30 = CARTESIAN_POINT ( 'NONE',  ( -9.999999999999998224, 22.00000000000000000, -9.000000000000000000 ) ) ;
#31 = DIRECTION ( 'NONE',  ( 0.000000000000000000, 0.000000000000000000, -1.000000000000000000 ) ) ;
#32 = FACE_BOUND ( 'NONE', #291, .T. ) ;
#33 = DIRECTION ( 'NONE',  ( -0.000000000000000000, -0.000000000000000000, 1.000000000000000000 ) ) ;
#34 = LINE ( 'NONE', #559, #483 ) ;
#35 = EDGE_CURVE ( 'NONE', #572, #649, #296, .T. ) ;
#36 = DIRECTION ( 'NONE',  ( 0.000000000000000000, -0.3420201433256658263, -0.9396926207859095381 ) ) ;
#37 = ORIENTED_EDGE ( 'NONE', *, *, #99, .F. ) ;
#38 = CARTESIAN_POINT ( 'NONE',  ( 5.000000000000001776, 13.00000000000000178, -9.000000000000000000 ) ) ;
#39 = FACE_OUTER_BOUND ( 'NONE', #551, .T. ) ;
#40 = CARTESIAN_POINT ( 'NONE',  ( 5.000000000000001776, 5.000000000000000000, -12.73046126523999710 ) ) ;
#41 = LINE ( 'NONE', #293, #658 ) ;
#42 = ORIENTED_EDGE ( 'NONE', *, *, #453, .T. ) ;
#43 = DIRECTION ( 'NONE',  ( 0.000000000000000000, 0.000000000000000000, -1.000000000000000000 ) ) ;
#44 = ADVANCED_FACE ( 'NONE', ( #39 ), #446, .T. ) ;
#45 = DIRECTION ( 'NONE',  ( 0.000000000000000000, -0.4226182617407002740, -0.9063077870366496036 ) ) ;
#46 = ORIENTED_EDGE ( 'NONE', *, *, #71, .T. ) ;
#47 = SURFACE_STYLE_USAGE ( .BOTH. , #632 ) ;
#48 = EDGE_CURVE ( 'NONE', #651, #266, #575, .T. ) ;
#49 = CYLINDRICAL_SURFACE ( 'NONE', #85, 1.599999999999999867 ) ;
#50 = DIRECTION ( 'NONE',  ( 1.000000000000000000, 0.000000000000000000, 0.000000000000000000 ) ) ;
#51 = ORIENTED_EDGE ( 'NONE', *, *, #547, .T. ) ;
#52 = LINE ( 'NONE', #11, #279 ) ;
#53 = AXIS2_PLACEMENT_3D ( 'NONE', #306, #524, #172 ) ;
#54 = AXIS2_PLACEMENT_3D ( 'NONE', #231, #33, #189 ) ;
#55 = DIRECTION ( 'NONE',  ( 1.000000000000000000, 0.000000000000000000, 0.000000000000000000 ) ) ;
#56 = VERTEX_POINT ( 'NONE', #199 ) ;
#57 = SURFACE_STYLE_FILL_AREA ( #427 ) ;
#58 = CARTESIAN_POINT ( 'NONE',  ( -4.999999999999998224, 13.00000000000000178, 9.000000000000000000 ) ) ;
#59 = VERTEX_POINT ( 'NONE', #142 ) ;
#60 = DIRECTION ( 'NONE',  ( 0.000000000000000000, 0.000000000000000000, 1.000000000000000000 ) ) ;
#61 =( NAMED_UNIT ( * ) SI_UNIT ( $, .STERADIAN. ) SOLID_ANGLE_UNIT ( ) );
#62 = ORIENTED_EDGE ( 'NONE', *, *, #265, .F. ) ;
#63 = CIRCLE ( 'NONE', #564, 1.599999999999999867 ) ;
#64 = ADVANCED_FACE ( 'NONE', ( #308 ), #621, .F. ) ;
#65 = CARTESIAN_POINT ( 'NONE',  ( -6.599999999999997868, 13.00000000000000178, 9.000000000000000000 ) ) ;
#66 = AXIS2_PLACEMENT_3D ( 'NONE', #592, #17, #50 ) ;
#67 = ORIENTED_EDGE ( 'NONE', *, *, #364, .T. ) ;
#68 = ADVANCED_FACE ( 'NONE', ( #667 ), #580, .T. ) ;
#69 = ORIENTED_EDGE ( 'NONE', *, *, #99, .T. ) ;
#70 = CARTESIAN_POINT ( 'NONE',  ( -9.999999999999998224, 22.00000000000000000, 9.000000000000000000 ) ) ;
#71 = EDGE_CURVE ( 'NONE', #617, #165, #138, .T. ) ;
#72 = VERTEX_POINT ( 'NONE', #197 ) ;
#73 = LINE ( 'NONE', #454, #546 ) ;
#74 = VECTOR ( 'NONE', #43, 1000.000000000000000 ) ;
#75 = EDGE_LOOP ( 'NONE', ( #614, #435, #281, #374 ) ) ;
#76 = CARTESIAN_POINT ( 'NONE',  ( -9.999999999999998224, 22.00000000000000000, -9.000000000000000000 ) ) ;
#77 = CARTESIAN_POINT ( 'NONE',  ( 3.400000000000001688, 13.00000000000000178, 9.000000000000000000 ) ) ;
#78 = EDGE_LOOP ( 'NONE', ( #188, #396 ) ) ;
#79 = FACE_OUTER_BOUND ( 'NONE', #200, .T. ) ;
#80 = CARTESIAN_POINT ( 'NONE',  ( 3.400000000000002132, 5.000000000000000000, -9.000000000000000000 ) ) ;
#81 = DIRECTION ( 'NONE',  ( -1.000000000000000000, -0.000000000000000000, -0.000000000000000000 ) ) ;
#82 = DIRECTION ( 'NONE',  ( 0.000000000000000000, -0.000000000000000000, 1.000000000000000000 ) ) ;
#83 = EDGE_CURVE ( 'NONE', #523, #325, #3, .T. ) ;
#84 = FACE_BOUND ( 'NONE', #603, .T. ) ;
#85 = AXIS2_PLACEMENT_3D ( 'NONE', #359, #412, #298 ) ;
#86 = CYLINDRICAL_SURFACE ( 'NONE', #54, 1.599999999999999867 ) ;
#87 = STYLED_ITEM ( 'NONE', ( #255 ), #335 ) ;
#88 = AXIS2_PLACEMENT_3D ( 'NONE', #344, #498, #397 ) ;
#89 = ORIENTED_EDGE ( 'NONE', *, *, #133, .T. ) ;
#90 = CARTESIAN_POINT ( 'NONE',  ( -9.999999999999998224, 0.000000000000000000, -9.000000000000000000 ) ) ;
#91 = DIRECTION ( 'NONE',  ( 0.000000000000000000, 0.000000000000000000, 1.000000000000000000 ) ) ;
#92 = CARTESIAN_POINT ( 'NONE',  ( 0.000000000000000000, 30.00000000000000000, 12.42946633751771124 ) ) ;
#93 = ORIENTED_EDGE ( 'NONE', *, *, #23, .T. ) ;
#94 = CIRCLE ( 'NONE', #408, 1.599999999999999867 ) ;
#95 = VECTOR ( 'NONE', #155, 1000.000000000000000 ) ;
#96 = CYLINDRICAL_SURFACE ( 'NONE', #173, 1.599999999999999867 ) ;
#97 = CARTESIAN_POINT ( 'NONE',  ( 10.00000000000000178, 22.00000000000000000, -9.000000000000000000 ) ) ;
#98 = ORIENTED_EDGE ( 'NONE', *, *, #302, .T. ) ;
#99 = EDGE_CURVE ( 'NONE', #363, #25, #570, .T. ) ;
#100 = FACE_OUTER_BOUND ( 'NONE', #75, .T. ) ;
#101 = LINE ( 'NONE', #415, #15 ) ;
#102 = DIRECTION ( 'NONE',  ( -0.000000000000000000, -1.000000000000000000, -0.000000000000000000 ) ) ;
#103 = ORIENTED_EDGE ( 'NONE', *, *, #602, .T. ) ;
#104 = DIRECTION ( 'NONE',  ( 1.000000000000000000, 0.000000000000000000, 0.000000000000000000 ) ) ;
#105 = CARTESIAN_POINT ( 'NONE',  ( 6.600000000000001421, 13.00000000000000178, -12.73046126523999710 ) ) ;
#106 = DIRECTION ( 'NONE',  ( 0.000000000000000000, 0.000000000000000000, -1.000000000000000000 ) ) ;
#107 = EDGE_LOOP ( 'NONE', ( #392, #340, #507, #654 ) ) ;
#108 = AXIS2_PLACEMENT_3D ( 'NONE', #40, #249, #110 ) ;
#109 = AXIS2_PLACEMENT_3D ( 'NONE', #201, #418, #626 ) ;
#110 = DIRECTION ( 'NONE',  ( 1.000000000000000000, 0.000000000000000000, 0.000000000000000000 ) ) ;
#111 = EDGE_LOOP ( 'NONE', ( #215, #62, #243, #567 ) ) ;
#112 = CARTESIAN_POINT ( 'NONE',  ( -13.56141396054371562, 29.63747688518533607, 12.56141396054371562 ) ) ;
#113 = EDGE_LOOP ( 'NONE', ( #160, #124, #514, #332 ) ) ;
#114 = DIRECTION ( 'NONE',  ( 1.000000000000000000, 0.000000000000000000, 0.000000000000000000 ) ) ;
#115 = ORIENTED_EDGE ( 'NONE', *, *, #673, .F. ) ;
#116 = EDGE_CURVE ( 'NONE', #263, #670, #101, .T. ) ;
#117 = VECTOR ( 'NONE', #203, 1000.000000000000000 ) ;
#118 = ORIENTED_EDGE ( 'NONE', *, *, #252, .F. ) ;
#119 = LINE ( 'NONE', #331, #74 ) ;
#120 = EDGE_CURVE ( 'NONE', #213, #305, #216, .T. ) ;
#121 = ADVANCED_FACE ( 'NONE', ( #145 ), #154, .T. ) ;
#122 = ORIENTED_EDGE ( 'NONE', *, *, #438, .F. ) ;
#123 = DIRECTION ( 'NONE',  ( 0.000000000000000000, 0.000000000000000000, 1.000000000000000000 ) ) ;
#124 = ORIENTED_EDGE ( 'NONE', *, *, #190, .F. ) ;
#125 = CARTESIAN_POINT ( 'NONE',  ( 13.42946633751771657, 30.00000000000000000, 12.42946633751771124 ) ) ;
#126 = CARTESIAN_POINT ( 'NONE',  ( -9.999999999999998224, 22.00000000000000000, 9.000000000000000000 ) ) ;
#127 = VECTOR ( 'NONE', #428, 1000.000000000000000 ) ;
#128 = EDGE_LOOP ( 'NONE', ( #598, #426 ) ) ;
#129 = DIRECTION ( 'NONE',  ( 0.000000000000000000, 0.000000000000000000, 1.000000000000000000 ) ) ;
#130 = CARTESIAN_POINT ( 'NONE',  ( -4.999999999999998224, 5.000000000000000000, -9.000000000000000000 ) ) ;
#131 = ORIENTED_EDGE ( 'NONE', *, *, #71, .F. ) ;
#132 = CARTESIAN_POINT ( 'NONE',  ( -13.42946633751771301, 30.00000000000000000, 12.73046126523999710 ) ) ;
#133 = EDGE_CURVE ( 'NONE', #423, #577, #461, .T. ) ;
#134 = ORIENTED_EDGE ( 'NONE', *, *, #133, .F. ) ;
#135 = LINE ( 'NONE', #132, #196 ) ;
#136 = EDGE_CURVE ( 'NONE', #310, #59, #317, .T. ) ;
#137 = ORIENTED_EDGE ( 'NONE', *, *, #222, .T. ) ;
#138 = CIRCLE ( 'NONE', #542, 1.599999999999999867 ) ;
#139 = AXIS2_PLACEMENT_3D ( 'NONE', #558, #383, #219 ) ;
#140 = CIRCLE ( 'NONE', #600, 1.599999999999999867 ) ;
#141 = EDGE_LOOP ( 'NONE', ( #343, #220, #384, #37 ) ) ;
#142 = CARTESIAN_POINT ( 'NONE',  ( -13.42946633751771301, 30.00000000000000000, 12.42946633751771124 ) ) ;
#143 = CARTESIAN_POINT ( 'NONE',  ( 13.56141396054371917, 29.63747688518533607, 12.56141396054371562 ) ) ;
#144 = DIRECTION ( 'NONE',  ( 0.000000000000000000, 0.000000000000000000, -1.000000000000000000 ) ) ;
#145 = FACE_OUTER_BOUND ( 'NONE', #18, .T. ) ;
#146 = ORIENTED_EDGE ( 'NONE', *, *, #390, .F. ) ;
#147 = AXIS2_PLACEMENT_3D ( 'NONE', #347, #240, #393 ) ;
#148 = FACE_OUTER_BOUND ( 'NONE', #288, .T. ) ;
#149 = CARTESIAN_POINT ( 'NONE',  ( 5.000000000000001776, 5.000000000000000000, 9.000000000000000000 ) ) ;
#150 = CARTESIAN_POINT ( 'NONE',  ( -9.999999999999998224, 22.00000000000000000, -9.000000000000000000 ) ) ;
#151 = ORIENTED_EDGE ( 'NONE', *, *, #5, .T. ) ;
#152 = ADVANCED_FACE ( 'NONE', ( #526 ), #49, .F. ) ;
#153 = DIRECTION ( 'NONE',  ( 1.000000000000000000, 0.000000000000000000, 0.000000000000000000 ) ) ;
#154 = PLANE ( 'NONE',  #608 ) ;
#155 = DIRECTION ( 'NONE',  ( -0.000000000000000000, -0.000000000000000000, 1.000000000000000000 ) ) ;
#156 = ORIENTED_EDGE ( 'NONE', *, *, #313, .T. ) ;
#157 = CARTESIAN_POINT ( 'NONE',  ( 6.600000000000001421, 13.00000000000000178, 9.000000000000000000 ) ) ;
#158 = LINE ( 'NONE', #375, #235 ) ;
#159 = SHAPE_DEFINITION_REPRESENTATION ( #168, #311 ) ;
#160 = ORIENTED_EDGE ( 'NONE', *, *, #237, .T. ) ;
#161 = DIRECTION ( 'NONE',  ( 0.3892816206350256381, -0.8348171294789870078, 0.3892816206350256381 ) ) ;
#162 = ORIENTED_EDGE ( 'NONE', *, *, #192, .T. ) ;
#163 = DIRECTION ( 'NONE',  ( 0.000000000000000000, 0.000000000000000000, 1.000000000000000000 ) ) ;
#164 = FACE_OUTER_BOUND ( 'NONE', #660, .T. ) ;
#165 = VERTEX_POINT ( 'NONE', #253 ) ;
#166 = EDGE_CURVE ( 'NONE', #169, #496, #476, .T. ) ;
#167 = DIRECTION ( 'NONE',  ( 1.000000000000000000, 0.000000000000000000, 0.000000000000000000 ) ) ;
#168 = PRODUCT_DEFINITION_SHAPE ( 'NONE', 'NONE',  #171 ) ;
#169 = VERTEX_POINT ( 'NONE', #8 ) ;
#170 = EDGE_CURVE ( 'NONE', #649, #263, #465, .T. ) ;
#171 = PRODUCT_DEFINITION ( 'General', '', #351, #177 ) ;
#172 = DIRECTION ( 'NONE',  ( 0.000000000000000000, -0.000000000000000000, -1.000000000000000000 ) ) ;
#173 = AXIS2_PLACEMENT_3D ( 'NONE', #479, #316, #358 ) ;
#174 = AXIS2_PLACEMENT_3D ( 'NONE', #248, #352, #420 ) ;
#175 = VERTEX_POINT ( 'NONE', #202 ) ;
#176 = CARTESIAN_POINT ( 'NONE',  ( -13.42946633751771301, 30.00000000000000000, 0.000000000000000000 ) ) ;
#177 = PRODUCT_DEFINITION_CONTEXT ( 'detailed design', #492, 'design' ) ;
#178 = ORIENTED_EDGE ( 'NONE', *, *, #205, .T. ) ;
#179 = DIRECTION ( 'NONE',  ( -1.000000000000000000, -0.000000000000000000, -0.000000000000000000 ) ) ;
#180 = ORIENTED_EDGE ( 'NONE', *, *, #616, .T. ) ;
#181 = DIRECTION ( 'NONE',  ( 0.9396926207859108704, -0.3420201433256618850, 0.000000000000000000 ) ) ;
#182 = DIRECTION ( 'NONE',  ( -0.000000000000000000, -0.000000000000000000, 1.000000000000000000 ) ) ;
#183 = VECTOR ( 'NONE', #283, 1000.000000000000000 ) ;
#184 = ORIENTED_EDGE ( 'NONE', *, *, #186, .T. ) ;
#185 = AXIS2_PLACEMENT_3D ( 'NONE', #13, #106, #318 ) ;
#186 = EDGE_CURVE ( 'NONE', #56, #169, #366, .T. ) ;
#187 = PLANE ( 'NONE',  #510 ) ;
#188 = ORIENTED_EDGE ( 'NONE', *, *, #205, .F. ) ;
#189 = DIRECTION ( 'NONE',  ( 1.000000000000000000, 0.000000000000000000, 0.000000000000000000 ) ) ;
#190 = EDGE_CURVE ( 'NONE', #59, #437, #158, .T. ) ;
#191 = ORIENTED_EDGE ( 'NONE', *, *, #506, .T. ) ;
#192 = EDGE_CURVE ( 'NONE', #225, #325, #63, .T. ) ;
#193 = ORIENTED_EDGE ( 'NONE', *, *, #252, .T. ) ;
#194 = AXIS2_PLACEMENT_3D ( 'NONE', #12, #221, #386 ) ;
#195 = CIRCLE ( 'NONE', #227, 1.599999999999999867 ) ;
#196 = VECTOR ( 'NONE', #129, 1000.000000000000000 ) ;
#197 = CARTESIAN_POINT ( 'NONE',  ( -3.399999999999998579, 13.00000000000000178, -9.000000000000000000 ) ) ;
#198 = DIRECTION ( 'NONE',  ( 1.000000000000000000, 0.000000000000000000, 0.000000000000000000 ) ) ;
#199 = CARTESIAN_POINT ( 'NONE',  ( -13.56141396054371562, 29.63747688518533607, -12.56141396054371562 ) ) ;
#200 = EDGE_LOOP ( 'NONE', ( #584, #553, #274, #146 ) ) ;
#201 = CARTESIAN_POINT ( 'NONE',  ( -4.999999999999998224, 5.000000000000000000, -12.73046126523999710 ) ) ;
#202 = CARTESIAN_POINT ( 'NONE',  ( -9.999999999999998224, 22.00000000000000000, 9.000000000000000000 ) ) ;
#203 = DIRECTION ( 'NONE',  ( -0.000000000000000000, -0.000000000000000000, 1.000000000000000000 ) ) ;
#204 = EDGE_LOOP ( 'NONE', ( #151, #439, #250, #620 ) ) ;
#205 = EDGE_CURVE ( 'NONE', #662, #577, #260, .T. ) ;
#206 = CIRCLE ( 'NONE', #299, 1.599999999999999867 ) ;
#207 = AXIS2_PLACEMENT_3D ( 'NONE', #38, #354, #576 ) ;
#208 = LINE ( 'NONE', #70, #349 ) ;
#209 = CARTESIAN_POINT ( 'NONE',  ( 10.00000000000000178, 22.00000000000000000, 9.000000000000000000 ) ) ;
#210 = ORIENTED_EDGE ( 'NONE', *, *, #506, .F. ) ;
#211 = DIRECTION ( 'NONE',  ( -0.000000000000000000, -0.000000000000000000, 1.000000000000000000 ) ) ;
#212 = DIRECTION ( 'NONE',  ( 1.000000000000000000, -0.000000000000000000, -0.000000000000000000 ) ) ;
#213 = VERTEX_POINT ( 'NONE', #80 ) ;
#214 = LINE ( 'NONE', #431, #574 ) ;
#215 = ORIENTED_EDGE ( 'NONE', *, *, #48, .F. ) ;
#216 = CIRCLE ( 'NONE', #278, 1.599999999999999867 ) ;
#217 = AXIS2_PLACEMENT_3D ( 'NONE', #448, #489, #167 ) ;
#218 = CIRCLE ( 'NONE', #410, 1.599999999999999867 ) ;
#219 = DIRECTION ( 'NONE',  ( 1.000000000000000000, 0.000000000000000000, 0.000000000000000000 ) ) ;
#220 = ORIENTED_EDGE ( 'NONE', *, *, #186, .F. ) ;
#221 = DIRECTION ( 'NONE',  ( 0.000000000000000000, 0.000000000000000000, 1.000000000000000000 ) ) ;
#222 = EDGE_CURVE ( 'NONE', #175, #455, #271, .T. ) ;
#223 = EDGE_LOOP ( 'NONE', ( #624, #642, #444, #593 ) ) ;
#224 = LINE ( 'NONE', #550, #470 ) ;
#225 = VERTEX_POINT ( 'NONE', #77 ) ;
#226 = FACE_OUTER_BOUND ( 'NONE', #204, .T. ) ;
#227 = AXIS2_PLACEMENT_3D ( 'NONE', #594, #640, #114 ) ;
#228 = ORIENTED_EDGE ( 'NONE', *, *, #646, .T. ) ;
#229 = CARTESIAN_POINT ( 'NONE',  ( 10.00000000000000178, 22.00000000000000000, 9.000000000000000000 ) ) ;
#230 = ORIENTED_EDGE ( 'NONE', *, *, #616, .F. ) ;
#231 = CARTESIAN_POINT ( 'NONE',  ( -4.999999999999998224, 13.00000000000000178, -12.73046126523999710 ) ) ;
#232 = CYLINDRICAL_SURFACE ( 'NONE', #217, 1.599999999999999867 ) ;
#233 = ORIENTED_EDGE ( 'NONE', *, *, #659, .T. ) ;
#234 = FACE_OUTER_BOUND ( 'NONE', #544, .T. ) ;
#235 = VECTOR ( 'NONE', #588, 1000.000000000000000 ) ;
#236 = CIRCLE ( 'NONE', #486, 1.599999999999999867 ) ;
#237 = EDGE_CURVE ( 'NONE', #596, #437, #503, .T. ) ;
#238 = CARTESIAN_POINT ( 'NONE',  ( -13.42946633751771301, 30.00000000000000000, -12.42946633751771124 ) ) ;
#239 = CIRCLE ( 'NONE', #362, 1.599999999999999867 ) ;
#240 = DIRECTION ( 'NONE',  ( -0.000000000000000000, -0.000000000000000000, 1.000000000000000000 ) ) ;
#241 = ADVANCED_FACE ( 'NONE', ( #339 ), #232, .F. ) ;
#242 = EDGE_CURVE ( 'NONE', #305, #617, #555, .T. ) ;
#243 = ORIENTED_EDGE ( 'NONE', *, *, #464, .T. ) ;
#244 = DIRECTION ( 'NONE',  ( -1.000000000000000000, 0.000000000000000000, 0.000000000000000000 ) ) ;
#245 = EDGE_LOOP ( 'NONE', ( #230, #368, #294, #193 ) ) ;
#246 = DIRECTION ( 'NONE',  ( -1.000000000000000000, -0.000000000000000000, -0.000000000000000000 ) ) ;
#247 = CARTESIAN_POINT ( 'NONE',  ( -13.73046126523999533, 30.00000000000000000, -12.42946633751771124 ) ) ;
#248 = CARTESIAN_POINT ( 'NONE',  ( -9.999999999999998224, 22.00000000000000000, 9.000000000000000000 ) ) ;
#249 = DIRECTION ( 'NONE',  ( -0.000000000000000000, -0.000000000000000000, 1.000000000000000000 ) ) ;
#250 = ORIENTED_EDGE ( 'NONE', *, *, #547, .F. ) ;
#251 = DIRECTION ( 'NONE',  ( 0.000000000000000000, 0.000000000000000000, 1.000000000000000000 ) ) ;
#252 = EDGE_CURVE ( 'NONE', #325, #225, #206, .T. ) ;
#253 = CARTESIAN_POINT ( 'NONE',  ( 3.400000000000002132, 5.000000000000000000, 9.000000000000000000 ) ) ;
#254 = VERTEX_POINT ( 'NONE', #436 ) ;
#255 = PRESENTATION_STYLE_ASSIGNMENT (( #47 ) ) ;
#256 = DIRECTION ( 'NONE',  ( 0.3236155771181784546, 0.8891264907159912578, -0.3236155771181826180 ) ) ;
#257 = EDGE_CURVE ( 'NONE', #423, #350, #433, .T. ) ;
#258 = APPLICATION_PROTOCOL_DEFINITION ( 'draft international standard', 'automotive_design', 1998, #492 ) ;
#259 = EDGE_LOOP ( 'NONE', ( #21, #403, #357, #67 ) ) ;
#260 = CIRCLE ( 'NONE', #194, 1.599999999999999867 ) ;
#261 =( LENGTH_UNIT ( ) NAMED_UNIT ( * ) SI_UNIT ( .MILLI., .METRE. ) );
#262 = DIRECTION ( 'NONE',  ( 0.000000000000000000, 0.9063077870366494926, -0.4226182617407002184 ) ) ;
#263 = VERTEX_POINT ( 'NONE', #342 ) ;
#264 = DIRECTION ( 'NONE',  ( 1.000000000000000000, 0.000000000000000000, 0.000000000000000000 ) ) ;
#265 = EDGE_CURVE ( 'NONE', #72, #651, #269, .T. ) ;
#266 = VERTEX_POINT ( 'NONE', #65 ) ;
#267 = DIRECTION ( 'NONE',  ( 0.3892816206350256381, -0.8348171294789870078, -0.3892816206350256381 ) ) ;
#268 = ORIENTED_EDGE ( 'NONE', *, *, #116, .T. ) ;
#269 = CIRCLE ( 'NONE', #139, 1.599999999999999867 ) ;
#270 =( GEOMETRIC_REPRESENTATION_CONTEXT ( 3 ) GLOBAL_UNCERTAINTY_ASSIGNED_CONTEXT ( ( #327 ) ) GLOBAL_UNIT_ASSIGNED_CONTEXT ( ( #484, #536, #61 ) ) REPRESENTATION_CONTEXT ( 'NONE', 'WORKASPACE' ) );
#271 = LINE ( 'NONE', #126, #183 ) ;
#272 = ORIENTED_EDGE ( 'NONE', *, *, #166, .F. ) ;
#273 = EDGE_CURVE ( 'NONE', #254, #266, #94, .T. ) ;
#274 = ORIENTED_EDGE ( 'NONE', *, *, #613, .F. ) ;
#275 = UNCERTAINTY_MEASURE_WITH_UNIT (LENGTH_MEASURE( 1.000000000000000082E-05 ), #261, 'distance_accuracy_value', 'NONE');
#276 = ORIENTED_EDGE ( 'NONE', *, *, #242, .T. ) ;
#277 = DIRECTION ( 'NONE',  ( -0.000000000000000000, -0.000000000000000000, 1.000000000000000000 ) ) ;
#278 = AXIS2_PLACEMENT_3D ( 'NONE', #355, #91, #55 ) ;
#279 = VECTOR ( 'NONE', #475, 1000.000000000000000 ) ;
#280 = VECTOR ( 'NONE', #650, 1000.000000000000000 ) ;
#281 = ORIENTED_EDGE ( 'NONE', *, *, #287, .T. ) ;
#282 = CARTESIAN_POINT ( 'NONE',  ( 10.00000000000000178, 22.00000000000000000, -9.000000000000000000 ) ) ;
#283 = DIRECTION ( 'NONE',  ( 1.000000000000000000, 0.000000000000000000, 0.000000000000000000 ) ) ;
#284 = APPLICATION_CONTEXT ( 'automotive_design' ) ;
#285 = FACE_BOUND ( 'NONE', #128, .T. ) ;
#286 = CARTESIAN_POINT ( 'NONE',  ( -6.599999999999997868, 5.000000000000000000, -9.000000000000000000 ) ) ;
#287 = EDGE_CURVE ( 'NONE', #266, #254, #195, .T. ) ;
#288 = EDGE_LOOP ( 'NONE', ( #122, #377, #276, #46 ) ) ;
#289 = LINE ( 'NONE', #495, #379 ) ;
#290 = EDGE_CURVE ( 'NONE', #577, #662, #236, .T. ) ;
#291 = EDGE_LOOP ( 'NONE', ( #605, #647 ) ) ;
#292 = VECTOR ( 'NONE', #297, 1000.000000000000114 ) ;
#293 = CARTESIAN_POINT ( 'NONE',  ( 3.400000000000002132, 13.00000000000000178, -12.73046126523999710 ) ) ;
#294 = ORIENTED_EDGE ( 'NONE', *, *, #83, .T. ) ;
#295 = DIRECTION ( 'NONE',  ( 1.000000000000000000, 0.000000000000000000, 0.000000000000000000 ) ) ;
#296 = LINE ( 'NONE', #90, #348 ) ;
#297 = DIRECTION ( 'NONE',  ( 0.3236155771181784546, -0.8891264907159912578, -0.3236155771181826180 ) ) ;
#298 = DIRECTION ( 'NONE',  ( 1.000000000000000000, 0.000000000000000000, 0.000000000000000000 ) ) ;
#299 = AXIS2_PLACEMENT_3D ( 'NONE', #19, #541, #399 ) ;
#300 = VECTOR ( 'NONE', #246, 1000.000000000000000 ) ;
#301 = ORIENTED_EDGE ( 'NONE', *, *, #390, .T. ) ;
#302 = EDGE_CURVE ( 'NONE', #56, #466, #214, .T. ) ;
#303 = FACE_OUTER_BOUND ( 'NONE', #107, .T. ) ;
#304 = DIRECTION ( 'NONE',  ( 0.4226182617407002184, -0.9063077870366494926, 0.000000000000000000 ) ) ;
#305 = VERTEX_POINT ( 'NONE', #380 ) ;
#306 = CARTESIAN_POINT ( 'NONE',  ( 0.000000000000000000, 0.000000000000000000, 0.000000000000000000 ) ) ;
#307 = EDGE_CURVE ( 'NONE', #310, #175, #591, .T. ) ;
#308 = FACE_OUTER_BOUND ( 'NONE', #223, .T. ) ;
#309 = CARTESIAN_POINT ( 'NONE',  ( 10.00000000000000178, 22.00000000000000000, 9.000000000000000000 ) ) ;
#310 = VERTEX_POINT ( 'NONE', #112 ) ;
#311 = ADVANCED_BREP_SHAPE_REPRESENTATION ( 'Gripper End_Gripper End', ( #335, #66 ), #270 ) ;
#312 = CARTESIAN_POINT ( 'NONE',  ( -4.999999999999998224, 13.00000000000000178, -12.73046126523999710 ) ) ;
#313 = EDGE_CURVE ( 'NONE', #350, #423, #589, .T. ) ;
#314 = DIRECTION ( 'NONE',  ( -0.9063077870366496036, -0.4226182617407002740, 0.000000000000000000 ) ) ;
#315 = ORIENTED_EDGE ( 'NONE', *, *, #474, .T. ) ;
#316 = DIRECTION ( 'NONE',  ( -0.000000000000000000, -0.000000000000000000, 1.000000000000000000 ) ) ;
#317 = LINE ( 'NONE', #633, #586 ) ;
#318 = DIRECTION ( 'NONE',  ( -1.000000000000000000, 0.000000000000000000, -0.000000000000000000 ) ) ;
#319 = ORIENTED_EDGE ( 'NONE', *, *, #602, .F. ) ;
#320 = CARTESIAN_POINT ( 'NONE',  ( -4.999999999999998224, 5.000000000000000000, -9.000000000000000000 ) ) ;
#321 = LINE ( 'NONE', #9, #391 ) ;
#322 = EDGE_LOOP ( 'NONE', ( #131, #14 ) ) ;
#323 = CARTESIAN_POINT ( 'NONE',  ( -9.999999999999998224, 22.00000000000000000, 9.000000000000000000 ) ) ;
#324 = CARTESIAN_POINT ( 'NONE',  ( -3.399999999999998579, 5.000000000000000000, 9.000000000000000000 ) ) ;
#325 = VERTEX_POINT ( 'NONE', #157 ) ;
#326 =( GEOMETRIC_REPRESENTATION_CONTEXT ( 3 ) GLOBAL_UNCERTAINTY_ASSIGNED_CONTEXT ( ( #275 ) ) GLOBAL_UNIT_ASSIGNED_CONTEXT ( ( #261, #371, #7 ) ) REPRESENTATION_CONTEXT ( 'NONE', 'WORKASPACE' ) );
#327 = UNCERTAINTY_MEASURE_WITH_UNIT (LENGTH_MEASURE( 1.000000000000000082E-05 ), #484, 'distance_accuracy_value', 'NONE');
#328 = VECTOR ( 'NONE', #179, 1000.000000000000000 ) ;
#329 = EDGE_CURVE ( 'NONE', #175, #263, #208, .T. ) ;
#330 = ORIENTED_EDGE ( 'NONE', *, *, #313, .F. ) ;
#331 = CARTESIAN_POINT ( 'NONE',  ( 13.42946633751771657, 30.00000000000000000, -12.73046126523999710 ) ) ;
#332 = ORIENTED_EDGE ( 'NONE', *, *, #511, .F. ) ;
#333 = PLANE ( 'NONE',  #442 ) ;
#334 = ADVANCED_FACE ( 'NONE', ( #100 ), #534, .F. ) ;
#335 = MANIFOLD_SOLID_BREP ( 'Chamfer1', #517 ) ;
#336 = ORIENTED_EDGE ( 'NONE', *, *, #222, .F. ) ;
#337 = FACE_OUTER_BOUND ( 'NONE', #562, .T. ) ;
#338 = VECTOR ( 'NONE', #522, 1000.000000000000000 ) ;
#339 = FACE_OUTER_BOUND ( 'NONE', #245, .T. ) ;
#340 = ORIENTED_EDGE ( 'NONE', *, *, #116, .F. ) ;
#341 = CARTESIAN_POINT ( 'NONE',  ( -13.73046126523999533, 29.63747688518533607, 12.56141396054371562 ) ) ;
#342 = CARTESIAN_POINT ( 'NONE',  ( -9.999999999999998224, 0.000000000000000000, 9.000000000000000000 ) ) ;
#343 = ORIENTED_EDGE ( 'NONE', *, *, #613, .T. ) ;
#344 = CARTESIAN_POINT ( 'NONE',  ( 0.000000000000000000, 30.00000000000000000, -12.42946633751771124 ) ) ;
#345 = ADVANCED_FACE ( 'NONE', ( #529 ), #96, .F. ) ;
#346 = DIRECTION ( 'NONE',  ( 0.000000000000000000, 0.000000000000000000, -1.000000000000000000 ) ) ;
#347 = CARTESIAN_POINT ( 'NONE',  ( 5.000000000000001776, 5.000000000000000000, -12.73046126523999710 ) ) ;
#348 = VECTOR ( 'NONE', #81, 1000.000000000000000 ) ;
#349 = VECTOR ( 'NONE', #414, 1000.000000000000000 ) ;
#350 = VERTEX_POINT ( 'NONE', #573 ) ;
#351 = PRODUCT_DEFINITION_FORMATION_WITH_SPECIFIED_SOURCE ( 'Symmetric', '', #527, .NOT_KNOWN. ) ;
#352 = DIRECTION ( 'NONE',  ( 0.000000000000000000, -0.4226182617407002740, 0.9063077870366496036 ) ) ;
#353 = DIRECTION ( 'NONE',  ( 1.000000000000000000, 0.000000000000000000, -0.000000000000000000 ) ) ;
#354 = DIRECTION ( 'NONE',  ( 0.000000000000000000, 0.000000000000000000, 1.000000000000000000 ) ) ;
#355 = CARTESIAN_POINT ( 'NONE',  ( 5.000000000000001776, 5.000000000000000000, -9.000000000000000000 ) ) ;
#356 = DIRECTION ( 'NONE',  ( -0.000000000000000000, -0.000000000000000000, 1.000000000000000000 ) ) ;
#357 = ORIENTED_EDGE ( 'NONE', *, *, #585, .F. ) ;
#358 = DIRECTION ( 'NONE',  ( 1.000000000000000000, 0.000000000000000000, 0.000000000000000000 ) ) ;
#359 = CARTESIAN_POINT ( 'NONE',  ( -4.999999999999998224, 5.000000000000000000, -12.73046126523999710 ) ) ;
#360 = PRESENTATION_LAYER_ASSIGNMENT (  '', '', ( #87 ) ) ;
#361 = CARTESIAN_POINT ( 'NONE',  ( 10.00000000000000178, 0.000000000000000000, -9.000000000000000000 ) ) ;
#362 = AXIS2_PLACEMENT_3D ( 'NONE', #404, #615, #609 ) ;
#363 = VERTEX_POINT ( 'NONE', #365 ) ;
#364 = EDGE_CURVE ( 'NONE', #496, #572, #52, .T. ) ;
#365 = CARTESIAN_POINT ( 'NONE',  ( 13.42946633751771657, 30.00000000000000000, -12.42946633751771124 ) ) ;
#366 = LINE ( 'NONE', #372, #468 ) ;
#367 = CARTESIAN_POINT ( 'NONE',  ( 5.000000000000001776, 13.00000000000000178, -9.000000000000000000 ) ) ;
#368 = ORIENTED_EDGE ( 'NONE', *, *, #565, .F. ) ;
#369 = EDGE_CURVE ( 'NONE', #596, #455, #224, .T. ) ;
#370 = ADVANCED_FACE ( 'NONE', ( #303 ), #467, .T. ) ;
#371 =( NAMED_UNIT ( * ) PLANE_ANGLE_UNIT ( ) SI_UNIT ( $, .RADIAN. ) );
#372 = CARTESIAN_POINT ( 'NONE',  ( 13.73046126523999888, 29.63747688518533607, -12.56141396054371562 ) ) ;
#373 = FACE_BOUND ( 'NONE', #417, .T. ) ;
#374 = ORIENTED_EDGE ( 'NONE', *, *, #464, .F. ) ;
#375 = CARTESIAN_POINT ( 'NONE',  ( 13.73046126523999888, 30.00000000000000000, 12.42946633751771124 ) ) ;
#376 = DIRECTION ( 'NONE',  ( -0.000000000000000000, -1.000000000000000000, -0.000000000000000000 ) ) ;
#377 = ORIENTED_EDGE ( 'NONE', *, *, #493, .F. ) ;
#378 = AXIS2_PLACEMENT_3D ( 'NONE', #312, #211, #153 ) ;
#379 = VECTOR ( 'NONE', #24, 1000.000000000000000 ) ;
#380 = CARTESIAN_POINT ( 'NONE',  ( 6.600000000000001421, 5.000000000000000000, -9.000000000000000000 ) ) ;
#381 = CARTESIAN_POINT ( 'NONE',  ( -9.999999999999998224, 0.000000000000000000, -9.000000000000000000 ) ) ;
#382 = ORIENTED_EDGE ( 'NONE', *, *, #307, .F. ) ;
#383 = DIRECTION ( 'NONE',  ( 0.000000000000000000, 0.000000000000000000, 1.000000000000000000 ) ) ;
#384 = ORIENTED_EDGE ( 'NONE', *, *, #23, .F. ) ;
#385 = ADVANCED_FACE ( 'NONE', ( #388 ), #601, .F. ) ;
#386 = DIRECTION ( 'NONE',  ( 1.000000000000000000, 0.000000000000000000, 0.000000000000000000 ) ) ;
#387 = EDGE_LOOP ( 'NONE', ( #452, #430, #394, #233 ) ) ;
#388 = FACE_OUTER_BOUND ( 'NONE', #387, .T. ) ;
#389 = VECTOR ( 'NONE', #267, 1000.000000000000227 ) ;
#390 = EDGE_CURVE ( 'NONE', #437, #363, #119, .T. ) ;
#391 = VECTOR ( 'NONE', #376, 1000.000000000000000 ) ;
#392 = ORIENTED_EDGE ( 'NONE', *, *, #5, .F. ) ;
#393 = DIRECTION ( 'NONE',  ( 1.000000000000000000, 0.000000000000000000, 0.000000000000000000 ) ) ;
#394 = ORIENTED_EDGE ( 'NONE', *, *, #561, .F. ) ;
#395 = CARTESIAN_POINT ( 'NONE',  ( 6.600000000000001421, 13.00000000000000178, -9.000000000000000000 ) ) ;
#396 = ORIENTED_EDGE ( 'NONE', *, *, #290, .F. ) ;
#397 = DIRECTION ( 'NONE',  ( -1.000000000000000000, 0.000000000000000000, 0.000000000000000000 ) ) ;
#398 = VECTOR ( 'NONE', #469, 1000.000000000000227 ) ;
#399 = DIRECTION ( 'NONE',  ( 1.000000000000000000, 0.000000000000000000, 0.000000000000000000 ) ) ;
#400 = AXIS2_PLACEMENT_3D ( 'NONE', #92, #36, #295 ) ;
#401 = LINE ( 'NONE', #409, #675 ) ;
#402 = CARTESIAN_POINT ( 'NONE',  ( -3.399999999999998579, 13.00000000000000178, -12.73046126523999710 ) ) ;
#403 = ORIENTED_EDGE ( 'NONE', *, *, #659, .F. ) ;
#404 = CARTESIAN_POINT ( 'NONE',  ( 5.000000000000001776, 5.000000000000000000, -9.000000000000000000 ) ) ;
#405 = EDGE_CURVE ( 'NONE', #165, #617, #218, .T. ) ;
#406 = ORIENTED_EDGE ( 'NONE', *, *, #136, .T. ) ;
#407 = AXIS2_PLACEMENT_3D ( 'NONE', #512, #504, #353 ) ;
#408 = AXIS2_PLACEMENT_3D ( 'NONE', #58, #638, #264 ) ;
#409 = CARTESIAN_POINT ( 'NONE',  ( 10.00000000000000178, 0.000000000000000000, 9.000000000000000000 ) ) ;
#410 = AXIS2_PLACEMENT_3D ( 'NONE', #668, #251, #198 ) ;
#411 = LINE ( 'NONE', #519, #292 ) ;
#412 = DIRECTION ( 'NONE',  ( -0.000000000000000000, -0.000000000000000000, 1.000000000000000000 ) ) ;
#413 = PLANE ( 'NONE',  #174 ) ;
#414 = DIRECTION ( 'NONE',  ( -0.000000000000000000, -1.000000000000000000, -0.000000000000000000 ) ) ;
#415 = CARTESIAN_POINT ( 'NONE',  ( -9.999999999999998224, 0.000000000000000000, 9.000000000000000000 ) ) ;
#416 = ADVANCED_FACE ( 'NONE', ( #463 ), #671, .F. ) ;
#417 = EDGE_LOOP ( 'NONE', ( #118, #6 ) ) ;
#418 = DIRECTION ( 'NONE',  ( -0.000000000000000000, -0.000000000000000000, 1.000000000000000000 ) ) ;
#419 = DIRECTION ( 'NONE',  ( 1.000000000000000000, 0.000000000000000000, 0.000000000000000000 ) ) ;
#420 = DIRECTION ( 'NONE',  ( 0.000000000000000000, -0.9063077870366494926, -0.4226182617407002184 ) ) ;
#421 = ADVANCED_FACE ( 'NONE', ( #148 ), #579, .F. ) ;
#422 = AXIS2_PLACEMENT_3D ( 'NONE', #450, #657, #82 ) ;
#423 = VERTEX_POINT ( 'NONE', #286 ) ;
#424 = FILL_AREA_STYLE_COLOUR ( '', #509 ) ;
#425 = DIRECTION ( 'NONE',  ( -0.000000000000000000, -0.000000000000000000, 1.000000000000000000 ) ) ;
#426 = ORIENTED_EDGE ( 'NONE', *, *, #440, .T. ) ;
#427 = FILL_AREA_STYLE ('',( #424 ) ) ;
#428 = DIRECTION ( 'NONE',  ( -0.000000000000000000, -0.000000000000000000, 1.000000000000000000 ) ) ;
#429 = LINE ( 'NONE', #309, #566 ) ;
#430 = ORIENTED_EDGE ( 'NONE', *, *, #329, .F. ) ;
#431 = CARTESIAN_POINT ( 'NONE',  ( -9.999999999999998224, 22.00000000000000000, -9.000000000000000000 ) ) ;
#432 = ORIENTED_EDGE ( 'NONE', *, *, #290, .T. ) ;
#433 = CIRCLE ( 'NONE', #587, 1.599999999999999867 ) ;
#434 = DIRECTION ( 'NONE',  ( 1.000000000000000000, 0.000000000000000000, 0.000000000000000000 ) ) ;
#435 = ORIENTED_EDGE ( 'NONE', *, *, #48, .T. ) ;
#436 = CARTESIAN_POINT ( 'NONE',  ( -3.399999999999998579, 13.00000000000000178, 9.000000000000000000 ) ) ;
#437 = VERTEX_POINT ( 'NONE', #125 ) ;
#438 = EDGE_CURVE ( 'NONE', #213, #165, #73, .T. ) ;
#439 = ORIENTED_EDGE ( 'NONE', *, *, #364, .F. ) ;
#440 = EDGE_CURVE ( 'NONE', #651, #72, #487, .T. ) ;
#441 = LINE ( 'NONE', #447, #280 ) ;
#442 = AXIS2_PLACEMENT_3D ( 'NONE', #176, #181, #123 ) ;
#443 = ADVANCED_FACE ( 'NONE', ( #554 ), #26, .F. ) ;
#444 = ORIENTED_EDGE ( 'NONE', *, *, #405, .T. ) ;
#445 = FACE_OUTER_BOUND ( 'NONE', #111, .T. ) ;
#446 = PLANE ( 'NONE',  #637 ) ;
#447 = CARTESIAN_POINT ( 'NONE',  ( -13.56141396054371562, 29.63747688518533607, -12.73046126523999710 ) ) ;
#448 = CARTESIAN_POINT ( 'NONE',  ( 5.000000000000001776, 13.00000000000000178, -12.73046126523999710 ) ) ;
#449 = ORIENTED_EDGE ( 'NONE', *, *, #369, .T. ) ;
#450 = CARTESIAN_POINT ( 'NONE',  ( 0.000000000000000000, 30.00000000000000000, 0.000000000000000000 ) ) ;
#451 = VECTOR ( 'NONE', #518, 1000.000000000000000 ) ;
#452 = ORIENTED_EDGE ( 'NONE', *, *, #170, .T. ) ;
#453 = EDGE_CURVE ( 'NONE', #350, #662, #612, .T. ) ;
#454 = CARTESIAN_POINT ( 'NONE',  ( 3.400000000000002132, 5.000000000000000000, -12.73046126523999710 ) ) ;
#455 = VERTEX_POINT ( 'NONE', #229 ) ;
#456 = FACE_OUTER_BOUND ( 'NONE', #520, .T. ) ;
#457 = FACE_BOUND ( 'NONE', #473, .T. ) ;
#458 = ADVANCED_FACE ( 'NONE', ( #445 ), #86, .F. ) ;
#459 = CARTESIAN_POINT ( 'NONE',  ( -6.599999999999997868, 13.00000000000000178, -12.73046126523999710 ) ) ;
#460 = CARTESIAN_POINT ( 'NONE',  ( -6.599999999999997868, 5.000000000000000000, 9.000000000000000000 ) ) ;
#461 = LINE ( 'NONE', #535, #655 ) ;
#462 = CARTESIAN_POINT ( 'NONE',  ( 6.600000000000001421, 5.000000000000000000, 9.000000000000000000 ) ) ;
#463 = FACE_OUTER_BOUND ( 'NONE', #549, .T. ) ;
#464 = EDGE_CURVE ( 'NONE', #72, #254, #652, .T. ) ;
#465 = LINE ( 'NONE', #672, #530 ) ;
#466 = VERTEX_POINT ( 'NONE', #76 ) ;
#467 = PLANE ( 'NONE',  #53 ) ;
#468 = VECTOR ( 'NONE', #212, 1000.000000000000000 ) ;
#469 = DIRECTION ( 'NONE',  ( -0.3892816206350256381, -0.8348171294789870078, 0.3892816206350256381 ) ) ;
#470 = VECTOR ( 'NONE', #645, 1000.000000000000227 ) ;
#471 = FACE_BOUND ( 'NONE', #322, .T. ) ;
#472 = VECTOR ( 'NONE', #557, 1000.000000000000000 ) ;
#473 = EDGE_LOOP ( 'NONE', ( #156, #630 ) ) ;
#474 = EDGE_CURVE ( 'NONE', #310, #56, #441, .T. ) ;
#475 = DIRECTION ( 'NONE',  ( -0.000000000000000000, -1.000000000000000000, -0.000000000000000000 ) ) ;
#476 = LINE ( 'NONE', #669, #398 ) ;
#477 = PLANE ( 'NONE',  #185 ) ;
#478 = ORIENTED_EDGE ( 'NONE', *, *, #257, .F. ) ;
#479 = CARTESIAN_POINT ( 'NONE',  ( 5.000000000000001776, 13.00000000000000178, -12.73046126523999710 ) ) ;
#480 = DIRECTION ( 'NONE',  ( 1.000000000000000000, 0.000000000000000000, 0.000000000000000000 ) ) ;
#481 = ORIENTED_EDGE ( 'NONE', *, *, #565, .T. ) ;
#482 = DIRECTION ( 'NONE',  ( 0.000000000000000000, 0.000000000000000000, 1.000000000000000000 ) ) ;
#483 = VECTOR ( 'NONE', #569, 1000.000000000000114 ) ;
#484 =( LENGTH_UNIT ( ) NAMED_UNIT ( * ) SI_UNIT ( .MILLI., .METRE. ) );
#485 = ORIENTED_EDGE ( 'NONE', *, *, #329, .T. ) ;
#486 = AXIS2_PLACEMENT_3D ( 'NONE', #16, #482, #480 ) ;
#487 = CIRCLE ( 'NONE', #627, 1.599999999999999867 ) ;
#488 = ADVANCED_FACE ( 'NONE', ( #337 ), #333, .F. ) ;
#489 = DIRECTION ( 'NONE',  ( -0.000000000000000000, -0.000000000000000000, 1.000000000000000000 ) ) ;
#490 = PRODUCT_CONTEXT ( 'NONE', #284, 'mechanical' ) ;
#491 = ORIENTED_EDGE ( 'NONE', *, *, #585, .T. ) ;
#492 = APPLICATION_CONTEXT ( 'automotive_design' ) ;
#493 = EDGE_CURVE ( 'NONE', #305, #213, #239, .T. ) ;
#494 = VERTEX_POINT ( 'NONE', #604 ) ;
#495 = CARTESIAN_POINT ( 'NONE',  ( 10.00000000000000178, 22.00000000000000000, 9.000000000000000000 ) ) ;
#496 = VERTEX_POINT ( 'NONE', #282 ) ;
#497 = VECTOR ( 'NONE', #597, 1000.000000000000114 ) ;
#498 = DIRECTION ( 'NONE',  ( 0.000000000000000000, -0.3420201433256658263, 0.9396926207859095381 ) ) ;
#499 = AXIS2_PLACEMENT_3D ( 'NONE', #209, #636, #582 ) ;
#500 = VECTOR ( 'NONE', #277, 1000.000000000000000 ) ;
#501 = ORIENTED_EDGE ( 'NONE', *, *, #273, .F. ) ;
#502 = CARTESIAN_POINT ( 'NONE',  ( -4.999999999999998224, 13.00000000000000178, -9.000000000000000000 ) ) ;
#503 = LINE ( 'NONE', #29, #497 ) ;
#504 = DIRECTION ( 'NONE',  ( 0.000000000000000000, 0.000000000000000000, 1.000000000000000000 ) ) ;
#505 = DIRECTION ( 'NONE',  ( -0.9396926207859108704, -0.3420201433256618850, -0.000000000000000000 ) ) ;
#506 = EDGE_CURVE ( 'NONE', #25, #59, #135, .T. ) ;
#507 = ORIENTED_EDGE ( 'NONE', *, *, #170, .F. ) ;
#508 = DIRECTION ( 'NONE',  ( 0.000000000000000000, 0.000000000000000000, 1.000000000000000000 ) ) ;
#509 = COLOUR_RGB ( '',0.7921568627450980005, 0.8196078431372548767, 0.9333333333333333481 ) ;
#510 = AXIS2_PLACEMENT_3D ( 'NONE', #606, #505, #31 ) ;
#511 = EDGE_CURVE ( 'NONE', #596, #310, #552, .T. ) ;
#512 = CARTESIAN_POINT ( 'NONE',  ( -9.999999999999998224, 22.00000000000000000, -9.000000000000000000 ) ) ;
#513 = PLANE ( 'NONE',  #400 ) ;
#514 = ORIENTED_EDGE ( 'NONE', *, *, #136, .F. ) ;
#515 = CARTESIAN_POINT ( 'NONE',  ( 10.00000000000000178, 22.00000000000000000, 9.000000000000000000 ) ) ;
#516 = ORIENTED_EDGE ( 'NONE', *, *, #307, .T. ) ;
#517 = CLOSED_SHELL ( 'NONE', ( #345, #152, #64, #334, #548, #20, #385, #631, #370, #578, #68, #121, #44, #540, #458, #421, #416, #241, #525, #443, #625, #488 ) ) ;
#518 = DIRECTION ( 'NONE',  ( -0.000000000000000000, -0.000000000000000000, 1.000000000000000000 ) ) ;
#519 = CARTESIAN_POINT ( 'NONE',  ( 12.12776509741436470, 33.57639476406011880, -11.12776509741434516 ) ) ;
#520 = EDGE_LOOP ( 'NONE', ( #10, #556, #516, #137 ) ) ;
#521 = DIRECTION ( 'NONE',  ( 1.000000000000000000, -0.000000000000000000, 0.000000000000000000 ) ) ;
#522 = DIRECTION ( 'NONE',  ( -1.000000000000000000, 0.000000000000000000, -0.000000000000000000 ) ) ;
#523 = VERTEX_POINT ( 'NONE', #395 ) ;
#524 = DIRECTION ( 'NONE',  ( 0.000000000000000000, -1.000000000000000000, 0.000000000000000000 ) ) ;
#525 = ADVANCED_FACE ( 'NONE', ( #79 ), #187, .F. ) ;
#526 = FACE_OUTER_BOUND ( 'NONE', #581, .T. ) ;
#527 = PRODUCT ( 'Gripper End_Gripper End', 'Gripper End_Gripper End', '', ( #490 ) ) ;
#528 = ORIENTED_EDGE ( 'NONE', *, *, #166, .T. ) ;
#529 = FACE_OUTER_BOUND ( 'NONE', #22, .T. ) ;
#530 = VECTOR ( 'NONE', #628, 1000.000000000000000 ) ;
#531 = DIRECTION ( 'NONE',  ( 1.000000000000000000, 0.000000000000000000, 0.000000000000000000 ) ) ;
#532 = CIRCLE ( 'NONE', #207, 1.599999999999999867 ) ;
#533 = ORIENTED_EDGE ( 'NONE', *, *, #287, .F. ) ;
#534 = CYLINDRICAL_SURFACE ( 'NONE', #378, 1.599999999999999867 ) ;
#535 = CARTESIAN_POINT ( 'NONE',  ( -6.599999999999997868, 5.000000000000000000, -12.73046126523999710 ) ) ;
#536 =( NAMED_UNIT ( * ) PLANE_ANGLE_UNIT ( ) SI_UNIT ( $, .RADIAN. ) );
#537 = CARTESIAN_POINT ( 'NONE',  ( 5.000000000000001776, 13.00000000000000178, 9.000000000000000000 ) ) ;
#538 = CARTESIAN_POINT ( 'NONE',  ( 13.56141396054371917, 29.63747688518533607, 12.73046126523999710 ) ) ;
#539 = ORIENTED_EDGE ( 'NONE', *, *, #302, .F. ) ;
#540 = ADVANCED_FACE ( 'NONE', ( #234 ), #560, .T. ) ;
#541 = DIRECTION ( 'NONE',  ( 0.000000000000000000, 0.000000000000000000, 1.000000000000000000 ) ) ;
#542 = AXIS2_PLACEMENT_3D ( 'NONE', #149, #622, #531 ) ;
#543 = CARTESIAN_POINT ( 'NONE',  ( 10.00000000000000178, 0.000000000000000000, 9.000000000000000000 ) ) ;
#544 = EDGE_LOOP ( 'NONE', ( #69, #191, #590, #301 ) ) ;
#545 = VECTOR ( 'NONE', #182, 1000.000000000000000 ) ;
#546 = VECTOR ( 'NONE', #563, 1000.000000000000000 ) ;
#547 = EDGE_CURVE ( 'NONE', #455, #496, #289, .T. ) ;
#548 = ADVANCED_FACE ( 'NONE', ( #226 ), #648, .F. ) ;
#549 = EDGE_LOOP ( 'NONE', ( #134, #330, #42, #178 ) ) ;
#550 = CARTESIAN_POINT ( 'NONE',  ( 10.00000000000000178, 22.00000000000000000, 9.000000000000000000 ) ) ;
#551 = EDGE_LOOP ( 'NONE', ( #382, #315, #98, #644 ) ) ;
#552 = LINE ( 'NONE', #341, #328 ) ;
#553 = ORIENTED_EDGE ( 'NONE', *, *, #646, .F. ) ;
#554 = FACE_OUTER_BOUND ( 'NONE', #141, .T. ) ;
#555 = LINE ( 'NONE', #653, #545 ) ;
#556 = ORIENTED_EDGE ( 'NONE', *, *, #511, .T. ) ;
#557 = DIRECTION ( 'NONE',  ( -0.000000000000000000, -0.000000000000000000, 1.000000000000000000 ) ) ;
#558 = CARTESIAN_POINT ( 'NONE',  ( -4.999999999999998224, 13.00000000000000178, -9.000000000000000000 ) ) ;
#559 = CARTESIAN_POINT ( 'NONE',  ( -12.02303805566084627, 33.86412994648419073, -11.02303805566082673 ) ) ;
#560 = PLANE ( 'NONE',  #422 ) ;
#561 = EDGE_CURVE ( 'NONE', #466, #175, #623, .T. ) ;
#562 = EDGE_LOOP ( 'NONE', ( #93, #607, #406, #210 ) ) ;
#563 = DIRECTION ( 'NONE',  ( -0.000000000000000000, -0.000000000000000000, 1.000000000000000000 ) ) ;
#564 = AXIS2_PLACEMENT_3D ( 'NONE', #537, #610, #434 ) ;
#565 = EDGE_CURVE ( 'NONE', #523, #494, #532, .T. ) ;
#566 = VECTOR ( 'NONE', #102, 1000.000000000000000 ) ;
#567 = ORIENTED_EDGE ( 'NONE', *, *, #273, .T. ) ;
#568 = DIRECTION ( 'NONE',  ( 1.000000000000000000, 0.000000000000000000, 0.000000000000000000 ) ) ;
#569 = DIRECTION ( 'NONE',  ( -0.3236155771181784546, -0.8891264907159912578, -0.3236155771181826180 ) ) ;
#570 = LINE ( 'NONE', #247, #338 ) ;
#571 = FACE_OUTER_BOUND ( 'NONE', #113, .T. ) ;
#572 = VERTEX_POINT ( 'NONE', #361 ) ;
#573 = CARTESIAN_POINT ( 'NONE',  ( -3.399999999999998579, 5.000000000000000000, -9.000000000000000000 ) ) ;
#574 = VECTOR ( 'NONE', #161, 1000.000000000000227 ) ;
#575 = LINE ( 'NONE', #459, #451 ) ;
#576 = DIRECTION ( 'NONE',  ( 1.000000000000000000, 0.000000000000000000, 0.000000000000000000 ) ) ;
#577 = VERTEX_POINT ( 'NONE', #460 ) ;
#578 = ADVANCED_FACE ( 'NONE', ( #456 ), #413, .T. ) ;
#579 = CYLINDRICAL_SURFACE ( 'NONE', #147, 1.599999999999999867 ) ;
#580 = PLANE ( 'NONE',  #499 ) ;
#581 = EDGE_LOOP ( 'NONE', ( #478, #89, #432, #674 ) ) ;
#582 = DIRECTION ( 'NONE',  ( 0.4226182617407002184, 0.9063077870366494926, 0.000000000000000000 ) ) ;
#583 = LINE ( 'NONE', #538, #95 ) ;
#584 = ORIENTED_EDGE ( 'NONE', *, *, #237, .F. ) ;
#585 = EDGE_CURVE ( 'NONE', #496, #466, #629, .T. ) ;
#586 = VECTOR ( 'NONE', #256, 1000.000000000000114 ) ;
#587 = AXIS2_PLACEMENT_3D ( 'NONE', #130, #163, #643 ) ;
#588 = DIRECTION ( 'NONE',  ( 1.000000000000000000, 0.000000000000000000, 0.000000000000000000 ) ) ;
#589 = CIRCLE ( 'NONE', #599, 1.599999999999999867 ) ;
#590 = ORIENTED_EDGE ( 'NONE', *, *, #190, .T. ) ;
#591 = LINE ( 'NONE', #323, #389 ) ;
#592 = CARTESIAN_POINT ( 'NONE',  ( 0.000000000000000000, 0.000000000000000000, 0.000000000000000000 ) ) ;
#593 = ORIENTED_EDGE ( 'NONE', *, *, #242, .F. ) ;
#594 = CARTESIAN_POINT ( 'NONE',  ( -4.999999999999998224, 13.00000000000000178, 9.000000000000000000 ) ) ;
#595 = FACE_BOUND ( 'NONE', #78, .T. ) ;
#596 = VERTEX_POINT ( 'NONE', #143 ) ;
#597 = DIRECTION ( 'NONE',  ( -0.3236155771181784546, 0.8891264907159912578, -0.3236155771181826180 ) ) ;
#598 = ORIENTED_EDGE ( 'NONE', *, *, #265, .T. ) ;
#599 = AXIS2_PLACEMENT_3D ( 'NONE', #320, #60, #104 ) ;
#600 = AXIS2_PLACEMENT_3D ( 'NONE', #367, #663, #568 ) ;
#601 = PLANE ( 'NONE',  #666 ) ;
#602 = EDGE_CURVE ( 'NONE', #494, #523, #140, .T. ) ;
#603 = EDGE_LOOP ( 'NONE', ( #481, #103 ) ) ;
#604 = CARTESIAN_POINT ( 'NONE',  ( 3.400000000000001688, 13.00000000000000178, -9.000000000000000000 ) ) ;
#605 = ORIENTED_EDGE ( 'NONE', *, *, #493, .T. ) ;
#606 = CARTESIAN_POINT ( 'NONE',  ( 13.42946633751771657, 30.00000000000000000, 0.000000000000000000 ) ) ;
#607 = ORIENTED_EDGE ( 'NONE', *, *, #474, .F. ) ;
#608 = AXIS2_PLACEMENT_3D ( 'NONE', #97, #45, #262 ) ;
#609 = DIRECTION ( 'NONE',  ( 1.000000000000000000, 0.000000000000000000, 0.000000000000000000 ) ) ;
#610 = DIRECTION ( 'NONE',  ( 0.000000000000000000, 0.000000000000000000, 1.000000000000000000 ) ) ;
#611 = PLANE ( 'NONE',  #407 ) ;
#612 = LINE ( 'NONE', #28, #500 ) ;
#613 = EDGE_CURVE ( 'NONE', #363, #169, #411, .T. ) ;
#614 = ORIENTED_EDGE ( 'NONE', *, *, #440, .F. ) ;
#615 = DIRECTION ( 'NONE',  ( 0.000000000000000000, 0.000000000000000000, 1.000000000000000000 ) ) ;
#616 = EDGE_CURVE ( 'NONE', #494, #225, #41, .T. ) ;
#617 = VERTEX_POINT ( 'NONE', #462 ) ;
#618 = CARTESIAN_POINT ( 'NONE',  ( -9.999999999999998224, 22.00000000000000000, 9.000000000000000000 ) ) ;
#619 = MECHANICAL_DESIGN_GEOMETRIC_PRESENTATION_REPRESENTATION (  '', ( #87 ), #326 ) ;
#620 = ORIENTED_EDGE ( 'NONE', *, *, #673, .T. ) ;
#621 = CYLINDRICAL_SURFACE ( 'NONE', #108, 1.599999999999999867 ) ;
#622 = DIRECTION ( 'NONE',  ( 0.000000000000000000, 0.000000000000000000, 1.000000000000000000 ) ) ;
#623 = LINE ( 'NONE', #618, #117 ) ;
#624 = ORIENTED_EDGE ( 'NONE', *, *, #120, .F. ) ;
#625 = ADVANCED_FACE ( 'NONE', ( #571 ), #513, .F. ) ;
#626 = DIRECTION ( 'NONE',  ( 1.000000000000000000, 0.000000000000000000, 0.000000000000000000 ) ) ;
#627 = AXIS2_PLACEMENT_3D ( 'NONE', #502, #508, #661 ) ;
#628 = DIRECTION ( 'NONE',  ( -0.000000000000000000, -0.000000000000000000, 1.000000000000000000 ) ) ;
#629 = LINE ( 'NONE', #150, #300 ) ;
#630 = ORIENTED_EDGE ( 'NONE', *, *, #257, .T. ) ;
#631 = ADVANCED_FACE ( 'NONE', ( #373, #595, #471, #641, #164 ), #477, .F. ) ;
#632 = SURFACE_SIDE_STYLE ('',( #57 ) ) ;
#633 = CARTESIAN_POINT ( 'NONE',  ( -12.02303805566084627, 33.86412994648419073, 11.02303805566082673 ) ) ;
#634 = APPLICATION_PROTOCOL_DEFINITION ( 'draft international standard', 'automotive_design', 1998, #284 ) ;
#635 = EDGE_LOOP ( 'NONE', ( #272, #228, #449, #51 ) ) ;
#636 = DIRECTION ( 'NONE',  ( 0.9063077870366496036, -0.4226182617407002740, 0.000000000000000000 ) ) ;
#637 = AXIS2_PLACEMENT_3D ( 'NONE', #30, #314, #304 ) ;
#638 = DIRECTION ( 'NONE',  ( 0.000000000000000000, 0.000000000000000000, 1.000000000000000000 ) ) ;
#639 = EDGE_LOOP ( 'NONE', ( #501, #533 ) ) ;
#640 = DIRECTION ( 'NONE',  ( 0.000000000000000000, 0.000000000000000000, 1.000000000000000000 ) ) ;
#641 = FACE_BOUND ( 'NONE', #639, .T. ) ;
#642 = ORIENTED_EDGE ( 'NONE', *, *, #438, .T. ) ;
#643 = DIRECTION ( 'NONE',  ( 1.000000000000000000, 0.000000000000000000, 0.000000000000000000 ) ) ;
#644 = ORIENTED_EDGE ( 'NONE', *, *, #561, .T. ) ;
#645 = DIRECTION ( 'NONE',  ( -0.3892816206350256381, -0.8348171294789870078, -0.3892816206350256381 ) ) ;
#646 = EDGE_CURVE ( 'NONE', #169, #596, #583, .T. ) ;
#647 = ORIENTED_EDGE ( 'NONE', *, *, #120, .T. ) ;
#648 = PLANE ( 'NONE',  #2 ) ;
#649 = VERTEX_POINT ( 'NONE', #381 ) ;
#650 = DIRECTION ( 'NONE',  ( -0.000000000000000000, -0.000000000000000000, -1.000000000000000000 ) ) ;
#651 = VERTEX_POINT ( 'NONE', #4 ) ;
#652 = LINE ( 'NONE', #402, #472 ) ;
#653 = CARTESIAN_POINT ( 'NONE',  ( 6.600000000000001421, 5.000000000000000000, -12.73046126523999710 ) ) ;
#654 = ORIENTED_EDGE ( 'NONE', *, *, #35, .F. ) ;
#655 = VECTOR ( 'NONE', #425, 1000.000000000000000 ) ;
#656 = PRODUCT_RELATED_PRODUCT_CATEGORY ( 'part', '', ( #527 ) ) ;
#657 = DIRECTION ( 'NONE',  ( -0.000000000000000000, 1.000000000000000000, 0.000000000000000000 ) ) ;
#658 = VECTOR ( 'NONE', #356, 1000.000000000000000 ) ;
#659 = EDGE_CURVE ( 'NONE', #466, #649, #321, .T. ) ;
#660 = EDGE_LOOP ( 'NONE', ( #268, #115, #336, #485 ) ) ;
#661 = DIRECTION ( 'NONE',  ( 1.000000000000000000, 0.000000000000000000, 0.000000000000000000 ) ) ;
#662 = VERTEX_POINT ( 'NONE', #324 ) ;
#663 = DIRECTION ( 'NONE',  ( 0.000000000000000000, 0.000000000000000000, 1.000000000000000000 ) ) ;
#664 = FACE_OUTER_BOUND ( 'NONE', #259, .T. ) ;
#665 = DIRECTION ( 'NONE',  ( 0.000000000000000000, 0.000000000000000000, 1.000000000000000000 ) ) ;
#666 = AXIS2_PLACEMENT_3D ( 'NONE', #1, #521, #144 ) ;
#667 = FACE_OUTER_BOUND ( 'NONE', #635, .T. ) ;
#668 = CARTESIAN_POINT ( 'NONE',  ( 5.000000000000001776, 5.000000000000000000, 9.000000000000000000 ) ) ;
#669 = CARTESIAN_POINT ( 'NONE',  ( 10.00000000000000178, 22.00000000000000000, -9.000000000000000000 ) ) ;
#670 = VERTEX_POINT ( 'NONE', #543 ) ;
#671 = CYLINDRICAL_SURFACE ( 'NONE', #109, 1.599999999999999867 ) ;
#672 = CARTESIAN_POINT ( 'NONE',  ( -9.999999999999998224, 0.000000000000000000, 9.000000000000000000 ) ) ;
#673 = EDGE_CURVE ( 'NONE', #455, #670, #429, .T. ) ;
#674 = ORIENTED_EDGE ( 'NONE', *, *, #453, .F. ) ;
#675 = VECTOR ( 'NONE', #346, 1000.000000000000000 ) ;
ENDSEC;
END-ISO-10303-21;
