ISO-10303-21;
HEADER;
FILE_DESCRIPTION (( 'STEP AP214' ),
    '1' );
FILE_NAME ('Gripper Mechanism Slider.STEP',
    '2026-08-27T22:10:01',
    ( '' ),
    ( '' ),
    'SwSTEP 2.0',
    'SolidWorks 2026',
    '' );
FILE_SCHEMA (( 'AUTOMOTIVE_DESIGN' ));
ENDSEC;

DATA;
#1 = DIRECTION ( 'NONE',  ( 0.000000000000000000, 0.000000000000000000, 1.000000000000000000 ) ) ;
#2 = AXIS2_PLACEMENT_3D ( 'NONE', #174, #327, #968 ) ;
#3 = DIRECTION ( 'NONE',  ( 1.000000000000000000, 0.000000000000000000, -0.000000000000000000 ) ) ;
#4 = ORIENTED_EDGE ( 'NONE', *, *, #393, .T. ) ;
#5 = VECTOR ( 'NONE', #33, 1000.000000000000000 ) ;
#6 =( LENGTH_UNIT ( ) NAMED_UNIT ( * ) SI_UNIT ( .MILLI., .METRE. ) );
#7 = ADVANCED_FACE ( 'NONE', ( #167 ), #233, .F. ) ;
#8 = DIRECTION ( 'NONE',  ( -0.000000000000000000, 1.000000000000000000, -0.000000000000000000 ) ) ;
#9 = CARTESIAN_POINT ( 'NONE',  ( -2.000000000000000000, 16.00000000000000000, 4.000000000000002665 ) ) ;
#10 = VERTEX_POINT ( 'NONE', #787 ) ;
#11 = VERTEX_POINT ( 'NONE', #187 ) ;
#12 = LINE ( 'NONE', #249, #116 ) ;
#13 = ORIENTED_EDGE ( 'NONE', *, *, #182, .T. ) ;
#14 = CYLINDRICAL_SURFACE ( 'NONE', #325, 3.099999999999998757 ) ;
#15 = EDGE_CURVE ( 'NONE', #743, #706, #555, .T. ) ;
#16 = CIRCLE ( 'NONE', #377, 3.099999999999998757 ) ;
#17 = CARTESIAN_POINT ( 'NONE',  ( -2.000000000000000000, 16.00000000000000000, -6.999999999999997335 ) ) ;
#18 = ORIENTED_EDGE ( 'NONE', *, *, #369, .T. ) ;
#19 = AXIS2_PLACEMENT_3D ( 'NONE', #519, #765, #426 ) ;
#20 = PLANE ( 'NONE',  #412 ) ;
#21 = EDGE_CURVE ( 'NONE', #253, #127, #820, .T. ) ;
#22 = ORIENTED_EDGE ( 'NONE', *, *, #658, .F. ) ;
#23 = ADVANCED_FACE ( 'NONE', ( #397 ), #940, .F. ) ;
#24 = LINE ( 'NONE', #589, #83 ) ;
#25 = ORIENTED_EDGE ( 'NONE', *, *, #808, .F. ) ;
#26 = CYLINDRICAL_SURFACE ( 'NONE', #218, 3.099999999999998757 ) ;
#27 = FACE_BOUND ( 'NONE', #400, .T. ) ;
#28 = CARTESIAN_POINT ( 'NONE',  ( 9.000000000000000000, 21.00000000000000000, 0.000000000000000000 ) ) ;
#29 = ORIENTED_EDGE ( 'NONE', *, *, #405, .F. ) ;
#30 = EDGE_CURVE ( 'NONE', #1019, #714, #997, .T. ) ;
#31 = DIRECTION ( 'NONE',  ( 0.000000000000000000, 0.000000000000000000, 1.000000000000000000 ) ) ;
#32 = PRODUCT_DEFINITION_CONTEXT ( 'detailed design', #830, 'design' ) ;
#33 = DIRECTION ( 'NONE',  ( 0.000000000000000000, 0.000000000000000000, 1.000000000000000000 ) ) ;
#34 = DIRECTION ( 'NONE',  ( 0.000000000000000000, 0.000000000000000000, -1.000000000000000000 ) ) ;
#35 = ORIENTED_EDGE ( 'NONE', *, *, #725, .F. ) ;
#36 = VECTOR ( 'NONE', #611, 1000.000000000000000 ) ;
#37 = FACE_OUTER_BOUND ( 'NONE', #213, .T. ) ;
#38 = DIRECTION ( 'NONE',  ( 0.000000000000000000, 0.000000000000000000, 1.000000000000000000 ) ) ;
#39 = DIRECTION ( 'NONE',  ( -0.7071067811865477948, -0.7071067811865473507, 0.000000000000000000 ) ) ;
#40 = VERTEX_POINT ( 'NONE', #559 ) ;
#41 = FACE_OUTER_BOUND ( 'NONE', #739, .T. ) ;
#42 = ORIENTED_EDGE ( 'NONE', *, *, #627, .F. ) ;
#43 = LINE ( 'NONE', #518, #848 ) ;
#44 = EDGE_CURVE ( 'NONE', #887, #642, #387, .T. ) ;
#45 = CARTESIAN_POINT ( 'NONE',  ( 2.000000000000000000, 21.00000000000000000, 0.000000000000000000 ) ) ;
#46 = VERTEX_POINT ( 'NONE', #629 ) ;
#47 = CARTESIAN_POINT ( 'NONE',  ( 3.796405077356793438E-16, 16.00000000000000000, 19.90000000000000924 ) ) ;
#48 = DIRECTION ( 'NONE',  ( -1.000000000000000000, 0.000000000000000000, 0.000000000000000000 ) ) ;
#49 = ORIENTED_EDGE ( 'NONE', *, *, #809, .F. ) ;
#50 = DIRECTION ( 'NONE',  ( 0.000000000000000000, 0.7071067811865491270, -0.7071067811865459074 ) ) ;
#51 = AXIS2_PLACEMENT_3D ( 'NONE', #433, #590, #114 ) ;
#52 = ADVANCED_FACE ( 'NONE', ( #802 ), #81, .F. ) ;
#53 = CARTESIAN_POINT ( 'NONE',  ( 0.000000000000000000, 0.000000000000000000, 4.000000000000002665 ) ) ;
#54 = FACE_BOUND ( 'NONE', #357, .T. ) ;
#55 = VERTEX_POINT ( 'NONE', #640 ) ;
#56 = FACE_OUTER_BOUND ( 'NONE', #95, .T. ) ;
#57 = DIRECTION ( 'NONE',  ( 0.000000000000000000, 0.000000000000000000, 1.000000000000000000 ) ) ;
#58 = FACE_BOUND ( 'NONE', #1025, .T. ) ;
#59 = ORIENTED_EDGE ( 'NONE', *, *, #258, .F. ) ;
#60 = CARTESIAN_POINT ( 'NONE',  ( -9.000000000000000000, 8.000000000000000000, 12.00000000000000711 ) ) ;
#61 = CARTESIAN_POINT ( 'NONE',  ( 3.796405077356793438E-16, 0.000000000000000000, 19.90000000000000924 ) ) ;
#62 = DIRECTION ( 'NONE',  ( 0.000000000000000000, -1.000000000000000000, 0.000000000000000000 ) ) ;
#63 = VERTEX_POINT ( 'NONE', #956 ) ;
#64 = CIRCLE ( 'NONE', #665, 1.600000000000002531 ) ;
#65 = AXIS2_PLACEMENT_3D ( 'NONE', #532, #775, #143 ) ;
#66 = FACE_OUTER_BOUND ( 'NONE', #328, .T. ) ;
#67 = CARTESIAN_POINT ( 'NONE',  ( 2.000000000000000000, 18.50000000000000355, 7.000000000000002665 ) ) ;
#68 = ORIENTED_EDGE ( 'NONE', *, *, #783, .T. ) ;
#69 = CARTESIAN_POINT ( 'NONE',  ( 3.796405077356793438E-16, 0.000000000000000000, 19.90000000000000924 ) ) ;
#70 = DIRECTION ( 'NONE',  ( 0.000000000000000000, 1.000000000000000000, 0.000000000000000000 ) ) ;
#71 = ADVANCED_FACE ( 'NONE', ( #87 ), #402, .T. ) ;
#72 = DIRECTION ( 'NONE',  ( -1.000000000000000000, 0.000000000000000000, 0.000000000000000000 ) ) ;
#73 = ADVANCED_FACE ( 'NONE', ( #196 ), #203, .F. ) ;
#74 = ORIENTED_EDGE ( 'NONE', *, *, #683, .T. ) ;
#75 = VERTEX_POINT ( 'NONE', #767 ) ;
#76 = EDGE_CURVE ( 'NONE', #907, #156, #366, .T. ) ;
#77 = LINE ( 'NONE', #650, #566 ) ;
#78 = ORIENTED_EDGE ( 'NONE', *, *, #606, .F. ) ;
#79 = CARTESIAN_POINT ( 'NONE',  ( 2.000000000000000000, 16.00000000000000000, 4.000000000000002665 ) ) ;
#80 = VECTOR ( 'NONE', #744, 1000.000000000000000 ) ;
#81 = PLANE ( 'NONE',  #299 ) ;
#82 = VECTOR ( 'NONE', #707, 1000.000000000000000 ) ;
#83 = VECTOR ( 'NONE', #985, 1000.000000000000000 ) ;
#84 = DIRECTION ( 'NONE',  ( 0.000000000000000000, 0.000000000000000000, -1.000000000000000000 ) ) ;
#85 = ORIENTED_EDGE ( 'NONE', *, *, #864, .T. ) ;
#86 = LINE ( 'NONE', #657, #732 ) ;
#87 = FACE_OUTER_BOUND ( 'NONE', #115, .T. ) ;
#88 = LINE ( 'NONE', #491, #883 ) ;
#89 = ORIENTED_EDGE ( 'NONE', *, *, #108, .F. ) ;
#90 = ADVANCED_FACE ( 'NONE', ( #192, #988 ), #749, .F. ) ;
#91 = DIRECTION ( 'NONE',  ( 0.000000000000000000, 0.000000000000000000, 1.000000000000000000 ) ) ;
#92 = ORIENTED_EDGE ( 'NONE', *, *, #951, .T. ) ;
#93 = EDGE_CURVE ( 'NONE', #706, #902, #352, .T. ) ;
#94 = DIRECTION ( 'NONE',  ( -0.000000000000000000, 1.000000000000000000, -0.000000000000000000 ) ) ;
#95 = EDGE_LOOP ( 'NONE', ( #230, #687, #924 ) ) ;
#96 = AXIS2_PLACEMENT_3D ( 'NONE', #913, #903, #210 ) ;
#97 = VECTOR ( 'NONE', #320, 1000.000000000000000 ) ;
#98 = LINE ( 'NONE', #556, #800 ) ;
#99 = EDGE_LOOP ( 'NONE', ( #881, #195, #85, #268 ) ) ;
#100 = AXIS2_PLACEMENT_3D ( 'NONE', #780, #62, #378 ) ;
#101 = VERTEX_POINT ( 'NONE', #277 ) ;
#102 = DIRECTION ( 'NONE',  ( 0.000000000000000000, -1.000000000000000000, 0.000000000000000000 ) ) ;
#103 = ADVANCED_FACE ( 'NONE', ( #41 ), #920, .F. ) ;
#104 = DIRECTION ( 'NONE',  ( -0.000000000000000000, -1.000000000000000000, -0.000000000000000000 ) ) ;
#105 = ORIENTED_EDGE ( 'NONE', *, *, #385, .F. ) ;
#106 = ORIENTED_EDGE ( 'NONE', *, *, #152, .F. ) ;
#107 = PLANE ( 'NONE',  #717 ) ;
#108 = EDGE_CURVE ( 'NONE', #844, #186, #395, .T. ) ;
#109 = LINE ( 'NONE', #694, #36 ) ;
#110 = VERTEX_POINT ( 'NONE', #358 ) ;
#111 = LINE ( 'NONE', #622, #324 ) ;
#112 = LINE ( 'NONE', #838, #933 ) ;
#113 = VECTOR ( 'NONE', #94, 1000.000000000000000 ) ;
#114 = DIRECTION ( 'NONE',  ( 0.000000000000000000, 0.000000000000000000, 1.000000000000000000 ) ) ;
#115 = EDGE_LOOP ( 'NONE', ( #791, #49, #811, #175 ) ) ;
#116 = VECTOR ( 'NONE', #391, 1000.000000000000000 ) ;
#117 = AXIS2_PLACEMENT_3D ( 'NONE', #53, #223, #542 ) ;
#118 = DIRECTION ( 'NONE',  ( 0.000000000000000000, 0.000000000000000000, -1.000000000000000000 ) ) ;
#119 = AXIS2_PLACEMENT_3D ( 'NONE', #265, #764, #57 ) ;
#120 = EDGE_CURVE ( 'NONE', #333, #875, #1005, .T. ) ;
#121 = EDGE_LOOP ( 'NONE', ( #604, #890, #411, #467 ) ) ;
#122 = CARTESIAN_POINT ( 'NONE',  ( 2.000000000000000000, 22.99999999999998579, 7.000000000000002665 ) ) ;
#123 = CARTESIAN_POINT ( 'NONE',  ( 9.000000000000000000, 0.000000000000000000, 30.00000000000000711 ) ) ;
#124 = ORIENTED_EDGE ( 'NONE', *, *, #131, .T. ) ;
#125 = CARTESIAN_POINT ( 'NONE',  ( 0.000000000000000000, 16.00000000000000000, -22.99999999999999289 ) ) ;
#126 = ADVANCED_FACE ( 'NONE', ( #37 ), #289, .F. ) ;
#127 = VERTEX_POINT ( 'NONE', #269 ) ;
#128 = DIRECTION ( 'NONE',  ( -1.000000000000000000, -0.000000000000000000, -0.000000000000000000 ) ) ;
#129 = DIRECTION ( 'NONE',  ( -1.000000000000000000, 0.000000000000000000, -0.000000000000000000 ) ) ;
#130 = ORIENTED_EDGE ( 'NONE', *, *, #441, .F. ) ;
#131 = EDGE_CURVE ( 'NONE', #743, #789, #272, .T. ) ;
#132 = CARTESIAN_POINT ( 'NONE',  ( 9.000000000000000000, 8.000000000000000000, 10.40000000000000391 ) ) ;
#133 = LINE ( 'NONE', #449, #396 ) ;
#134 = EDGE_LOOP ( 'NONE', ( #591, #969, #240, #416, #638, #336 ) ) ;
#135 = AXIS2_PLACEMENT_3D ( 'NONE', #688, #756, #31 ) ;
#136 = DIRECTION ( 'NONE',  ( 0.000000000000000000, 0.000000000000000000, -1.000000000000000000 ) ) ;
#137 = PRESENTATION_LAYER_ASSIGNMENT (  '', '', ( #615 ) ) ;
#138 = AXIS2_PLACEMENT_3D ( 'NONE', #193, #343, #506 ) ;
#139 = AXIS2_PLACEMENT_3D ( 'NONE', #437, #759, #355 ) ;
#140 =( NAMED_UNIT ( * ) SI_UNIT ( $, .STERADIAN. ) SOLID_ANGLE_UNIT ( ) );
#141 = DIRECTION ( 'NONE',  ( -1.000000000000000000, -0.000000000000000000, -0.000000000000000000 ) ) ;
#142 = ORIENTED_EDGE ( 'NONE', *, *, #856, .F. ) ;
#143 = DIRECTION ( 'NONE',  ( 1.000000000000000000, 0.000000000000000000, 0.000000000000000000 ) ) ;
#144 = LINE ( 'NONE', #538, #1000 ) ;
#145 = ORIENTED_EDGE ( 'NONE', *, *, #207, .T. ) ;
#146 = DIRECTION ( 'NONE',  ( -0.7071067811865473507, 0.7071067811865477948, 0.000000000000000000 ) ) ;
#147 = DIRECTION ( 'NONE',  ( 0.000000000000000000, 0.000000000000000000, 1.000000000000000000 ) ) ;
#148 = ORIENTED_EDGE ( 'NONE', *, *, #1014, .F. ) ;
#149 = DIRECTION ( 'NONE',  ( 1.000000000000000000, 0.000000000000000000, 0.000000000000000000 ) ) ;
#150 = VECTOR ( 'NONE', #161, 1000.000000000000000 ) ;
#151 = AXIS2_PLACEMENT_3D ( 'NONE', #363, #498, #39 ) ;
#152 = EDGE_CURVE ( 'NONE', #63, #40, #664, .T. ) ;
#153 = CARTESIAN_POINT ( 'NONE',  ( 0.000000000000000000, 16.00000000000000000, -22.99999999999999289 ) ) ;
#154 = DIRECTION ( 'NONE',  ( 0.000000000000000000, -0.000000000000000000, -1.000000000000000000 ) ) ;
#155 = FACE_BOUND ( 'NONE', #691, .T. ) ;
#156 = VERTEX_POINT ( 'NONE', #521 ) ;
#157 = EDGE_CURVE ( 'NONE', #714, #1019, #16, .T. ) ;
#158 = VERTEX_POINT ( 'NONE', #47 ) ;
#159 = FACE_OUTER_BOUND ( 'NONE', #469, .T. ) ;
#160 = ORIENTED_EDGE ( 'NONE', *, *, #306, .T. ) ;
#161 = DIRECTION ( 'NONE',  ( -0.000000000000000000, 1.000000000000000000, -0.000000000000000000 ) ) ;
#162 = DIRECTION ( 'NONE',  ( -1.000000000000000000, 0.000000000000000000, 0.000000000000000000 ) ) ;
#163 = CARTESIAN_POINT ( 'NONE',  ( 2.000000000000000000, 18.50000000000000355, 7.000000000000002665 ) ) ;
#164 = ORIENTED_EDGE ( 'NONE', *, *, #568, .F. ) ;
#165 = DIRECTION ( 'NONE',  ( 0.000000000000000000, 0.000000000000000000, -1.000000000000000000 ) ) ;
#166 = VECTOR ( 'NONE', #390, 1000.000000000000000 ) ;
#167 = FACE_OUTER_BOUND ( 'NONE', #409, .T. ) ;
#168 = AXIS2_PLACEMENT_3D ( 'NONE', #630, #871, #91 ) ;
#169 = CARTESIAN_POINT ( 'NONE',  ( 9.000000000000000000, 8.000000000000000000, 12.00000000000000711 ) ) ;
#170 = EDGE_CURVE ( 'NONE', #659, #75, #440, .T. ) ;
#171 = ORIENTED_EDGE ( 'NONE', *, *, #721, .T. ) ;
#172 = AXIS2_PLACEMENT_3D ( 'NONE', #745, #349, #833 ) ;
#173 = DIRECTION ( 'NONE',  ( -0.000000000000000000, 1.000000000000000000, -0.000000000000000000 ) ) ;
#174 = CARTESIAN_POINT ( 'NONE',  ( 0.000000000000000000, 0.000000000000000000, -22.99999999999999289 ) ) ;
#175 = ORIENTED_EDGE ( 'NONE', *, *, #584, .F. ) ;
#176 = DIRECTION ( 'NONE',  ( 0.000000000000000000, 0.000000000000000000, 1.000000000000000000 ) ) ;
#177 = VERTEX_POINT ( 'NONE', #132 ) ;
#178 = DIRECTION ( 'NONE',  ( 0.000000000000000000, 0.000000000000000000, 1.000000000000000000 ) ) ;
#179 = VERTEX_POINT ( 'NONE', #435 ) ;
#180 = CARTESIAN_POINT ( 'NONE',  ( -2.000000000000000000, 24.50000000000000000, 5.499999999999994671 ) ) ;
#181 = ORIENTED_EDGE ( 'NONE', *, *, #235, .F. ) ;
#182 = EDGE_CURVE ( 'NONE', #11, #263, #681, .T. ) ;
#183 = CARTESIAN_POINT ( 'NONE',  ( 2.000000000000000000, 18.50000000000000355, -3.999999999999997335 ) ) ;
#184 = VECTOR ( 'NONE', #403, 999.9999999999998863 ) ;
#185 = LINE ( 'NONE', #287, #583 ) ;
#186 = VERTEX_POINT ( 'NONE', #214 ) ;
#187 = CARTESIAN_POINT ( 'NONE',  ( 2.000000000000000000, 16.00000000000000000, -3.999999999999997335 ) ) ;
#188 = EDGE_CURVE ( 'NONE', #535, #851, #525, .T. ) ;
#189 = DIRECTION ( 'NONE',  ( -1.000000000000000000, -0.000000000000000000, -0.000000000000000000 ) ) ;
#190 = CARTESIAN_POINT ( 'NONE',  ( 2.000000000000000000, 26.00000000000000355, 4.000000000000000000 ) ) ;
#191 = ORIENTED_EDGE ( 'NONE', *, *, #205, .F. ) ;
#192 = FACE_BOUND ( 'NONE', #427, .T. ) ;
#193 = CARTESIAN_POINT ( 'NONE',  ( 0.000000000000000000, 16.00000000000000000, 23.00000000000000711 ) ) ;
#194 = DIRECTION ( 'NONE',  ( 0.000000000000000000, 0.000000000000000000, 1.000000000000000000 ) ) ;
#195 = ORIENTED_EDGE ( 'NONE', *, *, #486, .F. ) ;
#196 = FACE_OUTER_BOUND ( 'NONE', #316, .T. ) ;
#197 = ORIENTED_EDGE ( 'NONE', *, *, #633, .T. ) ;
#198 = DIRECTION ( 'NONE',  ( -1.000000000000000000, -0.000000000000000000, -0.000000000000000000 ) ) ;
#199 = EDGE_CURVE ( 'NONE', #962, #844, #111, .T. ) ;
#200 = PLANE ( 'NONE',  #769 ) ;
#201 = ORIENTED_EDGE ( 'NONE', *, *, #683, .F. ) ;
#202 = VECTOR ( 'NONE', #513, 1000.000000000000000 ) ;
#203 = CYLINDRICAL_SURFACE ( 'NONE', #135, 1.600000000000002531 ) ;
#204 = VERTEX_POINT ( 'NONE', #312 ) ;
#205 = EDGE_CURVE ( 'NONE', #642, #902, #226, .T. ) ;
#206 = FACE_OUTER_BOUND ( 'NONE', #899, .T. ) ;
#207 = EDGE_CURVE ( 'NONE', #186, #844, #598, .T. ) ;
#208 = LINE ( 'NONE', #673, #897 ) ;
#209 = ORIENTED_EDGE ( 'NONE', *, *, #294, .F. ) ;
#210 = DIRECTION ( 'NONE',  ( 0.000000000000000000, 0.000000000000000000, 1.000000000000000000 ) ) ;
#211 = CARTESIAN_POINT ( 'NONE',  ( 0.000000000000000000, 26.00000000000000355, 0.000000000000000000 ) ) ;
#212 = FACE_OUTER_BOUND ( 'NONE', #364, .T. ) ;
#213 = EDGE_LOOP ( 'NONE', ( #293, #557, #544, #106 ) ) ;
#214 = CARTESIAN_POINT ( 'NONE',  ( -9.000000000000000000, 8.000000000000000000, -10.39999999999999147 ) ) ;
#215 = EDGE_CURVE ( 'NONE', #550, #978, #563, .T. ) ;
#216 = FACE_BOUND ( 'NONE', #510, .T. ) ;
#217 = ORIENTED_EDGE ( 'NONE', *, *, #419, .T. ) ;
#218 = AXIS2_PLACEMENT_3D ( 'NONE', #976, #965, #176 ) ;
#219 = AXIS2_PLACEMENT_3D ( 'NONE', #608, #923, #383 ) ;
#220 = AXIS2_PLACEMENT_3D ( 'NONE', #779, #146, #703 ) ;
#221 = CARTESIAN_POINT ( 'NONE',  ( -9.000000000000000000, 16.00000000000000000, 30.00000000000000711 ) ) ;
#222 = ORIENTED_EDGE ( 'NONE', *, *, #303, .T. ) ;
#223 = DIRECTION ( 'NONE',  ( 0.000000000000000000, -0.000000000000000000, 1.000000000000000000 ) ) ;
#224 = CARTESIAN_POINT ( 'NONE',  ( 9.000000000000000000, 16.00000000000000000, -29.99999999999999289 ) ) ;
#225 = ORIENTED_EDGE ( 'NONE', *, *, #303, .F. ) ;
#226 = LINE ( 'NONE', #455, #912 ) ;
#227 = EDGE_CURVE ( 'NONE', #494, #887, #632, .T. ) ;
#228 = DIRECTION ( 'NONE',  ( -1.000000000000000000, -0.000000000000000000, -0.000000000000000000 ) ) ;
#229 = CARTESIAN_POINT ( 'NONE',  ( 2.000000000000000000, 23.00000000000000000, -6.999999999999997335 ) ) ;
#230 = ORIENTED_EDGE ( 'NONE', *, *, #505, .F. ) ;
#231 = AXIS2_PLACEMENT_3D ( 'NONE', #763, #597, #829 ) ;
#232 = CIRCLE ( 'NONE', #168, 3.099999999999998757 ) ;
#233 = CYLINDRICAL_SURFACE ( 'NONE', #1029, 3.099999999999998757 ) ;
#234 = CARTESIAN_POINT ( 'NONE',  ( -2.000000000000000000, 16.00000000000000000, -3.999999999999996447 ) ) ;
#235 = EDGE_CURVE ( 'NONE', #127, #282, #702, .T. ) ;
#236 = VERTEX_POINT ( 'NONE', #852 ) ;
#237 = LINE ( 'NONE', #1011, #82 ) ;
#238 = EDGE_LOOP ( 'NONE', ( #59, #911, #541, #823 ) ) ;
#239 = DIRECTION ( 'NONE',  ( 0.000000000000000000, 0.000000000000000000, -1.000000000000000000 ) ) ;
#240 = ORIENTED_EDGE ( 'NONE', *, *, #188, .T. ) ;
#241 = LINE ( 'NONE', #882, #1013 ) ;
#242 = DIRECTION ( 'NONE',  ( 0.000000000000000000, 0.000000000000000000, 1.000000000000000000 ) ) ;
#243 = DIRECTION ( 'NONE',  ( -1.000000000000000000, 0.000000000000000000, 0.000000000000000000 ) ) ;
#244 = EDGE_LOOP ( 'NONE', ( #873, #958, #928 ) ) ;
#245 = CARTESIAN_POINT ( 'NONE',  ( 4.500000000000000888, 16.00000000000000000, 7.000000000000002665 ) ) ;
#246 = AXIS2_PLACEMENT_3D ( 'NONE', #481, #228, #862 ) ;
#247 = VECTOR ( 'NONE', #339, 1000.000000000000000 ) ;
#248 = VECTOR ( 'NONE', #834, 1000.000000000000000 ) ;
#249 = CARTESIAN_POINT ( 'NONE',  ( 2.000000000000000000, 16.00000000000000000, 4.000000000000002665 ) ) ;
#250 = ORIENTED_EDGE ( 'NONE', *, *, #348, .T. ) ;
#251 = FACE_BOUND ( 'NONE', #492, .T. ) ;
#252 = DIRECTION ( 'NONE',  ( -1.000000000000000000, -0.000000000000000000, -0.000000000000000000 ) ) ;
#253 = VERTEX_POINT ( 'NONE', #786 ) ;
#254 = PRODUCT ( 'Gripper Mechanism Slider_Gripper Mechanism Slider', 'Gripper Mechanism Slider_Gripper Mechanism Slider', '', ( #537 ) ) ;
#255 = LINE ( 'NONE', #123, #247 ) ;
#256 = VERTEX_POINT ( 'NONE', #69 ) ;
#257 = EDGE_CURVE ( 'NONE', #374, #656, #237, .T. ) ;
#258 = EDGE_CURVE ( 'NONE', #55, #179, #945, .T. ) ;
#259 = CARTESIAN_POINT ( 'NONE',  ( -2.000000000000000000, 18.50000000000000000, -3.999999999999997335 ) ) ;
#260 = VERTEX_POINT ( 'NONE', #774 ) ;
#261 = CARTESIAN_POINT ( 'NONE',  ( 3.796405077356793932E-16, 0.000000000000000000, -26.09999999999999076 ) ) ;
#262 = ADVANCED_FACE ( 'NONE', ( #56 ), #619, .F. ) ;
#263 = VERTEX_POINT ( 'NONE', #531 ) ;
#264 = AXIS2_PLACEMENT_3D ( 'NONE', #546, #452, #869 ) ;
#265 = CARTESIAN_POINT ( 'NONE',  ( 0.000000000000000000, 0.000000000000000000, 23.00000000000000711 ) ) ;
#266 = VECTOR ( 'NONE', #989, 1000.000000000000000 ) ;
#267 = DIRECTION ( 'NONE',  ( -1.000000000000000000, -0.000000000000000000, -0.000000000000000000 ) ) ;
#268 = ORIENTED_EDGE ( 'NONE', *, *, #1028, .T. ) ;
#269 = CARTESIAN_POINT ( 'NONE',  ( -4.500000000000000888, 16.00000000000000000, 7.000000000000002665 ) ) ;
#270 = DIRECTION ( 'NONE',  ( -0.7071067811865472397, 0.7071067811865479058, 0.000000000000000000 ) ) ;
#271 = FACE_OUTER_BOUND ( 'NONE', #134, .T. ) ;
#272 = LINE ( 'NONE', #592, #682 ) ;
#273 = EDGE_CURVE ( 'NONE', #484, #714, #375, .T. ) ;
#274 = FACE_BOUND ( 'NONE', #392, .T. ) ;
#275 = DIRECTION ( 'NONE',  ( 0.000000000000000000, 0.000000000000000000, 1.000000000000000000 ) ) ;
#276 = ORIENTED_EDGE ( 'NONE', *, *, #926, .F. ) ;
#277 = CARTESIAN_POINT ( 'NONE',  ( 9.000000000000000000, 8.000000000000000000, -10.39999999999999147 ) ) ;
#278 = ORIENTED_EDGE ( 'NONE', *, *, #76, .F. ) ;
#279 = CARTESIAN_POINT ( 'NONE',  ( 9.000000000000000000, 8.000000000000000000, 13.60000000000001030 ) ) ;
#280 = AXIS2_PLACEMENT_3D ( 'NONE', #778, #536, #950 ) ;
#281 = FACE_OUTER_BOUND ( 'NONE', #99, .T. ) ;
#282 = VERTEX_POINT ( 'NONE', #245 ) ;
#283 = AXIS2_PLACEMENT_3D ( 'NONE', #827, #746, #980 ) ;
#284 = VECTOR ( 'NONE', #102, 1000.000000000000000 ) ;
#285 = DIRECTION ( 'NONE',  ( 0.7071067811865477948, 0.7071067811865473507, 0.000000000000000000 ) ) ;
#286 = LINE ( 'NONE', #770, #949 ) ;
#287 = CARTESIAN_POINT ( 'NONE',  ( -2.000000000000000000, 18.50000000000000000, -3.999999999999997335 ) ) ;
#288 = VERTEX_POINT ( 'NONE', #79 ) ;
#289 = CYLINDRICAL_SURFACE ( 'NONE', #96, 3.099999999999998757 ) ;
#290 = ADVANCED_FACE ( 'NONE', ( #479 ), #26, .F. ) ;
#291 = LINE ( 'NONE', #613, #635 ) ;
#292 = CARTESIAN_POINT ( 'NONE',  ( -9.000000000000000000, 0.000000000000000000, 30.00000000000000711 ) ) ;
#293 = ORIENTED_EDGE ( 'NONE', *, *, #939, .F. ) ;
#294 = EDGE_CURVE ( 'NONE', #642, #236, #891, .T. ) ;
#295 = ADVANCED_BREP_SHAPE_REPRESENTATION ( 'Gripper Mechanism Slider_Gripper Mechanism Slider', ( #353, #65 ), #602 ) ;
#296 = PLANE ( 'NONE',  #220 ) ;
#297 = PLANE ( 'NONE',  #649 ) ;
#298 = ORIENTED_EDGE ( 'NONE', *, *, #847, .F. ) ;
#299 = AXIS2_PLACEMENT_3D ( 'NONE', #718, #314, #317 ) ;
#300 = AXIS2_PLACEMENT_3D ( 'NONE', #1023, #453, #1026 ) ;
#301 = CARTESIAN_POINT ( 'NONE',  ( 2.000000000000000000, 26.00000000000000355, -3.999999999999980904 ) ) ;
#302 = LINE ( 'NONE', #620, #326 ) ;
#303 = EDGE_CURVE ( 'NONE', #907, #204, #474, .T. ) ;
#304 = ORIENTED_EDGE ( 'NONE', *, *, #369, .F. ) ;
#305 = CARTESIAN_POINT ( 'NONE',  ( -4.500000000000000888, 16.00000000000000000, 4.000000000000002665 ) ) ;
#306 = EDGE_CURVE ( 'NONE', #1007, #539, #558, .T. ) ;
#307 = LINE ( 'NONE', #788, #733 ) ;
#308 = ORIENTED_EDGE ( 'NONE', *, *, #644, .F. ) ;
#309 = CARTESIAN_POINT ( 'NONE',  ( -2.000000000000000000, 22.99999999999998579, 7.000000000000002665 ) ) ;
#310 = LINE ( 'NONE', #719, #184 ) ;
#311 = ORIENTED_EDGE ( 'NONE', *, *, #736, .F. ) ;
#312 = CARTESIAN_POINT ( 'NONE',  ( -4.500000000000000888, 16.00000000000000000, -6.999999999999997335 ) ) ;
#313 = VECTOR ( 'NONE', #560, 1000.000000000000000 ) ;
#314 = DIRECTION ( 'NONE',  ( 0.000000000000000000, 0.000000000000000000, -1.000000000000000000 ) ) ;
#315 = CARTESIAN_POINT ( 'NONE',  ( -2.000000000000000000, 21.00000000000000000, 1.600000000000000755 ) ) ;
#316 = EDGE_LOOP ( 'NONE', ( #304, #201, #626, #450 ) ) ;
#317 = DIRECTION ( 'NONE',  ( -1.000000000000000000, 0.000000000000000000, -0.000000000000000000 ) ) ;
#318 = DIRECTION ( 'NONE',  ( 0.000000000000000000, 0.000000000000000000, -1.000000000000000000 ) ) ;
#319 = EDGE_LOOP ( 'NONE', ( #868, #370 ) ) ;
#320 = DIRECTION ( 'NONE',  ( -0.000000000000000000, -1.000000000000000000, -0.000000000000000000 ) ) ;
#321 = CARTESIAN_POINT ( 'NONE',  ( -2.000000000000000000, 18.50000000000000000, 4.000000000000002665 ) ) ;
#322 = EDGE_LOOP ( 'NONE', ( #609, #621, #42 ) ) ;
#323 = CARTESIAN_POINT ( 'NONE',  ( 2.000000000000000000, 18.50000000000000355, 4.000000000000002665 ) ) ;
#324 = VECTOR ( 'NONE', #540, 1000.000000000000000 ) ;
#325 = AXIS2_PLACEMENT_3D ( 'NONE', #730, #173, #562 ) ;
#326 = VECTOR ( 'NONE', #937, 1000.000000000000000 ) ;
#327 = DIRECTION ( 'NONE',  ( 0.000000000000000000, 1.000000000000000000, 0.000000000000000000 ) ) ;
#328 = EDGE_LOOP ( 'NONE', ( #967, #646, #731, #458 ) ) ;
#329 = EDGE_CURVE ( 'NONE', #478, #1019, #799, .T. ) ;
#330 = CARTESIAN_POINT ( 'NONE',  ( -2.000000000000000000, 26.00000000000000355, 7.000000000000002665 ) ) ;
#331 = ORIENTED_EDGE ( 'NONE', *, *, #1028, .F. ) ;
#332 = LINE ( 'NONE', #655, #5 ) ;
#333 = VERTEX_POINT ( 'NONE', #335 ) ;
#334 = ADVANCED_FACE ( 'NONE', ( #570 ), #14, .F. ) ;
#335 = CARTESIAN_POINT ( 'NONE',  ( -9.000000000000000000, 16.00000000000000000, 30.00000000000000711 ) ) ;
#336 = ORIENTED_EDGE ( 'NONE', *, *, #826, .T. ) ;
#337 = ORIENTED_EDGE ( 'NONE', *, *, #120, .T. ) ;
#338 = PLANE ( 'NONE',  #984 ) ;
#339 = DIRECTION ( 'NONE',  ( 0.000000000000000000, 0.000000000000000000, -1.000000000000000000 ) ) ;
#340 = ORIENTED_EDGE ( 'NONE', *, *, #131, .F. ) ;
#341 = DIRECTION ( 'NONE',  ( 0.000000000000000000, 0.000000000000000000, -1.000000000000000000 ) ) ;
#342 = VECTOR ( 'NONE', #489, 1000.000000000000000 ) ;
#343 = DIRECTION ( 'NONE',  ( 0.000000000000000000, 1.000000000000000000, 0.000000000000000000 ) ) ;
#344 = CIRCLE ( 'NONE', #300, 1.600000000000002531 ) ;
#345 = PLANE ( 'NONE',  #151 ) ;
#346 = ORIENTED_EDGE ( 'NONE', *, *, #826, .F. ) ;
#347 = DIRECTION ( 'NONE',  ( -1.000000000000000000, 0.000000000000000000, 0.000000000000000000 ) ) ;
#348 = EDGE_CURVE ( 'NONE', #875, #539, #86, .T. ) ;
#349 = DIRECTION ( 'NONE',  ( -1.000000000000000000, 0.000000000000000000, 0.000000000000000000 ) ) ;
#350 = CARTESIAN_POINT ( 'NONE',  ( 0.000000000000000000, 26.00000000000000355, 4.000000000000000000 ) ) ;
#351 = ORIENTED_EDGE ( 'NONE', *, *, #30, .T. ) ;
#352 = LINE ( 'NONE', #999, #879 ) ;
#353 = MANIFOLD_SOLID_BREP ( 'Boss-Extrude4', #796 ) ;
#354 = ORIENTED_EDGE ( 'NONE', *, *, #188, .F. ) ;
#355 = DIRECTION ( 'NONE',  ( 0.000000000000000000, 0.000000000000000000, 1.000000000000000000 ) ) ;
#356 = CARTESIAN_POINT ( 'NONE',  ( 0.000000000000000000, 0.000000000000000000, -19.89999999999999503 ) ) ;
#357 = EDGE_LOOP ( 'NONE', ( #793, #89 ) ) ;
#358 = CARTESIAN_POINT ( 'NONE',  ( -2.000000000000000000, 21.00000000000000000, -1.600000000000000755 ) ) ;
#359 = DIRECTION ( 'NONE',  ( 1.000000000000000000, 0.000000000000000000, 0.000000000000000000 ) ) ;
#360 = VECTOR ( 'NONE', #118, 1000.000000000000000 ) ;
#361 = VECTOR ( 'NONE', #149, 1000.000000000000000 ) ;
#362 = ADVANCED_FACE ( 'NONE', ( #639 ), #401, .F. ) ;
#363 = CARTESIAN_POINT ( 'NONE',  ( -4.500000000000000888, 16.00000000000000000, -3.999999999999997335 ) ) ;
#364 = EDGE_LOOP ( 'NONE', ( #552, #499, #711, #579 ) ) ;
#365 = VECTOR ( 'NONE', #529, 1000.000000000000000 ) ;
#366 = LINE ( 'NONE', #670, #782 ) ;
#367 =( NAMED_UNIT ( * ) PLANE_ANGLE_UNIT ( ) SI_UNIT ( $, .RADIAN. ) );
#368 = DIRECTION ( 'NONE',  ( 0.000000000000000000, 1.000000000000000000, 0.000000000000000000 ) ) ;
#369 = EDGE_CURVE ( 'NONE', #177, #978, #241, .T. ) ;
#370 = ORIENTED_EDGE ( 'NONE', *, *, #549, .F. ) ;
#371 = CARTESIAN_POINT ( 'NONE',  ( 0.000000000000000000, 0.000000000000000000, -3.999999999999997335 ) ) ;
#372 = DIRECTION ( 'NONE',  ( -0.000000000000000000, 1.000000000000000000, -0.000000000000000000 ) ) ;
#373 = DIRECTION ( 'NONE',  ( 0.7071067811865472397, -0.7071067811865479058, 0.000000000000000000 ) ) ;
#374 = VERTEX_POINT ( 'NONE', #323 ) ;
#375 = LINE ( 'NONE', #261, #150 ) ;
#376 = FACE_OUTER_BOUND ( 'NONE', #322, .T. ) ;
#377 = AXIS2_PLACEMENT_3D ( 'NONE', #125, #841, #610 ) ;
#378 = DIRECTION ( 'NONE',  ( 0.000000000000000000, -0.000000000000000000, -1.000000000000000000 ) ) ;
#379 = EDGE_LOOP ( 'NONE', ( #569, #777, #340, #577, #855, #191, #454, #423, #171, #68 ) ) ;
#380 = CARTESIAN_POINT ( 'NONE',  ( 2.000000000000000000, 26.00000000000000355, 4.000000000000000000 ) ) ;
#381 = ADVANCED_FACE ( 'NONE', ( #647, #251 ), #20, .T. ) ;
#382 = DIRECTION ( 'NONE',  ( -0.000000000000000000, -1.000000000000000000, -0.000000000000000000 ) ) ;
#383 = DIRECTION ( 'NONE',  ( -0.7071067811865472397, 0.7071067811865479058, 0.000000000000000000 ) ) ;
#384 = ORIENTED_EDGE ( 'NONE', *, *, #30, .F. ) ;
#385 = EDGE_CURVE ( 'NONE', #539, #975, #255, .T. ) ;
#386 = EDGE_CURVE ( 'NONE', #902, #127, #208, .T. ) ;
#387 = LINE ( 'NONE', #309, #750 ) ;
#388 = FACE_OUTER_BOUND ( 'NONE', #859, .T. ) ;
#389 = EDGE_LOOP ( 'NONE', ( #636, #835, #631, #351 ) ) ;
#390 = DIRECTION ( 'NONE',  ( 0.000000000000000000, 1.000000000000000000, 0.000000000000000000 ) ) ;
#391 = DIRECTION ( 'NONE',  ( -0.000000000000000000, -1.000000000000000000, -0.000000000000000000 ) ) ;
#392 = EDGE_LOOP ( 'NONE', ( #653, #308, #991, #724, #181, #870, #92, #124, #695, #222, #755, #669 ) ) ;
#393 = EDGE_CURVE ( 'NONE', #156, #434, #185, .T. ) ;
#394 = SURFACE_SIDE_STYLE ('',( #410 ) ) ;
#395 = CIRCLE ( 'NONE', #231, 1.600000000000002531 ) ;
#396 = VECTOR ( 'NONE', #1018, 1000.000000000000000 ) ;
#397 = FACE_OUTER_BOUND ( 'NONE', #1010, .T. ) ;
#398 = VECTOR ( 'NONE', #979, 1000.000000000000000 ) ;
#399 = DIRECTION ( 'NONE',  ( 1.000000000000000000, 0.000000000000000000, 0.000000000000000000 ) ) ;
#400 = EDGE_LOOP ( 'NONE', ( #676, #35 ) ) ;
#401 = PLANE ( 'NONE',  #430 ) ;
#402 = PLANE ( 'NONE',  #748 ) ;
#403 = DIRECTION ( 'NONE',  ( 0.7071067811865472397, -0.7071067811865479058, 0.000000000000000000 ) ) ;
#404 = ORIENTED_EDGE ( 'NONE', *, *, #157, .F. ) ;
#405 = EDGE_CURVE ( 'NONE', #530, #975, #839, .T. ) ;
#406 =( NAMED_UNIT ( * ) SI_UNIT ( $, .STERADIAN. ) SOLID_ANGLE_UNIT ( ) );
#407 = EDGE_CURVE ( 'NONE', #177, #894, #813, .T. ) ;
#408 = CARTESIAN_POINT ( 'NONE',  ( 2.000000000000000000, 18.50000000000000355, -3.999999999999997335 ) ) ;
#409 = EDGE_LOOP ( 'NONE', ( #148, #78, #878, #520 ) ) ;
#410 = SURFACE_STYLE_FILL_AREA ( #738 ) ;
#411 = ORIENTED_EDGE ( 'NONE', *, *, #936, .F. ) ;
#412 = AXIS2_PLACEMENT_3D ( 'NONE', #330, #652, #970 ) ;
#413 = VECTOR ( 'NONE', #141, 1000.000000000000000 ) ;
#414 = VECTOR ( 'NONE', #359, 1000.000000000000000 ) ;
#415 = CARTESIAN_POINT ( 'NONE',  ( 0.000000000000000000, 0.000000000000000000, 4.000000000000002665 ) ) ;
#416 = ORIENTED_EDGE ( 'NONE', *, *, #516, .T. ) ;
#417 = ADVANCED_FACE ( 'NONE', ( #822 ), #918, .F. ) ;
#418 = EDGE_LOOP ( 'NONE', ( #13, #807, #354, #197, #473, #445, #439, #812, #916, #514 ) ) ;
#419 = EDGE_CURVE ( 'NONE', #236, #494, #502, .T. ) ;
#420 = LINE ( 'NONE', #660, #398 ) ;
#421 = DIRECTION ( 'NONE',  ( 1.000000000000000000, 0.000000000000000000, 0.000000000000000000 ) ) ;
#422 = EDGE_LOOP ( 'NONE', ( #384, #404 ) ) ;
#423 = ORIENTED_EDGE ( 'NONE', *, *, #808, .T. ) ;
#424 = UNCERTAINTY_MEASURE_WITH_UNIT (LENGTH_MEASURE( 1.000000000000000082E-05 ), #6, 'distance_accuracy_value', 'NONE');
#425 = CARTESIAN_POINT ( 'NONE',  ( -9.000000000000000000, 8.000000000000000000, -13.59999999999999609 ) ) ;
#426 = DIRECTION ( 'NONE',  ( 0.000000000000000000, 0.000000000000000000, 1.000000000000000000 ) ) ;
#427 = EDGE_LOOP ( 'NONE', ( #892, #612 ) ) ;
#428 = DIRECTION ( 'NONE',  ( -1.000000000000000000, 0.000000000000000000, 0.000000000000000000 ) ) ;
#429 = VECTOR ( 'NONE', #836, 1000.000000000000000 ) ;
#430 = AXIS2_PLACEMENT_3D ( 'NONE', #794, #165, #959 ) ;
#431 = CARTESIAN_POINT ( 'NONE',  ( -4.500000000000000888, 16.00000000000000000, -6.999999999999997335 ) ) ;
#432 = VECTOR ( 'NONE', #373, 999.9999999999998863 ) ;
#433 = CARTESIAN_POINT ( 'NONE',  ( 9.000000000000000000, 8.000000000000000000, 12.00000000000000711 ) ) ;
#434 = VERTEX_POINT ( 'NONE', #906 ) ;
#435 = CARTESIAN_POINT ( 'NONE',  ( 2.000000000000000000, 21.00000000000000000, 1.600000000000000755 ) ) ;
#436 = ORIENTED_EDGE ( 'NONE', *, *, #405, .T. ) ;
#437 = CARTESIAN_POINT ( 'NONE',  ( 9.000000000000000000, 8.000000000000000000, -11.99999999999999289 ) ) ;
#438 = PLANE ( 'NONE',  #634 ) ;
#439 = ORIENTED_EDGE ( 'NONE', *, *, #441, .T. ) ;
#440 = LINE ( 'NONE', #509, #360 ) ;
#441 = EDGE_CURVE ( 'NONE', #887, #656, #1002, .T. ) ;
#442 = CARTESIAN_POINT ( 'NONE',  ( -4.500000000000000888, 16.00000000000000000, -3.999999999999997335 ) ) ;
#443 = ADVANCED_FACE ( 'NONE', ( #754 ), #345, .T. ) ;
#444 = FACE_OUTER_BOUND ( 'NONE', #238, .T. ) ;
#445 = ORIENTED_EDGE ( 'NONE', *, *, #227, .T. ) ;
#446 = CARTESIAN_POINT ( 'NONE',  ( 2.000000000000000000, 16.00000000000000000, -3.999999999999997335 ) ) ;
#447 = EDGE_CURVE ( 'NONE', #478, #484, #496, .T. ) ;
#448 = LINE ( 'NONE', #61, #701 ) ;
#449 = CARTESIAN_POINT ( 'NONE',  ( -9.000000000000000000, 16.00000000000000000, 30.00000000000000711 ) ) ;
#450 = ORIENTED_EDGE ( 'NONE', *, *, #215, .T. ) ;
#451 = VECTOR ( 'NONE', #947, 1000.000000000000000 ) ;
#452 = DIRECTION ( 'NONE',  ( -1.000000000000000000, 0.000000000000000000, 0.000000000000000000 ) ) ;
#453 = DIRECTION ( 'NONE',  ( -1.000000000000000000, 0.000000000000000000, 0.000000000000000000 ) ) ;
#454 = ORIENTED_EDGE ( 'NONE', *, *, #294, .T. ) ;
#455 = CARTESIAN_POINT ( 'NONE',  ( -2.000000000000000000, 26.00000000000000355, 7.000000000000002665 ) ) ;
#456 = APPLICATION_PROTOCOL_DEFINITION ( 'draft international standard', 'automotive_design', 1998, #564 ) ;
#457 = DIRECTION ( 'NONE',  ( 1.000000000000000000, 0.000000000000000000, 0.000000000000000000 ) ) ;
#458 = ORIENTED_EDGE ( 'NONE', *, *, #21, .T. ) ;
#459 = ADVANCED_FACE ( 'NONE', ( #603 ), #200, .F. ) ;
#460 = DIRECTION ( 'NONE',  ( -0.000000000000000000, -1.000000000000000000, -0.000000000000000000 ) ) ;
#461 =( LENGTH_UNIT ( ) NAMED_UNIT ( * ) SI_UNIT ( .MILLI., .METRE. ) );
#462 = LINE ( 'NONE', #704, #931 ) ;
#463 = ADVANCED_FACE ( 'NONE', ( #281 ), #986, .F. ) ;
#464 = ORIENTED_EDGE ( 'NONE', *, *, #306, .F. ) ;
#465 = VECTOR ( 'NONE', #104, 1000.000000000000000 ) ;
#466 = CIRCLE ( 'NONE', #2, 3.099999999999998757 ) ;
#467 = ORIENTED_EDGE ( 'NONE', *, *, #998, .T. ) ;
#468 = PLANE ( 'NONE',  #100 ) ;
#469 = EDGE_LOOP ( 'NONE', ( #942, #712, #651, #436 ) ) ;
#470 = ORIENTED_EDGE ( 'NONE', *, *, #904, .T. ) ;
#471 = ADVANCED_FACE ( 'NONE', ( #271 ), #438, .T. ) ;
#472 = PLANE ( 'NONE',  #698 ) ;
#473 = ORIENTED_EDGE ( 'NONE', *, *, #677, .F. ) ;
#474 = LINE ( 'NONE', #493, #930 ) ;
#475 = ORIENTED_EDGE ( 'NONE', *, *, #205, .T. ) ;
#476 = EDGE_CURVE ( 'NONE', #101, #962, #64, .T. ) ;
#477 = LINE ( 'NONE', #17, #600 ) ;
#478 = VERTEX_POINT ( 'NONE', #356 ) ;
#479 = FACE_OUTER_BOUND ( 'NONE', #389, .T. ) ;
#480 = VECTOR ( 'NONE', #239, 1000.000000000000000 ) ;
#481 = CARTESIAN_POINT ( 'NONE',  ( 9.000000000000000000, 8.000000000000000000, -11.99999999999999289 ) ) ;
#482 = AXIS2_PLACEMENT_3D ( 'NONE', #211, #1017, #154 ) ;
#483 = DIRECTION ( 'NONE',  ( -1.000000000000000000, 0.000000000000000000, -0.000000000000000000 ) ) ;
#484 = VERTEX_POINT ( 'NONE', #742 ) ;
#485 = PRESENTATION_STYLE_ASSIGNMENT (( #716 ) ) ;
#486 = EDGE_CURVE ( 'NONE', #179, #55, #898, .T. ) ;
#487 = DIRECTION ( 'NONE',  ( -1.000000000000000000, -0.000000000000000000, -0.000000000000000000 ) ) ;
#488 = ORIENTED_EDGE ( 'NONE', *, *, #227, .F. ) ;
#489 = DIRECTION ( 'NONE',  ( -0.000000000000000000, 0.7071067811865491270, -0.7071067811865459074 ) ) ;
#490 = ADVANCED_FACE ( 'NONE', ( #444 ), #686, .F. ) ;
#491 = CARTESIAN_POINT ( 'NONE',  ( 9.000000000000000000, 8.000000000000000000, 13.60000000000001030 ) ) ;
#492 = EDGE_LOOP ( 'NONE', ( #331, #700 ) ) ;
#493 = CARTESIAN_POINT ( 'NONE',  ( -4.500000000000000888, 16.00000000000000000, -3.999999999999997335 ) ) ;
#494 = VERTEX_POINT ( 'NONE', #190 ) ;
#495 = UNCERTAINTY_MEASURE_WITH_UNIT (LENGTH_MEASURE( 1.000000000000000082E-05 ), #461, 'distance_accuracy_value', 'NONE');
#496 = CIRCLE ( 'NONE', #547, 3.099999999999998757 ) ;
#497 = LINE ( 'NONE', #431, #266 ) ;
#498 = DIRECTION ( 'NONE',  ( -0.7071067811865473507, 0.7071067811865477948, 0.000000000000000000 ) ) ;
#499 = ORIENTED_EDGE ( 'NONE', *, *, #921, .F. ) ;
#500 = ORIENTED_EDGE ( 'NONE', *, *, #44, .T. ) ;
#501 = DIRECTION ( 'NONE',  ( 0.000000000000000000, -1.000000000000000000, 0.000000000000000000 ) ) ;
#502 = LINE ( 'NONE', #507, #248 ) ;
#503 = ORIENTED_EDGE ( 'NONE', *, *, #936, .T. ) ;
#504 = DIRECTION ( 'NONE',  ( 0.000000000000000000, 0.000000000000000000, 1.000000000000000000 ) ) ;
#505 = EDGE_CURVE ( 'NONE', #659, #11, #109, .T. ) ;
#506 = DIRECTION ( 'NONE',  ( 0.000000000000000000, 0.000000000000000000, 1.000000000000000000 ) ) ;
#507 = CARTESIAN_POINT ( 'NONE',  ( 0.000000000000000000, 26.00000000000000355, 4.000000000000000000 ) ) ;
#508 = ORIENTED_EDGE ( 'NONE', *, *, #628, .T. ) ;
#509 = CARTESIAN_POINT ( 'NONE',  ( 4.500000000000000888, 16.00000000000000000, -3.999999999999997335 ) ) ;
#510 = EDGE_LOOP ( 'NONE', ( #987, #728 ) ) ;
#511 = AXIS2_PLACEMENT_3D ( 'NONE', #169, #243, #178 ) ;
#512 = DIRECTION ( 'NONE',  ( -1.000000000000000000, 0.000000000000000000, 0.000000000000000000 ) ) ;
#513 = DIRECTION ( 'NONE',  ( -0.000000000000000000, -1.000000000000000000, -0.000000000000000000 ) ) ;
#514 = ORIENTED_EDGE ( 'NONE', *, *, #644, .T. ) ;
#515 = CARTESIAN_POINT ( 'NONE',  ( 0.000000000000000000, 0.000000000000000000, 26.10000000000000497 ) ) ;
#516 = EDGE_CURVE ( 'NONE', #851, #75, #858, .T. ) ;
#517 = ORIENTED_EDGE ( 'NONE', *, *, #516, .F. ) ;
#518 = CARTESIAN_POINT ( 'NONE',  ( -9.000000000000000000, 0.000000000000000000, -29.99999999999999289 ) ) ;
#519 = CARTESIAN_POINT ( 'NONE',  ( 9.000000000000000000, 8.000000000000000000, -11.99999999999999289 ) ) ;
#520 = ORIENTED_EDGE ( 'NONE', *, *, #815, .T. ) ;
#521 = CARTESIAN_POINT ( 'NONE',  ( -2.000000000000000000, 18.50000000000000355, -3.999999999999996447 ) ) ;
#522 = CARTESIAN_POINT ( 'NONE',  ( 0.000000000000000000, 16.00000000000000000, -19.89999999999999503 ) ) ;
#523 = DIRECTION ( 'NONE',  ( 1.000000000000000000, -0.000000000000000000, -0.000000000000000000 ) ) ;
#524 = ORIENTED_EDGE ( 'NONE', *, *, #170, .T. ) ;
#525 = LINE ( 'NONE', #588, #960 ) ;
#526 = CARTESIAN_POINT ( 'NONE',  ( -9.000000000000000000, 8.000000000000000000, 10.40000000000000391 ) ) ;
#527 = AXIS2_PLACEMENT_3D ( 'NONE', #153, #70, #1 ) ;
#528 = COLOUR_RGB ( '',0.7921568627450980005, 0.8196078431372548767, 0.9333333333333333481 ) ;
#529 = DIRECTION ( 'NONE',  ( -0.000000000000000000, -0.000000000000000000, 1.000000000000000000 ) ) ;
#530 = VERTEX_POINT ( 'NONE', #224 ) ;
#531 = CARTESIAN_POINT ( 'NONE',  ( 2.000000000000000000, 18.50000000000000355, -3.999999999999997335 ) ) ;
#532 = CARTESIAN_POINT ( 'NONE',  ( 0.000000000000000000, 0.000000000000000000, 0.000000000000000000 ) ) ;
#533 = EDGE_CURVE ( 'NONE', #55, #110, #941, .T. ) ;
#534 = FACE_OUTER_BOUND ( 'NONE', #121, .T. ) ;
#535 = VERTEX_POINT ( 'NONE', #229 ) ;
#536 = DIRECTION ( 'NONE',  ( -1.000000000000000000, 0.000000000000000000, 0.000000000000000000 ) ) ;
#537 = PRODUCT_CONTEXT ( 'NONE', #564, 'mechanical' ) ;
#538 = CARTESIAN_POINT ( 'NONE',  ( 2.000000000000000000, 23.00000000000000000, -6.999999999999997335 ) ) ;
#539 = VERTEX_POINT ( 'NONE', #710 ) ;
#540 = DIRECTION ( 'NONE',  ( -1.000000000000000000, -0.000000000000000000, -0.000000000000000000 ) ) ;
#541 = ORIENTED_EDGE ( 'NONE', *, *, #877, .T. ) ;
#542 = DIRECTION ( 'NONE',  ( 1.000000000000000000, 0.000000000000000000, -0.000000000000000000 ) ) ;
#543 = DIRECTION ( 'NONE',  ( 1.000000000000000000, -0.000000000000000000, 0.000000000000000000 ) ) ;
#544 = ORIENTED_EDGE ( 'NONE', *, *, #725, .T. ) ;
#545 = MECHANICAL_DESIGN_GEOMETRIC_PRESENTATION_REPRESENTATION (  '', ( #615 ), #715 ) ;
#546 = CARTESIAN_POINT ( 'NONE',  ( 2.000000000000000000, 21.00000000000000000, 0.000000000000000000 ) ) ;
#547 = AXIS2_PLACEMENT_3D ( 'NONE', #661, #667, #194 ) ;
#548 = CIRCLE ( 'NONE', #172, 1.600000000000000755 ) ;
#549 = EDGE_CURVE ( 'NONE', #978, #550, #344, .T. ) ;
#550 = VERTEX_POINT ( 'NONE', #1009 ) ;
#551 = CARTESIAN_POINT ( 'NONE',  ( -2.000000000000000000, 31.49999999999999289, 1.500000000000035971 ) ) ;
#552 = ORIENTED_EDGE ( 'NONE', *, *, #696, .F. ) ;
#553 = DIRECTION ( 'NONE',  ( -1.000000000000000000, 0.000000000000000000, 0.000000000000000000 ) ) ;
#554 = ADVANCED_FACE ( 'NONE', ( #212 ), #776, .T. ) ;
#555 = LINE ( 'NONE', #944, #166 ) ;
#556 = CARTESIAN_POINT ( 'NONE',  ( 2.000000000000000000, 26.00000000000000355, 7.000000000000002665 ) ) ;
#557 = ORIENTED_EDGE ( 'NONE', *, *, #1014, .T. ) ;
#558 = LINE ( 'NONE', #576, #97 ) ;
#559 = CARTESIAN_POINT ( 'NONE',  ( 0.000000000000000000, 16.00000000000000000, 26.10000000000000497 ) ) ;
#560 = DIRECTION ( 'NONE',  ( 0.000000000000000000, -0.7071067811865459074, -0.7071067811865491270 ) ) ;
#561 = EDGE_LOOP ( 'NONE', ( #747, #828, #1021, #758 ) ) ;
#562 = DIRECTION ( 'NONE',  ( 0.000000000000000000, 0.000000000000000000, 1.000000000000000000 ) ) ;
#563 = CIRCLE ( 'NONE', #865, 1.600000000000002531 ) ;
#564 = APPLICATION_CONTEXT ( 'automotive_design' ) ;
#565 = VECTOR ( 'NONE', #252, 1000.000000000000000 ) ;
#566 = VECTOR ( 'NONE', #735, 999.9999999999998863 ) ;
#567 = DIRECTION ( 'NONE',  ( 0.000000000000000000, 0.000000000000000000, 1.000000000000000000 ) ) ;
#568 = EDGE_CURVE ( 'NONE', #46, #875, #616, .T. ) ;
#569 = ORIENTED_EDGE ( 'NONE', *, *, #393, .F. ) ;
#570 = FACE_OUTER_BOUND ( 'NONE', #561, .T. ) ;
#571 = ORIENTED_EDGE ( 'NONE', *, *, #476, .T. ) ;
#572 = ADVANCED_FACE ( 'NONE', ( #54, #850, #534 ), #297, .F. ) ;
#573 = PRODUCT_RELATED_PRODUCT_CATEGORY ( 'part', '', ( #254 ) ) ;
#574 = LINE ( 'NONE', #889, #451 ) ;
#575 = ORIENTED_EDGE ( 'NONE', *, *, #385, .T. ) ;
#576 = CARTESIAN_POINT ( 'NONE',  ( 9.000000000000000000, 16.00000000000000000, 30.00000000000000711 ) ) ;
#577 = ORIENTED_EDGE ( 'NONE', *, *, #15, .T. ) ;
#578 = LINE ( 'NONE', #905, #946 ) ;
#579 = ORIENTED_EDGE ( 'NONE', *, *, #257, .T. ) ;
#580 = DIRECTION ( 'NONE',  ( 1.000000000000000000, 0.000000000000000000, 0.000000000000000000 ) ) ;
#581 = EDGE_LOOP ( 'NONE', ( #977, #804, #896, #948 ) ) ;
#582 = ORIENTED_EDGE ( 'NONE', *, *, #76, .T. ) ;
#583 = VECTOR ( 'NONE', #34, 1000.000000000000000 ) ;
#584 = EDGE_CURVE ( 'NONE', #10, #535, #144, .T. ) ;
#585 = CIRCLE ( 'NONE', #138, 3.099999999999998757 ) ;
#586 = CYLINDRICAL_SURFACE ( 'NONE', #982, 1.600000000000002531 ) ;
#587 = DIRECTION ( 'NONE',  ( 0.000000000000000000, 0.000000000000000000, 1.000000000000000000 ) ) ;
#588 = CARTESIAN_POINT ( 'NONE',  ( 2.000000000000000000, 26.00000000000000355, -6.999999999999997335 ) ) ;
#589 = CARTESIAN_POINT ( 'NONE',  ( 9.000000000000000000, 16.00000000000000000, 30.00000000000000711 ) ) ;
#590 = DIRECTION ( 'NONE',  ( -1.000000000000000000, 0.000000000000000000, 0.000000000000000000 ) ) ;
#591 = ORIENTED_EDGE ( 'NONE', *, *, #783, .F. ) ;
#592 = CARTESIAN_POINT ( 'NONE',  ( -2.000000000000000000, 16.00000000000000000, 7.000000000000002665 ) ) ;
#593 = DIRECTION ( 'NONE',  ( 0.000000000000000000, -0.000000000000000000, -1.000000000000000000 ) ) ;
#594 = CARTESIAN_POINT ( 'NONE',  ( 9.000000000000000000, 8.000000000000000000, -11.99999999999999289 ) ) ;
#595 = ORIENTED_EDGE ( 'NONE', *, *, #757, .T. ) ;
#596 = ADVANCED_FACE ( 'NONE', ( #58, #216, #772 ), #468, .T. ) ;
#597 = DIRECTION ( 'NONE',  ( -1.000000000000000000, 0.000000000000000000, 0.000000000000000000 ) ) ;
#598 = CIRCLE ( 'NONE', #280, 1.600000000000002531 ) ;
#599 = ORIENTED_EDGE ( 'NONE', *, *, #199, .F. ) ;
#600 = VECTOR ( 'NONE', #399, 1000.000000000000000 ) ;
#601 = LINE ( 'NONE', #917, #884 ) ;
#602 =( GEOMETRIC_REPRESENTATION_CONTEXT ( 3 ) GLOBAL_UNCERTAINTY_ASSIGNED_CONTEXT ( ( #495 ) ) GLOBAL_UNIT_ASSIGNED_CONTEXT ( ( #461, #367, #140 ) ) REPRESENTATION_CONTEXT ( 'NONE', 'WORKASPACE' ) );
#603 = FACE_OUTER_BOUND ( 'NONE', #781, .T. ) ;
#604 = ORIENTED_EDGE ( 'NONE', *, *, #568, .T. ) ;
#605 = CARTESIAN_POINT ( 'NONE',  ( -2.000000000000000000, 23.00000000000000000, -6.999999999999997335 ) ) ;
#606 = EDGE_CURVE ( 'NONE', #63, #256, #618, .T. ) ;
#607 = CARTESIAN_POINT ( 'NONE',  ( 9.000000000000000000, 16.00000000000000000, 30.00000000000000711 ) ) ;
#608 = CARTESIAN_POINT ( 'NONE',  ( 2.000000000000000000, 18.50000000000000355, 4.000000000000002665 ) ) ;
#609 = ORIENTED_EDGE ( 'NONE', *, *, #760, .F. ) ;
#610 = DIRECTION ( 'NONE',  ( 0.000000000000000000, 0.000000000000000000, 1.000000000000000000 ) ) ;
#611 = DIRECTION ( 'NONE',  ( -1.000000000000000000, 0.000000000000000000, 0.000000000000000000 ) ) ;
#612 = ORIENTED_EDGE ( 'NONE', *, *, #258, .T. ) ;
#613 = CARTESIAN_POINT ( 'NONE',  ( -9.000000000000000000, 16.00000000000000000, -29.99999999999999289 ) ) ;
#614 = VECTOR ( 'NONE', #623, 1000.000000000000000 ) ;
#615 = STYLED_ITEM ( 'NONE', ( #485 ), #353 ) ;
#616 = LINE ( 'NONE', #292, #365 ) ;
#617 = ORIENTED_EDGE ( 'NONE', *, *, #407, .T. ) ;
#618 = CIRCLE ( 'NONE', #684, 3.099999999999998757 ) ;
#619 = PLANE ( 'NONE',  #648 ) ;
#620 = CARTESIAN_POINT ( 'NONE',  ( 2.000000000000000000, 23.00000000000000000, -6.999999999999997335 ) ) ;
#621 = ORIENTED_EDGE ( 'NONE', *, *, #668, .F. ) ;
#622 = CARTESIAN_POINT ( 'NONE',  ( 9.000000000000000000, 8.000000000000000000, -13.59999999999999609 ) ) ;
#623 = DIRECTION ( 'NONE',  ( 0.000000000000000000, 0.000000000000000000, 1.000000000000000000 ) ) ;
#624 = APPLICATION_PROTOCOL_DEFINITION ( 'draft international standard', 'automotive_design', 1998, #830 ) ;
#625 = CARTESIAN_POINT ( 'NONE',  ( 4.500000000000000888, 16.00000000000000000, -3.999999999999997335 ) ) ;
#626 = ORIENTED_EDGE ( 'NONE', *, *, #736, .T. ) ;
#627 = EDGE_CURVE ( 'NONE', #288, #260, #690, .T. ) ;
#628 = EDGE_CURVE ( 'NONE', #333, #1007, #133, .T. ) ;
#629 = CARTESIAN_POINT ( 'NONE',  ( -9.000000000000000000, 0.000000000000000000, -29.99999999999999289 ) ) ;
#630 = CARTESIAN_POINT ( 'NONE',  ( 0.000000000000000000, 16.00000000000000000, 23.00000000000000711 ) ) ;
#631 = ORIENTED_EDGE ( 'NONE', *, *, #329, .T. ) ;
#632 = LINE ( 'NONE', #380, #768 ) ;
#633 = EDGE_CURVE ( 'NONE', #535, #993, #302, .T. ) ;
#634 = AXIS2_PLACEMENT_3D ( 'NONE', #761, #990, #129 ) ;
#635 = VECTOR ( 'NONE', #382, 1000.000000000000000 ) ;
#636 = ORIENTED_EDGE ( 'NONE', *, *, #273, .F. ) ;
#637 = LINE ( 'NONE', #953, #814 ) ;
#638 = ORIENTED_EDGE ( 'NONE', *, *, #672, .F. ) ;
#639 = FACE_OUTER_BOUND ( 'NONE', #886, .T. ) ;
#640 = CARTESIAN_POINT ( 'NONE',  ( 2.000000000000000000, 21.00000000000000000, -1.600000000000000755 ) ) ;
#641 = PLANE ( 'NONE',  #751 ) ;
#642 = VERTEX_POINT ( 'NONE', #843 ) ;
#643 =( NAMED_UNIT ( * ) PLANE_ANGLE_UNIT ( ) SI_UNIT ( $, .RADIAN. ) );
#644 = EDGE_CURVE ( 'NONE', #288, #11, #462, .T. ) ;
#645 = LINE ( 'NONE', #723, #565 ) ;
#646 = ORIENTED_EDGE ( 'NONE', *, *, #93, .F. ) ;
#647 = FACE_OUTER_BOUND ( 'NONE', #379, .T. ) ;
#648 = AXIS2_PLACEMENT_3D ( 'NONE', #371, #692, #1008 ) ;
#649 = AXIS2_PLACEMENT_3D ( 'NONE', #221, #543, #854 ) ;
#650 = CARTESIAN_POINT ( 'NONE',  ( 2.000000000000000000, 18.50000000000000355, 4.000000000000002665 ) ) ;
#651 = ORIENTED_EDGE ( 'NONE', *, *, #757, .F. ) ;
#652 = DIRECTION ( 'NONE',  ( -1.000000000000000000, 0.000000000000000000, 0.000000000000000000 ) ) ;
#653 = ORIENTED_EDGE ( 'NONE', *, *, #505, .T. ) ;
#654 = PRODUCT_DEFINITION_SHAPE ( 'NONE', 'NONE',  #973 ) ;
#655 = CARTESIAN_POINT ( 'NONE',  ( 4.500000000000000888, 16.00000000000000000, 4.000000000000002665 ) ) ;
#656 = VERTEX_POINT ( 'NONE', #67 ) ;
#657 = CARTESIAN_POINT ( 'NONE',  ( -9.000000000000000000, 0.000000000000000000, 30.00000000000000711 ) ) ;
#658 = EDGE_CURVE ( 'NONE', #789, #907, #307, .T. ) ;
#659 = VERTEX_POINT ( 'NONE', #625 ) ;
#660 = CARTESIAN_POINT ( 'NONE',  ( -9.000000000000000000, 16.00000000000000000, 30.00000000000000711 ) ) ;
#661 = CARTESIAN_POINT ( 'NONE',  ( 0.000000000000000000, 0.000000000000000000, -22.99999999999999289 ) ) ;
#662 = ORIENTED_EDGE ( 'NONE', *, *, #628, .F. ) ;
#663 = ADVANCED_FACE ( 'NONE', ( #155, #1006, #388 ), #641, .F. ) ;
#664 = LINE ( 'NONE', #515, #429 ) ;
#665 = AXIS2_PLACEMENT_3D ( 'NONE', #594, #48, #275 ) ;
#666 = FACE_OUTER_BOUND ( 'NONE', #1024, .T. ) ;
#667 = DIRECTION ( 'NONE',  ( 0.000000000000000000, 1.000000000000000000, 0.000000000000000000 ) ) ;
#668 = EDGE_CURVE ( 'NONE', #260, #374, #77, .T. ) ;
#669 = ORIENTED_EDGE ( 'NONE', *, *, #170, .F. ) ;
#670 = CARTESIAN_POINT ( 'NONE',  ( -4.500000000000000888, 16.00000000000000000, -3.999999999999997335 ) ) ;
#671 = CARTESIAN_POINT ( 'NONE',  ( 0.000000000000000000, 16.00000000000000000, 0.000000000000000000 ) ) ;
#672 = EDGE_CURVE ( 'NONE', #204, #75, #477, .T. ) ;
#673 = CARTESIAN_POINT ( 'NONE',  ( -2.000000000000000000, 18.50000000000000000, 7.000000000000002665 ) ) ;
#674 = ORIENTED_EDGE ( 'NONE', *, *, #696, .T. ) ;
#675 = CARTESIAN_POINT ( 'NONE',  ( 2.000000000000000000, 26.00000000000000355, 7.000000000000002665 ) ) ;
#676 = ORIENTED_EDGE ( 'NONE', *, *, #815, .F. ) ;
#677 = EDGE_CURVE ( 'NONE', #494, #993, #98, .T. ) ;
#678 = CARTESIAN_POINT ( 'NONE',  ( -2.000000000000000000, 18.50000000000000000, 7.000000000000002665 ) ) ;
#679 = DIRECTION ( 'NONE',  ( -1.000000000000000000, 0.000000000000000000, 0.000000000000000000 ) ) ;
#680 = ORIENTED_EDGE ( 'NONE', *, *, #888, .T. ) ;
#681 = LINE ( 'NONE', #446, #1012 ) ;
#682 = VECTOR ( 'NONE', #136, 1000.000000000000000 ) ;
#683 = EDGE_CURVE ( 'NONE', #894, #177, #831, .T. ) ;
#684 = AXIS2_PLACEMENT_3D ( 'NONE', #699, #368, #147 ) ;
#685 = CARTESIAN_POINT ( 'NONE',  ( -4.500000000000000888, 16.00000000000000000, 4.000000000000002665 ) ) ;
#686 = CYLINDRICAL_SURFACE ( 'NONE', #866, 1.600000000000000755 ) ;
#687 = ORIENTED_EDGE ( 'NONE', *, *, #741, .F. ) ;
#688 = CARTESIAN_POINT ( 'NONE',  ( 9.000000000000000000, 8.000000000000000000, 12.00000000000000711 ) ) ;
#689 = DIRECTION ( 'NONE',  ( -0.7071067811865477948, -0.7071067811865473507, 0.000000000000000000 ) ) ;
#690 = LINE ( 'NONE', #867, #1016 ) ;
#691 = EDGE_LOOP ( 'NONE', ( #571, #680 ) ) ;
#692 = DIRECTION ( 'NONE',  ( 0.000000000000000000, 0.000000000000000000, -1.000000000000000000 ) ) ;
#693 = DIRECTION ( 'NONE',  ( -1.000000000000000000, 0.000000000000000000, 0.000000000000000000 ) ) ;
#694 = CARTESIAN_POINT ( 'NONE',  ( 4.500000000000000888, 16.00000000000000000, -3.999999999999997335 ) ) ;
#695 = ORIENTED_EDGE ( 'NONE', *, *, #658, .T. ) ;
#696 = EDGE_CURVE ( 'NONE', #282, #656, #797, .T. ) ;
#697 = CARTESIAN_POINT ( 'NONE',  ( 9.000000000000000000, 8.000000000000000000, -13.59999999999999609 ) ) ;
#698 = AXIS2_PLACEMENT_3D ( 'NONE', #792, #713, #3 ) ;
#699 = CARTESIAN_POINT ( 'NONE',  ( 0.000000000000000000, 0.000000000000000000, 23.00000000000000711 ) ) ;
#700 = ORIENTED_EDGE ( 'NONE', *, *, #877, .F. ) ;
#701 = VECTOR ( 'NONE', #372, 1000.000000000000000 ) ;
#702 = LINE ( 'NONE', #861, #361 ) ;
#703 = DIRECTION ( 'NONE',  ( -0.7071067811865477948, -0.7071067811865473507, 0.000000000000000000 ) ) ;
#704 = CARTESIAN_POINT ( 'NONE',  ( 2.000000000000000000, 16.00000000000000000, 7.000000000000002665 ) ) ;
#705 = ADVANCED_FACE ( 'NONE', ( #806 ), #957, .T. ) ;
#706 = VERTEX_POINT ( 'NONE', #321 ) ;
#707 = DIRECTION ( 'NONE',  ( 0.000000000000000000, 0.000000000000000000, 1.000000000000000000 ) ) ;
#708 = ORIENTED_EDGE ( 'NONE', *, *, #771, .T. ) ;
#709 = EDGE_CURVE ( 'NONE', #263, #851, #961, .T. ) ;
#710 = CARTESIAN_POINT ( 'NONE',  ( 9.000000000000000000, 0.000000000000000000, 30.00000000000000711 ) ) ;
#711 = ORIENTED_EDGE ( 'NONE', *, *, #668, .T. ) ;
#712 = ORIENTED_EDGE ( 'NONE', *, *, #998, .F. ) ;
#713 = DIRECTION ( 'NONE',  ( 0.000000000000000000, 0.000000000000000000, 1.000000000000000000 ) ) ;
#714 = VERTEX_POINT ( 'NONE', #727 ) ;
#715 =( GEOMETRIC_REPRESENTATION_CONTEXT ( 3 ) GLOBAL_UNCERTAINTY_ASSIGNED_CONTEXT ( ( #424 ) ) GLOBAL_UNIT_ASSIGNED_CONTEXT ( ( #6, #643, #406 ) ) REPRESENTATION_CONTEXT ( 'NONE', 'WORKASPACE' ) );
#716 = SURFACE_STYLE_USAGE ( .BOTH. , #394 ) ;
#717 = AXIS2_PLACEMENT_3D ( 'NONE', #671, #501, #593 ) ;
#718 = CARTESIAN_POINT ( 'NONE',  ( 0.000000000000000000, 0.000000000000000000, -3.999999999999997335 ) ) ;
#719 = CARTESIAN_POINT ( 'NONE',  ( 2.000000000000000000, 18.50000000000000355, -3.999999999999997335 ) ) ;
#720 = ORIENTED_EDGE ( 'NONE', *, *, #709, .F. ) ;
#721 = EDGE_CURVE ( 'NONE', #840, #10, #810, .T. ) ;
#722 = ORIENTED_EDGE ( 'NONE', *, *, #348, .F. ) ;
#723 = CARTESIAN_POINT ( 'NONE',  ( -9.000000000000000000, 16.00000000000000000, -29.99999999999999289 ) ) ;
#724 = ORIENTED_EDGE ( 'NONE', *, *, #921, .T. ) ;
#725 = EDGE_CURVE ( 'NONE', #158, #40, #232, .T. ) ;
#726 = DIRECTION ( 'NONE',  ( -1.000000000000000000, -0.000000000000000000, -0.000000000000000000 ) ) ;
#727 = CARTESIAN_POINT ( 'NONE',  ( 3.796405077356794918E-16, 16.00000000000000000, -26.09999999999999076 ) ) ;
#728 = ORIENTED_EDGE ( 'NONE', *, *, #939, .T. ) ;
#729 = AXIS2_PLACEMENT_3D ( 'NONE', #675, #347, #992 ) ;
#730 = CARTESIAN_POINT ( 'NONE',  ( 0.000000000000000000, 0.000000000000000000, -22.99999999999999289 ) ) ;
#731 = ORIENTED_EDGE ( 'NONE', *, *, #972, .T. ) ;
#732 = VECTOR ( 'NONE', #580, 1000.000000000000000 ) ;
#733 = VECTOR ( 'NONE', #72, 1000.000000000000000 ) ;
#734 = CIRCLE ( 'NONE', #139, 1.600000000000002531 ) ;
#735 = DIRECTION ( 'NONE',  ( -0.7071067811865472397, 0.7071067811865479058, -0.000000000000000000 ) ) ;
#736 = EDGE_CURVE ( 'NONE', #894, #550, #88, .T. ) ;
#737 = ORIENTED_EDGE ( 'NONE', *, *, #847, .T. ) ;
#738 = FILL_AREA_STYLE ('',( #876 ) ) ;
#739 = EDGE_LOOP ( 'NONE', ( #250, #464, #662, #337 ) ) ;
#740 = DIRECTION ( 'NONE',  ( 0.7071067811865479058, 0.7071067811865472397, 0.000000000000000000 ) ) ;
#741 = EDGE_CURVE ( 'NONE', #263, #659, #310, .T. ) ;
#742 = CARTESIAN_POINT ( 'NONE',  ( 3.796405077356794918E-16, 0.000000000000000000, -26.09999999999999076 ) ) ;
#743 = VERTEX_POINT ( 'NONE', #9 ) ;
#744 = DIRECTION ( 'NONE',  ( -0.000000000000000000, -1.000000000000000000, -0.000000000000000000 ) ) ;
#745 = CARTESIAN_POINT ( 'NONE',  ( -2.000000000000000000, 21.00000000000000000, 0.000000000000000000 ) ) ;
#746 = DIRECTION ( 'NONE',  ( -1.000000000000000000, -0.000000000000000000, -0.000000000000000000 ) ) ;
#747 = ORIENTED_EDGE ( 'NONE', *, *, #771, .F. ) ;
#748 = AXIS2_PLACEMENT_3D ( 'NONE', #605, #50, #428 ) ;
#749 = PLANE ( 'NONE',  #729 ) ;
#750 = VECTOR ( 'NONE', #162, 1000.000000000000000 ) ;
#751 = AXIS2_PLACEMENT_3D ( 'NONE', #803, #874, #567 ) ;
#752 = CIRCLE ( 'NONE', #119, 3.099999999999998757 ) ;
#753 = CARTESIAN_POINT ( 'NONE',  ( -2.000000000000000000, 26.00000000000000355, -3.999999999999980904 ) ) ;
#754 = FACE_OUTER_BOUND ( 'NONE', #935, .T. ) ;
#755 = ORIENTED_EDGE ( 'NONE', *, *, #672, .T. ) ;
#756 = DIRECTION ( 'NONE',  ( -1.000000000000000000, -0.000000000000000000, -0.000000000000000000 ) ) ;
#757 = EDGE_CURVE ( 'NONE', #530, #762, #645, .T. ) ;
#758 = ORIENTED_EDGE ( 'NONE', *, *, #329, .F. ) ;
#759 = DIRECTION ( 'NONE',  ( -1.000000000000000000, 0.000000000000000000, 0.000000000000000000 ) ) ;
#760 = EDGE_CURVE ( 'NONE', #374, #288, #12, .T. ) ;
#761 = CARTESIAN_POINT ( 'NONE',  ( -2.000000000000000000, 26.00000000000000355, -6.999999999999997335 ) ) ;
#762 = VERTEX_POINT ( 'NONE', #885 ) ;
#763 = CARTESIAN_POINT ( 'NONE',  ( -9.000000000000000000, 8.000000000000000000, -11.99999999999999289 ) ) ;
#764 = DIRECTION ( 'NONE',  ( 0.000000000000000000, 1.000000000000000000, 0.000000000000000000 ) ) ;
#765 = DIRECTION ( 'NONE',  ( -1.000000000000000000, -0.000000000000000000, -0.000000000000000000 ) ) ;
#766 = ORIENTED_EDGE ( 'NONE', *, *, #386, .T. ) ;
#767 = CARTESIAN_POINT ( 'NONE',  ( 4.500000000000000888, 16.00000000000000000, -6.999999999999997335 ) ) ;
#768 = VECTOR ( 'NONE', #929, 1000.000000000000000 ) ;
#769 = AXIS2_PLACEMENT_3D ( 'NONE', #350, #818, #421 ) ;
#770 = CARTESIAN_POINT ( 'NONE',  ( -2.000000000000000000, 18.50000000000000000, 4.000000000000002665 ) ) ;
#771 = EDGE_CURVE ( 'NONE', #484, #478, #466, .T. ) ;
#772 = FACE_OUTER_BOUND ( 'NONE', #996, .T. ) ;
#773 = ORIENTED_EDGE ( 'NONE', *, *, #549, .T. ) ;
#774 = CARTESIAN_POINT ( 'NONE',  ( 4.500000000000000888, 16.00000000000000000, 4.000000000000002665 ) ) ;
#775 = DIRECTION ( 'NONE',  ( 0.000000000000000000, 0.000000000000000000, 1.000000000000000000 ) ) ;
#776 = PLANE ( 'NONE',  #219 ) ;
#777 = ORIENTED_EDGE ( 'NONE', *, *, #926, .T. ) ;
#778 = CARTESIAN_POINT ( 'NONE',  ( -9.000000000000000000, 8.000000000000000000, -11.99999999999999289 ) ) ;
#779 = CARTESIAN_POINT ( 'NONE',  ( -2.000000000000000000, 18.50000000000000000, 4.000000000000002665 ) ) ;
#780 = CARTESIAN_POINT ( 'NONE',  ( 0.000000000000000000, 0.000000000000000000, 0.000000000000000000 ) ) ;
#781 = EDGE_LOOP ( 'NONE', ( #209, #954, #488, #1004 ) ) ;
#782 = VECTOR ( 'NONE', #285, 1000.000000000000000 ) ;
#783 = EDGE_CURVE ( 'NONE', #10, #434, #574, .T. ) ;
#784 = DIRECTION ( 'NONE',  ( 0.000000000000000000, 0.000000000000000000, -1.000000000000000000 ) ) ;
#785 = ORIENTED_EDGE ( 'NONE', *, *, #447, .T. ) ;
#786 = CARTESIAN_POINT ( 'NONE',  ( -4.500000000000000888, 16.00000000000000000, 4.000000000000002665 ) ) ;
#787 = CARTESIAN_POINT ( 'NONE',  ( -2.000000000000000000, 23.00000000000000000, -6.999999999999997335 ) ) ;
#788 = CARTESIAN_POINT ( 'NONE',  ( -2.000000000000000000, 16.00000000000000000, -3.999999999999997335 ) ) ;
#789 = VERTEX_POINT ( 'NONE', #234 ) ;
#790 = ADVANCED_FACE ( 'NONE', ( #159 ), #472, .F. ) ;
#791 = ORIENTED_EDGE ( 'NONE', *, *, #721, .F. ) ;
#792 = CARTESIAN_POINT ( 'NONE',  ( -9.000000000000000000, 16.00000000000000000, -29.99999999999999289 ) ) ;
#793 = ORIENTED_EDGE ( 'NONE', *, *, #207, .F. ) ;
#794 = CARTESIAN_POINT ( 'NONE',  ( -2.000000000000000000, 26.00000000000000355, 7.000000000000002665 ) ) ;
#795 = CARTESIAN_POINT ( 'NONE',  ( 0.000000000000000000, 0.000000000000000000, 23.00000000000000711 ) ) ;
#796 = CLOSED_SHELL ( 'NONE', ( #490, #417, #842, #334, #126, #816, #663, #790, #572, #103, #596, #7, #290, #73, #23, #381, #362, #90, #471, #964, #463, #71, #459, #1003, #705, #554, #1020, #443, #52, #860, #262 ) ) ;
#797 = LINE ( 'NONE', #163, #914 ) ;
#798 = VERTEX_POINT ( 'NONE', #315 ) ;
#799 = LINE ( 'NONE', #805, #113 ) ;
#800 = VECTOR ( 'NONE', #84, 1000.000000000000000 ) ;
#801 = AXIS2_PLACEMENT_3D ( 'NONE', #922, #693, #932 ) ;
#802 = FACE_OUTER_BOUND ( 'NONE', #819, .T. ) ;
#803 = CARTESIAN_POINT ( 'NONE',  ( 9.000000000000000000, 16.00000000000000000, 30.00000000000000711 ) ) ;
#804 = ORIENTED_EDGE ( 'NONE', *, *, #199, .T. ) ;
#805 = CARTESIAN_POINT ( 'NONE',  ( 0.000000000000000000, 0.000000000000000000, -19.89999999999999503 ) ) ;
#806 = FACE_OUTER_BOUND ( 'NONE', #244, .T. ) ;
#807 = ORIENTED_EDGE ( 'NONE', *, *, #709, .T. ) ;
#808 = EDGE_CURVE ( 'NONE', #236, #840, #637, .T. ) ;
#809 = EDGE_CURVE ( 'NONE', #993, #840, #578, .T. ) ;
#810 = LINE ( 'NONE', #551, #313 ) ;
#811 = ORIENTED_EDGE ( 'NONE', *, *, #633, .F. ) ;
#812 = ORIENTED_EDGE ( 'NONE', *, *, #257, .F. ) ;
#813 = CIRCLE ( 'NONE', #51, 1.600000000000002531 ) ;
#814 = VECTOR ( 'NONE', #900, 1000.000000000000000 ) ;
#815 = EDGE_CURVE ( 'NONE', #40, #158, #585, .T. ) ;
#816 = ADVANCED_FACE ( 'NONE', ( #666, #27, #821, #274 ), #107, .F. ) ;
#817 = DIRECTION ( 'NONE',  ( -1.000000000000000000, -0.000000000000000000, -0.000000000000000000 ) ) ;
#818 = DIRECTION ( 'NONE',  ( 0.000000000000000000, -0.7071067811865459074, -0.7071067811865491270 ) ) ;
#819 = EDGE_LOOP ( 'NONE', ( #278, #22, #276 ) ) ;
#820 = LINE ( 'NONE', #305, #614 ) ;
#821 = FACE_BOUND ( 'NONE', #422, .T. ) ;
#822 = FACE_OUTER_BOUND ( 'NONE', #581, .T. ) ;
#823 = ORIENTED_EDGE ( 'NONE', *, *, #864, .F. ) ;
#824 = DIRECTION ( 'NONE',  ( -0.000000000000000000, -1.000000000000000000, -0.000000000000000000 ) ) ;
#825 = FACE_OUTER_BOUND ( 'NONE', #938, .T. ) ;
#826 = EDGE_CURVE ( 'NONE', #204, #434, #497, .T. ) ;
#827 = CARTESIAN_POINT ( 'NONE',  ( 9.000000000000000000, 21.00000000000000000, 0.000000000000000000 ) ) ;
#828 = ORIENTED_EDGE ( 'NONE', *, *, #273, .T. ) ;
#829 = DIRECTION ( 'NONE',  ( 0.000000000000000000, 0.000000000000000000, 1.000000000000000000 ) ) ;
#830 = APPLICATION_CONTEXT ( 'automotive_design' ) ;
#831 = CIRCLE ( 'NONE', #511, 1.600000000000002531 ) ;
#832 = ORIENTED_EDGE ( 'NONE', *, *, #407, .F. ) ;
#833 = DIRECTION ( 'NONE',  ( 0.000000000000000000, 0.000000000000000000, 1.000000000000000000 ) ) ;
#834 = DIRECTION ( 'NONE',  ( 1.000000000000000000, 0.000000000000000000, 0.000000000000000000 ) ) ;
#835 = ORIENTED_EDGE ( 'NONE', *, *, #447, .F. ) ;
#836 = DIRECTION ( 'NONE',  ( -0.000000000000000000, 1.000000000000000000, -0.000000000000000000 ) ) ;
#837 = EDGE_LOOP ( 'NONE', ( #952, #919, #25, #217 ) ) ;
#838 = CARTESIAN_POINT ( 'NONE',  ( 9.000000000000000000, 21.00000000000000000, 1.600000000000000755 ) ) ;
#839 = LINE ( 'NONE', #901, #465 ) ;
#840 = VERTEX_POINT ( 'NONE', #753 ) ;
#841 = DIRECTION ( 'NONE',  ( 0.000000000000000000, 1.000000000000000000, 0.000000000000000000 ) ) ;
#842 = ADVANCED_FACE ( 'NONE', ( #206 ), #586, .F. ) ;
#843 = CARTESIAN_POINT ( 'NONE',  ( -2.000000000000000000, 22.99999999999998579, 7.000000000000002665 ) ) ;
#844 = VERTEX_POINT ( 'NONE', #425 ) ;
#845 = CARTESIAN_POINT ( 'NONE',  ( -9.000000000000000000, 16.00000000000000000, 30.00000000000000711 ) ) ;
#846 = AXIS2_PLACEMENT_3D ( 'NONE', #908, #341, #983 ) ;
#847 = EDGE_CURVE ( 'NONE', #1007, #530, #24, .T. ) ;
#848 = VECTOR ( 'NONE', #189, 1000.000000000000000 ) ;
#849 = PLANE ( 'NONE',  #482 ) ;
#850 = FACE_BOUND ( 'NONE', #319, .T. ) ;
#851 = VERTEX_POINT ( 'NONE', #994 ) ;
#852 = CARTESIAN_POINT ( 'NONE',  ( -2.000000000000000000, 26.00000000000000355, 4.000000000000000000 ) ) ;
#853 = FACE_OUTER_BOUND ( 'NONE', #837, .T. ) ;
#854 = DIRECTION ( 'NONE',  ( 0.000000000000000000, 0.000000000000000000, -1.000000000000000000 ) ) ;
#855 = ORIENTED_EDGE ( 'NONE', *, *, #93, .T. ) ;
#856 = EDGE_CURVE ( 'NONE', #975, #46, #43, .T. ) ;
#857 = SHAPE_DEFINITION_REPRESENTATION ( #654, #295 ) ;
#858 = LINE ( 'NONE', #934, #432 ) ;
#859 = EDGE_LOOP ( 'NONE', ( #575, #29, #298, #160 ) ) ;
#860 = ADVANCED_FACE ( 'NONE', ( #825 ), #338, .T. ) ;
#861 = CARTESIAN_POINT ( 'NONE',  ( -2.000000000000000000, 16.00000000000000000, 7.000000000000002665 ) ) ;
#862 = DIRECTION ( 'NONE',  ( 0.000000000000000000, 0.000000000000000000, 1.000000000000000000 ) ) ;
#863 = CARTESIAN_POINT ( 'NONE',  ( 9.000000000000000000, 0.000000000000000000, -29.99999999999999289 ) ) ;
#864 = EDGE_CURVE ( 'NONE', #179, #798, #112, .T. ) ;
#865 = AXIS2_PLACEMENT_3D ( 'NONE', #60, #553, #943 ) ;
#866 = AXIS2_PLACEMENT_3D ( 'NONE', #28, #267, #587 ) ;
#867 = CARTESIAN_POINT ( 'NONE',  ( 4.500000000000000888, 16.00000000000000000, 4.000000000000002665 ) ) ;
#868 = ORIENTED_EDGE ( 'NONE', *, *, #215, .F. ) ;
#869 = DIRECTION ( 'NONE',  ( 0.000000000000000000, 0.000000000000000000, 1.000000000000000000 ) ) ;
#870 = ORIENTED_EDGE ( 'NONE', *, *, #21, .F. ) ;
#871 = DIRECTION ( 'NONE',  ( 0.000000000000000000, 1.000000000000000000, 0.000000000000000000 ) ) ;
#872 = ORIENTED_EDGE ( 'NONE', *, *, #741, .T. ) ;
#873 = ORIENTED_EDGE ( 'NONE', *, *, #15, .F. ) ;
#874 = DIRECTION ( 'NONE',  ( -1.000000000000000000, 0.000000000000000000, 0.000000000000000000 ) ) ;
#875 = VERTEX_POINT ( 'NONE', #909 ) ;
#876 = FILL_AREA_STYLE_COLOUR ( '', #528 ) ;
#877 = EDGE_CURVE ( 'NONE', #110, #798, #548, .T. ) ;
#878 = ORIENTED_EDGE ( 'NONE', *, *, #152, .T. ) ;
#879 = VECTOR ( 'NONE', #504, 1000.000000000000000 ) ;
#880 = DIRECTION ( 'NONE',  ( -0.7071067811865472397, 0.7071067811865479058, -0.000000000000000000 ) ) ;
#881 = ORIENTED_EDGE ( 'NONE', *, *, #533, .F. ) ;
#882 = CARTESIAN_POINT ( 'NONE',  ( 9.000000000000000000, 8.000000000000000000, 10.40000000000000391 ) ) ;
#883 = VECTOR ( 'NONE', #487, 1000.000000000000000 ) ;
#884 = VECTOR ( 'NONE', #128, 1000.000000000000000 ) ;
#885 = CARTESIAN_POINT ( 'NONE',  ( -9.000000000000000000, 16.00000000000000000, -29.99999999999999289 ) ) ;
#886 = EDGE_LOOP ( 'NONE', ( #130, #500, #475, #766, #971, #674 ) ) ;
#887 = VERTEX_POINT ( 'NONE', #122 ) ;
#888 = EDGE_CURVE ( 'NONE', #962, #101, #734, .T. ) ;
#889 = CARTESIAN_POINT ( 'NONE',  ( -2.000000000000000000, 26.00000000000000355, -6.999999999999997335 ) ) ;
#890 = ORIENTED_EDGE ( 'NONE', *, *, #120, .F. ) ;
#891 = LINE ( 'NONE', #180, #342 ) ;
#892 = ORIENTED_EDGE ( 'NONE', *, *, #486, .T. ) ;
#893 = CARTESIAN_POINT ( 'NONE',  ( 9.000000000000000000, 8.000000000000000000, 12.00000000000000711 ) ) ;
#894 = VERTEX_POINT ( 'NONE', #279 ) ;
#895 = CARTESIAN_POINT ( 'NONE',  ( 2.000000000000000000, 26.00000000000000355, 7.000000000000002665 ) ) ;
#896 = ORIENTED_EDGE ( 'NONE', *, *, #108, .T. ) ;
#897 = VECTOR ( 'NONE', #910, 1000.000000000000000 ) ;
#898 = CIRCLE ( 'NONE', #963, 1.600000000000000755 ) ;
#899 = EDGE_LOOP ( 'NONE', ( #832, #18, #773, #311 ) ) ;
#900 = DIRECTION ( 'NONE',  ( 0.000000000000000000, 0.000000000000000000, -1.000000000000000000 ) ) ;
#901 = CARTESIAN_POINT ( 'NONE',  ( 9.000000000000000000, 16.00000000000000000, -29.99999999999999289 ) ) ;
#902 = VERTEX_POINT ( 'NONE', #678 ) ;
#903 = DIRECTION ( 'NONE',  ( -0.000000000000000000, 1.000000000000000000, -0.000000000000000000 ) ) ;
#904 = EDGE_CURVE ( 'NONE', #101, #186, #601, .T. ) ;
#905 = CARTESIAN_POINT ( 'NONE',  ( -2.000000000000000000, 26.00000000000000355, -3.999999999999980904 ) ) ;
#906 = CARTESIAN_POINT ( 'NONE',  ( -2.000000000000000000, 18.50000000000000355, -6.999999999999997335 ) ) ;
#907 = VERTEX_POINT ( 'NONE', #442 ) ;
#908 = CARTESIAN_POINT ( 'NONE',  ( -9.000000000000000000, 16.00000000000000000, 30.00000000000000711 ) ) ;
#909 = CARTESIAN_POINT ( 'NONE',  ( -9.000000000000000000, 0.000000000000000000, 30.00000000000000711 ) ) ;
#910 = DIRECTION ( 'NONE',  ( -0.7071067811865477948, -0.7071067811865473507, 0.000000000000000000 ) ) ;
#911 = ORIENTED_EDGE ( 'NONE', *, *, #533, .T. ) ;
#912 = VECTOR ( 'NONE', #460, 1000.000000000000000 ) ;
#913 = CARTESIAN_POINT ( 'NONE',  ( 0.000000000000000000, 0.000000000000000000, 23.00000000000000711 ) ) ;
#914 = VECTOR ( 'NONE', #880, 999.9999999999998863 ) ;
#915 = CIRCLE ( 'NONE', #801, 1.600000000000000755 ) ;
#916 = ORIENTED_EDGE ( 'NONE', *, *, #760, .T. ) ;
#917 = CARTESIAN_POINT ( 'NONE',  ( 9.000000000000000000, 8.000000000000000000, -10.39999999999999147 ) ) ;
#918 = CYLINDRICAL_SURFACE ( 'NONE', #19, 1.600000000000002531 ) ;
#919 = ORIENTED_EDGE ( 'NONE', *, *, #809, .T. ) ;
#920 = PLANE ( 'NONE',  #846 ) ;
#921 = EDGE_CURVE ( 'NONE', #260, #282, #332, .T. ) ;
#922 = CARTESIAN_POINT ( 'NONE',  ( -2.000000000000000000, 21.00000000000000000, 0.000000000000000000 ) ) ;
#923 = DIRECTION ( 'NONE',  ( 0.7071067811865479058, 0.7071067811865472397, -0.000000000000000000 ) ) ;
#924 = ORIENTED_EDGE ( 'NONE', *, *, #182, .F. ) ;
#925 = DIRECTION ( 'NONE',  ( 0.000000000000000000, 1.000000000000000000, 0.000000000000000000 ) ) ;
#926 = EDGE_CURVE ( 'NONE', #156, #789, #974, .T. ) ;
#927 = CARTESIAN_POINT ( 'NONE',  ( 9.000000000000000000, 21.00000000000000000, -1.600000000000000755 ) ) ;
#928 = ORIENTED_EDGE ( 'NONE', *, *, #972, .F. ) ;
#929 = DIRECTION ( 'NONE',  ( -0.000000000000000000, -0.7071067811865491270, 0.7071067811865459074 ) ) ;
#930 = VECTOR ( 'NONE', #955, 1000.000000000000000 ) ;
#931 = VECTOR ( 'NONE', #784, 1000.000000000000000 ) ;
#932 = DIRECTION ( 'NONE',  ( 0.000000000000000000, 0.000000000000000000, 1.000000000000000000 ) ) ;
#933 = VECTOR ( 'NONE', #198, 1000.000000000000000 ) ;
#934 = CARTESIAN_POINT ( 'NONE',  ( 2.000000000000000000, 18.50000000000000355, -6.999999999999997335 ) ) ;
#935 = EDGE_LOOP ( 'NONE', ( #346, #225, #582, #4 ) ) ;
#936 = EDGE_CURVE ( 'NONE', #762, #333, #420, .T. ) ;
#937 = DIRECTION ( 'NONE',  ( 0.000000000000000000, 0.7071067811865459074, 0.7071067811865491270 ) ) ;
#938 = EDGE_LOOP ( 'NONE', ( #517, #720, #872, #524 ) ) ;
#939 = EDGE_CURVE ( 'NONE', #256, #63, #752, .T. ) ;
#940 = CYLINDRICAL_SURFACE ( 'NONE', #246, 1.600000000000002531 ) ;
#941 = LINE ( 'NONE', #927, #413 ) ;
#942 = ORIENTED_EDGE ( 'NONE', *, *, #856, .T. ) ;
#943 = DIRECTION ( 'NONE',  ( 0.000000000000000000, 0.000000000000000000, 1.000000000000000000 ) ) ;
#944 = CARTESIAN_POINT ( 'NONE',  ( -2.000000000000000000, 16.00000000000000000, 4.000000000000002665 ) ) ;
#945 = CIRCLE ( 'NONE', #264, 1.600000000000000755 ) ;
#946 = VECTOR ( 'NONE', #512, 1000.000000000000000 ) ;
#947 = DIRECTION ( 'NONE',  ( -0.000000000000000000, -1.000000000000000000, -0.000000000000000000 ) ) ;
#948 = ORIENTED_EDGE ( 'NONE', *, *, #904, .F. ) ;
#949 = VECTOR ( 'NONE', #689, 1000.000000000000000 ) ;
#950 = DIRECTION ( 'NONE',  ( 0.000000000000000000, 0.000000000000000000, 1.000000000000000000 ) ) ;
#951 = EDGE_CURVE ( 'NONE', #253, #743, #1001, .T. ) ;
#952 = ORIENTED_EDGE ( 'NONE', *, *, #677, .T. ) ;
#953 = CARTESIAN_POINT ( 'NONE',  ( -2.000000000000000000, 26.00000000000000355, 7.000000000000002665 ) ) ;
#954 = ORIENTED_EDGE ( 'NONE', *, *, #44, .F. ) ;
#955 = DIRECTION ( 'NONE',  ( 0.000000000000000000, 0.000000000000000000, -1.000000000000000000 ) ) ;
#956 = CARTESIAN_POINT ( 'NONE',  ( 0.000000000000000000, 0.000000000000000000, 26.10000000000000497 ) ) ;
#957 = PLANE ( 'NONE',  #1015 ) ;
#958 = ORIENTED_EDGE ( 'NONE', *, *, #951, .F. ) ;
#959 = DIRECTION ( 'NONE',  ( -1.000000000000000000, 0.000000000000000000, -0.000000000000000000 ) ) ;
#960 = VECTOR ( 'NONE', #824, 1000.000000000000000 ) ;
#961 = LINE ( 'NONE', #408, #480 ) ;
#962 = VERTEX_POINT ( 'NONE', #697 ) ;
#963 = AXIS2_PLACEMENT_3D ( 'NONE', #45, #679, #995 ) ;
#964 = ADVANCED_FACE ( 'NONE', ( #853 ), #849, .F. ) ;
#965 = DIRECTION ( 'NONE',  ( -0.000000000000000000, 1.000000000000000000, -0.000000000000000000 ) ) ;
#966 = PRODUCT_DEFINITION_FORMATION_WITH_SPECIFIED_SOURCE ( 'Symmetric', '', #254, .NOT_KNOWN. ) ;
#967 = ORIENTED_EDGE ( 'NONE', *, *, #386, .F. ) ;
#968 = DIRECTION ( 'NONE',  ( 0.000000000000000000, 0.000000000000000000, 1.000000000000000000 ) ) ;
#969 = ORIENTED_EDGE ( 'NONE', *, *, #584, .T. ) ;
#970 = DIRECTION ( 'NONE',  ( 0.000000000000000000, 0.000000000000000000, 1.000000000000000000 ) ) ;
#971 = ORIENTED_EDGE ( 'NONE', *, *, #235, .T. ) ;
#972 = EDGE_CURVE ( 'NONE', #706, #253, #286, .T. ) ;
#973 = PRODUCT_DEFINITION ( 'General', '', #966, #32 ) ;
#974 = LINE ( 'NONE', #259, #284 ) ;
#975 = VERTEX_POINT ( 'NONE', #863 ) ;
#976 = CARTESIAN_POINT ( 'NONE',  ( 0.000000000000000000, 0.000000000000000000, -22.99999999999999289 ) ) ;
#977 = ORIENTED_EDGE ( 'NONE', *, *, #888, .F. ) ;
#978 = VERTEX_POINT ( 'NONE', #526 ) ;
#979 = DIRECTION ( 'NONE',  ( -0.000000000000000000, -0.000000000000000000, 1.000000000000000000 ) ) ;
#980 = DIRECTION ( 'NONE',  ( 0.000000000000000000, 0.000000000000000000, 1.000000000000000000 ) ) ;
#981 = EDGE_LOOP ( 'NONE', ( #74, #617 ) ) ;
#982 = AXIS2_PLACEMENT_3D ( 'NONE', #893, #817, #38 ) ;
#983 = DIRECTION ( 'NONE',  ( -1.000000000000000000, 0.000000000000000000, -0.000000000000000000 ) ) ;
#984 = AXIS2_PLACEMENT_3D ( 'NONE', #183, #740, #270 ) ;
#985 = DIRECTION ( 'NONE',  ( 0.000000000000000000, 0.000000000000000000, -1.000000000000000000 ) ) ;
#986 = CYLINDRICAL_SURFACE ( 'NONE', #283, 1.600000000000000755 ) ;
#987 = ORIENTED_EDGE ( 'NONE', *, *, #606, .T. ) ;
#988 = FACE_OUTER_BOUND ( 'NONE', #418, .T. ) ;
#989 = DIRECTION ( 'NONE',  ( 0.7071067811865477948, 0.7071067811865473507, 0.000000000000000000 ) ) ;
#990 = DIRECTION ( 'NONE',  ( 0.000000000000000000, 0.000000000000000000, -1.000000000000000000 ) ) ;
#991 = ORIENTED_EDGE ( 'NONE', *, *, #627, .T. ) ;
#992 = DIRECTION ( 'NONE',  ( 0.000000000000000000, 0.000000000000000000, 1.000000000000000000 ) ) ;
#993 = VERTEX_POINT ( 'NONE', #301 ) ;
#994 = CARTESIAN_POINT ( 'NONE',  ( 2.000000000000000000, 18.50000000000000355, -6.999999999999997335 ) ) ;
#995 = DIRECTION ( 'NONE',  ( 0.000000000000000000, 0.000000000000000000, 1.000000000000000000 ) ) ;
#996 = EDGE_LOOP ( 'NONE', ( #105, #722, #164, #142 ) ) ;
#997 = CIRCLE ( 'NONE', #527, 3.099999999999998757 ) ;
#998 = EDGE_CURVE ( 'NONE', #762, #46, #291, .T. ) ;
#999 = CARTESIAN_POINT ( 'NONE',  ( -2.000000000000000000, 18.50000000000000000, 4.000000000000002665 ) ) ;
#1000 = VECTOR ( 'NONE', #457, 1000.000000000000000 ) ;
#1001 = LINE ( 'NONE', #685, #414 ) ;
#1002 = LINE ( 'NONE', #895, #202 ) ;
#1003 = ADVANCED_FACE ( 'NONE', ( #66 ), #296, .T. ) ;
#1004 = ORIENTED_EDGE ( 'NONE', *, *, #419, .F. ) ;
#1005 = LINE ( 'NONE', #845, #80 ) ;
#1006 = FACE_BOUND ( 'NONE', #981, .T. ) ;
#1007 = VERTEX_POINT ( 'NONE', #607 ) ;
#1008 = DIRECTION ( 'NONE',  ( -1.000000000000000000, 0.000000000000000000, -0.000000000000000000 ) ) ;
#1009 = CARTESIAN_POINT ( 'NONE',  ( -9.000000000000000000, 8.000000000000000000, 13.60000000000001030 ) ) ;
#1010 = EDGE_LOOP ( 'NONE', ( #599, #1027, #470, #145 ) ) ;
#1011 = CARTESIAN_POINT ( 'NONE',  ( 2.000000000000000000, 18.50000000000000355, 4.000000000000002665 ) ) ;
#1012 = VECTOR ( 'NONE', #925, 1000.000000000000000 ) ;
#1013 = VECTOR ( 'NONE', #726, 1000.000000000000000 ) ;
#1014 = EDGE_CURVE ( 'NONE', #256, #158, #448, .T. ) ;
#1015 = AXIS2_PLACEMENT_3D ( 'NONE', #415, #318, #483 ) ;
#1016 = VECTOR ( 'NONE', #523, 1000.000000000000000 ) ;
#1017 = DIRECTION ( 'NONE',  ( 0.000000000000000000, -1.000000000000000000, 0.000000000000000000 ) ) ;
#1018 = DIRECTION ( 'NONE',  ( 1.000000000000000000, 0.000000000000000000, 0.000000000000000000 ) ) ;
#1019 = VERTEX_POINT ( 'NONE', #522 ) ;
#1020 = ADVANCED_FACE ( 'NONE', ( #376 ), #1022, .F. ) ;
#1021 = ORIENTED_EDGE ( 'NONE', *, *, #157, .T. ) ;
#1022 = PLANE ( 'NONE',  #117 ) ;
#1023 = CARTESIAN_POINT ( 'NONE',  ( -9.000000000000000000, 8.000000000000000000, 12.00000000000000711 ) ) ;
#1024 = EDGE_LOOP ( 'NONE', ( #737, #595, #503, #508 ) ) ;
#1025 = EDGE_LOOP ( 'NONE', ( #785, #708 ) ) ;
#1026 = DIRECTION ( 'NONE',  ( 0.000000000000000000, 0.000000000000000000, 1.000000000000000000 ) ) ;
#1027 = ORIENTED_EDGE ( 'NONE', *, *, #476, .F. ) ;
#1028 = EDGE_CURVE ( 'NONE', #798, #110, #915, .T. ) ;
#1029 = AXIS2_PLACEMENT_3D ( 'NONE', #795, #8, #242 ) ;
ENDSEC;
END-ISO-10303-21;
