ISO-10303-21;
HEADER;
FILE_DESCRIPTION (( 'STEP AP214' ),
    '1' );
FILE_NAME ('Gripper Hand Left.STEP',
    '2026-08-27T22:10:02',
    ( '' ),
    ( '' ),
    'SwSTEP 2.0',
    'SolidWorks 2026',
    '' );
FILE_SCHEMA (( 'AUTOMOTIVE_DESIGN' ));
ENDSEC;

DATA;
#1 = CARTESIAN_POINT ( 'NONE',  ( -10.49999999999999112, 4.000000000000000000, 91.99999999999997158 ) ) ;
#2 = CARTESIAN_POINT ( 'NONE',  ( 6.735964626525829613E-15, 4.000000000000000000, 54.49999999999997868 ) ) ;
#3 = VERTEX_POINT ( 'NONE', #73 ) ;
#4 = DIRECTION ( 'NONE',  ( 0.000000000000000000, 1.000000000000000000, 0.000000000000000000 ) ) ;
#5 = CARTESIAN_POINT ( 'NONE',  ( 6.735964626525829613E-15, 4.000000000000000000, 54.49999999999997868 ) ) ;
#6 = EDGE_LOOP ( 'NONE', ( #233, #631, #179, #160 ) ) ;
#7 =( NAMED_UNIT ( * ) SI_UNIT ( $, .STERADIAN. ) SOLID_ANGLE_UNIT ( ) );
#8 = PRODUCT_DEFINITION_SHAPE ( 'NONE', 'NONE',  #391 ) ;
#9 = EDGE_LOOP ( 'NONE', ( #126, #130, #19, #467 ) ) ;
#10 = VECTOR ( 'NONE', #150, 1000.000000000000227 ) ;
#11 = ORIENTED_EDGE ( 'NONE', *, *, #40, .T. ) ;
#12 = ADVANCED_FACE ( 'NONE', ( #480 ), #277, .F. ) ;
#13 = ORIENTED_EDGE ( 'NONE', *, *, #637, .F. ) ;
#14 = EDGE_CURVE ( 'NONE', #203, #197, #425, .T. ) ;
#15 = ORIENTED_EDGE ( 'NONE', *, *, #81, .T. ) ;
#16 = EDGE_CURVE ( 'NONE', #614, #197, #35, .T. ) ;
#17 = DIRECTION ( 'NONE',  ( 1.069350087930908658E-16, 0.000000000000000000, 1.000000000000000000 ) ) ;
#18 = PRODUCT_DEFINITION_CONTEXT ( 'detailed design', #251, 'design' ) ;
#19 = ORIENTED_EDGE ( 'NONE', *, *, #212, .T. ) ;
#20 = AXIS2_PLACEMENT_3D ( 'NONE', #85, #388, #135 ) ;
#21 = CARTESIAN_POINT ( 'NONE',  ( -5.000000000000000888, 0.000000000000000000, -8.000000000000000000 ) ) ;
#22 = ORIENTED_EDGE ( 'NONE', *, *, #419, .T. ) ;
#23 = CARTESIAN_POINT ( 'NONE',  ( 6.163957117275659402E-17, 0.000000000000000000, 0.000000000000000000 ) ) ;
#24 = DIRECTION ( 'NONE',  ( 0.000000000000000000, 1.000000000000000000, 0.000000000000000000 ) ) ;
#25 = ORIENTED_EDGE ( 'NONE', *, *, #514, .T. ) ;
#26 = DIRECTION ( 'NONE',  ( 0.000000000000000000, 1.000000000000000000, 0.000000000000000000 ) ) ;
#27 = ORIENTED_EDGE ( 'NONE', *, *, #574, .F. ) ;
#28 = DIRECTION ( 'NONE',  ( 0.5299989400031800413, 0.000000000000000000, 0.8479983040050880216 ) ) ;
#29 = EDGE_CURVE ( 'NONE', #309, #218, #55, .T. ) ;
#30 = DIRECTION ( 'NONE',  ( -0.000000000000000000, -1.000000000000000000, -0.000000000000000000 ) ) ;
#31 = DIRECTION ( 'NONE',  ( -0.000000000000000000, 1.000000000000000000, -0.000000000000000000 ) ) ;
#32 = EDGE_CURVE ( 'NONE', #482, #420, #82, .T. ) ;
#33 = EDGE_LOOP ( 'NONE', ( #623, #307, #368, #648 ) ) ;
#34 = DIRECTION ( 'NONE',  ( 0.000000000000000000, 1.000000000000000000, 0.000000000000000000 ) ) ;
#35 = LINE ( 'NONE', #625, #119 ) ;
#36 = CARTESIAN_POINT ( 'NONE',  ( -2.999999999999988010, 4.000000000000000000, 96.99999999999997158 ) ) ;
#37 = LINE ( 'NONE', #595, #598 ) ;
#38 = EDGE_LOOP ( 'NONE', ( #484, #247, #167, #545 ) ) ;
#39 = PLANE ( 'NONE',  #477 ) ;
#40 = EDGE_CURVE ( 'NONE', #587, #455, #583, .T. ) ;
#41 = CARTESIAN_POINT ( 'NONE',  ( -13.00000000000000000, 4.000000000000000000, 35.40000000000000568 ) ) ;
#42 = EDGE_LOOP ( 'NONE', ( #362, #470 ) ) ;
#43 = LINE ( 'NONE', #294, #640 ) ;
#44 = DIRECTION ( 'NONE',  ( 0.000000000000000000, 0.000000000000000000, -1.000000000000000000 ) ) ;
#45 = ORIENTED_EDGE ( 'NONE', *, *, #442, .T. ) ;
#46 = CARTESIAN_POINT ( 'NONE',  ( -10.49999999999999112, 4.000000000000000000, 90.39999999999996305 ) ) ;
#47 = AXIS2_PLACEMENT_3D ( 'NONE', #406, #24, #276 ) ;
#48 = CARTESIAN_POINT ( 'NONE',  ( -19.00000000000000355, 0.000000000000000000, -8.000000000000000000 ) ) ;
#49 = ORIENTED_EDGE ( 'NONE', *, *, #517, .T. ) ;
#50 = DIRECTION ( 'NONE',  ( -0.000000000000000000, -1.000000000000000000, -0.000000000000000000 ) ) ;
#51 = FACE_OUTER_BOUND ( 'NONE', #364, .T. ) ;
#52 = ORIENTED_EDGE ( 'NONE', *, *, #14, .F. ) ;
#53 = DIRECTION ( 'NONE',  ( 0.000000000000000000, 0.000000000000000000, 1.000000000000000000 ) ) ;
#54 = ORIENTED_EDGE ( 'NONE', *, *, #498, .T. ) ;
#55 = CIRCLE ( 'NONE', #485, 1.600000000000004086 ) ;
#56 = CARTESIAN_POINT ( 'NONE',  ( -2.999999999999992006, 4.000000000000000000, 60.49999999999997868 ) ) ;
#57 = AXIS2_PLACEMENT_3D ( 'NONE', #369, #331, #281 ) ;
#58 = DIRECTION ( 'NONE',  ( 0.000000000000000000, 0.000000000000000000, 1.000000000000000000 ) ) ;
#59 = ORIENTED_EDGE ( 'NONE', *, *, #602, .F. ) ;
#60 = ADVANCED_FACE ( 'NONE', ( #475 ), #228, .T. ) ;
#61 = EDGE_LOOP ( 'NONE', ( #451, #52, #180, #346 ) ) ;
#62 = CYLINDRICAL_SURFACE ( 'NONE', #192, 1.600000000000002531 ) ;
#63 = ORIENTED_EDGE ( 'NONE', *, *, #125, .T. ) ;
#64 = DIRECTION ( 'NONE',  ( 0.8479983040050880216, 0.000000000000000000, -0.5299989400031800413 ) ) ;
#65 = AXIS2_PLACEMENT_3D ( 'NONE', #1, #4, #399 ) ;
#66 = ORIENTED_EDGE ( 'NONE', *, *, #313, .T. ) ;
#67 = VECTOR ( 'NONE', #117, 1000.000000000000000 ) ;
#68 = LINE ( 'NONE', #124, #611 ) ;
#69 = LINE ( 'NONE', #424, #366 ) ;
#70 = CARTESIAN_POINT ( 'NONE',  ( -10.49999999999999112, 0.000000000000000000, 81.99999999999997158 ) ) ;
#71 = DIRECTION ( 'NONE',  ( -0.000000000000000000, -1.000000000000000000, -0.000000000000000000 ) ) ;
#72 = FILL_AREA_STYLE_COLOUR ( '', #461 ) ;
#73 = CARTESIAN_POINT ( 'NONE',  ( -25.99999999999999289, 4.000000000000000000, 38.00000000000000000 ) ) ;
#74 = DIRECTION ( 'NONE',  ( 0.000000000000000000, 0.000000000000000000, 1.000000000000000000 ) ) ;
#75 = EDGE_CURVE ( 'NONE', #370, #282, #633, .T. ) ;
#76 = EDGE_LOOP ( 'NONE', ( #315, #608, #143, #335 ) ) ;
#77 = VECTOR ( 'NONE', #376, 1000.000000000000227 ) ;
#78 = PLANE ( 'NONE',  #450 ) ;
#79 = VECTOR ( 'NONE', #308, 1000.000000000000000 ) ;
#80 =( GEOMETRIC_REPRESENTATION_CONTEXT ( 3 ) GLOBAL_UNCERTAINTY_ASSIGNED_CONTEXT ( ( #464 ) ) GLOBAL_UNIT_ASSIGNED_CONTEXT ( ( #258, #306, #413 ) ) REPRESENTATION_CONTEXT ( 'NONE', 'WORKASPACE' ) );
#81 = EDGE_CURVE ( 'NONE', #197, #457, #487, .T. ) ;
#82 = LINE ( 'NONE', #173, #77 ) ;
#83 = CARTESIAN_POINT ( 'NONE',  ( -17.99999999999998934, 4.000000000000000000, 96.99999999999998579 ) ) ;
#84 = DIRECTION ( 'NONE',  ( 1.000000000000000000, 0.000000000000000000, 0.000000000000000000 ) ) ;
#85 = CARTESIAN_POINT ( 'NONE',  ( -10.49999999999999112, 4.000000000000000000, 81.99999999999997158 ) ) ;
#86 = ORIENTED_EDGE ( 'NONE', *, *, #268, .F. ) ;
#87 = CIRCLE ( 'NONE', #408, 1.600000000000004086 ) ;
#88 = CARTESIAN_POINT ( 'NONE',  ( -2.999999999999992006, 0.000000000000000000, 60.49999999999997868 ) ) ;
#89 = LINE ( 'NONE', #548, #510 ) ;
#90 = VERTEX_POINT ( 'NONE', #48 ) ;
#91 = CARTESIAN_POINT ( 'NONE',  ( -25.99999999999999289, 4.000000000000000000, 38.00000000000000000 ) ) ;
#92 = CARTESIAN_POINT ( 'NONE',  ( -17.99999999999998934, 4.000000000000000000, 96.99999999999998579 ) ) ;
#93 = VERTEX_POINT ( 'NONE', #141 ) ;
#94 = DIRECTION ( 'NONE',  ( 0.000000000000000000, 0.000000000000000000, 1.000000000000000000 ) ) ;
#95 = EDGE_CURVE ( 'NONE', #285, #252, #552, .T. ) ;
#96 = CARTESIAN_POINT ( 'NONE',  ( 6.163957117275659402E-17, 4.000000000000000000, 0.000000000000000000 ) ) ;
#97 = EDGE_LOOP ( 'NONE', ( #86, #63, #243, #104 ) ) ;
#98 = EDGE_CURVE ( 'NONE', #587, #169, #643, .T. ) ;
#99 = VECTOR ( 'NONE', #348, 1000.000000000000000 ) ;
#100 = DIRECTION ( 'NONE',  ( 0.000000000000000000, 0.000000000000000000, 1.000000000000000000 ) ) ;
#101 = CIRCLE ( 'NONE', #292, 1.599999999999997202 ) ;
#102 = DIRECTION ( 'NONE',  ( -1.000000000000000000, 0.000000000000000000, 9.251858538542971828E-16 ) ) ;
#103 = CARTESIAN_POINT ( 'NONE',  ( 0.000000000000000000, 0.000000000000000000, 0.000000000000000000 ) ) ;
#104 = ORIENTED_EDGE ( 'NONE', *, *, #514, .F. ) ;
#105 = CARTESIAN_POINT ( 'NONE',  ( -10.49999999999999112, 0.000000000000000000, 80.39999999999997726 ) ) ;
#106 = ORIENTED_EDGE ( 'NONE', *, *, #442, .F. ) ;
#107 = DIRECTION ( 'NONE',  ( 0.000000000000000000, 1.000000000000000000, 0.000000000000000000 ) ) ;
#108 = EDGE_LOOP ( 'NONE', ( #151, #116, #381, #239, #644, #59, #372, #463, #567 ) ) ;
#109 = ADVANCED_FACE ( 'NONE', ( #199 ), #238, .F. ) ;
#110 = CIRCLE ( 'NONE', #469, 1.600000000000002531 ) ;
#111 = VERTEX_POINT ( 'NONE', #41 ) ;
#112 = CARTESIAN_POINT ( 'NONE',  ( -13.00000000000000000, 0.000000000000000000, 11.39999999999999858 ) ) ;
#113 = EDGE_CURVE ( 'NONE', #93, #302, #131, .T. ) ;
#114 = EDGE_LOOP ( 'NONE', ( #45, #527 ) ) ;
#115 = CYLINDRICAL_SURFACE ( 'NONE', #486, 1.600000000000004086 ) ;
#116 = ORIENTED_EDGE ( 'NONE', *, *, #380, .F. ) ;
#117 = DIRECTION ( 'NONE',  ( -0.000000000000000000, -1.000000000000000000, -0.000000000000000000 ) ) ;
#118 = DIRECTION ( 'NONE',  ( 1.000000000000000000, 0.000000000000000000, -1.069350087930908658E-16 ) ) ;
#119 = VECTOR ( 'NONE', #288, 1000.000000000000000 ) ;
#120 = ORIENTED_EDGE ( 'NONE', *, *, #157, .F. ) ;
#121 = CARTESIAN_POINT ( 'NONE',  ( -13.00000000000000000, 0.000000000000000000, 13.00000000000000178 ) ) ;
#122 = CYLINDRICAL_SURFACE ( 'NONE', #334, 1.599999999999997202 ) ;
#123 = CARTESIAN_POINT ( 'NONE',  ( -5.000000000000000888, 4.000000000000000000, -8.000000000000000000 ) ) ;
#124 = CARTESIAN_POINT ( 'NONE',  ( -2.999999999999992006, 4.000000000000000000, 60.49999999999997868 ) ) ;
#125 = EDGE_CURVE ( 'NONE', #218, #576, #305, .T. ) ;
#126 = ORIENTED_EDGE ( 'NONE', *, *, #230, .F. ) ;
#127 = EDGE_CURVE ( 'NONE', #350, #90, #343, .T. ) ;
#128 = CARTESIAN_POINT ( 'NONE',  ( -19.00000000000000355, 4.000000000000000000, -8.000000000000000000 ) ) ;
#129 = EDGE_CURVE ( 'NONE', #420, #90, #491, .T. ) ;
#130 = ORIENTED_EDGE ( 'NONE', *, *, #508, .F. ) ;
#131 = CIRCLE ( 'NONE', #248, 1.600000000000002531 ) ;
#132 = PRESENTATION_LAYER_ASSIGNMENT (  '', '', ( #205 ) ) ;
#133 = EDGE_LOOP ( 'NONE', ( #411, #320, #636, #148 ) ) ;
#134 = CARTESIAN_POINT ( 'NONE',  ( -19.00000000000000355, 4.000000000000000000, -8.000000000000000000 ) ) ;
#135 = DIRECTION ( 'NONE',  ( 0.000000000000000000, 0.000000000000000000, 1.000000000000000000 ) ) ;
#136 = ORIENTED_EDGE ( 'NONE', *, *, #161, .T. ) ;
#137 = LINE ( 'NONE', #162, #214 ) ;
#138 = CARTESIAN_POINT ( 'NONE',  ( -10.49999999999999112, 4.000000000000000000, 93.59999999999998010 ) ) ;
#139 = AXIS2_PLACEMENT_3D ( 'NONE', #196, #594, #290 ) ;
#140 = AXIS2_PLACEMENT_3D ( 'NONE', #325, #622, #474 ) ;
#141 = CARTESIAN_POINT ( 'NONE',  ( -13.00000000000000000, 4.000000000000000000, 14.60000000000000320 ) ) ;
#142 = DIRECTION ( 'NONE',  ( 1.224646799147353207E-16, 0.000000000000000000, 1.000000000000000000 ) ) ;
#143 = ORIENTED_EDGE ( 'NONE', *, *, #98, .T. ) ;
#144 = EDGE_CURVE ( 'NONE', #392, #274, #110, .T. ) ;
#145 = DIRECTION ( 'NONE',  ( 9.251858538542973800E-16, -0.000000000000000000, 1.000000000000000000 ) ) ;
#146 = DIRECTION ( 'NONE',  ( -0.000000000000000000, 1.000000000000000000, -0.000000000000000000 ) ) ;
#147 = EDGE_CURVE ( 'NONE', #505, #203, #646, .T. ) ;
#148 = ORIENTED_EDGE ( 'NONE', *, *, #494, .T. ) ;
#149 = CARTESIAN_POINT ( 'NONE',  ( -13.00000000000000000, 0.000000000000000000, 38.60000000000000142 ) ) ;
#150 = DIRECTION ( 'NONE',  ( -0.4472135954999578722, 0.000000000000000000, 0.8944271909999158554 ) ) ;
#151 = ORIENTED_EDGE ( 'NONE', *, *, #212, .F. ) ;
#152 = VECTOR ( 'NONE', #219, 1000.000000000000000 ) ;
#153 = CARTESIAN_POINT ( 'NONE',  ( 0.000000000000000000, 0.000000000000000000, 0.000000000000000000 ) ) ;
#154 = ORIENTED_EDGE ( 'NONE', *, *, #157, .T. ) ;
#155 = LINE ( 'NONE', #606, #260 ) ;
#156 = VERTEX_POINT ( 'NONE', #340 ) ;
#157 = EDGE_CURVE ( 'NONE', #90, #455, #443, .T. ) ;
#158 = DIRECTION ( 'NONE',  ( 0.000000000000000000, -1.000000000000000000, 0.000000000000000000 ) ) ;
#159 = SHAPE_DEFINITION_REPRESENTATION ( #8, #565 ) ;
#160 = ORIENTED_EDGE ( 'NONE', *, *, #415, .T. ) ;
#161 = EDGE_CURVE ( 'NONE', #502, #111, #556, .T. ) ;
#162 = CARTESIAN_POINT ( 'NONE',  ( -2.999999999999992006, 0.000000000000000000, 60.49999999999997868 ) ) ;
#163 = CIRCLE ( 'NONE', #47, 1.599999999999997202 ) ;
#164 = VECTOR ( 'NONE', #321, 1000.000000000000000 ) ;
#165 = ORIENTED_EDGE ( 'NONE', *, *, #144, .T. ) ;
#166 = DIRECTION ( 'NONE',  ( -0.000000000000000000, 1.000000000000000000, -0.000000000000000000 ) ) ;
#167 = ORIENTED_EDGE ( 'NONE', *, *, #546, .T. ) ;
#168 = CARTESIAN_POINT ( 'NONE',  ( -13.00000000000000000, 4.000000000000000000, 38.60000000000000142 ) ) ;
#169 = VERTEX_POINT ( 'NONE', #96 ) ;
#170 = DIRECTION ( 'NONE',  ( -0.000000000000000000, 1.000000000000000000, -0.000000000000000000 ) ) ;
#171 = CARTESIAN_POINT ( 'NONE',  ( -13.00000000000000000, 4.000000000000000000, 13.00000000000000178 ) ) ;
#172 = AXIS2_PLACEMENT_3D ( 'NONE', #188, #387, #592 ) ;
#173 = CARTESIAN_POINT ( 'NONE',  ( -25.99999999999999289, 4.000000000000000000, 8.000000000000000000 ) ) ;
#174 = CIRCLE ( 'NONE', #57, 1.599999999999997202 ) ;
#175 = CARTESIAN_POINT ( 'NONE',  ( -25.99999999999999289, 4.000000000000000000, 38.00000000000000000 ) ) ;
#176 = CARTESIAN_POINT ( 'NONE',  ( -17.99999999999998934, 4.000000000000000000, 96.99999999999998579 ) ) ;
#177 = CYLINDRICAL_SURFACE ( 'NONE', #273, 1.600000000000002531 ) ;
#178 = EDGE_CURVE ( 'NONE', #420, #587, #390, .T. ) ;
#179 = ORIENTED_EDGE ( 'NONE', *, *, #241, .T. ) ;
#180 = ORIENTED_EDGE ( 'NONE', *, *, #380, .T. ) ;
#181 = VECTOR ( 'NONE', #102, 1000.000000000000000 ) ;
#182 = CIRCLE ( 'NONE', #557, 1.600000000000002531 ) ;
#183 = DIRECTION ( 'NONE',  ( 1.000000000000000000, 0.000000000000000000, 0.000000000000000000 ) ) ;
#184 = DIRECTION ( 'NONE',  ( 1.000000000000000000, 0.000000000000000000, -1.224646799147353207E-16 ) ) ;
#185 = DIRECTION ( 'NONE',  ( -0.000000000000000000, 1.000000000000000000, -0.000000000000000000 ) ) ;
#186 = ORIENTED_EDGE ( 'NONE', *, *, #287, .F. ) ;
#187 = DIRECTION ( 'NONE',  ( 0.000000000000000000, 0.000000000000000000, 1.000000000000000000 ) ) ;
#188 = CARTESIAN_POINT ( 'NONE',  ( -13.00000000000000000, 4.000000000000000000, 37.00000000000000711 ) ) ;
#189 = CARTESIAN_POINT ( 'NONE',  ( -13.00000000000000000, 0.000000000000000000, 38.60000000000000142 ) ) ;
#190 = EDGE_CURVE ( 'NONE', #370, #612, #629, .T. ) ;
#191 = VERTEX_POINT ( 'NONE', #138 ) ;
#192 = AXIS2_PLACEMENT_3D ( 'NONE', #266, #490, #187 ) ;
#193 = AXIS2_PLACEMENT_3D ( 'NONE', #535, #349, #434 ) ;
#194 = FACE_OUTER_BOUND ( 'NONE', #9, .T. ) ;
#195 = EDGE_CURVE ( 'NONE', #414, #360, #89, .T. ) ;
#196 = CARTESIAN_POINT ( 'NONE',  ( -10.49999999999999112, 0.000000000000000000, 91.99999999999997158 ) ) ;
#197 = VERTEX_POINT ( 'NONE', #394 ) ;
#198 = CARTESIAN_POINT ( 'NONE',  ( -2.999999999999988010, 4.000000000000000000, 96.99999999999997158 ) ) ;
#199 = FACE_OUTER_BOUND ( 'NONE', #358, .T. ) ;
#200 = APPLICATION_PROTOCOL_DEFINITION ( 'draft international standard', 'automotive_design', 1998, #224 ) ;
#201 = ORIENTED_EDGE ( 'NONE', *, *, #32, .T. ) ;
#202 = FACE_BOUND ( 'NONE', #114, .T. ) ;
#203 = VERTEX_POINT ( 'NONE', #92 ) ;
#204 = AXIS2_PLACEMENT_3D ( 'NONE', #176, #378, #231 ) ;
#205 = STYLED_ITEM ( 'NONE', ( #208 ), #279 ) ;
#206 = VECTOR ( 'NONE', #71, 1000.000000000000000 ) ;
#207 = ORIENTED_EDGE ( 'NONE', *, *, #95, .T. ) ;
#208 = PRESENTATION_STYLE_ASSIGNMENT (( #582 ) ) ;
#209 = ORIENTED_EDGE ( 'NONE', *, *, #647, .T. ) ;
#210 = FACE_OUTER_BOUND ( 'NONE', #33, .T. ) ;
#211 = ORIENTED_EDGE ( 'NONE', *, *, #337, .T. ) ;
#212 = EDGE_CURVE ( 'NONE', #3, #482, #298, .T. ) ;
#213 = FACE_BOUND ( 'NONE', #256, .T. ) ;
#214 = VECTOR ( 'NONE', #493, 1000.000000000000000 ) ;
#215 = ADVANCED_FACE ( 'NONE', ( #245 ), #447, .T. ) ;
#216 = ORIENTED_EDGE ( 'NONE', *, *, #230, .T. ) ;
#217 = CARTESIAN_POINT ( 'NONE',  ( 6.735964626525829613E-15, 4.000000000000000000, 54.49999999999997868 ) ) ;
#218 = VERTEX_POINT ( 'NONE', #105 ) ;
#219 = DIRECTION ( 'NONE',  ( 1.224646799147353207E-16, 0.000000000000000000, 1.000000000000000000 ) ) ;
#220 = FACE_OUTER_BOUND ( 'NONE', #324, .T. ) ;
#221 = ADVANCED_FACE ( 'NONE', ( #51 ), #122, .F. ) ;
#222 = EDGE_LOOP ( 'NONE', ( #511, #562 ) ) ;
#223 = CARTESIAN_POINT ( 'NONE',  ( -10.49999999999999112, 0.000000000000000000, 81.99999999999997158 ) ) ;
#224 = APPLICATION_CONTEXT ( 'automotive_design' ) ;
#225 = VECTOR ( 'NONE', #44, 1000.000000000000000 ) ;
#226 = AXIS2_PLACEMENT_3D ( 'NONE', #304, #645, #593 ) ;
#227 = ADVANCED_FACE ( 'NONE', ( #220 ), #615, .T. ) ;
#228 = PLANE ( 'NONE',  #204 ) ;
#229 = LINE ( 'NONE', #373, #164 ) ;
#230 = EDGE_CURVE ( 'NONE', #457, #350, #310, .T. ) ;
#231 = DIRECTION ( 'NONE',  ( 0.1343636729735781521, 0.000000000000000000, 0.9909320881801383374 ) ) ;
#232 = DIRECTION ( 'NONE',  ( -0.000000000000000000, 1.000000000000000000, -0.000000000000000000 ) ) ;
#233 = ORIENTED_EDGE ( 'NONE', *, *, #75, .F. ) ;
#234 = DIRECTION ( 'NONE',  ( -0.000000000000000000, -1.000000000000000000, -0.000000000000000000 ) ) ;
#235 = CLOSED_SHELL ( 'NONE', ( #401, #109, #429, #332, #404, #60, #351, #227, #215, #382, #453, #432, #329, #529, #246, #12, #572, #221, #449 ) ) ;
#236 = CARTESIAN_POINT ( 'NONE',  ( -19.00000000000000355, 4.000000000000000000, -8.000000000000000000 ) ) ;
#237 = DIRECTION ( 'NONE',  ( -0.000000000000000000, 1.000000000000000000, -0.000000000000000000 ) ) ;
#238 = CYLINDRICAL_SURFACE ( 'NONE', #446, 1.599999999999997202 ) ;
#239 = ORIENTED_EDGE ( 'NONE', *, *, #520, .F. ) ;
#240 = DIRECTION ( 'NONE',  ( -0.000000000000000000, 1.000000000000000000, -0.000000000000000000 ) ) ;
#241 = EDGE_CURVE ( 'NONE', #612, #191, #69, .T. ) ;
#242 = DIRECTION ( 'NONE',  ( 0.000000000000000000, 1.000000000000000000, 0.000000000000000000 ) ) ;
#243 = ORIENTED_EDGE ( 'NONE', *, *, #617, .T. ) ;
#244 = CARTESIAN_POINT ( 'NONE',  ( -2.999999999999988010, 4.000000000000000000, 96.99999999999997158 ) ) ;
#245 = FACE_OUTER_BOUND ( 'NONE', #440, .T. ) ;
#246 = ADVANCED_FACE ( 'NONE', ( #472, #202, #410, #323, #563 ), #523, .T. ) ;
#247 = ORIENTED_EDGE ( 'NONE', *, *, #75, .T. ) ;
#248 = AXIS2_PLACEMENT_3D ( 'NONE', #607, #242, #537 ) ;
#249 = FACE_OUTER_BOUND ( 'NONE', #518, .T. ) ;
#250 = DIRECTION ( 'NONE',  ( 0.5299989400031800413, 0.000000000000000000, 0.8479983040050880216 ) ) ;
#251 = APPLICATION_CONTEXT ( 'automotive_design' ) ;
#252 = VERTEX_POINT ( 'NONE', #56 ) ;
#253 = CARTESIAN_POINT ( 'NONE',  ( -10.49999999999999112, 0.000000000000000000, 83.59999999999998010 ) ) ;
#254 = DIRECTION ( 'NONE',  ( 0.000000000000000000, 0.000000000000000000, 1.000000000000000000 ) ) ;
#255 = EDGE_CURVE ( 'NONE', #156, #299, #163, .T. ) ;
#256 = EDGE_LOOP ( 'NONE', ( #422, #489 ) ) ;
#257 = FILL_AREA_STYLE ('',( #72 ) ) ;
#258 =( LENGTH_UNIT ( ) NAMED_UNIT ( * ) SI_UNIT ( .MILLI., .METRE. ) );
#259 = ORIENTED_EDGE ( 'NONE', *, *, #16, .T. ) ;
#260 = VECTOR ( 'NONE', #503, 1000.000000000000000 ) ;
#261 = DIRECTION ( 'NONE',  ( 0.000000000000000000, 1.000000000000000000, 0.000000000000000000 ) ) ;
#262 = DIRECTION ( 'NONE',  ( 0.000000000000000000, 0.000000000000000000, 1.000000000000000000 ) ) ;
#263 = ORIENTED_EDGE ( 'NONE', *, *, #264, .T. ) ;
#264 = EDGE_CURVE ( 'NONE', #302, #93, #182, .T. ) ;
#265 = ORIENTED_EDGE ( 'NONE', *, *, #619, .F. ) ;
#266 = CARTESIAN_POINT ( 'NONE',  ( -13.00000000000000000, 0.000000000000000000, 13.00000000000000178 ) ) ;
#267 = UNCERTAINTY_MEASURE_WITH_UNIT (LENGTH_MEASURE( 1.000000000000000082E-05 ), #361, 'distance_accuracy_value', 'NONE');
#268 = EDGE_CURVE ( 'NONE', #218, #309, #87, .T. ) ;
#269 = ORIENTED_EDGE ( 'NONE', *, *, #195, .T. ) ;
#270 = FACE_OUTER_BOUND ( 'NONE', #628, .T. ) ;
#271 = VECTOR ( 'NONE', #84, 1000.000000000000000 ) ;
#272 =( GEOMETRIC_REPRESENTATION_CONTEXT ( 3 ) GLOBAL_UNCERTAINTY_ASSIGNED_CONTEXT ( ( #267 ) ) GLOBAL_UNIT_ASSIGNED_CONTEXT ( ( #361, #458, #7 ) ) REPRESENTATION_CONTEXT ( 'NONE', 'WORKASPACE' ) );
#273 = AXIS2_PLACEMENT_3D ( 'NONE', #121, #632, #630 ) ;
#274 = VERTEX_POINT ( 'NONE', #526 ) ;
#275 = CARTESIAN_POINT ( 'NONE',  ( -5.000000000000000888, 0.000000000000000000, -8.000000000000000000 ) ) ;
#276 = DIRECTION ( 'NONE',  ( 0.000000000000000000, 0.000000000000000000, 1.000000000000000000 ) ) ;
#277 = CYLINDRICAL_SURFACE ( 'NONE', #322, 1.600000000000004086 ) ;
#278 = PLANE ( 'NONE',  #140 ) ;
#279 = MANIFOLD_SOLID_BREP ( 'Cut-Extrude1', #235 ) ;
#280 = DIRECTION ( 'NONE',  ( 0.000000000000000000, 0.000000000000000000, 1.000000000000000000 ) ) ;
#281 = DIRECTION ( 'NONE',  ( 0.000000000000000000, 0.000000000000000000, 1.000000000000000000 ) ) ;
#282 = VERTEX_POINT ( 'NONE', #46 ) ;
#283 = AXIS2_PLACEMENT_3D ( 'NONE', #103, #58, #354 ) ;
#284 = DIRECTION ( 'NONE',  ( 0.000000000000000000, 0.000000000000000000, 1.000000000000000000 ) ) ;
#285 = VERTEX_POINT ( 'NONE', #402 ) ;
#286 = CARTESIAN_POINT ( 'NONE',  ( -10.49999999999999112, 0.000000000000000000, 81.99999999999997158 ) ) ;
#287 = EDGE_CURVE ( 'NONE', #156, #111, #155, .T. ) ;
#288 = DIRECTION ( 'NONE',  ( -1.000000000000000000, 0.000000000000000000, 9.251858538542971828E-16 ) ) ;
#289 = CARTESIAN_POINT ( 'NONE',  ( -25.99999999999999289, 4.000000000000000000, 8.000000000000000000 ) ) ;
#290 = DIRECTION ( 'NONE',  ( 0.000000000000000000, 0.000000000000000000, 1.000000000000000000 ) ) ;
#291 = MECHANICAL_DESIGN_GEOMETRIC_PRESENTATION_REPRESENTATION (  '', ( #205 ), #272 ) ;
#292 = AXIS2_PLACEMENT_3D ( 'NONE', #483, #34, #284 ) ;
#293 = ORIENTED_EDGE ( 'NONE', *, *, #520, .T. ) ;
#294 = CARTESIAN_POINT ( 'NONE',  ( -17.99999999999998934, 4.000000000000000000, 96.99999999999998579 ) ) ;
#295 = DIRECTION ( 'NONE',  ( -0.4472135954999578722, 0.000000000000000000, 0.8944271909999158554 ) ) ;
#296 = ORIENTED_EDGE ( 'NONE', *, *, #129, .F. ) ;
#297 = CARTESIAN_POINT ( 'NONE',  ( -10.49999999999999112, 4.000000000000000000, 83.59999999999998010 ) ) ;
#298 = LINE ( 'NONE', #495, #225 ) ;
#299 = VERTEX_POINT ( 'NONE', #149 ) ;
#300 = DIRECTION ( 'NONE',  ( 1.000000000000000000, 0.000000000000000000, -9.251858538542973800E-16 ) ) ;
#301 = DIRECTION ( 'NONE',  ( 0.4008188340197071931, 0.000000000000000000, -0.9161573349021893131 ) ) ;
#302 = VERTEX_POINT ( 'NONE', #356 ) ;
#303 = CIRCLE ( 'NONE', #20, 1.600000000000004086 ) ;
#304 = CARTESIAN_POINT ( 'NONE',  ( -25.99999999999999289, 4.000000000000000000, 8.000000000000000000 ) ) ;
#305 = LINE ( 'NONE', #353, #333 ) ;
#306 =( NAMED_UNIT ( * ) PLANE_ANGLE_UNIT ( ) SI_UNIT ( $, .RADIAN. ) );
#307 = ORIENTED_EDGE ( 'NONE', *, *, #419, .F. ) ;
#308 = DIRECTION ( 'NONE',  ( 0.000000000000000000, 0.000000000000000000, -1.000000000000000000 ) ) ;
#309 = VERTEX_POINT ( 'NONE', #253 ) ;
#310 = LINE ( 'NONE', #506, #79 ) ;
#311 = ORIENTED_EDGE ( 'NONE', *, *, #558, .F. ) ;
#312 = VECTOR ( 'NONE', #50, 1000.000000000000000 ) ;
#313 = EDGE_CURVE ( 'NONE', #252, #360, #389, .T. ) ;
#314 = PRODUCT_DEFINITION_FORMATION_WITH_SPECIFIED_SOURCE ( 'Symmetric', '', #496, .NOT_KNOWN. ) ;
#315 = ORIENTED_EDGE ( 'NONE', *, *, #479, .F. ) ;
#316 = EDGE_CURVE ( 'NONE', #612, #370, #597, .T. ) ;
#317 = FACE_OUTER_BOUND ( 'NONE', #133, .T. ) ;
#318 = EDGE_LOOP ( 'NONE', ( #497, #433 ) ) ;
#319 = CARTESIAN_POINT ( 'NONE',  ( -25.99999999999999289, 0.000000000000000000, 38.00000000000000000 ) ) ;
#320 = ORIENTED_EDGE ( 'NONE', *, *, #635, .F. ) ;
#321 = DIRECTION ( 'NONE',  ( -0.000000000000000000, 1.000000000000000000, -0.000000000000000000 ) ) ;
#322 = AXIS2_PLACEMENT_3D ( 'NONE', #578, #384, #338 ) ;
#323 = FACE_BOUND ( 'NONE', #42, .T. ) ;
#324 = EDGE_LOOP ( 'NONE', ( #460, #596, #293, #22 ) ) ;
#325 = CARTESIAN_POINT ( 'NONE',  ( 0.000000000000000000, 4.000000000000000000, 0.000000000000000000 ) ) ;
#326 = DIRECTION ( 'NONE',  ( 0.000000000000000000, -0.000000000000000000, -1.000000000000000000 ) ) ;
#327 = DIRECTION ( 'NONE',  ( -0.000000000000000000, -1.000000000000000000, -0.000000000000000000 ) ) ;
#328 = DIRECTION ( 'NONE',  ( -0.000000000000000000, -1.000000000000000000, -0.000000000000000000 ) ) ;
#329 = ADVANCED_FACE ( 'NONE', ( #249 ), #393, .T. ) ;
#330 = ORIENTED_EDGE ( 'NONE', *, *, #178, .T. ) ;
#331 = DIRECTION ( 'NONE',  ( 0.000000000000000000, 1.000000000000000000, 0.000000000000000000 ) ) ;
#332 = ADVANCED_FACE ( 'NONE', ( #540 ), #352, .F. ) ;
#333 = VECTOR ( 'NONE', #146, 1000.000000000000000 ) ;
#334 = AXIS2_PLACEMENT_3D ( 'NONE', #509, #363, #254 ) ;
#335 = ORIENTED_EDGE ( 'NONE', *, *, #635, .T. ) ;
#336 = FACE_OUTER_BOUND ( 'NONE', #591, .T. ) ;
#337 = EDGE_CURVE ( 'NONE', #360, #614, #137, .T. ) ;
#338 = DIRECTION ( 'NONE',  ( 0.000000000000000000, 0.000000000000000000, 1.000000000000000000 ) ) ;
#339 = DIRECTION ( 'NONE',  ( 0.000000000000000000, 0.000000000000000000, 1.000000000000000000 ) ) ;
#340 = CARTESIAN_POINT ( 'NONE',  ( -13.00000000000000000, 0.000000000000000000, 35.40000000000000568 ) ) ;
#341 = LINE ( 'NONE', #600, #345 ) ;
#342 = ORIENTED_EDGE ( 'NONE', *, *, #494, .F. ) ;
#343 = LINE ( 'NONE', #357, #500 ) ;
#344 = CARTESIAN_POINT ( 'NONE',  ( -10.49999999999999112, 4.000000000000000000, 80.39999999999997726 ) ) ;
#345 = VECTOR ( 'NONE', #142, 1000.000000000000000 ) ;
#346 = ORIENTED_EDGE ( 'NONE', *, *, #508, .T. ) ;
#347 = DIRECTION ( 'NONE',  ( -1.000000000000000000, 0.000000000000000000, 0.000000000000000000 ) ) ;
#348 = DIRECTION ( 'NONE',  ( -0.000000000000000000, -1.000000000000000000, -0.000000000000000000 ) ) ;
#349 = DIRECTION ( 'NONE',  ( 0.000000000000000000, 1.000000000000000000, 0.000000000000000000 ) ) ;
#350 = VERTEX_POINT ( 'NONE', #551 ) ;
#351 = ADVANCED_FACE ( 'NONE', ( #210 ), #416, .T. ) ;
#352 = CYLINDRICAL_SURFACE ( 'NONE', #383, 1.600000000000004086 ) ;
#353 = CARTESIAN_POINT ( 'NONE',  ( -10.49999999999999112, 0.000000000000000000, 80.39999999999997726 ) ) ;
#354 = DIRECTION ( 'NONE',  ( 1.000000000000000000, 0.000000000000000000, 0.000000000000000000 ) ) ;
#355 = EDGE_LOOP ( 'NONE', ( #209, #165 ) ) ;
#356 = CARTESIAN_POINT ( 'NONE',  ( -13.00000000000000000, 4.000000000000000000, 11.39999999999999858 ) ) ;
#357 = CARTESIAN_POINT ( 'NONE',  ( -25.99999999999999289, 0.000000000000000000, 8.000000000000000000 ) ) ;
#358 = EDGE_LOOP ( 'NONE', ( #605, #573, #616, #27 ) ) ;
#359 = CARTESIAN_POINT ( 'NONE',  ( -2.999999999999992006, 4.000000000000000000, 60.49999999999997868 ) ) ;
#360 = VERTEX_POINT ( 'NONE', #88 ) ;
#361 =( LENGTH_UNIT ( ) NAMED_UNIT ( * ) SI_UNIT ( .MILLI., .METRE. ) );
#362 = ORIENTED_EDGE ( 'NONE', *, *, #316, .T. ) ;
#363 = DIRECTION ( 'NONE',  ( -0.000000000000000000, 1.000000000000000000, -0.000000000000000000 ) ) ;
#364 = EDGE_LOOP ( 'NONE', ( #186, #106, #444, #136 ) ) ;
#365 = PLANE ( 'NONE',  #395 ) ;
#366 = VECTOR ( 'NONE', #627, 1000.000000000000000 ) ;
#367 = PRODUCT_RELATED_PRODUCT_CATEGORY ( 'part', '', ( #496 ) ) ;
#368 = ORIENTED_EDGE ( 'NONE', *, *, #147, .T. ) ;
#369 = CARTESIAN_POINT ( 'NONE',  ( -13.00000000000000000, 0.000000000000000000, 37.00000000000000711 ) ) ;
#370 = VERTEX_POINT ( 'NONE', #452 ) ;
#371 = CARTESIAN_POINT ( 'NONE',  ( -2.999999999999988010, 4.000000000000000000, 96.99999999999997158 ) ) ;
#372 = ORIENTED_EDGE ( 'NONE', *, *, #98, .F. ) ;
#373 = CARTESIAN_POINT ( 'NONE',  ( -10.49999999999999112, 0.000000000000000000, 83.59999999999998010 ) ) ;
#374 = VECTOR ( 'NONE', #250, 999.9999999999998863 ) ;
#375 = SURFACE_STYLE_FILL_AREA ( #257 ) ;
#376 = DIRECTION ( 'NONE',  ( 0.4008188340197071931, 0.000000000000000000, -0.9161573349021893131 ) ) ;
#377 = LINE ( 'NONE', #584, #152 ) ;
#378 = DIRECTION ( 'NONE',  ( -0.9909320881801383374, 0.000000000000000000, 0.1343636729735781521 ) ) ;
#379 = DIRECTION ( 'NONE',  ( -0.5299989400031800413, 0.000000000000000000, -0.8479983040050880216 ) ) ;
#380 = EDGE_CURVE ( 'NONE', #203, #3, #43, .T. ) ;
#381 = ORIENTED_EDGE ( 'NONE', *, *, #147, .F. ) ;
#382 = ADVANCED_FACE ( 'NONE', ( #317 ), #365, .T. ) ;
#383 = AXIS2_PLACEMENT_3D ( 'NONE', #456, #240, #94 ) ;
#384 = DIRECTION ( 'NONE',  ( -0.000000000000000000, 1.000000000000000000, -0.000000000000000000 ) ) ;
#385 = AXIS2_PLACEMENT_3D ( 'NONE', #538, #488, #262 ) ;
#386 = DIRECTION ( 'NONE',  ( -0.000000000000000000, -1.000000000000000000, -0.000000000000000000 ) ) ;
#387 = DIRECTION ( 'NONE',  ( 0.000000000000000000, 1.000000000000000000, 0.000000000000000000 ) ) ;
#388 = DIRECTION ( 'NONE',  ( 0.000000000000000000, 1.000000000000000000, 0.000000000000000000 ) ) ;
#389 = LINE ( 'NONE', #642, #312 ) ;
#390 = LINE ( 'NONE', #134, #271 ) ;
#391 = PRODUCT_DEFINITION ( 'General', '', #314, #18 ) ;
#392 = VERTEX_POINT ( 'NONE', #112 ) ;
#393 = PLANE ( 'NONE',  #226 ) ;
#394 = CARTESIAN_POINT ( 'NONE',  ( -17.99999999999998934, 0.000000000000000000, 96.99999999999998579 ) ) ;
#395 = AXIS2_PLACEMENT_3D ( 'NONE', #441, #184, #499 ) ;
#396 = CARTESIAN_POINT ( 'NONE',  ( -5.000000000000000888, 4.000000000000000000, -8.000000000000000000 ) ) ;
#397 = VECTOR ( 'NONE', #328, 1000.000000000000000 ) ;
#398 = EDGE_LOOP ( 'NONE', ( #534, #554, #263, #430 ) ) ;
#399 = DIRECTION ( 'NONE',  ( 0.000000000000000000, 0.000000000000000000, 1.000000000000000000 ) ) ;
#400 = DIRECTION ( 'NONE',  ( 0.8944271909999159664, -0.000000000000000000, 0.4472135954999579832 ) ) ;
#401 = ADVANCED_FACE ( 'NONE', ( #516 ), #62, .F. ) ;
#402 = CARTESIAN_POINT ( 'NONE',  ( 6.735964626525829613E-15, 4.000000000000000000, 54.49999999999997868 ) ) ;
#403 = CARTESIAN_POINT ( 'NONE',  ( -13.00000000000000000, 0.000000000000000000, 37.00000000000000711 ) ) ;
#404 = ADVANCED_FACE ( 'NONE', ( #194 ), #39, .T. ) ;
#405 = ORIENTED_EDGE ( 'NONE', *, *, #647, .F. ) ;
#406 = CARTESIAN_POINT ( 'NONE',  ( -13.00000000000000000, 0.000000000000000000, 37.00000000000000711 ) ) ;
#407 = VERTEX_POINT ( 'NONE', #297 ) ;
#408 = AXIS2_PLACEMENT_3D ( 'NONE', #566, #107, #462 ) ;
#409 = AXIS2_PLACEMENT_3D ( 'NONE', #128, #522, #586 ) ;
#410 = FACE_BOUND ( 'NONE', #318, .T. ) ;
#411 = ORIENTED_EDGE ( 'NONE', *, *, #517, .F. ) ;
#412 = DIRECTION ( 'NONE',  ( 0.4472135954999579277, 0.000000000000000000, -0.8944271909999158554 ) ) ;
#413 =( NAMED_UNIT ( * ) SI_UNIT ( $, .STERADIAN. ) SOLID_ANGLE_UNIT ( ) );
#414 = VERTEX_POINT ( 'NONE', #445 ) ;
#415 = EDGE_CURVE ( 'NONE', #191, #282, #569, .T. ) ;
#416 = PLANE ( 'NONE',  #589 ) ;
#417 = EDGE_LOOP ( 'NONE', ( #507, #265 ) ) ;
#418 = FACE_OUTER_BOUND ( 'NONE', #108, .T. ) ;
#419 = EDGE_CURVE ( 'NONE', #505, #614, #603, .T. ) ;
#420 = VERTEX_POINT ( 'NONE', #626 ) ;
#421 = LINE ( 'NONE', #466, #533 ) ;
#422 = ORIENTED_EDGE ( 'NONE', *, *, #415, .F. ) ;
#423 = FACE_BOUND ( 'NONE', #417, .T. ) ;
#424 = CARTESIAN_POINT ( 'NONE',  ( -10.49999999999999112, 0.000000000000000000, 93.59999999999998010 ) ) ;
#425 = LINE ( 'NONE', #83, #609 ) ;
#426 = DIRECTION ( 'NONE',  ( 0.000000000000000000, 0.000000000000000000, 1.000000000000000000 ) ) ;
#427 = VECTOR ( 'NONE', #454, 1000.000000000000000 ) ;
#428 = VECTOR ( 'NONE', #28, 999.9999999999998863 ) ;
#429 = ADVANCED_FACE ( 'NONE', ( #431 ), #115, .F. ) ;
#430 = ORIENTED_EDGE ( 'NONE', *, *, #498, .F. ) ;
#431 = FACE_OUTER_BOUND ( 'NONE', #97, .T. ) ;
#432 = ADVANCED_FACE ( 'NONE', ( #270 ), #471, .T. ) ;
#433 = ORIENTED_EDGE ( 'NONE', *, *, #268, .T. ) ;
#434 = DIRECTION ( 'NONE',  ( 0.000000000000000000, 0.000000000000000000, 1.000000000000000000 ) ) ;
#435 = VERTEX_POINT ( 'NONE', #23 ) ;
#436 = DIRECTION ( 'NONE',  ( 0.000000000000000000, 1.000000000000000000, 0.000000000000000000 ) ) ;
#437 = CARTESIAN_POINT ( 'NONE',  ( -2.999999999999988010, 0.000000000000000000, 96.99999999999997158 ) ) ;
#438 = CARTESIAN_POINT ( 'NONE',  ( -17.99999999999998934, 0.000000000000000000, 96.99999999999998579 ) ) ;
#439 = CYLINDRICAL_SURFACE ( 'NONE', #581, 1.600000000000004086 ) ;
#440 = EDGE_LOOP ( 'NONE', ( #585, #342, #207, #66 ) ) ;
#441 = CARTESIAN_POINT ( 'NONE',  ( 6.163957117275659402E-17, 4.000000000000000000, 0.000000000000000000 ) ) ;
#442 = EDGE_CURVE ( 'NONE', #299, #156, #174, .T. ) ;
#443 = LINE ( 'NONE', #501, #459 ) ;
#444 = ORIENTED_EDGE ( 'NONE', *, *, #574, .T. ) ;
#445 = CARTESIAN_POINT ( 'NONE',  ( 6.735964626525829613E-15, 0.000000000000000000, 54.49999999999997868 ) ) ;
#446 = AXIS2_PLACEMENT_3D ( 'NONE', #403, #185, #641 ) ;
#447 = PLANE ( 'NONE',  #639 ) ;
#448 = AXIS2_PLACEMENT_3D ( 'NONE', #153, #158, #326 ) ;
#449 = ADVANCED_FACE ( 'NONE', ( #531 ), #177, .F. ) ;
#450 = AXIS2_PLACEMENT_3D ( 'NONE', #476, #64, #379 ) ;
#451 = ORIENTED_EDGE ( 'NONE', *, *, #81, .F. ) ;
#452 = CARTESIAN_POINT ( 'NONE',  ( -10.49999999999999112, 0.000000000000000000, 90.39999999999996305 ) ) ;
#453 = ADVANCED_FACE ( 'NONE', ( #575 ), #78, .T. ) ;
#454 = DIRECTION ( 'NONE',  ( -0.000000000000000000, 1.000000000000000000, -0.000000000000000000 ) ) ;
#455 = VERTEX_POINT ( 'NONE', #21 ) ;
#456 = CARTESIAN_POINT ( 'NONE',  ( -10.49999999999999112, 0.000000000000000000, 91.99999999999997158 ) ) ;
#457 = VERTEX_POINT ( 'NONE', #319 ) ;
#458 =( NAMED_UNIT ( * ) PLANE_ANGLE_UNIT ( ) SI_UNIT ( $, .RADIAN. ) );
#459 = VECTOR ( 'NONE', #183, 1000.000000000000000 ) ;
#460 = ORIENTED_EDGE ( 'NONE', *, *, #337, .F. ) ;
#461 = COLOUR_RGB ( '',0.7921568627450980005, 0.8196078431372548767, 0.9333333333333333481 ) ;
#462 = DIRECTION ( 'NONE',  ( 0.000000000000000000, 0.000000000000000000, 1.000000000000000000 ) ) ;
#463 = ORIENTED_EDGE ( 'NONE', *, *, #178, .F. ) ;
#464 = UNCERTAINTY_MEASURE_WITH_UNIT (LENGTH_MEASURE( 1.000000000000000082E-05 ), #258, 'distance_accuracy_value', 'NONE');
#465 = EDGE_LOOP ( 'NONE', ( #216, #568, #154, #601, #49, #269, #211, #259, #15 ) ) ;
#466 = CARTESIAN_POINT ( 'NONE',  ( -13.00000000000000000, 0.000000000000000000, 14.60000000000000320 ) ) ;
#467 = ORIENTED_EDGE ( 'NONE', *, *, #558, .T. ) ;
#468 = LINE ( 'NONE', #275, #428 ) ;
#469 = AXIS2_PLACEMENT_3D ( 'NONE', #504, #436, #543 ) ;
#470 = ORIENTED_EDGE ( 'NONE', *, *, #190, .T. ) ;
#471 = PLANE ( 'NONE',  #409 ) ;
#472 = FACE_BOUND ( 'NONE', #355, .T. ) ;
#473 = DIRECTION ( 'NONE',  ( 0.000000000000000000, 1.000000000000000000, 0.000000000000000000 ) ) ;
#474 = DIRECTION ( 'NONE',  ( 0.000000000000000000, -0.000000000000000000, -1.000000000000000000 ) ) ;
#475 = FACE_OUTER_BOUND ( 'NONE', #61, .T. ) ;
#476 = CARTESIAN_POINT ( 'NONE',  ( -5.000000000000000888, 4.000000000000000000, -8.000000000000000000 ) ) ;
#477 = AXIS2_PLACEMENT_3D ( 'NONE', #91, #347, #547 ) ;
#478 = VECTOR ( 'NONE', #237, 1000.000000000000000 ) ;
#479 = EDGE_CURVE ( 'NONE', #455, #435, #468, .T. ) ;
#480 = FACE_OUTER_BOUND ( 'NONE', #6, .T. ) ;
#481 = LINE ( 'NONE', #634, #513 ) ;
#482 = VERTEX_POINT ( 'NONE', #624 ) ;
#483 = CARTESIAN_POINT ( 'NONE',  ( -13.00000000000000000, 4.000000000000000000, 37.00000000000000711 ) ) ;
#484 = ORIENTED_EDGE ( 'NONE', *, *, #190, .F. ) ;
#485 = AXIS2_PLACEMENT_3D ( 'NONE', #70, #473, #280 ) ;
#486 = AXIS2_PLACEMENT_3D ( 'NONE', #223, #166, #74 ) ;
#487 = LINE ( 'NONE', #438, #579 ) ;
#488 = DIRECTION ( 'NONE',  ( 0.000000000000000000, 1.000000000000000000, 0.000000000000000000 ) ) ;
#489 = ORIENTED_EDGE ( 'NONE', *, *, #546, .F. ) ;
#490 = DIRECTION ( 'NONE',  ( -0.000000000000000000, 1.000000000000000000, -0.000000000000000000 ) ) ;
#491 = LINE ( 'NONE', #236, #99 ) ;
#492 = ORIENTED_EDGE ( 'NONE', *, *, #29, .F. ) ;
#493 = DIRECTION ( 'NONE',  ( 1.069350087930908658E-16, 0.000000000000000000, 1.000000000000000000 ) ) ;
#494 = EDGE_CURVE ( 'NONE', #285, #414, #519, .T. ) ;
#495 = CARTESIAN_POINT ( 'NONE',  ( -25.99999999999999289, 4.000000000000000000, 38.00000000000000000 ) ) ;
#496 = PRODUCT ( 'Gripper Hand Left_Gripper Hand Left', 'Gripper Hand Left_Gripper Hand Left', '', ( #560 ) ) ;
#497 = ORIENTED_EDGE ( 'NONE', *, *, #29, .T. ) ;
#498 = EDGE_CURVE ( 'NONE', #274, #93, #421, .T. ) ;
#499 = DIRECTION ( 'NONE',  ( -1.224646799147353207E-16, 0.000000000000000000, -1.000000000000000000 ) ) ;
#500 = VECTOR ( 'NONE', #301, 1000.000000000000227 ) ;
#501 = CARTESIAN_POINT ( 'NONE',  ( -19.00000000000000355, 0.000000000000000000, -8.000000000000000000 ) ) ;
#502 = VERTEX_POINT ( 'NONE', #168 ) ;
#503 = DIRECTION ( 'NONE',  ( -0.000000000000000000, 1.000000000000000000, -0.000000000000000000 ) ) ;
#504 = CARTESIAN_POINT ( 'NONE',  ( -13.00000000000000000, 0.000000000000000000, 13.00000000000000178 ) ) ;
#505 = VERTEX_POINT ( 'NONE', #371 ) ;
#506 = CARTESIAN_POINT ( 'NONE',  ( -25.99999999999999289, 0.000000000000000000, 38.00000000000000000 ) ) ;
#507 = ORIENTED_EDGE ( 'NONE', *, *, #161, .F. ) ;
#508 = EDGE_CURVE ( 'NONE', #3, #457, #577, .T. ) ;
#509 = CARTESIAN_POINT ( 'NONE',  ( -13.00000000000000000, 0.000000000000000000, 37.00000000000000711 ) ) ;
#510 = VECTOR ( 'NONE', #295, 1000.000000000000227 ) ;
#511 = ORIENTED_EDGE ( 'NONE', *, *, #113, .F. ) ;
#512 = AXIS2_PLACEMENT_3D ( 'NONE', #571, #555, #100 ) ;
#513 = VECTOR ( 'NONE', #234, 1000.000000000000000 ) ;
#514 = EDGE_CURVE ( 'NONE', #309, #407, #229, .T. ) ;
#515 = ORIENTED_EDGE ( 'NONE', *, *, #129, .T. ) ;
#516 = FACE_OUTER_BOUND ( 'NONE', #398, .T. ) ;
#517 = EDGE_CURVE ( 'NONE', #435, #414, #377, .T. ) ;
#518 = EDGE_LOOP ( 'NONE', ( #524, #311, #201, #515 ) ) ;
#519 = LINE ( 'NONE', #217, #206 ) ;
#520 = EDGE_CURVE ( 'NONE', #252, #505, #68, .T. ) ;
#521 = ORIENTED_EDGE ( 'NONE', *, *, #617, .F. ) ;
#522 = DIRECTION ( 'NONE',  ( 0.000000000000000000, 0.000000000000000000, -1.000000000000000000 ) ) ;
#523 = PLANE ( 'NONE',  #448 ) ;
#524 = ORIENTED_EDGE ( 'NONE', *, *, #127, .F. ) ;
#525 = CARTESIAN_POINT ( 'NONE',  ( -10.49999999999999112, 4.000000000000000000, 91.99999999999997158 ) ) ;
#526 = CARTESIAN_POINT ( 'NONE',  ( -13.00000000000000000, 0.000000000000000000, 14.60000000000000320 ) ) ;
#527 = ORIENTED_EDGE ( 'NONE', *, *, #255, .T. ) ;
#528 = FACE_BOUND ( 'NONE', #222, .T. ) ;
#529 = ADVANCED_FACE ( 'NONE', ( #528, #423, #580, #213, #418 ), #278, .F. ) ;
#530 = ORIENTED_EDGE ( 'NONE', *, *, #549, .F. ) ;
#531 = FACE_OUTER_BOUND ( 'NONE', #536, .T. ) ;
#532 = VECTOR ( 'NONE', #327, 1000.000000000000000 ) ;
#533 = VECTOR ( 'NONE', #170, 1000.000000000000000 ) ;
#534 = ORIENTED_EDGE ( 'NONE', *, *, #144, .F. ) ;
#535 = CARTESIAN_POINT ( 'NONE',  ( -10.49999999999999112, 4.000000000000000000, 81.99999999999997158 ) ) ;
#536 = EDGE_LOOP ( 'NONE', ( #530, #405, #54, #550 ) ) ;
#537 = DIRECTION ( 'NONE',  ( 0.000000000000000000, 0.000000000000000000, 1.000000000000000000 ) ) ;
#538 = CARTESIAN_POINT ( 'NONE',  ( -13.00000000000000000, 0.000000000000000000, 13.00000000000000178 ) ) ;
#539 = EDGE_LOOP ( 'NONE', ( #13, #521 ) ) ;
#540 = FACE_OUTER_BOUND ( 'NONE', #38, .T. ) ;
#541 = AXIS2_PLACEMENT_3D ( 'NONE', #359, #118, #610 ) ;
#542 = CIRCLE ( 'NONE', #590, 1.600000000000004086 ) ;
#543 = DIRECTION ( 'NONE',  ( 0.000000000000000000, 0.000000000000000000, 1.000000000000000000 ) ) ;
#544 = LINE ( 'NONE', #289, #561 ) ;
#545 = ORIENTED_EDGE ( 'NONE', *, *, #241, .F. ) ;
#546 = EDGE_CURVE ( 'NONE', #282, #191, #542, .T. ) ;
#547 = DIRECTION ( 'NONE',  ( 0.000000000000000000, 0.000000000000000000, 1.000000000000000000 ) ) ;
#548 = CARTESIAN_POINT ( 'NONE',  ( 6.735964626525829613E-15, 0.000000000000000000, 54.49999999999997868 ) ) ;
#549 = EDGE_CURVE ( 'NONE', #392, #302, #37, .T. ) ;
#550 = ORIENTED_EDGE ( 'NONE', *, *, #113, .T. ) ;
#551 = CARTESIAN_POINT ( 'NONE',  ( -25.99999999999999289, 0.000000000000000000, 8.000000000000000000 ) ) ;
#552 = LINE ( 'NONE', #5, #10 ) ;
#553 = APPLICATION_PROTOCOL_DEFINITION ( 'draft international standard', 'automotive_design', 1998, #251 ) ;
#554 = ORIENTED_EDGE ( 'NONE', *, *, #549, .T. ) ;
#555 = DIRECTION ( 'NONE',  ( 0.000000000000000000, 1.000000000000000000, 0.000000000000000000 ) ) ;
#556 = CIRCLE ( 'NONE', #172, 1.599999999999997202 ) ;
#557 = AXIS2_PLACEMENT_3D ( 'NONE', #171, #261, #53 ) ;
#558 = EDGE_CURVE ( 'NONE', #482, #350, #544, .T. ) ;
#559 = CARTESIAN_POINT ( 'NONE',  ( -5.000000000000000888, 4.000000000000000000, -8.000000000000000000 ) ) ;
#560 = PRODUCT_CONTEXT ( 'NONE', #224, 'mechanical' ) ;
#561 = VECTOR ( 'NONE', #386, 1000.000000000000000 ) ;
#562 = ORIENTED_EDGE ( 'NONE', *, *, #264, .F. ) ;
#563 = FACE_OUTER_BOUND ( 'NONE', #465, .T. ) ;
#564 = ORIENTED_EDGE ( 'NONE', *, *, #125, .F. ) ;
#565 = ADVANCED_BREP_SHAPE_REPRESENTATION ( 'Gripper Hand Left_Gripper Hand Left', ( #279, #283 ), #80 ) ;
#566 = CARTESIAN_POINT ( 'NONE',  ( -10.49999999999999112, 0.000000000000000000, 81.99999999999997158 ) ) ;
#567 = ORIENTED_EDGE ( 'NONE', *, *, #32, .F. ) ;
#568 = ORIENTED_EDGE ( 'NONE', *, *, #127, .T. ) ;
#569 = CIRCLE ( 'NONE', #65, 1.600000000000004086 ) ;
#570 = CIRCLE ( 'NONE', #385, 1.600000000000002531 ) ;
#571 = CARTESIAN_POINT ( 'NONE',  ( -10.49999999999999112, 0.000000000000000000, 91.99999999999997158 ) ) ;
#572 = ADVANCED_FACE ( 'NONE', ( #336 ), #439, .F. ) ;
#573 = ORIENTED_EDGE ( 'NONE', *, *, #287, .T. ) ;
#574 = EDGE_CURVE ( 'NONE', #299, #502, #588, .T. ) ;
#575 = FACE_OUTER_BOUND ( 'NONE', #76, .T. ) ;
#576 = VERTEX_POINT ( 'NONE', #344 ) ;
#577 = LINE ( 'NONE', #175, #67 ) ;
#578 = CARTESIAN_POINT ( 'NONE',  ( -10.49999999999999112, 0.000000000000000000, 91.99999999999997158 ) ) ;
#579 = VECTOR ( 'NONE', #604, 1000.000000000000114 ) ;
#580 = FACE_BOUND ( 'NONE', #539, .T. ) ;
#581 = AXIS2_PLACEMENT_3D ( 'NONE', #286, #232, #339 ) ;
#582 = SURFACE_STYLE_USAGE ( .BOTH. , #613 ) ;
#583 = LINE ( 'NONE', #123, #532 ) ;
#584 = CARTESIAN_POINT ( 'NONE',  ( 6.163957117275659402E-17, 0.000000000000000000, 0.000000000000000000 ) ) ;
#585 = ORIENTED_EDGE ( 'NONE', *, *, #195, .F. ) ;
#586 = DIRECTION ( 'NONE',  ( -1.000000000000000000, 0.000000000000000000, -0.000000000000000000 ) ) ;
#587 = VERTEX_POINT ( 'NONE', #396 ) ;
#588 = LINE ( 'NONE', #189, #478 ) ;
#589 = AXIS2_PLACEMENT_3D ( 'NONE', #244, #145, #300 ) ;
#590 = AXIS2_PLACEMENT_3D ( 'NONE', #525, #26, #426 ) ;
#591 = EDGE_LOOP ( 'NONE', ( #564, #492, #25, #620 ) ) ;
#592 = DIRECTION ( 'NONE',  ( 0.000000000000000000, 0.000000000000000000, 1.000000000000000000 ) ) ;
#593 = DIRECTION ( 'NONE',  ( -0.4008188340197071931, 0.000000000000000000, 0.9161573349021893131 ) ) ;
#594 = DIRECTION ( 'NONE',  ( 0.000000000000000000, 1.000000000000000000, 0.000000000000000000 ) ) ;
#595 = CARTESIAN_POINT ( 'NONE',  ( -13.00000000000000000, 0.000000000000000000, 11.39999999999999858 ) ) ;
#596 = ORIENTED_EDGE ( 'NONE', *, *, #313, .F. ) ;
#597 = CIRCLE ( 'NONE', #512, 1.600000000000004086 ) ;
#598 = VECTOR ( 'NONE', #31, 1000.000000000000000 ) ;
#599 = CARTESIAN_POINT ( 'NONE',  ( -10.49999999999999112, 0.000000000000000000, 90.39999999999996305 ) ) ;
#600 = CARTESIAN_POINT ( 'NONE',  ( 6.163957117275659402E-17, 4.000000000000000000, 0.000000000000000000 ) ) ;
#601 = ORIENTED_EDGE ( 'NONE', *, *, #479, .T. ) ;
#602 = EDGE_CURVE ( 'NONE', #169, #285, #341, .T. ) ;
#603 = LINE ( 'NONE', #198, #397 ) ;
#604 = DIRECTION ( 'NONE',  ( -0.1343636729735781521, 0.000000000000000000, -0.9909320881801382264 ) ) ;
#605 = ORIENTED_EDGE ( 'NONE', *, *, #255, .F. ) ;
#606 = CARTESIAN_POINT ( 'NONE',  ( -13.00000000000000000, 0.000000000000000000, 35.40000000000000568 ) ) ;
#607 = CARTESIAN_POINT ( 'NONE',  ( -13.00000000000000000, 4.000000000000000000, 13.00000000000000178 ) ) ;
#608 = ORIENTED_EDGE ( 'NONE', *, *, #40, .F. ) ;
#609 = VECTOR ( 'NONE', #30, 1000.000000000000000 ) ;
#610 = DIRECTION ( 'NONE',  ( -1.069350087930908658E-16, 0.000000000000000000, -1.000000000000000000 ) ) ;
#611 = VECTOR ( 'NONE', #17, 1000.000000000000000 ) ;
#612 = VERTEX_POINT ( 'NONE', #638 ) ;
#613 = SURFACE_SIDE_STYLE ('',( #375 ) ) ;
#614 = VERTEX_POINT ( 'NONE', #437 ) ;
#615 = PLANE ( 'NONE',  #541 ) ;
#616 = ORIENTED_EDGE ( 'NONE', *, *, #619, .T. ) ;
#617 = EDGE_CURVE ( 'NONE', #576, #407, #621, .T. ) ;
#618 = DIRECTION ( 'NONE',  ( -0.1343636729735781521, 0.000000000000000000, -0.9909320881801382264 ) ) ;
#619 = EDGE_CURVE ( 'NONE', #111, #502, #101, .T. ) ;
#620 = ORIENTED_EDGE ( 'NONE', *, *, #637, .T. ) ;
#621 = CIRCLE ( 'NONE', #193, 1.600000000000004086 ) ;
#622 = DIRECTION ( 'NONE',  ( 0.000000000000000000, -1.000000000000000000, 0.000000000000000000 ) ) ;
#623 = ORIENTED_EDGE ( 'NONE', *, *, #16, .F. ) ;
#624 = CARTESIAN_POINT ( 'NONE',  ( -25.99999999999999289, 4.000000000000000000, 8.000000000000000000 ) ) ;
#625 = CARTESIAN_POINT ( 'NONE',  ( -2.999999999999988010, 0.000000000000000000, 96.99999999999997158 ) ) ;
#626 = CARTESIAN_POINT ( 'NONE',  ( -19.00000000000000355, 4.000000000000000000, -8.000000000000000000 ) ) ;
#627 = DIRECTION ( 'NONE',  ( -0.000000000000000000, 1.000000000000000000, -0.000000000000000000 ) ) ;
#628 = EDGE_LOOP ( 'NONE', ( #120, #296, #330, #11 ) ) ;
#629 = CIRCLE ( 'NONE', #139, 1.600000000000004086 ) ;
#630 = DIRECTION ( 'NONE',  ( 0.000000000000000000, 0.000000000000000000, 1.000000000000000000 ) ) ;
#631 = ORIENTED_EDGE ( 'NONE', *, *, #316, .F. ) ;
#632 = DIRECTION ( 'NONE',  ( -0.000000000000000000, 1.000000000000000000, -0.000000000000000000 ) ) ;
#633 = LINE ( 'NONE', #599, #427 ) ;
#634 = CARTESIAN_POINT ( 'NONE',  ( 6.163957117275659402E-17, 4.000000000000000000, 0.000000000000000000 ) ) ;
#635 = EDGE_CURVE ( 'NONE', #169, #435, #481, .T. ) ;
#636 = ORIENTED_EDGE ( 'NONE', *, *, #602, .T. ) ;
#637 = EDGE_CURVE ( 'NONE', #407, #576, #303, .T. ) ;
#638 = CARTESIAN_POINT ( 'NONE',  ( -10.49999999999999112, 0.000000000000000000, 93.59999999999998010 ) ) ;
#639 = AXIS2_PLACEMENT_3D ( 'NONE', #2, #400, #412 ) ;
#640 = VECTOR ( 'NONE', #618, 1000.000000000000114 ) ;
#641 = DIRECTION ( 'NONE',  ( 0.000000000000000000, 0.000000000000000000, 1.000000000000000000 ) ) ;
#642 = CARTESIAN_POINT ( 'NONE',  ( -2.999999999999992006, 4.000000000000000000, 60.49999999999997868 ) ) ;
#643 = LINE ( 'NONE', #559, #374 ) ;
#644 = ORIENTED_EDGE ( 'NONE', *, *, #95, .F. ) ;
#645 = DIRECTION ( 'NONE',  ( -0.9161573349021894241, 0.000000000000000000, -0.4008188340197072486 ) ) ;
#646 = LINE ( 'NONE', #36, #181 ) ;
#647 = EDGE_CURVE ( 'NONE', #274, #392, #570, .T. ) ;
#648 = ORIENTED_EDGE ( 'NONE', *, *, #14, .T. ) ;
ENDSEC;
END-ISO-10303-21;
