ISO-10303-21;
HEADER;
FILE_DESCRIPTION (( 'STEP AP214' ),
    '1' );
FILE_NAME ('Gripper rail 6mm.STEP',
    '2026-08-27T22:10:01',
    ( '' ),
    ( '' ),
    'SwSTEP 2.0',
    'SolidWorks 2026',
    '' );
FILE_SCHEMA (( 'AUTOMOTIVE_DESIGN' ));
ENDSEC;

DATA;
#1 = VECTOR ( 'NONE', #103, 1000.000000000000000 ) ;
#2 = ORIENTED_EDGE ( 'NONE', *, *, #100, .F. ) ;
#3 = DIRECTION ( 'NONE',  ( 0.000000000000000000, 1.000000000000000000, 0.000000000000000000 ) ) ;
#4 = CARTESIAN_POINT ( 'NONE',  ( 3.673940397442060361E-16, 0.000000000000000000, 3.000000000000000444 ) ) ;
#5 = DIRECTION ( 'NONE',  ( -0.000000000000000000, -1.000000000000000000, -0.000000000000000000 ) ) ;
#6 = DIRECTION ( 'NONE',  ( 0.000000000000000000, -0.000000000000000000, 1.000000000000000000 ) ) ;
#7 = PLANE ( 'NONE',  #116 ) ;
#8 = AXIS2_PLACEMENT_3D ( 'NONE', #65, #102, #53 ) ;
#9 = ORIENTED_EDGE ( 'NONE', *, *, #66, .T. ) ;
#10 = COLOUR_RGB ( '',0.7921568627450980005, 0.8196078431372548767, 0.9333333333333333481 ) ;
#11 = PRODUCT_DEFINITION_CONTEXT ( 'detailed design', #18, 'design' ) ;
#12 = VERTEX_POINT ( 'NONE', #110 ) ;
#13 = DIRECTION ( 'NONE',  ( 0.000000000000000000, 0.000000000000000000, 1.000000000000000000 ) ) ;
#14 = CARTESIAN_POINT ( 'NONE',  ( 0.000000000000000000, 125.0000000000000000, 0.000000000000000000 ) ) ;
#15 = DIRECTION ( 'NONE',  ( 0.000000000000000000, 1.000000000000000000, 0.000000000000000000 ) ) ;
#16 = FACE_OUTER_BOUND ( 'NONE', #58, .T. ) ;
#17 = FACE_OUTER_BOUND ( 'NONE', #32, .T. ) ;
#18 = APPLICATION_CONTEXT ( 'automotive_design' ) ;
#19 = AXIS2_PLACEMENT_3D ( 'NONE', #36, #112, #107 ) ;
#20 = LINE ( 'NONE', #111, #1 ) ;
#21 = CIRCLE ( 'NONE', #119, 3.000000000000000444 ) ;
#22 = EDGE_CURVE ( 'NONE', #76, #67, #20, .T. ) ;
#23 = VERTEX_POINT ( 'NONE', #4 ) ;
#24 = AXIS2_PLACEMENT_3D ( 'NONE', #54, #57, #125 ) ;
#25 = ORIENTED_EDGE ( 'NONE', *, *, #118, .F. ) ;
#26 =( NAMED_UNIT ( * ) PLANE_ANGLE_UNIT ( ) SI_UNIT ( $, .RADIAN. ) );
#27 = DIRECTION ( 'NONE',  ( 0.000000000000000000, 0.000000000000000000, -1.000000000000000000 ) ) ;
#28 = DIRECTION ( 'NONE',  ( 0.000000000000000000, 1.000000000000000000, 0.000000000000000000 ) ) ;
#29 = AXIS2_PLACEMENT_3D ( 'NONE', #70, #28, #63 ) ;
#30 = ORIENTED_EDGE ( 'NONE', *, *, #31, .F. ) ;
#31 = EDGE_CURVE ( 'NONE', #12, #76, #97, .T. ) ;
#32 = EDGE_LOOP ( 'NONE', ( #30, #9, #41, #91 ) ) ;
#33 =( NAMED_UNIT ( * ) SI_UNIT ( $, .STERADIAN. ) SOLID_ANGLE_UNIT ( ) );
#34 = FILL_AREA_STYLE ('',( #61 ) ) ;
#35 = CYLINDRICAL_SURFACE ( 'NONE', #19, 3.000000000000000444 ) ;
#36 = CARTESIAN_POINT ( 'NONE',  ( 0.000000000000000000, 125.0000000000000000, 0.000000000000000000 ) ) ;
#37 = PRODUCT_DEFINITION ( 'General', '', #123, #11 ) ;
#38 = AXIS2_PLACEMENT_3D ( 'NONE', #106, #44, #27 ) ;
#39 = UNCERTAINTY_MEASURE_WITH_UNIT (LENGTH_MEASURE( 1.000000000000000082E-05 ), #83, 'distance_accuracy_value', 'NONE');
#40 = ORIENTED_EDGE ( 'NONE', *, *, #118, .T. ) ;
#41 = ORIENTED_EDGE ( 'NONE', *, *, #50, .T. ) ;
#42 = CARTESIAN_POINT ( 'NONE',  ( 0.000000000000000000, 125.0000000000000000, 0.000000000000000000 ) ) ;
#43 = CARTESIAN_POINT ( 'NONE',  ( 3.673940397442060361E-16, 125.0000000000000000, 3.000000000000000444 ) ) ;
#44 = DIRECTION ( 'NONE',  ( -0.000000000000000000, -1.000000000000000000, -0.000000000000000000 ) ) ;
#45 = DIRECTION ( 'NONE',  ( 0.000000000000000000, -0.000000000000000000, 1.000000000000000000 ) ) ;
#46 = MECHANICAL_DESIGN_GEOMETRIC_PRESENTATION_REPRESENTATION (  '', ( #89 ), #81 ) ;
#47 = CARTESIAN_POINT ( 'NONE',  ( 0.000000000000000000, 0.000000000000000000, 0.000000000000000000 ) ) ;
#48 = VECTOR ( 'NONE', #5, 1000.000000000000000 ) ;
#49 = APPLICATION_PROTOCOL_DEFINITION ( 'draft international standard', 'automotive_design', 1998, #18 ) ;
#50 = EDGE_CURVE ( 'NONE', #23, #67, #21, .T. ) ;
#51 = UNCERTAINTY_MEASURE_WITH_UNIT (LENGTH_MEASURE( 1.000000000000000082E-05 ), #69, 'distance_accuracy_value', 'NONE');
#52 = SURFACE_STYLE_USAGE ( .BOTH. , #71 ) ;
#53 = DIRECTION ( 'NONE',  ( 0.000000000000000000, 0.000000000000000000, 1.000000000000000000 ) ) ;
#54 = CARTESIAN_POINT ( 'NONE',  ( 0.000000000000000000, 0.000000000000000000, 0.000000000000000000 ) ) ;
#55 = CARTESIAN_POINT ( 'NONE',  ( 0.000000000000000000, 125.0000000000000000, -3.000000000000000444 ) ) ;
#56 = ADVANCED_BREP_SHAPE_REPRESENTATION ( 'Gripper rail 6mm_Gripper rail 6mm', ( #93, #24 ), #92 ) ;
#57 = DIRECTION ( 'NONE',  ( 0.000000000000000000, 0.000000000000000000, 1.000000000000000000 ) ) ;
#58 = EDGE_LOOP ( 'NONE', ( #25, #79 ) ) ;
#59 = FACE_OUTER_BOUND ( 'NONE', #77, .T. ) ;
#60 = ADVANCED_FACE ( 'NONE', ( #17 ), #35, .T. ) ;
#61 = FILL_AREA_STYLE_COLOUR ( '', #10 ) ;
#62 = AXIS2_PLACEMENT_3D ( 'NONE', #42, #82, #45 ) ;
#63 = DIRECTION ( 'NONE',  ( 0.000000000000000000, 0.000000000000000000, 1.000000000000000000 ) ) ;
#64 = PRODUCT_RELATED_PRODUCT_CATEGORY ( 'part', '', ( #72 ) ) ;
#65 = CARTESIAN_POINT ( 'NONE',  ( 0.000000000000000000, 125.0000000000000000, 0.000000000000000000 ) ) ;
#66 = EDGE_CURVE ( 'NONE', #12, #23, #95, .T. ) ;
#67 = VERTEX_POINT ( 'NONE', #96 ) ;
#68 = ORIENTED_EDGE ( 'NONE', *, *, #31, .T. ) ;
#69 =( LENGTH_UNIT ( ) NAMED_UNIT ( * ) SI_UNIT ( .MILLI., .METRE. ) );
#70 = CARTESIAN_POINT ( 'NONE',  ( 0.000000000000000000, 0.000000000000000000, 0.000000000000000000 ) ) ;
#71 = SURFACE_SIDE_STYLE ('',( #104 ) ) ;
#72 = PRODUCT ( 'Gripper rail 6mm_Gripper rail 6mm', 'Gripper rail 6mm_Gripper rail 6mm', '', ( #75 ) ) ;
#73 = AXIS2_PLACEMENT_3D ( 'NONE', #14, #3, #120 ) ;
#74 = DIRECTION ( 'NONE',  ( 0.000000000000000000, 1.000000000000000000, 0.000000000000000000 ) ) ;
#75 = PRODUCT_CONTEXT ( 'NONE', #80, 'mechanical' ) ;
#76 = VERTEX_POINT ( 'NONE', #55 ) ;
#77 = EDGE_LOOP ( 'NONE', ( #117, #2, #99, #40 ) ) ;
#78 = ADVANCED_FACE ( 'NONE', ( #16 ), #7, .F. ) ;
#79 = ORIENTED_EDGE ( 'NONE', *, *, #50, .F. ) ;
#80 = APPLICATION_CONTEXT ( 'automotive_design' ) ;
#81 =( GEOMETRIC_REPRESENTATION_CONTEXT ( 3 ) GLOBAL_UNCERTAINTY_ASSIGNED_CONTEXT ( ( #39 ) ) GLOBAL_UNIT_ASSIGNED_CONTEXT ( ( #83, #122, #33 ) ) REPRESENTATION_CONTEXT ( 'NONE', 'WORKASPACE' ) );
#82 = DIRECTION ( 'NONE',  ( 0.000000000000000000, 1.000000000000000000, 0.000000000000000000 ) ) ;
#83 =( LENGTH_UNIT ( ) NAMED_UNIT ( * ) SI_UNIT ( .MILLI., .METRE. ) );
#84 = PRODUCT_DEFINITION_SHAPE ( 'NONE', 'NONE',  #37 ) ;
#85 = PLANE ( 'NONE',  #62 ) ;
#86 = ADVANCED_FACE ( 'NONE', ( #59 ), #121, .T. ) ;
#87 = CIRCLE ( 'NONE', #8, 3.000000000000000444 ) ;
#88 = ADVANCED_FACE ( 'NONE', ( #113 ), #85, .T. ) ;
#89 = STYLED_ITEM ( 'NONE', ( #114 ), #93 ) ;
#90 = EDGE_LOOP ( 'NONE', ( #101, #68 ) ) ;
#91 = ORIENTED_EDGE ( 'NONE', *, *, #22, .F. ) ;
#92 =( GEOMETRIC_REPRESENTATION_CONTEXT ( 3 ) GLOBAL_UNCERTAINTY_ASSIGNED_CONTEXT ( ( #51 ) ) GLOBAL_UNIT_ASSIGNED_CONTEXT ( ( #69, #26, #115 ) ) REPRESENTATION_CONTEXT ( 'NONE', 'WORKASPACE' ) );
#93 = MANIFOLD_SOLID_BREP ( 'Boss-Extrude1', #105 ) ;
#94 = CARTESIAN_POINT ( 'NONE',  ( 0.000000000000000000, 0.000000000000000000, 0.000000000000000000 ) ) ;
#95 = LINE ( 'NONE', #43, #48 ) ;
#96 = CARTESIAN_POINT ( 'NONE',  ( 0.000000000000000000, 0.000000000000000000, -3.000000000000000444 ) ) ;
#97 = CIRCLE ( 'NONE', #73, 3.000000000000000444 ) ;
#98 = CIRCLE ( 'NONE', #29, 3.000000000000000444 ) ;
#99 = ORIENTED_EDGE ( 'NONE', *, *, #22, .T. ) ;
#100 = EDGE_CURVE ( 'NONE', #76, #12, #87, .T. ) ;
#101 = ORIENTED_EDGE ( 'NONE', *, *, #100, .T. ) ;
#102 = DIRECTION ( 'NONE',  ( 0.000000000000000000, 1.000000000000000000, 0.000000000000000000 ) ) ;
#103 = DIRECTION ( 'NONE',  ( -0.000000000000000000, -1.000000000000000000, -0.000000000000000000 ) ) ;
#104 = SURFACE_STYLE_FILL_AREA ( #34 ) ;
#105 = CLOSED_SHELL ( 'NONE', ( #60, #86, #88, #78 ) ) ;
#106 = CARTESIAN_POINT ( 'NONE',  ( 0.000000000000000000, 125.0000000000000000, 0.000000000000000000 ) ) ;
#107 = DIRECTION ( 'NONE',  ( 0.000000000000000000, 0.000000000000000000, -1.000000000000000000 ) ) ;
#108 = SHAPE_DEFINITION_REPRESENTATION ( #84, #56 ) ;
#109 = PRESENTATION_LAYER_ASSIGNMENT (  '', '', ( #89 ) ) ;
#110 = CARTESIAN_POINT ( 'NONE',  ( 3.673940397442060361E-16, 125.0000000000000000, 3.000000000000000444 ) ) ;
#111 = CARTESIAN_POINT ( 'NONE',  ( 0.000000000000000000, 125.0000000000000000, -3.000000000000000444 ) ) ;
#112 = DIRECTION ( 'NONE',  ( -0.000000000000000000, -1.000000000000000000, -0.000000000000000000 ) ) ;
#113 = FACE_OUTER_BOUND ( 'NONE', #90, .T. ) ;
#114 = PRESENTATION_STYLE_ASSIGNMENT (( #52 ) ) ;
#115 =( NAMED_UNIT ( * ) SI_UNIT ( $, .STERADIAN. ) SOLID_ANGLE_UNIT ( ) );
#116 = AXIS2_PLACEMENT_3D ( 'NONE', #47, #15, #6 ) ;
#117 = ORIENTED_EDGE ( 'NONE', *, *, #66, .F. ) ;
#118 = EDGE_CURVE ( 'NONE', #67, #23, #98, .T. ) ;
#119 = AXIS2_PLACEMENT_3D ( 'NONE', #94, #74, #13 ) ;
#120 = DIRECTION ( 'NONE',  ( 0.000000000000000000, 0.000000000000000000, 1.000000000000000000 ) ) ;
#121 = CYLINDRICAL_SURFACE ( 'NONE', #38, 3.000000000000000444 ) ;
#122 =( NAMED_UNIT ( * ) PLANE_ANGLE_UNIT ( ) SI_UNIT ( $, .RADIAN. ) );
#123 = PRODUCT_DEFINITION_FORMATION_WITH_SPECIFIED_SOURCE ( 'Symmetric', '', #72, .NOT_KNOWN. ) ;
#124 = APPLICATION_PROTOCOL_DEFINITION ( 'draft international standard', 'automotive_design', 1998, #80 ) ;
#125 = DIRECTION ( 'NONE',  ( 1.000000000000000000, 0.000000000000000000, 0.000000000000000000 ) ) ;
ENDSEC;
END-ISO-10303-21;
