ISO-10303-21;
HEADER;
FILE_DESCRIPTION (( 'STEP AP214' ),
    '1' );
FILE_NAME ('cap 1 joint 2 8726.STEP',
    '2026-08-27T22:10:01',
    ( '' ),
    ( '' ),
    'SwSTEP 2.0',
    'SolidWorks 2026',
    '' );
FILE_SCHEMA (( 'AUTOMOTIVE_DESIGN' ));
ENDSEC;

DATA;
#1 = ORIENTED_EDGE ( 'NONE', *, *, #1110, .T. ) ;
#2 = CARTESIAN_POINT ( 'NONE',  ( -162.4099999999999966, 40.00000000000000000, -12.50000000000008527 ) ) ;
#3 = AXIS2_PLACEMENT_3D ( 'NONE', #514, #971, #1140 ) ;
#4 = CARTESIAN_POINT ( 'NONE',  ( -147.9999999999999716, -8.557969148152246229E-14, -1.500000000000086375 ) ) ;
#5 = ORIENTED_EDGE ( 'NONE', *, *, #1112, .F. ) ;
#6 = AXIS2_PLACEMENT_3D ( 'NONE', #929, #181, #1023 ) ;
#7 = CARTESIAN_POINT ( 'NONE',  ( -147.9999999999999716, -8.557969148152246229E-14, 0.000000000000000000 ) ) ;
#8 = VERTEX_POINT ( 'NONE', #555 ) ;
#9 = CARTESIAN_POINT ( 'NONE',  ( -162.4099999999999966, -40.00000000000004263, -12.50000000000008527 ) ) ;
#10 = DIRECTION ( 'NONE',  ( -5.782411586589356653E-16, 1.000000000000000000, 0.000000000000000000 ) ) ;
#11 = EDGE_LOOP ( 'NONE', ( #1029, #1055, #288, #142 ) ) ;
#12 = DIRECTION ( 'NONE',  ( -1.000000000000000000, 0.000000000000000000, 0.000000000000000000 ) ) ;
#13 = EDGE_LOOP ( 'NONE', ( #817, #222 ) ) ;
#14 = FACE_OUTER_BOUND ( 'NONE', #503, .T. ) ;
#15 = CYLINDRICAL_SURFACE ( 'NONE', #1074, 2.590000000000008740 ) ;
#16 = VERTEX_POINT ( 'NONE', #736 ) ;
#17 = CYLINDRICAL_SURFACE ( 'NONE', #130, 2.589999999999981206 ) ;
#18 = EDGE_CURVE ( 'NONE', #349, #856, #356, .T. ) ;
#19 = CARTESIAN_POINT ( 'NONE',  ( -162.4099999999999966, 40.00000000000000000, -14.50000000000008527 ) ) ;
#20 = DIRECTION ( 'NONE',  ( -0.000000000000000000, -0.000000000000000000, -1.000000000000000000 ) ) ;
#21 = VERTEX_POINT ( 'NONE', #928 ) ;
#22 = DIRECTION ( 'NONE',  ( 0.000000000000000000, 0.000000000000000000, -1.000000000000000000 ) ) ;
#23 = CIRCLE ( 'NONE', #694, 2.590000000000008740 ) ;
#24 = VERTEX_POINT ( 'NONE', #581 ) ;
#25 = ADVANCED_FACE ( 'NONE', ( #304, #99 ), #915, .T. ) ;
#26 = CARTESIAN_POINT ( 'NONE',  ( 0.000000000000000000, 0.000000000000000000, 0.000000000000000000 ) ) ;
#27 = ORIENTED_EDGE ( 'NONE', *, *, #990, .T. ) ;
#28 = CARTESIAN_POINT ( 'NONE',  ( -167.5735931288071185, -35.00000000000004974, -1.500000000000086375 ) ) ;
#29 = ORIENTED_EDGE ( 'NONE', *, *, #488, .F. ) ;
#30 = MANIFOLD_SOLID_BREP ( 'Cut-Extrude4', #1183 ) ;
#31 = DIRECTION ( 'NONE',  ( 0.000000000000000000, 0.000000000000000000, 1.000000000000000000 ) ) ;
#32 = DIRECTION ( 'NONE',  ( -1.000000000000000000, 0.000000000000000000, 0.000000000000000000 ) ) ;
#33 = APPLICATION_CONTEXT ( 'automotive_design' ) ;
#34 = DIRECTION ( 'NONE',  ( 0.000000000000000000, -1.000000000000000000, 0.000000000000000000 ) ) ;
#35 = LINE ( 'NONE', #223, #841 ) ;
#36 = PRODUCT_DEFINITION_CONTEXT ( 'detailed design', #256, 'design' ) ;
#37 = CARTESIAN_POINT ( 'NONE',  ( 0.000000000000000000, 0.000000000000000000, 0.000000000000000000 ) ) ;
#38 = CARTESIAN_POINT ( 'NONE',  ( -77.58999999999998920, -40.00000000000002842, -14.50000000000008527 ) ) ;
#39 = DIRECTION ( 'NONE',  ( -1.000000000000000000, 0.000000000000000000, 0.000000000000000000 ) ) ;
#40 = EDGE_LOOP ( 'NONE', ( #763, #1182, #290, #920 ) ) ;
#41 = VECTOR ( 'NONE', #849, 1000.000000000000000 ) ;
#42 = DIRECTION ( 'NONE',  ( 1.000000000000000000, 6.608470384673550777E-17, 0.000000000000000000 ) ) ;
#43 = AXIS2_PLACEMENT_3D ( 'NONE', #26, #402, #956 ) ;
#44 = DIRECTION ( 'NONE',  ( -1.000000000000000000, 0.000000000000000000, 0.000000000000000000 ) ) ;
#45 = CARTESIAN_POINT ( 'NONE',  ( -120.0000000000000000, -40.00000000000002842, -14.50000000000008527 ) ) ;
#46 = ORIENTED_EDGE ( 'NONE', *, *, #384, .T. ) ;
#47 = EDGE_CURVE ( 'NONE', #888, #8, #379, .T. ) ;
#48 = EDGE_CURVE ( 'NONE', #526, #387, #605, .T. ) ;
#49 = VERTEX_POINT ( 'NONE', #785 ) ;
#50 = CARTESIAN_POINT ( 'NONE',  ( -32.59000000000001052, 40.00000000000000000, -12.50000000000008527 ) ) ;
#51 = ADVANCED_FACE ( 'NONE', ( #156 ), #150, .T. ) ;
#52 = CARTESIAN_POINT ( 'NONE',  ( -27.40999999999998948, -40.00000000000001421, -12.50000000000008527 ) ) ;
#53 = EDGE_LOOP ( 'NONE', ( #1124, #340, #680, #5 ) ) ;
#54 = PRESENTATION_STYLE_ASSIGNMENT (( #321 ) ) ;
#55 = FACE_OUTER_BOUND ( 'NONE', #741, .T. ) ;
#56 = ORIENTED_EDGE ( 'NONE', *, *, #752, .F. ) ;
#57 = DIRECTION ( 'NONE',  ( 0.000000000000000000, 0.000000000000000000, -1.000000000000000000 ) ) ;
#58 = AXIS2_PLACEMENT_3D ( 'NONE', #669, #22, #374 ) ;
#59 = EDGE_CURVE ( 'NONE', #161, #457, #709, .T. ) ;
#60 = AXIS2_PLACEMENT_3D ( 'NONE', #1037, #1135, #44 ) ;
#61 = CARTESIAN_POINT ( 'NONE',  ( -72.40999999999996817, 40.00000000000000000, -12.50000000000008527 ) ) ;
#62 = CARTESIAN_POINT ( 'NONE',  ( -210.0000000000000000, -45.00000000000004974, -284.9163456597992763 ) ) ;
#63 = EDGE_LOOP ( 'NONE', ( #967, #293, #310, #989 ) ) ;
#64 = CARTESIAN_POINT ( 'NONE',  ( -210.0000000000000000, -2.571758278209442213E-14, 0.000000000000000000 ) ) ;
#65 = DIRECTION ( 'NONE',  ( 0.000000000000000000, 0.000000000000000000, -1.000000000000000000 ) ) ;
#66 = DIRECTION ( 'NONE',  ( -0.000000000000000000, -0.000000000000000000, -1.000000000000000000 ) ) ;
#67 = VERTEX_POINT ( 'NONE', #599 ) ;
#68 = DIRECTION ( 'NONE',  ( -1.000000000000000000, 0.000000000000000000, 0.000000000000000000 ) ) ;
#69 = DIRECTION ( 'NONE',  ( 0.000000000000000000, 0.000000000000000000, 1.000000000000000000 ) ) ;
#70 = DIRECTION ( 'NONE',  ( 1.000000000000000000, 1.982541115402064863E-16, 0.000000000000000000 ) ) ;
#71 = VERTEX_POINT ( 'NONE', #968 ) ;
#72 = AXIS2_PLACEMENT_3D ( 'NONE', #793, #336, #724 ) ;
#73 = AXIS2_PLACEMENT_3D ( 'NONE', #667, #235, #140 ) ;
#74 = LINE ( 'NONE', #877, #425 ) ;
#75 = DIRECTION ( 'NONE',  ( -0.000000000000000000, -0.000000000000000000, 1.000000000000000000 ) ) ;
#76 = ORIENTED_EDGE ( 'NONE', *, *, #873, .F. ) ;
#77 = DIRECTION ( 'NONE',  ( -0.000000000000000000, -0.000000000000000000, -1.000000000000000000 ) ) ;
#78 = EDGE_CURVE ( 'NONE', #123, #1126, #611, .T. ) ;
#79 = EDGE_CURVE ( 'NONE', #67, #123, #143, .T. ) ;
#80 = ORIENTED_EDGE ( 'NONE', *, *, #104, .F. ) ;
#81 = CARTESIAN_POINT ( 'NONE',  ( -6.429395695523604744E-15, -35.00000000000000000, -1.500000000000086375 ) ) ;
#82 = CARTESIAN_POINT ( 'NONE',  ( -210.0000000000000000, -2.571758278209442213E-14, -1.500000000000086375 ) ) ;
#83 = EDGE_CURVE ( 'NONE', #1001, #712, #690, .T. ) ;
#84 = ORIENTED_EDGE ( 'NONE', *, *, #234, .T. ) ;
#85 = ORIENTED_EDGE ( 'NONE', *, *, #234, .F. ) ;
#86 = CARTESIAN_POINT ( 'NONE',  ( 2.143131898507868248E-15, 35.00000000000000000, -1.500000000000086375 ) ) ;
#87 = DIRECTION ( 'NONE',  ( -1.000000000000000000, 0.000000000000000000, 0.000000000000000000 ) ) ;
#88 = EDGE_LOOP ( 'NONE', ( #630, #530, #818, #570 ) ) ;
#89 = CARTESIAN_POINT ( 'NONE',  ( -120.0000000000000000, 40.00000000000000000, -12.50000000000008527 ) ) ;
#90 = AXIS2_PLACEMENT_3D ( 'NONE', #1047, #589, #219 ) ;
#91 = VERTEX_POINT ( 'NONE', #698 ) ;
#92 = DIRECTION ( 'NONE',  ( -1.000000000000000000, 0.000000000000000000, 0.000000000000000000 ) ) ;
#93 = VECTOR ( 'NONE', #851, 1000.000000000000000 ) ;
#94 = AXIS2_PLACEMENT_3D ( 'NONE', #809, #254, #897 ) ;
#95 = DIRECTION ( 'NONE',  ( -0.000000000000000000, -0.000000000000000000, -1.000000000000000000 ) ) ;
#96 = EDGE_LOOP ( 'NONE', ( #621, #1164, #280, #843 ) ) ;
#97 = CIRCLE ( 'NONE', #1118, 2.590000000000008740 ) ;
#98 = DIRECTION ( 'NONE',  ( -1.000000000000000000, 1.656321565790757402E-16, 0.000000000000000000 ) ) ;
#99 = FACE_OUTER_BOUND ( 'NONE', #1175, .T. ) ;
#100 = CARTESIAN_POINT ( 'NONE',  ( -72.40999999999996817, 40.00000000000000000, -14.50000000000008527 ) ) ;
#101 = DIRECTION ( 'NONE',  ( -1.000000000000000000, 0.000000000000000000, 0.000000000000000000 ) ) ;
#102 = ORIENTED_EDGE ( 'NONE', *, *, #847, .T. ) ;
#103 = DIRECTION ( 'NONE',  ( 5.782411586589356653E-16, -1.000000000000000000, 0.000000000000000000 ) ) ;
#104 = EDGE_CURVE ( 'NONE', #691, #969, #681, .T. ) ;
#105 = DIRECTION ( 'NONE',  ( -0.000000000000000000, -0.000000000000000000, -1.000000000000000000 ) ) ;
#106 = CARTESIAN_POINT ( 'NONE',  ( -74.99999999999998579, 40.00000000000000000, -14.50000000000008527 ) ) ;
#107 = VERTEX_POINT ( 'NONE', #1065 ) ;
#108 = EDGE_CURVE ( 'NONE', #912, #676, #1052, .T. ) ;
#109 = DIRECTION ( 'NONE',  ( 1.656321565790757402E-16, 1.000000000000000000, -0.000000000000000000 ) ) ;
#110 = ORIENTED_EDGE ( 'NONE', *, *, #832, .F. ) ;
#111 =( LENGTH_UNIT ( ) NAMED_UNIT ( * ) SI_UNIT ( .MILLI., .METRE. ) );
#112 = PRESENTATION_LAYER_ASSIGNMENT (  '', '', ( #420 ) ) ;
#113 = AXIS2_PLACEMENT_3D ( 'NONE', #522, #889, #1003 ) ;
#114 = FACE_OUTER_BOUND ( 'NONE', #1040, .T. ) ;
#115 = ORIENTED_EDGE ( 'NONE', *, *, #722, .T. ) ;
#116 = VECTOR ( 'NONE', #372, 1000.000000000000000 ) ;
#117 = DIRECTION ( 'NONE',  ( -1.000000000000000000, 0.000000000000000000, -0.000000000000000000 ) ) ;
#118 = AXIS2_PLACEMENT_3D ( 'NONE', #1139, #220, #1049 ) ;
#119 = ORIENTED_EDGE ( 'NONE', *, *, #1116, .F. ) ;
#120 = DIRECTION ( 'NONE',  ( -0.000000000000000000, -0.000000000000000000, -1.000000000000000000 ) ) ;
#121 = CARTESIAN_POINT ( 'NONE',  ( 2.143131898507868248E-15, 35.00000000000000000, -14.50000000000008527 ) ) ;
#122 = EDGE_LOOP ( 'NONE', ( #327, #972, #394, #1142 ) ) ;
#123 = VERTEX_POINT ( 'NONE', #704 ) ;
#124 =( NAMED_UNIT ( * ) SI_UNIT ( $, .STERADIAN. ) SOLID_ANGLE_UNIT ( ) );
#125 = LINE ( 'NONE', #318, #846 ) ;
#126 = CARTESIAN_POINT ( 'NONE',  ( -163.9999999999999716, -2.571758278209442213E-14, 0.000000000000000000 ) ) ;
#127 = ORIENTED_EDGE ( 'NONE', *, *, #619, .T. ) ;
#128 = CARTESIAN_POINT ( 'NONE',  ( 9.453492713791213459E-22, 45.00000000000000711, -14.50000000000006750 ) ) ;
#129 = DIRECTION ( 'NONE',  ( 0.000000000000000000, 0.000000000000000000, -1.000000000000000000 ) ) ;
#130 = AXIS2_PLACEMENT_3D ( 'NONE', #378, #1117, #1034 ) ;
#131 = DIRECTION ( 'NONE',  ( 0.000000000000000000, 0.000000000000000000, -1.000000000000000000 ) ) ;
#132 = EDGE_CURVE ( 'NONE', #544, #1011, #333, .T. ) ;
#133 = EDGE_LOOP ( 'NONE', ( #647, #1051 ) ) ;
#134 = CIRCLE ( 'NONE', #246, 2.589999999999981206 ) ;
#135 = AXIS2_PLACEMENT_3D ( 'NONE', #460, #828, #92 ) ;
#136 = CARTESIAN_POINT ( 'NONE',  ( 2.755455298081545172E-15, 45.00000000000000711, -284.9163456597992763 ) ) ;
#137 = AXIS2_PLACEMENT_3D ( 'NONE', #952, #216, #1144 ) ;
#138 = EDGE_CURVE ( 'NONE', #387, #21, #35, .T. ) ;
#139 = ORIENTED_EDGE ( 'NONE', *, *, #170, .T. ) ;
#140 = DIRECTION ( 'NONE',  ( 1.000000000000000000, 0.000000000000000000, 0.000000000000000000 ) ) ;
#141 = DIRECTION ( 'NONE',  ( -1.000000000000000000, 0.000000000000000000, 0.000000000000000000 ) ) ;
#142 = ORIENTED_EDGE ( 'NONE', *, *, #474, .F. ) ;
#143 = LINE ( 'NONE', #316, #861 ) ;
#144 = ADVANCED_FACE ( 'NONE', ( #311 ), #677, .F. ) ;
#145 = EDGE_LOOP ( 'NONE', ( #323, #552 ) ) ;
#146 = CARTESIAN_POINT ( 'NONE',  ( 0.000000000000000000, 0.000000000000000000, -14.50000000000008527 ) ) ;
#147 = EDGE_CURVE ( 'NONE', #373, #691, #955, .T. ) ;
#148 = FACE_OUTER_BOUND ( 'NONE', #53, .T. ) ;
#149 = ORIENTED_EDGE ( 'NONE', *, *, #781, .T. ) ;
#150 = CYLINDRICAL_SURFACE ( 'NONE', #820, 45.00000000000000711 ) ;
#151 = LINE ( 'NONE', #428, #1058 ) ;
#152 = PRODUCT_DEFINITION_SHAPE ( 'NONE', 'NONE',  #535 ) ;
#153 = DIRECTION ( 'NONE',  ( 0.000000000000000000, 0.000000000000000000, -1.000000000000000000 ) ) ;
#154 = ORIENTED_EDGE ( 'NONE', *, *, #442, .F. ) ;
#155 = VECTOR ( 'NONE', #1157, 1000.000000000000000 ) ;
#156 = FACE_OUTER_BOUND ( 'NONE', #11, .T. ) ;
#157 = AXIS2_PLACEMENT_3D ( 'NONE', #925, #184, #561 ) ;
#158 = AXIS2_PLACEMENT_3D ( 'NONE', #533, #1158, #987 ) ;
#159 = CARTESIAN_POINT ( 'NONE',  ( 0.000000000000000000, 23.99999999999997158, -14.50000000000008527 ) ) ;
#160 = FACE_BOUND ( 'NONE', #315, .T. ) ;
#161 = VERTEX_POINT ( 'NONE', #719 ) ;
#162 = DIRECTION ( 'NONE',  ( -0.000000000000000000, -0.000000000000000000, -1.000000000000000000 ) ) ;
#163 = CARTESIAN_POINT ( 'NONE',  ( -164.9999999999999716, -40.00000000000004263, -12.50000000000008527 ) ) ;
#164 = VERTEX_POINT ( 'NONE', #617 ) ;
#165 = CARTESIAN_POINT ( 'NONE',  ( -164.9999999999999716, 40.00000000000000000, -12.50000000000008527 ) ) ;
#166 = LINE ( 'NONE', #629, #363 ) ;
#167 = ORIENTED_EDGE ( 'NONE', *, *, #1084, .T. ) ;
#168 = PLANE ( 'NONE',  #844 ) ;
#169 = ADVANCED_FACE ( 'NONE', ( #257 ), #361, .T. ) ;
#170 = EDGE_CURVE ( 'NONE', #790, #161, #732, .T. ) ;
#171 = AXIS2_PLACEMENT_3D ( 'NONE', #89, #1108, #932 ) ;
#172 = AXIS2_PLACEMENT_3D ( 'NONE', #839, #462, #638 ) ;
#173 = ADVANCED_FACE ( 'NONE', ( #1072 ), #1161, .F. ) ;
#174 = FILL_AREA_STYLE_COLOUR ( '', #1148 ) ;
#175 = CIRCLE ( 'NONE', #43, 45.00000000000000711 ) ;
#176 = FACE_OUTER_BOUND ( 'NONE', #924, .T. ) ;
#177 = VECTOR ( 'NONE', #648, 1000.000000000000000 ) ;
#178 = FACE_BOUND ( 'NONE', #996, .T. ) ;
#179 = ORIENTED_EDGE ( 'NONE', *, *, #1174, .F. ) ;
#180 = FILL_AREA_STYLE ('',( #174 ) ) ;
#181 = DIRECTION ( 'NONE',  ( 0.000000000000000000, 0.000000000000000000, 1.000000000000000000 ) ) ;
#182 = DIRECTION ( 'NONE',  ( -1.000000000000000000, 0.000000000000000000, 0.000000000000000000 ) ) ;
#183 = VERTEX_POINT ( 'NONE', #632 ) ;
#184 = DIRECTION ( 'NONE',  ( -0.000000000000000000, -0.000000000000000000, 1.000000000000000000 ) ) ;
#185 = ORIENTED_EDGE ( 'NONE', *, *, #914, .T. ) ;
#186 = DIRECTION ( 'NONE',  ( 0.000000000000000000, 0.000000000000000000, -1.000000000000000000 ) ) ;
#187 = CYLINDRICAL_SURFACE ( 'NONE', #946, 55.00000000000002132 ) ;
#188 = EDGE_LOOP ( 'NONE', ( #756, #762 ) ) ;
#189 = FACE_BOUND ( 'NONE', #893, .T. ) ;
#190 = VECTOR ( 'NONE', #857, 1000.000000000000000 ) ;
#191 = ORIENTED_EDGE ( 'NONE', *, *, #810, .F. ) ;
#192 = FACE_OUTER_BOUND ( 'NONE', #1090, .T. ) ;
#193 = AXIS2_PLACEMENT_3D ( 'NONE', #1106, #917, #87 ) ;
#194 = DIRECTION ( 'NONE',  ( 1.000000000000000000, 0.000000000000000000, 0.000000000000000000 ) ) ;
#195 = EDGE_CURVE ( 'NONE', #712, #1001, #922, .T. ) ;
#196 = ORIENTED_EDGE ( 'NONE', *, *, #807, .T. ) ;
#197 = VECTOR ( 'NONE', #796, 1000.000000000000000 ) ;
#198 = DIRECTION ( 'NONE',  ( 0.000000000000000000, 0.000000000000000000, -1.000000000000000000 ) ) ;
#199 = DIRECTION ( 'NONE',  ( -0.000000000000000000, -0.000000000000000000, -1.000000000000000000 ) ) ;
#200 = DIRECTION ( 'NONE',  ( 0.000000000000000000, 0.000000000000000000, 1.000000000000000000 ) ) ;
#201 = ORIENTED_EDGE ( 'NONE', *, *, #701, .F. ) ;
#202 = FACE_OUTER_BOUND ( 'NONE', #1071, .T. ) ;
#203 = ORIENTED_EDGE ( 'NONE', *, *, #252, .T. ) ;
#204 = CARTESIAN_POINT ( 'NONE',  ( -72.40999999999996817, -40.00000000000002842, -12.50000000000008527 ) ) ;
#205 = ORIENTED_EDGE ( 'NONE', *, *, #848, .T. ) ;
#206 = CARTESIAN_POINT ( 'NONE',  ( 2.143131898507868248E-15, 35.00000000000000000, -1.500000000000086375 ) ) ;
#207 = VERTEX_POINT ( 'NONE', #1097 ) ;
#208 = EDGE_CURVE ( 'NONE', #123, #1119, #271, .T. ) ;
#209 = MECHANICAL_DESIGN_GEOMETRIC_PRESENTATION_REPRESENTATION (  '', ( #420 ), #282 ) ;
#210 = CARTESIAN_POINT ( 'NONE',  ( -120.0000000000000000, 40.00000000000000000, -14.50000000000008527 ) ) ;
#211 = CARTESIAN_POINT ( 'NONE',  ( -167.5735931288071470, 35.00000000000002842, -1.500000000000086375 ) ) ;
#212 = CIRCLE ( 'NONE', #482, 2.589999999999981206 ) ;
#213 = ORIENTED_EDGE ( 'NONE', *, *, #685, .T. ) ;
#214 = ORIENTED_EDGE ( 'NONE', *, *, #722, .F. ) ;
#215 = ADVANCED_FACE ( 'NONE', ( #812 ), #168, .F. ) ;
#216 = DIRECTION ( 'NONE',  ( 0.000000000000000000, 0.000000000000000000, -1.000000000000000000 ) ) ;
#217 = CARTESIAN_POINT ( 'NONE',  ( -30.00000000000000000, -40.00000000000001421, -12.50000000000008527 ) ) ;
#218 = ORIENTED_EDGE ( 'NONE', *, *, #170, .F. ) ;
#219 = DIRECTION ( 'NONE',  ( 1.000000000000000000, 0.000000000000000000, 0.000000000000000000 ) ) ;
#220 = DIRECTION ( 'NONE',  ( 0.000000000000000000, 0.000000000000000000, -1.000000000000000000 ) ) ;
#221 = CARTESIAN_POINT ( 'NONE',  ( -167.5899999999999750, -40.00000000000004263, -12.50000000000008527 ) ) ;
#222 = ORIENTED_EDGE ( 'NONE', *, *, #873, .T. ) ;
#223 = CARTESIAN_POINT ( 'NONE',  ( 0.000000000000000000, -24.00000000000002842, -1.500000000000086375 ) ) ;
#224 = DIRECTION ( 'NONE',  ( 1.000000000000000000, 0.000000000000000000, 0.000000000000000000 ) ) ;
#225 = ORIENTED_EDGE ( 'NONE', *, *, #104, .T. ) ;
#226 = CARTESIAN_POINT ( 'NONE',  ( -120.0000000000000000, 40.00000000000000000, -12.50000000000008527 ) ) ;
#227 = ADVANCED_FACE ( 'NONE', ( #622 ), #440, .F. ) ;
#228 = CYLINDRICAL_SURFACE ( 'NONE', #3, 2.590000000000008740 ) ;
#229 = ORIENTED_EDGE ( 'NONE', *, *, #598, .F. ) ;
#230 = CIRCLE ( 'NONE', #633, 2.589999999999981206 ) ;
#231 = VECTOR ( 'NONE', #120, 1000.000000000000000 ) ;
#232 = CIRCLE ( 'NONE', #907, 2.590000000000008740 ) ;
#233 = ORIENTED_EDGE ( 'NONE', *, *, #78, .T. ) ;
#234 = EDGE_CURVE ( 'NONE', #1119, #424, #479, .T. ) ;
#235 = DIRECTION ( 'NONE',  ( 0.000000000000000000, 0.000000000000000000, 1.000000000000000000 ) ) ;
#236 = PRODUCT_RELATED_PRODUCT_CATEGORY ( 'part', '', ( #360 ) ) ;
#237 = CARTESIAN_POINT ( 'NONE',  ( -167.5735931288071470, 35.00000000000002842, -14.50000000000008527 ) ) ;
#238 = EDGE_LOOP ( 'NONE', ( #1035, #572, #850, #1013 ) ) ;
#239 = CARTESIAN_POINT ( 'NONE',  ( -74.99999999999998579, 40.00000000000000000, -12.50000000000008527 ) ) ;
#240 = DIRECTION ( 'NONE',  ( -1.000000000000000000, 0.000000000000000000, 0.000000000000000000 ) ) ;
#241 = ORIENTED_EDGE ( 'NONE', *, *, #957, .T. ) ;
#242 = CARTESIAN_POINT ( 'NONE',  ( -117.4099999999999824, -40.00000000000002842, -12.50000000000008527 ) ) ;
#243 = DIRECTION ( 'NONE',  ( -0.000000000000000000, -0.000000000000000000, 1.000000000000000000 ) ) ;
#244 = FACE_BOUND ( 'NONE', #871, .T. ) ;
#245 = ORIENTED_EDGE ( 'NONE', *, *, #108, .T. ) ;
#246 = AXIS2_PLACEMENT_3D ( 'NONE', #542, #886, #1067 ) ;
#247 = VECTOR ( 'NONE', #199, 1000.000000000000000 ) ;
#248 = DIRECTION ( 'NONE',  ( -1.000000000000000000, 0.000000000000000000, 0.000000000000000000 ) ) ;
#249 = CARTESIAN_POINT ( 'NONE',  ( -163.9999999999999716, -2.571758278209442213E-14, -14.50000000000008171 ) ) ;
#250 = ORIENTED_EDGE ( 'NONE', *, *, #688, .T. ) ;
#251 = DIRECTION ( 'NONE',  ( 0.000000000000000000, 0.000000000000000000, -1.000000000000000000 ) ) ;
#252 = EDGE_CURVE ( 'NONE', #1128, #912, #301, .T. ) ;
#253 = ADVANCED_FACE ( 'NONE', ( #842 ), #470, .F. ) ;
#254 = DIRECTION ( 'NONE',  ( 0.000000000000000000, 0.000000000000000000, -1.000000000000000000 ) ) ;
#255 = ORIENTED_EDGE ( 'NONE', *, *, #47, .F. ) ;
#256 = APPLICATION_CONTEXT ( 'automotive_design' ) ;
#257 = FACE_OUTER_BOUND ( 'NONE', #1042, .T. ) ;
#258 = ADVANCED_FACE ( 'NONE', ( #296 ), #943, .T. ) ;
#259 = CARTESIAN_POINT ( 'NONE',  ( -120.0000000000000000, 40.00000000000000000, -14.50000000000008527 ) ) ;
#260 = DIRECTION ( 'NONE',  ( -1.000000000000000000, 0.000000000000000000, 0.000000000000000000 ) ) ;
#261 = DIRECTION ( 'NONE',  ( -1.000000000000000000, 0.000000000000000000, -0.000000000000000000 ) ) ;
#262 = EDGE_LOOP ( 'NONE', ( #300, #487 ) ) ;
#263 = VECTOR ( 'NONE', #42, 1000.000000000000000 ) ;
#264 = ORIENTED_EDGE ( 'NONE', *, *, #1064, .T. ) ;
#265 = VECTOR ( 'NONE', #162, 1000.000000000000000 ) ;
#266 = CARTESIAN_POINT ( 'NONE',  ( -167.5899999999999750, 40.00000000000000000, -12.50000000000008527 ) ) ;
#267 = ADVANCED_FACE ( 'NONE', ( #189, #837 ), #281, .T. ) ;
#268 = DIRECTION ( 'NONE',  ( -1.000000000000000000, 0.000000000000000000, 0.000000000000000000 ) ) ;
#269 = ADVANCED_FACE ( 'NONE', ( #761 ), #17, .F. ) ;
#270 = ORIENTED_EDGE ( 'NONE', *, *, #881, .T. ) ;
#271 = LINE ( 'NONE', #895, #612 ) ;
#272 = VERTEX_POINT ( 'NONE', #548 ) ;
#273 = CARTESIAN_POINT ( 'NONE',  ( -77.58999999999998920, -40.00000000000002842, -12.50000000000008527 ) ) ;
#274 = CARTESIAN_POINT ( 'NONE',  ( -74.99999999999998579, -40.00000000000002842, -12.50000000000008527 ) ) ;
#275 = VERTEX_POINT ( 'NONE', #651 ) ;
#276 = DIRECTION ( 'NONE',  ( 2.898562740133825824E-16, -1.000000000000000000, 0.000000000000000000 ) ) ;
#277 = EDGE_LOOP ( 'NONE', ( #670, #270 ) ) ;
#278 = LINE ( 'NONE', #273, #177 ) ;
#279 = CARTESIAN_POINT ( 'NONE',  ( -27.40999999999998948, -40.00000000000001421, -14.50000000000008527 ) ) ;
#280 = ORIENTED_EDGE ( 'NONE', *, *, #619, .F. ) ;
#281 = PLANE ( 'NONE',  #1020 ) ;
#282 =( GEOMETRIC_REPRESENTATION_CONTEXT ( 3 ) GLOBAL_UNCERTAINTY_ASSIGNED_CONTEXT ( ( #493 ) ) GLOBAL_UNIT_ASSIGNED_CONTEXT ( ( #1150, #418, #960 ) ) REPRESENTATION_CONTEXT ( 'NONE', 'WORKASPACE' ) );
#283 = CIRCLE ( 'NONE', #1167, 2.590000000000008740 ) ;
#284 = CARTESIAN_POINT ( 'NONE',  ( -30.00000000000000000, -40.00000000000001421, -12.50000000000008527 ) ) ;
#285 = AXIS2_PLACEMENT_3D ( 'NONE', #163, #438, #261 ) ;
#286 = AXIS2_PLACEMENT_3D ( 'NONE', #239, #637, #452 ) ;
#287 = CYLINDRICAL_SURFACE ( 'NONE', #576, 45.00000000000000711 ) ;
#288 = ORIENTED_EDGE ( 'NONE', *, *, #781, .F. ) ;
#289 = FACE_OUTER_BOUND ( 'NONE', #515, .T. ) ;
#290 = ORIENTED_EDGE ( 'NONE', *, *, #1112, .T. ) ;
#291 = DIRECTION ( 'NONE',  ( -6.608470384673550777E-17, 1.000000000000000000, 0.000000000000000000 ) ) ;
#292 = FACE_OUTER_BOUND ( 'NONE', #1179, .T. ) ;
#293 = ORIENTED_EDGE ( 'NONE', *, *, #458, .F. ) ;
#294 = EDGE_CURVE ( 'NONE', #591, #478, #342, .T. ) ;
#295 = ADVANCED_FACE ( 'NONE', ( #936 ), #919, .F. ) ;
#296 = FACE_OUTER_BOUND ( 'NONE', #13, .T. ) ;
#297 = EDGE_LOOP ( 'NONE', ( #1141, #214 ) ) ;
#298 = ADVANCED_FACE ( 'NONE', ( #202 ), #1123, .F. ) ;
#299 = DIRECTION ( 'NONE',  ( -1.000000000000000000, 0.000000000000000000, 0.000000000000000000 ) ) ;
#300 = ORIENTED_EDGE ( 'NONE', *, *, #382, .F. ) ;
#301 = LINE ( 'NONE', #28, #93 ) ;
#302 = ORIENTED_EDGE ( 'NONE', *, *, #469, .F. ) ;
#303 = EDGE_CURVE ( 'NONE', #1088, #164, #283, .T. ) ;
#304 = FACE_BOUND ( 'NONE', #96, .T. ) ;
#305 = VECTOR ( 'NONE', #1054, 1000.000000000000000 ) ;
#306 = DIRECTION ( 'NONE',  ( -1.000000000000000000, 0.000000000000000000, 0.000000000000000000 ) ) ;
#307 = AXIS2_PLACEMENT_3D ( 'NONE', #953, #326, #39 ) ;
#308 = CARTESIAN_POINT ( 'NONE',  ( -120.0000000000000000, -40.00000000000002842, -12.50000000000008527 ) ) ;
#309 = CIRCLE ( 'NONE', #539, 2.589999999999981206 ) ;
#310 = ORIENTED_EDGE ( 'NONE', *, *, #442, .T. ) ;
#311 = FACE_OUTER_BOUND ( 'NONE', #484, .T. ) ;
#312 = UNCERTAINTY_MEASURE_WITH_UNIT (LENGTH_MEASURE( 1.000000000000000082E-05 ), #111, 'distance_accuracy_value', 'NONE');
#313 = LINE ( 'NONE', #858, #556 ) ;
#314 = CARTESIAN_POINT ( 'NONE',  ( 45.00000000000000711, 0.000000000000000000, 0.000000000000000000 ) ) ;
#315 = EDGE_LOOP ( 'NONE', ( #822, #664 ) ) ;
#316 = CARTESIAN_POINT ( 'NONE',  ( -210.0000000000000000, -45.00000000000004974, -14.50000000000006750 ) ) ;
#317 = ADVANCED_FACE ( 'NONE', ( #289 ), #464, .F. ) ;
#318 = CARTESIAN_POINT ( 'NONE',  ( -167.5735931288071185, -35.00000000000004974, -14.50000000000008527 ) ) ;
#319 = DIRECTION ( 'NONE',  ( -0.000000000000000000, -0.000000000000000000, -1.000000000000000000 ) ) ;
#320 = ORIENTED_EDGE ( 'NONE', *, *, #847, .F. ) ;
#321 = SURFACE_STYLE_USAGE ( .BOTH. , #767 ) ;
#322 = ADVANCED_FACE ( 'NONE', ( #477 ), #1127, .T. ) ;
#323 = ORIENTED_EDGE ( 'NONE', *, *, #1084, .F. ) ;
#324 = CARTESIAN_POINT ( 'NONE',  ( -122.5900000000000034, 40.00000000000000000, -14.50000000000008527 ) ) ;
#325 = AXIS2_PLACEMENT_3D ( 'NONE', #329, #57, #779 ) ;
#326 = DIRECTION ( 'NONE',  ( -0.000000000000000000, -0.000000000000000000, -1.000000000000000000 ) ) ;
#327 = ORIENTED_EDGE ( 'NONE', *, *, #815, .T. ) ;
#328 = CIRCLE ( 'NONE', #137, 2.589999999999981206 ) ;
#329 = CARTESIAN_POINT ( 'NONE',  ( -74.99999999999998579, -40.00000000000002842, -12.50000000000008527 ) ) ;
#330 = DIRECTION ( 'NONE',  ( 0.000000000000000000, 0.000000000000000000, -1.000000000000000000 ) ) ;
#331 = DIRECTION ( 'NONE',  ( 0.000000000000000000, 0.000000000000000000, -1.000000000000000000 ) ) ;
#332 = ORIENTED_EDGE ( 'NONE', *, *, #598, .T. ) ;
#333 = LINE ( 'NONE', #242, #590 ) ;
#334 = DIRECTION ( 'NONE',  ( 0.000000000000000000, 0.000000000000000000, -1.000000000000000000 ) ) ;
#335 = ADVANCED_FACE ( 'NONE', ( #745 ), #659, .F. ) ;
#336 = DIRECTION ( 'NONE',  ( 0.000000000000000000, -0.000000000000000000, -1.000000000000000000 ) ) ;
#337 = ORIENTED_EDGE ( 'NONE', *, *, #1083, .T. ) ;
#338 = CARTESIAN_POINT ( 'NONE',  ( -87.99999999999997158, 23.99999999999997158, 0.000000000000000000 ) ) ;
#339 = DIRECTION ( 'NONE',  ( -0.000000000000000000, -0.000000000000000000, -1.000000000000000000 ) ) ;
#340 = ORIENTED_EDGE ( 'NONE', *, *, #1103, .T. ) ;
#341 = AXIS2_PLACEMENT_3D ( 'NONE', #532, #77, #68 ) ;
#342 = CIRCLE ( 'NONE', #1016, 2.590000000000008740 ) ;
#343 = CIRCLE ( 'NONE', #1057, 2.590000000000008740 ) ;
#344 = VECTOR ( 'NONE', #69, 1000.000000000000000 ) ;
#345 = EDGE_CURVE ( 'NONE', #1068, #275, #998, .T. ) ;
#346 = DIRECTION ( 'NONE',  ( 0.000000000000000000, -0.000000000000000000, 1.000000000000000000 ) ) ;
#347 = FACE_BOUND ( 'NONE', #766, .T. ) ;
#348 = EDGE_CURVE ( 'NONE', #207, #1004, #824, .T. ) ;
#349 = VERTEX_POINT ( 'NONE', #211 ) ;
#350 = DIRECTION ( 'NONE',  ( -1.000000000000000000, 0.000000000000000000, -0.000000000000000000 ) ) ;
#351 = LINE ( 'NONE', #607, #344 ) ;
#352 = ADVANCED_FACE ( 'NONE', ( #579 ), #1045, .F. ) ;
#353 = DIRECTION ( 'NONE',  ( 1.000000000000000000, 0.000000000000000000, 0.000000000000000000 ) ) ;
#354 = ORIENTED_EDGE ( 'NONE', *, *, #48, .T. ) ;
#355 = EDGE_CURVE ( 'NONE', #24, #526, #1155, .T. ) ;
#356 = LINE ( 'NONE', #1098, #573 ) ;
#357 = CARTESIAN_POINT ( 'NONE',  ( -87.99999999999997158, 0.000000000000000000, 0.000000000000000000 ) ) ;
#358 = CARTESIAN_POINT ( 'NONE',  ( -210.0000000000000000, -2.571758278209442213E-14, -1.500000000000086375 ) ) ;
#359 = ORIENTED_EDGE ( 'NONE', *, *, #947, .F. ) ;
#360 = PRODUCT ( 'cap 1 joint 2 8726', 'cap 1 joint 2 8726', '', ( #1036 ) ) ;
#361 = PLANE ( 'NONE',  #456 ) ;
#362 = CIRCLE ( 'NONE', #1115, 2.590000000000008740 ) ;
#363 = VECTOR ( 'NONE', #66, 1000.000000000000000 ) ;
#364 = ORIENTED_EDGE ( 'NONE', *, *, #832, .T. ) ;
#365 = AXIS2_PLACEMENT_3D ( 'NONE', #921, #655, #819 ) ;
#366 = LINE ( 'NONE', #9, #461 ) ;
#367 = LINE ( 'NONE', #453, #692 ) ;
#368 = VERTEX_POINT ( 'NONE', #314 ) ;
#369 = DIRECTION ( 'NONE',  ( 1.000000000000000000, 0.000000000000000000, 0.000000000000000000 ) ) ;
#370 = ORIENTED_EDGE ( 'NONE', *, *, #806, .F. ) ;
#371 = LINE ( 'NONE', #357, #459 ) ;
#372 = DIRECTION ( 'NONE',  ( -0.000000000000000000, -0.000000000000000000, -1.000000000000000000 ) ) ;
#373 = VERTEX_POINT ( 'NONE', #855 ) ;
#374 = DIRECTION ( 'NONE',  ( -1.000000000000000000, 0.000000000000000000, -0.000000000000000000 ) ) ;
#375 = DIRECTION ( 'NONE',  ( -0.000000000000000000, -0.000000000000000000, -1.000000000000000000 ) ) ;
#376 = DIRECTION ( 'NONE',  ( -0.000000000000000000, -0.000000000000000000, -1.000000000000000000 ) ) ;
#377 = ORIENTED_EDGE ( 'NONE', *, *, #900, .F. ) ;
#378 = CARTESIAN_POINT ( 'NONE',  ( -164.9999999999999716, -40.00000000000004263, -12.50000000000008527 ) ) ;
#379 = CIRCLE ( 'NONE', #1056, 2.590000000000008740 ) ;
#380 = AXIS2_PLACEMENT_3D ( 'NONE', #1012, #276, #646 ) ;
#381 = PLANE ( 'NONE',  #696 ) ;
#382 = EDGE_CURVE ( 'NONE', #993, #1011, #574, .T. ) ;
#383 = CIRCLE ( 'NONE', #72, 45.00000000000000711 ) ;
#384 = EDGE_CURVE ( 'NONE', #856, #1128, #731, .T. ) ;
#385 = AXIS2_PLACEMENT_3D ( 'NONE', #700, #251, #980 ) ;
#386 = DIRECTION ( 'NONE',  ( 0.000000000000000000, 0.000000000000000000, -1.000000000000000000 ) ) ;
#387 = VERTEX_POINT ( 'NONE', #1039 ) ;
#388 = EDGE_CURVE ( 'NONE', #544, #183, #362, .T. ) ;
#389 = DIRECTION ( 'NONE',  ( 0.000000000000000000, 0.000000000000000000, 1.000000000000000000 ) ) ;
#390 = VERTEX_POINT ( 'NONE', #501 ) ;
#391 = LINE ( 'NONE', #489, #231 ) ;
#392 = ORIENTED_EDGE ( 'NONE', *, *, #947, .T. ) ;
#393 = CARTESIAN_POINT ( 'NONE',  ( -210.0000000000000000, -2.571758278209442213E-14, 0.000000000000000000 ) ) ;
#394 = ORIENTED_EDGE ( 'NONE', *, *, #384, .F. ) ;
#395 = DIRECTION ( 'NONE',  ( 1.000000000000000000, -1.656321565790757156E-16, -0.000000000000000000 ) ) ;
#396 = DIRECTION ( 'NONE',  ( 0.000000000000000000, 0.000000000000000000, -1.000000000000000000 ) ) ;
#397 = DIRECTION ( 'NONE',  ( 1.000000000000000000, -1.656321565790757156E-16, -0.000000000000000000 ) ) ;
#398 = ORIENTED_EDGE ( 'NONE', *, *, #83, .F. ) ;
#399 = DIRECTION ( 'NONE',  ( -1.000000000000000000, 0.000000000000000000, 0.000000000000000000 ) ) ;
#400 =( NAMED_UNIT ( * ) PLANE_ANGLE_UNIT ( ) SI_UNIT ( $, .RADIAN. ) );
#401 = AXIS2_PLACEMENT_3D ( 'NONE', #206, #109, #98 ) ;
#402 = DIRECTION ( 'NONE',  ( 0.000000000000000000, 0.000000000000000000, 1.000000000000000000 ) ) ;
#403 = AXIS2_PLACEMENT_3D ( 'NONE', #930, #376, #569 ) ;
#404 = DIRECTION ( 'NONE',  ( -1.000000000000000000, 0.000000000000000000, 0.000000000000000000 ) ) ;
#405 = AXIS2_PLACEMENT_3D ( 'NONE', #159, #884, #346 ) ;
#406 = EDGE_LOOP ( 'NONE', ( #827, #233, #1101, #813, #1132, #264 ) ) ;
#407 = DIRECTION ( 'NONE',  ( 0.000000000000000000, 0.000000000000000000, -1.000000000000000000 ) ) ;
#408 = ADVANCED_FACE ( 'NONE', ( #148 ), #949, .F. ) ;
#409 = LINE ( 'NONE', #1053, #885 ) ;
#410 = DIRECTION ( 'NONE',  ( -1.000000000000000000, 0.000000000000000000, 0.000000000000000000 ) ) ;
#411 = VERTEX_POINT ( 'NONE', #221 ) ;
#412 = DIRECTION ( 'NONE',  ( 0.000000000000000000, 0.000000000000000000, 1.000000000000000000 ) ) ;
#413 = ORIENTED_EDGE ( 'NONE', *, *, #388, .F. ) ;
#414 = EDGE_CURVE ( 'NONE', #431, #803, #772, .T. ) ;
#415 = DIRECTION ( 'NONE',  ( -0.000000000000000000, -0.000000000000000000, 1.000000000000000000 ) ) ;
#416 = CARTESIAN_POINT ( 'NONE',  ( 0.000000000000000000, 23.99999999999997158, -1.500000000000086375 ) ) ;
#417 = ORIENTED_EDGE ( 'NONE', *, *, #1026, .F. ) ;
#418 =( NAMED_UNIT ( * ) PLANE_ANGLE_UNIT ( ) SI_UNIT ( $, .RADIAN. ) );
#419 = LINE ( 'NONE', #61, #197 ) ;
#420 = STYLED_ITEM ( 'NONE', ( #54 ), #30 ) ;
#421 = EDGE_CURVE ( 'NONE', #275, #1068, #230, .T. ) ;
#422 = VECTOR ( 'NONE', #103, 1000.000000000000000 ) ;
#423 = PLANE ( 'NONE',  #883 ) ;
#424 = VERTEX_POINT ( 'NONE', #126 ) ;
#425 = VECTOR ( 'NONE', #524, 1000.000000000000000 ) ;
#426 = CARTESIAN_POINT ( 'NONE',  ( -167.5735931288071185, -35.00000000000003553, -1.500000000000086375 ) ) ;
#427 =( GEOMETRIC_REPRESENTATION_CONTEXT ( 3 ) GLOBAL_UNCERTAINTY_ASSIGNED_CONTEXT ( ( #312 ) ) GLOBAL_UNIT_ASSIGNED_CONTEXT ( ( #111, #400, #124 ) ) REPRESENTATION_CONTEXT ( 'NONE', 'WORKASPACE' ) );
#428 = CARTESIAN_POINT ( 'NONE',  ( -167.5735931288071470, 35.00000000000002842, -1.500000000000086375 ) ) ;
#429 = ADVANCED_FACE ( 'NONE', ( #777 ), #228, .F. ) ;
#430 = DIRECTION ( 'NONE',  ( 0.000000000000000000, 0.000000000000000000, -1.000000000000000000 ) ) ;
#431 = VERTEX_POINT ( 'NONE', #237 ) ;
#432 = DIRECTION ( 'NONE',  ( 0.000000000000000000, 0.000000000000000000, -1.000000000000000000 ) ) ;
#433 = DIRECTION ( 'NONE',  ( -1.000000000000000000, 0.000000000000000000, -0.000000000000000000 ) ) ;
#434 = PLANE ( 'NONE',  #961 ) ;
#435 = ORIENTED_EDGE ( 'NONE', *, *, #458, .T. ) ;
#436 = DIRECTION ( 'NONE',  ( -1.000000000000000000, -5.782411586589356653E-16, 0.000000000000000000 ) ) ;
#437 = CARTESIAN_POINT ( 'NONE',  ( -167.5735931288071185, -35.00000000000003553, -1.500000000000086375 ) ) ;
#438 = DIRECTION ( 'NONE',  ( 0.000000000000000000, 0.000000000000000000, -1.000000000000000000 ) ) ;
#439 = EDGE_LOOP ( 'NONE', ( #229, #868, #905, #650 ) ) ;
#440 = CYLINDRICAL_SURFACE ( 'NONE', #113, 2.590000000000008740 ) ;
#441 = CIRCLE ( 'NONE', #788, 35.00000000000000000 ) ;
#442 = EDGE_CURVE ( 'NONE', #1059, #16, #508, .T. ) ;
#443 = DIRECTION ( 'NONE',  ( 0.000000000000000000, 0.000000000000000000, -1.000000000000000000 ) ) ;
#444 = DIRECTION ( 'NONE',  ( -1.000000000000000000, 0.000000000000000000, 0.000000000000000000 ) ) ;
#445 = EDGE_LOOP ( 'NONE', ( #85, #1104, #149, #584, #658, #506 ) ) ;
#446 = ADVANCED_FACE ( 'NONE', ( #587 ), #1136, .F. ) ;
#447 = ORIENTED_EDGE ( 'NONE', *, *, #894, .T. ) ;
#448 = CARTESIAN_POINT ( 'NONE',  ( -32.59000000000001052, -40.00000000000001421, -12.50000000000008527 ) ) ;
#449 = FACE_BOUND ( 'NONE', #145, .T. ) ;
#450 = EDGE_LOOP ( 'NONE', ( #413, #671, #666, #547 ) ) ;
#451 = VERTEX_POINT ( 'NONE', #52 ) ;
#452 = DIRECTION ( 'NONE',  ( -1.000000000000000000, 0.000000000000000000, -0.000000000000000000 ) ) ;
#453 = CARTESIAN_POINT ( 'NONE',  ( -210.0000000000000000, -45.00000000000004974, 0.000000000000000000 ) ) ;
#454 = ORIENTED_EDGE ( 'NONE', *, *, #208, .F. ) ;
#455 = CARTESIAN_POINT ( 'NONE',  ( -164.9999999999999716, 40.00000000000000000, -14.50000000000008527 ) ) ;
#456 = AXIS2_PLACEMENT_3D ( 'NONE', #527, #985, #995 ) ;
#457 = VERTEX_POINT ( 'NONE', #966 ) ;
#458 = EDGE_CURVE ( 'NONE', #1059, #451, #903, .T. ) ;
#459 = VECTOR ( 'NONE', #545, 1000.000000000000000 ) ;
#460 = CARTESIAN_POINT ( 'NONE',  ( -210.0000000000000000, -2.571758278209442213E-14, -14.50000000000008527 ) ) ;
#461 = VECTOR ( 'NONE', #473, 1000.000000000000000 ) ;
#462 = DIRECTION ( 'NONE',  ( -0.000000000000000000, -0.000000000000000000, -1.000000000000000000 ) ) ;
#463 = EDGE_LOOP ( 'NONE', ( #959, #196, #760, #154 ) ) ;
#464 = CYLINDRICAL_SURFACE ( 'NONE', #537, 2.590000000000008740 ) ;
#465 = ORIENTED_EDGE ( 'NONE', *, *, #562, .F. ) ;
#466 = CARTESIAN_POINT ( 'NONE',  ( -167.5899999999999750, -40.00000000000004263, -12.50000000000008527 ) ) ;
#467 = CARTESIAN_POINT ( 'NONE',  ( -77.58999999999998920, -40.00000000000002842, -12.50000000000008527 ) ) ;
#468 = VERTEX_POINT ( 'NONE', #603 ) ;
#469 = EDGE_CURVE ( 'NONE', #597, #71, #520, .T. ) ;
#470 = CYLINDRICAL_SURFACE ( 'NONE', #157, 46.00000000000001421 ) ;
#471 = ADVANCED_FACE ( 'NONE', ( #55 ), #423, .F. ) ;
#472 = ADVANCED_FACE ( 'NONE', ( #1131 ), #620, .F. ) ;
#473 = DIRECTION ( 'NONE',  ( -0.000000000000000000, -0.000000000000000000, -1.000000000000000000 ) ) ;
#474 = EDGE_CURVE ( 'NONE', #67, #1129, #1177, .T. ) ;
#475 = CYLINDRICAL_SURFACE ( 'NONE', #845, 35.00000000000000000 ) ;
#476 = ORIENTED_EDGE ( 'NONE', *, *, #513, .T. ) ;
#477 = FACE_OUTER_BOUND ( 'NONE', #625, .T. ) ;
#478 = VERTEX_POINT ( 'NONE', #816 ) ;
#479 = CIRCLE ( 'NONE', #823, 46.00000000000001421 ) ;
#480 = SHAPE_DEFINITION_REPRESENTATION ( #152, #890 ) ;
#481 = AXIS2_PLACEMENT_3D ( 'NONE', #992, #353, #430 ) ;
#482 = AXIS2_PLACEMENT_3D ( 'NONE', #708, #443, #248 ) ;
#483 = LINE ( 'NONE', #204, #41 ) ;
#484 = EDGE_LOOP ( 'NONE', ( #1046, #627, #1122, #191 ) ) ;
#485 = CARTESIAN_POINT ( 'NONE',  ( -30.00000000000000000, 40.00000000000000000, -12.50000000000008527 ) ) ;
#486 = ADVANCED_FACE ( 'NONE', ( #1172 ), #702, .T. ) ;
#487 = ORIENTED_EDGE ( 'NONE', *, *, #870, .F. ) ;
#488 = EDGE_CURVE ( 'NONE', #691, #272, #383, .T. ) ;
#489 = CARTESIAN_POINT ( 'NONE',  ( -27.40999999999998948, -40.00000000000001421, -12.50000000000008527 ) ) ;
#490 = CARTESIAN_POINT ( 'NONE',  ( 0.000000000000000000, -24.00000000000002842, -14.50000000000008527 ) ) ;
#491 = ORIENTED_EDGE ( 'NONE', *, *, #469, .T. ) ;
#492 = CARTESIAN_POINT ( 'NONE',  ( 0.000000000000000000, 0.000000000000000000, -1.500000000000086375 ) ) ;
#493 = UNCERTAINTY_MEASURE_WITH_UNIT (LENGTH_MEASURE( 1.000000000000000082E-05 ), #1150, 'distance_accuracy_value', 'NONE');
#494 = DIRECTION ( 'NONE',  ( -1.000000000000000000, 0.000000000000000000, 0.000000000000000000 ) ) ;
#495 = DIRECTION ( 'NONE',  ( 0.000000000000000000, 0.000000000000000000, -1.000000000000000000 ) ) ;
#496 = ORIENTED_EDGE ( 'NONE', *, *, #1048, .F. ) ;
#497 = DIRECTION ( 'NONE',  ( -1.000000000000000000, 0.000000000000000000, 0.000000000000000000 ) ) ;
#498 = AXIS2_PLACEMENT_3D ( 'NONE', #1165, #432, #626 ) ;
#499 = CARTESIAN_POINT ( 'NONE',  ( -74.99999999999998579, -40.00000000000002842, -12.50000000000008527 ) ) ;
#500 = AXIS2_PLACEMENT_3D ( 'NONE', #1032, #1017, #194 ) ;
#501 = CARTESIAN_POINT ( 'NONE',  ( -72.40999999999996817, -40.00000000000002842, -14.50000000000008527 ) ) ;
#502 = CIRCLE ( 'NONE', #1171, 2.590000000000008740 ) ;
#503 = EDGE_LOOP ( 'NONE', ( #201, #392, #718, #778 ) ) ;
#504 = DIRECTION ( 'NONE',  ( 1.000000000000000000, 0.000000000000000000, 0.000000000000000000 ) ) ;
#505 = ADVANCED_FACE ( 'NONE', ( #534 ), #982, .F. ) ;
#506 = ORIENTED_EDGE ( 'NONE', *, *, #1080, .F. ) ;
#507 = CYLINDRICAL_SURFACE ( 'NONE', #733, 2.590000000000008740 ) ;
#508 = LINE ( 'NONE', #686, #672 ) ;
#509 = EDGE_LOOP ( 'NONE', ( #359, #302, #942, #213 ) ) ;
#510 = ADVANCED_FACE ( 'NONE', ( #975 ), #624, .T. ) ;
#511 = ADVANCED_FACE ( 'NONE', ( #988 ), #529, .T. ) ;
#512 = DIRECTION ( 'NONE',  ( 0.000000000000000000, 0.000000000000000000, -1.000000000000000000 ) ) ;
#513 = EDGE_CURVE ( 'NONE', #1156, #411, #134, .T. ) ;
#514 = CARTESIAN_POINT ( 'NONE',  ( -30.00000000000000000, -40.00000000000001421, -12.50000000000008527 ) ) ;
#515 = EDGE_LOOP ( 'NONE', ( #852, #780, #102, #218 ) ) ;
#516 = DIRECTION ( 'NONE',  ( 1.000000000000000000, 0.000000000000000000, 0.000000000000000000 ) ) ;
#517 = FACE_OUTER_BOUND ( 'NONE', #277, .T. ) ;
#518 = FACE_BOUND ( 'NONE', #297, .T. ) ;
#519 = EDGE_LOOP ( 'NONE', ( #454, #984, #937, #879 ) ) ;
#520 = CIRCLE ( 'NONE', #926, 2.590000000000008740 ) ;
#521 = CIRCLE ( 'NONE', #6, 46.00000000000001421 ) ;
#522 = CARTESIAN_POINT ( 'NONE',  ( -120.0000000000000000, 40.00000000000000000, -12.50000000000008527 ) ) ;
#523 = VECTOR ( 'NONE', #754, 1000.000000000000000 ) ;
#524 = DIRECTION ( 'NONE',  ( -0.000000000000000000, -0.000000000000000000, -1.000000000000000000 ) ) ;
#525 = DIRECTION ( 'NONE',  ( 1.982541115402064863E-16, -1.000000000000000000, 0.000000000000000000 ) ) ;
#526 = VERTEX_POINT ( 'NONE', #802 ) ;
#527 = CARTESIAN_POINT ( 'NONE',  ( -30.00000000000000000, 40.00000000000000000, -12.50000000000008527 ) ) ;
#528 = CARTESIAN_POINT ( 'NONE',  ( -72.40999999999996817, -40.00000000000002842, -12.50000000000008527 ) ) ;
#529 = PLANE ( 'NONE',  #285 ) ;
#530 = ORIENTED_EDGE ( 'NONE', *, *, #1026, .T. ) ;
#531 = EDGE_CURVE ( 'NONE', #597, #164, #166, .T. ) ;
#532 = CARTESIAN_POINT ( 'NONE',  ( -120.0000000000000000, -40.00000000000002842, -12.50000000000008527 ) ) ;
#533 = CARTESIAN_POINT ( 'NONE',  ( -30.00000000000000000, 40.00000000000000000, -12.50000000000008527 ) ) ;
#534 = FACE_OUTER_BOUND ( 'NONE', #63, .T. ) ;
#535 = PRODUCT_DEFINITION ( 'General', '', #1096, #36 ) ;
#536 = ORIENTED_EDGE ( 'NONE', *, *, #913, .F. ) ;
#537 = AXIS2_PLACEMENT_3D ( 'NONE', #485, #831, #12 ) ;
#538 = VECTOR ( 'NONE', #613, 1000.000000000000000 ) ;
#539 = AXIS2_PLACEMENT_3D ( 'NONE', #165, #330, #610 ) ;
#540 = DIRECTION ( 'NONE',  ( 0.000000000000000000, 0.000000000000000000, -1.000000000000000000 ) ) ;
#541 = DIRECTION ( 'NONE',  ( 0.000000000000000000, -0.000000000000000000, -1.000000000000000000 ) ) ;
#542 = CARTESIAN_POINT ( 'NONE',  ( -164.9999999999999716, -40.00000000000004263, -12.50000000000008527 ) ) ;
#543 = ORIENTED_EDGE ( 'NONE', *, *, #348, .F. ) ;
#544 = VERTEX_POINT ( 'NONE', #1000 ) ;
#545 = DIRECTION ( 'NONE',  ( 0.000000000000000000, 1.000000000000000000, -0.000000000000000000 ) ) ;
#546 = LINE ( 'NONE', #923, #116 ) ;
#547 = ORIENTED_EDGE ( 'NONE', *, *, #899, .F. ) ;
#548 = CARTESIAN_POINT ( 'NONE',  ( 45.00000000000000711, 0.000000000000000000, -14.50000000000006750 ) ) ;
#549 = ORIENTED_EDGE ( 'NONE', *, *, #18, .F. ) ;
#550 = CARTESIAN_POINT ( 'NONE',  ( -200.4606079858305065, -45.00000000000004974, 0.000000000000000000 ) ) ;
#551 = CARTESIAN_POINT ( 'NONE',  ( 2.755455298081545172E-15, 45.00000000000000711, -14.50000000000006750 ) ) ;
#552 = ORIENTED_EDGE ( 'NONE', *, *, #990, .F. ) ;
#553 = DIRECTION ( 'NONE',  ( -1.000000000000000000, 0.000000000000000000, 0.000000000000000000 ) ) ;
#554 = VECTOR ( 'NONE', #10, 1000.000000000000000 ) ;
#555 = CARTESIAN_POINT ( 'NONE',  ( -117.4099999999999824, 40.00000000000000000, -14.50000000000008527 ) ) ;
#556 = VECTOR ( 'NONE', #678, 1000.000000000000000 ) ;
#557 = CARTESIAN_POINT ( 'NONE',  ( 9.453492713791213459E-22, 45.00000000000000711, -284.9163456597992763 ) ) ;
#558 = FACE_OUTER_BOUND ( 'NONE', #703, .T. ) ;
#559 = ORIENTED_EDGE ( 'NONE', *, *, #1048, .T. ) ;
#560 = ADVANCED_FACE ( 'NONE', ( #449, #1070, #518, #711, #347, #160, #178, #717, #244, #1077 ), #434, .F. ) ;
#561 = DIRECTION ( 'NONE',  ( 1.000000000000000000, 0.000000000000000000, 0.000000000000000000 ) ) ;
#562 = EDGE_CURVE ( 'NONE', #912, #349, #653, .T. ) ;
#563 = CARTESIAN_POINT ( 'NONE',  ( 0.000000000000000000, 0.000000000000000000, -14.50000000000006750 ) ) ;
#564 = DIRECTION ( 'NONE',  ( 1.000000000000000000, 0.000000000000000000, 0.000000000000000000 ) ) ;
#565 = VERTEX_POINT ( 'NONE', #1081 ) ;
#566 = DIRECTION ( 'NONE',  ( -1.000000000000000000, 0.000000000000000000, 0.000000000000000000 ) ) ;
#567 = ORIENTED_EDGE ( 'NONE', *, *, #815, .F. ) ;
#568 = EDGE_CURVE ( 'NONE', #1126, #424, #904, .T. ) ;
#569 = DIRECTION ( 'NONE',  ( -1.000000000000000000, 0.000000000000000000, 0.000000000000000000 ) ) ;
#570 = ORIENTED_EDGE ( 'NONE', *, *, #1018, .F. ) ;
#571 = CARTESIAN_POINT ( 'NONE',  ( -74.99999999999998579, 40.00000000000000000, -14.50000000000008527 ) ) ;
#572 = ORIENTED_EDGE ( 'NONE', *, *, #108, .F. ) ;
#573 = VECTOR ( 'NONE', #395, 1000.000000000000000 ) ;
#574 = CIRCLE ( 'NONE', #710, 2.590000000000008740 ) ;
#575 = APPLICATION_PROTOCOL_DEFINITION ( 'draft international standard', 'automotive_design', 1998, #256 ) ;
#576 = AXIS2_PLACEMENT_3D ( 'NONE', #656, #200, #564 ) ;
#577 = CIRCLE ( 'NONE', #135, 55.00000000000002132 ) ;
#578 = PLANE ( 'NONE',  #1022 ) ;
#579 = FACE_OUTER_BOUND ( 'NONE', #450, .T. ) ;
#580 = ORIENTED_EDGE ( 'NONE', *, *, #388, .T. ) ;
#581 = CARTESIAN_POINT ( 'NONE',  ( -148.0000000000000000, 23.99999999999997158, -1.500000000000086375 ) ) ;
#582 = CARTESIAN_POINT ( 'NONE',  ( -30.00000000000000000, 40.00000000000000000, -12.50000000000008527 ) ) ;
#583 = DIRECTION ( 'NONE',  ( -1.000000000000000000, 0.000000000000000000, 0.000000000000000000 ) ) ;
#584 = ORIENTED_EDGE ( 'NONE', *, *, #641, .T. ) ;
#585 = CARTESIAN_POINT ( 'NONE',  ( -210.0000000000000000, -2.571758278209442213E-14, -14.50000000000008171 ) ) ;
#586 = DIRECTION ( 'NONE',  ( 0.000000000000000000, 0.000000000000000000, -1.000000000000000000 ) ) ;
#587 = FACE_OUTER_BOUND ( 'NONE', #509, .T. ) ;
#588 = ORIENTED_EDGE ( 'NONE', *, *, #138, .T. ) ;
#589 = DIRECTION ( 'NONE',  ( -0.000000000000000000, -0.000000000000000000, 1.000000000000000000 ) ) ;
#590 = VECTOR ( 'NONE', #977, 1000.000000000000000 ) ;
#591 = VERTEX_POINT ( 'NONE', #1181 ) ;
#592 = AXIS2_PLACEMENT_3D ( 'NONE', #706, #339, #1087 ) ;
#593 = DIRECTION ( 'NONE',  ( -1.000000000000000000, 0.000000000000000000, -0.000000000000000000 ) ) ;
#594 = CIRCLE ( 'NONE', #753, 2.590000000000008740 ) ;
#595 = DIRECTION ( 'NONE',  ( -0.000000000000000000, -0.000000000000000000, -1.000000000000000000 ) ) ;
#596 = EDGE_CURVE ( 'NONE', #707, #16, #343, .T. ) ;
#597 = VERTEX_POINT ( 'NONE', #1093 ) ;
#598 = EDGE_CURVE ( 'NONE', #478, #8, #821, .T. ) ;
#599 = CARTESIAN_POINT ( 'NONE',  ( -8.266365894244635122E-15, -45.00000000000000711, -14.50000000000006750 ) ) ;
#600 = ADVANCED_FACE ( 'NONE', ( #743 ), #1121, .F. ) ;
#601 = ORIENTED_EDGE ( 'NONE', *, *, #568, .F. ) ;
#602 = CARTESIAN_POINT ( 'NONE',  ( 2.143131898507868248E-15, 35.00000000000000000, -14.50000000000008527 ) ) ;
#603 = CARTESIAN_POINT ( 'NONE',  ( -6.429393927044433436E-15, -35.00000000000000000, -14.50000000000008527 ) ) ;
#604 = ORIENTED_EDGE ( 'NONE', *, *, #810, .T. ) ;
#605 = LINE ( 'NONE', #791, #155 ) ;
#606 = ADVANCED_FACE ( 'NONE', ( #114 ), #15, .F. ) ;
#607 = CARTESIAN_POINT ( 'NONE',  ( 45.00000000000000711, 0.000000000000000000, -284.9163456597992763 ) ) ;
#608 = CARTESIAN_POINT ( 'NONE',  ( -30.00000000000000000, -40.00000000000001421, -14.50000000000008527 ) ) ;
#609 = ORIENTED_EDGE ( 'NONE', *, *, #147, .F. ) ;
#610 = DIRECTION ( 'NONE',  ( -1.000000000000000000, 0.000000000000000000, 0.000000000000000000 ) ) ;
#611 = CIRCLE ( 'NONE', #1015, 46.00000000000001421 ) ;
#612 = VECTOR ( 'NONE', #640, 1000.000000000000000 ) ;
#613 = DIRECTION ( 'NONE',  ( 0.000000000000000000, 0.000000000000000000, 1.000000000000000000 ) ) ;
#614 = ORIENTED_EDGE ( 'NONE', *, *, #1018, .T. ) ;
#615 = AXIS2_PLACEMENT_3D ( 'NONE', #1146, #595, #410 ) ;
#616 = AXIS2_PLACEMENT_3D ( 'NONE', #1009, #910, #742 ) ;
#617 = CARTESIAN_POINT ( 'NONE',  ( -77.58999999999998920, 40.00000000000000000, -14.50000000000008527 ) ) ;
#618 = CYLINDRICAL_SURFACE ( 'NONE', #158, 2.590000000000008740 ) ;
#619 = EDGE_CURVE ( 'NONE', #21, #24, #729, .T. ) ;
#620 = PLANE ( 'NONE',  #481 ) ;
#621 = ORIENTED_EDGE ( 'NONE', *, *, #48, .F. ) ;
#622 = FACE_OUTER_BOUND ( 'NONE', #439, .T. ) ;
#623 = PLANE ( 'NONE',  #405 ) ;
#624 = PLANE ( 'NONE',  #751 ) ;
#625 = EDGE_LOOP ( 'NONE', ( #1078, #580 ) ) ;
#626 = DIRECTION ( 'NONE',  ( -1.000000000000000000, 0.000000000000000000, 0.000000000000000000 ) ) ;
#627 = ORIENTED_EDGE ( 'NONE', *, *, #568, .T. ) ;
#628 = CARTESIAN_POINT ( 'NONE',  ( -6.429395695523604744E-15, -35.00000000000000000, -1.500000000000086375 ) ) ;
#629 = CARTESIAN_POINT ( 'NONE',  ( -77.58999999999998920, 40.00000000000000000, -12.50000000000008527 ) ) ;
#630 = ORIENTED_EDGE ( 'NONE', *, *, #355, .T. ) ;
#631 = AXIS2_PLACEMENT_3D ( 'NONE', #455, #1028, #566 ) ;
#632 = CARTESIAN_POINT ( 'NONE',  ( -122.5900000000000034, -40.00000000000002842, -12.50000000000008527 ) ) ;
#633 = AXIS2_PLACEMENT_3D ( 'NONE', #695, #495, #867 ) ;
#634 = EDGE_CURVE ( 'NONE', #1119, #1129, #367, .T. ) ;
#635 = VECTOR ( 'NONE', #997, 1000.000000000000000 ) ;
#636 = ORIENTED_EDGE ( 'NONE', *, *, #901, .T. ) ;
#637 = DIRECTION ( 'NONE',  ( 0.000000000000000000, 0.000000000000000000, -1.000000000000000000 ) ) ;
#638 = DIRECTION ( 'NONE',  ( -1.000000000000000000, 0.000000000000000000, 0.000000000000000000 ) ) ;
#639 = VERTEX_POINT ( 'NONE', #1006 ) ;
#640 = DIRECTION ( 'NONE',  ( -0.000000000000000000, -0.000000000000000000, 1.000000000000000000 ) ) ;
#641 = EDGE_CURVE ( 'NONE', #368, #969, #1041, .T. ) ;
#642 = ORIENTED_EDGE ( 'NONE', *, *, #1152, .T. ) ;
#643 = CYLINDRICAL_SURFACE ( 'NONE', #981, 2.590000000000008740 ) ;
#644 = CARTESIAN_POINT ( 'NONE',  ( -167.5735931288071185, -35.00000000000003553, -14.50000000000008527 ) ) ;
#645 = ORIENTED_EDGE ( 'NONE', *, *, #900, .T. ) ;
#646 = DIRECTION ( 'NONE',  ( 1.000000000000000000, 2.898562740133825824E-16, 0.000000000000000000 ) ) ;
#647 = ORIENTED_EDGE ( 'NONE', *, *, #421, .F. ) ;
#648 = DIRECTION ( 'NONE',  ( -0.000000000000000000, -0.000000000000000000, -1.000000000000000000 ) ) ;
#649 = DIRECTION ( 'NONE',  ( 1.000000000000000000, 1.982541115402065110E-16, 0.000000000000000000 ) ) ;
#650 = ORIENTED_EDGE ( 'NONE', *, *, #47, .T. ) ;
#651 = CARTESIAN_POINT ( 'NONE',  ( -167.5899999999999750, 40.00000000000000000, -14.50000000000008527 ) ) ;
#652 = AXIS2_PLACEMENT_3D ( 'NONE', #665, #198, #117 ) ;
#653 = CIRCLE ( 'NONE', #1151, 55.00000000000002132 ) ;
#654 = VECTOR ( 'NONE', #105, 1000.000000000000000 ) ;
#655 = DIRECTION ( 'NONE',  ( 0.000000000000000000, 0.000000000000000000, -1.000000000000000000 ) ) ;
#656 = CARTESIAN_POINT ( 'NONE',  ( 0.000000000000000000, 0.000000000000000000, -284.9163456597992763 ) ) ;
#657 = ADVANCED_FACE ( 'NONE', ( #558 ), #738, .F. ) ;
#658 = ORIENTED_EDGE ( 'NONE', *, *, #913, .T. ) ;
#659 = CYLINDRICAL_SURFACE ( 'NONE', #171, 2.590000000000008740 ) ;
#660 = EDGE_LOOP ( 'NONE', ( #697, #744, #976, #730 ) ) ;
#661 = ADVANCED_FACE ( 'NONE', ( #1100 ), #475, .F. ) ;
#662 = DIRECTION ( 'NONE',  ( -1.000000000000000000, -6.608470384673550777E-17, 0.000000000000000000 ) ) ;
#663 = CARTESIAN_POINT ( 'NONE',  ( 0.000000000000000000, 0.000000000000000000, -1.500000000000086375 ) ) ;
#664 = ORIENTED_EDGE ( 'NONE', *, *, #303, .F. ) ;
#665 = CARTESIAN_POINT ( 'NONE',  ( -120.0000000000000000, 40.00000000000000000, -12.50000000000008527 ) ) ;
#666 = ORIENTED_EDGE ( 'NONE', *, *, #870, .T. ) ;
#667 = CARTESIAN_POINT ( 'NONE',  ( -210.0000000000000000, -2.571758278209442213E-14, -14.50000000000008171 ) ) ;
#668 = ORIENTED_EDGE ( 'NONE', *, *, #894, .F. ) ;
#669 = CARTESIAN_POINT ( 'NONE',  ( -120.0000000000000000, -40.00000000000002842, -12.50000000000008527 ) ) ;
#670 = ORIENTED_EDGE ( 'NONE', *, *, #965, .T. ) ;
#671 = ORIENTED_EDGE ( 'NONE', *, *, #132, .T. ) ;
#672 = VECTOR ( 'NONE', #859, 1000.000000000000000 ) ;
#673 = VECTOR ( 'NONE', #415, 1000.000000000000000 ) ;
#674 = CARTESIAN_POINT ( 'NONE',  ( -200.4606079858305065, 44.99999999999998579, -14.50000000000008171 ) ) ;
#675 = CARTESIAN_POINT ( 'NONE',  ( -120.0000000000000000, -40.00000000000002842, -12.50000000000008527 ) ) ;
#676 = VERTEX_POINT ( 'NONE', #644 ) ;
#677 = CYLINDRICAL_SURFACE ( 'NONE', #90, 46.00000000000001421 ) ;
#678 = DIRECTION ( 'NONE',  ( -0.000000000000000000, -0.000000000000000000, -1.000000000000000000 ) ) ;
#679 = DIRECTION ( 'NONE',  ( 0.000000000000000000, 0.000000000000000000, -1.000000000000000000 ) ) ;
#680 = ORIENTED_EDGE ( 'NONE', *, *, #345, .T. ) ;
#681 = LINE ( 'NONE', #136, #1111 ) ;
#682 = APPLICATION_PROTOCOL_DEFINITION ( 'draft international standard', 'automotive_design', 1998, #33 ) ;
#683 = ADVANCED_FACE ( 'NONE', ( #941 ), #187, .T. ) ;
#684 = DIRECTION ( 'NONE',  ( -1.000000000000000000, 0.000000000000000000, 0.000000000000000000 ) ) ;
#685 = EDGE_CURVE ( 'NONE', #164, #1088, #1133, .T. ) ;
#686 = CARTESIAN_POINT ( 'NONE',  ( -32.59000000000001052, -40.00000000000001421, -12.50000000000008527 ) ) ;
#687 = EDGE_LOOP ( 'NONE', ( #435, #1137 ) ) ;
#688 = EDGE_CURVE ( 'NONE', #1001, #390, #483, .T. ) ;
#689 = SURFACE_STYLE_FILL_AREA ( #180 ) ;
#690 = CIRCLE ( 'NONE', #325, 2.590000000000008740 ) ;
#691 = VERTEX_POINT ( 'NONE', #551 ) ;
#692 = VECTOR ( 'NONE', #649, 1000.000000000000000 ) ;
#693 = DIRECTION ( 'NONE',  ( -1.000000000000000000, 0.000000000000000000, 0.000000000000000000 ) ) ;
#694 = AXIS2_PLACEMENT_3D ( 'NONE', #792, #334, #260 ) ;
#695 = CARTESIAN_POINT ( 'NONE',  ( -164.9999999999999716, 40.00000000000000000, -14.50000000000008527 ) ) ;
#696 = AXIS2_PLACEMENT_3D ( 'NONE', #557, #291, #662 ) ;
#697 = ORIENTED_EDGE ( 'NONE', *, *, #132, .F. ) ;
#698 = CARTESIAN_POINT ( 'NONE',  ( -162.4099999999999966, -40.00000000000004263, -14.50000000000008527 ) ) ;
#699 = EDGE_CURVE ( 'NONE', #565, #457, #546, .T. ) ;
#700 = CARTESIAN_POINT ( 'NONE',  ( -164.9999999999999716, -40.00000000000004263, -12.50000000000008527 ) ) ;
#701 = EDGE_CURVE ( 'NONE', #71, #597, #713, .T. ) ;
#702 = PLANE ( 'NONE',  #94 ) ;
#703 = EDGE_LOOP ( 'NONE', ( #1114, #784, #1, #241 ) ) ;
#704 = CARTESIAN_POINT ( 'NONE',  ( -200.4606079858305065, -45.00000000000004974, -14.50000000000008171 ) ) ;
#705 = CARTESIAN_POINT ( 'NONE',  ( -117.4099999999999824, -40.00000000000002842, -14.50000000000008527 ) ) ;
#706 = CARTESIAN_POINT ( 'NONE',  ( -30.00000000000000000, -40.00000000000001421, -12.50000000000008527 ) ) ;
#707 = VERTEX_POINT ( 'NONE', #279 ) ;
#708 = CARTESIAN_POINT ( 'NONE',  ( -164.9999999999999716, -40.00000000000004263, -14.50000000000008527 ) ) ;
#709 = CIRCLE ( 'NONE', #978, 2.590000000000008740 ) ;
#710 = AXIS2_PLACEMENT_3D ( 'NONE', #45, #131, #583 ) ;
#711 = FACE_BOUND ( 'NONE', #133, .T. ) ;
#712 = VERTEX_POINT ( 'NONE', #467 ) ;
#713 = CIRCLE ( 'NONE', #193, 2.590000000000008740 ) ;
#714 = AXIS2_PLACEMENT_3D ( 'NONE', #1086, #65, #433 ) ;
#715 = DIRECTION ( 'NONE',  ( 5.782411586589356653E-16, -1.000000000000000000, 0.000000000000000000 ) ) ;
#716 = DIRECTION ( 'NONE',  ( -0.000000000000000000, -0.000000000000000000, -1.000000000000000000 ) ) ;
#717 = FACE_BOUND ( 'NONE', #1038, .T. ) ;
#718 = ORIENTED_EDGE ( 'NONE', *, *, #303, .T. ) ;
#719 = CARTESIAN_POINT ( 'NONE',  ( -32.59000000000001052, 40.00000000000000000, -14.50000000000008527 ) ) ;
#720 = ORIENTED_EDGE ( 'NONE', *, *, #701, .T. ) ;
#721 = CARTESIAN_POINT ( 'NONE',  ( -87.99999999999997158, 23.99999999999997158, -14.50000000000008527 ) ) ;
#722 = EDGE_CURVE ( 'NONE', #91, #107, #999, .T. ) ;
#723 = ADVANCED_FACE ( 'NONE', ( #292 ), #287, .T. ) ;
#724 = DIRECTION ( 'NONE',  ( 1.000000000000000000, 0.000000000000000000, 0.000000000000000000 ) ) ;
#725 = ORIENTED_EDGE ( 'NONE', *, *, #348, .T. ) ;
#726 = ADVANCED_FACE ( 'NONE', ( #934 ), #507, .F. ) ;
#727 = ORIENTED_EDGE ( 'NONE', *, *, #1174, .T. ) ;
#728 = DIRECTION ( 'NONE',  ( 1.000000000000000000, 0.000000000000000000, 0.000000000000000000 ) ) ;
#729 = LINE ( 'NONE', #4, #554 ) ;
#730 = ORIENTED_EDGE ( 'NONE', *, *, #382, .T. ) ;
#731 = CIRCLE ( 'NONE', #882, 35.00000000000000000 ) ;
#732 = LINE ( 'NONE', #1089, #863 ) ;
#733 = AXIS2_PLACEMENT_3D ( 'NONE', #775, #1130, #299 ) ;
#734 = AXIS2_PLACEMENT_3D ( 'NONE', #970, #512, #494 ) ;
#735 = AXIS2_PLACEMENT_3D ( 'NONE', #37, #31, #768 ) ;
#736 = CARTESIAN_POINT ( 'NONE',  ( -32.59000000000001052, -40.00000000000001421, -14.50000000000008527 ) ) ;
#737 = LINE ( 'NONE', #86, #983 ) ;
#738 = CYLINDRICAL_SURFACE ( 'NONE', #172, 2.589999999999981206 ) ;
#739 = ORIENTED_EDGE ( 'NONE', *, *, #78, .F. ) ;
#740 = DIRECTION ( 'NONE',  ( 0.000000000000000000, 0.000000000000000000, -1.000000000000000000 ) ) ;
#741 = EDGE_LOOP ( 'NONE', ( #588, #645, #727, #110 ) ) ;
#742 = DIRECTION ( 'NONE',  ( -1.000000000000000000, 0.000000000000000000, 0.000000000000000000 ) ) ;
#743 = FACE_OUTER_BOUND ( 'NONE', #40, .T. ) ;
#744 = ORIENTED_EDGE ( 'NONE', *, *, #1062, .F. ) ;
#745 = FACE_OUTER_BOUND ( 'NONE', #749, .T. ) ;
#746 = EDGE_CURVE ( 'NONE', #8, #888, #825, .T. ) ;
#747 = CARTESIAN_POINT ( 'NONE',  ( -8.266365894244635122E-15, -45.00000000000000711, 0.000000000000000000 ) ) ;
#748 = DIRECTION ( 'NONE',  ( -0.000000000000000000, -0.000000000000000000, -1.000000000000000000 ) ) ;
#749 = EDGE_LOOP ( 'NONE', ( #76, #332, #833, #794 ) ) ;
#750 = DIRECTION ( 'NONE',  ( 1.000000000000000000, 0.000000000000000000, -0.000000000000000000 ) ) ;
#751 = AXIS2_PLACEMENT_3D ( 'NONE', #62, #525, #70 ) ;
#752 = EDGE_CURVE ( 'NONE', #468, #676, #125, .T. ) ;
#753 = AXIS2_PLACEMENT_3D ( 'NONE', #1125, #782, #684 ) ;
#754 = DIRECTION ( 'NONE',  ( -1.000000000000000000, 0.000000000000000000, 0.000000000000000000 ) ) ;
#755 = DIRECTION ( 'NONE',  ( 0.000000000000000000, 0.000000000000000000, -1.000000000000000000 ) ) ;
#756 = ORIENTED_EDGE ( 'NONE', *, *, #195, .T. ) ;
#757 = CARTESIAN_POINT ( 'NONE',  ( -120.0000000000000000, 40.00000000000000000, -12.50000000000008527 ) ) ;
#758 = ORIENTED_EDGE ( 'NONE', *, *, #641, .F. ) ;
#759 = LINE ( 'NONE', #674, #962 ) ;
#760 = ORIENTED_EDGE ( 'NONE', *, *, #596, .T. ) ;
#761 = FACE_OUTER_BOUND ( 'NONE', #840, .T. ) ;
#762 = ORIENTED_EDGE ( 'NONE', *, *, #83, .T. ) ;
#763 = ORIENTED_EDGE ( 'NONE', *, *, #1103, .F. ) ;
#764 = LINE ( 'NONE', #771, #673 ) ;
#765 = DIRECTION ( 'NONE',  ( 0.000000000000000000, 0.000000000000000000, -1.000000000000000000 ) ) ;
#766 = EDGE_LOOP ( 'NONE', ( #255, #1107 ) ) ;
#767 = SURFACE_SIDE_STYLE ('',( #689 ) ) ;
#768 = DIRECTION ( 'NONE',  ( 1.000000000000000000, 0.000000000000000000, 0.000000000000000000 ) ) ;
#769 = VECTOR ( 'NONE', #1010, 1000.000000000000000 ) ;
#770 = VECTOR ( 'NONE', #1091, 1000.000000000000000 ) ;
#771 = CARTESIAN_POINT ( 'NONE',  ( -87.99999999999997158, -24.00000000000002842, -14.50000000000008527 ) ) ;
#772 = LINE ( 'NONE', #121, #1169 ) ;
#773 = EDGE_LOOP ( 'NONE', ( #127, #614, #725, #377 ) ) ;
#774 = DIRECTION ( 'NONE',  ( 0.000000000000000000, 0.000000000000000000, -1.000000000000000000 ) ) ;
#775 = CARTESIAN_POINT ( 'NONE',  ( -74.99999999999998579, -40.00000000000002842, -12.50000000000008527 ) ) ;
#776 = EDGE_CURVE ( 'NONE', #1126, #373, #1076, .T. ) ;
#777 = FACE_OUTER_BOUND ( 'NONE', #463, .T. ) ;
#778 = ORIENTED_EDGE ( 'NONE', *, *, #531, .F. ) ;
#779 = DIRECTION ( 'NONE',  ( -1.000000000000000000, 0.000000000000000000, 0.000000000000000000 ) ) ;
#780 = ORIENTED_EDGE ( 'NONE', *, *, #699, .T. ) ;
#781 = EDGE_CURVE ( 'NONE', #1129, #368, #175, .T. ) ;
#782 = DIRECTION ( 'NONE',  ( 0.000000000000000000, 0.000000000000000000, -1.000000000000000000 ) ) ;
#783 = DIRECTION ( 'NONE',  ( -1.000000000000000000, 0.000000000000000000, 0.000000000000000000 ) ) ;
#784 = ORIENTED_EDGE ( 'NONE', *, *, #901, .F. ) ;
#785 = CARTESIAN_POINT ( 'NONE',  ( -162.4099999999999966, 40.00000000000000000, -12.50000000000008527 ) ) ;
#786 = AXIS2_PLACEMENT_3D ( 'NONE', #1024, #755, #835 ) ;
#787 = LINE ( 'NONE', #628, #265 ) ;
#788 = AXIS2_PLACEMENT_3D ( 'NONE', #146, #586, #948 ) ;
#789 = CARTESIAN_POINT ( 'NONE',  ( 0.000000000000000000, 0.000000000000000000, -1.500000000000086375 ) ) ;
#790 = VERTEX_POINT ( 'NONE', #50 ) ;
#791 = CARTESIAN_POINT ( 'NONE',  ( -87.99999999999997158, 0.000000000000000000, -1.500000000000086375 ) ) ;
#792 = CARTESIAN_POINT ( 'NONE',  ( -74.99999999999998579, -40.00000000000002842, -14.50000000000008527 ) ) ;
#793 = CARTESIAN_POINT ( 'NONE',  ( 0.000000000000000000, 0.000000000000000000, -14.50000000000006750 ) ) ;
#794 = ORIENTED_EDGE ( 'NONE', *, *, #940, .F. ) ;
#795 = DIRECTION ( 'NONE',  ( 0.000000000000000000, 0.000000000000000000, 1.000000000000000000 ) ) ;
#796 = DIRECTION ( 'NONE',  ( -0.000000000000000000, -0.000000000000000000, -1.000000000000000000 ) ) ;
#797 = CARTESIAN_POINT ( 'NONE',  ( 0.000000000000000000, 0.000000000000000000, -14.50000000000008527 ) ) ;
#798 = ORIENTED_EDGE ( 'NONE', *, *, #59, .F. ) ;
#799 = ADVANCED_FACE ( 'NONE', ( #964 ), #578, .T. ) ;
#800 = CARTESIAN_POINT ( 'NONE',  ( -122.5900000000000034, -40.00000000000002842, -14.50000000000008527 ) ) ;
#801 = AXIS2_PLACEMENT_3D ( 'NONE', #217, #331, #141 ) ;
#802 = CARTESIAN_POINT ( 'NONE',  ( -87.99999999999997158, 23.99999999999997158, -1.500000000000086375 ) ) ;
#803 = VERTEX_POINT ( 'NONE', #602 ) ;
#804 = CIRCLE ( 'NONE', #385, 2.589999999999981206 ) ;
#805 = CARTESIAN_POINT ( 'NONE',  ( -147.9999999999999716, -8.557969148152246229E-14, -14.50000000000008527 ) ) ;
#806 = EDGE_CURVE ( 'NONE', #16, #707, #927, .T. ) ;
#807 = EDGE_CURVE ( 'NONE', #451, #707, #391, .T. ) ;
#808 = FACE_OUTER_BOUND ( 'NONE', #1178, .T. ) ;
#809 = CARTESIAN_POINT ( 'NONE',  ( -30.00000000000000000, -40.00000000000001421, -12.50000000000008527 ) ) ;
#810 = EDGE_CURVE ( 'NONE', #373, #1063, #759, .T. ) ;
#811 = ORIENTED_EDGE ( 'NONE', *, *, #1083, .F. ) ;
#812 = FACE_OUTER_BOUND ( 'NONE', #773, .T. ) ;
#813 = ORIENTED_EDGE ( 'NONE', *, *, #147, .T. ) ;
#814 = DIRECTION ( 'NONE',  ( -1.000000000000000000, 0.000000000000000000, 0.000000000000000000 ) ) ;
#815 = EDGE_CURVE ( 'NONE', #803, #468, #441, .T. ) ;
#816 = CARTESIAN_POINT ( 'NONE',  ( -117.4099999999999824, 40.00000000000000000, -12.50000000000008527 ) ) ;
#817 = ORIENTED_EDGE ( 'NONE', *, *, #294, .T. ) ;
#818 = ORIENTED_EDGE ( 'NONE', *, *, #1116, .T. ) ;
#819 = DIRECTION ( 'NONE',  ( -1.000000000000000000, 0.000000000000000000, 0.000000000000000000 ) ) ;
#820 = AXIS2_PLACEMENT_3D ( 'NONE', #1138, #862, #504 ) ;
#821 = LINE ( 'NONE', #829, #769 ) ;
#822 = ORIENTED_EDGE ( 'NONE', *, *, #685, .F. ) ;
#823 = AXIS2_PLACEMENT_3D ( 'NONE', #64, #795, #369 ) ;
#824 = LINE ( 'NONE', #7, #422 ) ;
#825 = CIRCLE ( 'NONE', #864, 2.590000000000008740 ) ;
#826 = CIRCLE ( 'NONE', #365, 2.590000000000008740 ) ;
#827 = ORIENTED_EDGE ( 'NONE', *, *, #79, .T. ) ;
#828 = DIRECTION ( 'NONE',  ( -0.000000000000000000, -0.000000000000000000, 1.000000000000000000 ) ) ;
#829 = CARTESIAN_POINT ( 'NONE',  ( -117.4099999999999824, 40.00000000000000000, -12.50000000000008527 ) ) ;
#830 = ORIENTED_EDGE ( 'NONE', *, *, #1110, .F. ) ;
#831 = DIRECTION ( 'NONE',  ( -0.000000000000000000, -0.000000000000000000, -1.000000000000000000 ) ) ;
#832 = EDGE_CURVE ( 'NONE', #387, #963, #764, .T. ) ;
#833 = ORIENTED_EDGE ( 'NONE', *, *, #746, .T. ) ;
#834 = LINE ( 'NONE', #266, #247 ) ;
#835 = DIRECTION ( 'NONE',  ( -1.000000000000000000, 0.000000000000000000, 0.000000000000000000 ) ) ;
#836 = VERTEX_POINT ( 'NONE', #38 ) ;
#837 = FACE_OUTER_BOUND ( 'NONE', #445, .T. ) ;
#838 = DIRECTION ( 'NONE',  ( -0.000000000000000000, -0.000000000000000000, -1.000000000000000000 ) ) ;
#839 = CARTESIAN_POINT ( 'NONE',  ( -164.9999999999999716, -40.00000000000004263, -12.50000000000008527 ) ) ;
#840 = EDGE_LOOP ( 'NONE', ( #918, #1019, #115, #830 ) ) ;
#841 = VECTOR ( 'NONE', #399, 1000.000000000000000 ) ;
#842 = FACE_OUTER_BOUND ( 'NONE', #898, .T. ) ;
#843 = ORIENTED_EDGE ( 'NONE', *, *, #138, .F. ) ;
#844 = AXIS2_PLACEMENT_3D ( 'NONE', #805, #436, #715 ) ;
#845 = AXIS2_PLACEMENT_3D ( 'NONE', #663, #748, #182 ) ;
#846 = VECTOR ( 'NONE', #872, 1000.000000000000000 ) ;
#847 = EDGE_CURVE ( 'NONE', #457, #161, #906, .T. ) ;
#848 = EDGE_CURVE ( 'NONE', #565, #790, #97, .T. ) ;
#849 = DIRECTION ( 'NONE',  ( -0.000000000000000000, -0.000000000000000000, -1.000000000000000000 ) ) ;
#850 = ORIENTED_EDGE ( 'NONE', *, *, #252, .F. ) ;
#851 = DIRECTION ( 'NONE',  ( -1.000000000000000000, -2.898562740133825331E-16, -0.000000000000000000 ) ) ;
#852 = ORIENTED_EDGE ( 'NONE', *, *, #848, .F. ) ;
#853 = CARTESIAN_POINT ( 'NONE',  ( 0.000000000000000000, -24.00000000000002842, 0.000000000000000000 ) ) ;
#854 = DIRECTION ( 'NONE',  ( 0.000000000000000000, 0.000000000000000000, -1.000000000000000000 ) ) ;
#855 = CARTESIAN_POINT ( 'NONE',  ( -200.4606079858305065, 44.99999999999999289, -14.50000000000008527 ) ) ;
#856 = VERTEX_POINT ( 'NONE', #1044 ) ;
#857 = DIRECTION ( 'NONE',  ( -0.000000000000000000, -0.000000000000000000, -1.000000000000000000 ) ) ;
#858 = CARTESIAN_POINT ( 'NONE',  ( -122.5900000000000034, -40.00000000000002842, -12.50000000000008527 ) ) ;
#859 = DIRECTION ( 'NONE',  ( -0.000000000000000000, -0.000000000000000000, -1.000000000000000000 ) ) ;
#860 = ORIENTED_EDGE ( 'NONE', *, *, #208, .T. ) ;
#861 = VECTOR ( 'NONE', #876, 1000.000000000000000 ) ;
#862 = DIRECTION ( 'NONE',  ( 0.000000000000000000, 0.000000000000000000, 1.000000000000000000 ) ) ;
#863 = VECTOR ( 'NONE', #908, 1000.000000000000000 ) ;
#864 = AXIS2_PLACEMENT_3D ( 'NONE', #210, #129, #693 ) ;
#865 = CIRCLE ( 'NONE', #1043, 45.00000000000000711 ) ;
#866 = DIRECTION ( 'NONE',  ( -0.000000000000000000, -0.000000000000000000, 1.000000000000000000 ) ) ;
#867 = DIRECTION ( 'NONE',  ( -1.000000000000000000, 0.000000000000000000, 0.000000000000000000 ) ) ;
#868 = ORIENTED_EDGE ( 'NONE', *, *, #294, .F. ) ;
#869 = DIRECTION ( 'NONE',  ( 0.000000000000000000, 0.000000000000000000, 1.000000000000000000 ) ) ;
#870 = EDGE_CURVE ( 'NONE', #1011, #993, #594, .T. ) ;
#871 = EDGE_LOOP ( 'NONE', ( #56, #567, #1008, #496 ) ) ;
#872 = DIRECTION ( 'NONE',  ( -1.000000000000000000, -2.898562740133825331E-16, -0.000000000000000000 ) ) ;
#873 = EDGE_CURVE ( 'NONE', #478, #591, #502, .T. ) ;
#874 = DIRECTION ( 'NONE',  ( -1.000000000000000000, 0.000000000000000000, 0.000000000000000000 ) ) ;
#875 = ORIENTED_EDGE ( 'NONE', *, *, #414, .T. ) ;
#876 = DIRECTION ( 'NONE',  ( -1.000000000000000000, -1.982541115402064863E-16, 0.000000000000000000 ) ) ;
#877 = CARTESIAN_POINT ( 'NONE',  ( -122.5900000000000034, 40.00000000000000000, -12.50000000000008527 ) ) ;
#878 = CARTESIAN_POINT ( 'NONE',  ( -74.99999999999998579, 40.00000000000000000, -12.50000000000008527 ) ) ;
#879 = ORIENTED_EDGE ( 'NONE', *, *, #634, .F. ) ;
#880 = CARTESIAN_POINT ( 'NONE',  ( -30.00000000000000000, 40.00000000000000000, -14.50000000000008527 ) ) ;
#881 = EDGE_CURVE ( 'NONE', #49, #639, #328, .T. ) ;
#882 = AXIS2_PLACEMENT_3D ( 'NONE', #789, #679, #783 ) ;
#883 = AXIS2_PLACEMENT_3D ( 'NONE', #490, #34, #958 ) ;
#884 = DIRECTION ( 'NONE',  ( 0.000000000000000000, 1.000000000000000000, 0.000000000000000000 ) ) ;
#885 = VECTOR ( 'NONE', #243, 1000.000000000000000 ) ;
#886 = DIRECTION ( 'NONE',  ( 0.000000000000000000, 0.000000000000000000, -1.000000000000000000 ) ) ;
#887 = VECTOR ( 'NONE', #224, 1000.000000000000000 ) ;
#888 = VERTEX_POINT ( 'NONE', #324 ) ;
#889 = DIRECTION ( 'NONE',  ( -0.000000000000000000, -0.000000000000000000, -1.000000000000000000 ) ) ;
#890 = ADVANCED_BREP_SHAPE_REPRESENTATION ( 'cap 1 joint 2 8726', ( #30, #735 ), #427 ) ;
#891 = DIRECTION ( 'NONE',  ( -1.000000000000000000, -6.608470384673550777E-17, 0.000000000000000000 ) ) ;
#892 = DIRECTION ( 'NONE',  ( -0.000000000000000000, 0.000000000000000000, 1.000000000000000000 ) ) ;
#893 = EDGE_LOOP ( 'NONE', ( #811, #179, #543, #119 ) ) ;
#894 = EDGE_CURVE ( 'NONE', #790, #565, #1002, .T. ) ;
#895 = CARTESIAN_POINT ( 'NONE',  ( -200.4606079858305065, -45.00000000000004974, -14.50000000000008171 ) ) ;
#896 = PLANE ( 'NONE',  #714 ) ;
#897 = DIRECTION ( 'NONE',  ( -1.000000000000000000, 0.000000000000000000, -0.000000000000000000 ) ) ;
#898 = EDGE_LOOP ( 'NONE', ( #601, #739, #860, #84 ) ) ;
#899 = EDGE_CURVE ( 'NONE', #183, #993, #313, .T. ) ;
#900 = EDGE_CURVE ( 'NONE', #21, #1004, #409, .T. ) ;
#901 = EDGE_CURVE ( 'NONE', #411, #1156, #804, .T. ) ;
#902 = LINE ( 'NONE', #1069, #1153 ) ;
#903 = CIRCLE ( 'NONE', #801, 2.590000000000008740 ) ;
#904 = LINE ( 'NONE', #249, #979 ) ;
#905 = ORIENTED_EDGE ( 'NONE', *, *, #940, .T. ) ;
#906 = CIRCLE ( 'NONE', #60, 2.590000000000008740 ) ;
#907 = AXIS2_PLACEMENT_3D ( 'NONE', #284, #186, #933 ) ;
#908 = DIRECTION ( 'NONE',  ( -0.000000000000000000, -0.000000000000000000, -1.000000000000000000 ) ) ;
#909 = ORIENTED_EDGE ( 'NONE', *, *, #699, .F. ) ;
#910 = DIRECTION ( 'NONE',  ( 0.000000000000000000, 0.000000000000000000, -1.000000000000000000 ) ) ;
#911 = DIRECTION ( 'NONE',  ( 1.000000000000000000, 0.000000000000000000, 0.000000000000000000 ) ) ;
#912 = VERTEX_POINT ( 'NONE', #437 ) ;
#913 = EDGE_CURVE ( 'NONE', #969, #1063, #974, .T. ) ;
#914 = EDGE_CURVE ( 'NONE', #349, #431, #151, .T. ) ;
#915 = PLANE ( 'NONE',  #1166 ) ;
#916 = LINE ( 'NONE', #2, #770 ) ;
#917 = DIRECTION ( 'NONE',  ( 0.000000000000000000, 0.000000000000000000, -1.000000000000000000 ) ) ;
#918 = ORIENTED_EDGE ( 'NONE', *, *, #513, .F. ) ;
#919 = PLANE ( 'NONE',  #380 ) ;
#920 = ORIENTED_EDGE ( 'NONE', *, *, #421, .T. ) ;
#921 = CARTESIAN_POINT ( 'NONE',  ( -120.0000000000000000, -40.00000000000002842, -12.50000000000008527 ) ) ;
#922 = CIRCLE ( 'NONE', #498, 2.590000000000008740 ) ;
#923 = CARTESIAN_POINT ( 'NONE',  ( -27.40999999999998948, 40.00000000000000000, -12.50000000000008527 ) ) ;
#924 = EDGE_LOOP ( 'NONE', ( #491, #720 ) ) ;
#925 = CARTESIAN_POINT ( 'NONE',  ( -210.0000000000000000, -2.571758278209442213E-14, -14.50000000000008171 ) ) ;
#926 = AXIS2_PLACEMENT_3D ( 'NONE', #878, #765, #404 ) ;
#927 = CIRCLE ( 'NONE', #118, 2.590000000000008740 ) ;
#928 = CARTESIAN_POINT ( 'NONE',  ( -147.9999999999999716, -24.00000000000002842, -1.500000000000086375 ) ) ;
#929 = CARTESIAN_POINT ( 'NONE',  ( -210.0000000000000000, -2.571758278209442213E-14, 0.000000000000000000 ) ) ;
#930 = CARTESIAN_POINT ( 'NONE',  ( -164.9999999999999716, 40.00000000000000000, -12.50000000000008527 ) ) ;
#931 = EDGE_LOOP ( 'NONE', ( #354, #364, #337, #417 ) ) ;
#932 = DIRECTION ( 'NONE',  ( -1.000000000000000000, 0.000000000000000000, 0.000000000000000000 ) ) ;
#933 = DIRECTION ( 'NONE',  ( -1.000000000000000000, 0.000000000000000000, 0.000000000000000000 ) ) ;
#934 = FACE_OUTER_BOUND ( 'NONE', #1094, .T. ) ;
#935 = ORIENTED_EDGE ( 'NONE', *, *, #596, .F. ) ;
#936 = FACE_OUTER_BOUND ( 'NONE', #238, .T. ) ;
#937 = ORIENTED_EDGE ( 'NONE', *, *, #474, .T. ) ;
#938 = ADVANCED_FACE ( 'NONE', ( #517 ), #896, .T. ) ;
#939 = ADVANCED_FACE ( 'NONE', ( #1079 ), #623, .F. ) ;
#940 = EDGE_CURVE ( 'NONE', #591, #888, #74, .T. ) ;
#941 = FACE_OUTER_BOUND ( 'NONE', #951, .T. ) ;
#942 = ORIENTED_EDGE ( 'NONE', *, *, #531, .T. ) ;
#943 = PLANE ( 'NONE',  #652 ) ;
#944 = EDGE_CURVE ( 'NONE', #272, #368, #351, .T. ) ;
#945 = EDGE_LOOP ( 'NONE', ( #636, #476 ) ) ;
#946 = AXIS2_PLACEMENT_3D ( 'NONE', #358, #20, #101 ) ;
#947 = EDGE_CURVE ( 'NONE', #71, #1088, #419, .T. ) ;
#948 = DIRECTION ( 'NONE',  ( -1.000000000000000000, 0.000000000000000000, 0.000000000000000000 ) ) ;
#949 = CYLINDRICAL_SURFACE ( 'NONE', #615, 2.589999999999981206 ) ;
#950 = VERTEX_POINT ( 'NONE', #338 ) ;
#951 = EDGE_LOOP ( 'NONE', ( #559, #1033, #465, #245 ) ) ;
#952 = CARTESIAN_POINT ( 'NONE',  ( -164.9999999999999716, 40.00000000000000000, -12.50000000000008527 ) ) ;
#953 = CARTESIAN_POINT ( 'NONE',  ( -74.99999999999998579, 40.00000000000000000, -12.50000000000008527 ) ) ;
#954 = ORIENTED_EDGE ( 'NONE', *, *, #1152, .F. ) ;
#955 = LINE ( 'NONE', #128, #263 ) ;
#956 = DIRECTION ( 'NONE',  ( 1.000000000000000000, 0.000000000000000000, 0.000000000000000000 ) ) ;
#957 = EDGE_CURVE ( 'NONE', #107, #91, #212, .T. ) ;
#958 = DIRECTION ( 'NONE',  ( 0.000000000000000000, -0.000000000000000000, -1.000000000000000000 ) ) ;
#959 = ORIENTED_EDGE ( 'NONE', *, *, #1143, .F. ) ;
#960 =( NAMED_UNIT ( * ) SI_UNIT ( $, .STERADIAN. ) SOLID_ANGLE_UNIT ( ) );
#961 = AXIS2_PLACEMENT_3D ( 'NONE', #797, #892, #911 ) ;
#962 = VECTOR ( 'NONE', #866, 1000.000000000000000 ) ;
#963 = VERTEX_POINT ( 'NONE', #991 ) ;
#964 = FACE_OUTER_BOUND ( 'NONE', #188, .T. ) ;
#965 = EDGE_CURVE ( 'NONE', #639, #49, #309, .T. ) ;
#966 = CARTESIAN_POINT ( 'NONE',  ( -27.40999999999998948, 40.00000000000000000, -14.50000000000008527 ) ) ;
#967 = ORIENTED_EDGE ( 'NONE', *, *, #807, .F. ) ;
#968 = CARTESIAN_POINT ( 'NONE',  ( -72.40999999999996817, 40.00000000000000000, -12.50000000000008527 ) ) ;
#969 = VERTEX_POINT ( 'NONE', #1075 ) ;
#970 = CARTESIAN_POINT ( 'NONE',  ( -30.00000000000000000, 40.00000000000000000, -12.50000000000008527 ) ) ;
#971 = DIRECTION ( 'NONE',  ( -0.000000000000000000, -0.000000000000000000, -1.000000000000000000 ) ) ;
#972 = ORIENTED_EDGE ( 'NONE', *, *, #994, .F. ) ;
#973 = DIRECTION ( 'NONE',  ( -1.000000000000000000, 0.000000000000000000, 0.000000000000000000 ) ) ;
#974 = LINE ( 'NONE', #1162, #1095 ) ;
#975 = FACE_OUTER_BOUND ( 'NONE', #519, .T. ) ;
#976 = ORIENTED_EDGE ( 'NONE', *, *, #899, .T. ) ;
#977 = DIRECTION ( 'NONE',  ( -0.000000000000000000, -0.000000000000000000, -1.000000000000000000 ) ) ;
#978 = AXIS2_PLACEMENT_3D ( 'NONE', #880, #407, #973 ) ;
#979 = VECTOR ( 'NONE', #75, 1000.000000000000000 ) ;
#980 = DIRECTION ( 'NONE',  ( -1.000000000000000000, 0.000000000000000000, 0.000000000000000000 ) ) ;
#981 = AXIS2_PLACEMENT_3D ( 'NONE', #1005, #375, #814 ) ;
#982 = CYLINDRICAL_SURFACE ( 'NONE', #592, 2.590000000000008740 ) ;
#983 = VECTOR ( 'NONE', #838, 1000.000000000000000 ) ;
#984 = ORIENTED_EDGE ( 'NONE', *, *, #79, .F. ) ;
#985 = DIRECTION ( 'NONE',  ( 0.000000000000000000, 0.000000000000000000, -1.000000000000000000 ) ) ;
#986 = ADVANCED_FACE ( 'NONE', ( #808 ), #618, .F. ) ;
#987 = DIRECTION ( 'NONE',  ( -1.000000000000000000, 0.000000000000000000, 0.000000000000000000 ) ) ;
#988 = FACE_OUTER_BOUND ( 'NONE', #945, .T. ) ;
#989 = ORIENTED_EDGE ( 'NONE', *, *, #806, .T. ) ;
#990 = EDGE_CURVE ( 'NONE', #390, #836, #23, .T. ) ;
#991 = CARTESIAN_POINT ( 'NONE',  ( -87.99999999999997158, -24.00000000000002842, 0.000000000000000000 ) ) ;
#992 = CARTESIAN_POINT ( 'NONE',  ( -87.99999999999997158, 0.000000000000000000, -14.50000000000008527 ) ) ;
#993 = VERTEX_POINT ( 'NONE', #800 ) ;
#994 = EDGE_CURVE ( 'NONE', #1128, #468, #787, .T. ) ;
#995 = DIRECTION ( 'NONE',  ( -1.000000000000000000, 0.000000000000000000, -0.000000000000000000 ) ) ;
#996 = EDGE_LOOP ( 'NONE', ( #370, #935 ) ) ;
#997 = DIRECTION ( 'NONE',  ( -0.000000000000000000, -0.000000000000000000, 1.000000000000000000 ) ) ;
#998 = CIRCLE ( 'NONE', #631, 2.589999999999981206 ) ;
#999 = CIRCLE ( 'NONE', #786, 2.589999999999981206 ) ;
#1000 = CARTESIAN_POINT ( 'NONE',  ( -117.4099999999999824, -40.00000000000002842, -12.50000000000008527 ) ) ;
#1001 = VERTEX_POINT ( 'NONE', #528 ) ;
#1002 = CIRCLE ( 'NONE', #734, 2.590000000000008740 ) ;
#1003 = DIRECTION ( 'NONE',  ( -1.000000000000000000, 0.000000000000000000, 0.000000000000000000 ) ) ;
#1004 = VERTEX_POINT ( 'NONE', #1154 ) ;
#1005 = CARTESIAN_POINT ( 'NONE',  ( -74.99999999999998579, 40.00000000000000000, -12.50000000000008527 ) ) ;
#1006 = CARTESIAN_POINT ( 'NONE',  ( -167.5899999999999750, 40.00000000000000000, -12.50000000000008527 ) ) ;
#1007 = ORIENTED_EDGE ( 'NONE', *, *, #688, .F. ) ;
#1008 = ORIENTED_EDGE ( 'NONE', *, *, #414, .F. ) ;
#1009 = CARTESIAN_POINT ( 'NONE',  ( -74.99999999999998579, -40.00000000000002842, -14.50000000000008527 ) ) ;
#1010 = DIRECTION ( 'NONE',  ( -0.000000000000000000, -0.000000000000000000, -1.000000000000000000 ) ) ;
#1011 = VERTEX_POINT ( 'NONE', #705 ) ;
#1012 = CARTESIAN_POINT ( 'NONE',  ( -167.5735931288071185, -35.00000000000004974, -1.500000000000086375 ) ) ;
#1013 = ORIENTED_EDGE ( 'NONE', *, *, #994, .T. ) ;
#1014 = CARTESIAN_POINT ( 'NONE',  ( -162.4099999999999966, -40.00000000000004263, -12.50000000000008527 ) ) ;
#1015 = AXIS2_PLACEMENT_3D ( 'NONE', #585, #412, #516 ) ;
#1016 = AXIS2_PLACEMENT_3D ( 'NONE', #757, #740, #1102 ) ;
#1017 = DIRECTION ( 'NONE',  ( 0.000000000000000000, 0.000000000000000000, 1.000000000000000000 ) ) ;
#1018 = EDGE_CURVE ( 'NONE', #24, #207, #902, .T. ) ;
#1019 = ORIENTED_EDGE ( 'NONE', *, *, #1145, .T. ) ;
#1020 = AXIS2_PLACEMENT_3D ( 'NONE', #393, #389, #750 ) ;
#1021 = DIRECTION ( 'NONE',  ( 0.000000000000000000, 0.000000000000000000, -1.000000000000000000 ) ) ;
#1022 = AXIS2_PLACEMENT_3D ( 'NONE', #499, #1060, #593 ) ;
#1023 = DIRECTION ( 'NONE',  ( 1.000000000000000000, 0.000000000000000000, 0.000000000000000000 ) ) ;
#1024 = CARTESIAN_POINT ( 'NONE',  ( -164.9999999999999716, -40.00000000000004263, -14.50000000000008527 ) ) ;
#1025 = ORIENTED_EDGE ( 'NONE', *, *, #562, .T. ) ;
#1026 = EDGE_CURVE ( 'NONE', #526, #950, #1176, .T. ) ;
#1027 = ADVANCED_FACE ( 'NONE', ( #176 ), #1066, .T. ) ;
#1028 = DIRECTION ( 'NONE',  ( 0.000000000000000000, 0.000000000000000000, -1.000000000000000000 ) ) ;
#1029 = ORIENTED_EDGE ( 'NONE', *, *, #1064, .F. ) ;
#1030 = ADVANCED_FACE ( 'NONE', ( #14 ), #643, .F. ) ;
#1031 = LINE ( 'NONE', #853, #887 ) ;
#1032 = CARTESIAN_POINT ( 'NONE',  ( 0.000000000000000000, 0.000000000000000000, 0.000000000000000000 ) ) ;
#1033 = ORIENTED_EDGE ( 'NONE', *, *, #914, .F. ) ;
#1034 = DIRECTION ( 'NONE',  ( -1.000000000000000000, 0.000000000000000000, 0.000000000000000000 ) ) ;
#1035 = ORIENTED_EDGE ( 'NONE', *, *, #752, .T. ) ;
#1036 = PRODUCT_CONTEXT ( 'NONE', #33, 'mechanical' ) ;
#1037 = CARTESIAN_POINT ( 'NONE',  ( -30.00000000000000000, 40.00000000000000000, -14.50000000000008527 ) ) ;
#1038 = EDGE_LOOP ( 'NONE', ( #798, #320 ) ) ;
#1039 = CARTESIAN_POINT ( 'NONE',  ( -87.99999999999997158, -24.00000000000002842, -1.500000000000086375 ) ) ;
#1040 = EDGE_LOOP ( 'NONE', ( #398, #250, #27, #954 ) ) ;
#1041 = CIRCLE ( 'NONE', #500, 45.00000000000000711 ) ;
#1042 = EDGE_LOOP ( 'NONE', ( #447, #205 ) ) ;
#1043 = AXIS2_PLACEMENT_3D ( 'NONE', #563, #541, #728 ) ;
#1044 = CARTESIAN_POINT ( 'NONE',  ( 2.143131898507868248E-15, 35.00000000000000000, -1.500000000000086375 ) ) ;
#1045 = CYLINDRICAL_SURFACE ( 'NONE', #1073, 2.590000000000008740 ) ;
#1046 = ORIENTED_EDGE ( 'NONE', *, *, #776, .F. ) ;
#1047 = CARTESIAN_POINT ( 'NONE',  ( -210.0000000000000000, -2.571758278209442213E-14, -14.50000000000008171 ) ) ;
#1048 = EDGE_CURVE ( 'NONE', #676, #431, #577, .T. ) ;
#1049 = DIRECTION ( 'NONE',  ( -1.000000000000000000, 0.000000000000000000, 0.000000000000000000 ) ) ;
#1050 = DIRECTION ( 'NONE',  ( 0.000000000000000000, 0.000000000000000000, -1.000000000000000000 ) ) ;
#1051 = ORIENTED_EDGE ( 'NONE', *, *, #345, .F. ) ;
#1052 = LINE ( 'NONE', #426, #190 ) ;
#1053 = CARTESIAN_POINT ( 'NONE',  ( -147.9999999999999716, -24.00000000000002842, -14.50000000000008527 ) ) ;
#1054 = DIRECTION ( 'NONE',  ( 1.000000000000000000, -0.000000000000000000, 0.000000000000000000 ) ) ;
#1055 = ORIENTED_EDGE ( 'NONE', *, *, #944, .T. ) ;
#1056 = AXIS2_PLACEMENT_3D ( 'NONE', #259, #774, #497 ) ;
#1057 = AXIS2_PLACEMENT_3D ( 'NONE', #608, #153, #444 ) ;
#1058 = VECTOR ( 'NONE', #716, 1000.000000000000000 ) ;
#1059 = VERTEX_POINT ( 'NONE', #448 ) ;
#1060 = DIRECTION ( 'NONE',  ( 0.000000000000000000, 0.000000000000000000, -1.000000000000000000 ) ) ;
#1061 = DIRECTION ( 'NONE',  ( -1.000000000000000000, 0.000000000000000000, 0.000000000000000000 ) ) ;
#1062 = EDGE_CURVE ( 'NONE', #183, #544, #826, .T. ) ;
#1063 = VERTEX_POINT ( 'NONE', #1180 ) ;
#1064 = EDGE_CURVE ( 'NONE', #272, #67, #865, .T. ) ;
#1065 = CARTESIAN_POINT ( 'NONE',  ( -167.5899999999999750, -40.00000000000004263, -14.50000000000008527 ) ) ;
#1066 = PLANE ( 'NONE',  #286 ) ;
#1067 = DIRECTION ( 'NONE',  ( -1.000000000000000000, 0.000000000000000000, 0.000000000000000000 ) ) ;
#1068 = VERTEX_POINT ( 'NONE', #19 ) ;
#1069 = CARTESIAN_POINT ( 'NONE',  ( -148.0000000000000000, 23.99999999999997158, -14.50000000000008527 ) ) ;
#1070 = FACE_BOUND ( 'NONE', #262, .T. ) ;
#1071 = EDGE_LOOP ( 'NONE', ( #875, #1160, #549, #185 ) ) ;
#1072 = FACE_OUTER_BOUND ( 'NONE', #660, .T. ) ;
#1073 = AXIS2_PLACEMENT_3D ( 'NONE', #308, #319, #874 ) ;
#1074 = AXIS2_PLACEMENT_3D ( 'NONE', #274, #95, #268 ) ;
#1075 = CARTESIAN_POINT ( 'NONE',  ( 2.755455298081545172E-15, 45.00000000000000711, 0.000000000000000000 ) ) ;
#1076 = CIRCLE ( 'NONE', #73, 46.00000000000001421 ) ;
#1077 = FACE_OUTER_BOUND ( 'NONE', #406, .T. ) ;
#1078 = ORIENTED_EDGE ( 'NONE', *, *, #1062, .T. ) ;
#1079 = FACE_OUTER_BOUND ( 'NONE', #88, .T. ) ;
#1080 = EDGE_CURVE ( 'NONE', #424, #1063, #521, .T. ) ;
#1081 = CARTESIAN_POINT ( 'NONE',  ( -27.40999999999998948, 40.00000000000000000, -12.50000000000008527 ) ) ;
#1082 = ORIENTED_EDGE ( 'NONE', *, *, #195, .F. ) ;
#1083 = EDGE_CURVE ( 'NONE', #963, #950, #371, .T. ) ;
#1084 = EDGE_CURVE ( 'NONE', #836, #390, #1134, .T. ) ;
#1085 = ORIENTED_EDGE ( 'NONE', *, *, #944, .F. ) ;
#1086 = CARTESIAN_POINT ( 'NONE',  ( -164.9999999999999716, 40.00000000000000000, -12.50000000000008527 ) ) ;
#1087 = DIRECTION ( 'NONE',  ( -1.000000000000000000, 0.000000000000000000, 0.000000000000000000 ) ) ;
#1088 = VERTEX_POINT ( 'NONE', #100 ) ;
#1089 = CARTESIAN_POINT ( 'NONE',  ( -32.59000000000001052, 40.00000000000000000, -12.50000000000008527 ) ) ;
#1090 = EDGE_LOOP ( 'NONE', ( #609, #604, #536, #80 ) ) ;
#1091 = DIRECTION ( 'NONE',  ( -0.000000000000000000, -0.000000000000000000, -1.000000000000000000 ) ) ;
#1092 = AXIS2_PLACEMENT_3D ( 'NONE', #106, #386, #1113 ) ;
#1093 = CARTESIAN_POINT ( 'NONE',  ( -77.58999999999998920, 40.00000000000000000, -12.50000000000008527 ) ) ;
#1094 = EDGE_LOOP ( 'NONE', ( #1007, #1082, #642, #167 ) ) ;
#1095 = VECTOR ( 'NONE', #891, 1000.000000000000000 ) ;
#1096 = PRODUCT_DEFINITION_FORMATION_WITH_SPECIFIED_SOURCE ( 'Symmetric', '', #360, .NOT_KNOWN. ) ;
#1097 = CARTESIAN_POINT ( 'NONE',  ( -148.0000000000000000, 23.99999999999997158, 0.000000000000000000 ) ) ;
#1098 = CARTESIAN_POINT ( 'NONE',  ( 2.143131898507868248E-15, 35.00000000000000000, -1.500000000000086375 ) ) ;
#1099 = CARTESIAN_POINT ( 'NONE',  ( 0.000000000000000000, 23.99999999999997158, 0.000000000000000000 ) ) ;
#1100 = FACE_OUTER_BOUND ( 'NONE', #122, .T. ) ;
#1101 = ORIENTED_EDGE ( 'NONE', *, *, #776, .T. ) ;
#1102 = DIRECTION ( 'NONE',  ( -1.000000000000000000, 0.000000000000000000, 0.000000000000000000 ) ) ;
#1103 = EDGE_CURVE ( 'NONE', #49, #1068, #916, .T. ) ;
#1104 = ORIENTED_EDGE ( 'NONE', *, *, #634, .T. ) ;
#1105 = LINE ( 'NONE', #1099, #523 ) ;
#1106 = CARTESIAN_POINT ( 'NONE',  ( -74.99999999999998579, 40.00000000000000000, -12.50000000000008527 ) ) ;
#1107 = ORIENTED_EDGE ( 'NONE', *, *, #746, .F. ) ;
#1108 = DIRECTION ( 'NONE',  ( -0.000000000000000000, -0.000000000000000000, -1.000000000000000000 ) ) ;
#1109 = LINE ( 'NONE', #466, #654 ) ;
#1110 = EDGE_CURVE ( 'NONE', #411, #107, #1109, .T. ) ;
#1111 = VECTOR ( 'NONE', #869, 1000.000000000000000 ) ;
#1112 = EDGE_CURVE ( 'NONE', #639, #275, #834, .T. ) ;
#1113 = DIRECTION ( 'NONE',  ( -1.000000000000000000, 0.000000000000000000, 0.000000000000000000 ) ) ;
#1114 = ORIENTED_EDGE ( 'NONE', *, *, #1145, .F. ) ;
#1115 = AXIS2_PLACEMENT_3D ( 'NONE', #675, #1050, #1061 ) ;
#1116 = EDGE_CURVE ( 'NONE', #950, #207, #1105, .T. ) ;
#1117 = DIRECTION ( 'NONE',  ( -0.000000000000000000, -0.000000000000000000, -1.000000000000000000 ) ) ;
#1118 = AXIS2_PLACEMENT_3D ( 'NONE', #582, #854, #32 ) ;
#1119 = VERTEX_POINT ( 'NONE', #550 ) ;
#1120 = CARTESIAN_POINT ( 'NONE',  ( -163.9999999999999716, -2.571758278209442213E-14, -14.50000000000008171 ) ) ;
#1121 = CYLINDRICAL_SURFACE ( 'NONE', #403, 2.589999999999981206 ) ;
#1122 = ORIENTED_EDGE ( 'NONE', *, *, #1080, .T. ) ;
#1123 = PLANE ( 'NONE',  #401 ) ;
#1124 = ORIENTED_EDGE ( 'NONE', *, *, #881, .F. ) ;
#1125 = CARTESIAN_POINT ( 'NONE',  ( -120.0000000000000000, -40.00000000000002842, -14.50000000000008527 ) ) ;
#1126 = VERTEX_POINT ( 'NONE', #1120 ) ;
#1127 = PLANE ( 'NONE',  #58 ) ;
#1128 = VERTEX_POINT ( 'NONE', #81 ) ;
#1129 = VERTEX_POINT ( 'NONE', #747 ) ;
#1130 = DIRECTION ( 'NONE',  ( -0.000000000000000000, -0.000000000000000000, -1.000000000000000000 ) ) ;
#1131 = FACE_OUTER_BOUND ( 'NONE', #931, .T. ) ;
#1132 = ORIENTED_EDGE ( 'NONE', *, *, #488, .T. ) ;
#1133 = CIRCLE ( 'NONE', #1092, 2.590000000000008740 ) ;
#1134 = CIRCLE ( 'NONE', #616, 2.590000000000008740 ) ;
#1135 = DIRECTION ( 'NONE',  ( 0.000000000000000000, 0.000000000000000000, -1.000000000000000000 ) ) ;
#1136 = CYLINDRICAL_SURFACE ( 'NONE', #307, 2.590000000000008740 ) ;
#1137 = ORIENTED_EDGE ( 'NONE', *, *, #1143, .T. ) ;
#1138 = CARTESIAN_POINT ( 'NONE',  ( 0.000000000000000000, 0.000000000000000000, -284.9163456597992763 ) ) ;
#1139 = CARTESIAN_POINT ( 'NONE',  ( -30.00000000000000000, -40.00000000000001421, -14.50000000000008527 ) ) ;
#1140 = DIRECTION ( 'NONE',  ( -1.000000000000000000, 0.000000000000000000, 0.000000000000000000 ) ) ;
#1141 = ORIENTED_EDGE ( 'NONE', *, *, #957, .F. ) ;
#1142 = ORIENTED_EDGE ( 'NONE', *, *, #1149, .T. ) ;
#1143 = EDGE_CURVE ( 'NONE', #451, #1059, #232, .T. ) ;
#1144 = DIRECTION ( 'NONE',  ( -1.000000000000000000, 0.000000000000000000, 0.000000000000000000 ) ) ;
#1145 = EDGE_CURVE ( 'NONE', #1156, #91, #366, .T. ) ;
#1146 = CARTESIAN_POINT ( 'NONE',  ( -164.9999999999999716, 40.00000000000000000, -12.50000000000008527 ) ) ;
#1147 = ORIENTED_EDGE ( 'NONE', *, *, #59, .T. ) ;
#1148 = COLOUR_RGB ( '',0.7921568627450980005, 0.8196078431372548767, 0.9333333333333333481 ) ;
#1149 = EDGE_CURVE ( 'NONE', #856, #803, #737, .T. ) ;
#1150 =( LENGTH_UNIT ( ) NAMED_UNIT ( * ) SI_UNIT ( .MILLI., .METRE. ) );
#1151 = AXIS2_PLACEMENT_3D ( 'NONE', #82, #1163, #240 ) ;
#1152 = EDGE_CURVE ( 'NONE', #712, #836, #278, .T. ) ;
#1153 = VECTOR ( 'NONE', #1170, 1000.000000000000000 ) ;
#1154 = CARTESIAN_POINT ( 'NONE',  ( -147.9999999999999716, -24.00000000000002842, 0.000000000000000000 ) ) ;
#1155 = LINE ( 'NONE', #416, #305 ) ;
#1156 = VERTEX_POINT ( 'NONE', #1014 ) ;
#1157 = DIRECTION ( 'NONE',  ( 0.000000000000000000, -1.000000000000000000, 0.000000000000000000 ) ) ;
#1158 = DIRECTION ( 'NONE',  ( -0.000000000000000000, -0.000000000000000000, -1.000000000000000000 ) ) ;
#1159 = CARTESIAN_POINT ( 'NONE',  ( -8.266365894244635122E-15, -45.00000000000000711, -284.9163456597992763 ) ) ;
#1160 = ORIENTED_EDGE ( 'NONE', *, *, #1149, .F. ) ;
#1161 = CYLINDRICAL_SURFACE ( 'NONE', #341, 2.590000000000008740 ) ;
#1162 = CARTESIAN_POINT ( 'NONE',  ( 9.453492713791213459E-22, 45.00000000000000711, 0.000000000000000000 ) ) ;
#1163 = DIRECTION ( 'NONE',  ( -0.000000000000000000, -0.000000000000000000, 1.000000000000000000 ) ) ;
#1164 = ORIENTED_EDGE ( 'NONE', *, *, #355, .F. ) ;
#1165 = CARTESIAN_POINT ( 'NONE',  ( -74.99999999999998579, -40.00000000000002842, -12.50000000000008527 ) ) ;
#1166 = AXIS2_PLACEMENT_3D ( 'NONE', #492, #540, #350 ) ;
#1167 = AXIS2_PLACEMENT_3D ( 'NONE', #571, #1021, #553 ) ;
#1168 = ADVANCED_FACE ( 'NONE', ( #192 ), #381, .T. ) ;
#1169 = VECTOR ( 'NONE', #397, 1000.000000000000000 ) ;
#1170 = DIRECTION ( 'NONE',  ( -0.000000000000000000, -0.000000000000000000, 1.000000000000000000 ) ) ;
#1171 = AXIS2_PLACEMENT_3D ( 'NONE', #226, #396, #306 ) ;
#1172 = FACE_OUTER_BOUND ( 'NONE', #687, .T. ) ;
#1173 = ORIENTED_EDGE ( 'NONE', *, *, #18, .T. ) ;
#1174 = EDGE_CURVE ( 'NONE', #1004, #963, #1031, .T. ) ;
#1175 = EDGE_LOOP ( 'NONE', ( #46, #203, #1025, #1173 ) ) ;
#1176 = LINE ( 'NONE', #721, #635 ) ;
#1177 = LINE ( 'NONE', #1159, #538 ) ;
#1178 = EDGE_LOOP ( 'NONE', ( #909, #668, #139, #1147 ) ) ;
#1179 = EDGE_LOOP ( 'NONE', ( #1085, #29, #225, #758 ) ) ;
#1180 = CARTESIAN_POINT ( 'NONE',  ( -200.4606079858305065, 44.99999999999998579, 0.000000000000000000 ) ) ;
#1181 = CARTESIAN_POINT ( 'NONE',  ( -122.5900000000000034, 40.00000000000000000, -12.50000000000008527 ) ) ;
#1182 = ORIENTED_EDGE ( 'NONE', *, *, #965, .F. ) ;
#1183 = CLOSED_SHELL ( 'NONE', ( #606, #352, #269, #408, #335, #1030, #429, #317, #144, #51, #1168, #723, #510, #267, #560, #253, #661, #298, #683, #295, #25, #986, #169, #505, #486, #446, #1027, #227, #258, #600, #938, #657, #511, #173, #322, #726, #799, #472, #471, #215, #939 ) ) ;
ENDSEC;
END-ISO-10303-21;
