ISO-10303-21;
HEADER;
FILE_DESCRIPTION (( 'STEP AP214' ),
    '1' );
FILE_NAME ('cap of joint 2 piece 2 8526.STEP',
    '2026-08-27T22:10:02',
    ( '' ),
    ( '' ),
    'SwSTEP 2.0',
    'SolidWorks 2026',
    '' );
FILE_SCHEMA (( 'AUTOMOTIVE_DESIGN' ));
ENDSEC;

DATA;
#1 = ORIENTED_EDGE ( 'NONE', *, *, #520, .F. ) ;
#2 = DIRECTION ( 'NONE',  ( 0.000000000000000000, 0.000000000000000000, 1.000000000000000000 ) ) ;
#3 = AXIS2_PLACEMENT_3D ( 'NONE', #1041, #914, #603 ) ;
#4 = CARTESIAN_POINT ( 'NONE',  ( -785.3253627086834285, 930.4875594820456399, 0.000000000000000000 ) ) ;
#5 = EDGE_LOOP ( 'NONE', ( #1183, #1132 ) ) ;
#6 = CIRCLE ( 'NONE', #684, 2.589999999999981206 ) ;
#7 = AXIS2_PLACEMENT_3D ( 'NONE', #412, #23, #501 ) ;
#8 = ORIENTED_EDGE ( 'NONE', *, *, #43, .T. ) ;
#9 = CARTESIAN_POINT ( 'NONE',  ( -723.8390837515136127, 965.4875594820456399, -1.499999923999965290 ) ) ;
#10 = EDGE_LOOP ( 'NONE', ( #21, #179, #935, #318 ) ) ;
#11 = FACE_OUTER_BOUND ( 'NONE', #981, .T. ) ;
#12 = ADVANCED_FACE ( 'NONE', ( #56 ), #143, .T. ) ;
#13 = DIRECTION ( 'NONE',  ( -1.000000000000000000, 0.000000000000000000, -0.000000000000000000 ) ) ;
#14 = ORIENTED_EDGE ( 'NONE', *, *, #689, .F. ) ;
#15 = EDGE_LOOP ( 'NONE', ( #538, #267, #63, #502, #719, #1094 ) ) ;
#16 = CARTESIAN_POINT ( 'NONE',  ( -622.9153627086834604, 970.4875594820456399, -11.49999992399996529 ) ) ;
#17 = EDGE_LOOP ( 'NONE', ( #904, #228, #445, #661 ) ) ;
#18 = CARTESIAN_POINT ( 'NONE',  ( -710.3253627086835422, 970.4875594820456399, -11.49999992399996529 ) ) ;
#19 = LINE ( 'NONE', #621, #131 ) ;
#20 = EDGE_CURVE ( 'NONE', #919, #203, #967, .T. ) ;
#21 = ORIENTED_EDGE ( 'NONE', *, *, #156, .F. ) ;
#22 = ORIENTED_EDGE ( 'NONE', *, *, #304, .T. ) ;
#23 = DIRECTION ( 'NONE',  ( 0.000000000000000000, 0.000000000000000000, -1.000000000000000000 ) ) ;
#24 = EDGE_CURVE ( 'NONE', #65, #1052, #970, .T. ) ;
#25 = CARTESIAN_POINT ( 'NONE',  ( -575.3253627086835422, 975.4875594820456399, 0.000000000000000000 ) ) ;
#26 = CIRCLE ( 'NONE', #1137, 70.74999999999232614 ) ;
#27 = CARTESIAN_POINT ( 'NONE',  ( -730.7308345946048576, 975.4875594820455262, -10.00000000000000000 ) ) ;
#28 = EDGE_LOOP ( 'NONE', ( #956, #725, #244, #1236, #375, #217 ) ) ;
#29 = AXIS2_PLACEMENT_3D ( 'NONE', #176, #192, #992 ) ;
#30 = ORIENTED_EDGE ( 'NONE', *, *, #43, .F. ) ;
#31 = PRODUCT_DEFINITION_SHAPE ( 'NONE', 'NONE',  #1291 ) ;
#32 = AXIS2_PLACEMENT_3D ( 'NONE', #765, #1277, #856 ) ;
#33 = AXIS2_PLACEMENT_3D ( 'NONE', #580, #566, #1290 ) ;
#34 = DIRECTION ( 'NONE',  ( 1.000000000000000000, -0.000000000000000000, 0.000000000000000000 ) ) ;
#35 = DIRECTION ( 'NONE',  ( 0.000000000000000000, 0.000000000000000000, 1.000000000000000000 ) ) ;
#36 = DIRECTION ( 'NONE',  ( -0.000000000000000000, -0.000000000000000000, -1.000000000000000000 ) ) ;
#37 = ORIENTED_EDGE ( 'NONE', *, *, #272, .T. ) ;
#38 = EDGE_LOOP ( 'NONE', ( #713, #306 ) ) ;
#39 = CARTESIAN_POINT ( 'NONE',  ( -742.8989558374905755, 895.4875594820456399, -13.49999992399996529 ) ) ;
#40 = DIRECTION ( 'NONE',  ( -0.000000000000000000, -0.000000000000000000, 1.000000000000000000 ) ) ;
#41 = CARTESIAN_POINT ( 'NONE',  ( -707.7353627086835104, 970.4875594820456399, -11.49999992399996529 ) ) ;
#42 = DIRECTION ( 'NONE',  ( -0.000000000000000000, -0.000000000000000000, -1.000000000000000000 ) ) ;
#43 = EDGE_CURVE ( 'NONE', #205, #601, #178, .T. ) ;
#44 = ORIENTED_EDGE ( 'NONE', *, *, #1148, .T. ) ;
#45 = DIRECTION ( 'NONE',  ( 1.000000000000000000, 0.000000000000000000, 0.000000000000000000 ) ) ;
#46 = DIRECTION ( 'NONE',  ( 0.000000000000000000, 0.000000000000000000, -1.000000000000000000 ) ) ;
#47 = CARTESIAN_POINT ( 'NONE',  ( -753.7025861069995472, 975.4875594820456399, -13.49999992399996529 ) ) ;
#48 = ORIENTED_EDGE ( 'NONE', *, *, #828, .F. ) ;
#49 = AXIS2_PLACEMENT_3D ( 'NONE', #941, #2, #823 ) ;
#50 = ORIENTED_EDGE ( 'NONE', *, *, #1285, .T. ) ;
#51 = CARTESIAN_POINT ( 'NONE',  ( -785.3253627086834285, 930.4875594820456399, -1.499999923999965290 ) ) ;
#52 = CIRCLE ( 'NONE', #642, 2.589999999999870184 ) ;
#53 = DIRECTION ( 'NONE',  ( -1.000000000000000000, 0.000000000000000000, 0.000000000000000000 ) ) ;
#54 = DIRECTION ( 'NONE',  ( 1.000000000000000000, 0.000000000000000000, 0.000000000000000000 ) ) ;
#55 = EDGE_CURVE ( 'NONE', #601, #205, #968, .T. ) ;
#56 = FACE_OUTER_BOUND ( 'NONE', #95, .T. ) ;
#57 = ORIENTED_EDGE ( 'NONE', *, *, #1102, .T. ) ;
#58 = EDGE_CURVE ( 'NONE', #1326, #647, #1191, .T. ) ;
#59 = CARTESIAN_POINT ( 'NONE',  ( -785.3253627086834285, 930.4875594820456399, 0.000000000000000000 ) ) ;
#60 = ORIENTED_EDGE ( 'NONE', *, *, #442, .T. ) ;
#61 = CARTESIAN_POINT ( 'NONE',  ( -785.3253627086834285, 930.4875594820456399, -10.00000000000000000 ) ) ;
#62 = ORIENTED_EDGE ( 'NONE', *, *, #1258, .T. ) ;
#63 = ORIENTED_EDGE ( 'NONE', *, *, #427, .F. ) ;
#64 = CARTESIAN_POINT ( 'NONE',  ( -785.3253627086834285, 930.4875594820456399, -10.00000000000000000 ) ) ;
#65 = VERTEX_POINT ( 'NONE', #1287 ) ;
#66 = ORIENTED_EDGE ( 'NONE', *, *, #68, .T. ) ;
#67 = CIRCLE ( 'NONE', #833, 35.00000000000002842 ) ;
#68 = EDGE_CURVE ( 'NONE', #763, #562, #129, .T. ) ;
#69 = DIRECTION ( 'NONE',  ( -0.000000000000000000, -0.000000000000000000, -1.000000000000000000 ) ) ;
#70 = AXIS2_PLACEMENT_3D ( 'NONE', #1058, #632, #541 ) ;
#71 = PRODUCT_DEFINITION_FORMATION_WITH_SPECIFIED_SOURCE ( 'Symmetric', '', #136, .NOT_KNOWN. ) ;
#72 = DIRECTION ( 'NONE',  ( -0.000000000000000000, -0.000000000000000000, 1.000000000000000000 ) ) ;
#73 = DIRECTION ( 'NONE',  ( -0.000000000000000000, -0.000000000000000000, -1.000000000000000000 ) ) ;
#74 = ORIENTED_EDGE ( 'NONE', *, *, #706, .T. ) ;
#75 = CARTESIAN_POINT ( 'NONE',  ( -785.3253627086834285, 930.4875594820456399, -1.499999923999965290 ) ) ;
#76 = MANIFOLD_SOLID_BREP ( 'Cut-Extrude6', #945 ) ;
#77 = FACE_OUTER_BOUND ( 'NONE', #1079, .T. ) ;
#78 = CARTESIAN_POINT ( 'NONE',  ( -540.6843465573066396, 950.4875594820450715, -11.49999992399996529 ) ) ;
#79 = DIRECTION ( 'NONE',  ( -0.000000000000000000, -0.000000000000000000, -1.000000000000000000 ) ) ;
#80 = ORIENTED_EDGE ( 'NONE', *, *, #965, .F. ) ;
#81 = DIRECTION ( 'NONE',  ( 0.000000000000000000, 0.000000000000000000, -1.000000000000000000 ) ) ;
#82 = CARTESIAN_POINT ( 'NONE',  ( -785.3253627086834285, 930.4875594820456399, -13.49999992399996529 ) ) ;
#83 = PLANE ( 'NONE',  #467 ) ;
#84 = DIRECTION ( 'NONE',  ( 0.000000000000000000, 0.000000000000000000, -1.000000000000000000 ) ) ;
#85 = VECTOR ( 'NONE', #117, 1000.000000000000000 ) ;
#86 = VECTOR ( 'NONE', #1084, 1000.000000000000000 ) ;
#87 = EDGE_CURVE ( 'NONE', #194, #622, #961, .T. ) ;
#88 = CARTESIAN_POINT ( 'NONE',  ( -575.3253627086835422, 930.4875594820456399, 0.000000000000000000 ) ) ;
#89 =( GEOMETRIC_REPRESENTATION_CONTEXT ( 3 ) GLOBAL_UNCERTAINTY_ASSIGNED_CONTEXT ( ( #1170 ) ) GLOBAL_UNIT_ASSIGNED_CONTEXT ( ( #573, #361, #892 ) ) REPRESENTATION_CONTEXT ( 'NONE', 'WORKASPACE' ) );
#90 = PLANE ( 'NONE',  #788 ) ;
#91 = EDGE_LOOP ( 'NONE', ( #1051, #522 ) ) ;
#92 = ORIENTED_EDGE ( 'NONE', *, *, #965, .T. ) ;
#93 = CARTESIAN_POINT ( 'NONE',  ( -785.3253627086834285, 930.4875594820456399, -13.49999992399996529 ) ) ;
#94 = EDGE_CURVE ( 'NONE', #432, #676, #148, .T. ) ;
#95 = EDGE_LOOP ( 'NONE', ( #911, #1232 ) ) ;
#96 = LINE ( 'NONE', #519, #219 ) ;
#97 = ADVANCED_FACE ( 'NONE', ( #482 ), #83, .T. ) ;
#98 = CARTESIAN_POINT ( 'NONE',  ( -617.7353627086836241, 890.4875594820456399, -11.49999992399996529 ) ) ;
#99 = ORIENTED_EDGE ( 'NONE', *, *, #106, .F. ) ;
#100 = CARTESIAN_POINT ( 'NONE',  ( -785.3253627086834285, 930.4875594820456399, 0.000000000000000000 ) ) ;
#101 = ORIENTED_EDGE ( 'NONE', *, *, #106, .T. ) ;
#102 = CARTESIAN_POINT ( 'NONE',  ( -622.9153627086834604, 970.4875594820456399, -11.49999992399996529 ) ) ;
#103 = CARTESIAN_POINT ( 'NONE',  ( -575.3253627086835422, 930.4875594820456399, -283.9163455837991705 ) ) ;
#104 = ORIENTED_EDGE ( 'NONE', *, *, #422, .T. ) ;
#105 = PLANE ( 'NONE',  #368 ) ;
#106 = EDGE_CURVE ( 'NONE', #516, #891, #508, .T. ) ;
#107 = ORIENTED_EDGE ( 'NONE', *, *, #388, .F. ) ;
#108 = PLANE ( 'NONE',  #110 ) ;
#109 = CIRCLE ( 'NONE', #1206, 2.589999999999981206 ) ;
#110 = AXIS2_PLACEMENT_3D ( 'NONE', #426, #218, #620 ) ;
#111 = CYLINDRICAL_SURFACE ( 'NONE', #726, 45.00000000000004263 ) ;
#112 = AXIS2_PLACEMENT_3D ( 'NONE', #737, #1130, #212 ) ;
#113 = AXIS2_PLACEMENT_3D ( 'NONE', #949, #1068, #741 ) ;
#114 = ORIENTED_EDGE ( 'NONE', *, *, #55, .F. ) ;
#115 = CARTESIAN_POINT ( 'NONE',  ( -665.3253627086834285, 890.4875594820456399, -11.49999992399996529 ) ) ;
#116 = ORIENTED_EDGE ( 'NONE', *, *, #1069, .T. ) ;
#117 = DIRECTION ( 'NONE',  ( -1.000000000000000000, 0.000000000000000000, 0.000000000000000000 ) ) ;
#118 = LINE ( 'NONE', #711, #281 ) ;
#119 = VERTEX_POINT ( 'NONE', #785 ) ;
#120 = ORIENTED_EDGE ( 'NONE', *, *, #910, .T. ) ;
#121 = ADVANCED_FACE ( 'NONE', ( #390 ), #90, .T. ) ;
#122 = CARTESIAN_POINT ( 'NONE',  ( -692.0753627086910456, 930.4875594820456399, -1.499999923999965290 ) ) ;
#123 = DIRECTION ( 'NONE',  ( -1.000000000000000000, 0.000000000000000000, 0.000000000000000000 ) ) ;
#124 = CARTESIAN_POINT ( 'NONE',  ( -723.8390837515136127, 895.4875594820456399, -10.00000000000000000 ) ) ;
#125 = VERTEX_POINT ( 'NONE', #694 ) ;
#126 = VERTEX_POINT ( 'NONE', #576 ) ;
#127 = CARTESIAN_POINT ( 'NONE',  ( -785.3253627086834285, 930.4875594820456399, -1.499999923999965290 ) ) ;
#128 = DIRECTION ( 'NONE',  ( 1.000000000000000000, 0.000000000000000000, 0.000000000000000000 ) ) ;
#129 = CIRCLE ( 'NONE', #1246, 70.74999999999232614 ) ;
#130 = EDGE_CURVE ( 'NONE', #374, #745, #26, .T. ) ;
#131 = VECTOR ( 'NONE', #732, 1000.000000000000000 ) ;
#132 = CARTESIAN_POINT ( 'NONE',  ( -538.0943465573075173, 910.4875594820449578, -13.49999992399996529 ) ) ;
#133 = VERTEX_POINT ( 'NONE', #498 ) ;
#134 = VECTOR ( 'NONE', #542, 1000.000000000000000 ) ;
#135 = VERTEX_POINT ( 'NONE', #908 ) ;
#136 = PRODUCT ( 'cap of joint 2 piece 2 8526', 'cap of joint 2 piece 2 8526', '', ( #877 ) ) ;
#137 = AXIS2_PLACEMENT_3D ( 'NONE', #162, #351, #456 ) ;
#138 = VECTOR ( 'NONE', #236, 1000.000000000000000 ) ;
#139 = CYLINDRICAL_SURFACE ( 'NONE', #347, 2.589999999999981206 ) ;
#140 = DIRECTION ( 'NONE',  ( 0.000000000000000000, 0.000000000000000000, -1.000000000000000000 ) ) ;
#141 = CARTESIAN_POINT ( 'NONE',  ( -742.8989558374905755, 895.4875594820456399, -1.499999923999965290 ) ) ;
#142 = ADVANCED_FACE ( 'NONE', ( #895 ), #890, .T. ) ;
#143 = PLANE ( 'NONE',  #365 ) ;
#144 = VERTEX_POINT ( 'NONE', #296 ) ;
#145 = DIRECTION ( 'NONE',  ( -1.000000000000000000, 0.000000000000000000, -0.000000000000000000 ) ) ;
#146 = DIRECTION ( 'NONE',  ( 0.000000000000000000, 0.000000000000000000, -1.000000000000000000 ) ) ;
#147 = CYLINDRICAL_SURFACE ( 'NONE', #241, 2.589999999999981206 ) ;
#148 = LINE ( 'NONE', #549, #1181 ) ;
#149 = VERTEX_POINT ( 'NONE', #994 ) ;
#150 = DIRECTION ( 'NONE',  ( -1.000000000000000000, -0.000000000000000000, -0.000000000000000000 ) ) ;
#151 = APPLICATION_CONTEXT ( 'automotive_design' ) ;
#152 = CARTESIAN_POINT ( 'NONE',  ( -575.3253627086835422, 975.4875594820456399, -283.9163455837991705 ) ) ;
#153 = EDGE_CURVE ( 'NONE', #1088, #1175, #1307, .T. ) ;
#154 = CARTESIAN_POINT ( 'NONE',  ( -785.3253627086834285, 930.4875594820456399, -10.00000000000000000 ) ) ;
#155 = AXIS2_PLACEMENT_3D ( 'NONE', #311, #1037, #13 ) ;
#156 = EDGE_CURVE ( 'NONE', #1135, #1282, #1010, .T. ) ;
#157 = AXIS2_PLACEMENT_3D ( 'NONE', #662, #1081, #253 ) ;
#158 = AXIS2_PLACEMENT_3D ( 'NONE', #64, #465, #611 ) ;
#159 = EDGE_LOOP ( 'NONE', ( #421, #634, #1193, #222, #646, #939, #544, #1122 ) ) ;
#160 = DIRECTION ( 'NONE',  ( -0.000000000000000000, -0.000000000000000000, -1.000000000000000000 ) ) ;
#161 = AXIS2_PLACEMENT_3D ( 'NONE', #288, #794, #271 ) ;
#162 = CARTESIAN_POINT ( 'NONE',  ( -710.3253627086835422, 890.4875594820456399, -11.49999992399996529 ) ) ;
#163 = EDGE_LOOP ( 'NONE', ( #925, #1188, #255, #1254 ) ) ;
#164 = CARTESIAN_POINT ( 'NONE',  ( -575.3253627086835422, 885.4875594820456399, -283.9163455837991705 ) ) ;
#165 = CARTESIAN_POINT ( 'NONE',  ( -753.7025861069995472, 885.4875594820456399, 0.000000000000000000 ) ) ;
#166 = EDGE_LOOP ( 'NONE', ( #431, #1014 ) ) ;
#167 = ADVANCED_FACE ( 'NONE', ( #899 ), #781, .F. ) ;
#168 = CYLINDRICAL_SURFACE ( 'NONE', #557, 45.00000000000004263 ) ;
#169 = ORIENTED_EDGE ( 'NONE', *, *, #58, .T. ) ;
#170 = CARTESIAN_POINT ( 'NONE',  ( -665.3253627086834285, 890.4875594820456399, -11.49999992399996529 ) ) ;
#171 = ADVANCED_BREP_SHAPE_REPRESENTATION ( 'cap of joint 2 piece 2 8526', ( #76, #33 ), #89 ) ;
#172 = ORIENTED_EDGE ( 'NONE', *, *, #828, .T. ) ;
#173 = EDGE_CURVE ( 'NONE', #647, #798, #67, .T. ) ;
#174 = ORIENTED_EDGE ( 'NONE', *, *, #87, .T. ) ;
#175 = DIRECTION ( 'NONE',  ( -1.000000000000000000, 0.000000000000000000, 0.000000000000000000 ) ) ;
#176 = CARTESIAN_POINT ( 'NONE',  ( -785.3253627086834285, 885.4875594820456399, -283.9163455837991705 ) ) ;
#177 = DIRECTION ( 'NONE',  ( -1.000000000000000000, 0.000000000000000000, -0.000000000000000000 ) ) ;
#178 = CIRCLE ( 'NONE', #1095, 2.589999999999981206 ) ;
#179 = ORIENTED_EDGE ( 'NONE', *, *, #590, .F. ) ;
#180 = AXIS2_PLACEMENT_3D ( 'NONE', #305, #1240, #1050 ) ;
#181 = CIRCLE ( 'NONE', #926, 2.589999999999870184 ) ;
#182 = CYLINDRICAL_SURFACE ( 'NONE', #730, 2.589999999999981206 ) ;
#183 = CIRCLE ( 'NONE', #927, 2.589999999999981206 ) ;
#184 = AXIS2_PLACEMENT_3D ( 'NONE', #51, #843, #631 ) ;
#185 = CARTESIAN_POINT ( 'NONE',  ( -730.7308345946048576, 885.4875594820457536, 0.000000000000000000 ) ) ;
#186 = DIRECTION ( 'NONE',  ( -0.000000000000000000, -0.000000000000000000, 1.000000000000000000 ) ) ;
#187 = DIRECTION ( 'NONE',  ( -0.000000000000000000, -0.000000000000000000, -1.000000000000000000 ) ) ;
#188 = CARTESIAN_POINT ( 'NONE',  ( -617.7353627086836241, 970.4875594820456399, -11.49999992399996529 ) ) ;
#189 = DIRECTION ( 'NONE',  ( 1.000000000000000000, -0.000000000000000000, -0.000000000000000000 ) ) ;
#190 = LINE ( 'NONE', #1195, #346 ) ;
#191 = EDGE_CURVE ( 'NONE', #135, #473, #1053, .T. ) ;
#192 = DIRECTION ( 'NONE',  ( 0.000000000000000000, -1.000000000000000000, 0.000000000000000000 ) ) ;
#193 = DIRECTION ( 'NONE',  ( 0.000000000000000000, 0.000000000000000000, -1.000000000000000000 ) ) ;
#194 = VERTEX_POINT ( 'NONE', #1319 ) ;
#195 = EDGE_CURVE ( 'NONE', #1224, #763, #425, .T. ) ;
#196 = CIRCLE ( 'NONE', #1138, 70.74999999999232614 ) ;
#197 = FACE_OUTER_BOUND ( 'NONE', #439, .T. ) ;
#198 = ORIENTED_EDGE ( 'NONE', *, *, #1279, .T. ) ;
#199 = VECTOR ( 'NONE', #707, 1000.000000000000000 ) ;
#200 = DIRECTION ( 'NONE',  ( 1.000000000000000000, 0.000000000000000000, 0.000000000000000000 ) ) ;
#201 = EDGE_CURVE ( 'NONE', #511, #366, #279, .T. ) ;
#202 = DIRECTION ( 'NONE',  ( -0.000000000000000000, -0.000000000000000000, -1.000000000000000000 ) ) ;
#203 = VERTEX_POINT ( 'NONE', #1219 ) ;
#204 = DIRECTION ( 'NONE',  ( -0.000000000000000000, -0.000000000000000000, -1.000000000000000000 ) ) ;
#205 = VERTEX_POINT ( 'NONE', #681 ) ;
#206 = DIRECTION ( 'NONE',  ( -1.000000000000000000, 0.000000000000000000, 0.000000000000000000 ) ) ;
#207 = CARTESIAN_POINT ( 'NONE',  ( -575.3253627086835422, 965.4875594820456399, -1.499999923999965290 ) ) ;
#208 = ORIENTED_EDGE ( 'NONE', *, *, #201, .F. ) ;
#209 = EDGE_CURVE ( 'NONE', #1135, #1158, #947, .T. ) ;
#210 = LINE ( 'NONE', #1276, #537 ) ;
#211 = EDGE_LOOP ( 'NONE', ( #208, #668, #1163, #235, #1149, #571, #169, #1168 ) ) ;
#212 = DIRECTION ( 'NONE',  ( -1.000000000000000000, 0.000000000000000000, 0.000000000000000000 ) ) ;
#213 = CARTESIAN_POINT ( 'NONE',  ( -575.3253627086835422, 965.4875594820456399, -1.499999923999965290 ) ) ;
#214 = VERTEX_POINT ( 'NONE', #1100 ) ;
#215 = ORIENTED_EDGE ( 'NONE', *, *, #1019, .F. ) ;
#216 = DIRECTION ( 'NONE',  ( -0.000000000000000000, -0.000000000000000000, -1.000000000000000000 ) ) ;
#217 = ORIENTED_EDGE ( 'NONE', *, *, #327, .F. ) ;
#218 = DIRECTION ( 'NONE',  ( 0.000000000000000000, -1.000000000000000000, 0.000000000000000000 ) ) ;
#219 = VECTOR ( 'NONE', #930, 1000.000000000000000 ) ;
#220 = CARTESIAN_POINT ( 'NONE',  ( -785.3253627086834285, 930.4875594820456399, -10.00000000000000000 ) ) ;
#221 = EDGE_CURVE ( 'NONE', #326, #1215, #1018, .T. ) ;
#222 = ORIENTED_EDGE ( 'NONE', *, *, #1040, .F. ) ;
#223 = AXIS2_PLACEMENT_3D ( 'NONE', #880, #81, #175 ) ;
#224 = ORIENTED_EDGE ( 'NONE', *, *, #779, .T. ) ;
#225 = DIRECTION ( 'NONE',  ( -0.000000000000000000, -0.000000000000000000, -1.000000000000000000 ) ) ;
#226 = FACE_OUTER_BOUND ( 'NONE', #734, .T. ) ;
#227 = DIRECTION ( 'NONE',  ( -1.000000000000000000, -0.000000000000000000, -0.000000000000000000 ) ) ;
#228 = ORIENTED_EDGE ( 'NONE', *, *, #221, .T. ) ;
#229 = EDGE_LOOP ( 'NONE', ( #48, #612 ) ) ;
#230 = CARTESIAN_POINT ( 'NONE',  ( -530.3253627086834285, 930.4875594820456399, -283.9163455837991705 ) ) ;
#231 = EDGE_CURVE ( 'NONE', #831, #657, #196, .T. ) ;
#232 = DIRECTION ( 'NONE',  ( 0.000000000000000000, 0.000000000000000000, -1.000000000000000000 ) ) ;
#233 = CARTESIAN_POINT ( 'NONE',  ( -698.8929469146158908, 895.4875594820456399, -1.499999923999965290 ) ) ;
#234 = ORIENTED_EDGE ( 'NONE', *, *, #1040, .T. ) ;
#235 = ORIENTED_EDGE ( 'NONE', *, *, #567, .T. ) ;
#236 = DIRECTION ( 'NONE',  ( -0.000000000000000000, -0.000000000000000000, 1.000000000000000000 ) ) ;
#237 = EDGE_CURVE ( 'NONE', #1255, #1045, #614, .T. ) ;
#238 = LINE ( 'NONE', #640, #301 ) ;
#239 = VECTOR ( 'NONE', #42, 1000.000000000000000 ) ;
#240 = CARTESIAN_POINT ( 'NONE',  ( -665.3253627086834285, 890.4875594820456399, -11.49999992399996529 ) ) ;
#241 = AXIS2_PLACEMENT_3D ( 'NONE', #240, #36, #1286 ) ;
#242 = DIRECTION ( 'NONE',  ( 1.000000000000000000, 0.000000000000000000, 0.000000000000000000 ) ) ;
#243 = AXIS2_PLACEMENT_3D ( 'NONE', #934, #204, #405 ) ;
#244 = ORIENTED_EDGE ( 'NONE', *, *, #802, .T. ) ;
#245 = DIRECTION ( 'NONE',  ( 0.000000000000000000, 0.000000000000000000, -1.000000000000000000 ) ) ;
#246 = DIRECTION ( 'NONE',  ( 0.000000000000000000, 0.000000000000000000, 1.000000000000000000 ) ) ;
#247 = DIRECTION ( 'NONE',  ( 0.000000000000000000, 0.000000000000000000, -1.000000000000000000 ) ) ;
#248 = DIRECTION ( 'NONE',  ( -0.000000000000000000, -0.000000000000000000, -1.000000000000000000 ) ) ;
#249 = EDGE_CURVE ( 'NONE', #473, #340, #954, .T. ) ;
#250 = EDGE_LOOP ( 'NONE', ( #1129, #696 ) ) ;
#251 = DIRECTION ( 'NONE',  ( -1.000000000000000000, 0.000000000000000000, 0.000000000000000000 ) ) ;
#252 = DIRECTION ( 'NONE',  ( -0.000000000000000000, -0.000000000000000000, -1.000000000000000000 ) ) ;
#253 = DIRECTION ( 'NONE',  ( -1.000000000000000000, 0.000000000000000000, 0.000000000000000000 ) ) ;
#254 = DIRECTION ( 'NONE',  ( 1.000000000000000000, 0.000000000000000000, 0.000000000000000000 ) ) ;
#255 = ORIENTED_EDGE ( 'NONE', *, *, #1002, .T. ) ;
#256 = DIRECTION ( 'NONE',  ( 1.000000000000000000, 0.000000000000000000, -0.000000000000000000 ) ) ;
#257 = LINE ( 'NONE', #152, #1099 ) ;
#258 = VERTEX_POINT ( 'NONE', #410 ) ;
#259 = CARTESIAN_POINT ( 'NONE',  ( -703.6518510907875452, 975.4875594820455262, -10.00000000000000000 ) ) ;
#260 = EDGE_CURVE ( 'NONE', #1224, #1026, #627, .T. ) ;
#261 = EDGE_LOOP ( 'NONE', ( #740, #722, #1062, #172 ) ) ;
#262 = AXIS2_PLACEMENT_3D ( 'NONE', #302, #838, #123 ) ;
#263 = CIRCLE ( 'NONE', #858, 93.24999999999239719 ) ;
#264 = EDGE_LOOP ( 'NONE', ( #1317, #530, #876, #50, #1275 ) ) ;
#265 = AXIS2_PLACEMENT_3D ( 'NONE', #127, #434, #251 ) ;
#266 = CARTESIAN_POINT ( 'NONE',  ( -753.7025861069995472, 975.4875594820456399, 0.000000000000000000 ) ) ;
#267 = ORIENTED_EDGE ( 'NONE', *, *, #1327, .T. ) ;
#268 = DIRECTION ( 'NONE',  ( -1.000000000000000000, 0.000000000000000000, -0.000000000000000000 ) ) ;
#269 = PRESENTATION_STYLE_ASSIGNMENT (( #656 ) ) ;
#270 = ORIENTED_EDGE ( 'NONE', *, *, #1046, .T. ) ;
#271 = DIRECTION ( 'NONE',  ( 1.000000000000000000, 0.000000000000000000, 0.000000000000000000 ) ) ;
#272 = EDGE_CURVE ( 'NONE', #214, #1289, #401, .T. ) ;
#273 = DIRECTION ( 'NONE',  ( -1.000000000000000000, 0.000000000000000000, 0.000000000000000000 ) ) ;
#274 = DIRECTION ( 'NONE',  ( 0.000000000000000000, 0.000000000000000000, -1.000000000000000000 ) ) ;
#275 = ORIENTED_EDGE ( 'NONE', *, *, #806, .F. ) ;
#276 = CARTESIAN_POINT ( 'NONE',  ( -575.3253627086835422, 895.4875594820456399, -1.499999923999965290 ) ) ;
#277 = ADVANCED_FACE ( 'NONE', ( #1023 ), #111, .T. ) ;
#278 = FACE_BOUND ( 'NONE', #957, .T. ) ;
#279 = LINE ( 'NONE', #1105, #596 ) ;
#280 = AXIS2_PLACEMENT_3D ( 'NONE', #1274, #248, #254 ) ;
#281 = VECTOR ( 'NONE', #824, 1000.000000000000000 ) ;
#282 = AXIS2_PLACEMENT_3D ( 'NONE', #920, #731, #206 ) ;
#283 = DIRECTION ( 'NONE',  ( 1.000000000000000000, 0.000000000000000000, 0.000000000000000000 ) ) ;
#284 = VECTOR ( 'NONE', #150, 1000.000000000000000 ) ;
#285 = FACE_BOUND ( 'NONE', #250, .T. ) ;
#286 = DIRECTION ( 'NONE',  ( 1.000000000000000000, 0.000000000000000000, 0.000000000000000000 ) ) ;
#287 = EDGE_CURVE ( 'NONE', #1158, #1083, #810, .T. ) ;
#288 = CARTESIAN_POINT ( 'NONE',  ( -785.3253627086834285, 930.4875594820456399, -10.00000000000000000 ) ) ;
#289 = DIRECTION ( 'NONE',  ( 0.000000000000000000, 0.000000000000000000, -1.000000000000000000 ) ) ;
#290 = ADVANCED_FACE ( 'NONE', ( #931 ), #1234, .T. ) ;
#291 = DIRECTION ( 'NONE',  ( -1.000000000000000000, 0.000000000000000000, -0.000000000000000000 ) ) ;
#292 = EDGE_LOOP ( 'NONE', ( #360, #841, #1315, #74 ) ) ;
#293 = DIRECTION ( 'NONE',  ( -1.000000000000000000, 0.000000000000000000, 0.000000000000000000 ) ) ;
#294 = VERTEX_POINT ( 'NONE', #233 ) ;
#295 = DIRECTION ( 'NONE',  ( -0.000000000000000000, -0.000000000000000000, -1.000000000000000000 ) ) ;
#296 = CARTESIAN_POINT ( 'NONE',  ( -707.7353627086835104, 890.4875594820456399, -11.49999992399996529 ) ) ;
#297 = VECTOR ( 'NONE', #1160, 1000.000000000000000 ) ;
#298 = DIRECTION ( 'NONE',  ( -1.000000000000000000, 0.000000000000000000, 0.000000000000000000 ) ) ;
#299 = CIRCLE ( 'NONE', #1054, 93.24999999999239719 ) ;
#300 = EDGE_LOOP ( 'NONE', ( #819, #37, #57, #174, #1133, #416, #1016, #793 ) ) ;
#301 = VECTOR ( 'NONE', #40, 1000.000000000000000 ) ;
#302 = CARTESIAN_POINT ( 'NONE',  ( -540.6843465573074354, 910.4875594820449578, -11.49999992399996529 ) ) ;
#303 = AXIS2_PLACEMENT_3D ( 'NONE', #424, #1263, #256 ) ;
#304 = EDGE_CURVE ( 'NONE', #622, #562, #922, .T. ) ;
#305 = CARTESIAN_POINT ( 'NONE',  ( -540.6843465573066396, 950.4875594820450715, -13.49999992399996529 ) ) ;
#306 = ORIENTED_EDGE ( 'NONE', *, *, #1002, .F. ) ;
#307 = ORIENTED_EDGE ( 'NONE', *, *, #582, .T. ) ;
#308 = CARTESIAN_POINT ( 'NONE',  ( -710.3253627086835422, 890.4875594820456399, -11.49999992399996529 ) ) ;
#309 = ORIENTED_EDGE ( 'NONE', *, *, #1194, .T. ) ;
#310 = CYLINDRICAL_SURFACE ( 'NONE', #262, 2.589999999999981206 ) ;
#311 = CARTESIAN_POINT ( 'NONE',  ( -665.3253627086834285, 970.4875594820456399, -11.49999992399996529 ) ) ;
#312 = VERTEX_POINT ( 'NONE', #717 ) ;
#313 = ORIENTED_EDGE ( 'NONE', *, *, #520, .T. ) ;
#314 = DIRECTION ( 'NONE',  ( 0.000000000000000000, 0.000000000000000000, 1.000000000000000000 ) ) ;
#315 = ORIENTED_EDGE ( 'NONE', *, *, #156, .T. ) ;
#316 = DIRECTION ( 'NONE',  ( -1.000000000000000000, 0.000000000000000000, 0.000000000000000000 ) ) ;
#317 = CARTESIAN_POINT ( 'NONE',  ( -622.9153627086834604, 890.4875594820456399, -11.49999992399996529 ) ) ;
#318 = ORIENTED_EDGE ( 'NONE', *, *, #462, .T. ) ;
#319 = VECTOR ( 'NONE', #73, 1000.000000000000000 ) ;
#320 = FACE_OUTER_BOUND ( 'NONE', #10, .T. ) ;
#321 = DIRECTION ( 'NONE',  ( -1.000000000000000000, 0.000000000000000000, -0.000000000000000000 ) ) ;
#322 = VECTOR ( 'NONE', #436, 1000.000000000000000 ) ;
#323 = CIRCLE ( 'NONE', #950, 55.00000000000004974 ) ;
#324 = DIRECTION ( 'NONE',  ( -0.000000000000000000, -0.000000000000000000, 1.000000000000000000 ) ) ;
#325 = ORIENTED_EDGE ( 'NONE', *, *, #209, .T. ) ;
#326 = VERTEX_POINT ( 'NONE', #633 ) ;
#327 = EDGE_CURVE ( 'NONE', #511, #135, #118, .T. ) ;
#328 = FACE_OUTER_BOUND ( 'NONE', #846, .T. ) ;
#329 = DIRECTION ( 'NONE',  ( -0.000000000000000000, -0.000000000000000000, -1.000000000000000000 ) ) ;
#330 = DIRECTION ( 'NONE',  ( -0.000000000000000000, -0.000000000000000000, -1.000000000000000000 ) ) ;
#331 = ORIENTED_EDGE ( 'NONE', *, *, #260, .T. ) ;
#332 = ADVANCED_FACE ( 'NONE', ( #937 ), #528, .F. ) ;
#333 = EDGE_LOOP ( 'NONE', ( #872, #1 ) ) ;
#334 = EDGE_CURVE ( 'NONE', #1282, #1083, #554, .T. ) ;
#335 = CARTESIAN_POINT ( 'NONE',  ( -742.8989558374905755, 895.4875594820456399, -1.499999923999965290 ) ) ;
#336 = CARTESIAN_POINT ( 'NONE',  ( -710.3253627086835422, 970.4875594820456399, -11.49999992399996529 ) ) ;
#337 = FACE_OUTER_BOUND ( 'NONE', #483, .T. ) ;
#338 = ORIENTED_EDGE ( 'NONE', *, *, #1172, .T. ) ;
#339 = VERTEX_POINT ( 'NONE', #317 ) ;
#340 = VERTEX_POINT ( 'NONE', #724 ) ;
#341 = CARTESIAN_POINT ( 'NONE',  ( -730.7308345946048576, 975.4875594820455262, 0.000000000000000000 ) ) ;
#342 = CARTESIAN_POINT ( 'NONE',  ( -785.3253627086834285, 930.4875594820456399, -10.00000000000000000 ) ) ;
#343 = LINE ( 'NONE', #358, #729 ) ;
#344 = EDGE_CURVE ( 'NONE', #366, #647, #19, .T. ) ;
#345 = CIRCLE ( 'NONE', #991, 45.00000000000004263 ) ;
#346 = VECTOR ( 'NONE', #491, 1000.000000000000000 ) ;
#347 = AXIS2_PLACEMENT_3D ( 'NONE', #736, #978, #440 ) ;
#348 = VERTEX_POINT ( 'NONE', #132 ) ;
#349 = CARTESIAN_POINT ( 'NONE',  ( -575.3253627086835422, 975.4875594820456399, -13.49999992399997240 ) ) ;
#350 = UNCERTAINTY_MEASURE_WITH_UNIT (LENGTH_MEASURE( 1.000000000000000082E-05 ), #1266, 'distance_accuracy_value', 'NONE');
#351 = DIRECTION ( 'NONE',  ( -0.000000000000000000, -0.000000000000000000, -1.000000000000000000 ) ) ;
#352 = CARTESIAN_POINT ( 'NONE',  ( -698.8929469146158908, 965.4875594820456399, -1.499999923999965290 ) ) ;
#353 = DIRECTION ( 'NONE',  ( 0.000000000000000000, 0.000000000000000000, -1.000000000000000000 ) ) ;
#354 = ORIENTED_EDGE ( 'NONE', *, *, #567, .F. ) ;
#355 = LINE ( 'NONE', #230, #514 ) ;
#356 = DIRECTION ( 'NONE',  ( 1.000000000000000000, 0.000000000000000000, 0.000000000000000000 ) ) ;
#357 = ADVANCED_FACE ( 'NONE', ( #1126 ), #535, .T. ) ;
#358 = CARTESIAN_POINT ( 'NONE',  ( -538.0943465573075173, 910.4875594820449578, -11.49999992399996529 ) ) ;
#359 = ORIENTED_EDGE ( 'NONE', *, *, #805, .T. ) ;
#360 = ORIENTED_EDGE ( 'NONE', *, *, #442, .F. ) ;
#361 =( NAMED_UNIT ( * ) PLANE_ANGLE_UNIT ( ) SI_UNIT ( $, .RADIAN. ) );
#362 = DIRECTION ( 'NONE',  ( -1.000000000000000000, 0.000000000000000000, 0.000000000000000000 ) ) ;
#363 = ORIENTED_EDGE ( 'NONE', *, *, #953, .F. ) ;
#364 = CARTESIAN_POINT ( 'NONE',  ( -730.7308345946048576, 975.4875594820455262, -10.00000000000000000 ) ) ;
#365 = AXIS2_PLACEMENT_3D ( 'NONE', #463, #869, #1180 ) ;
#366 = VERTEX_POINT ( 'NONE', #207 ) ;
#367 = VECTOR ( 'NONE', #874, 1000.000000000000000 ) ;
#368 = AXIS2_PLACEMENT_3D ( 'NONE', #100, #314, #928 ) ;
#369 = EDGE_CURVE ( 'NONE', #798, #1289, #1131, .T. ) ;
#370 = ORIENTED_EDGE ( 'NONE', *, *, #617, .F. ) ;
#371 = CIRCLE ( 'NONE', #995, 2.589999999999981206 ) ;
#372 = DIRECTION ( 'NONE',  ( 0.000000000000000000, 0.000000000000000000, 1.000000000000000000 ) ) ;
#373 = LINE ( 'NONE', #673, #727 ) ;
#374 = VERTEX_POINT ( 'NONE', #124 ) ;
#375 = ORIENTED_EDGE ( 'NONE', *, *, #191, .F. ) ;
#376 = EDGE_CURVE ( 'NONE', #507, #1224, #943, .T. ) ;
#377 = LINE ( 'NONE', #391, #775 ) ;
#378 = CARTESIAN_POINT ( 'NONE',  ( -714.5753627086911592, 930.4875594820456399, -1.499999923999965290 ) ) ;
#379 = CARTESIAN_POINT ( 'NONE',  ( -538.0943465573067215, 950.4875594820450715, -11.49999992399996529 ) ) ;
#380 = DIRECTION ( 'NONE',  ( 0.000000000000000000, 0.000000000000000000, -1.000000000000000000 ) ) ;
#381 = DIRECTION ( 'NONE',  ( 0.000000000000000000, 0.000000000000000000, 1.000000000000000000 ) ) ;
#382 = DIRECTION ( 'NONE',  ( 0.000000000000000000, 0.000000000000000000, 1.000000000000000000 ) ) ;
#383 = ADVANCED_FACE ( 'NONE', ( #839 ), #1087, .T. ) ;
#384 =( GEOMETRIC_REPRESENTATION_CONTEXT ( 3 ) GLOBAL_UNCERTAINTY_ASSIGNED_CONTEXT ( ( #350 ) ) GLOBAL_UNIT_ASSIGNED_CONTEXT ( ( #1266, #756, #1082 ) ) REPRESENTATION_CONTEXT ( 'NONE', 'WORKASPACE' ) );
#385 = AXIS2_PLACEMENT_3D ( 'NONE', #494, #382, #1210 ) ;
#386 = CARTESIAN_POINT ( 'NONE',  ( -723.8390837515136127, 895.4875594820456399, -10.00000000000000000 ) ) ;
#387 = AXIS2_PLACEMENT_3D ( 'NONE', #778, #1001, #997 ) ;
#388 = EDGE_CURVE ( 'NONE', #125, #832, #109, .T. ) ;
#389 = CARTESIAN_POINT ( 'NONE',  ( -753.7025861069995472, 885.4875594820456399, 0.000000000000000000 ) ) ;
#390 = FACE_OUTER_BOUND ( 'NONE', #1198, .T. ) ;
#391 = CARTESIAN_POINT ( 'NONE',  ( -707.7353627086835104, 890.4875594820456399, -11.49999992399996529 ) ) ;
#392 = ORIENTED_EDGE ( 'NONE', *, *, #602, .F. ) ;
#393 = DIRECTION ( 'NONE',  ( -1.000000000000000000, 0.000000000000000000, 0.000000000000000000 ) ) ;
#394 = ADVANCED_FACE ( 'NONE', ( #337 ), #147, .F. ) ;
#395 = CARTESIAN_POINT ( 'NONE',  ( -785.3253627086834285, 930.4875594820456399, 0.000000000000000000 ) ) ;
#396 = ORIENTED_EDGE ( 'NONE', *, *, #209, .F. ) ;
#397 = CARTESIAN_POINT ( 'NONE',  ( -543.2743465573066715, 950.4875594820450715, -11.49999992399996529 ) ) ;
#398 = ADVANCED_FACE ( 'NONE', ( #670 ), #1190, .F. ) ;
#399 = ORIENTED_EDGE ( 'NONE', *, *, #195, .T. ) ;
#400 = FACE_OUTER_BOUND ( 'NONE', #1261, .T. ) ;
#401 = LINE ( 'NONE', #1139, #1115 ) ;
#402 = EDGE_LOOP ( 'NONE', ( #699, #198, #354, #988, #1249, #399 ) ) ;
#403 = ORIENTED_EDGE ( 'NONE', *, *, #817, .T. ) ;
#404 = VECTOR ( 'NONE', #227, 1000.000000000000000 ) ;
#405 = DIRECTION ( 'NONE',  ( 1.000000000000000000, 0.000000000000000000, 0.000000000000000000 ) ) ;
#406 = CIRCLE ( 'NONE', #791, 2.589999999999981206 ) ;
#407 = ORIENTED_EDGE ( 'NONE', *, *, #602, .T. ) ;
#408 = CIRCLE ( 'NONE', #705, 2.589999999999981206 ) ;
#409 = DIRECTION ( 'NONE',  ( -0.000000000000000000, -0.000000000000000000, -1.000000000000000000 ) ) ;
#410 = CARTESIAN_POINT ( 'NONE',  ( -530.3253627086834285, 930.4875594820456399, 0.000000000000000000 ) ) ;
#411 = ORIENTED_EDGE ( 'NONE', *, *, #623, .T. ) ;
#412 = CARTESIAN_POINT ( 'NONE',  ( -785.3253627086834285, 930.4875594820456399, -13.49999992399996529 ) ) ;
#413 = ORIENTED_EDGE ( 'NONE', *, *, #993, .T. ) ;
#414 = CARTESIAN_POINT ( 'NONE',  ( -712.9153627086834604, 970.4875594820456399, -13.49999992399996529 ) ) ;
#415 = CARTESIAN_POINT ( 'NONE',  ( -785.3253627086834285, 885.4875594820456399, 0.000000000000000000 ) ) ;
#416 = ORIENTED_EDGE ( 'NONE', *, *, #1299, .T. ) ;
#417 = LINE ( 'NONE', #1216, #951 ) ;
#418 = CYLINDRICAL_SURFACE ( 'NONE', #3, 2.589999999999981206 ) ;
#419 = DIRECTION ( 'NONE',  ( -0.000000000000000000, -0.000000000000000000, 1.000000000000000000 ) ) ;
#420 = EDGE_LOOP ( 'NONE', ( #505, #392, #403, #370 ) ) ;
#421 = ORIENTED_EDGE ( 'NONE', *, *, #1299, .F. ) ;
#422 = EDGE_CURVE ( 'NONE', #586, #516, #570, .T. ) ;
#423 = MECHANICAL_DESIGN_GEOMETRIC_PRESENTATION_REPRESENTATION (  '', ( #770 ), #384 ) ;
#424 = CARTESIAN_POINT ( 'NONE',  ( -785.3253627086834285, 930.4875594820456399, -10.00000000000000000 ) ) ;
#425 = CIRCLE ( 'NONE', #1308, 70.74999999999232614 ) ;
#426 = CARTESIAN_POINT ( 'NONE',  ( -742.8989558374905755, 895.4875594820456399, -1.499999923999965290 ) ) ;
#427 = EDGE_CURVE ( 'NONE', #126, #294, #976, .T. ) ;
#428 = CIRCLE ( 'NONE', #618, 2.589999999999981206 ) ;
#429 = AXIS2_PLACEMENT_3D ( 'NONE', #1039, #225, #293 ) ;
#430 = DIRECTION ( 'NONE',  ( -0.000000000000000000, -0.000000000000000000, 1.000000000000000000 ) ) ;
#431 = ORIENTED_EDGE ( 'NONE', *, *, #1192, .T. ) ;
#432 = VERTEX_POINT ( 'NONE', #1259 ) ;
#433 = EDGE_CURVE ( 'NONE', #1255, #1326, #744, .T. ) ;
#434 = DIRECTION ( 'NONE',  ( -0.000000000000000000, -0.000000000000000000, 1.000000000000000000 ) ) ;
#435 = DIRECTION ( 'NONE',  ( -1.000000000000000000, 0.000000000000000000, 0.000000000000000000 ) ) ;
#436 = DIRECTION ( 'NONE',  ( -0.000000000000000000, -0.000000000000000000, -1.000000000000000000 ) ) ;
#437 = ORIENTED_EDGE ( 'NONE', *, *, #153, .T. ) ;
#438 = EDGE_LOOP ( 'NONE', ( #757, #1124, #1074, #572 ) ) ;
#439 = EDGE_LOOP ( 'NONE', ( #1248, #309, #529, #460, #1229, #932 ) ) ;
#440 = DIRECTION ( 'NONE',  ( -1.000000000000000000, 0.000000000000000000, 0.000000000000000000 ) ) ;
#441 = PLANE ( 'NONE',  #1032 ) ;
#442 = EDGE_CURVE ( 'NONE', #149, #312, #1157, .T. ) ;
#443 = LINE ( 'NONE', #767, #450 ) ;
#444 = FILL_AREA_STYLE_COLOUR ( '', #679 ) ;
#445 = ORIENTED_EDGE ( 'NONE', *, *, #863, .T. ) ;
#446 = CARTESIAN_POINT ( 'NONE',  ( -785.3253627086834285, 885.4875594820456399, 0.000000000000000000 ) ) ;
#447 = CARTESIAN_POINT ( 'NONE',  ( -620.3253627086835422, 970.4875594820456399, -11.49999992399996529 ) ) ;
#448 = VECTOR ( 'NONE', #430, 1000.000000000000000 ) ;
#449 = DIRECTION ( 'NONE',  ( 0.000000000000000000, 0.000000000000000000, 1.000000000000000000 ) ) ;
#450 = VECTOR ( 'NONE', #1178, 1000.000000000000000 ) ;
#451 = ORIENTED_EDGE ( 'NONE', *, *, #974, .T. ) ;
#452 = AXIS2_PLACEMENT_3D ( 'NONE', #545, #648, #963 ) ;
#453 = EDGE_LOOP ( 'NONE', ( #772, #325 ) ) ;
#454 = CARTESIAN_POINT ( 'NONE',  ( -538.0943465573067215, 950.4875594820450715, -13.49999992399996529 ) ) ;
#455 = EDGE_CURVE ( 'NONE', #432, #149, #556, .T. ) ;
#456 = DIRECTION ( 'NONE',  ( -1.000000000000000000, 0.000000000000000000, 0.000000000000000000 ) ) ;
#457 = DIRECTION ( 'NONE',  ( -1.000000000000000000, 0.000000000000000000, 0.000000000000000000 ) ) ;
#458 = EDGE_LOOP ( 'NONE', ( #1306, #104, #101, #558 ) ) ;
#459 = CYLINDRICAL_SURFACE ( 'NONE', #70, 2.589999999999981206 ) ;
#460 = ORIENTED_EDGE ( 'NONE', *, *, #617, .T. ) ;
#461 = DIRECTION ( 'NONE',  ( -1.000000000000000000, 0.000000000000000000, 0.000000000000000000 ) ) ;
#462 = EDGE_CURVE ( 'NONE', #1083, #1282, #534, .T. ) ;
#463 = CARTESIAN_POINT ( 'NONE',  ( -665.3253627086834285, 890.4875594820456399, -11.49999992399996529 ) ) ;
#464 = VERTEX_POINT ( 'NONE', #563 ) ;
#465 = DIRECTION ( 'NONE',  ( -0.000000000000000000, -0.000000000000000000, 1.000000000000000000 ) ) ;
#466 = CARTESIAN_POINT ( 'NONE',  ( -620.3253627086835422, 970.4875594820456399, -11.49999992399996529 ) ) ;
#467 = AXIS2_PLACEMENT_3D ( 'NONE', #1325, #1108, #291 ) ;
#468 = VECTOR ( 'NONE', #830, 1000.000000000000000 ) ;
#469 = ADVANCED_FACE ( 'NONE', ( #1278 ), #548, .T. ) ;
#470 = DIRECTION ( 'NONE',  ( -0.000000000000000000, -0.000000000000000000, -1.000000000000000000 ) ) ;
#471 = AXIS2_PLACEMENT_3D ( 'NONE', #1114, #1008, #575 ) ;
#472 = VECTOR ( 'NONE', #69, 1000.000000000000000 ) ;
#473 = VERTEX_POINT ( 'NONE', #259 ) ;
#474 = AXIS2_PLACEMENT_3D ( 'NONE', #308, #517, #298 ) ;
#475 = DIRECTION ( 'NONE',  ( -0.000000000000000000, -0.000000000000000000, -1.000000000000000000 ) ) ;
#476 = DIRECTION ( 'NONE',  ( -1.000000000000000000, 0.000000000000000000, 0.000000000000000000 ) ) ;
#477 = DIRECTION ( 'NONE',  ( -1.000000000000000000, 0.000000000000000000, 0.000000000000000000 ) ) ;
#478 = ORIENTED_EDGE ( 'NONE', *, *, #953, .T. ) ;
#479 = DIRECTION ( 'NONE',  ( -0.000000000000000000, -0.000000000000000000, -1.000000000000000000 ) ) ;
#480 = EDGE_CURVE ( 'NONE', #1113, #348, #343, .T. ) ;
#481 = DIRECTION ( 'NONE',  ( 0.000000000000000000, 0.000000000000000000, -1.000000000000000000 ) ) ;
#482 = FACE_OUTER_BOUND ( 'NONE', #264, .T. ) ;
#483 = EDGE_LOOP ( 'NONE', ( #107, #120, #1089, #1141 ) ) ;
#484 = CYLINDRICAL_SURFACE ( 'NONE', #1209, 35.00000000000002842 ) ;
#485 = PLANE ( 'NONE',  #471 ) ;
#486 = DIRECTION ( 'NONE',  ( 0.000000000000000000, 0.000000000000000000, -1.000000000000000000 ) ) ;
#487 = VERTEX_POINT ( 'NONE', #47 ) ;
#488 = VECTOR ( 'NONE', #497, 1000.000000000000000 ) ;
#489 = CIRCLE ( 'NONE', #1270, 2.589999999999870184 ) ;
#490 = EDGE_CURVE ( 'NONE', #831, #214, #760, .T. ) ;
#491 = DIRECTION ( 'NONE',  ( -0.000000000000000000, -0.000000000000000000, -1.000000000000000000 ) ) ;
#492 = CIRCLE ( 'NONE', #243, 70.74999999999232614 ) ;
#493 = DIRECTION ( 'NONE',  ( -1.000000000000000000, 0.000000000000000000, 0.000000000000000000 ) ) ;
#494 = CARTESIAN_POINT ( 'NONE',  ( -785.3253627086834285, 930.4875594820456399, -10.00000000000000000 ) ) ;
#495 = DIRECTION ( 'NONE',  ( -1.000000000000000000, 0.000000000000000000, 0.000000000000000000 ) ) ;
#496 = VERTEX_POINT ( 'NONE', #960 ) ;
#497 = DIRECTION ( 'NONE',  ( -0.000000000000000000, -0.000000000000000000, -1.000000000000000000 ) ) ;
#498 = CARTESIAN_POINT ( 'NONE',  ( -703.6518510907875452, 885.4875594820457536, 0.000000000000000000 ) ) ;
#499 = ORIENTED_EDGE ( 'NONE', *, *, #24, .T. ) ;
#500 = EDGE_CURVE ( 'NONE', #1086, #1302, #443, .T. ) ;
#501 = DIRECTION ( 'NONE',  ( -1.000000000000000000, 0.000000000000000000, 0.000000000000000000 ) ) ;
#502 = ORIENTED_EDGE ( 'NONE', *, *, #523, .F. ) ;
#503 = CARTESIAN_POINT ( 'NONE',  ( -662.7353627086835104, 970.4875594820456399, -13.49999992399996529 ) ) ;
#504 = DIRECTION ( 'NONE',  ( -1.000000000000000000, 0.000000000000000000, 0.000000000000000000 ) ) ;
#505 = ORIENTED_EDGE ( 'NONE', *, *, #1213, .F. ) ;
#506 = EDGE_CURVE ( 'NONE', #1052, #119, #1167, .T. ) ;
#507 = VERTEX_POINT ( 'NONE', #364 ) ;
#508 = CIRCLE ( 'NONE', #879, 2.589999999999870184 ) ;
#509 = CYLINDRICAL_SURFACE ( 'NONE', #429, 2.589999999999870184 ) ;
#510 = CIRCLE ( 'NONE', #1009, 45.00000000000004263 ) ;
#511 = VERTEX_POINT ( 'NONE', #352 ) ;
#512 = AXIS2_PLACEMENT_3D ( 'NONE', #342, #35, #659 ) ;
#513 = PLANE ( 'NONE',  #512 ) ;
#514 = VECTOR ( 'NONE', #653, 1000.000000000000000 ) ;
#515 = CARTESIAN_POINT ( 'NONE',  ( -543.2743465573066715, 950.4875594820450715, -11.49999992399996529 ) ) ;
#516 = VERTEX_POINT ( 'NONE', #1173 ) ;
#517 = DIRECTION ( 'NONE',  ( 0.000000000000000000, 0.000000000000000000, -1.000000000000000000 ) ) ;
#518 = ORIENTED_EDGE ( 'NONE', *, *, #1144, .T. ) ;
#519 = CARTESIAN_POINT ( 'NONE',  ( -742.8989558374905755, 895.4875594820456399, -10.00000000000000000 ) ) ;
#520 = EDGE_CURVE ( 'NONE', #768, #812, #1185, .T. ) ;
#521 = DIRECTION ( 'NONE',  ( 1.000000000000000000, -0.000000000000000000, -0.000000000000000000 ) ) ;
#522 = ORIENTED_EDGE ( 'NONE', *, *, #334, .F. ) ;
#523 = EDGE_CURVE ( 'NONE', #929, #126, #299, .T. ) ;
#524 = ORIENTED_EDGE ( 'NONE', *, *, #750, .T. ) ;
#525 = ADVANCED_FACE ( 'NONE', ( #787, #285, #897, #278, #1304, #1003, #784, #700, #1295 ), #678, .F. ) ;
#526 = CARTESIAN_POINT ( 'NONE',  ( -575.3253627086835422, 885.4875594820456399, -13.49999992399997240 ) ) ;
#527 = DIRECTION ( 'NONE',  ( 0.000000000000000000, 0.000000000000000000, -1.000000000000000000 ) ) ;
#528 = CYLINDRICAL_SURFACE ( 'NONE', #1226, 55.00000000000004974 ) ;
#529 = ORIENTED_EDGE ( 'NONE', *, *, #683, .T. ) ;
#530 = ORIENTED_EDGE ( 'NONE', *, *, #201, .T. ) ;
#531 = FACE_OUTER_BOUND ( 'NONE', #1217, .T. ) ;
#532 = VECTOR ( 'NONE', #1228, 1000.000000000000000 ) ;
#533 = FACE_OUTER_BOUND ( 'NONE', #1284, .T. ) ;
#534 = CIRCLE ( 'NONE', #1292, 2.589999999999981206 ) ;
#535 = CYLINDRICAL_SURFACE ( 'NONE', #1161, 70.74999999999232614 ) ;
#536 = EDGE_LOOP ( 'NONE', ( #44, #116 ) ) ;
#537 = VECTOR ( 'NONE', #160, 1000.000000000000000 ) ;
#538 = ORIENTED_EDGE ( 'NONE', *, *, #500, .F. ) ;
#539 = ADVANCED_FACE ( 'NONE', ( #1098 ), #485, .F. ) ;
#540 = CARTESIAN_POINT ( 'NONE',  ( -620.3253627086835422, 970.4875594820456399, -11.49999992399996529 ) ) ;
#541 = DIRECTION ( 'NONE',  ( -1.000000000000000000, 0.000000000000000000, 0.000000000000000000 ) ) ;
#542 = DIRECTION ( 'NONE',  ( -1.000000000000000000, -0.000000000000000000, -0.000000000000000000 ) ) ;
#543 = CARTESIAN_POINT ( 'NONE',  ( -712.9153627086834604, 890.4875594820456399, -11.49999992399996529 ) ) ;
#544 = ORIENTED_EDGE ( 'NONE', *, *, #817, .F. ) ;
#545 = CARTESIAN_POINT ( 'NONE',  ( -575.3253627086835422, 930.4875594820456399, -1.499999923999965290 ) ) ;
#546 = PRODUCT_DEFINITION_CONTEXT ( 'detailed design', #1179, 'design' ) ;
#547 = FACE_OUTER_BOUND ( 'NONE', #438, .T. ) ;
#548 = PLANE ( 'NONE',  #704 ) ;
#549 = CARTESIAN_POINT ( 'NONE',  ( -712.9153627086834604, 970.4875594820456399, -11.49999992399996529 ) ) ;
#550 = ORIENTED_EDGE ( 'NONE', *, *, #1245, .T. ) ;
#551 = CARTESIAN_POINT ( 'NONE',  ( -703.6518510907875452, 885.4875594820457536, -10.00000000000000000 ) ) ;
#552 = AXIS2_PLACEMENT_3D ( 'NONE', #594, #999, #177 ) ;
#553 = CYLINDRICAL_SURFACE ( 'NONE', #137, 2.589999999999981206 ) ;
#554 = CIRCLE ( 'NONE', #180, 2.589999999999981206 ) ;
#555 = DIRECTION ( 'NONE',  ( -0.000000000000000000, -0.000000000000000000, 1.000000000000000000 ) ) ;
#556 = CIRCLE ( 'NONE', #577, 2.589999999999981206 ) ;
#557 = AXIS2_PLACEMENT_3D ( 'NONE', #677, #372, #283 ) ;
#558 = ORIENTED_EDGE ( 'NONE', *, *, #675, .F. ) ;
#559 = CARTESIAN_POINT ( 'NONE',  ( -617.7353627086836241, 890.4875594820456399, -13.49999992399996529 ) ) ;
#560 = CARTESIAN_POINT ( 'NONE',  ( -710.3253627086835422, 890.4875594820456399, -13.49999992399996529 ) ) ;
#561 = EDGE_CURVE ( 'NONE', #1026, #622, #1097, .T. ) ;
#562 = VERTEX_POINT ( 'NONE', #185 ) ;
#563 = CARTESIAN_POINT ( 'NONE',  ( -575.3253627086835422, 975.4875594820456399, -13.49999992399997240 ) ) ;
#564 = CARTESIAN_POINT ( 'NONE',  ( -665.3253627086834285, 890.4875594820456399, -13.49999992399996529 ) ) ;
#565 = EDGE_LOOP ( 'NONE', ( #331, #1029, #22, #595, #913 ) ) ;
#566 = DIRECTION ( 'NONE',  ( 0.000000000000000000, 0.000000000000000000, 1.000000000000000000 ) ) ;
#567 = EDGE_CURVE ( 'NONE', #820, #1045, #584, .T. ) ;
#568 = CYLINDRICAL_SURFACE ( 'NONE', #158, 93.24999999999239719 ) ;
#569 = EDGE_CURVE ( 'NONE', #1175, #768, #373, .T. ) ;
#570 = LINE ( 'NONE', #650, #322 ) ;
#571 = ORIENTED_EDGE ( 'NONE', *, *, #433, .T. ) ;
#572 = ORIENTED_EDGE ( 'NONE', *, *, #873, .T. ) ;
#573 =( LENGTH_UNIT ( ) NAMED_UNIT ( * ) SI_UNIT ( .MILLI., .METRE. ) );
#574 = CARTESIAN_POINT ( 'NONE',  ( -622.9153627086834604, 890.4875594820456399, -11.49999992399996529 ) ) ;
#575 = DIRECTION ( 'NONE',  ( 0.000000000000000000, 0.000000000000000000, 1.000000000000000000 ) ) ;
#576 = CARTESIAN_POINT ( 'NONE',  ( -698.8929469146158908, 895.4875594820456399, -10.00000000000000000 ) ) ;
#577 = AXIS2_PLACEMENT_3D ( 'NONE', #859, #643, #457 ) ;
#578 = VECTOR ( 'NONE', #84, 1000.000000000000000 ) ;
#579 = VERTEX_POINT ( 'NONE', #907 ) ;
#580 = CARTESIAN_POINT ( 'NONE',  ( 0.000000000000000000, 0.000000000000000000, 0.000000000000000000 ) ) ;
#581 = AXIS2_PLACEMENT_3D ( 'NONE', #865, #748, #1269 ) ;
#582 = EDGE_CURVE ( 'NONE', #1052, #194, #998, .T. ) ;
#583 = DIRECTION ( 'NONE',  ( 0.000000000000000000, 0.000000000000000000, -1.000000000000000000 ) ) ;
#584 = LINE ( 'NONE', #986, #597 ) ;
#585 = DIRECTION ( 'NONE',  ( -0.000000000000000000, -0.000000000000000000, -1.000000000000000000 ) ) ;
#586 = VERTEX_POINT ( 'NONE', #188 ) ;
#587 = DIRECTION ( 'NONE',  ( -1.000000000000000000, 0.000000000000000000, 0.000000000000000000 ) ) ;
#588 = DIRECTION ( 'NONE',  ( 0.000000000000000000, 0.000000000000000000, 1.000000000000000000 ) ) ;
#589 = CARTESIAN_POINT ( 'NONE',  ( -540.6843465573066396, 950.4875594820450715, -11.49999992399996529 ) ) ;
#590 = EDGE_CURVE ( 'NONE', #1158, #1135, #813, .T. ) ;
#591 = ORIENTED_EDGE ( 'NONE', *, *, #1069, .F. ) ;
#592 = CARTESIAN_POINT ( 'NONE',  ( -620.3253627086835422, 890.4875594820456399, -13.49999992399996529 ) ) ;
#593 = CARTESIAN_POINT ( 'NONE',  ( -785.3253627086834285, 885.4875594820456399, -13.49999992399997240 ) ) ;
#594 = CARTESIAN_POINT ( 'NONE',  ( -540.6843465573066396, 950.4875594820450715, -11.49999992399996529 ) ) ;
#595 = ORIENTED_EDGE ( 'NONE', *, *, #68, .F. ) ;
#596 = VECTOR ( 'NONE', #189, 1000.000000000000000 ) ;
#597 = VECTOR ( 'NONE', #1104, 1000.000000000000000 ) ;
#598 = AXIS2_PLACEMENT_3D ( 'NONE', #1252, #329, #316 ) ;
#599 = LINE ( 'NONE', #1243, #199 ) ;
#600 = CIRCLE ( 'NONE', #474, 2.589999999999981206 ) ;
#601 = VERTEX_POINT ( 'NONE', #894 ) ;
#602 = EDGE_CURVE ( 'NONE', #464, #65, #345, .T. ) ;
#603 = DIRECTION ( 'NONE',  ( -1.000000000000000000, 0.000000000000000000, 0.000000000000000000 ) ) ;
#604 = DIRECTION ( 'NONE',  ( -1.000000000000000000, 0.000000000000000000, 0.000000000000000000 ) ) ;
#605 = DIRECTION ( 'NONE',  ( 0.000000000000000000, 0.000000000000000000, -1.000000000000000000 ) ) ;
#606 = ORIENTED_EDGE ( 'NONE', *, *, #979, .T. ) ;
#607 = PLANE ( 'NONE',  #834 ) ;
#608 = EDGE_CURVE ( 'NONE', #812, #768, #406, .T. ) ;
#609 = DIRECTION ( 'NONE',  ( -1.000000000000000000, 0.000000000000000000, 0.000000000000000000 ) ) ;
#610 = EDGE_LOOP ( 'NONE', ( #1220, #550, #407, #499, #307, #685, #709, #800, #746 ) ) ;
#611 = DIRECTION ( 'NONE',  ( 1.000000000000000000, 0.000000000000000000, 0.000000000000000000 ) ) ;
#612 = ORIENTED_EDGE ( 'NONE', *, *, #1242, .F. ) ;
#613 = LINE ( 'NONE', #25, #85 ) ;
#614 = LINE ( 'NONE', #213, #680 ) ;
#615 = ORIENTED_EDGE ( 'NONE', *, *, #861, .T. ) ;
#616 = CYLINDRICAL_SURFACE ( 'NONE', #903, 2.589999999999981206 ) ;
#617 = EDGE_CURVE ( 'NONE', #258, #496, #510, .T. ) ;
#618 = AXIS2_PLACEMENT_3D ( 'NONE', #936, #527, #723 ) ;
#619 = ORIENTED_EDGE ( 'NONE', *, *, #689, .T. ) ;
#620 = DIRECTION ( 'NONE',  ( 0.000000000000000000, -0.000000000000000000, -1.000000000000000000 ) ) ;
#621 = CARTESIAN_POINT ( 'NONE',  ( -575.3253627086835422, 965.4875594820456399, -1.499999923999965290 ) ) ;
#622 = VERTEX_POINT ( 'NONE', #389 ) ;
#623 = EDGE_CURVE ( 'NONE', #1147, #586, #181, .T. ) ;
#624 = ORIENTED_EDGE ( 'NONE', *, *, #490, .T. ) ;
#625 = PLANE ( 'NONE',  #1121 ) ;
#626 = FACE_OUTER_BOUND ( 'NONE', #1101, .T. ) ;
#627 = LINE ( 'NONE', #818, #702 ) ;
#628 = VERTEX_POINT ( 'NONE', #882 ) ;
#629 = EDGE_LOOP ( 'NONE', ( #619, #224 ) ) ;
#630 = ADVANCED_FACE ( 'NONE', ( #693 ), #1107, .T. ) ;
#631 = DIRECTION ( 'NONE',  ( -1.000000000000000000, 0.000000000000000000, 0.000000000000000000 ) ) ;
#632 = DIRECTION ( 'NONE',  ( -0.000000000000000000, -0.000000000000000000, -1.000000000000000000 ) ) ;
#633 = CARTESIAN_POINT ( 'NONE',  ( -617.7353627086836241, 890.4875594820456399, -11.49999992399996529 ) ) ;
#634 = ORIENTED_EDGE ( 'NONE', *, *, #260, .F. ) ;
#635 = EDGE_CURVE ( 'NONE', #214, #1255, #1031, .T. ) ;
#636 = ORIENTED_EDGE ( 'NONE', *, *, #1242, .T. ) ;
#637 = VECTOR ( 'NONE', #983, 1000.000000000000000 ) ;
#638 = FACE_OUTER_BOUND ( 'NONE', #747, .T. ) ;
#639 = VECTOR ( 'NONE', #324, 1000.000000000000000 ) ;
#640 = CARTESIAN_POINT ( 'NONE',  ( -730.7308345946048576, 885.4875594820457536, -10.00000000000000000 ) ) ;
#641 = VECTOR ( 'NONE', #393, 1000.000000000000000 ) ;
#642 = AXIS2_PLACEMENT_3D ( 'NONE', #952, #232, #435 ) ;
#643 = DIRECTION ( 'NONE',  ( 0.000000000000000000, 0.000000000000000000, -1.000000000000000000 ) ) ;
#644 = CIRCLE ( 'NONE', #686, 2.589999999999981206 ) ;
#645 = PRODUCT_RELATED_PRODUCT_CATEGORY ( 'part', '', ( #136 ) ) ;
#646 = ORIENTED_EDGE ( 'NONE', *, *, #249, .T. ) ;
#647 = VERTEX_POINT ( 'NONE', #889 ) ;
#648 = DIRECTION ( 'NONE',  ( 0.000000000000000000, 0.000000000000000000, -1.000000000000000000 ) ) ;
#649 = FACE_OUTER_BOUND ( 'NONE', #261, .T. ) ;
#650 = CARTESIAN_POINT ( 'NONE',  ( -617.7353627086836241, 970.4875594820456399, -11.49999992399996529 ) ) ;
#651 = FILL_AREA_STYLE ('',( #444 ) ) ;
#652 = ORIENTED_EDGE ( 'NONE', *, *, #1192, .F. ) ;
#653 = DIRECTION ( 'NONE',  ( 0.000000000000000000, 0.000000000000000000, 1.000000000000000000 ) ) ;
#654 = CYLINDRICAL_SURFACE ( 'NONE', #161, 70.74999999999232614 ) ;
#655 = DIRECTION ( 'NONE',  ( -0.000000000000000000, -0.000000000000000000, -1.000000000000000000 ) ) ;
#656 = SURFACE_STYLE_USAGE ( .BOTH. , #853 ) ;
#657 = VERTEX_POINT ( 'NONE', #378 ) ;
#658 = CARTESIAN_POINT ( 'NONE',  ( -753.7025861069995472, 975.4875594820456399, 0.000000000000000000 ) ) ;
#659 = DIRECTION ( 'NONE',  ( 1.000000000000000000, 0.000000000000000000, -0.000000000000000000 ) ) ;
#660 = ADVANCED_FACE ( 'NONE', ( #11 ), #418, .F. ) ;
#661 = ORIENTED_EDGE ( 'NONE', *, *, #974, .F. ) ;
#662 = CARTESIAN_POINT ( 'NONE',  ( -665.3253627086834285, 970.4875594820456399, -13.49999992399996529 ) ) ;
#663 = AXIS2_PLACEMENT_3D ( 'NONE', #447, #1070, #53 ) ;
#664 = CIRCLE ( 'NONE', #265, 70.74999999999232614 ) ;
#665 = EDGE_CURVE ( 'NONE', #628, #348, #1267, .T. ) ;
#666 = ORIENTED_EDGE ( 'NONE', *, *, #523, .T. ) ;
#667 = FACE_OUTER_BOUND ( 'NONE', #15, .T. ) ;
#668 = ORIENTED_EDGE ( 'NONE', *, *, #327, .T. ) ;
#669 = ADVANCED_FACE ( 'NONE', ( #400 ), #1017, .F. ) ;
#670 = FACE_OUTER_BOUND ( 'NONE', #28, .T. ) ;
#671 = ORIENTED_EDGE ( 'NONE', *, *, #480, .F. ) ;
#672 = DIRECTION ( 'NONE',  ( -1.000000000000000000, 0.000000000000000000, 0.000000000000000000 ) ) ;
#673 = CARTESIAN_POINT ( 'NONE',  ( -662.7353627086835104, 970.4875594820456399, -11.49999992399996529 ) ) ;
#674 = CARTESIAN_POINT ( 'NONE',  ( -785.3253627086834285, 930.4875594820456399, -10.00000000000000000 ) ) ;
#675 = EDGE_CURVE ( 'NONE', #1147, #891, #809, .T. ) ;
#676 = VERTEX_POINT ( 'NONE', #414 ) ;
#677 = CARTESIAN_POINT ( 'NONE',  ( -575.3253627086835422, 930.4875594820456399, -283.9163455837991705 ) ) ;
#678 = PLANE ( 'NONE',  #1311 ) ;
#679 = COLOUR_RGB ( '',0.7921568627450980005, 0.8196078431372548767, 0.9333333333333333481 ) ;
#680 = VECTOR ( 'NONE', #521, 1000.000000000000000 ) ;
#681 = CARTESIAN_POINT ( 'NONE',  ( -667.9153627086834604, 890.4875594820456399, -13.49999992399996529 ) ) ;
#682 = AXIS2_PLACEMENT_3D ( 'NONE', #18, #409, #1244 ) ;
#683 = EDGE_CURVE ( 'NONE', #119, #258, #1207, .T. ) ;
#684 = AXIS2_PLACEMENT_3D ( 'NONE', #743, #140, #771 ) ;
#685 = ORIENTED_EDGE ( 'NONE', *, *, #1102, .F. ) ;
#686 = AXIS2_PLACEMENT_3D ( 'NONE', #764, #835, #1169 ) ;
#687 = DIRECTION ( 'NONE',  ( -1.000000000000000000, 0.000000000000000000, 0.000000000000000000 ) ) ;
#688 = DIRECTION ( 'NONE',  ( 0.000000000000000000, 0.000000000000000000, 1.000000000000000000 ) ) ;
#689 = EDGE_CURVE ( 'NONE', #579, #1113, #428, .T. ) ;
#690 = CARTESIAN_POINT ( 'NONE',  ( -575.3253627086835422, 930.4875594820456399, -1.499999923999965290 ) ) ;
#691 = ORIENTED_EDGE ( 'NONE', *, *, #369, .T. ) ;
#692 = CARTESIAN_POINT ( 'NONE',  ( -575.3253627086835422, 965.4875594820456399, -10.00000000000000000 ) ) ;
#693 = FACE_OUTER_BOUND ( 'NONE', #923, .T. ) ;
#694 = CARTESIAN_POINT ( 'NONE',  ( -662.7353627086835104, 890.4875594820456399, -11.49999992399996529 ) ) ;
#695 = ORIENTED_EDGE ( 'NONE', *, *, #490, .F. ) ;
#696 = ORIENTED_EDGE ( 'NONE', *, *, #805, .F. ) ;
#697 = ADVANCED_FACE ( 'NONE', ( #626 ), #108, .F. ) ;
#698 = CARTESIAN_POINT ( 'NONE',  ( -538.0943465573067215, 950.4875594820450715, -11.49999992399996529 ) ) ;
#699 = ORIENTED_EDGE ( 'NONE', *, *, #1046, .F. ) ;
#700 = FACE_BOUND ( 'NONE', #38, .T. ) ;
#701 = DIRECTION ( 'NONE',  ( 0.000000000000000000, 0.000000000000000000, -1.000000000000000000 ) ) ;
#702 = VECTOR ( 'NONE', #609, 1000.000000000000000 ) ;
#703 = VERTEX_POINT ( 'NONE', #1036 ) ;
#704 = AXIS2_PLACEMENT_3D ( 'NONE', #966, #982, #1273 ) ;
#705 = AXIS2_PLACEMENT_3D ( 'NONE', #1006, #380, #1103 ) ;
#706 = EDGE_CURVE ( 'NONE', #676, #312, #857, .T. ) ;
#707 = DIRECTION ( 'NONE',  ( -0.000000000000000000, -0.000000000000000000, 1.000000000000000000 ) ) ;
#708 = AXIS2_PLACEMENT_3D ( 'NONE', #540, #1251, #1176 ) ;
#709 = ORIENTED_EDGE ( 'NONE', *, *, #369, .F. ) ;
#710 = CYLINDRICAL_SURFACE ( 'NONE', #598, 2.589999999999870184 ) ;
#711 = CARTESIAN_POINT ( 'NONE',  ( -698.8929469146158908, 965.4875594820456399, -10.00000000000000000 ) ) ;
#712 = SHAPE_DEFINITION_REPRESENTATION ( #31, #171 ) ;
#713 = ORIENTED_EDGE ( 'NONE', *, *, #665, .F. ) ;
#714 = CARTESIAN_POINT ( 'NONE',  ( -662.7353627086835104, 970.4875594820456399, -11.49999992399996529 ) ) ;
#715 = ORIENTED_EDGE ( 'NONE', *, *, #1279, .F. ) ;
#716 = CARTESIAN_POINT ( 'NONE',  ( -714.5753627086911592, 930.4875594820456399, 0.000000000000000000 ) ) ;
#717 = CARTESIAN_POINT ( 'NONE',  ( -707.7353627086835104, 970.4875594820456399, -13.49999992399996529 ) ) ;
#718 = EDGE_LOOP ( 'NONE', ( #396, #315, #1297, #815 ) ) ;
#719 = ORIENTED_EDGE ( 'NONE', *, *, #1309, .T. ) ;
#720 = EDGE_CURVE ( 'NONE', #496, #340, #613, .T. ) ;
#721 = PLANE ( 'NONE',  #1080 ) ;
#722 = ORIENTED_EDGE ( 'NONE', *, *, #1148, .F. ) ;
#723 = DIRECTION ( 'NONE',  ( -1.000000000000000000, 0.000000000000000000, 0.000000000000000000 ) ) ;
#724 = CARTESIAN_POINT ( 'NONE',  ( -703.6518510907875452, 975.4875594820455262, 0.000000000000000000 ) ) ;
#725 = ORIENTED_EDGE ( 'NONE', *, *, #500, .T. ) ;
#726 = AXIS2_PLACEMENT_3D ( 'NONE', #103, #738, #1253 ) ;
#727 = VECTOR ( 'NONE', #1092, 1000.000000000000000 ) ;
#728 = CARTESIAN_POINT ( 'NONE',  ( -540.6843465573066396, 950.4875594820450715, -11.49999992399996529 ) ) ;
#729 = VECTOR ( 'NONE', #754, 1000.000000000000000 ) ;
#730 = AXIS2_PLACEMENT_3D ( 'NONE', #1205, #475, #1200 ) ;
#731 = DIRECTION ( 'NONE',  ( 0.000000000000000000, 0.000000000000000000, -1.000000000000000000 ) ) ;
#732 = DIRECTION ( 'NONE',  ( -0.000000000000000000, -0.000000000000000000, -1.000000000000000000 ) ) ;
#733 = ADVANCED_FACE ( 'NONE', ( #226 ), #607, .T. ) ;
#734 = EDGE_LOOP ( 'NONE', ( #1035, #92 ) ) ;
#735 = ORIENTED_EDGE ( 'NONE', *, *, #237, .T. ) ;
#736 = CARTESIAN_POINT ( 'NONE',  ( -665.3253627086834285, 970.4875594820456399, -11.49999992399996529 ) ) ;
#737 = CARTESIAN_POINT ( 'NONE',  ( -540.6843465573074354, 910.4875594820449578, -11.49999992399996529 ) ) ;
#738 = DIRECTION ( 'NONE',  ( 0.000000000000000000, 0.000000000000000000, 1.000000000000000000 ) ) ;
#739 = ORIENTED_EDGE ( 'NONE', *, *, #569, .F. ) ;
#740 = ORIENTED_EDGE ( 'NONE', *, *, #918, .F. ) ;
#741 = DIRECTION ( 'NONE',  ( -1.000000000000000000, 0.000000000000000000, 0.000000000000000000 ) ) ;
#742 = EDGE_CURVE ( 'NONE', #133, #1302, #773, .T. ) ;
#743 = CARTESIAN_POINT ( 'NONE',  ( -710.3253627086835422, 970.4875594820456399, -13.49999992399996529 ) ) ;
#744 = LINE ( 'NONE', #852, #1117 ) ;
#745 = VERTEX_POINT ( 'NONE', #1239 ) ;
#746 = ORIENTED_EDGE ( 'NONE', *, *, #58, .F. ) ;
#747 = EDGE_LOOP ( 'NONE', ( #411, #62 ) ) ;
#748 = DIRECTION ( 'NONE',  ( 0.000000000000000000, 0.000000000000000000, -1.000000000000000000 ) ) ;
#749 = AXIS2_PLACEMENT_3D ( 'NONE', #790, #585, #1202 ) ;
#750 = EDGE_CURVE ( 'NONE', #126, #374, #96, .T. ) ;
#751 = CARTESIAN_POINT ( 'NONE',  ( -575.3253627086835422, 895.4875594820456399, -13.49999992399996529 ) ) ;
#752 = AXIS2_PLACEMENT_3D ( 'NONE', #1318, #72, #476 ) ;
#753 = AXIS2_PLACEMENT_3D ( 'NONE', #1106, #990, #672 ) ;
#754 = DIRECTION ( 'NONE',  ( -0.000000000000000000, -0.000000000000000000, -1.000000000000000000 ) ) ;
#755 = VECTOR ( 'NONE', #34, 1000.000000000000000 ) ;
#756 =( NAMED_UNIT ( * ) PLANE_ANGLE_UNIT ( ) SI_UNIT ( $, .RADIAN. ) );
#757 = ORIENTED_EDGE ( 'NONE', *, *, #422, .F. ) ;
#758 = CARTESIAN_POINT ( 'NONE',  ( -742.8989558374905755, 965.4875594820456399, -1.499999923999965290 ) ) ;
#759 = FACE_OUTER_BOUND ( 'NONE', #849, .T. ) ;
#760 = LINE ( 'NONE', #141, #134 ) ;
#761 = CARTESIAN_POINT ( 'NONE',  ( -575.3253627086835422, 965.4875594820456399, -13.49999992399996529 ) ) ;
#762 = ADVANCED_FACE ( 'NONE', ( #1225 ), #310, .F. ) ;
#763 = VERTEX_POINT ( 'NONE', #716 ) ;
#764 = CARTESIAN_POINT ( 'NONE',  ( -710.3253627086835422, 890.4875594820456399, -13.49999992399996529 ) ) ;
#765 = CARTESIAN_POINT ( 'NONE',  ( -620.3253627086835422, 890.4875594820456399, -13.49999992399996529 ) ) ;
#766 = ADVANCED_FACE ( 'NONE', ( #1145 ), #710, .F. ) ;
#767 = CARTESIAN_POINT ( 'NONE',  ( -692.0753627086910456, 930.4875594820456399, -10.00000000000000000 ) ) ;
#768 = VERTEX_POINT ( 'NONE', #503 ) ;
#769 = APPLICATION_PROTOCOL_DEFINITION ( 'draft international standard', 'automotive_design', 1998, #1179 ) ;
#770 = STYLED_ITEM ( 'NONE', ( #269 ), #76 ) ;
#771 = DIRECTION ( 'NONE',  ( -1.000000000000000000, 0.000000000000000000, 0.000000000000000000 ) ) ;
#772 = ORIENTED_EDGE ( 'NONE', *, *, #590, .T. ) ;
#773 = CIRCLE ( 'NONE', #49, 93.24999999999239719 ) ;
#774 = CARTESIAN_POINT ( 'NONE',  ( -710.3253627086835422, 890.4875594820456399, -11.49999992399996529 ) ) ;
#775 = VECTOR ( 'NONE', #479, 1000.000000000000000 ) ;
#776 = CARTESIAN_POINT ( 'NONE',  ( -665.3253627086834285, 890.4875594820456399, -13.49999992399996529 ) ) ;
#777 = ORIENTED_EDGE ( 'NONE', *, *, #344, .T. ) ;
#778 = CARTESIAN_POINT ( 'NONE',  ( -540.6843465573074354, 910.4875594820449578, -13.49999992399996529 ) ) ;
#779 = EDGE_CURVE ( 'NONE', #1113, #579, #1312, .T. ) ;
#780 = DIRECTION ( 'NONE',  ( 1.000000000000000000, 0.000000000000000000, 0.000000000000000000 ) ) ;
#781 = CYLINDRICAL_SURFACE ( 'NONE', #749, 2.589999999999870184 ) ;
#782 = ORIENTED_EDGE ( 'NONE', *, *, #304, .F. ) ;
#783 = LINE ( 'NONE', #1090, #472 ) ;
#784 = FACE_BOUND ( 'NONE', #91, .T. ) ;
#785 = CARTESIAN_POINT ( 'NONE',  ( -575.3253627086835422, 885.4875594820456399, 0.000000000000000000 ) ) ;
#786 = DIRECTION ( 'NONE',  ( 1.000000000000000000, -0.000000000000000000, 0.000000000000000000 ) ) ;
#787 = FACE_BOUND ( 'NONE', #333, .T. ) ;
#788 = AXIS2_PLACEMENT_3D ( 'NONE', #690, #486, #1118 ) ;
#789 = AXIS2_PLACEMENT_3D ( 'NONE', #589, #1004, #604 ) ;
#790 = CARTESIAN_POINT ( 'NONE',  ( -620.3253627086835422, 970.4875594820456399, -11.49999992399996529 ) ) ;
#791 = AXIS2_PLACEMENT_3D ( 'NONE', #1212, #1300, #273 ) ;
#792 = CIRCLE ( 'NONE', #1120, 2.589999999999870184 ) ;
#793 = ORIENTED_EDGE ( 'NONE', *, *, #433, .F. ) ;
#794 = DIRECTION ( 'NONE',  ( -0.000000000000000000, -0.000000000000000000, 1.000000000000000000 ) ) ;
#795 = DIRECTION ( 'NONE',  ( -1.000000000000000000, 0.000000000000000000, 0.000000000000000000 ) ) ;
#796 = CARTESIAN_POINT ( 'NONE',  ( -665.3253627086834285, 970.4875594820456399, -11.49999992399996529 ) ) ;
#797 = ADVANCED_FACE ( 'NONE', ( #1027 ), #513, .T. ) ;
#798 = VERTEX_POINT ( 'NONE', #751 ) ;
#799 = DIRECTION ( 'NONE',  ( -1.000000000000000000, 0.000000000000000000, 0.000000000000000000 ) ) ;
#800 = ORIENTED_EDGE ( 'NONE', *, *, #173, .F. ) ;
#801 = DIRECTION ( 'NONE',  ( 1.000000000000000000, 0.000000000000000000, 0.000000000000000000 ) ) ;
#802 = EDGE_CURVE ( 'NONE', #1302, #340, #263, .T. ) ;
#803 = DIRECTION ( 'NONE',  ( -0.000000000000000000, -0.000000000000000000, -1.000000000000000000 ) ) ;
#804 = ORIENTED_EDGE ( 'NONE', *, *, #1309, .F. ) ;
#805 = EDGE_CURVE ( 'NONE', #312, #676, #6, .T. ) ;
#806 = EDGE_CURVE ( 'NONE', #745, #929, #980, .T. ) ;
#807 = CARTESIAN_POINT ( 'NONE',  ( -785.3253627086834285, 930.4875594820456399, 0.000000000000000000 ) ) ;
#808 = ORIENTED_EDGE ( 'NONE', *, *, #569, .T. ) ;
#809 = LINE ( 'NONE', #102, #488 ) ;
#810 = LINE ( 'NONE', #515, #468 ) ;
#811 = EDGE_LOOP ( 'NONE', ( #671, #14, #518, #996 ) ) ;
#812 = VERTEX_POINT ( 'NONE', #1264 ) ;
#813 = CIRCLE ( 'NONE', #973, 2.589999999999981206 ) ;
#814 = CARTESIAN_POINT ( 'NONE',  ( -710.3253627086835422, 890.4875594820456399, -11.49999992399996529 ) ) ;
#815 = ORIENTED_EDGE ( 'NONE', *, *, #287, .F. ) ;
#816 = DIRECTION ( 'NONE',  ( 0.000000000000000000, 0.000000000000000000, -1.000000000000000000 ) ) ;
#817 = EDGE_CURVE ( 'NONE', #464, #496, #257, .T. ) ;
#818 = CARTESIAN_POINT ( 'NONE',  ( -575.3253627086835422, 975.4875594820456399, 0.000000000000000000 ) ) ;
#819 = ORIENTED_EDGE ( 'NONE', *, *, #635, .F. ) ;
#820 = VERTEX_POINT ( 'NONE', #1077 ) ;
#821 = FACE_OUTER_BOUND ( 'NONE', #166, .T. ) ;
#822 = ORIENTED_EDGE ( 'NONE', *, *, #1285, .F. ) ;
#823 = DIRECTION ( 'NONE',  ( 1.000000000000000000, 0.000000000000000000, 0.000000000000000000 ) ) ;
#824 = DIRECTION ( 'NONE',  ( 0.000000000000000000, 0.000000000000000000, -1.000000000000000000 ) ) ;
#825 = ADVANCED_FACE ( 'NONE', ( #533 ), #553, .F. ) ;
#826 = ORIENTED_EDGE ( 'NONE', *, *, #153, .F. ) ;
#827 = CARTESIAN_POINT ( 'NONE',  ( -667.9153627086834604, 970.4875594820456399, -11.49999992399996529 ) ) ;
#828 = EDGE_CURVE ( 'NONE', #203, #703, #183, .T. ) ;
#829 = CARTESIAN_POINT ( 'NONE',  ( -575.3253627086835422, 930.4875594820456399, 0.000000000000000000 ) ) ;
#830 = DIRECTION ( 'NONE',  ( -0.000000000000000000, -0.000000000000000000, -1.000000000000000000 ) ) ;
#831 = VERTEX_POINT ( 'NONE', #866 ) ;
#832 = VERTEX_POINT ( 'NONE', #972 ) ;
#833 = AXIS2_PLACEMENT_3D ( 'NONE', #1305, #193, #1314 ) ;
#834 = AXIS2_PLACEMENT_3D ( 'NONE', #1022, #816, #321 ) ;
#835 = DIRECTION ( 'NONE',  ( 0.000000000000000000, 0.000000000000000000, -1.000000000000000000 ) ) ;
#836 = VECTOR ( 'NONE', #1211, 1000.000000000000000 ) ;
#837 = VECTOR ( 'NONE', #216, 1000.000000000000000 ) ;
#838 = DIRECTION ( 'NONE',  ( -0.000000000000000000, -0.000000000000000000, -1.000000000000000000 ) ) ;
#839 = FACE_OUTER_BOUND ( 'NONE', #536, .T. ) ;
#840 = ORIENTED_EDGE ( 'NONE', *, *, #427, .T. ) ;
#841 = ORIENTED_EDGE ( 'NONE', *, *, #455, .F. ) ;
#842 = EDGE_CURVE ( 'NONE', #326, #339, #52, .T. ) ;
#843 = DIRECTION ( 'NONE',  ( 0.000000000000000000, 0.000000000000000000, -1.000000000000000000 ) ) ;
#844 = FACE_OUTER_BOUND ( 'NONE', #292, .T. ) ;
#845 = CARTESIAN_POINT ( 'NONE',  ( -698.8929469146158908, 895.4875594820456399, -10.00000000000000000 ) ) ;
#846 = EDGE_LOOP ( 'NONE', ( #739, #826, #478, #1221 ) ) ;
#847 = EDGE_LOOP ( 'NONE', ( #1000, #652, #451, #606 ) ) ;
#848 = ADVANCED_FACE ( 'NONE', ( #844 ), #1272, .F. ) ;
#849 = EDGE_LOOP ( 'NONE', ( #1323, #270, #66, #984, #916, #215 ) ) ;
#850 = CYLINDRICAL_SURFACE ( 'NONE', #113, 2.589999999999981206 ) ;
#851 = DIRECTION ( 'NONE',  ( 0.000000000000000000, 0.000000000000000000, 1.000000000000000000 ) ) ;
#852 = CARTESIAN_POINT ( 'NONE',  ( -742.8989558374905755, 965.4875594820456399, -1.499999923999965290 ) ) ;
#853 = SURFACE_SIDE_STYLE ('',( #1174 ) ) ;
#854 = ORIENTED_EDGE ( 'NONE', *, *, #1194, .F. ) ;
#855 = PLANE ( 'NONE',  #303 ) ;
#856 = DIRECTION ( 'NONE',  ( -1.000000000000000000, 0.000000000000000000, 0.000000000000000000 ) ) ;
#857 = CIRCLE ( 'NONE', #282, 2.589999999999981206 ) ;
#858 = AXIS2_PLACEMENT_3D ( 'NONE', #59, #1166, #128 ) ;
#859 = CARTESIAN_POINT ( 'NONE',  ( -710.3253627086835422, 970.4875594820456399, -11.49999992399996529 ) ) ;
#860 = CIRCLE ( 'NONE', #7, 55.00000000000004974 ) ;
#861 = EDGE_CURVE ( 'NONE', #745, #562, #238, .T. ) ;
#862 = ORIENTED_EDGE ( 'NONE', *, *, #1182, .T. ) ;
#863 = EDGE_CURVE ( 'NONE', #1215, #884, #1012, .T. ) ;
#864 = ORIENTED_EDGE ( 'NONE', *, *, #993, .F. ) ;
#865 = CARTESIAN_POINT ( 'NONE',  ( -620.3253627086835422, 890.4875594820456399, -11.49999992399996529 ) ) ;
#866 = CARTESIAN_POINT ( 'NONE',  ( -723.8390837515136127, 895.4875594820456399, -1.499999923999965290 ) ) ;
#867 = DIRECTION ( 'NONE',  ( 0.000000000000000000, 0.000000000000000000, -1.000000000000000000 ) ) ;
#868 = ADVANCED_FACE ( 'NONE', ( #649 ), #459, .F. ) ;
#869 = DIRECTION ( 'NONE',  ( 0.000000000000000000, 0.000000000000000000, -1.000000000000000000 ) ) ;
#870 = ORIENTED_EDGE ( 'NONE', *, *, #130, .T. ) ;
#871 = CARTESIAN_POINT ( 'NONE',  ( -575.3253627086835422, 975.4875594820456399, -283.9163455837991705 ) ) ;
#872 = ORIENTED_EDGE ( 'NONE', *, *, #608, .F. ) ;
#873 = EDGE_CURVE ( 'NONE', #891, #516, #792, .T. ) ;
#874 = DIRECTION ( 'NONE',  ( -0.000000000000000000, -0.000000000000000000, 1.000000000000000000 ) ) ;
#875 = DIRECTION ( 'NONE',  ( -1.000000000000000000, 0.000000000000000000, 0.000000000000000000 ) ) ;
#876 = ORIENTED_EDGE ( 'NONE', *, *, #1322, .T. ) ;
#877 = PRODUCT_CONTEXT ( 'NONE', #151, 'mechanical' ) ;
#878 = ADVANCED_FACE ( 'NONE', ( #1171 ), #441, .T. ) ;
#879 = AXIS2_PLACEMENT_3D ( 'NONE', #1301, #701, #477 ) ;
#880 = CARTESIAN_POINT ( 'NONE',  ( -710.3253627086835422, 970.4875594820456399, -11.49999992399996529 ) ) ;
#881 = VECTOR ( 'NONE', #449, 1000.000000000000000 ) ;
#882 = CARTESIAN_POINT ( 'NONE',  ( -543.2743465573074673, 910.4875594820449578, -13.49999992399996529 ) ) ;
#883 = AXIS2_PLACEMENT_3D ( 'NONE', #336, #252, #1283 ) ;
#884 = VERTEX_POINT ( 'NONE', #1049 ) ;
#885 = VECTOR ( 'NONE', #1075, 1000.000000000000000 ) ;
#886 = ORIENTED_EDGE ( 'NONE', *, *, #1213, .T. ) ;
#887 = DIRECTION ( 'NONE',  ( -1.000000000000000000, 0.000000000000000000, 0.000000000000000000 ) ) ;
#888 = CARTESIAN_POINT ( 'NONE',  ( -703.6518510907875452, 885.4875594820457536, -10.00000000000000000 ) ) ;
#889 = CARTESIAN_POINT ( 'NONE',  ( -575.3253627086835422, 965.4875594820456399, -13.49999992399996529 ) ) ;
#890 = PLANE ( 'NONE',  #552 ) ;
#891 = VERTEX_POINT ( 'NONE', #1177 ) ;
#892 =( NAMED_UNIT ( * ) SI_UNIT ( $, .STERADIAN. ) SOLID_ANGLE_UNIT ( ) );
#893 = CARTESIAN_POINT ( 'NONE',  ( -575.3253627086835422, 930.4875594820456399, -1.499999923999965290 ) ) ;
#894 = CARTESIAN_POINT ( 'NONE',  ( -662.7353627086835104, 890.4875594820456399, -13.49999992399996529 ) ) ;
#895 = FACE_OUTER_BOUND ( 'NONE', #453, .T. ) ;
#896 = LINE ( 'NONE', #1310, #836 ) ;
#897 = FACE_BOUND ( 'NONE', #229, .T. ) ;
#898 = VECTOR ( 'NONE', #1065, 1000.000000000000000 ) ;
#899 = FACE_OUTER_BOUND ( 'NONE', #458, .T. ) ;
#900 = ADVANCED_FACE ( 'NONE', ( #547 ), #964, .F. ) ;
#901 = ORIENTED_EDGE ( 'NONE', *, *, #918, .T. ) ;
#902 = CIRCLE ( 'NONE', #1142, 2.589999999999981206 ) ;
#903 = AXIS2_PLACEMENT_3D ( 'NONE', #728, #1112, #799 ) ;
#904 = ORIENTED_EDGE ( 'NONE', *, *, #842, .F. ) ;
#905 = CARTESIAN_POINT ( 'NONE',  ( -712.9153627086834604, 890.4875594820456399, -11.49999992399996529 ) ) ;
#906 = ADVANCED_FACE ( 'NONE', ( #759 ), #654, .T. ) ;
#907 = CARTESIAN_POINT ( 'NONE',  ( -543.2743465573074673, 910.4875594820449578, -11.49999992399996529 ) ) ;
#908 = CARTESIAN_POINT ( 'NONE',  ( -698.8929469146158908, 965.4875594820456399, -10.00000000000000000 ) ) ;
#909 = ORIENTED_EDGE ( 'NONE', *, *, #191, .T. ) ;
#910 = EDGE_CURVE ( 'NONE', #125, #601, #190, .T. ) ;
#911 = ORIENTED_EDGE ( 'NONE', *, *, #1091, .T. ) ;
#912 = CARTESIAN_POINT ( 'NONE',  ( -543.2743465573066715, 950.4875594820450715, -13.49999992399996529 ) ) ;
#913 = ORIENTED_EDGE ( 'NONE', *, *, #195, .F. ) ;
#914 = DIRECTION ( 'NONE',  ( -0.000000000000000000, -0.000000000000000000, -1.000000000000000000 ) ) ;
#915 = DIRECTION ( 'NONE',  ( -0.000000000000000000, -0.000000000000000000, -1.000000000000000000 ) ) ;
#916 = ORIENTED_EDGE ( 'NONE', *, *, #130, .F. ) ;
#917 = CARTESIAN_POINT ( 'NONE',  ( -538.0943465573075173, 910.4875594820449578, -11.49999992399996529 ) ) ;
#918 = EDGE_CURVE ( 'NONE', #144, #703, #377, .T. ) ;
#919 = VERTEX_POINT ( 'NONE', #905 ) ;
#920 = CARTESIAN_POINT ( 'NONE',  ( -710.3253627086835422, 970.4875594820456399, -13.49999992399996529 ) ) ;
#921 = AXIS2_PLACEMENT_3D ( 'NONE', #564, #353, #875 ) ;
#922 = LINE ( 'NONE', #415, #532 ) ;
#923 = EDGE_LOOP ( 'NONE', ( #938, #962, #946, #854, #804, #275, #615, #782 ) ) ;
#924 = AXIS2_PLACEMENT_3D ( 'NONE', #774, #1071, #268 ) ;
#925 = ORIENTED_EDGE ( 'NONE', *, *, #779, .F. ) ;
#926 = AXIS2_PLACEMENT_3D ( 'NONE', #466, #1218, #795 ) ;
#927 = AXIS2_PLACEMENT_3D ( 'NONE', #560, #46, #1257 ) ;
#928 = DIRECTION ( 'NONE',  ( 1.000000000000000000, 0.000000000000000000, -0.000000000000000000 ) ) ;
#929 = VERTEX_POINT ( 'NONE', #888 ) ;
#930 = DIRECTION ( 'NONE',  ( -1.000000000000000000, 0.000000000000000000, 0.000000000000000000 ) ) ;
#931 = FACE_OUTER_BOUND ( 'NONE', #1067, .T. ) ;
#932 = ORIENTED_EDGE ( 'NONE', *, *, #802, .F. ) ;
#933 = EDGE_CURVE ( 'NONE', #820, #135, #1303, .T. ) ;
#934 = CARTESIAN_POINT ( 'NONE',  ( -785.3253627086834285, 930.4875594820456399, -10.00000000000000000 ) ) ;
#935 = ORIENTED_EDGE ( 'NONE', *, *, #287, .T. ) ;
#936 = CARTESIAN_POINT ( 'NONE',  ( -540.6843465573074354, 910.4875594820449578, -11.49999992399996529 ) ) ;
#937 = FACE_OUTER_BOUND ( 'NONE', #300, .T. ) ;
#938 = ORIENTED_EDGE ( 'NONE', *, *, #87, .F. ) ;
#939 = ORIENTED_EDGE ( 'NONE', *, *, #720, .F. ) ;
#940 = DIRECTION ( 'NONE',  ( 0.000000000000000000, 0.000000000000000000, -1.000000000000000000 ) ) ;
#941 = CARTESIAN_POINT ( 'NONE',  ( -785.3253627086834285, 930.4875594820456399, 0.000000000000000000 ) ) ;
#942 = ADVANCED_FACE ( 'NONE', ( #1293 ), #1298, .F. ) ;
#943 = LINE ( 'NONE', #27, #448 ) ;
#944 = ORIENTED_EDGE ( 'NONE', *, *, #173, .T. ) ;
#945 = CLOSED_SHELL ( 'NONE', ( #906, #398, #1281, #955, #167, #766, #394, #825, #669, #660, #987, #1159, #525, #878, #630, #1085, #97, #121, #277, #1005, #539, #697, #1203, #290, #848, #733, #868, #383, #942, #12, #1048, #1116, #900, #1320, #1061, #142, #762, #469, #797, #1230, #1042, #357, #332 ) ) ;
#946 = ORIENTED_EDGE ( 'NONE', *, *, #506, .T. ) ;
#947 = CIRCLE ( 'NONE', #789, 2.589999999999981206 ) ;
#948 = AXIS2_PLACEMENT_3D ( 'NONE', #154, #555, #54 ) ;
#949 = CARTESIAN_POINT ( 'NONE',  ( -540.6843465573074354, 910.4875594820449578, -11.49999992399996529 ) ) ;
#950 = AXIS2_PLACEMENT_3D ( 'NONE', #93, #1231, #495 ) ;
#951 = VECTOR ( 'NONE', #1128, 1000.000000000000000 ) ;
#952 = CARTESIAN_POINT ( 'NONE',  ( -620.3253627086835422, 890.4875594820456399, -11.49999992399996529 ) ) ;
#953 = EDGE_CURVE ( 'NONE', #1088, #812, #783, .T. ) ;
#954 = LINE ( 'NONE', #1152, #639 ) ;
#955 = ADVANCED_FACE ( 'NONE', ( #1096 ), #182, .F. ) ;
#956 = ORIENTED_EDGE ( 'NONE', *, *, #1222, .T. ) ;
#957 = EDGE_LOOP ( 'NONE', ( #30, #114 ) ) ;
#958 = LINE ( 'NONE', #658, #885 ) ;
#959 = CARTESIAN_POINT ( 'NONE',  ( -620.3253627086835422, 970.4875594820456399, -13.49999992399996529 ) ) ;
#960 = CARTESIAN_POINT ( 'NONE',  ( -575.3253627086835422, 975.4875594820456399, 0.000000000000000000 ) ) ;
#961 = LINE ( 'NONE', #165, #637 ) ;
#962 = ORIENTED_EDGE ( 'NONE', *, *, #582, .F. ) ;
#963 = DIRECTION ( 'NONE',  ( -1.000000000000000000, 0.000000000000000000, 0.000000000000000000 ) ) ;
#964 = CYLINDRICAL_SURFACE ( 'NONE', #663, 2.589999999999870184 ) ;
#965 = EDGE_CURVE ( 'NONE', #149, #432, #1056, .T. ) ;
#966 = CARTESIAN_POINT ( 'NONE',  ( -540.6843465573074354, 910.4875594820449578, -11.49999992399996529 ) ) ;
#967 = LINE ( 'NONE', #543, #239 ) ;
#968 = CIRCLE ( 'NONE', #921, 2.589999999999981206 ) ;
#969 = ORIENTED_EDGE ( 'NONE', *, *, #933, .T. ) ;
#970 = CIRCLE ( 'NONE', #280, 45.00000000000004263 ) ;
#971 = CARTESIAN_POINT ( 'NONE',  ( -620.3253627086835422, 970.4875594820456399, -11.49999992399996529 ) ) ;
#972 = CARTESIAN_POINT ( 'NONE',  ( -667.9153627086834604, 890.4875594820456399, -11.49999992399996529 ) ) ;
#973 = AXIS2_PLACEMENT_3D ( 'NONE', #78, #481, #493 ) ;
#974 = EDGE_CURVE ( 'NONE', #339, #884, #985, .T. ) ;
#975 = CIRCLE ( 'NONE', #387, 2.589999999999981206 ) ;
#976 = LINE ( 'NONE', #845, #367 ) ;
#977 = VERTEX_POINT ( 'NONE', #276 ) ;
#978 = DIRECTION ( 'NONE',  ( -0.000000000000000000, -0.000000000000000000, -1.000000000000000000 ) ) ;
#979 = EDGE_CURVE ( 'NONE', #884, #1215, #489, .T. ) ;
#980 = LINE ( 'NONE', #1156, #1078 ) ;
#981 = EDGE_LOOP ( 'NONE', ( #864, #808, #313, #363 ) ) ;
#982 = DIRECTION ( 'NONE',  ( 0.000000000000000000, 0.000000000000000000, -1.000000000000000000 ) ) ;
#983 = DIRECTION ( 'NONE',  ( 0.000000000000000000, 0.000000000000000000, 1.000000000000000000 ) ) ;
#984 = ORIENTED_EDGE ( 'NONE', *, *, #861, .F. ) ;
#985 = LINE ( 'NONE', #574, #86 ) ;
#986 = CARTESIAN_POINT ( 'NONE',  ( -723.8390837515136127, 965.4875594820456399, -10.00000000000000000 ) ) ;
#987 = ADVANCED_FACE ( 'NONE', ( #1186 ), #168, .T. ) ;
#988 = ORIENTED_EDGE ( 'NONE', *, *, #1172, .F. ) ;
#989 = ORIENTED_EDGE ( 'NONE', *, *, #94, .F. ) ;
#990 = DIRECTION ( 'NONE',  ( -0.000000000000000000, -0.000000000000000000, -1.000000000000000000 ) ) ;
#991 = AXIS2_PLACEMENT_3D ( 'NONE', #1313, #295, #801 ) ;
#992 = DIRECTION ( 'NONE',  ( 0.000000000000000000, -0.000000000000000000, -1.000000000000000000 ) ) ;
#993 = EDGE_CURVE ( 'NONE', #1175, #1088, #408, .T. ) ;
#994 = CARTESIAN_POINT ( 'NONE',  ( -707.7353627086835104, 970.4875594820456399, -11.49999992399996529 ) ) ;
#995 = AXIS2_PLACEMENT_3D ( 'NONE', #115, #940, #1020 ) ;
#996 = ORIENTED_EDGE ( 'NONE', *, *, #665, .T. ) ;
#997 = DIRECTION ( 'NONE',  ( -1.000000000000000000, 0.000000000000000000, 0.000000000000000000 ) ) ;
#998 = LINE ( 'NONE', #593, #641 ) ;
#999 = DIRECTION ( 'NONE',  ( 0.000000000000000000, 0.000000000000000000, -1.000000000000000000 ) ) ;
#1000 = ORIENTED_EDGE ( 'NONE', *, *, #221, .F. ) ;
#1001 = DIRECTION ( 'NONE',  ( 0.000000000000000000, 0.000000000000000000, -1.000000000000000000 ) ) ;
#1002 = EDGE_CURVE ( 'NONE', #348, #628, #975, .T. ) ;
#1003 = FACE_BOUND ( 'NONE', #1238, .T. ) ;
#1004 = DIRECTION ( 'NONE',  ( 0.000000000000000000, 0.000000000000000000, -1.000000000000000000 ) ) ;
#1005 = ADVANCED_FACE ( 'NONE', ( #77 ), #484, .F. ) ;
#1006 = CARTESIAN_POINT ( 'NONE',  ( -665.3253627086834285, 970.4875594820456399, -11.49999992399996529 ) ) ;
#1007 = PRESENTATION_LAYER_ASSIGNMENT (  '', '', ( #770 ) ) ;
#1008 = DIRECTION ( 'NONE',  ( 0.000000000000000000, 1.000000000000000000, -0.000000000000000000 ) ) ;
#1009 = AXIS2_PLACEMENT_3D ( 'NONE', #88, #381, #780 ) ;
#1010 = LINE ( 'NONE', #379, #319 ) ;
#1011 = ORIENTED_EDGE ( 'NONE', *, *, #1091, .F. ) ;
#1012 = CIRCLE ( 'NONE', #32, 2.589999999999870184 ) ;
#1013 = CIRCLE ( 'NONE', #1057, 93.24999999999239719 ) ;
#1014 = ORIENTED_EDGE ( 'NONE', *, *, #842, .T. ) ;
#1015 = DIRECTION ( 'NONE',  ( -1.000000000000000000, 0.000000000000000000, 0.000000000000000000 ) ) ;
#1016 = ORIENTED_EDGE ( 'NONE', *, *, #1072, .T. ) ;
#1017 = CYLINDRICAL_SURFACE ( 'NONE', #682, 2.589999999999981206 ) ;
#1018 = LINE ( 'NONE', #98, #1140 ) ;
#1019 = EDGE_CURVE ( 'NONE', #831, #374, #1316, .T. ) ;
#1020 = DIRECTION ( 'NONE',  ( -1.000000000000000000, 0.000000000000000000, 0.000000000000000000 ) ) ;
#1021 = ORIENTED_EDGE ( 'NONE', *, *, #231, .F. ) ;
#1022 = CARTESIAN_POINT ( 'NONE',  ( -710.3253627086835422, 970.4875594820456399, -11.49999992399996529 ) ) ;
#1023 = FACE_OUTER_BOUND ( 'NONE', #420, .T. ) ;
#1024 = EDGE_LOOP ( 'NONE', ( #969, #909, #234, #338 ) ) ;
#1025 = FACE_OUTER_BOUND ( 'NONE', #565, .T. ) ;
#1026 = VERTEX_POINT ( 'NONE', #266 ) ;
#1027 = FACE_OUTER_BOUND ( 'NONE', #1024, .T. ) ;
#1028 = DIRECTION ( 'NONE',  ( -0.000000000000000000, -0.000000000000000000, -1.000000000000000000 ) ) ;
#1029 = ORIENTED_EDGE ( 'NONE', *, *, #561, .T. ) ;
#1030 = ORIENTED_EDGE ( 'NONE', *, *, #635, .T. ) ;
#1031 = CIRCLE ( 'NONE', #752, 55.00000000000004974 ) ;
#1032 = AXIS2_PLACEMENT_3D ( 'NONE', #871, #1064, #851 ) ;
#1033 = DIRECTION ( 'NONE',  ( 0.000000000000000000, 0.000000000000000000, -1.000000000000000000 ) ) ;
#1034 = VECTOR ( 'NONE', #45, 1000.000000000000000 ) ;
#1035 = ORIENTED_EDGE ( 'NONE', *, *, #455, .T. ) ;
#1036 = CARTESIAN_POINT ( 'NONE',  ( -707.7353627086835104, 890.4875594820456399, -13.49999992399996529 ) ) ;
#1037 = DIRECTION ( 'NONE',  ( 0.000000000000000000, 0.000000000000000000, -1.000000000000000000 ) ) ;
#1038 = ORIENTED_EDGE ( 'NONE', *, *, #24, .F. ) ;
#1039 = CARTESIAN_POINT ( 'NONE',  ( -620.3253627086835422, 890.4875594820456399, -11.49999992399996529 ) ) ;
#1040 = EDGE_CURVE ( 'NONE', #473, #507, #896, .T. ) ;
#1041 = CARTESIAN_POINT ( 'NONE',  ( -665.3253627086834285, 970.4875594820456399, -11.49999992399996529 ) ) ;
#1042 = ADVANCED_FACE ( 'NONE', ( #667 ), #568, .F. ) ;
#1043 = DIRECTION ( 'NONE',  ( 1.000000000000000000, 0.000000000000000000, 0.000000000000000000 ) ) ;
#1044 = ORIENTED_EDGE ( 'NONE', *, *, #1322, .F. ) ;
#1045 = VERTEX_POINT ( 'NONE', #9 ) ;
#1046 = EDGE_CURVE ( 'NONE', #657, #763, #599, .T. ) ;
#1047 = LINE ( 'NONE', #349, #755 ) ;
#1048 = ADVANCED_FACE ( 'NONE', ( #1237 ), #509, .F. ) ;
#1049 = CARTESIAN_POINT ( 'NONE',  ( -622.9153627086834604, 890.4875594820456399, -13.49999992399996529 ) ) ;
#1050 = DIRECTION ( 'NONE',  ( -1.000000000000000000, 0.000000000000000000, 0.000000000000000000 ) ) ;
#1051 = ORIENTED_EDGE ( 'NONE', *, *, #462, .F. ) ;
#1052 = VERTEX_POINT ( 'NONE', #526 ) ;
#1053 = CIRCLE ( 'NONE', #385, 93.24999999999239719 ) ;
#1054 = AXIS2_PLACEMENT_3D ( 'NONE', #61, #588, #200 ) ;
#1055 = LINE ( 'NONE', #446, #1034 ) ;
#1056 = CIRCLE ( 'NONE', #223, 2.589999999999981206 ) ;
#1057 = AXIS2_PLACEMENT_3D ( 'NONE', #75, #1127, #887 ) ;
#1058 = CARTESIAN_POINT ( 'NONE',  ( -710.3253627086835422, 890.4875594820456399, -11.49999992399996529 ) ) ;
#1059 = CARTESIAN_POINT ( 'NONE',  ( -540.6843465573066396, 950.4875594820450715, -13.49999992399996529 ) ) ;
#1060 = EDGE_LOOP ( 'NONE', ( #1038, #886, #1109, #1241 ) ) ;
#1061 = ADVANCED_FACE ( 'NONE', ( #320 ), #616, .F. ) ;
#1062 = ORIENTED_EDGE ( 'NONE', *, *, #20, .T. ) ;
#1063 = FACE_OUTER_BOUND ( 'NONE', #163, .T. ) ;
#1064 = DIRECTION ( 'NONE',  ( 0.000000000000000000, 1.000000000000000000, -0.000000000000000000 ) ) ;
#1065 = DIRECTION ( 'NONE',  ( -0.000000000000000000, -0.000000000000000000, -1.000000000000000000 ) ) ;
#1066 = ORIENTED_EDGE ( 'NONE', *, *, #873, .F. ) ;
#1067 = EDGE_LOOP ( 'NONE', ( #437, #413 ) ) ;
#1068 = DIRECTION ( 'NONE',  ( -0.000000000000000000, -0.000000000000000000, -1.000000000000000000 ) ) ;
#1069 = EDGE_CURVE ( 'NONE', #144, #919, #902, .T. ) ;
#1070 = DIRECTION ( 'NONE',  ( -0.000000000000000000, -0.000000000000000000, -1.000000000000000000 ) ) ;
#1071 = DIRECTION ( 'NONE',  ( 0.000000000000000000, 0.000000000000000000, -1.000000000000000000 ) ) ;
#1072 = EDGE_CURVE ( 'NONE', #487, #1326, #323, .T. ) ;
#1073 = DIRECTION ( 'NONE',  ( -1.000000000000000000, 0.000000000000000000, 0.000000000000000000 ) ) ;
#1074 = ORIENTED_EDGE ( 'NONE', *, *, #675, .T. ) ;
#1075 = DIRECTION ( 'NONE',  ( -0.000000000000000000, -0.000000000000000000, -1.000000000000000000 ) ) ;
#1076 = AXIS2_PLACEMENT_3D ( 'NONE', #1233, #1324, #1151 ) ;
#1077 = CARTESIAN_POINT ( 'NONE',  ( -723.8390837515136127, 965.4875594820456399, -10.00000000000000000 ) ) ;
#1078 = VECTOR ( 'NONE', #356, 1000.000000000000000 ) ;
#1079 = EDGE_LOOP ( 'NONE', ( #944, #1268, #1044, #777 ) ) ;
#1080 = AXIS2_PLACEMENT_3D ( 'NONE', #1134, #1033, #1328 ) ;
#1081 = DIRECTION ( 'NONE',  ( 0.000000000000000000, 0.000000000000000000, -1.000000000000000000 ) ) ;
#1082 =( NAMED_UNIT ( * ) SI_UNIT ( $, .STERADIAN. ) SOLID_ANGLE_UNIT ( ) );
#1083 = VERTEX_POINT ( 'NONE', #912 ) ;
#1084 = DIRECTION ( 'NONE',  ( -0.000000000000000000, -0.000000000000000000, -1.000000000000000000 ) ) ;
#1085 = ADVANCED_FACE ( 'NONE', ( #197 ), #105, .T. ) ;
#1086 = VERTEX_POINT ( 'NONE', #122 ) ;
#1087 = PLANE ( 'NONE',  #924 ) ;
#1088 = VERTEX_POINT ( 'NONE', #827 ) ;
#1089 = ORIENTED_EDGE ( 'NONE', *, *, #55, .T. ) ;
#1090 = CARTESIAN_POINT ( 'NONE',  ( -667.9153627086834604, 970.4875594820456399, -11.49999992399996529 ) ) ;
#1091 = EDGE_CURVE ( 'NONE', #832, #125, #371, .T. ) ;
#1092 = DIRECTION ( 'NONE',  ( -0.000000000000000000, -0.000000000000000000, -1.000000000000000000 ) ) ;
#1093 = DIRECTION ( 'NONE',  ( 1.000000000000000000, 0.000000000000000000, 0.000000000000000000 ) ) ;
#1094 = ORIENTED_EDGE ( 'NONE', *, *, #742, .T. ) ;
#1095 = AXIS2_PLACEMENT_3D ( 'NONE', #776, #1296, #1073 ) ;
#1096 = FACE_OUTER_BOUND ( 'NONE', #718, .T. ) ;
#1097 = CIRCLE ( 'NONE', #1227, 55.00000000000004974 ) ;
#1098 = FACE_OUTER_BOUND ( 'NONE', #211, .T. ) ;
#1099 = VECTOR ( 'NONE', #246, 1000.000000000000000 ) ;
#1100 = CARTESIAN_POINT ( 'NONE',  ( -742.8989558374905755, 895.4875594820456399, -1.499999923999965290 ) ) ;
#1101 = EDGE_LOOP ( 'NONE', ( #1154, #840, #822, #1262, #691, #1260, #695, #1119 ) ) ;
#1102 = EDGE_CURVE ( 'NONE', #1289, #194, #860, .T. ) ;
#1103 = DIRECTION ( 'NONE',  ( -1.000000000000000000, 0.000000000000000000, 0.000000000000000000 ) ) ;
#1104 = DIRECTION ( 'NONE',  ( -0.000000000000000000, -0.000000000000000000, 1.000000000000000000 ) ) ;
#1105 = CARTESIAN_POINT ( 'NONE',  ( -575.3253627086835422, 965.4875594820456399, -1.499999923999965290 ) ) ;
#1106 = CARTESIAN_POINT ( 'NONE',  ( -665.3253627086834285, 890.4875594820456399, -11.49999992399996529 ) ) ;
#1107 = PLANE ( 'NONE',  #29 ) ;
#1108 = DIRECTION ( 'NONE',  ( 0.000000000000000000, 0.000000000000000000, -1.000000000000000000 ) ) ;
#1109 = ORIENTED_EDGE ( 'NONE', *, *, #683, .F. ) ;
#1110 = EDGE_CURVE ( 'NONE', #977, #798, #417, .T. ) ;
#1111 = ORIENTED_EDGE ( 'NONE', *, *, #910, .F. ) ;
#1112 = DIRECTION ( 'NONE',  ( -0.000000000000000000, -0.000000000000000000, -1.000000000000000000 ) ) ;
#1113 = VERTEX_POINT ( 'NONE', #917 ) ;
#1114 = CARTESIAN_POINT ( 'NONE',  ( -575.3253627086835422, 965.4875594820456399, -1.499999923999965290 ) ) ;
#1115 = VECTOR ( 'NONE', #1028, 1000.000000000000000 ) ;
#1116 = ADVANCED_FACE ( 'NONE', ( #821 ), #721, .T. ) ;
#1117 = VECTOR ( 'NONE', #655, 1000.000000000000000 ) ;
#1118 = DIRECTION ( 'NONE',  ( -1.000000000000000000, 0.000000000000000000, -0.000000000000000000 ) ) ;
#1119 = ORIENTED_EDGE ( 'NONE', *, *, #1019, .T. ) ;
#1120 = AXIS2_PLACEMENT_3D ( 'NONE', #959, #146, #362 ) ;
#1121 = AXIS2_PLACEMENT_3D ( 'NONE', #807, #1223, #1123 ) ;
#1122 = ORIENTED_EDGE ( 'NONE', *, *, #1245, .F. ) ;
#1123 = DIRECTION ( 'NONE',  ( 1.000000000000000000, 0.000000000000000000, -0.000000000000000000 ) ) ;
#1124 = ORIENTED_EDGE ( 'NONE', *, *, #623, .F. ) ;
#1125 = DIRECTION ( 'NONE',  ( 1.000000000000000000, 0.000000000000000000, 0.000000000000000000 ) ) ;
#1126 = FACE_OUTER_BOUND ( 'NONE', #402, .T. ) ;
#1127 = DIRECTION ( 'NONE',  ( 0.000000000000000000, 0.000000000000000000, -1.000000000000000000 ) ) ;
#1128 = DIRECTION ( 'NONE',  ( -0.000000000000000000, -0.000000000000000000, -1.000000000000000000 ) ) ;
#1129 = ORIENTED_EDGE ( 'NONE', *, *, #706, .F. ) ;
#1130 = DIRECTION ( 'NONE',  ( 0.000000000000000000, 0.000000000000000000, -1.000000000000000000 ) ) ;
#1131 = LINE ( 'NONE', #1146, #404 ) ;
#1132 = ORIENTED_EDGE ( 'NONE', *, *, #863, .F. ) ;
#1133 = ORIENTED_EDGE ( 'NONE', *, *, #561, .F. ) ;
#1134 = CARTESIAN_POINT ( 'NONE',  ( -620.3253627086835422, 890.4875594820456399, -11.49999992399996529 ) ) ;
#1135 = VERTEX_POINT ( 'NONE', #698 ) ;
#1136 = DIRECTION ( 'NONE',  ( 0.000000000000000000, 0.000000000000000000, 1.000000000000000000 ) ) ;
#1137 = AXIS2_PLACEMENT_3D ( 'NONE', #674, #202, #1093 ) ;
#1138 = AXIS2_PLACEMENT_3D ( 'NONE', #1197, #186, #1247 ) ;
#1139 = CARTESIAN_POINT ( 'NONE',  ( -742.8989558374905755, 895.4875594820456399, -1.499999923999965290 ) ) ;
#1140 = VECTOR ( 'NONE', #915, 1000.000000000000000 ) ;
#1141 = ORIENTED_EDGE ( 'NONE', *, *, #1182, .F. ) ;
#1142 = AXIS2_PLACEMENT_3D ( 'NONE', #814, #605, #1015 ) ;
#1143 = LINE ( 'NONE', #1321, #837 ) ;
#1144 = EDGE_CURVE ( 'NONE', #579, #628, #1143, .T. ) ;
#1145 = FACE_OUTER_BOUND ( 'NONE', #17, .T. ) ;
#1146 = CARTESIAN_POINT ( 'NONE',  ( -742.8989558374905755, 895.4875594820456399, -13.49999992399996529 ) ) ;
#1147 = VERTEX_POINT ( 'NONE', #16 ) ;
#1148 = EDGE_CURVE ( 'NONE', #919, #144, #600, .T. ) ;
#1149 = ORIENTED_EDGE ( 'NONE', *, *, #237, .F. ) ;
#1150 = LINE ( 'NONE', #551, #138 ) ;
#1151 = DIRECTION ( 'NONE',  ( -1.000000000000000000, 0.000000000000000000, 0.000000000000000000 ) ) ;
#1152 = CARTESIAN_POINT ( 'NONE',  ( -703.6518510907875452, 975.4875594820455262, -10.00000000000000000 ) ) ;
#1153 = ORIENTED_EDGE ( 'NONE', *, *, #806, .T. ) ;
#1154 = ORIENTED_EDGE ( 'NONE', *, *, #750, .F. ) ;
#1155 = CARTESIAN_POINT ( 'NONE',  ( -692.0753627086910456, 930.4875594820456399, 0.000000000000000000 ) ) ;
#1156 = CARTESIAN_POINT ( 'NONE',  ( -730.7308345946048576, 885.4875594820457536, -10.00000000000000000 ) ) ;
#1157 = LINE ( 'NONE', #41, #898 ) ;
#1158 = VERTEX_POINT ( 'NONE', #397 ) ;
#1159 = ADVANCED_FACE ( 'NONE', ( #1025 ), #625, .T. ) ;
#1160 = DIRECTION ( 'NONE',  ( 1.000000000000000000, -0.000000000000000000, -0.000000000000000000 ) ) ;
#1161 = AXIS2_PLACEMENT_3D ( 'NONE', #220, #419, #1043 ) ;
#1162 = AXIS2_PLACEMENT_3D ( 'NONE', #829, #1136, #1125 ) ;
#1163 = ORIENTED_EDGE ( 'NONE', *, *, #933, .F. ) ;
#1164 = PLANE ( 'NONE',  #1189 ) ;
#1165 = CIRCLE ( 'NONE', #452, 35.00000000000002842 ) ;
#1166 = DIRECTION ( 'NONE',  ( 0.000000000000000000, 0.000000000000000000, 1.000000000000000000 ) ) ;
#1167 = LINE ( 'NONE', #164, #881 ) ;
#1168 = ORIENTED_EDGE ( 'NONE', *, *, #344, .F. ) ;
#1169 = DIRECTION ( 'NONE',  ( -1.000000000000000000, 0.000000000000000000, 0.000000000000000000 ) ) ;
#1170 = UNCERTAINTY_MEASURE_WITH_UNIT (LENGTH_MEASURE( 1.000000000000000082E-05 ), #573, 'distance_accuracy_value', 'NONE');
#1171 = FACE_OUTER_BOUND ( 'NONE', #159, .T. ) ;
#1172 = EDGE_CURVE ( 'NONE', #507, #820, #492, .T. ) ;
#1173 = CARTESIAN_POINT ( 'NONE',  ( -617.7353627086836241, 970.4875594820456399, -13.49999992399996529 ) ) ;
#1174 = SURFACE_STYLE_FILL_AREA ( #651 ) ;
#1175 = VERTEX_POINT ( 'NONE', #714 ) ;
#1176 = DIRECTION ( 'NONE',  ( -1.000000000000000000, 0.000000000000000000, 0.000000000000000000 ) ) ;
#1177 = CARTESIAN_POINT ( 'NONE',  ( -622.9153627086834604, 970.4875594820456399, -13.49999992399996529 ) ) ;
#1178 = DIRECTION ( 'NONE',  ( -0.000000000000000000, -0.000000000000000000, 1.000000000000000000 ) ) ;
#1179 = APPLICATION_CONTEXT ( 'automotive_design' ) ;
#1180 = DIRECTION ( 'NONE',  ( -1.000000000000000000, 0.000000000000000000, -0.000000000000000000 ) ) ;
#1181 = VECTOR ( 'NONE', #79, 1000.000000000000000 ) ;
#1182 = EDGE_CURVE ( 'NONE', #832, #205, #210, .T. ) ;
#1183 = ORIENTED_EDGE ( 'NONE', *, *, #979, .F. ) ;
#1184 = APPLICATION_PROTOCOL_DEFINITION ( 'draft international standard', 'automotive_design', 1998, #151 ) ;
#1185 = CIRCLE ( 'NONE', #157, 2.589999999999981206 ) ;
#1186 = FACE_OUTER_BOUND ( 'NONE', #1060, .T. ) ;
#1187 = VECTOR ( 'NONE', #786, 1000.000000000000000 ) ;
#1188 = ORIENTED_EDGE ( 'NONE', *, *, #480, .T. ) ;
#1189 = AXIS2_PLACEMENT_3D ( 'NONE', #971, #245, #145 ) ;
#1190 = CYLINDRICAL_SURFACE ( 'NONE', #948, 93.24999999999239719 ) ;
#1191 = LINE ( 'NONE', #761, #297 ) ;
#1192 = EDGE_CURVE ( 'NONE', #339, #326, #1250, .T. ) ;
#1193 = ORIENTED_EDGE ( 'NONE', *, *, #376, .F. ) ;
#1194 = EDGE_CURVE ( 'NONE', #133, #119, #1055, .T. ) ;
#1195 = CARTESIAN_POINT ( 'NONE',  ( -662.7353627086835104, 890.4875594820456399, -11.49999992399996529 ) ) ;
#1196 = DIRECTION ( 'NONE',  ( -1.000000000000000000, 0.000000000000000000, 0.000000000000000000 ) ) ;
#1197 = CARTESIAN_POINT ( 'NONE',  ( -785.3253627086834285, 930.4875594820456399, -1.499999923999965290 ) ) ;
#1198 = EDGE_LOOP ( 'NONE', ( #1021, #624, #1030, #735, #715 ) ) ;
#1199 = CARTESIAN_POINT ( 'NONE',  ( -742.8989558374905755, 965.4875594820456399, -13.49999992399996529 ) ) ;
#1200 = DIRECTION ( 'NONE',  ( -1.000000000000000000, 0.000000000000000000, 0.000000000000000000 ) ) ;
#1201 = CARTESIAN_POINT ( 'NONE',  ( -785.3253627086834285, 930.4875594820456399, 0.000000000000000000 ) ) ;
#1202 = DIRECTION ( 'NONE',  ( -1.000000000000000000, 0.000000000000000000, 0.000000000000000000 ) ) ;
#1203 = ADVANCED_FACE ( 'NONE', ( #328 ), #139, .F. ) ;
#1204 = EDGE_LOOP ( 'NONE', ( #1111, #1011, #862, #8 ) ) ;
#1205 = CARTESIAN_POINT ( 'NONE',  ( -540.6843465573066396, 950.4875594820450715, -11.49999992399996529 ) ) ;
#1206 = AXIS2_PLACEMENT_3D ( 'NONE', #170, #247, #461 ) ;
#1207 = CIRCLE ( 'NONE', #1162, 45.00000000000004263 ) ;
#1208 = DIRECTION ( 'NONE',  ( 1.000000000000000000, 0.000000000000000000, 0.000000000000000000 ) ) ;
#1209 = AXIS2_PLACEMENT_3D ( 'NONE', #893, #187, #587 ) ;
#1210 = DIRECTION ( 'NONE',  ( 1.000000000000000000, 0.000000000000000000, 0.000000000000000000 ) ) ;
#1211 = DIRECTION ( 'NONE',  ( -1.000000000000000000, 0.000000000000000000, 0.000000000000000000 ) ) ;
#1212 = CARTESIAN_POINT ( 'NONE',  ( -665.3253627086834285, 970.4875594820456399, -13.49999992399996529 ) ) ;
#1213 = EDGE_CURVE ( 'NONE', #65, #258, #355, .T. ) ;
#1214 = DIRECTION ( 'NONE',  ( -1.000000000000000000, 0.000000000000000000, 0.000000000000000000 ) ) ;
#1215 = VERTEX_POINT ( 'NONE', #559 ) ;
#1216 = CARTESIAN_POINT ( 'NONE',  ( -575.3253627086835422, 895.4875594820456399, -1.499999923999965290 ) ) ;
#1217 = EDGE_LOOP ( 'NONE', ( #524, #870, #1153, #666 ) ) ;
#1218 = DIRECTION ( 'NONE',  ( 0.000000000000000000, 0.000000000000000000, -1.000000000000000000 ) ) ;
#1219 = CARTESIAN_POINT ( 'NONE',  ( -712.9153627086834604, 890.4875594820456399, -13.49999992399996529 ) ) ;
#1220 = ORIENTED_EDGE ( 'NONE', *, *, #1072, .F. ) ;
#1221 = ORIENTED_EDGE ( 'NONE', *, *, #608, .T. ) ;
#1222 = EDGE_CURVE ( 'NONE', #511, #1086, #1271, .T. ) ;
#1223 = DIRECTION ( 'NONE',  ( 0.000000000000000000, 0.000000000000000000, 1.000000000000000000 ) ) ;
#1224 = VERTEX_POINT ( 'NONE', #341 ) ;
#1225 = FACE_OUTER_BOUND ( 'NONE', #811, .T. ) ;
#1226 = AXIS2_PLACEMENT_3D ( 'NONE', #4, #330, #504 ) ;
#1227 = AXIS2_PLACEMENT_3D ( 'NONE', #1201, #289, #1196 ) ;
#1228 = DIRECTION ( 'NONE',  ( 1.000000000000000000, 0.000000000000000000, 0.000000000000000000 ) ) ;
#1229 = ORIENTED_EDGE ( 'NONE', *, *, #720, .T. ) ;
#1230 = ADVANCED_FACE ( 'NONE', ( #531 ), #855, .T. ) ;
#1231 = DIRECTION ( 'NONE',  ( 0.000000000000000000, 0.000000000000000000, -1.000000000000000000 ) ) ;
#1232 = ORIENTED_EDGE ( 'NONE', *, *, #388, .T. ) ;
#1233 = CARTESIAN_POINT ( 'NONE',  ( -540.6843465573074354, 910.4875594820449578, -13.49999992399996529 ) ) ;
#1234 = PLANE ( 'NONE',  #155 ) ;
#1235 = ORIENTED_EDGE ( 'NONE', *, *, #20, .F. ) ;
#1236 = ORIENTED_EDGE ( 'NONE', *, *, #249, .F. ) ;
#1237 = FACE_OUTER_BOUND ( 'NONE', #847, .T. ) ;
#1238 = EDGE_LOOP ( 'NONE', ( #1066, #99 ) ) ;
#1239 = CARTESIAN_POINT ( 'NONE',  ( -730.7308345946048576, 885.4875594820456399, -10.00000000000000888 ) ) ;
#1240 = DIRECTION ( 'NONE',  ( 0.000000000000000000, 0.000000000000000000, -1.000000000000000000 ) ) ;
#1241 = ORIENTED_EDGE ( 'NONE', *, *, #506, .F. ) ;
#1242 = EDGE_CURVE ( 'NONE', #703, #203, #644, .T. ) ;
#1243 = CARTESIAN_POINT ( 'NONE',  ( -714.5753627086911592, 930.4875594820456399, -10.00000000000000000 ) ) ;
#1244 = DIRECTION ( 'NONE',  ( -1.000000000000000000, 0.000000000000000000, 0.000000000000000000 ) ) ;
#1245 = EDGE_CURVE ( 'NONE', #487, #464, #1047, .T. ) ;
#1246 = AXIS2_PLACEMENT_3D ( 'NONE', #1280, #470, #242 ) ;
#1247 = DIRECTION ( 'NONE',  ( -1.000000000000000000, 0.000000000000000000, 0.000000000000000000 ) ) ;
#1248 = ORIENTED_EDGE ( 'NONE', *, *, #742, .F. ) ;
#1249 = ORIENTED_EDGE ( 'NONE', *, *, #376, .T. ) ;
#1250 = CIRCLE ( 'NONE', #581, 2.589999999999870184 ) ;
#1251 = DIRECTION ( 'NONE',  ( 0.000000000000000000, 0.000000000000000000, -1.000000000000000000 ) ) ;
#1252 = CARTESIAN_POINT ( 'NONE',  ( -620.3253627086835422, 890.4875594820456399, -11.49999992399996529 ) ) ;
#1253 = DIRECTION ( 'NONE',  ( 1.000000000000000000, 0.000000000000000000, 0.000000000000000000 ) ) ;
#1254 = ORIENTED_EDGE ( 'NONE', *, *, #1144, .F. ) ;
#1255 = VERTEX_POINT ( 'NONE', #758 ) ;
#1256 = LINE ( 'NONE', #335, #284 ) ;
#1257 = DIRECTION ( 'NONE',  ( -1.000000000000000000, 0.000000000000000000, 0.000000000000000000 ) ) ;
#1258 = EDGE_CURVE ( 'NONE', #586, #1147, #1294, .T. ) ;
#1259 = CARTESIAN_POINT ( 'NONE',  ( -712.9153627086834604, 970.4875594820456399, -11.49999992399996529 ) ) ;
#1260 = ORIENTED_EDGE ( 'NONE', *, *, #272, .F. ) ;
#1261 = EDGE_LOOP ( 'NONE', ( #80, #60, #359, #989 ) ) ;
#1262 = ORIENTED_EDGE ( 'NONE', *, *, #1110, .T. ) ;
#1263 = DIRECTION ( 'NONE',  ( 0.000000000000000000, 0.000000000000000000, 1.000000000000000000 ) ) ;
#1264 = CARTESIAN_POINT ( 'NONE',  ( -667.9153627086834604, 970.4875594820456399, -13.49999992399996529 ) ) ;
#1265 = DIRECTION ( 'NONE',  ( -1.000000000000000000, 0.000000000000000000, 0.000000000000000000 ) ) ;
#1266 =( LENGTH_UNIT ( ) NAMED_UNIT ( * ) SI_UNIT ( .MILLI., .METRE. ) );
#1267 = CIRCLE ( 'NONE', #1076, 2.589999999999981206 ) ;
#1268 = ORIENTED_EDGE ( 'NONE', *, *, #1110, .F. ) ;
#1269 = DIRECTION ( 'NONE',  ( -1.000000000000000000, 0.000000000000000000, 0.000000000000000000 ) ) ;
#1270 = AXIS2_PLACEMENT_3D ( 'NONE', #592, #583, #687 ) ;
#1271 = CIRCLE ( 'NONE', #184, 93.24999999999239719 ) ;
#1272 = CYLINDRICAL_SURFACE ( 'NONE', #883, 2.589999999999981206 ) ;
#1273 = DIRECTION ( 'NONE',  ( -1.000000000000000000, 0.000000000000000000, -0.000000000000000000 ) ) ;
#1274 = CARTESIAN_POINT ( 'NONE',  ( -575.3253627086835422, 930.4875594820456399, -13.49999992399997240 ) ) ;
#1275 = ORIENTED_EDGE ( 'NONE', *, *, #1327, .F. ) ;
#1276 = CARTESIAN_POINT ( 'NONE',  ( -667.9153627086834604, 890.4875594820456399, -11.49999992399996529 ) ) ;
#1277 = DIRECTION ( 'NONE',  ( 0.000000000000000000, 0.000000000000000000, -1.000000000000000000 ) ) ;
#1278 = FACE_OUTER_BOUND ( 'NONE', #629, .T. ) ;
#1279 = EDGE_CURVE ( 'NONE', #657, #1045, #664, .T. ) ;
#1280 = CARTESIAN_POINT ( 'NONE',  ( -785.3253627086834285, 930.4875594820456399, 0.000000000000000000 ) ) ;
#1281 = ADVANCED_FACE ( 'NONE', ( #1063 ), #850, .F. ) ;
#1282 = VERTEX_POINT ( 'NONE', #454 ) ;
#1283 = DIRECTION ( 'NONE',  ( -1.000000000000000000, 0.000000000000000000, 0.000000000000000000 ) ) ;
#1284 = EDGE_LOOP ( 'NONE', ( #591, #901, #636, #1235 ) ) ;
#1285 = EDGE_CURVE ( 'NONE', #977, #294, #1256, .T. ) ;
#1286 = DIRECTION ( 'NONE',  ( -1.000000000000000000, 0.000000000000000000, 0.000000000000000000 ) ) ;
#1287 = CARTESIAN_POINT ( 'NONE',  ( -530.3253627086834285, 930.4875594820456399, -13.49999992399997240 ) ) ;
#1288 = AXIS2_PLACEMENT_3D ( 'NONE', #796, #274, #1214 ) ;
#1289 = VERTEX_POINT ( 'NONE', #39 ) ;
#1290 = DIRECTION ( 'NONE',  ( 1.000000000000000000, 0.000000000000000000, 0.000000000000000000 ) ) ;
#1291 = PRODUCT_DEFINITION ( 'General', '', #71, #546 ) ;
#1292 = AXIS2_PLACEMENT_3D ( 'NONE', #1059, #867, #1265 ) ;
#1293 = FACE_OUTER_BOUND ( 'NONE', #1204, .T. ) ;
#1294 = CIRCLE ( 'NONE', #708, 2.589999999999870184 ) ;
#1295 = FACE_OUTER_BOUND ( 'NONE', #610, .T. ) ;
#1296 = DIRECTION ( 'NONE',  ( 0.000000000000000000, 0.000000000000000000, -1.000000000000000000 ) ) ;
#1297 = ORIENTED_EDGE ( 'NONE', *, *, #334, .T. ) ;
#1298 = CYLINDRICAL_SURFACE ( 'NONE', #753, 2.589999999999981206 ) ;
#1299 = EDGE_CURVE ( 'NONE', #1026, #487, #958, .T. ) ;
#1300 = DIRECTION ( 'NONE',  ( 0.000000000000000000, 0.000000000000000000, -1.000000000000000000 ) ) ;
#1301 = CARTESIAN_POINT ( 'NONE',  ( -620.3253627086835422, 970.4875594820456399, -13.49999992399996529 ) ) ;
#1302 = VERTEX_POINT ( 'NONE', #1155 ) ;
#1303 = LINE ( 'NONE', #692, #1187 ) ;
#1304 = FACE_BOUND ( 'NONE', #5, .T. ) ;
#1305 = CARTESIAN_POINT ( 'NONE',  ( -575.3253627086835422, 930.4875594820456399, -13.49999992399996529 ) ) ;
#1306 = ORIENTED_EDGE ( 'NONE', *, *, #1258, .F. ) ;
#1307 = CIRCLE ( 'NONE', #1288, 2.589999999999981206 ) ;
#1308 = AXIS2_PLACEMENT_3D ( 'NONE', #395, #803, #286 ) ;
#1309 = EDGE_CURVE ( 'NONE', #929, #133, #1150, .T. ) ;
#1310 = CARTESIAN_POINT ( 'NONE',  ( -703.6518510907875452, 975.4875594820455262, -10.00000000000000000 ) ) ;
#1311 = AXIS2_PLACEMENT_3D ( 'NONE', #82, #688, #1208 ) ;
#1312 = CIRCLE ( 'NONE', #112, 2.589999999999981206 ) ;
#1313 = CARTESIAN_POINT ( 'NONE',  ( -575.3253627086835422, 930.4875594820456399, -13.49999992399997240 ) ) ;
#1314 = DIRECTION ( 'NONE',  ( -1.000000000000000000, 0.000000000000000000, 0.000000000000000000 ) ) ;
#1315 = ORIENTED_EDGE ( 'NONE', *, *, #94, .T. ) ;
#1316 = LINE ( 'NONE', #386, #578 ) ;
#1317 = ORIENTED_EDGE ( 'NONE', *, *, #1222, .F. ) ;
#1318 = CARTESIAN_POINT ( 'NONE',  ( -785.3253627086834285, 930.4875594820456399, -1.499999923999965290 ) ) ;
#1319 = CARTESIAN_POINT ( 'NONE',  ( -753.7025861069995472, 885.4875594820456399, -13.49999992399996529 ) ) ;
#1320 = ADVANCED_FACE ( 'NONE', ( #638 ), #1164, .T. ) ;
#1321 = CARTESIAN_POINT ( 'NONE',  ( -543.2743465573074673, 910.4875594820449578, -11.49999992399996529 ) ) ;
#1322 = EDGE_CURVE ( 'NONE', #366, #977, #1165, .T. ) ;
#1323 = ORIENTED_EDGE ( 'NONE', *, *, #231, .T. ) ;
#1324 = DIRECTION ( 'NONE',  ( 0.000000000000000000, 0.000000000000000000, -1.000000000000000000 ) ) ;
#1325 = CARTESIAN_POINT ( 'NONE',  ( -575.3253627086835422, 930.4875594820456399, -1.499999923999965290 ) ) ;
#1326 = VERTEX_POINT ( 'NONE', #1199 ) ;
#1327 = EDGE_CURVE ( 'NONE', #1086, #294, #1013, .T. ) ;
#1328 = DIRECTION ( 'NONE',  ( -1.000000000000000000, 0.000000000000000000, -0.000000000000000000 ) ) ;
ENDSEC;
END-ISO-10303-21;
